<svg xmlns="http://www.w3.org/2000/svg" xmlns:xlink="http://www.w3.org/1999/xlink" width="500" zoomAndPan="magnify" viewBox="0 0 375 374.999991" height="500" preserveAspectRatio="xMidYMid meet" version="1.0"><defs><clipPath id="f58e1c3605"><path d="M 154 19.359375 L 368 19.359375 L 368 178 L 154 178 Z M 154 19.359375 " clip-rule="nonzero"/></clipPath><clipPath id="38a5944277"><path d="M 13.410156 136 L 175 136 L 175 317 L 13.410156 317 Z M 13.410156 136 " clip-rule="nonzero"/></clipPath><clipPath id="4008265a06"><path d="M 153 302 L 255 302 L 255 355.359375 L 153 355.359375 Z M 153 302 " clip-rule="nonzero"/></clipPath><clipPath id="0a5c3099f7"><path d="M 274 302 L 374.910156 302 L 374.910156 355.359375 L 274 355.359375 Z M 274 302 " clip-rule="nonzero"/></clipPath></defs><g clip-path="url(#f58e1c3605)"><path fill="#ffffff" d="M 349.542969 177.875 L 172.066406 177.875 C 162.367188 177.875 154.46875 169.984375 154.46875 160.28125 L 154.46875 37.199219 C 154.46875 27.492188 162.367188 19.597656 172.066406 19.597656 L 349.542969 19.597656 C 359.242188 19.597656 367.136719 27.492188 367.136719 37.199219 L 367.136719 160.28125 C 367.136719 169.984375 359.242188 177.875 349.542969 177.875 Z M 288.175781 72.507812 L 203.257812 72.507812 C 200.914062 72.507812 199.019531 70.617188 199.019531 68.269531 C 199.019531 65.933594 200.914062 64.03125 203.257812 64.03125 L 288.175781 64.03125 C 290.511719 64.03125 292.414062 65.933594 292.414062 68.269531 C 292.414062 70.617188 290.511719 72.507812 288.175781 72.507812 Z M 318.351562 102.972656 L 203.257812 102.972656 C 200.914062 102.972656 199.019531 101.082031 199.019531 98.734375 C 199.019531 96.398438 200.914062 94.496094 203.257812 94.496094 L 318.351562 94.496094 C 320.6875 94.496094 322.589844 96.398438 322.589844 98.734375 C 322.589844 101.082031 320.695312 102.972656 318.351562 102.972656 Z M 292.609375 133.4375 L 203.257812 133.4375 C 200.914062 133.4375 199.019531 131.546875 199.019531 129.199219 C 199.019531 126.863281 200.914062 124.960938 203.257812 124.960938 L 292.609375 124.960938 C 294.957031 124.960938 296.847656 126.863281 296.847656 129.199219 C 296.847656 131.546875 294.957031 133.4375 292.609375 133.4375 Z M 292.609375 133.4375 " fill-opacity="1" fill-rule="evenodd"/></g><g clip-path="url(#38a5944277)"><path fill="#ffffff" d="M 65.160156 316.328125 L 54.464844 316.328125 C 46.53125 316.328125 40.074219 309.871094 40.074219 301.9375 L 40.074219 259.464844 L 30.992188 259.464844 C 21.308594 259.464844 13.433594 251.589844 13.433594 241.90625 L 13.433594 172.34375 C 13.433594 152.328125 29.71875 136.039062 49.738281 136.039062 L 99.628906 136.039062 C 119.644531 136.039062 135.933594 152.328125 135.933594 172.34375 L 135.933594 185.921875 L 153.078125 185.921875 C 164.8125 185.921875 174.359375 195.46875 174.359375 207.203125 C 174.359375 218.9375 164.8125 228.484375 153.078125 228.484375 L 110.527344 228.484375 L 110.527344 291.675781 C 110.527344 291.710938 110.527344 291.753906 110.527344 291.796875 L 110.527344 301.945312 C 110.527344 309.871094 104.078125 316.328125 96.144531 316.328125 L 85.453125 316.328125 C 81.496094 316.328125 77.90625 314.722656 75.300781 312.125 C 72.703125 314.722656 69.113281 316.328125 65.160156 316.328125 Z M 65.160156 316.328125 " fill-opacity="1" fill-rule="evenodd"/></g><path fill="#ffffff" d="M 170.121094 211.441406 C 169.035156 211.441406 167.953125 211.023438 167.121094 210.199219 C 165.46875 208.546875 165.46875 205.859375 167.121094 204.207031 L 220.492188 150.828125 C 222.152344 149.175781 224.835938 149.175781 226.488281 150.828125 C 228.140625 152.488281 228.140625 155.171875 226.488281 156.824219 L 173.117188 210.199219 C 172.289062 211.023438 171.203125 211.441406 170.121094 211.441406 Z M 170.121094 211.441406 " fill-opacity="1" fill-rule="evenodd"/><path fill="#ffffff" d="M 74.679688 118.324219 C 56.972656 118.324219 42.554688 103.914062 42.554688 86.199219 C 42.554688 68.488281 56.972656 54.074219 74.679688 54.074219 C 92.394531 54.074219 106.804688 68.488281 106.804688 86.199219 C 106.804688 103.914062 92.394531 118.324219 74.679688 118.324219 Z M 74.679688 118.324219 " fill-opacity="1" fill-rule="evenodd"/><g clip-path="url(#4008265a06)"><path fill="#ffffff" d="M 249.996094 355.464844 L 158.121094 355.464844 C 155.777344 355.464844 153.882812 353.566406 153.882812 351.226562 L 153.882812 328.984375 C 153.882812 314.386719 165.757812 302.511719 180.359375 302.511719 L 227.761719 302.511719 C 242.359375 302.511719 254.234375 314.386719 254.234375 328.984375 L 254.234375 351.226562 C 254.234375 353.566406 252.34375 355.464844 249.996094 355.464844 Z M 249.996094 355.464844 " fill-opacity="1" fill-rule="evenodd"/></g><path fill="#ffffff" d="M 204.054688 288.378906 C 189.660156 288.378906 177.941406 276.660156 177.941406 262.261719 C 177.941406 247.859375 189.660156 236.148438 204.054688 236.148438 C 218.457031 236.148438 230.167969 247.859375 230.167969 262.261719 C 230.167969 276.660156 218.457031 288.378906 204.054688 288.378906 Z M 204.054688 288.378906 " fill-opacity="1" fill-rule="evenodd"/><path fill="#ffffff" d="M 324.871094 288.378906 C 310.46875 288.378906 298.757812 276.660156 298.757812 262.261719 C 298.757812 247.859375 310.46875 236.148438 324.871094 236.148438 C 339.265625 236.148438 350.984375 247.859375 350.984375 262.261719 C 350.984375 276.660156 339.265625 288.378906 324.871094 288.378906 Z M 324.871094 288.378906 " fill-opacity="1" fill-rule="evenodd"/><g clip-path="url(#0a5c3099f7)"><path fill="#ffffff" d="M 370.804688 355.464844 L 278.929688 355.464844 C 276.589844 355.464844 274.691406 353.566406 274.691406 351.226562 L 274.691406 328.984375 C 274.691406 314.386719 286.566406 302.511719 301.164062 302.511719 L 348.566406 302.511719 C 363.167969 302.511719 375.042969 314.386719 375.042969 328.984375 L 375.042969 351.226562 C 375.042969 353.566406 373.148438 355.464844 370.804688 355.464844 Z M 370.804688 355.464844 " fill-opacity="1" fill-rule="evenodd"/></g></svg>