<svg xmlns="http://www.w3.org/2000/svg" xmlns:xlink="http://www.w3.org/1999/xlink" width="500" zoomAndPan="magnify" viewBox="0 0 375 374.999991" height="500" preserveAspectRatio="xMidYMid meet" version="1.0"><defs><clipPath id="9becab1684"><path d="M 27.308594 337 L 149 337 L 149 356.457031 L 27.308594 356.457031 Z M 27.308594 337 " clip-rule="nonzero"/></clipPath><clipPath id="0691d189ab"><path d="M 27.308594 179 L 48 179 L 48 335 L 27.308594 335 Z M 27.308594 179 " clip-rule="nonzero"/></clipPath><clipPath id="158702ee1b"><path d="M 318 62 L 347.558594 62 L 347.558594 162 L 318 162 Z M 318 62 " clip-rule="nonzero"/></clipPath><clipPath id="503fd81715"><path d="M 140 18.207031 L 323 18.207031 L 323 100 L 140 100 Z M 140 18.207031 " clip-rule="nonzero"/></clipPath></defs><g clip-path="url(#9becab1684)"><path fill="#ffffff" d="M 27.277344 347.210938 C 27.277344 349.300781 28.980469 351.5 31.945312 353.265625 C 35.601562 355.429688 40.734375 356.671875 46.039062 356.671875 L 148.652344 356.671875 L 148.652344 351.375 L 80.460938 351.375 C 78.160156 351.375 76.292969 349.515625 76.292969 347.210938 C 76.292969 344.910156 78.160156 343.042969 80.460938 343.042969 L 148.652344 343.042969 L 148.652344 337.746094 L 46.039062 337.746094 C 35.296875 337.746094 27.277344 342.746094 27.277344 347.210938 Z M 27.277344 347.210938 " fill-opacity="1" fill-rule="nonzero"/></g><path fill="#ffffff" d="M 56.269531 329.417969 L 148.652344 329.417969 L 148.652344 179.925781 L 56.269531 179.925781 Z M 70.289062 197.679688 L 134.632812 197.679688 C 136.9375 197.679688 138.800781 199.539062 138.800781 201.84375 C 138.800781 204.140625 136.9375 206.007812 134.632812 206.007812 L 70.289062 206.007812 C 67.992188 206.007812 66.121094 204.140625 66.121094 201.84375 C 66.125 199.539062 67.992188 197.679688 70.289062 197.679688 Z M 70.289062 219.4375 L 134.632812 219.4375 C 136.9375 219.4375 138.800781 221.304688 138.800781 223.601562 C 138.800781 225.90625 136.9375 227.769531 134.632812 227.769531 L 70.289062 227.769531 C 67.992188 227.769531 66.121094 225.90625 66.121094 223.601562 C 66.125 221.304688 67.992188 219.4375 70.289062 219.4375 Z M 70.289062 241.203125 L 134.632812 241.203125 C 136.9375 241.203125 138.800781 243.070312 138.800781 245.367188 C 138.800781 247.664062 136.9375 249.53125 134.632812 249.53125 L 70.289062 249.53125 C 67.992188 249.53125 66.121094 247.664062 66.121094 245.367188 C 66.125 243.070312 67.992188 241.203125 70.289062 241.203125 Z M 70.289062 262.96875 L 134.632812 262.96875 C 136.9375 262.96875 138.800781 264.828125 138.800781 267.132812 C 138.800781 269.429688 136.9375 271.300781 134.632812 271.300781 L 70.289062 271.300781 C 67.992188 271.300781 66.121094 269.433594 66.121094 267.132812 C 66.125 264.828125 67.992188 262.96875 70.289062 262.96875 Z M 70.289062 284.726562 L 134.632812 284.726562 C 136.9375 284.726562 138.800781 286.59375 138.800781 288.890625 C 138.800781 291.195312 136.9375 293.058594 134.632812 293.058594 L 70.289062 293.058594 C 67.992188 293.058594 66.121094 291.195312 66.121094 288.890625 C 66.125 286.59375 67.992188 284.726562 70.289062 284.726562 Z M 70.289062 306.492188 L 134.632812 306.492188 C 136.9375 306.492188 138.800781 308.359375 138.800781 310.65625 C 138.800781 312.957031 136.9375 314.824219 134.632812 314.824219 L 70.289062 314.824219 C 67.992188 314.824219 66.121094 312.957031 66.121094 310.65625 C 66.121094 308.359375 67.992188 306.492188 70.289062 306.492188 Z M 70.289062 306.492188 " fill-opacity="1" fill-rule="nonzero"/><g clip-path="url(#0691d189ab)"><path fill="#ffffff" d="M 47.941406 329.417969 L 47.941406 179.925781 L 35.359375 179.925781 C 31.054688 179.925781 27.277344 186.019531 27.277344 192.964844 L 27.277344 334.261719 C 32.109375 331.25 38.683594 329.417969 46.039062 329.417969 Z M 47.941406 329.417969 " fill-opacity="1" fill-rule="nonzero"/></g><g clip-path="url(#158702ee1b)"><path fill="#ffffff" d="M 343.476562 115.421875 L 337.242188 115.421875 L 337.242188 62.386719 C 337.242188 62.289062 337.242188 62.191406 337.230469 62.101562 C 337.230469 62.199219 337.234375 62.296875 337.230469 62.390625 C 337.230469 62.488281 337.222656 62.59375 337.214844 62.699219 C 337.207031 62.800781 337.199219 62.898438 337.179688 63.003906 C 337.160156 63.203125 337.117188 63.398438 337.046875 63.59375 C 337.019531 63.691406 336.984375 63.789062 336.953125 63.878906 C 336.917969 63.980469 336.875 64.085938 336.828125 64.191406 C 336.785156 64.273438 336.742188 64.351562 336.695312 64.425781 C 336.550781 64.691406 336.367188 64.941406 336.167969 65.167969 C 336.160156 65.175781 336.152344 65.183594 336.152344 65.191406 C 336.019531 65.328125 335.882812 65.46875 335.730469 65.59375 C 335.546875 65.746094 335.355469 65.878906 335.140625 66.003906 C 335.070312 66.035156 335.007812 66.078125 334.929688 66.113281 C 334.839844 66.160156 334.742188 66.203125 334.640625 66.246094 L 334.480469 66.308594 L 328.910156 68.59375 L 328.910156 115.421875 L 322.667969 115.421875 C 320.363281 115.421875 318.503906 117.289062 318.503906 119.585938 L 318.503906 150.53125 C 318.503906 156.550781 323.398438 161.453125 329.425781 161.453125 L 336.726562 161.453125 C 342.746094 161.453125 347.640625 156.550781 347.640625 150.53125 L 347.640625 119.585938 C 347.644531 117.289062 345.785156 115.421875 343.476562 115.421875 Z M 343.476562 115.421875 " fill-opacity="1" fill-rule="nonzero"/></g><g clip-path="url(#503fd81715)"><path fill="#ffffff" d="M 231.421875 99.492188 L 322.800781 62.09375 L 231.421875 18.320312 L 140.042969 62.085938 L 159.910156 70.222656 C 159.996094 70.257812 160.070312 70.285156 160.140625 70.328125 L 172.984375 75.582031 Z M 231.421875 99.492188 " fill-opacity="1" fill-rule="nonzero"/></g><path fill="#ffffff" d="M 231.421875 108.164062 C 230.886719 108.164062 230.351562 108.0625 229.847656 107.851562 L 175.527344 85.621094 L 175.527344 135.222656 C 175.527344 136.324219 175.921875 137.367188 176.707031 138.324219 C 177.539062 139.359375 178.734375 140.1875 180.164062 140.71875 C 181.371094 141.179688 182.664062 141.40625 184.011719 141.40625 L 278.828125 141.40625 C 280.453125 141.40625 281.964844 141.089844 283.332031 140.449219 C 284.824219 139.75 286.003906 138.714844 286.679688 137.527344 C 287.101562 136.777344 287.308594 136.011719 287.308594 135.222656 L 287.308594 85.621094 L 233.003906 107.851562 C 232.5 108.0625 231.957031 108.164062 231.421875 108.164062 Z M 231.421875 108.164062 " fill-opacity="1" fill-rule="nonzero"/><path fill="#ffffff" d="M 245.792969 168.28125 C 243.496094 168.28125 241.628906 170.144531 241.628906 172.449219 L 241.628906 253.574219 L 186.90625 253.574219 L 207.53125 241.660156 C 209.523438 240.515625 210.210938 237.96875 209.058594 235.976562 C 207.90625 233.980469 205.367188 233.300781 203.367188 234.449219 L 169.382812 254.074219 C 169.144531 254.207031 168.917969 254.359375 168.714844 254.527344 C 168.609375 254.609375 168.515625 254.699219 168.417969 254.796875 C 168.328125 254.886719 168.242188 254.976562 168.160156 255.074219 C 168.152344 255.082031 168.144531 255.09375 168.140625 255.101562 C 168.054688 255.199219 167.980469 255.304688 167.917969 255.398438 C 167.597656 255.863281 167.367188 256.40625 167.265625 256.984375 C 167.242188 257.085938 167.230469 257.191406 167.214844 257.300781 L 167.214844 257.328125 C 167.203125 257.460938 167.195312 257.601562 167.195312 257.738281 C 167.195312 257.878906 167.203125 258.011719 167.214844 258.140625 L 167.214844 258.183594 C 167.230469 258.28125 167.242188 258.371094 167.257812 258.453125 C 167.265625 258.488281 167.269531 258.523438 167.277344 258.558594 C 167.292969 258.640625 167.3125 258.726562 167.332031 258.808594 C 167.332031 258.816406 167.339844 258.824219 167.339844 258.835938 C 167.363281 258.90625 167.382812 258.976562 167.402344 259.046875 C 167.4375 259.140625 167.472656 259.238281 167.515625 259.335938 C 167.535156 259.398438 167.5625 259.453125 167.589844 259.511719 C 167.722656 259.796875 167.890625 260.066406 168.089844 260.316406 C 168.132812 260.371094 168.175781 260.417969 168.214844 260.46875 C 168.277344 260.542969 168.347656 260.621094 168.421875 260.691406 C 168.515625 260.78125 168.609375 260.863281 168.707031 260.945312 C 168.707031 260.953125 168.714844 260.953125 168.722656 260.960938 C 168.820312 261.042969 168.925781 261.121094 169.035156 261.191406 C 169.152344 261.273438 169.277344 261.351562 169.410156 261.417969 L 203.367188 281.023438 C 204.027344 281.40625 204.742188 281.585938 205.449219 281.585938 C 206.886719 281.585938 208.289062 280.835938 209.058594 279.503906 C 210.210938 277.511719 209.523438 274.964844 207.53125 273.8125 L 186.90625 261.90625 L 245.792969 261.90625 C 248.097656 261.90625 249.960938 260.039062 249.960938 257.738281 L 249.960938 172.449219 C 249.960938 170.144531 248.097656 168.28125 245.792969 168.28125 Z M 245.792969 168.28125 " fill-opacity="1" fill-rule="nonzero"/><path fill="#ffffff" d="M 34.277344 150.585938 C 36.582031 150.585938 38.441406 148.71875 38.441406 146.417969 L 38.441406 82.324219 L 100.496094 82.324219 L 80.320312 93.265625 C 78.300781 94.363281 77.550781 96.890625 78.648438 98.910156 C 79.398438 100.304688 80.835938 101.089844 82.3125 101.089844 C 82.980469 101.089844 83.660156 100.929688 84.292969 100.589844 L 118.894531 81.824219 C 119.25 81.628906 119.574219 81.386719 119.851562 81.101562 C 119.941406 81.011719 120.027344 80.921875 120.109375 80.824219 C 120.121094 80.8125 120.136719 80.789062 120.152344 80.777344 C 120.226562 80.679688 120.296875 80.589844 120.359375 80.492188 C 120.429688 80.394531 120.492188 80.289062 120.546875 80.1875 C 120.566406 80.160156 120.582031 80.132812 120.59375 80.105469 C 120.648438 80 120.699219 79.894531 120.746094 79.785156 C 120.796875 79.667969 120.835938 79.546875 120.871094 79.429688 C 120.921875 79.285156 120.960938 79.136719 120.988281 78.988281 C 121.015625 78.855469 121.039062 78.722656 121.054688 78.582031 C 121.066406 78.445312 121.074219 78.304688 121.074219 78.160156 L 121.074219 78.152344 C 121.074219 78.019531 121.066406 77.890625 121.054688 77.765625 C 121.019531 77.355469 120.921875 76.964844 120.769531 76.597656 C 120.742188 76.519531 120.707031 76.4375 120.664062 76.359375 C 120.433594 75.867188 120.101562 75.429688 119.699219 75.070312 C 119.644531 75.019531 119.585938 74.972656 119.523438 74.925781 C 119.496094 74.898438 119.476562 74.875 119.449219 74.859375 C 119.378906 74.804688 119.308594 74.757812 119.242188 74.707031 C 119.128906 74.632812 119.011719 74.5625 118.894531 74.492188 L 85.535156 54.027344 C 83.578125 52.824219 81.007812 53.4375 79.808594 55.402344 C 78.605469 57.359375 79.214844 59.929688 81.179688 61.128906 L 102.15625 73.996094 L 34.277344 73.996094 C 31.980469 73.996094 30.109375 75.863281 30.109375 78.160156 L 30.109375 146.421875 C 30.109375 148.71875 31.980469 150.585938 34.277344 150.585938 Z M 34.277344 150.585938 " fill-opacity="1" fill-rule="nonzero"/></svg>