<svg xmlns="http://www.w3.org/2000/svg" xmlns:xlink="http://www.w3.org/1999/xlink" width="500" zoomAndPan="magnify" viewBox="0 0 375 374.999991" height="500" preserveAspectRatio="xMidYMid meet" version="1.0"><defs><clipPath id="c4558c48e0"><path d="M 19.46875 7.203125 L 367.46875 7.203125 L 367.46875 365.703125 L 19.46875 365.703125 Z M 19.46875 7.203125 " clip-rule="nonzero"/></clipPath></defs><g clip-path="url(#c4558c48e0)"><path fill="#ffffff" d="M 173.605469 38.4375 C 176.171875 38.316406 178.753906 38.257812 181.351562 38.257812 C 270.640625 38.257812 343.136719 110.75 343.136719 200.042969 C 343.136719 203.96875 342.996094 207.859375 342.71875 211.714844 C 357.695312 220.738281 367.746094 237.160156 367.746094 255.855469 C 367.746094 284.214844 344.613281 307.347656 316.253906 307.347656 C 311.941406 307.347656 307.75 306.8125 303.742188 305.804688 C 274.066406 340.109375 230.222656 361.828125 181.351562 361.828125 C 156.308594 361.828125 132.585938 356.125 111.414062 345.949219 C 101.984375 357.925781 87.355469 365.617188 70.9375 365.617188 C 42.503906 365.617188 19.445312 342.558594 19.445312 314.125 C 19.445312 298.308594 26.582031 284.152344 37.808594 274.707031 C 26.15625 252.363281 19.5625 226.964844 19.5625 200.042969 C 19.5625 154.835938 38.140625 113.9375 68.074219 84.570312 C 65.90625 78.5 64.722656 71.957031 64.722656 65.140625 C 64.722656 33.265625 90.554688 7.433594 122.429688 7.433594 C 144.671875 7.433594 163.96875 20.007812 173.605469 38.4375 Z M 73.886719 96.355469 C 47.953125 123.226562 31.992188 159.785156 31.992188 200.042969 C 31.992188 224.460938 37.863281 247.519531 48.269531 267.878906 C 55.109375 264.519531 62.804688 262.632812 70.9375 262.632812 C 99.367188 262.632812 122.429688 285.695312 122.429688 314.125 C 122.429688 321.660156 120.808594 328.820312 117.898438 335.273438 C 137.160156 344.335938 158.667969 349.402344 181.351562 349.402344 C 224.898438 349.402344 264.121094 330.722656 291.433594 300.945312 C 275.554688 292.160156 264.761719 275.226562 264.761719 255.855469 C 264.761719 227.496094 287.894531 204.363281 316.253906 204.363281 C 321.21875 204.363281 326.027344 205.074219 330.578125 206.398438 C 330.664062 204.289062 330.710938 202.171875 330.710938 200.042969 C 330.710938 117.609375 263.785156 50.683594 181.351562 50.683594 C 180.335938 50.683594 179.328125 50.691406 178.320312 50.710938 C 179.507812 55.324219 180.136719 60.15625 180.136719 65.140625 C 180.136719 97.015625 154.304688 122.847656 122.429688 122.847656 C 102.058594 122.847656 84.152344 112.296875 73.886719 96.355469 Z M 197.964844 130.476562 C 205.328125 132.226562 212.347656 135.132812 218.804688 139.109375 L 232.347656 133.089844 L 248.300781 149.042969 L 242.304688 162.589844 C 246.28125 169.042969 249.1875 176.066406 250.9375 183.449219 L 264.757812 188.769531 L 264.757812 211.335938 L 250.9375 216.65625 C 249.1875 224.019531 246.257812 231.042969 242.304688 237.496094 L 248.300781 251.039062 L 232.347656 266.996094 L 218.804688 260.996094 C 212.371094 264.972656 205.328125 267.882812 197.964844 269.632812 L 192.644531 283.449219 L 170.078125 283.449219 L 164.757812 269.632812 C 157.371094 267.882812 150.351562 264.949219 143.894531 260.996094 L 130.351562 266.996094 L 114.394531 251.039062 L 120.417969 237.496094 C 116.441406 231.0625 113.53125 224.019531 111.761719 216.65625 L 97.941406 211.335938 L 97.941406 188.769531 L 111.761719 183.449219 C 113.53125 176.066406 116.441406 169.042969 120.417969 162.589844 L 114.394531 149.042969 L 130.351562 133.089844 L 143.894531 139.109375 C 150.351562 135.132812 157.371094 132.226562 164.734375 130.476562 L 170.078125 116.632812 L 192.644531 116.632812 Z M 181.351562 160.679688 C 159.601562 160.679688 141.988281 178.292969 141.988281 200.042969 C 141.988281 221.792969 159.601562 239.425781 181.351562 239.425781 C 203.097656 239.425781 220.734375 221.792969 220.734375 200.042969 C 220.734375 178.292969 203.097656 160.679688 181.351562 160.679688 Z M 310.039062 225.1875 C 309.195312 225.414062 308.367188 225.683594 307.558594 226.003906 C 300.144531 228.917969 294.832031 235.34375 295.257812 244.042969 C 295.789062 255.320312 305.796875 260.25 315.304688 261.800781 C 317.613281 262.179688 320.09375 262.71875 322.273438 263.707031 C 324.347656 264.648438 326.195312 266.035156 326.507812 268.652344 L 326.511719 268.660156 C 326.804688 271.082031 325.210938 272.539062 323.34375 273.453125 C 321.339844 274.4375 318.964844 274.894531 316.785156 274.945312 L 316.769531 274.945312 C 312 275.0625 306.988281 273.09375 305.773438 268.21875 C 304.945312 264.890625 301.570312 262.859375 298.242188 263.6875 C 294.914062 264.515625 292.886719 267.890625 293.714844 271.21875 C 295.78125 279.519531 302.324219 284.785156 310.039062 286.632812 L 310.039062 288.449219 C 310.039062 291.875 312.824219 294.660156 316.253906 294.660156 C 319.683594 294.660156 322.46875 291.875 322.46875 288.449219 L 322.46875 286.726562 C 331.707031 284.734375 340.175781 278.148438 338.847656 267.167969 C 337.464844 255.675781 326.984375 251.128906 317.316406 249.535156 L 317.304688 249.535156 C 315.1875 249.1875 312.9375 248.667969 310.996094 247.722656 C 309.285156 246.886719 307.773438 245.671875 307.667969 243.457031 L 307.667969 243.441406 C 307.523438 240.503906 309.609375 238.550781 312.109375 237.566406 C 316.761719 235.734375 323.265625 236.84375 325.695312 242.628906 C 327.019531 245.789062 330.664062 247.277344 333.828125 245.953125 C 336.988281 244.625 338.480469 240.980469 337.152344 237.816406 C 334.207031 230.800781 328.609375 226.703125 322.46875 225.121094 L 322.46875 223.28125 C 322.46875 219.855469 319.683594 217.070312 316.253906 217.070312 C 312.824219 217.070312 310.039062 219.855469 310.039062 223.28125 Z M 64.722656 283.539062 L 64.722656 314.125 C 64.722656 316.34375 65.90625 318.394531 67.828125 319.503906 L 89.976562 332.300781 C 92.945312 334.015625 96.75 333 98.464844 330.03125 C 100.179688 327.058594 99.160156 323.257812 96.191406 321.542969 L 77.148438 310.539062 L 77.148438 283.539062 C 77.148438 280.109375 74.363281 277.324219 70.9375 277.324219 C 67.507812 277.324219 64.722656 280.109375 64.722656 283.539062 Z M 155.832031 95.714844 C 163.210938 87.660156 167.710938 76.925781 167.710938 65.140625 C 167.710938 40.128906 147.441406 19.859375 122.429688 19.859375 C 97.421875 19.859375 77.148438 40.128906 77.148438 65.140625 C 77.148438 76.925781 81.652344 87.660156 89.027344 95.714844 C 94.320312 82.449219 107.285156 73.070312 122.429688 73.070312 C 137.578125 73.070312 150.542969 82.449219 155.832031 95.714844 Z M 122.429688 70.109375 C 112.425781 70.109375 104.246094 61.929688 104.246094 51.925781 C 104.246094 41.921875 112.425781 33.738281 122.429688 33.738281 C 132.4375 33.738281 140.617188 41.921875 140.617188 51.925781 C 140.617188 61.929688 132.4375 70.109375 122.429688 70.109375 Z M 122.429688 70.109375 " fill-opacity="1" fill-rule="evenodd"/></g></svg>