<svg xmlns="http://www.w3.org/2000/svg" xmlns:xlink="http://www.w3.org/1999/xlink" width="500" zoomAndPan="magnify" viewBox="0 0 375 374.999991" height="500" preserveAspectRatio="xMidYMid meet" version="1.0"><defs><clipPath id="aee67c8343"><path d="M 22.296875 22.296875 L 353 22.296875 L 353 301 L 22.296875 301 Z M 22.296875 22.296875 " clip-rule="nonzero"/></clipPath></defs><g clip-path="url(#aee67c8343)"><path fill="#ec9707" d="M 187.496094 22.308594 C 96.257812 22.308594 22.296875 96.269531 22.296875 187.507812 C 22.296875 231.195312 39.285156 270.894531 66.976562 300.4375 L 308.015625 300.4375 C 335.707031 270.894531 352.695312 231.195312 352.695312 187.507812 C 352.695312 96.269531 278.734375 22.308594 187.496094 22.308594 Z M 187.496094 22.308594 " fill-opacity="1" fill-rule="nonzero"/></g><path fill="#f8d270" d="M 216.707031 269.710938 L 216.707031 239.386719 L 208.34375 237.597656 C 207.449219 233.914062 207.152344 229.9375 207.152344 226.054688 L 207.152344 194.703125 L 167.738281 194.703125 L 167.738281 226.054688 C 167.738281 229.9375 167.445312 233.914062 166.542969 237.597656 L 158.1875 239.386719 L 158.1875 269.710938 Z M 216.707031 269.710938 " fill-opacity="1" fill-rule="nonzero"/><path fill="#ededed" d="M 308.640625 299.746094 C 278.492188 332.304688 235.332031 352.679688 187.496094 352.679688 C 139.65625 352.679688 96.496094 332.304688 66.347656 299.746094 C 73.988281 258.242188 108.472656 243.511719 153.421875 239.382812 C 155.625 239.175781 157.964844 238.96875 160.304688 238.898438 C 160.789062 253.421875 172.832031 265.195312 187.425781 265.195312 C 202.976562 265.195312 214.613281 252.128906 214.613281 238.898438 C 216.886719 238.96875 219.296875 239.175781 221.5 239.382812 C 266.515625 243.511719 301 258.171875 308.640625 299.746094 Z M 308.640625 299.746094 " fill-opacity="1" fill-rule="nonzero"/><path fill="#fee29c" d="M 260.085938 152.542969 C 260.085938 153.699219 260.015625 154.847656 259.875 155.984375 C 259.734375 157.121094 259.523438 158.222656 259.246094 159.292969 C 258.96875 160.363281 258.628906 161.378906 258.226562 162.34375 C 257.824219 163.304688 257.363281 164.195312 256.851562 165.015625 C 256.339844 165.835938 255.78125 166.566406 255.179688 167.210938 C 254.578125 167.855469 253.941406 168.398438 253.269531 168.839844 C 252.601562 169.285156 251.910156 169.617188 251.199219 169.84375 C 250.488281 170.070312 249.769531 170.183594 249.046875 170.183594 C 248.320312 170.183594 247.601562 170.070312 246.890625 169.84375 C 246.179688 169.617188 245.488281 169.285156 244.820312 168.839844 C 244.152344 168.398438 243.515625 167.855469 242.910156 167.210938 C 242.308594 166.566406 241.75 165.835938 241.238281 165.015625 C 240.726562 164.195312 240.269531 163.304688 239.867188 162.34375 C 239.460938 161.378906 239.121094 160.363281 238.84375 159.292969 C 238.566406 158.222656 238.359375 157.121094 238.214844 155.984375 C 238.074219 154.847656 238.003906 153.699219 238.003906 152.542969 C 238.003906 151.382812 238.074219 150.234375 238.214844 149.101562 C 238.359375 147.964844 238.566406 146.859375 238.84375 145.789062 C 239.121094 144.71875 239.460938 143.703125 239.867188 142.738281 C 240.269531 141.777344 240.726562 140.886719 241.238281 140.066406 C 241.75 139.246094 242.308594 138.515625 242.910156 137.871094 C 243.515625 137.230469 244.152344 136.6875 244.820312 136.242188 C 245.488281 135.800781 246.179688 135.464844 246.890625 135.238281 C 247.601562 135.011719 248.320312 134.898438 249.046875 134.898438 C 249.769531 134.898438 250.488281 135.011719 251.199219 135.238281 C 251.910156 135.464844 252.601562 135.800781 253.269531 136.242188 C 253.941406 136.6875 254.578125 137.230469 255.179688 137.871094 C 255.78125 138.515625 256.339844 139.246094 256.851562 140.066406 C 257.363281 140.886719 257.824219 141.777344 258.226562 142.738281 C 258.628906 143.703125 258.96875 144.71875 259.246094 145.789062 C 259.523438 146.859375 259.734375 147.964844 259.875 149.101562 C 260.015625 150.234375 260.085938 151.382812 260.085938 152.542969 Z M 260.085938 152.542969 " fill-opacity="1" fill-rule="nonzero"/><path fill="#fee29c" d="M 136.949219 152.542969 C 136.949219 153.699219 136.878906 154.847656 136.738281 155.984375 C 136.597656 157.121094 136.386719 158.222656 136.109375 159.292969 C 135.832031 160.363281 135.492188 161.378906 135.089844 162.34375 C 134.6875 163.304688 134.230469 164.195312 133.71875 165.015625 C 133.203125 165.835938 132.648438 166.566406 132.042969 167.210938 C 131.441406 167.855469 130.804688 168.398438 130.136719 168.839844 C 129.464844 169.285156 128.773438 169.617188 128.0625 169.84375 C 127.351562 170.070312 126.636719 170.183594 125.910156 170.183594 C 125.183594 170.183594 124.46875 170.070312 123.757812 169.84375 C 123.046875 169.617188 122.355469 169.285156 121.683594 168.839844 C 121.015625 168.398438 120.378906 167.855469 119.777344 167.210938 C 119.171875 166.566406 118.617188 165.835938 118.101562 165.015625 C 117.589844 164.195312 117.132812 163.304688 116.730469 162.34375 C 116.328125 161.378906 115.988281 160.363281 115.710938 159.292969 C 115.433594 158.222656 115.222656 157.121094 115.082031 155.984375 C 114.941406 154.847656 114.871094 153.699219 114.871094 152.542969 C 114.871094 151.382812 114.941406 150.234375 115.082031 149.101562 C 115.222656 147.964844 115.433594 146.859375 115.710938 145.789062 C 115.988281 144.71875 116.328125 143.703125 116.730469 142.738281 C 117.132812 141.777344 117.589844 140.886719 118.101562 140.066406 C 118.617188 139.246094 119.171875 138.515625 119.777344 137.871094 C 120.378906 137.230469 121.015625 136.6875 121.683594 136.242188 C 122.355469 135.800781 123.046875 135.464844 123.757812 135.238281 C 124.46875 135.011719 125.183594 134.898438 125.910156 134.898438 C 126.636719 134.898438 127.351562 135.011719 128.0625 135.238281 C 128.773438 135.464844 129.464844 135.800781 130.136719 136.242188 C 130.804688 136.6875 131.441406 137.230469 132.042969 137.871094 C 132.648438 138.515625 133.203125 139.246094 133.71875 140.066406 C 134.230469 140.886719 134.6875 141.777344 135.089844 142.738281 C 135.492188 143.703125 135.832031 144.71875 136.109375 145.789062 C 136.386719 146.859375 136.597656 147.964844 136.738281 149.101562 C 136.878906 150.234375 136.949219 151.382812 136.949219 152.542969 Z M 136.949219 152.542969 " fill-opacity="1" fill-rule="nonzero"/><path fill="#fee29c" d="M 249.046875 156.988281 C 249.046875 190.976562 221.503906 232.929688 187.515625 232.929688 C 153.519531 232.929688 125.910156 190.976562 125.910156 156.988281 C 125.910156 123 153.519531 95.457031 187.515625 95.457031 C 221.503906 95.457031 249.046875 122.992188 249.046875 156.988281 Z M 249.046875 156.988281 " fill-opacity="1" fill-rule="nonzero"/><path fill="#003152" d="M 241.707031 142.683594 C 240.339844 133.964844 234.074219 129.945312 225.738281 132.835938 C 198.988281 142.105469 175.828125 136.425781 155.292969 117.472656 C 149.679688 112.28125 143.089844 113.914062 137.832031 121.582031 C 130.09375 132.863281 127.265625 145.492188 128.320312 159.054688 C 128.492188 161.253906 128.808594 163.453125 127.402344 166.867188 C 124.699219 163.742188 107.953125 132.820312 114.203125 104.035156 C 116.808594 92.007812 123.695312 83.261719 137.054688 81.519531 C 138.566406 81.320312 140.648438 80.597656 141.308594 79.449219 C 152.933594 59.183594 172.359375 56.734375 192.472656 58.269531 C 220.949219 60.441406 242.734375 74.257812 253.304688 101.378906 C 260.167969 118.976562 256.582031 137.273438 250.503906 154.777344 C 249.363281 158.054688 246.84375 160.855469 244.964844 163.878906 C 244.109375 162.914062 242.652344 148.679688 241.707031 142.683594 Z M 241.707031 142.683594 " fill-opacity="1" fill-rule="nonzero"/><path fill="#003152" d="M 214.613281 238.898438 C 214.613281 251.828125 203.269531 265.195312 187.425781 265.195312 C 172.832031 265.195312 160.789062 253.421875 160.304688 238.898438 C 157.964844 238.96875 155.625 239.175781 153.421875 239.382812 C 154.054688 257.367188 168.945312 272.144531 187.425781 272.144531 C 205.984375 272.144531 220.871094 257.257812 221.5 239.382812 C 219.296875 239.175781 216.886719 238.96875 214.613281 238.898438 Z M 214.613281 238.898438 " fill-opacity="1" fill-rule="nonzero"/></svg>