<svg xmlns="http://www.w3.org/2000/svg" xmlns:xlink="http://www.w3.org/1999/xlink" width="500" zoomAndPan="magnify" viewBox="0 0 375 374.999991" height="500" preserveAspectRatio="xMidYMid meet" version="1.0"><defs><clipPath id="1dbe56cc9f"><path d="M 36.597656 162 L 258 162 L 258 316 L 36.597656 316 Z M 36.597656 162 " clip-rule="nonzero"/></clipPath><clipPath id="0b9907277a"><path d="M 83 16.53125 L 225 16.53125 L 225 157 L 83 157 Z M 83 16.53125 " clip-rule="nonzero"/></clipPath><clipPath id="26f61818c2"><path d="M 195 231 L 337.347656 231 L 337.347656 358.53125 L 195 358.53125 Z M 195 231 " clip-rule="nonzero"/></clipPath></defs><g clip-path="url(#1dbe56cc9f)"><path fill="#ec9707" d="M 257.265625 213.570312 C 247.9375 192.347656 234.179688 174.742188 215.757812 162.964844 C 214.007812 161.917969 211.679688 162.03125 210.042969 163.3125 C 194.304688 174.742188 174.949219 181.621094 153.960938 181.621094 C 133.089844 181.621094 113.734375 174.742188 97.992188 163.3125 C 96.359375 162.03125 94.027344 161.917969 92.28125 162.964844 C 55.085938 186.867188 36.664062 233.742188 36.664062 287.609375 C 36.664062 308.714844 112.453125 317.925781 177.980469 314.894531 L 177.980469 238.871094 C 177.980469 224.996094 189.289062 213.570312 203.28125 213.570312 Z M 257.265625 213.570312 " fill-opacity="1" fill-rule="nonzero"/></g><g clip-path="url(#0b9907277a)"><path fill="#ec9707" d="M 224.113281 86.640625 C 224.113281 87.789062 224.082031 88.9375 224.027344 90.082031 C 223.972656 91.226562 223.886719 92.371094 223.773438 93.515625 C 223.660156 94.65625 223.523438 95.792969 223.351562 96.929688 C 223.183594 98.066406 222.988281 99.195312 222.765625 100.320312 C 222.542969 101.445312 222.289062 102.566406 222.011719 103.675781 C 221.730469 104.789062 221.425781 105.894531 221.09375 106.996094 C 220.761719 108.09375 220.398438 109.179688 220.011719 110.261719 C 219.628906 111.34375 219.214844 112.414062 218.773438 113.472656 C 218.335938 114.53125 217.871094 115.582031 217.378906 116.617188 C 216.890625 117.65625 216.375 118.679688 215.832031 119.691406 C 215.292969 120.703125 214.726562 121.703125 214.136719 122.6875 C 213.546875 123.671875 212.933594 124.640625 212.296875 125.59375 C 211.660156 126.546875 211 127.484375 210.316406 128.40625 C 209.632812 129.328125 208.925781 130.234375 208.199219 131.121094 C 207.46875 132.007812 206.71875 132.875 205.949219 133.726562 C 205.179688 134.574219 204.386719 135.40625 203.578125 136.21875 C 202.765625 137.027344 201.933594 137.820312 201.085938 138.589844 C 200.234375 139.359375 199.367188 140.109375 198.480469 140.839844 C 197.59375 141.566406 196.6875 142.273438 195.765625 142.957031 C 194.84375 143.640625 193.90625 144.300781 192.953125 144.9375 C 192 145.574219 191.03125 146.1875 190.046875 146.777344 C 189.0625 147.367188 188.0625 147.933594 187.050781 148.472656 C 186.039062 149.015625 185.015625 149.53125 183.976562 150.019531 C 182.941406 150.511719 181.890625 150.976562 180.832031 151.414062 C 179.773438 151.855469 178.703125 152.269531 177.621094 152.652344 C 176.539062 153.039062 175.453125 153.402344 174.355469 153.734375 C 173.253906 154.066406 172.148438 154.371094 171.035156 154.652344 C 169.925781 154.929688 168.804688 155.179688 167.679688 155.40625 C 166.554688 155.628906 165.425781 155.824219 164.289062 155.992188 C 163.152344 156.160156 162.015625 156.300781 160.875 156.414062 C 159.730469 156.527344 158.585938 156.613281 157.441406 156.667969 C 156.296875 156.722656 155.148438 156.753906 154 156.753906 C 152.855469 156.753906 151.707031 156.722656 150.5625 156.667969 C 149.414062 156.613281 148.273438 156.527344 147.128906 156.414062 C 145.988281 156.300781 144.847656 156.160156 143.714844 155.992188 C 142.578125 155.824219 141.449219 155.628906 140.324219 155.40625 C 139.199219 155.179688 138.078125 154.929688 136.964844 154.652344 C 135.851562 154.371094 134.746094 154.066406 133.648438 153.734375 C 132.550781 153.402344 131.460938 153.039062 130.382812 152.652344 C 129.300781 152.269531 128.230469 151.855469 127.171875 151.414062 C 126.113281 150.976562 125.0625 150.511719 124.027344 150.019531 C 122.988281 149.53125 121.964844 149.015625 120.953125 148.472656 C 119.941406 147.933594 118.941406 147.367188 117.957031 146.777344 C 116.972656 146.1875 116.003906 145.574219 115.050781 144.9375 C 114.097656 144.300781 113.160156 143.640625 112.238281 142.957031 C 111.316406 142.273438 110.410156 141.566406 109.523438 140.839844 C 108.636719 140.109375 107.769531 139.359375 106.917969 138.589844 C 106.066406 137.820312 105.238281 137.027344 104.425781 136.21875 C 103.613281 135.40625 102.824219 134.574219 102.054688 133.726562 C 101.28125 132.875 100.535156 132.007812 99.804688 131.121094 C 99.078125 130.234375 98.371094 129.328125 97.6875 128.40625 C 97.003906 127.484375 96.34375 126.546875 95.707031 125.59375 C 95.070312 124.640625 94.457031 123.671875 93.867188 122.6875 C 93.277344 121.703125 92.710938 120.703125 92.167969 119.691406 C 91.628906 118.679688 91.113281 117.65625 90.621094 116.617188 C 90.132812 115.582031 89.667969 114.53125 89.226562 113.472656 C 88.789062 112.414062 88.375 111.34375 87.988281 110.261719 C 87.601562 109.179688 87.242188 108.09375 86.910156 106.996094 C 86.578125 105.894531 86.269531 104.789062 85.992188 103.675781 C 85.714844 102.566406 85.460938 101.445312 85.238281 100.320312 C 85.015625 99.195312 84.820312 98.066406 84.648438 96.929688 C 84.480469 95.792969 84.339844 94.65625 84.230469 93.515625 C 84.117188 92.371094 84.03125 91.226562 83.976562 90.082031 C 83.917969 88.9375 83.890625 87.789062 83.890625 86.640625 C 83.890625 85.496094 83.917969 84.347656 83.976562 83.203125 C 84.03125 82.054688 84.117188 80.910156 84.230469 79.769531 C 84.339844 78.628906 84.480469 77.488281 84.648438 76.355469 C 84.820312 75.21875 85.015625 74.089844 85.238281 72.964844 C 85.460938 71.839844 85.714844 70.71875 85.992188 69.605469 C 86.269531 68.492188 86.578125 67.386719 86.910156 66.289062 C 87.242188 65.191406 87.601562 64.101562 87.988281 63.023438 C 88.375 61.941406 88.789062 60.871094 89.226562 59.8125 C 89.667969 58.753906 90.132812 57.703125 90.621094 56.667969 C 91.113281 55.628906 91.628906 54.605469 92.167969 53.59375 C 92.710938 52.582031 93.277344 51.582031 93.867188 50.597656 C 94.457031 49.613281 95.070312 48.644531 95.707031 47.691406 C 96.34375 46.738281 97.003906 45.800781 97.6875 44.878906 C 98.371094 43.957031 99.078125 43.050781 99.804688 42.164062 C 100.535156 41.277344 101.28125 40.410156 102.054688 39.558594 C 102.824219 38.707031 103.613281 37.878906 104.425781 37.066406 C 105.238281 36.253906 106.066406 35.464844 106.917969 34.695312 C 107.769531 33.921875 108.636719 33.175781 109.523438 32.445312 C 110.410156 31.71875 111.316406 31.011719 112.238281 30.328125 C 113.160156 29.644531 114.097656 28.984375 115.050781 28.347656 C 116.003906 27.710938 116.972656 27.097656 117.957031 26.507812 C 118.941406 25.917969 119.941406 25.351562 120.953125 24.808594 C 121.964844 24.269531 122.988281 23.753906 124.027344 23.261719 C 125.0625 22.773438 126.113281 22.308594 127.171875 21.867188 C 128.230469 21.429688 129.300781 21.015625 130.382812 20.628906 C 131.460938 20.242188 132.550781 19.882812 133.648438 19.550781 C 134.746094 19.21875 135.851562 18.910156 136.964844 18.632812 C 138.078125 18.355469 139.199219 18.101562 140.324219 17.878906 C 141.449219 17.65625 142.578125 17.460938 143.714844 17.289062 C 144.847656 17.121094 145.988281 16.980469 147.128906 16.871094 C 148.273438 16.757812 149.414062 16.671875 150.5625 16.617188 C 151.707031 16.558594 152.855469 16.53125 154 16.53125 C 155.148438 16.53125 156.296875 16.558594 157.441406 16.617188 C 158.585938 16.671875 159.730469 16.757812 160.875 16.871094 C 162.015625 16.980469 163.152344 17.121094 164.289062 17.289062 C 165.425781 17.460938 166.554688 17.65625 167.679688 17.878906 C 168.804688 18.101562 169.925781 18.355469 171.035156 18.632812 C 172.148438 18.910156 173.253906 19.21875 174.355469 19.550781 C 175.453125 19.882812 176.539062 20.242188 177.621094 20.628906 C 178.703125 21.015625 179.773438 21.429688 180.832031 21.867188 C 181.890625 22.308594 182.941406 22.773438 183.976562 23.261719 C 185.015625 23.753906 186.039062 24.269531 187.050781 24.808594 C 188.0625 25.351562 189.0625 25.917969 190.046875 26.507812 C 191.03125 27.097656 192 27.710938 192.953125 28.347656 C 193.90625 28.984375 194.84375 29.644531 195.765625 30.328125 C 196.6875 31.011719 197.59375 31.71875 198.480469 32.445312 C 199.367188 33.175781 200.234375 33.921875 201.085938 34.695312 C 201.933594 35.464844 202.765625 36.253906 203.578125 37.066406 C 204.386719 37.878906 205.179688 38.707031 205.949219 39.558594 C 206.71875 40.410156 207.46875 41.277344 208.199219 42.164062 C 208.925781 43.050781 209.632812 43.957031 210.316406 44.878906 C 211 45.800781 211.660156 46.738281 212.296875 47.691406 C 212.933594 48.644531 213.546875 49.613281 214.136719 50.597656 C 214.726562 51.582031 215.292969 52.582031 215.832031 53.59375 C 216.375 54.605469 216.890625 55.628906 217.378906 56.667969 C 217.871094 57.703125 218.335938 58.753906 218.773438 59.8125 C 219.214844 60.871094 219.628906 61.941406 220.011719 63.023438 C 220.398438 64.101562 220.761719 65.191406 221.09375 66.289062 C 221.425781 67.386719 221.730469 68.492188 222.011719 69.605469 C 222.289062 70.71875 222.542969 71.839844 222.765625 72.964844 C 222.988281 74.089844 223.183594 75.21875 223.351562 76.355469 C 223.523438 77.488281 223.660156 78.628906 223.773438 79.769531 C 223.886719 80.910156 223.972656 82.054688 224.027344 83.203125 C 224.082031 84.347656 224.113281 85.496094 224.113281 86.640625 Z M 224.113281 86.640625 " fill-opacity="1" fill-rule="nonzero"/></g><g clip-path="url(#26f61818c2)"><path fill="#ec9707" d="M 329.617188 231.078125 L 203.296875 231.078125 C 198.980469 231.078125 195.480469 234.574219 195.480469 238.890625 L 195.480469 350.644531 C 195.480469 354.964844 198.980469 358.460938 203.296875 358.460938 L 329.617188 358.460938 C 333.933594 358.460938 337.433594 354.964844 337.433594 350.644531 L 337.433594 238.890625 C 337.433594 234.574219 333.933594 231.078125 329.617188 231.078125 Z M 321.800781 324.863281 L 211.113281 324.863281 L 211.113281 246.707031 L 321.800781 246.707031 Z M 321.800781 324.863281 " fill-opacity="1" fill-rule="nonzero"/></g><path fill="#ec9707" d="M 227.96875 312.527344 L 304.074219 312.527344 C 307.890625 312.527344 310.054688 308.152344 307.734375 305.117188 L 298.078125 292.496094 C 297.027344 291.125 294.976562 291.078125 293.867188 292.402344 L 290.355469 296.59375 C 289.335938 297.808594 287.5 297.890625 286.378906 296.769531 L 272.398438 282.792969 C 271.351562 281.742188 269.679688 281.667969 268.539062 282.613281 L 260.4375 289.367188 C 259.398438 290.234375 257.839844 290.023438 257.066406 288.910156 L 244.710938 271.195312 C 243.445312 269.382812 240.695312 269.621094 239.761719 271.625 L 223.789062 305.976562 C 222.371094 309.03125 224.597656 312.527344 227.96875 312.527344 Z M 227.96875 312.527344 " fill-opacity="1" fill-rule="nonzero"/><path fill="#ec9707" d="M 291.761719 279.199219 C 296.484375 279.199219 300.3125 275.371094 300.3125 270.648438 C 300.3125 265.929688 296.484375 262.101562 291.761719 262.101562 C 287.039062 262.101562 283.214844 265.929688 283.214844 270.648438 C 283.214844 275.371094 287.039062 279.199219 291.761719 279.199219 Z M 291.761719 279.199219 " fill-opacity="1" fill-rule="nonzero"/></svg>