<svg xmlns="http://www.w3.org/2000/svg" xmlns:xlink="http://www.w3.org/1999/xlink" width="1200" zoomAndPan="magnify" viewBox="0 0 900 525.000007" height="700" preserveAspectRatio="xMidYMid meet" version="1.0"><defs><clipPath id="6a7aee43be"><path d="M 194 3.117188 L 706 3.117188 L 706 520 L 194 520 Z M 194 3.117188 " clip-rule="nonzero"/></clipPath></defs><g clip-path="url(#6a7aee43be)"><path fill="#ec9707" d="M 703.78125 259.054688 C 703.78125 258.957031 703.683594 258.855469 703.683594 258.753906 L 621.210938 61.371094 L 541.640625 94.617188 C 542.636719 85.230469 542.636719 71.953125 537.546875 62.367188 C 537.144531 61.621094 536.726562 60.886719 536.28125 60.164062 C 535.839844 59.445312 535.378906 58.734375 534.894531 58.039062 C 534.410156 57.34375 533.90625 56.664062 533.386719 56 C 532.863281 55.332031 532.320312 54.683594 531.761719 54.050781 C 531.199219 53.414062 530.621094 52.796875 530.023438 52.195312 C 529.429688 51.59375 528.816406 51.011719 528.183594 50.449219 C 527.554688 49.882812 526.90625 49.335938 526.246094 48.808594 C 525.582031 48.28125 524.90625 47.773438 524.214844 47.285156 C 523.523438 46.796875 522.820312 46.328125 522.101562 45.878906 C 521.382812 45.433594 520.652344 45.007812 519.90625 44.601562 C 519.164062 44.195312 518.410156 43.8125 517.644531 43.453125 C 516.878906 43.089844 516.101562 42.753906 515.316406 42.4375 C 514.53125 42.121094 513.738281 41.828125 512.9375 41.558594 C 512.132812 41.285156 511.324219 41.039062 510.507812 40.816406 C 509.691406 40.59375 508.867188 40.394531 508.039062 40.21875 C 507.210938 40.042969 506.378906 39.894531 505.542969 39.765625 C 504.707031 39.640625 503.867188 39.535156 503.023438 39.457031 C 502.179688 39.378906 501.335938 39.324219 500.488281 39.296875 C 499.644531 39.265625 498.796875 39.261719 497.949219 39.28125 C 497.105469 39.300781 496.257812 39.347656 495.414062 39.414062 C 494.574219 39.484375 493.730469 39.578125 492.894531 39.695312 C 492.054688 39.8125 491.21875 39.953125 490.390625 40.121094 C 489.558594 40.285156 488.734375 40.476562 487.917969 40.691406 C 487.097656 40.90625 486.285156 41.140625 485.480469 41.402344 C 484.675781 41.664062 483.878906 41.949219 483.089844 42.257812 C 482.300781 42.5625 481.519531 42.894531 480.75 43.246094 C 479.980469 43.597656 479.222656 43.972656 478.476562 44.371094 C 477.726562 44.765625 476.992188 45.183594 476.269531 45.625 C 475.542969 46.0625 474.835938 46.523438 474.136719 47.003906 C 473.441406 47.484375 472.757812 47.984375 472.089844 48.503906 C 471.421875 49.027344 470.769531 49.566406 470.132812 50.125 C 469.496094 50.679688 468.878906 51.257812 468.273438 51.851562 C 467.671875 52.445312 467.085938 53.054688 466.519531 53.683594 C 465.949219 54.3125 465.402344 54.957031 464.871094 55.617188 C 464.339844 56.277344 463.832031 56.949219 463.339844 57.640625 C 462.847656 58.328125 462.378906 59.035156 461.925781 59.75 C 461.476562 60.46875 461.046875 61.195312 460.640625 61.9375 C 460.230469 62.679688 459.84375 63.433594 459.480469 64.195312 C 459.117188 64.960938 458.777344 65.734375 458.457031 66.519531 C 458.136719 67.304688 457.839844 68.097656 457.566406 68.898438 C 457.292969 69.699219 457.042969 70.507812 456.816406 71.324219 C 456.589844 72.136719 456.390625 72.960938 456.210938 73.789062 C 456.03125 74.613281 455.878906 75.445312 455.746094 76.285156 C 455.617188 77.121094 455.511719 77.960938 455.429688 78.800781 C 455.347656 79.644531 455.289062 80.488281 455.257812 81.335938 C 455.222656 82.179688 455.214844 83.027344 455.234375 83.875 C 455.25 84.71875 455.289062 85.566406 455.355469 86.410156 C 455.421875 87.253906 455.511719 88.09375 455.625 88.933594 C 455.738281 89.773438 455.878906 90.605469 456.042969 91.4375 C 456.203125 92.269531 456.390625 93.09375 456.601562 93.914062 C 456.8125 94.734375 457.046875 95.546875 457.304688 96.351562 C 457.5625 97.160156 457.84375 97.957031 458.148438 98.746094 C 458.453125 99.535156 458.78125 100.316406 459.128906 101.089844 C 459.480469 101.859375 459.851562 102.621094 460.242188 103.367188 C 460.636719 104.117188 461.050781 104.855469 461.488281 105.582031 C 461.925781 106.304688 462.382812 107.019531 462.859375 107.71875 C 463.339844 108.417969 463.835938 109.101562 464.355469 109.769531 C 464.871094 110.441406 465.40625 111.09375 465.964844 111.734375 C 466.519531 112.371094 467.09375 112.996094 467.683594 113.601562 C 468.277344 114.207031 468.882812 114.792969 469.511719 115.363281 C 470.136719 115.933594 470.777344 116.484375 471.4375 117.015625 C 472.09375 117.550781 472.765625 118.0625 473.453125 118.558594 C 474.140625 119.050781 474.84375 119.523438 475.558594 119.976562 C 476.273438 120.429688 477 120.863281 477.742188 121.273438 L 392.675781 156.71875 C 390.75 150.671875 387.921875 145.078125 384.1875 139.945312 C 385.261719 139.355469 386.230469 138.625 387.085938 137.746094 C 388.152344 136.710938 388.980469 135.507812 389.566406 134.140625 C 390.15625 132.777344 390.460938 131.347656 390.480469 129.859375 L 390.078125 96.914062 L 396.867188 96.914062 C 397.660156 96.902344 398.417969 96.742188 399.144531 96.429688 C 399.871094 96.117188 400.507812 95.679688 401.0625 95.117188 C 401.648438 94.558594 402.097656 93.902344 402.410156 93.15625 C 402.722656 92.410156 402.871094 91.632812 402.859375 90.824219 L 401.660156 3.359375 L 389.679688 3.5625 L 390.777344 84.933594 L 230.734375 86.128906 L 229.632812 3.359375 L 217.652344 3.5625 L 218.75 92.320312 C 218.761719 92.707031 218.808594 93.089844 218.894531 93.46875 C 218.976562 93.847656 219.097656 94.214844 219.253906 94.570312 C 219.40625 94.929688 219.59375 95.265625 219.8125 95.585938 C 220.035156 95.90625 220.28125 96.203125 220.558594 96.472656 C 220.835938 96.746094 221.136719 96.988281 221.460938 97.203125 C 221.78125 97.417969 222.125 97.597656 222.480469 97.75 C 222.839844 97.898438 223.210938 98.011719 223.589844 98.089844 C 223.96875 98.164062 224.355469 98.207031 224.742188 98.210938 L 231.730469 98.210938 C 231.730469 98.511719 232.128906 131.160156 232.128906 131.160156 C 232.15625 132.042969 232.285156 132.910156 232.511719 133.761719 C 232.742188 134.617188 233.0625 135.433594 233.476562 136.210938 C 233.894531 136.988281 234.390625 137.710938 234.972656 138.375 C 235.554688 139.039062 236.207031 139.628906 236.921875 140.144531 L 232.53125 147.132812 C 230.832031 149.828125 228.535156 156.519531 228.535156 156.519531 L 228.4375 156.519531 L 210.964844 221.714844 L 215.558594 235.890625 L 209.066406 238.789062 C 207.574219 239.445312 206.164062 240.242188 204.828125 241.183594 C 203.496094 242.121094 202.265625 243.179688 201.144531 244.363281 C 200.023438 245.546875 199.027344 246.828125 198.160156 248.207031 C 197.289062 249.589844 196.566406 251.042969 195.988281 252.566406 C 195.417969 254.089844 195 255.65625 194.734375 257.261719 C 194.46875 258.867188 194.363281 260.484375 194.414062 262.109375 C 194.464844 263.738281 194.675781 265.34375 195.039062 266.929688 C 195.40625 268.515625 195.921875 270.050781 196.585938 271.535156 L 285.347656 469.820312 L 368.515625 432.578125 C 369.253906 432.261719 369.9375 431.851562 370.566406 431.351562 C 371.195312 430.847656 371.75 430.273438 372.222656 429.621094 C 372.699219 428.972656 373.078125 428.269531 373.363281 427.515625 C 373.648438 426.765625 373.828125 425.988281 373.90625 425.1875 C 373.984375 424.382812 373.953125 423.585938 373.8125 422.792969 C 373.675781 422 373.4375 421.238281 373.09375 420.511719 C 372.75 419.78125 372.316406 419.113281 371.796875 418.5 C 371.273438 417.890625 370.675781 417.355469 370.011719 416.90625 C 359.328125 409.417969 351.941406 401.328125 349.742188 394.738281 C 349.535156 394.125 349.347656 393.503906 349.175781 392.878906 C 349.007812 392.25 348.855469 391.621094 348.722656 390.984375 C 348.59375 390.347656 348.480469 389.707031 348.390625 389.066406 C 348.296875 388.421875 348.222656 387.777344 348.171875 387.132812 C 348.117188 386.484375 348.085938 385.835938 348.074219 385.1875 C 348.058594 384.539062 348.066406 383.886719 348.09375 383.238281 C 348.121094 382.589844 348.167969 381.945312 348.234375 381.296875 C 348.300781 380.652344 348.386719 380.007812 348.492188 379.367188 C 348.597656 378.726562 348.726562 378.089844 348.871094 377.457031 C 349.015625 376.824219 349.179688 376.195312 349.363281 375.574219 C 349.546875 374.953125 349.75 374.335938 349.96875 373.722656 C 350.191406 373.113281 350.433594 372.511719 350.691406 371.914062 C 350.949219 371.320312 351.226562 370.734375 351.519531 370.152344 C 351.8125 369.574219 352.125 369.007812 352.453125 368.445312 C 352.785156 367.886719 353.128906 367.335938 353.492188 366.800781 C 353.855469 366.261719 354.234375 365.734375 354.628906 365.21875 C 355.027344 364.703125 355.4375 364.203125 355.863281 363.710938 C 356.289062 363.222656 356.730469 362.746094 357.183594 362.28125 C 357.640625 361.820312 358.109375 361.371094 358.59375 360.9375 C 359.074219 360.503906 359.570312 360.082031 360.078125 359.679688 C 360.585938 359.277344 361.109375 358.886719 361.640625 358.515625 C 362.171875 358.144531 362.714844 357.789062 363.269531 357.449219 C 363.824219 357.113281 364.386719 356.792969 364.960938 356.488281 C 365.535156 356.183594 366.117188 355.898438 366.710938 355.628906 C 367.300781 355.359375 367.898438 355.109375 368.507812 354.878906 C 369.113281 354.648438 369.726562 354.4375 370.347656 354.242188 C 370.964844 354.046875 371.589844 353.875 372.222656 353.71875 C 372.851562 353.5625 373.484375 353.425781 374.125 353.308594 C 374.761719 353.191406 375.40625 353.097656 376.050781 353.019531 C 376.695312 352.941406 377.339844 352.882812 377.988281 352.847656 C 378.636719 352.808594 379.285156 352.789062 379.933594 352.792969 C 380.585938 352.796875 381.234375 352.816406 381.882812 352.859375 C 382.527344 352.902344 383.175781 352.964844 383.820312 353.042969 C 384.464844 353.125 385.105469 353.226562 385.742188 353.347656 C 386.378906 353.46875 387.015625 353.609375 387.644531 353.769531 C 388.273438 353.929688 388.898438 354.109375 389.515625 354.304688 C 390.132812 354.503906 390.746094 354.71875 391.351562 354.957031 C 391.957031 355.191406 392.550781 355.445312 393.140625 355.71875 C 393.730469 355.988281 394.3125 356.28125 394.882812 356.585938 C 395.457031 356.894531 396.015625 357.21875 396.570312 357.5625 C 397.121094 357.90625 397.660156 358.261719 398.191406 358.636719 C 398.722656 359.015625 399.238281 359.40625 399.746094 359.8125 C 400.25 360.21875 400.742188 360.640625 401.222656 361.078125 C 401.703125 361.515625 402.167969 361.96875 402.621094 362.433594 C 403.074219 362.898438 403.511719 363.378906 403.933594 363.871094 C 404.355469 364.363281 404.765625 364.871094 405.15625 365.386719 C 405.546875 365.90625 405.925781 366.433594 406.285156 366.976562 C 406.644531 367.515625 406.984375 368.066406 407.3125 368.628906 C 407.636719 369.191406 407.945312 369.761719 408.234375 370.34375 C 408.523438 370.921875 408.796875 371.511719 409.050781 372.109375 C 409.308594 372.707031 409.542969 373.3125 409.761719 373.925781 C 409.976562 374.535156 410.175781 375.152344 410.355469 375.777344 C 410.535156 376.402344 410.695312 377.03125 410.835938 377.664062 C 410.976562 378.296875 411.097656 378.9375 411.199219 379.578125 C 411.300781 380.21875 411.382812 380.863281 411.445312 381.507812 C 411.507812 382.15625 411.550781 382.800781 411.574219 383.453125 C 411.59375 384.101562 411.597656 384.75 411.582031 385.398438 C 411.5625 386.046875 411.527344 386.695312 411.46875 387.34375 C 411.414062 387.988281 411.335938 388.632812 411.238281 389.277344 C 411.144531 389.917969 411.027344 390.554688 410.890625 391.191406 C 410.753906 391.824219 410.601562 392.457031 410.425781 393.082031 C 410.25 393.707031 410.058594 394.328125 409.847656 394.941406 C 409.632812 395.554688 409.402344 396.160156 409.152344 396.761719 C 408.902344 397.359375 408.636719 397.949219 408.351562 398.535156 C 407.976562 399.304688 407.726562 400.113281 407.601562 400.960938 C 407.472656 401.808594 407.476562 402.65625 407.609375 403.503906 C 407.742188 404.351562 408 405.15625 408.378906 405.925781 C 408.757812 406.691406 409.246094 407.386719 409.835938 408.007812 C 410.429688 408.625 411.101562 409.140625 411.851562 409.554688 C 412.601562 409.96875 413.394531 410.261719 414.234375 410.433594 C 415.074219 410.605469 415.921875 410.644531 416.773438 410.558594 C 417.625 410.46875 418.445312 410.253906 419.234375 409.914062 L 488.324219 378.964844 C 489.972656 378.25 491.488281 377.316406 492.863281 376.160156 C 494.242188 375.003906 495.421875 373.675781 496.410156 372.175781 L 506.894531 367.882812 C 507.492188 372.828125 508.707031 377.617188 510.53125 382.25 C 512.359375 386.886719 514.742188 391.214844 517.675781 395.238281 C 516.601562 395.863281 515.636719 396.628906 514.78125 397.535156 C 513.695312 398.578125 512.855469 399.792969 512.265625 401.179688 C 511.675781 402.566406 511.382812 404.015625 511.386719 405.523438 L 511.886719 438.371094 L 505.097656 438.371094 C 504.308594 438.382812 503.546875 438.542969 502.824219 438.851562 C 502.097656 439.164062 501.457031 439.601562 500.902344 440.167969 C 500.3125 440.71875 499.867188 441.371094 499.570312 442.121094 C 499.273438 442.875 499.152344 443.652344 499.207031 444.460938 L 500.304688 519.839844 L 512.285156 519.839844 L 511.1875 450.453125 L 671.234375 449.152344 L 672.332031 519.941406 L 684.3125 519.941406 L 683.214844 443.164062 C 683.203125 442.773438 683.160156 442.386719 683.074219 442.003906 C 682.992188 441.621094 682.875 441.253906 682.71875 440.894531 C 682.566406 440.535156 682.378906 440.191406 682.160156 439.871094 C 681.941406 439.546875 681.691406 439.246094 681.417969 438.96875 C 681.140625 438.691406 680.839844 438.445312 680.515625 438.226562 C 680.195312 438.007812 679.851562 437.820312 679.492188 437.667969 C 679.132812 437.511719 678.765625 437.394531 678.382812 437.3125 C 678 437.226562 677.613281 437.183594 677.222656 437.171875 L 670.234375 437.171875 C 670.234375 436.972656 670.335938 436.671875 670.335938 436.472656 L 669.835938 404.324219 C 669.835938 403.4375 669.726562 402.5625 669.511719 401.699219 C 669.296875 400.839844 668.980469 400.015625 668.5625 399.234375 C 668.144531 398.449219 667.636719 397.726562 667.042969 397.070312 C 666.445312 396.410156 665.78125 395.832031 665.042969 395.339844 C 667.339844 391.644531 669.136719 388.847656 669.4375 388.25 C 671.171875 385.597656 672.4375 382.734375 673.230469 379.664062 L 673.429688 378.964844 L 673.53125 378.964844 L 691 313.667969 L 684.613281 293.5 L 690.402344 291.105469 C 691.148438 290.800781 691.875 290.460938 692.589844 290.085938 C 693.300781 289.707031 693.992188 289.296875 694.664062 288.855469 C 695.332031 288.410156 695.980469 287.933594 696.605469 287.425781 C 697.230469 286.917969 697.828125 286.382812 698.398438 285.8125 C 698.96875 285.246094 699.511719 284.652344 700.027344 284.035156 C 700.539062 283.414062 701.019531 282.769531 701.46875 282.101562 C 701.917969 281.433594 702.332031 280.746094 702.714844 280.039062 C 703.097656 279.328125 703.441406 278.601562 703.753906 277.859375 C 704.0625 277.117188 704.335938 276.359375 704.570312 275.589844 C 704.804688 274.820312 705.003906 274.042969 705.164062 273.253906 C 705.320312 272.464844 705.441406 271.667969 705.519531 270.867188 C 705.601562 270.066406 705.640625 269.265625 705.644531 268.460938 C 705.644531 267.65625 705.605469 266.851562 705.527344 266.050781 C 705.449219 265.25 705.332031 264.457031 705.175781 263.664062 C 705.019531 262.875 704.824219 262.097656 704.59375 261.328125 C 704.359375 260.554688 704.089844 259.800781 703.78125 259.054688 Z M 240.316406 158.613281 C 240.835938 156.804688 241.601562 155.109375 242.613281 153.523438 C 242.613281 153.523438 245.710938 148.53125 249.203125 143.140625 L 370.609375 142.140625 C 373.210938 144.890625 375.445312 147.914062 377.308594 151.207031 C 379.1875 154.5 380.648438 157.964844 381.691406 161.609375 L 285.445312 204.640625 L 284.449219 206.339844 C 277.660156 218.320312 265.378906 223.613281 265.277344 223.613281 L 260.886719 225.410156 C 260.886719 225.410156 267.773438 267.042969 269.671875 279.125 C 270.230469 282.714844 270.1875 286.300781 269.535156 289.878906 C 268.886719 293.453125 267.667969 296.824219 265.878906 299.992188 C 265.242188 300.898438 264.507812 301.71875 263.679688 302.449219 C 262.847656 303.179688 261.9375 303.804688 260.957031 304.316406 C 259.976562 304.828125 258.945312 305.21875 257.871094 305.480469 C 256.792969 305.746094 255.703125 305.878906 254.59375 305.882812 C 251.5 305.78125 250.203125 304.183594 249.703125 303.285156 L 230.234375 242.480469 L 226.539062 231 L 223.445312 221.414062 Z M 486.128906 365.886719 C 485.449219 366.867188 484.550781 367.566406 483.429688 367.980469 L 422.230469 395.4375 C 422.433594 394.617188 422.613281 393.792969 422.773438 392.964844 C 422.929688 392.132812 423.0625 391.296875 423.171875 390.460938 C 423.28125 389.621094 423.367188 388.78125 423.425781 387.9375 C 423.484375 387.09375 423.523438 386.25 423.53125 385.40625 C 423.542969 384.558594 423.53125 383.714844 423.492188 382.871094 C 423.457031 382.027344 423.394531 381.183594 423.308594 380.34375 C 423.222656 379.503906 423.109375 378.664062 422.976562 377.832031 C 422.839844 376.996094 422.679688 376.164062 422.5 375.339844 C 422.316406 374.515625 422.109375 373.695312 421.878906 372.882812 C 421.648438 372.070312 421.394531 371.265625 421.117188 370.464844 C 420.839844 369.667969 420.539062 368.878906 420.214844 368.097656 C 419.890625 367.316406 419.546875 366.542969 419.179688 365.78125 C 418.8125 365.023438 418.421875 364.273438 418.011719 363.535156 C 417.601562 362.792969 417.167969 362.070312 416.714844 361.355469 C 416.261719 360.640625 415.789062 359.941406 415.292969 359.257812 C 414.800781 358.570312 414.285156 357.898438 413.753906 357.242188 C 413.222656 356.585938 412.667969 355.945312 412.101562 355.320312 C 411.53125 354.695312 410.941406 354.089844 410.335938 353.5 C 409.734375 352.910156 409.109375 352.335938 408.472656 351.78125 C 407.835938 351.226562 407.179688 350.691406 406.511719 350.175781 C 405.84375 349.660156 405.160156 349.164062 404.460938 348.6875 C 403.761719 348.210938 403.050781 347.753906 402.328125 347.320312 C 401.601562 346.882812 400.867188 346.46875 400.117188 346.074219 C 399.371094 345.683594 398.609375 345.3125 397.839844 344.964844 C 397.070312 344.613281 396.292969 344.289062 395.503906 343.984375 C 394.714844 343.679688 393.917969 343.398438 393.113281 343.140625 C 392.308594 342.886719 391.496094 342.652344 390.675781 342.441406 C 389.859375 342.230469 389.035156 342.042969 388.203125 341.878906 C 387.375 341.71875 386.542969 341.578125 385.703125 341.464844 C 384.867188 341.351562 384.027344 341.261719 383.183594 341.195312 C 382.339844 341.128906 381.496094 341.085938 380.652344 341.070312 C 379.804688 341.054688 378.960938 341.0625 378.117188 341.09375 C 377.273438 341.125 376.429688 341.183594 375.585938 341.261719 C 374.746094 341.34375 373.90625 341.449219 373.074219 341.578125 C 372.238281 341.710938 371.40625 341.863281 370.582031 342.039062 C 369.753906 342.21875 368.933594 342.417969 368.117188 342.644531 C 367.304688 342.871094 366.496094 343.117188 365.695312 343.390625 C 364.894531 343.664062 364.105469 343.957031 363.320312 344.277344 C 362.539062 344.59375 361.765625 344.933594 361 345.296875 C 360.238281 345.660156 359.484375 346.042969 358.742188 346.449219 C 358.003906 346.855469 357.273438 347.285156 356.558594 347.734375 C 355.839844 348.183594 355.136719 348.652344 354.449219 349.140625 C 353.761719 349.628906 353.085938 350.136719 352.425781 350.667969 C 351.765625 351.195312 351.121094 351.742188 350.492188 352.308594 C 349.867188 352.875 349.253906 353.457031 348.660156 354.058594 C 348.066406 354.660156 347.488281 355.277344 346.933594 355.914062 C 346.375 356.546875 345.832031 357.195312 345.3125 357.863281 C 344.792969 358.527344 344.292969 359.210938 343.808594 359.902344 C 343.328125 360.597656 342.867188 361.308594 342.425781 362.027344 C 341.988281 362.75 341.566406 363.484375 341.171875 364.230469 C 340.773438 364.976562 340.398438 365.730469 340.042969 366.5 C 339.6875 367.265625 339.359375 368.042969 339.050781 368.832031 C 338.742188 369.617188 338.453125 370.414062 338.191406 371.21875 C 337.929688 372.019531 337.691406 372.832031 337.472656 373.648438 C 337.257812 374.464844 337.066406 375.289062 336.898438 376.117188 C 336.730469 376.945312 336.585938 377.777344 336.464844 378.613281 C 336.347656 379.449219 336.25 380.289062 336.179688 381.132812 C 336.109375 381.976562 336.0625 382.820312 336.039062 383.664062 C 336.015625 384.507812 336.019531 385.351562 336.046875 386.199219 C 336.074219 387.042969 336.125 387.886719 336.199219 388.726562 C 336.273438 389.570312 336.375 390.410156 336.5 391.246094 C 336.621094 392.082031 336.769531 392.914062 336.941406 393.742188 C 337.117188 394.570312 337.3125 395.390625 337.53125 396.207031 C 337.75 397.023438 337.996094 397.832031 338.261719 398.632812 C 341.65625 408.519531 350.742188 417.304688 359.027344 423.695312 L 291.238281 454.046875 L 207.371094 266.644531 C 206.664062 265.097656 206.292969 263.472656 206.257812 261.773438 C 206.222656 260.070312 206.527344 258.433594 207.171875 256.859375 C 207.765625 255.277344 208.640625 253.871094 209.800781 252.640625 C 210.960938 251.414062 212.316406 250.457031 213.859375 249.769531 L 219.152344 247.375 L 238.71875 308.378906 C 239.449219 309.78125 240.351562 311.066406 241.425781 312.226562 C 242.5 313.386719 243.710938 314.386719 245.054688 315.21875 C 246.398438 316.054688 247.828125 316.695312 249.347656 317.144531 C 250.863281 317.59375 252.414062 317.832031 253.996094 317.863281 C 253.996094 317.863281 269.570312 318.160156 275.960938 306.28125 L 275.960938 306.082031 C 277.203125 303.902344 278.253906 301.640625 279.113281 299.285156 C 279.972656 296.929688 280.625 294.519531 281.078125 292.054688 C 281.527344 289.589844 281.769531 287.105469 281.796875 284.597656 C 281.828125 282.09375 281.644531 279.601562 281.253906 277.125 C 279.753906 267.542969 275.660156 242.480469 273.964844 232.398438 C 277.957031 230.183594 281.621094 227.523438 284.964844 224.414062 C 288.308594 221.308594 291.230469 217.84375 293.734375 214.027344 L 395.070312 168.597656 C 395.070312 168.597656 397.867188 167 400.0625 167.5 C 401.492188 168.226562 402.523438 169.324219 403.160156 170.796875 L 434.507812 242.480469 C 434.828125 243.277344 435.265625 244.003906 435.8125 244.664062 C 436.363281 245.320312 437.003906 245.878906 437.726562 246.335938 C 438.453125 246.792969 439.234375 247.128906 440.066406 247.339844 C 440.894531 247.550781 441.738281 247.628906 442.597656 247.574219 C 443.449219 247.515625 444.277344 247.335938 445.078125 247.03125 C 445.875 246.726562 446.613281 246.3125 447.289062 245.789062 C 447.964844 245.261719 448.550781 244.652344 449.042969 243.953125 C 449.535156 243.253906 449.917969 242.496094 450.183594 241.683594 C 450.347656 241.066406 450.53125 240.457031 450.734375 239.851562 C 450.933594 239.246094 451.15625 238.648438 451.394531 238.058594 C 451.632812 237.464844 451.886719 236.882812 452.160156 236.308594 C 452.433594 235.730469 452.726562 235.164062 453.035156 234.605469 C 453.34375 234.046875 453.667969 233.5 454.011719 232.960938 C 454.351562 232.421875 454.710938 231.898438 455.082031 231.378906 C 455.457031 230.863281 455.847656 230.359375 456.25 229.867188 C 456.65625 229.375 457.074219 228.894531 457.511719 228.425781 C 457.945312 227.960938 458.390625 227.507812 458.855469 227.066406 C 459.316406 226.628906 459.789062 226.203125 460.277344 225.792969 C 460.765625 225.382812 461.265625 224.984375 461.777344 224.605469 C 462.289062 224.226562 462.8125 223.859375 463.34375 223.511719 C 463.878906 223.164062 464.421875 222.832031 464.976562 222.519531 C 465.53125 222.203125 466.09375 221.90625 466.667969 221.625 C 467.238281 221.34375 467.820312 221.078125 468.410156 220.835938 C 468.996094 220.589844 469.59375 220.363281 470.195312 220.152344 C 470.796875 219.945312 471.40625 219.753906 472.019531 219.582031 C 472.632812 219.410156 473.25 219.257812 473.875 219.121094 C 474.5 218.988281 475.125 218.875 475.753906 218.777344 C 476.386719 218.679688 477.019531 218.605469 477.652344 218.546875 C 478.289062 218.488281 478.925781 218.453125 479.5625 218.433594 C 480.199219 218.414062 480.835938 218.414062 481.472656 218.4375 C 482.109375 218.457031 482.746094 218.496094 483.382812 218.554688 C 484.015625 218.613281 484.648438 218.691406 485.277344 218.789062 C 485.910156 218.886719 486.535156 219.003906 487.15625 219.140625 C 487.78125 219.277344 488.398438 219.433594 489.011719 219.605469 C 489.625 219.777344 490.234375 219.972656 490.835938 220.183594 C 491.4375 220.394531 492.03125 220.621094 492.617188 220.867188 C 493.207031 221.117188 493.785156 221.378906 494.359375 221.664062 C 494.929688 221.945312 495.492188 222.246094 496.046875 222.5625 C 496.597656 222.878906 497.140625 223.210938 497.675781 223.5625 C 498.207031 223.910156 498.730469 224.277344 499.242188 224.65625 C 499.75 225.039062 500.25 225.4375 500.734375 225.847656 C 501.222656 226.261719 501.695312 226.6875 502.15625 227.128906 C 502.617188 227.570312 503.0625 228.023438 503.496094 228.492188 C 503.929688 228.960938 504.347656 229.441406 504.75 229.933594 C 505.152344 230.429688 505.542969 230.933594 505.914062 231.453125 C 506.285156 231.96875 506.644531 232.496094 506.984375 233.035156 C 507.324219 233.574219 507.648438 234.125 507.953125 234.683594 C 508.261719 235.242188 508.550781 235.808594 508.824219 236.386719 C 509.09375 236.960938 509.347656 237.546875 509.585938 238.140625 C 509.824219 238.730469 510.039062 239.328125 510.242188 239.933594 C 510.441406 240.539062 510.621094 241.152344 510.785156 241.769531 C 510.949219 242.382812 511.089844 243.003906 511.214844 243.628906 C 511.339844 244.253906 511.445312 244.882812 511.535156 245.515625 C 511.621094 246.148438 511.6875 246.78125 511.734375 247.417969 C 511.78125 248.050781 511.8125 248.6875 511.820312 249.324219 C 511.828125 249.964844 511.820312 250.601562 511.789062 251.238281 C 511.757812 251.875 511.710938 252.511719 511.640625 253.144531 C 511.574219 253.777344 511.484375 254.410156 511.378906 255.039062 C 511.269531 255.664062 511.144531 256.289062 511 256.910156 C 510.855469 257.53125 510.691406 258.148438 510.507812 258.757812 C 510.324219 259.367188 510.125 259.972656 509.902344 260.570312 C 509.683594 261.171875 509.445312 261.761719 509.191406 262.347656 C 508.933594 262.929688 508.660156 263.503906 508.371094 264.074219 C 508.078125 264.640625 507.773438 265.199219 507.449219 265.746094 C 507.121094 266.296875 506.78125 266.832031 506.421875 267.359375 C 506.066406 267.890625 505.691406 268.40625 505.304688 268.910156 C 504.914062 269.414062 504.507812 269.90625 504.089844 270.386719 C 503.671875 270.867188 503.238281 271.335938 502.789062 271.789062 C 502.339844 272.242188 501.878906 272.683594 501.40625 273.109375 C 500.929688 273.535156 500.445312 273.945312 499.945312 274.339844 C 499.445312 274.738281 498.933594 275.117188 498.410156 275.480469 C 497.886719 275.847656 497.355469 276.195312 496.808594 276.527344 C 488.125 281.417969 472.949219 280.222656 466.859375 279.523438 C 466.0625 279.433594 465.269531 279.445312 464.476562 279.5625 C 463.6875 279.675781 462.921875 279.894531 462.1875 280.207031 C 461.453125 280.523438 460.769531 280.925781 460.140625 281.421875 C 459.511719 281.914062 458.953125 282.480469 458.472656 283.117188 C 458.472656 283.21875 455.574219 286.511719 457.472656 292.203125 L 487.125 358.296875 C 487.394531 358.917969 487.574219 359.558594 487.667969 360.226562 C 487.761719 360.894531 487.765625 361.5625 487.675781 362.230469 C 487.589844 362.898438 487.414062 363.542969 487.148438 364.164062 C 486.886719 364.785156 486.546875 365.359375 486.128906 365.886719 Z M 661.648438 376.570312 C 661.128906 378.378906 660.363281 380.074219 659.351562 381.660156 L 659.351562 381.859375 C 659.351562 381.859375 656.355469 386.753906 652.863281 392.144531 L 651.664062 394.039062 L 532.355469 394.039062 L 531.355469 393.042969 C 529.441406 391.003906 527.722656 388.8125 526.191406 386.472656 C 524.664062 384.132812 523.347656 381.675781 522.25 379.105469 C 521.152344 376.535156 520.285156 373.886719 519.652344 371.164062 C 519.019531 368.441406 518.625 365.683594 518.476562 362.890625 L 604.9375 326.847656 C 603.042969 330.242188 601.246094 333.835938 599.546875 337.429688 L 610.429688 342.523438 C 612.625 337.832031 615.023438 333.238281 617.519531 328.84375 C 620.074219 324.445312 623.335938 320.652344 627.304688 317.460938 C 630.179688 315.097656 633.308594 313.136719 636.6875 311.570312 L 641.082031 309.773438 L 640.382812 305.082031 C 640.28125 304.980469 639.984375 302.785156 639.382812 299.492188 C 637.585938 288.707031 633.792969 265.34375 632.296875 256.160156 C 631.734375 252.566406 631.777344 248.984375 632.429688 245.40625 C 633.078125 241.828125 634.300781 238.457031 636.089844 235.292969 C 636.722656 234.378906 637.453125 233.550781 638.28125 232.8125 C 639.113281 232.074219 640.019531 231.445312 641 230.921875 C 641.980469 230.402344 643.011719 230.003906 644.089844 229.730469 C 645.164062 229.457031 646.257812 229.3125 647.371094 229.300781 C 650.464844 229.402344 651.765625 231 652.261719 232 L 669.835938 286.710938 L 673.53125 298.191406 L 678.523438 313.867188 Z M 661.648438 376.570312 " fill-opacity="1" fill-rule="nonzero"/></g><path fill="#ec9707" d="M 317.816406 478.015625 L 328.460938 472.519531 L 342.289062 499.3125 L 331.644531 504.808594 Z M 317.816406 478.015625 " fill-opacity="1" fill-rule="nonzero"/><path fill="#ec9707" d="M 231.390625 499.796875 L 245.21875 473.003906 L 255.867188 478.5 L 242.039062 505.292969 Z M 231.390625 499.796875 " fill-opacity="1" fill-rule="nonzero"/><path fill="#ec9707" d="M 280.246094 520.304688 L 280.984375 490.164062 L 292.960938 490.453125 L 292.222656 520.597656 Z M 280.246094 520.304688 " fill-opacity="1" fill-rule="nonzero"/><path fill="#ec9707" d="M 571.121094 25.765625 L 581.765625 20.269531 L 595.59375 47.0625 L 584.949219 52.558594 Z M 571.121094 25.765625 " fill-opacity="1" fill-rule="nonzero"/><path fill="#ec9707" d="M 657.574219 47.46875 L 671.402344 20.671875 L 682.050781 26.167969 L 668.222656 52.960938 Z M 657.574219 47.46875 " fill-opacity="1" fill-rule="nonzero"/><path fill="#ec9707" d="M 619.785156 34.800781 L 620.523438 4.65625 L 632.5 4.949219 L 631.761719 35.09375 Z M 619.785156 34.800781 " fill-opacity="1" fill-rule="nonzero"/></svg>