<svg xmlns="http://www.w3.org/2000/svg" xmlns:xlink="http://www.w3.org/1999/xlink" width="1200" zoomAndPan="magnify" viewBox="0 0 900 525.000007" height="700" preserveAspectRatio="xMidYMid meet" version="1.0"><path fill="#ec9707" d="M 471.175781 119.675781 L 471.175781 155.460938 C 471.175781 155.816406 471.015625 156.125 470.726562 156.332031 C 470.433594 156.542969 470.09375 156.589844 469.753906 156.476562 C 467.183594 155.601562 464.433594 155.132812 461.589844 155.132812 L 434.570312 155.132812 C 431.726562 155.132812 428.976562 155.601562 426.402344 156.476562 C 426.0625 156.59375 425.722656 156.542969 425.429688 156.332031 C 425.140625 156.125 424.984375 155.820312 424.984375 155.460938 L 424.984375 119.675781 C 424.984375 119.085938 424.5 118.601562 423.910156 118.601562 L 400.761719 118.601562 C 400.347656 118.601562 399.992188 118.386719 399.804688 118.015625 C 399.617188 117.648438 399.648438 117.234375 399.894531 116.898438 L 447.210938 51.886719 C 447.421875 51.601562 447.726562 51.445312 448.082031 51.445312 C 448.433594 51.445312 448.738281 51.601562 448.949219 51.886719 L 496.265625 116.898438 C 496.507812 117.234375 496.542969 117.648438 496.355469 118.019531 C 496.164062 118.386719 495.8125 118.605469 495.398438 118.605469 L 472.246094 118.605469 C 471.65625 118.601562 471.175781 119.085938 471.175781 119.675781 Z M 608.945312 250.667969 C 607.171875 246.605469 609.03125 241.875 613.09375 240.105469 C 617.15625 238.335938 621.886719 240.195312 623.65625 244.257812 C 653.105469 311.769531 641.203125 390.035156 593.46875 445.703125 C 570.007812 473.066406 538.972656 493.738281 503.621094 504.484375 C 503.1875 504.613281 502.894531 504.984375 502.863281 505.4375 C 502.832031 505.890625 503.070312 506.292969 503.484375 506.484375 L 505.015625 507.1875 C 509.042969 509.046875 510.800781 513.816406 508.945312 517.84375 C 507.085938 521.871094 502.316406 523.628906 498.289062 521.773438 L 472.84375 510.058594 C 472.835938 510.054688 472.828125 510.050781 472.820312 510.046875 C 467.351562 507.6875 466.015625 501.027344 470.28125 496.738281 C 470.285156 496.730469 470.292969 496.726562 470.300781 496.71875 L 489.46875 476.367188 C 492.507812 473.136719 497.585938 472.984375 500.816406 476.023438 C 503.648438 478.6875 504.117188 482.929688 502.132812 486.109375 C 501.886719 486.5 501.914062 486.980469 502.199219 487.34375 C 502.484375 487.703125 502.945312 487.84375 503.378906 487.695312 C 587.246094 459.804688 638.171875 372.953125 619.871094 284.976562 C 617.390625 273.046875 613.703125 261.566406 608.945312 250.667969 Z M 260.691406 270.445312 C 257.082031 272.996094 252.085938 272.140625 249.535156 268.527344 C 246.984375 264.917969 247.839844 259.921875 251.453125 257.371094 L 274.207031 241.25 C 274.214844 241.242188 274.226562 241.238281 274.234375 241.230469 C 279.167969 237.496094 285.433594 239.996094 286.980469 245.167969 L 286.992188 245.164062 L 295.195312 272.410156 C 296.460938 276.664062 294.039062 281.140625 289.785156 282.40625 C 285.535156 283.675781 281.058594 281.253906 279.792969 277 L 279.703125 276.707031 C 279.5625 276.242188 279.140625 275.933594 278.652344 275.945312 C 278.167969 275.957031 277.757812 276.277344 277.636719 276.746094 C 263.117188 332.761719 277.21875 392 314.320312 435.265625 C 341.042969 466.433594 378.507812 488.132812 420.980469 494.625 C 425.371094 495.285156 428.398438 499.378906 427.738281 503.769531 C 427.078125 508.164062 422.984375 511.1875 418.589844 510.527344 C 325.75 496.460938 255.964844 415.953125 255.964844 320.914062 C 255.964844 304.164062 258.160156 287.53125 262.40625 271.554688 C 262.523438 271.109375 262.359375 270.660156 261.984375 270.398438 C 261.605469 270.136719 261.125 270.140625 260.75 270.40625 Z M 407.402344 318.851562 L 433.742188 344.582031 C 436.917969 347.671875 442 347.597656 445.089844 344.421875 L 490.175781 297.191406 C 493.234375 293.980469 493.105469 288.898438 489.894531 285.847656 C 486.683594 282.789062 481.601562 282.917969 478.546875 286.128906 L 439.886719 326.632812 C 439.679688 326.847656 439.425781 326.957031 439.128906 326.964844 C 438.832031 326.96875 438.574219 326.867188 438.363281 326.660156 L 418.59375 307.347656 C 415.417969 304.257812 410.335938 304.332031 407.246094 307.507812 C 404.152344 310.683594 404.222656 315.761719 407.402344 318.851562 Z M 476.125 194.03125 C 475.746094 193.941406 475.464844 193.683594 475.34375 193.316406 L 470.195312 177.476562 C 468.964844 173.683594 465.578125 171.222656 461.589844 171.222656 L 434.570312 171.222656 C 430.582031 171.222656 427.195312 173.683594 425.960938 177.476562 L 420.816406 193.316406 C 420.695312 193.683594 420.414062 193.941406 420.035156 194.03125 C 406.074219 197.210938 393 202.710938 381.238281 210.109375 C 380.90625 210.3125 380.523438 210.332031 380.179688 210.15625 L 365.335938 202.589844 C 361.78125 200.78125 357.644531 201.4375 354.824219 204.253906 L 335.71875 223.359375 C 332.898438 226.179688 332.242188 230.316406 334.054688 233.871094 L 341.617188 248.714844 C 341.796875 249.0625 341.777344 249.441406 341.570312 249.773438 C 334.171875 261.535156 328.675781 274.613281 325.492188 288.570312 C 325.40625 288.949219 325.148438 289.230469 324.78125 289.351562 L 308.945312 294.496094 C 305.152344 295.730469 302.691406 299.117188 302.691406 303.105469 L 302.691406 330.125 C 302.691406 334.113281 305.152344 337.5 308.945312 338.734375 L 324.78125 343.878906 C 325.148438 344 325.40625 344.28125 325.492188 344.660156 C 328.671875 358.621094 334.175781 371.695312 341.570312 383.457031 C 341.777344 383.785156 341.796875 384.167969 341.621094 384.515625 L 334.054688 399.359375 C 332.246094 402.914062 332.902344 407.050781 335.71875 409.867188 L 354.824219 428.972656 C 357.644531 431.792969 361.78125 432.449219 365.335938 430.636719 L 380.179688 423.074219 C 380.527344 422.894531 380.910156 422.914062 381.238281 423.121094 C 393 430.519531 406.078125 436.015625 420.035156 439.199219 C 420.414062 439.285156 420.695312 439.542969 420.816406 439.914062 L 425.964844 455.75 C 427.195312 459.542969 430.582031 462.003906 434.570312 462.003906 L 461.589844 462.003906 C 465.578125 462.003906 468.964844 459.542969 470.199219 455.75 L 475.34375 439.914062 C 475.464844 439.542969 475.746094 439.285156 476.125 439.199219 C 490.085938 436.019531 503.160156 430.515625 514.921875 423.121094 C 515.25 422.914062 515.636719 422.894531 515.980469 423.070312 L 530.828125 430.636719 C 534.378906 432.445312 538.515625 431.792969 541.335938 428.972656 L 560.441406 409.867188 C 563.261719 407.046875 563.917969 402.914062 562.105469 399.359375 L 554.542969 384.515625 C 554.367188 384.167969 554.382812 383.785156 554.589844 383.457031 C 561.988281 371.695312 567.484375 358.617188 570.667969 344.660156 C 570.753906 344.28125 571.011719 343.996094 571.378906 343.878906 L 587.214844 338.734375 C 591.007812 337.5 593.472656 334.113281 593.472656 330.125 L 593.472656 303.105469 C 593.472656 299.117188 591.007812 295.730469 587.214844 294.496094 L 571.378906 289.351562 C 571.011719 289.230469 570.753906 288.945312 570.667969 288.570312 C 567.484375 274.609375 561.984375 261.535156 554.589844 249.769531 C 554.382812 249.441406 554.363281 249.058594 554.539062 248.714844 L 562.105469 233.867188 C 563.914062 230.316406 563.257812 226.179688 560.441406 223.359375 L 541.335938 204.253906 C 538.515625 201.433594 534.378906 200.777344 530.824219 202.589844 L 515.980469 210.152344 C 515.632812 210.332031 515.25 210.3125 514.921875 210.105469 C 503.160156 202.710938 490.082031 197.210938 476.125 194.03125 Z M 448.078125 236.3125 C 403.726562 236.3125 367.777344 272.261719 367.777344 316.613281 C 367.777344 360.960938 403.726562 396.914062 448.078125 396.914062 C 492.429688 396.914062 528.382812 360.960938 528.382812 316.613281 C 528.382812 272.265625 492.429688 236.3125 448.078125 236.3125 Z M 567.980469 68.492188 C 567.980469 67.902344 568.464844 67.417969 569.054688 67.417969 L 592.207031 67.417969 C 592.617188 67.417969 592.972656 67.203125 593.160156 66.832031 C 593.351562 66.464844 593.316406 66.050781 593.074219 65.714844 L 545.753906 0.703125 C 545.546875 0.414062 545.242188 0.261719 544.886719 0.261719 C 544.53125 0.261719 544.226562 0.414062 544.019531 0.703125 L 496.699219 65.714844 C 496.457031 66.050781 496.425781 66.464844 496.613281 66.832031 C 496.800781 67.203125 497.152344 67.421875 497.566406 67.421875 L 520.71875 67.421875 C 521.308594 67.421875 521.792969 67.902344 521.792969 68.492188 L 521.792969 187.382812 C 521.792969 187.765625 521.976562 188.097656 522.304688 188.296875 C 522.632812 188.496094 523.007812 188.511719 523.351562 188.335938 L 523.519531 188.25 C 533.273438 183.28125 544.972656 185.132812 552.714844 192.875 L 566.152344 206.3125 C 566.464844 206.625 566.914062 206.714844 567.320312 206.546875 C 567.730469 206.375 567.984375 205.996094 567.984375 205.554688 L 567.984375 68.492188 Z M 374.367188 165.945312 C 374.367188 165.355469 374.847656 164.875 375.441406 164.875 L 398.589844 164.875 C 399.003906 164.875 399.359375 164.65625 399.546875 164.285156 C 399.734375 163.917969 399.703125 163.503906 399.457031 163.167969 L 352.140625 98.15625 C 351.933594 97.867188 351.628906 97.714844 351.273438 97.714844 C 350.917969 97.714844 350.613281 97.867188 350.40625 98.15625 L 303.085938 163.167969 C 302.84375 163.503906 302.808594 163.917969 303 164.285156 C 303.1875 164.65625 303.539062 164.875 303.953125 164.875 L 327.105469 164.875 C 327.695312 164.875 328.179688 165.355469 328.179688 165.945312 L 328.179688 205.554688 C 328.179688 206 328.429688 206.378906 328.839844 206.546875 C 329.25 206.714844 329.695312 206.628906 330.007812 206.3125 L 343.449219 192.875 C 351.191406 185.132812 362.886719 183.28125 372.644531 188.25 L 372.808594 188.335938 C 373.152344 188.511719 373.53125 188.496094 373.855469 188.296875 C 374.183594 188.09375 374.371094 187.765625 374.371094 187.382812 L 374.371094 165.945312 Z M 374.367188 165.945312 " fill-opacity="1" fill-rule="evenodd"/></svg>