<svg xmlns="http://www.w3.org/2000/svg" xmlns:xlink="http://www.w3.org/1999/xlink" width="1200" zoomAndPan="magnify" viewBox="0 0 900 525.000007" height="700" preserveAspectRatio="xMidYMid meet" version="1.0"><defs><clipPath id="b6beb6dfe0"><path d="M 207.824219 5.390625 L 690 5.390625 L 690 518.914062 L 207.824219 518.914062 Z M 207.824219 5.390625 " clip-rule="nonzero"/></clipPath></defs><g clip-path="url(#b6beb6dfe0)"><path fill="#ec9707" d="M 358.921875 418.453125 L 241.71875 418.453125 C 223.089844 418.453125 207.835938 403.203125 207.835938 384.570312 L 207.835938 151.542969 C 207.835938 132.910156 223.089844 117.660156 241.71875 117.660156 L 274.160156 117.660156 L 274.160156 146.011719 L 240.882812 146.011719 C 238.28125 146.011719 236.15625 148.105469 236.15625 150.707031 L 236.15625 361.394531 L 620.148438 361.394531 L 620.148438 254.054688 L 648.46875 205.011719 L 648.46875 384.570312 C 648.46875 403.203125 633.21875 418.453125 614.585938 418.453125 L 497.417969 418.453125 L 497.417969 472.285156 L 548.972656 472.285156 C 564.855469 472.285156 577.863281 482.660156 577.863281 495.339844 L 577.863281 518.429688 L 278.472656 518.429688 L 278.472656 495.339844 C 278.472656 482.660156 291.484375 472.285156 307.363281 472.285156 L 358.921875 472.285156 Z M 586.597656 146.011719 L 562.800781 146.011719 L 562.800781 117.660156 L 602.972656 117.660156 Z M 443.824219 26.671875 C 455.054688 29.34375 465.765625 33.78125 475.613281 39.847656 L 496.273438 30.660156 L 520.609375 54.996094 L 511.457031 75.65625 C 517.523438 85.5 521.960938 96.214844 524.628906 107.480469 L 545.707031 115.59375 L 545.707031 150.015625 L 524.628906 158.128906 C 521.960938 169.359375 517.488281 180.070312 511.457031 189.914062 L 520.609375 210.578125 L 496.273438 234.914062 L 475.613281 225.761719 C 465.800781 231.828125 455.054688 236.265625 443.824219 238.933594 L 435.710938 260.011719 L 401.289062 260.011719 L 393.175781 238.933594 C 381.910156 236.265625 371.195312 231.792969 361.351562 225.761719 L 340.691406 234.914062 L 316.355469 210.578125 L 325.542969 189.914062 C 319.476562 180.105469 315.039062 169.359375 312.332031 158.128906 L 291.257812 150.015625 L 291.257812 115.59375 L 312.332031 107.480469 C 315.039062 96.214844 319.476562 85.5 325.542969 75.65625 L 316.355469 54.996094 L 340.691406 30.660156 L 361.351562 39.847656 C 371.195312 33.78125 381.910156 29.34375 393.140625 26.671875 L 401.289062 5.5625 L 435.710938 5.5625 Z M 418.476562 52.730469 C 374.246094 52.730469 338.425781 88.550781 338.425781 132.78125 C 338.425781 177.011719 374.246094 212.875 418.476562 212.875 C 462.707031 212.875 498.570312 177.011719 498.570312 132.78125 C 498.570312 88.550781 462.707031 52.730469 418.476562 52.730469 Z M 458.183594 122.417969 C 461.890625 124.5625 464.179688 128.519531 464.179688 132.804688 C 464.179688 137.089844 461.890625 141.046875 458.183594 143.191406 L 405.636719 173.527344 C 401.925781 175.667969 397.355469 175.667969 393.644531 173.527344 C 389.933594 171.382812 387.648438 167.425781 387.648438 163.140625 L 387.648438 102.464844 C 387.648438 98.183594 389.933594 94.222656 393.644531 92.082031 C 397.355469 89.9375 401.925781 89.9375 405.636719 92.082031 Z M 665.507812 141.320312 L 587.78125 275.921875 L 545.429688 251.472656 L 623.167969 116.871094 Z M 541.140625 312.296875 C 540.9375 312.3125 540.734375 312.316406 540.53125 312.316406 L 315.777344 312.316406 C 311.058594 312.316406 307.230469 308.488281 307.230469 303.769531 C 307.230469 299.054688 311.058594 295.222656 315.777344 295.222656 L 536.449219 295.222656 L 536.878906 266.273438 L 579.230469 290.726562 L 544.359375 311.5625 C 543.375 312.152344 542.246094 312.394531 541.140625 312.296875 Z M 631.71875 102.070312 L 644.03125 80.75 C 649.828125 70.6875 662.476562 67.042969 672.195312 72.675781 L 679.273438 76.734375 C 688.996094 82.332031 692.167969 95.128906 686.371094 105.191406 L 674.058594 126.515625 Z M 631.71875 102.070312 " fill-opacity="1" fill-rule="evenodd"/></g></svg>