<svg xmlns="http://www.w3.org/2000/svg" xmlns:xlink="http://www.w3.org/1999/xlink" width="1200" zoomAndPan="magnify" viewBox="0 0 900 525.000007" height="700" preserveAspectRatio="xMidYMid meet" version="1.0"><defs><clipPath id="da9f409f42"><path d="M 206.339844 0 L 693.660156 0 L 693.660156 524 L 206.339844 524 Z M 206.339844 0 " clip-rule="nonzero"/></clipPath></defs><g clip-path="url(#da9f409f42)"><path fill="#003152" d="M 693.195312 480.269531 C 689.867188 435.886719 658.628906 399.371094 617.589844 387.5 C 636.378906 377.261719 649.15625 357.324219 649.15625 334.464844 C 649.15625 301.179688 622.078125 274.101562 588.792969 274.101562 C 555.507812 274.101562 528.429688 301.179688 528.429688 334.464844 C 528.429688 357.339844 541.222656 377.285156 560.027344 387.519531 C 540.285156 393.230469 522.394531 404.710938 508.882812 420.667969 C 499.777344 414.996094 489.832031 410.59375 479.292969 407.707031 C 500.066406 397.03125 514.316406 375.398438 514.316406 350.480469 C 514.316406 315.019531 485.464844 286.167969 450 286.167969 C 414.539062 286.167969 385.6875 315.019531 385.6875 350.480469 C 385.6875 375.398438 399.9375 397.035156 420.707031 407.707031 C 410.171875 410.59375 400.222656 414.996094 391.117188 420.667969 C 377.609375 404.710938 359.714844 393.230469 339.972656 387.519531 C 358.78125 377.28125 371.570312 357.335938 371.570312 334.460938 C 371.570312 301.179688 344.492188 274.101562 311.207031 274.101562 C 277.925781 274.101562 250.84375 301.179688 250.84375 334.460938 C 250.84375 357.324219 263.621094 377.257812 282.410156 387.5 C 241.375 399.367188 210.132812 435.886719 206.804688 480.269531 C 206.496094 484.414062 207.929688 488.53125 210.746094 491.5625 C 213.558594 494.59375 217.558594 496.335938 221.714844 496.335938 L 339.699219 496.335938 C 339.054688 499.960938 338.589844 503.644531 338.308594 507.386719 C 337.984375 511.671875 339.46875 515.929688 342.378906 519.066406 C 345.289062 522.203125 349.421875 524 353.722656 524 L 546.277344 524 C 550.578125 524 554.714844 522.203125 557.625 519.066406 C 560.535156 515.925781 562.015625 511.671875 561.695312 507.386719 C 561.414062 503.644531 560.945312 499.960938 560.304688 496.335938 L 678.289062 496.335938 C 682.445312 496.335938 686.441406 494.597656 689.257812 491.5625 C 692.070312 488.53125 693.507812 484.414062 693.195312 480.269531 Z M 343.929688 479.894531 L 223.332031 479.894531 C 227.539062 434.886719 265.828125 399.859375 311.207031 399.859375 C 336.703125 399.859375 361.0625 411.140625 377.796875 430.371094 C 362.441406 443.371094 350.570312 460.421875 343.929688 479.894531 Z M 354.785156 507.5625 C 359.011719 458.496094 400.632812 420.210938 450 420.210938 C 499.371094 420.210938 540.992188 458.492188 545.21875 507.5625 Z M 556.070312 479.894531 C 549.429688 460.421875 537.558594 443.367188 522.203125 430.367188 C 538.9375 411.136719 563.296875 399.859375 588.792969 399.859375 C 634.175781 399.859375 672.464844 434.882812 676.667969 479.894531 Z M 319.976562 148.429688 C 312.945312 158.503906 311.257812 172.242188 315.460938 185.175781 C 319.664062 198.109375 329.101562 208.230469 340.714844 212.253906 C 345.664062 213.96875 348.804688 218.285156 348.90625 223.523438 C 349.140625 235.808594 355.847656 247.914062 366.847656 255.910156 C 377.855469 263.902344 391.445312 266.542969 403.195312 262.972656 C 408.210938 261.449219 413.285156 263.097656 416.445312 267.273438 C 423.855469 277.074219 436.398438 282.925781 450 282.925781 C 463.597656 282.925781 476.144531 277.074219 483.554688 267.277344 C 486.714844 263.09375 491.792969 261.449219 496.804688 262.972656 C 508.558594 266.542969 522.144531 263.902344 533.148438 255.910156 C 544.152344 247.917969 550.859375 235.808594 551.09375 223.527344 C 551.195312 218.285156 554.332031 213.96875 559.285156 212.253906 C 570.898438 208.234375 580.335938 198.113281 584.539062 185.175781 C 588.742188 172.242188 587.054688 158.507812 580.023438 148.429688 C 577.023438 144.132812 577.023438 138.792969 580.019531 134.496094 C 587.050781 124.417969 588.742188 110.683594 584.539062 97.746094 C 580.335938 84.8125 570.898438 74.691406 559.285156 70.671875 C 554.332031 68.957031 551.195312 64.636719 551.09375 59.398438 C 550.859375 47.117188 544.152344 35.011719 533.152344 27.015625 C 522.148438 19.019531 508.5625 16.382812 496.804688 19.953125 C 491.789062 21.476562 486.710938 19.828125 483.550781 15.648438 C 476.144531 5.851562 463.601562 0 450.003906 0 C 450.003906 0 450 0 450 0 C 436.402344 0 423.859375 5.847656 416.445312 15.648438 C 413.285156 19.828125 408.207031 21.480469 403.195312 19.957031 C 391.445312 16.382812 377.851562 19.019531 366.851562 27.015625 C 355.847656 35.007812 349.140625 47.113281 348.90625 59.398438 C 348.804688 64.640625 345.667969 68.957031 340.714844 70.671875 C 329.105469 74.691406 319.664062 84.8125 315.460938 97.746094 C 311.257812 110.679688 312.945312 124.417969 319.976562 134.496094 C 322.976562 138.792969 322.976562 144.132812 319.976562 148.429688 Z M 333.457031 125.089844 C 329.359375 119.210938 328.476562 110.890625 331.097656 102.828125 C 333.714844 94.765625 339.324219 88.550781 346.09375 86.207031 C 357.550781 82.242188 365.109375 71.839844 365.339844 59.714844 C 365.476562 52.550781 369.652344 45.300781 376.511719 40.316406 C 383.371094 35.332031 391.558594 33.597656 398.414062 35.683594 C 410.019531 39.210938 422.242188 35.238281 429.558594 25.5625 C 433.878906 19.851562 441.523438 16.4375 450 16.4375 C 450 16.4375 450 16.4375 450.003906 16.4375 C 458.480469 16.4375 466.121094 19.851562 470.441406 25.566406 C 477.757812 35.238281 489.984375 39.210938 501.585938 35.683594 C 508.445312 33.601562 516.632812 35.335938 523.488281 40.320312 C 530.347656 45.300781 534.523438 52.554688 534.660156 59.714844 C 534.894531 71.84375 542.449219 82.242188 553.910156 86.207031 C 560.679688 88.550781 566.285156 94.765625 568.90625 102.828125 C 571.523438 110.894531 570.640625 119.214844 566.542969 125.089844 C 559.601562 135.039062 559.601562 147.890625 566.542969 157.835938 C 570.640625 163.714844 571.523438 172.035156 568.90625 180.097656 C 566.285156 188.160156 560.679688 194.375 553.910156 196.71875 C 542.449219 200.683594 534.890625 211.085938 534.660156 223.210938 C 534.523438 230.375 530.347656 237.625 523.488281 242.609375 C 516.628906 247.59375 508.445312 249.328125 501.585938 247.242188 C 489.980469 243.714844 477.757812 247.6875 470.441406 257.359375 C 466.121094 263.074219 458.480469 266.488281 450 266.488281 C 441.519531 266.488281 433.878906 263.074219 429.558594 257.359375 C 424.015625 250.027344 415.652344 245.972656 406.875 245.972656 C 404.074219 245.972656 401.226562 246.386719 398.414062 247.242188 C 391.558594 249.324219 383.371094 247.59375 376.511719 242.609375 C 369.65625 237.625 365.480469 230.375 365.339844 223.210938 C 365.109375 211.085938 357.554688 200.6875 346.09375 196.71875 C 339.324219 194.375 333.71875 188.160156 331.097656 180.097656 C 328.476562 172.03125 329.359375 163.710938 333.460938 157.835938 C 340.398438 147.890625 340.398438 135.035156 333.457031 125.089844 Z M 450 224.429688 C 495.746094 224.429688 532.96875 187.210938 532.96875 141.464844 C 532.96875 95.714844 495.746094 58.496094 450 58.496094 C 404.25 58.496094 367.03125 95.714844 367.03125 141.464844 C 367.03125 187.210938 404.25 224.429688 450 224.429688 Z M 409.230469 135.289062 C 411.1875 133.277344 413.808594 132.171875 416.613281 132.171875 C 419.308594 132.171875 421.855469 133.203125 423.78125 135.078125 L 436.398438 147.378906 C 436.976562 147.941406 437.742188 148.253906 438.550781 148.253906 C 439.378906 148.253906 440.15625 147.929688 440.742188 147.339844 L 476.089844 111.65625 C 478.042969 109.703125 480.621094 108.628906 483.363281 108.621094 C 486.128906 108.621094 488.707031 109.6875 490.648438 111.617188 C 492.597656 113.558594 493.675781 116.136719 493.683594 118.886719 C 493.691406 121.636719 492.625 124.230469 490.675781 126.183594 L 446.019531 171.261719 C 444.074219 173.21875 441.480469 174.296875 438.714844 174.296875 C 436.015625 174.296875 433.46875 173.265625 431.542969 171.394531 L 409.429688 149.839844 C 405.367188 145.886719 405.273438 139.359375 409.230469 135.289062 Z M 409.230469 135.289062 " fill-opacity="1" fill-rule="nonzero"/></g></svg>