<?xml version="1.0" encoding="UTF-8" standalone="no" ?>
<!DOCTYPE svg PUBLIC "-//W3C//DTD SVG 1.1//EN" "http://www.w3.org/Graphics/SVG/1.1/DTD/svg11.dtd">
<svg xmlns="http://www.w3.org/2000/svg" xmlns:xlink="http://www.w3.org/1999/xlink" version="1.1" width="48" height="48" viewBox="0 0 48 48" xml:space="preserve">
<desc>Created with Fabric.js 5.2.4</desc>
<defs>
</defs>
<g transform="matrix(1 0 0 1 24 24)" id="15f75554-c6c2-4b73-9f67-88cd2625b82d"  >
<rect style="stroke: none; stroke-width: 1; stroke-dasharray: none; stroke-linecap: butt; stroke-dashoffset: 0; stroke-linejoin: miter; stroke-miterlimit: 4; fill: rgb(255,255,255); fill-rule: nonzero; opacity: 1;" vector-effect="non-scaling-stroke"  x="-24" y="-24" rx="0" ry="0" width="48" height="48" />
</g>
<g transform="matrix(0 0 0 0 0 0)" id="afa4cc61-7e61-4406-9a55-05ab1838f86e"  >
</g>
<g transform="matrix(0 0 0 0 43.82 0.5)"  >
<path style="stroke: none; stroke-width: 1; stroke-dasharray: none; stroke-linecap: butt; stroke-dashoffset: 0; stroke-linejoin: miter; stroke-miterlimit: 4; fill: rgb(236,151,6); fill-rule: nonzero; opacity: 1;" vector-effect="non-scaling-stroke"  transform=" translate(-293.17, -24.98)" d="M 27.56 20.32 C 27.56 24.240000000000002 24.36 27.44 20.4 27.44 L 18.599999999999998 27.44 L 27.519999999999996 40 L 21.439999999999998 40 L 12.479999999999997 27.48 L 12.479999999999997 27.44 L 12.479999999999997 27.44 L 12.479999999999997 22.48 L 20.4 22.48 C 21.599999999999998 22.48 22.599999999999998 21.52 22.599999999999998 20.32 L 22.599999999999998 17.08 C 22.599999999999998 15.879999999999999 21.599999999999998 14.919999999999998 20.4 14.919999999999998 L 7.439999999999998 14.919999999999998 L 7.439999999999998 40 L 7.319999999999998 40 L 2.4799999999999978 40 L 2.4799999999999978 9.96 L 20.4 9.96 C 24.36 9.96 27.56 13.16 27.56 17.080000000000002 L 27.56 20.32 z M 50.461 9.96 C 54.421 9.96 57.620999999999995 13.16 57.620999999999995 17.080000000000002 L 57.620999999999995 40 L 52.660999999999994 40 L 52.660999999999994 27.439999999999998 L 37.50099999999999 27.439999999999998 L 37.50099999999999 40 L 32.54099999999999 40 L 32.54099999999999 17.08 C 32.54099999999999 13.159999999999998 35.74099999999999 9.959999999999997 39.70099999999999 9.959999999999997 L 50.46099999999999 9.959999999999997 z M 37.501000000000005 22.48 L 52.661 22.48 L 52.661 17.08 C 52.661 15.879999999999999 51.661 14.919999999999998 50.461 14.919999999999998 L 39.701 14.919999999999998 C 38.501 14.919999999999998 37.501 15.879999999999999 37.501 17.08 L 37.501 22.479999999999997 z M 81.242 9.96 C 85.202 9.96 88.402 13.16 88.402 17.080000000000002 L 88.402 20.32 C 88.402 24.240000000000002 85.202 27.44 81.242 27.44 L 73.322 27.44 L 73.322 22.48 L 81.242 22.48 C 82.44200000000001 22.48 83.44200000000001 21.52 83.44200000000001 20.32 L 83.44200000000001 17.08 C 83.44200000000001 15.879999999999999 82.44200000000001 14.919999999999998 81.242 14.919999999999998 L 68.28200000000001 14.919999999999998 L 68.28200000000001 40 L 63.32200000000001 40 L 63.32200000000001 9.96 L 81.24200000000002 9.96 z M 98.423 40 L 93.46300000000001 40 L 93.46300000000001 9.96 L 98.423 9.96 L 98.423 40 z M 122.28399999999999 40 L 104.36399999999999 40 L 104.36399999999999 9.96 L 122.28399999999999 9.96 C 126.24399999999999 9.96 129.444 13.16 129.444 17.080000000000002 L 129.444 32.84 C 129.444 36.800000000000004 126.24399999999999 40 122.28399999999999 40 z M 109.324 35.04 L 122.28399999999999 35.04 C 123.484 35.04 124.484 34.04 124.484 32.839999999999996 L 124.484 17.08 C 124.484 15.879999999999999 123.484 14.919999999999998 122.28399999999999 14.919999999999998 L 109.32399999999998 14.919999999999998 L 109.32399999999998 35.04 z M 168.046 9.96 C 172.006 9.96 175.206 13.16 175.206 17.080000000000002 L 175.206 40 L 170.24599999999998 40 L 170.24599999999998 27.439999999999998 L 155.08599999999998 27.439999999999998 L 155.08599999999998 40 L 150.12599999999998 40 L 150.12599999999998 17.08 C 150.12599999999998 13.159999999999998 153.32599999999996 9.959999999999997 157.28599999999997 9.959999999999997 L 168.04599999999996 9.959999999999997 z M 155.08599999999998 22.48 L 170.24599999999998 22.48 L 170.24599999999998 17.08 C 170.24599999999998 15.879999999999999 169.24599999999998 14.919999999999998 168.046 14.919999999999998 L 157.286 14.919999999999998 C 156.086 14.919999999999998 155.086 15.879999999999999 155.086 17.08 L 155.086 22.479999999999997 z M 203.107 40 L 187.667 40 C 183.707 40 180.507 36.8 180.507 32.84 L 180.507 17.080000000000005 C 180.507 13.160000000000005 183.707 9.960000000000004 187.667 9.960000000000004 L 198.427 9.960000000000004 C 202.387 9.960000000000004 205.587 13.160000000000004 205.587 17.080000000000005 L 205.587 20.040000000000006 L 200.62699999999998 20.040000000000006 L 200.62699999999998 17.080000000000005 C 200.62699999999998 15.880000000000006 199.62699999999998 14.920000000000005 198.427 14.920000000000005 L 187.667 14.920000000000005 C 186.467 14.920000000000005 185.467 15.880000000000006 185.467 17.080000000000005 L 185.467 32.84 C 185.467 34.040000000000006 186.467 35.040000000000006 187.667 35.040000000000006 L 203.107 35.040000000000006 L 203.107 40.00000000000001 z M 233.088 40 L 217.648 40 C 213.688 40 210.488 36.8 210.488 32.84 L 210.488 17.080000000000005 C 210.488 13.160000000000005 213.688 9.960000000000004 217.648 9.960000000000004 L 228.408 9.960000000000004 C 232.368 9.960000000000004 235.56799999999998 13.160000000000004 235.56799999999998 17.080000000000005 L 235.56799999999998 20.040000000000006 L 230.60799999999998 20.040000000000006 L 230.60799999999998 17.080000000000005 C 230.60799999999998 15.880000000000006 229.60799999999998 14.920000000000005 228.408 14.920000000000005 L 217.648 14.920000000000005 C 216.448 14.920000000000005 215.448 15.880000000000006 215.448 17.080000000000005 L 215.448 32.84 C 215.448 34.040000000000006 216.448 35.040000000000006 217.648 35.040000000000006 L 233.088 35.040000000000006 L 233.088 40.00000000000001 z M 260.589 29.92 L 265.549 29.92 L 265.549 32.84 C 265.549 36.800000000000004 262.349 40 258.38899999999995 40 L 247.62899999999996 40 C 243.66899999999995 40 240.46899999999997 36.8 240.46899999999997 32.84 L 240.46899999999997 17.080000000000005 C 240.46899999999997 13.160000000000005 243.66899999999995 9.960000000000004 247.62899999999996 9.960000000000004 L 263.06899999999996 9.960000000000004 L 263.06899999999996 14.920000000000005 L 247.62899999999996 14.920000000000005 C 246.42899999999997 14.920000000000005 245.42899999999997 15.880000000000006 245.42899999999997 17.080000000000005 L 245.42899999999997 22.480000000000004 L 260.589 22.480000000000004 L 260.589 27.440000000000005 L 245.429 27.440000000000005 L 245.429 32.84 C 245.429 34.040000000000006 246.429 35.040000000000006 247.629 35.040000000000006 L 258.389 35.040000000000006 C 259.589 35.040000000000006 260.589 34.040000000000006 260.589 32.84 L 260.589 29.92 z M 277.68999999999994 14.920000000000002 C 276.48999999999995 14.920000000000002 275.48999999999995 15.880000000000003 275.48999999999995 17.080000000000002 L 275.48999999999995 22.480000000000004 L 295.60999999999996 22.480000000000004 L 295.60999999999996 32.84 C 295.60999999999996 36.800000000000004 292.40999999999997 40 288.44999999999993 40 L 270.5299999999999 40 L 270.5299999999999 35.04 L 288.44999999999993 35.04 C 289.6499999999999 35.04 290.6499999999999 34.04 290.6499999999999 32.839999999999996 L 290.6499999999999 27.439999999999998 L 270.5299999999999 27.439999999999998 L 270.5299999999999 17.08 C 270.5299999999999 13.159999999999998 273.7299999999999 9.959999999999997 277.68999999999994 9.959999999999997 L 295.60999999999996 9.959999999999997 L 295.60999999999996 14.919999999999998 L 277.68999999999994 14.919999999999998 z M 308.23099999999994 14.920000000000002 C 307.03099999999995 14.920000000000002 306.03099999999995 15.880000000000003 306.03099999999995 17.080000000000002 L 306.03099999999995 22.480000000000004 L 326.15099999999995 22.480000000000004 L 326.15099999999995 32.84 C 326.15099999999995 36.800000000000004 322.95099999999996 40 318.99099999999993 40 L 301.0709999999999 40 L 301.0709999999999 35.04 L 318.99099999999993 35.04 C 320.1909999999999 35.04 321.1909999999999 34.04 321.1909999999999 32.839999999999996 L 321.1909999999999 27.439999999999998 L 301.0709999999999 27.439999999999998 L 301.0709999999999 17.08 C 301.0709999999999 13.159999999999998 304.2709999999999 9.959999999999997 308.23099999999994 9.959999999999997 L 326.15099999999995 9.959999999999997 L 326.15099999999995 14.919999999999998 L 308.23099999999994 14.919999999999998 z M 365.1529999999999 9.96 C 369.1129999999999 9.96 372.31299999999993 13.16 372.31299999999993 17.080000000000002 L 372.31299999999993 20.32 C 372.31299999999993 24.240000000000002 369.11299999999994 27.44 365.1529999999999 27.44 L 357.2329999999999 27.44 L 357.2329999999999 22.48 L 365.1529999999999 22.48 C 366.3529999999999 22.48 367.3529999999999 21.52 367.3529999999999 20.32 L 367.3529999999999 17.08 C 367.3529999999999 15.879999999999999 366.3529999999999 14.919999999999998 365.1529999999999 14.919999999999998 L 352.1929999999999 14.919999999999998 L 352.1929999999999 40 L 347.23299999999995 40 L 347.23299999999995 9.96 L 365.15299999999996 9.96 z M 394.89399999999995 29.92 L 399.8539999999999 29.92 L 399.8539999999999 32.84 C 399.8539999999999 36.800000000000004 396.65399999999994 40 392.6939999999999 40 L 384.2939999999999 40 C 380.33399999999995 40 377.1339999999999 36.8 377.1339999999999 32.84 L 377.1339999999999 9.960000000000004 L 382.0939999999999 9.960000000000004 L 382.0939999999999 32.84 C 382.0939999999999 34.040000000000006 383.0939999999999 35.040000000000006 384.29399999999987 35.040000000000006 L 392.69399999999985 35.040000000000006 C 393.89399999999983 35.040000000000006 394.89399999999983 34.040000000000006 394.89399999999983 32.84 L 394.89399999999983 29.92 z M 422.195 9.96 C 426.155 9.96 429.355 13.16 429.355 17.080000000000002 L 429.355 40 L 424.39500000000004 40 L 424.39500000000004 27.439999999999998 L 409.235 27.439999999999998 L 409.235 40 L 404.27500000000003 40 L 404.27500000000003 17.08 C 404.27500000000003 13.159999999999998 407.475 9.959999999999997 411.43500000000006 9.959999999999997 L 422.19500000000005 9.959999999999997 z M 409.23499999999996 22.48 L 424.395 22.48 L 424.395 17.08 C 424.395 15.879999999999999 423.395 14.919999999999998 422.195 14.919999999999998 L 411.435 14.919999999999998 C 410.235 14.919999999999998 409.235 15.879999999999999 409.235 17.08 L 409.235 22.479999999999997 z M 456.736 9.96 L 456.736 14.920000000000002 L 447.856 14.920000000000002 L 447.856 40 L 442.896 40 L 442.896 14.920000000000002 L 434.016 14.920000000000002 L 434.016 9.96 L 456.736 9.96 z M 468.55699999999996 14.920000000000002 C 467.35699999999997 14.920000000000002 466.35699999999997 15.880000000000003 466.35699999999997 17.080000000000002 L 466.35699999999997 22.480000000000004 L 481.517 22.480000000000004 L 481.517 27.440000000000005 L 466.35699999999997 27.440000000000005 L 466.35699999999997 27.880000000000006 L 466.35699999999997 40.00000000000001 L 461.397 40.00000000000001 L 461.397 27.88000000000001 L 461.397 17.08000000000001 C 461.397 13.160000000000009 464.597 9.960000000000008 468.557 9.960000000000008 L 483.997 9.960000000000008 L 483.997 14.920000000000009 L 468.557 14.920000000000009 z M 506.33799999999997 40 L 495.578 40 C 491.618 40 488.41799999999995 36.8 488.41799999999995 32.84 L 488.41799999999995 17.080000000000005 C 488.41799999999995 13.160000000000005 491.61799999999994 9.960000000000004 495.578 9.960000000000004 L 506.33799999999997 9.960000000000004 C 510.29799999999994 9.960000000000004 513.4979999999999 13.160000000000004 513.4979999999999 17.080000000000005 L 513.4979999999999 32.84 C 513.4979999999999 36.800000000000004 510.29799999999994 40 506.3379999999999 40 z M 495.578 14.920000000000002 C 494.378 14.920000000000002 493.378 15.880000000000003 493.378 17.080000000000002 L 493.378 32.84 C 493.378 34.040000000000006 494.378 35.040000000000006 495.578 35.040000000000006 L 506.33799999999997 35.040000000000006 C 507.53799999999995 35.040000000000006 508.53799999999995 34.040000000000006 508.53799999999995 32.84 L 508.53799999999995 17.080000000000005 C 508.53799999999995 15.880000000000006 507.53799999999995 14.920000000000005 506.33799999999997 14.920000000000005 L 495.578 14.920000000000005 z M 544.1189999999999 20.32 C 544.1189999999999 24.240000000000002 540.9189999999999 27.44 536.959 27.44 L 535.159 27.44 L 544.079 40 L 537.9989999999999 40 L 529.0389999999999 27.48 L 529.0389999999999 27.44 L 529.0389999999999 27.44 L 529.0389999999999 22.48 L 536.9589999999998 22.48 C 538.1589999999999 22.48 539.1589999999999 21.52 539.1589999999999 20.32 L 539.1589999999999 17.08 C 539.1589999999999 15.879999999999999 538.1589999999999 14.919999999999998 536.9589999999998 14.919999999999998 L 523.9989999999998 14.919999999999998 L 523.9989999999998 40 L 523.8789999999998 40 L 519.0389999999998 40 L 519.0389999999998 9.96 L 536.9589999999997 9.96 C 540.9189999999998 9.96 544.1189999999997 13.16 544.1189999999997 17.080000000000002 L 544.1189999999997 20.32 z M 576.7 9.96 C 580.6600000000001 9.96 583.86 13.16 583.86 17.080000000000002 L 583.86 40 L 578.9 40 L 578.9 17.08 C 578.9 15.879999999999999 577.9 14.919999999999998 576.6999999999999 14.919999999999998 L 571.14 14.919999999999998 C 569.9399999999999 14.919999999999998 568.98 15.879999999999999 568.98 17.08 L 568.98 35.04 L 563.98 35.04 L 563.98 17.08 C 563.98 15.879999999999999 563.02 14.919999999999998 561.82 14.919999999999998 L 556.2600000000001 14.919999999999998 C 555.0600000000001 14.919999999999998 554.0600000000001 15.879999999999999 554.0600000000001 17.08 L 554.0600000000001 40 L 549.1 40 L 549.1 17.08 C 549.1 13.159999999999998 552.3000000000001 9.959999999999997 556.26 9.959999999999997 L 561.8199999999999 9.959999999999997 C 563.5799999999999 9.959999999999997 565.2199999999999 10.599999999999998 566.4999999999999 11.679999999999998 C 567.7399999999999 10.599999999999998 569.3799999999999 9.959999999999997 571.1399999999999 9.959999999999997 L 576.6999999999998 9.959999999999997 z" stroke-linecap="round" />
</g>
<g transform="matrix(0 0 0 0 43.82 0.5)"  >
<path style="stroke: none; stroke-width: 1; stroke-dasharray: none; stroke-linecap: butt; stroke-dashoffset: 0; stroke-linejoin: miter; stroke-miterlimit: 4; fill: rgb(236,151,6); fill-rule: nonzero; opacity: 1;" vector-effect="non-scaling-stroke"  transform=" translate(-293.17, -24.98)" d="M 27.56 20.32 C 27.56 24.240000000000002 24.36 27.44 20.4 27.44 L 18.599999999999998 27.44 L 27.519999999999996 40 L 21.439999999999998 40 L 12.479999999999997 27.48 L 12.479999999999997 27.44 L 12.479999999999997 27.44 L 12.479999999999997 22.48 L 20.4 22.48 C 21.599999999999998 22.48 22.599999999999998 21.52 22.599999999999998 20.32 L 22.599999999999998 17.08 C 22.599999999999998 15.879999999999999 21.599999999999998 14.919999999999998 20.4 14.919999999999998 L 7.439999999999998 14.919999999999998 L 7.439999999999998 40 L 7.319999999999998 40 L 2.4799999999999978 40 L 2.4799999999999978 9.96 L 20.4 9.96 C 24.36 9.96 27.56 13.16 27.56 17.080000000000002 L 27.56 20.32 z M 50.461 9.96 C 54.421 9.96 57.620999999999995 13.16 57.620999999999995 17.080000000000002 L 57.620999999999995 40 L 52.660999999999994 40 L 52.660999999999994 27.439999999999998 L 37.50099999999999 27.439999999999998 L 37.50099999999999 40 L 32.54099999999999 40 L 32.54099999999999 17.08 C 32.54099999999999 13.159999999999998 35.74099999999999 9.959999999999997 39.70099999999999 9.959999999999997 L 50.46099999999999 9.959999999999997 z M 37.501000000000005 22.48 L 52.661 22.48 L 52.661 17.08 C 52.661 15.879999999999999 51.661 14.919999999999998 50.461 14.919999999999998 L 39.701 14.919999999999998 C 38.501 14.919999999999998 37.501 15.879999999999999 37.501 17.08 L 37.501 22.479999999999997 z M 81.242 9.96 C 85.202 9.96 88.402 13.16 88.402 17.080000000000002 L 88.402 20.32 C 88.402 24.240000000000002 85.202 27.44 81.242 27.44 L 73.322 27.44 L 73.322 22.48 L 81.242 22.48 C 82.44200000000001 22.48 83.44200000000001 21.52 83.44200000000001 20.32 L 83.44200000000001 17.08 C 83.44200000000001 15.879999999999999 82.44200000000001 14.919999999999998 81.242 14.919999999999998 L 68.28200000000001 14.919999999999998 L 68.28200000000001 40 L 63.32200000000001 40 L 63.32200000000001 9.96 L 81.24200000000002 9.96 z M 98.423 40 L 93.46300000000001 40 L 93.46300000000001 9.96 L 98.423 9.96 L 98.423 40 z M 122.28399999999999 40 L 104.36399999999999 40 L 104.36399999999999 9.96 L 122.28399999999999 9.96 C 126.24399999999999 9.96 129.444 13.16 129.444 17.080000000000002 L 129.444 32.84 C 129.444 36.800000000000004 126.24399999999999 40 122.28399999999999 40 z M 109.324 35.04 L 122.28399999999999 35.04 C 123.484 35.04 124.484 34.04 124.484 32.839999999999996 L 124.484 17.08 C 124.484 15.879999999999999 123.484 14.919999999999998 122.28399999999999 14.919999999999998 L 109.32399999999998 14.919999999999998 L 109.32399999999998 35.04 z M 168.046 9.96 C 172.006 9.96 175.206 13.16 175.206 17.080000000000002 L 175.206 40 L 170.24599999999998 40 L 170.24599999999998 27.439999999999998 L 155.08599999999998 27.439999999999998 L 155.08599999999998 40 L 150.12599999999998 40 L 150.12599999999998 17.08 C 150.12599999999998 13.159999999999998 153.32599999999996 9.959999999999997 157.28599999999997 9.959999999999997 L 168.04599999999996 9.959999999999997 z M 155.08599999999998 22.48 L 170.24599999999998 22.48 L 170.24599999999998 17.08 C 170.24599999999998 15.879999999999999 169.24599999999998 14.919999999999998 168.046 14.919999999999998 L 157.286 14.919999999999998 C 156.086 14.919999999999998 155.086 15.879999999999999 155.086 17.08 L 155.086 22.479999999999997 z M 203.107 40 L 187.667 40 C 183.707 40 180.507 36.8 180.507 32.84 L 180.507 17.080000000000005 C 180.507 13.160000000000005 183.707 9.960000000000004 187.667 9.960000000000004 L 198.427 9.960000000000004 C 202.387 9.960000000000004 205.587 13.160000000000004 205.587 17.080000000000005 L 205.587 20.040000000000006 L 200.62699999999998 20.040000000000006 L 200.62699999999998 17.080000000000005 C 200.62699999999998 15.880000000000006 199.62699999999998 14.920000000000005 198.427 14.920000000000005 L 187.667 14.920000000000005 C 186.467 14.920000000000005 185.467 15.880000000000006 185.467 17.080000000000005 L 185.467 32.84 C 185.467 34.040000000000006 186.467 35.040000000000006 187.667 35.040000000000006 L 203.107 35.040000000000006 L 203.107 40.00000000000001 z M 233.088 40 L 217.648 40 C 213.688 40 210.488 36.8 210.488 32.84 L 210.488 17.080000000000005 C 210.488 13.160000000000005 213.688 9.960000000000004 217.648 9.960000000000004 L 228.408 9.960000000000004 C 232.368 9.960000000000004 235.56799999999998 13.160000000000004 235.56799999999998 17.080000000000005 L 235.56799999999998 20.040000000000006 L 230.60799999999998 20.040000000000006 L 230.60799999999998 17.080000000000005 C 230.60799999999998 15.880000000000006 229.60799999999998 14.920000000000005 228.408 14.920000000000005 L 217.648 14.920000000000005 C 216.448 14.920000000000005 215.448 15.880000000000006 215.448 17.080000000000005 L 215.448 32.84 C 215.448 34.040000000000006 216.448 35.040000000000006 217.648 35.040000000000006 L 233.088 35.040000000000006 L 233.088 40.00000000000001 z M 260.589 29.92 L 265.549 29.92 L 265.549 32.84 C 265.549 36.800000000000004 262.349 40 258.38899999999995 40 L 247.62899999999996 40 C 243.66899999999995 40 240.46899999999997 36.8 240.46899999999997 32.84 L 240.46899999999997 17.080000000000005 C 240.46899999999997 13.160000000000005 243.66899999999995 9.960000000000004 247.62899999999996 9.960000000000004 L 263.06899999999996 9.960000000000004 L 263.06899999999996 14.920000000000005 L 247.62899999999996 14.920000000000005 C 246.42899999999997 14.920000000000005 245.42899999999997 15.880000000000006 245.42899999999997 17.080000000000005 L 245.42899999999997 22.480000000000004 L 260.589 22.480000000000004 L 260.589 27.440000000000005 L 245.429 27.440000000000005 L 245.429 32.84 C 245.429 34.040000000000006 246.429 35.040000000000006 247.629 35.040000000000006 L 258.389 35.040000000000006 C 259.589 35.040000000000006 260.589 34.040000000000006 260.589 32.84 L 260.589 29.92 z M 277.68999999999994 14.920000000000002 C 276.48999999999995 14.920000000000002 275.48999999999995 15.880000000000003 275.48999999999995 17.080000000000002 L 275.48999999999995 22.480000000000004 L 295.60999999999996 22.480000000000004 L 295.60999999999996 32.84 C 295.60999999999996 36.800000000000004 292.40999999999997 40 288.44999999999993 40 L 270.5299999999999 40 L 270.5299999999999 35.04 L 288.44999999999993 35.04 C 289.6499999999999 35.04 290.6499999999999 34.04 290.6499999999999 32.839999999999996 L 290.6499999999999 27.439999999999998 L 270.5299999999999 27.439999999999998 L 270.5299999999999 17.08 C 270.5299999999999 13.159999999999998 273.7299999999999 9.959999999999997 277.68999999999994 9.959999999999997 L 295.60999999999996 9.959999999999997 L 295.60999999999996 14.919999999999998 L 277.68999999999994 14.919999999999998 z M 308.23099999999994 14.920000000000002 C 307.03099999999995 14.920000000000002 306.03099999999995 15.880000000000003 306.03099999999995 17.080000000000002 L 306.03099999999995 22.480000000000004 L 326.15099999999995 22.480000000000004 L 326.15099999999995 32.84 C 326.15099999999995 36.800000000000004 322.95099999999996 40 318.99099999999993 40 L 301.0709999999999 40 L 301.0709999999999 35.04 L 318.99099999999993 35.04 C 320.1909999999999 35.04 321.1909999999999 34.04 321.1909999999999 32.839999999999996 L 321.1909999999999 27.439999999999998 L 301.0709999999999 27.439999999999998 L 301.0709999999999 17.08 C 301.0709999999999 13.159999999999998 304.2709999999999 9.959999999999997 308.23099999999994 9.959999999999997 L 326.15099999999995 9.959999999999997 L 326.15099999999995 14.919999999999998 L 308.23099999999994 14.919999999999998 z M 365.1529999999999 9.96 C 369.1129999999999 9.96 372.31299999999993 13.16 372.31299999999993 17.080000000000002 L 372.31299999999993 20.32 C 372.31299999999993 24.240000000000002 369.11299999999994 27.44 365.1529999999999 27.44 L 357.2329999999999 27.44 L 357.2329999999999 22.48 L 365.1529999999999 22.48 C 366.3529999999999 22.48 367.3529999999999 21.52 367.3529999999999 20.32 L 367.3529999999999 17.08 C 367.3529999999999 15.879999999999999 366.3529999999999 14.919999999999998 365.1529999999999 14.919999999999998 L 352.1929999999999 14.919999999999998 L 352.1929999999999 40 L 347.23299999999995 40 L 347.23299999999995 9.96 L 365.15299999999996 9.96 z M 394.89399999999995 29.92 L 399.8539999999999 29.92 L 399.8539999999999 32.84 C 399.8539999999999 36.800000000000004 396.65399999999994 40 392.6939999999999 40 L 384.2939999999999 40 C 380.33399999999995 40 377.1339999999999 36.8 377.1339999999999 32.84 L 377.1339999999999 9.960000000000004 L 382.0939999999999 9.960000000000004 L 382.0939999999999 32.84 C 382.0939999999999 34.040000000000006 383.0939999999999 35.040000000000006 384.29399999999987 35.040000000000006 L 392.69399999999985 35.040000000000006 C 393.89399999999983 35.040000000000006 394.89399999999983 34.040000000000006 394.89399999999983 32.84 L 394.89399999999983 29.92 z M 422.195 9.96 C 426.155 9.96 429.355 13.16 429.355 17.080000000000002 L 429.355 40 L 424.39500000000004 40 L 424.39500000000004 27.439999999999998 L 409.235 27.439999999999998 L 409.235 40 L 404.27500000000003 40 L 404.27500000000003 17.08 C 404.27500000000003 13.159999999999998 407.475 9.959999999999997 411.43500000000006 9.959999999999997 L 422.19500000000005 9.959999999999997 z M 409.23499999999996 22.48 L 424.395 22.48 L 424.395 17.08 C 424.395 15.879999999999999 423.395 14.919999999999998 422.195 14.919999999999998 L 411.435 14.919999999999998 C 410.235 14.919999999999998 409.235 15.879999999999999 409.235 17.08 L 409.235 22.479999999999997 z M 456.736 9.96 L 456.736 14.920000000000002 L 447.856 14.920000000000002 L 447.856 40 L 442.896 40 L 442.896 14.920000000000002 L 434.016 14.920000000000002 L 434.016 9.96 L 456.736 9.96 z M 468.55699999999996 14.920000000000002 C 467.35699999999997 14.920000000000002 466.35699999999997 15.880000000000003 466.35699999999997 17.080000000000002 L 466.35699999999997 22.480000000000004 L 481.517 22.480000000000004 L 481.517 27.440000000000005 L 466.35699999999997 27.440000000000005 L 466.35699999999997 27.880000000000006 L 466.35699999999997 40.00000000000001 L 461.397 40.00000000000001 L 461.397 27.88000000000001 L 461.397 17.08000000000001 C 461.397 13.160000000000009 464.597 9.960000000000008 468.557 9.960000000000008 L 483.997 9.960000000000008 L 483.997 14.920000000000009 L 468.557 14.920000000000009 z M 506.33799999999997 40 L 495.578 40 C 491.618 40 488.41799999999995 36.8 488.41799999999995 32.84 L 488.41799999999995 17.080000000000005 C 488.41799999999995 13.160000000000005 491.61799999999994 9.960000000000004 495.578 9.960000000000004 L 506.33799999999997 9.960000000000004 C 510.29799999999994 9.960000000000004 513.4979999999999 13.160000000000004 513.4979999999999 17.080000000000005 L 513.4979999999999 32.84 C 513.4979999999999 36.800000000000004 510.29799999999994 40 506.3379999999999 40 z M 495.578 14.920000000000002 C 494.378 14.920000000000002 493.378 15.880000000000003 493.378 17.080000000000002 L 493.378 32.84 C 493.378 34.040000000000006 494.378 35.040000000000006 495.578 35.040000000000006 L 506.33799999999997 35.040000000000006 C 507.53799999999995 35.040000000000006 508.53799999999995 34.040000000000006 508.53799999999995 32.84 L 508.53799999999995 17.080000000000005 C 508.53799999999995 15.880000000000006 507.53799999999995 14.920000000000005 506.33799999999997 14.920000000000005 L 495.578 14.920000000000005 z M 544.1189999999999 20.32 C 544.1189999999999 24.240000000000002 540.9189999999999 27.44 536.959 27.44 L 535.159 27.44 L 544.079 40 L 537.9989999999999 40 L 529.0389999999999 27.48 L 529.0389999999999 27.44 L 529.0389999999999 27.44 L 529.0389999999999 22.48 L 536.9589999999998 22.48 C 538.1589999999999 22.48 539.1589999999999 21.52 539.1589999999999 20.32 L 539.1589999999999 17.08 C 539.1589999999999 15.879999999999999 538.1589999999999 14.919999999999998 536.9589999999998 14.919999999999998 L 523.9989999999998 14.919999999999998 L 523.9989999999998 40 L 523.8789999999998 40 L 519.0389999999998 40 L 519.0389999999998 9.96 L 536.9589999999997 9.96 C 540.9189999999998 9.96 544.1189999999997 13.16 544.1189999999997 17.080000000000002 L 544.1189999999997 20.32 z M 576.7 9.96 C 580.6600000000001 9.96 583.86 13.16 583.86 17.080000000000002 L 583.86 40 L 578.9 40 L 578.9 17.08 C 578.9 15.879999999999999 577.9 14.919999999999998 576.6999999999999 14.919999999999998 L 571.14 14.919999999999998 C 569.9399999999999 14.919999999999998 568.98 15.879999999999999 568.98 17.08 L 568.98 35.04 L 563.98 35.04 L 563.98 17.08 C 563.98 15.879999999999999 563.02 14.919999999999998 561.82 14.919999999999998 L 556.2600000000001 14.919999999999998 C 555.0600000000001 14.919999999999998 554.0600000000001 15.879999999999999 554.0600000000001 17.08 L 554.0600000000001 40 L 549.1 40 L 549.1 17.08 C 549.1 13.159999999999998 552.3000000000001 9.959999999999997 556.26 9.959999999999997 L 561.8199999999999 9.959999999999997 C 563.5799999999999 9.959999999999997 565.2199999999999 10.599999999999998 566.4999999999999 11.679999999999998 C 567.7399999999999 10.599999999999998 569.3799999999999 9.959999999999997 571.1399999999999 9.959999999999997 L 576.6999999999998 9.959999999999997 z" stroke-linecap="round" />
</g>
<g transform="matrix(0 0 0 0 43.82 0.5)"  >
<path style="stroke: none; stroke-width: 1; stroke-dasharray: none; stroke-linecap: butt; stroke-dashoffset: 0; stroke-linejoin: miter; stroke-miterlimit: 4; fill: rgb(236,151,6); fill-rule: nonzero; opacity: 1;" vector-effect="non-scaling-stroke"  transform=" translate(-293.17, -24.98)" d="M 27.56 20.32 C 27.56 24.240000000000002 24.36 27.44 20.4 27.44 L 18.599999999999998 27.44 L 27.519999999999996 40 L 21.439999999999998 40 L 12.479999999999997 27.48 L 12.479999999999997 27.44 L 12.479999999999997 27.44 L 12.479999999999997 22.48 L 20.4 22.48 C 21.599999999999998 22.48 22.599999999999998 21.52 22.599999999999998 20.32 L 22.599999999999998 17.08 C 22.599999999999998 15.879999999999999 21.599999999999998 14.919999999999998 20.4 14.919999999999998 L 7.439999999999998 14.919999999999998 L 7.439999999999998 40 L 7.319999999999998 40 L 2.4799999999999978 40 L 2.4799999999999978 9.96 L 20.4 9.96 C 24.36 9.96 27.56 13.16 27.56 17.080000000000002 L 27.56 20.32 z M 50.461 9.96 C 54.421 9.96 57.620999999999995 13.16 57.620999999999995 17.080000000000002 L 57.620999999999995 40 L 52.660999999999994 40 L 52.660999999999994 27.439999999999998 L 37.50099999999999 27.439999999999998 L 37.50099999999999 40 L 32.54099999999999 40 L 32.54099999999999 17.08 C 32.54099999999999 13.159999999999998 35.74099999999999 9.959999999999997 39.70099999999999 9.959999999999997 L 50.46099999999999 9.959999999999997 z M 37.501000000000005 22.48 L 52.661 22.48 L 52.661 17.08 C 52.661 15.879999999999999 51.661 14.919999999999998 50.461 14.919999999999998 L 39.701 14.919999999999998 C 38.501 14.919999999999998 37.501 15.879999999999999 37.501 17.08 L 37.501 22.479999999999997 z M 81.242 9.96 C 85.202 9.96 88.402 13.16 88.402 17.080000000000002 L 88.402 20.32 C 88.402 24.240000000000002 85.202 27.44 81.242 27.44 L 73.322 27.44 L 73.322 22.48 L 81.242 22.48 C 82.44200000000001 22.48 83.44200000000001 21.52 83.44200000000001 20.32 L 83.44200000000001 17.08 C 83.44200000000001 15.879999999999999 82.44200000000001 14.919999999999998 81.242 14.919999999999998 L 68.28200000000001 14.919999999999998 L 68.28200000000001 40 L 63.32200000000001 40 L 63.32200000000001 9.96 L 81.24200000000002 9.96 z M 98.423 40 L 93.46300000000001 40 L 93.46300000000001 9.96 L 98.423 9.96 L 98.423 40 z M 122.28399999999999 40 L 104.36399999999999 40 L 104.36399999999999 9.96 L 122.28399999999999 9.96 C 126.24399999999999 9.96 129.444 13.16 129.444 17.080000000000002 L 129.444 32.84 C 129.444 36.800000000000004 126.24399999999999 40 122.28399999999999 40 z M 109.324 35.04 L 122.28399999999999 35.04 C 123.484 35.04 124.484 34.04 124.484 32.839999999999996 L 124.484 17.08 C 124.484 15.879999999999999 123.484 14.919999999999998 122.28399999999999 14.919999999999998 L 109.32399999999998 14.919999999999998 L 109.32399999999998 35.04 z M 168.046 9.96 C 172.006 9.96 175.206 13.16 175.206 17.080000000000002 L 175.206 40 L 170.24599999999998 40 L 170.24599999999998 27.439999999999998 L 155.08599999999998 27.439999999999998 L 155.08599999999998 40 L 150.12599999999998 40 L 150.12599999999998 17.08 C 150.12599999999998 13.159999999999998 153.32599999999996 9.959999999999997 157.28599999999997 9.959999999999997 L 168.04599999999996 9.959999999999997 z M 155.08599999999998 22.48 L 170.24599999999998 22.48 L 170.24599999999998 17.08 C 170.24599999999998 15.879999999999999 169.24599999999998 14.919999999999998 168.046 14.919999999999998 L 157.286 14.919999999999998 C 156.086 14.919999999999998 155.086 15.879999999999999 155.086 17.08 L 155.086 22.479999999999997 z M 203.107 40 L 187.667 40 C 183.707 40 180.507 36.8 180.507 32.84 L 180.507 17.080000000000005 C 180.507 13.160000000000005 183.707 9.960000000000004 187.667 9.960000000000004 L 198.427 9.960000000000004 C 202.387 9.960000000000004 205.587 13.160000000000004 205.587 17.080000000000005 L 205.587 20.040000000000006 L 200.62699999999998 20.040000000000006 L 200.62699999999998 17.080000000000005 C 200.62699999999998 15.880000000000006 199.62699999999998 14.920000000000005 198.427 14.920000000000005 L 187.667 14.920000000000005 C 186.467 14.920000000000005 185.467 15.880000000000006 185.467 17.080000000000005 L 185.467 32.84 C 185.467 34.040000000000006 186.467 35.040000000000006 187.667 35.040000000000006 L 203.107 35.040000000000006 L 203.107 40.00000000000001 z M 233.088 40 L 217.648 40 C 213.688 40 210.488 36.8 210.488 32.84 L 210.488 17.080000000000005 C 210.488 13.160000000000005 213.688 9.960000000000004 217.648 9.960000000000004 L 228.408 9.960000000000004 C 232.368 9.960000000000004 235.56799999999998 13.160000000000004 235.56799999999998 17.080000000000005 L 235.56799999999998 20.040000000000006 L 230.60799999999998 20.040000000000006 L 230.60799999999998 17.080000000000005 C 230.60799999999998 15.880000000000006 229.60799999999998 14.920000000000005 228.408 14.920000000000005 L 217.648 14.920000000000005 C 216.448 14.920000000000005 215.448 15.880000000000006 215.448 17.080000000000005 L 215.448 32.84 C 215.448 34.040000000000006 216.448 35.040000000000006 217.648 35.040000000000006 L 233.088 35.040000000000006 L 233.088 40.00000000000001 z M 260.589 29.92 L 265.549 29.92 L 265.549 32.84 C 265.549 36.800000000000004 262.349 40 258.38899999999995 40 L 247.62899999999996 40 C 243.66899999999995 40 240.46899999999997 36.8 240.46899999999997 32.84 L 240.46899999999997 17.080000000000005 C 240.46899999999997 13.160000000000005 243.66899999999995 9.960000000000004 247.62899999999996 9.960000000000004 L 263.06899999999996 9.960000000000004 L 263.06899999999996 14.920000000000005 L 247.62899999999996 14.920000000000005 C 246.42899999999997 14.920000000000005 245.42899999999997 15.880000000000006 245.42899999999997 17.080000000000005 L 245.42899999999997 22.480000000000004 L 260.589 22.480000000000004 L 260.589 27.440000000000005 L 245.429 27.440000000000005 L 245.429 32.84 C 245.429 34.040000000000006 246.429 35.040000000000006 247.629 35.040000000000006 L 258.389 35.040000000000006 C 259.589 35.040000000000006 260.589 34.040000000000006 260.589 32.84 L 260.589 29.92 z M 277.68999999999994 14.920000000000002 C 276.48999999999995 14.920000000000002 275.48999999999995 15.880000000000003 275.48999999999995 17.080000000000002 L 275.48999999999995 22.480000000000004 L 295.60999999999996 22.480000000000004 L 295.60999999999996 32.84 C 295.60999999999996 36.800000000000004 292.40999999999997 40 288.44999999999993 40 L 270.5299999999999 40 L 270.5299999999999 35.04 L 288.44999999999993 35.04 C 289.6499999999999 35.04 290.6499999999999 34.04 290.6499999999999 32.839999999999996 L 290.6499999999999 27.439999999999998 L 270.5299999999999 27.439999999999998 L 270.5299999999999 17.08 C 270.5299999999999 13.159999999999998 273.7299999999999 9.959999999999997 277.68999999999994 9.959999999999997 L 295.60999999999996 9.959999999999997 L 295.60999999999996 14.919999999999998 L 277.68999999999994 14.919999999999998 z M 308.23099999999994 14.920000000000002 C 307.03099999999995 14.920000000000002 306.03099999999995 15.880000000000003 306.03099999999995 17.080000000000002 L 306.03099999999995 22.480000000000004 L 326.15099999999995 22.480000000000004 L 326.15099999999995 32.84 C 326.15099999999995 36.800000000000004 322.95099999999996 40 318.99099999999993 40 L 301.0709999999999 40 L 301.0709999999999 35.04 L 318.99099999999993 35.04 C 320.1909999999999 35.04 321.1909999999999 34.04 321.1909999999999 32.839999999999996 L 321.1909999999999 27.439999999999998 L 301.0709999999999 27.439999999999998 L 301.0709999999999 17.08 C 301.0709999999999 13.159999999999998 304.2709999999999 9.959999999999997 308.23099999999994 9.959999999999997 L 326.15099999999995 9.959999999999997 L 326.15099999999995 14.919999999999998 L 308.23099999999994 14.919999999999998 z M 365.1529999999999 9.96 C 369.1129999999999 9.96 372.31299999999993 13.16 372.31299999999993 17.080000000000002 L 372.31299999999993 20.32 C 372.31299999999993 24.240000000000002 369.11299999999994 27.44 365.1529999999999 27.44 L 357.2329999999999 27.44 L 357.2329999999999 22.48 L 365.1529999999999 22.48 C 366.3529999999999 22.48 367.3529999999999 21.52 367.3529999999999 20.32 L 367.3529999999999 17.08 C 367.3529999999999 15.879999999999999 366.3529999999999 14.919999999999998 365.1529999999999 14.919999999999998 L 352.1929999999999 14.919999999999998 L 352.1929999999999 40 L 347.23299999999995 40 L 347.23299999999995 9.96 L 365.15299999999996 9.96 z M 394.89399999999995 29.92 L 399.8539999999999 29.92 L 399.8539999999999 32.84 C 399.8539999999999 36.800000000000004 396.65399999999994 40 392.6939999999999 40 L 384.2939999999999 40 C 380.33399999999995 40 377.1339999999999 36.8 377.1339999999999 32.84 L 377.1339999999999 9.960000000000004 L 382.0939999999999 9.960000000000004 L 382.0939999999999 32.84 C 382.0939999999999 34.040000000000006 383.0939999999999 35.040000000000006 384.29399999999987 35.040000000000006 L 392.69399999999985 35.040000000000006 C 393.89399999999983 35.040000000000006 394.89399999999983 34.040000000000006 394.89399999999983 32.84 L 394.89399999999983 29.92 z M 422.195 9.96 C 426.155 9.96 429.355 13.16 429.355 17.080000000000002 L 429.355 40 L 424.39500000000004 40 L 424.39500000000004 27.439999999999998 L 409.235 27.439999999999998 L 409.235 40 L 404.27500000000003 40 L 404.27500000000003 17.08 C 404.27500000000003 13.159999999999998 407.475 9.959999999999997 411.43500000000006 9.959999999999997 L 422.19500000000005 9.959999999999997 z M 409.23499999999996 22.48 L 424.395 22.48 L 424.395 17.08 C 424.395 15.879999999999999 423.395 14.919999999999998 422.195 14.919999999999998 L 411.435 14.919999999999998 C 410.235 14.919999999999998 409.235 15.879999999999999 409.235 17.08 L 409.235 22.479999999999997 z M 456.736 9.96 L 456.736 14.920000000000002 L 447.856 14.920000000000002 L 447.856 40 L 442.896 40 L 442.896 14.920000000000002 L 434.016 14.920000000000002 L 434.016 9.96 L 456.736 9.96 z M 468.55699999999996 14.920000000000002 C 467.35699999999997 14.920000000000002 466.35699999999997 15.880000000000003 466.35699999999997 17.080000000000002 L 466.35699999999997 22.480000000000004 L 481.517 22.480000000000004 L 481.517 27.440000000000005 L 466.35699999999997 27.440000000000005 L 466.35699999999997 27.880000000000006 L 466.35699999999997 40.00000000000001 L 461.397 40.00000000000001 L 461.397 27.88000000000001 L 461.397 17.08000000000001 C 461.397 13.160000000000009 464.597 9.960000000000008 468.557 9.960000000000008 L 483.997 9.960000000000008 L 483.997 14.920000000000009 L 468.557 14.920000000000009 z M 506.33799999999997 40 L 495.578 40 C 491.618 40 488.41799999999995 36.8 488.41799999999995 32.84 L 488.41799999999995 17.080000000000005 C 488.41799999999995 13.160000000000005 491.61799999999994 9.960000000000004 495.578 9.960000000000004 L 506.33799999999997 9.960000000000004 C 510.29799999999994 9.960000000000004 513.4979999999999 13.160000000000004 513.4979999999999 17.080000000000005 L 513.4979999999999 32.84 C 513.4979999999999 36.800000000000004 510.29799999999994 40 506.3379999999999 40 z M 495.578 14.920000000000002 C 494.378 14.920000000000002 493.378 15.880000000000003 493.378 17.080000000000002 L 493.378 32.84 C 493.378 34.040000000000006 494.378 35.040000000000006 495.578 35.040000000000006 L 506.33799999999997 35.040000000000006 C 507.53799999999995 35.040000000000006 508.53799999999995 34.040000000000006 508.53799999999995 32.84 L 508.53799999999995 17.080000000000005 C 508.53799999999995 15.880000000000006 507.53799999999995 14.920000000000005 506.33799999999997 14.920000000000005 L 495.578 14.920000000000005 z M 544.1189999999999 20.32 C 544.1189999999999 24.240000000000002 540.9189999999999 27.44 536.959 27.44 L 535.159 27.44 L 544.079 40 L 537.9989999999999 40 L 529.0389999999999 27.48 L 529.0389999999999 27.44 L 529.0389999999999 27.44 L 529.0389999999999 22.48 L 536.9589999999998 22.48 C 538.1589999999999 22.48 539.1589999999999 21.52 539.1589999999999 20.32 L 539.1589999999999 17.08 C 539.1589999999999 15.879999999999999 538.1589999999999 14.919999999999998 536.9589999999998 14.919999999999998 L 523.9989999999998 14.919999999999998 L 523.9989999999998 40 L 523.8789999999998 40 L 519.0389999999998 40 L 519.0389999999998 9.96 L 536.9589999999997 9.96 C 540.9189999999998 9.96 544.1189999999997 13.16 544.1189999999997 17.080000000000002 L 544.1189999999997 20.32 z M 576.7 9.96 C 580.6600000000001 9.96 583.86 13.16 583.86 17.080000000000002 L 583.86 40 L 578.9 40 L 578.9 17.08 C 578.9 15.879999999999999 577.9 14.919999999999998 576.6999999999999 14.919999999999998 L 571.14 14.919999999999998 C 569.9399999999999 14.919999999999998 568.98 15.879999999999999 568.98 17.08 L 568.98 35.04 L 563.98 35.04 L 563.98 17.08 C 563.98 15.879999999999999 563.02 14.919999999999998 561.82 14.919999999999998 L 556.2600000000001 14.919999999999998 C 555.0600000000001 14.919999999999998 554.0600000000001 15.879999999999999 554.0600000000001 17.08 L 554.0600000000001 40 L 549.1 40 L 549.1 17.08 C 549.1 13.159999999999998 552.3000000000001 9.959999999999997 556.26 9.959999999999997 L 561.8199999999999 9.959999999999997 C 563.5799999999999 9.959999999999997 565.2199999999999 10.599999999999998 566.4999999999999 11.679999999999998 C 567.7399999999999 10.599999999999998 569.3799999999999 9.959999999999997 571.1399999999999 9.959999999999997 L 576.6999999999998 9.959999999999997 z" stroke-linecap="round" />
</g>
<g transform="matrix(0.02 0 0 0.02 17.59 15.88)"  >
<rect style="stroke: none; stroke-width: 1; stroke-dasharray: none; stroke-linecap: butt; stroke-dashoffset: 0; stroke-linejoin: miter; stroke-miterlimit: 4; fill: rgb(255,255,255); fill-opacity: 0; fill-rule: nonzero; opacity: 1;" vector-effect="non-scaling-stroke"  x="-50" y="-50" rx="0" ry="0" width="100" height="100" />
</g>
<g transform="matrix(0.02 0 0 0.02 27.39 25.68)"  >
<rect style="stroke: none; stroke-width: 1; stroke-dasharray: none; stroke-linecap: butt; stroke-dashoffset: 0; stroke-linejoin: miter; stroke-miterlimit: 4; fill: rgb(255,255,255); fill-rule: nonzero; opacity: 1; visibility: hidden;" vector-effect="non-scaling-stroke"  x="-540" y="-540" rx="0" ry="0" width="1080" height="1080" />
</g>
<g transform="matrix(0.14 0 0 0.14 22.05 22.9)"  >
<polygon style="stroke: none; stroke-width: 1; stroke-dasharray: none; stroke-linecap: butt; stroke-dashoffset: 0; stroke-linejoin: miter; stroke-miterlimit: 4; fill: none; fill-rule: evenodd; opacity: 1;" vector-effect="non-scaling-stroke"  points="-1.55,16.74 1.55,13.64 1.55,-16.74 -1.55,-16.74 " />
</g>
<g transform="matrix(0.14 0 0 0.14 22.17 20.97)"  >
<path style="stroke: none; stroke-width: 1; stroke-dasharray: none; stroke-linecap: butt; stroke-dashoffset: 0; stroke-linejoin: miter; stroke-miterlimit: 4; fill: none; fill-rule: evenodd; opacity: 1;" vector-effect="non-scaling-stroke"  transform=" translate(-29.24, -19.12)" d="M 26.87 16.18 C 26.87 16.18 26.82 16.22 26.84 16.25 L 31.17 22.05 C 31.17 22.05 31.24 22.07 31.25 22.05 C 32.01 20.46 31.71 18.4 30.01 16.81 C 29.57 16.4 28.98 16.19 28.38 16.19 L 26.87 16.19 L 26.87 16.18 Z" stroke-linecap="round" />
</g>
<g transform="matrix(0.14 0 0 0.14 22.07 21.12)"  >
<polygon style="stroke: none; stroke-width: 1; stroke-dasharray: none; stroke-linecap: butt; stroke-dashoffset: 0; stroke-linejoin: miter; stroke-miterlimit: 4; fill: none; fill-rule: evenodd; opacity: 1;" vector-effect="non-scaling-stroke"  points="-1.71,4.01 1.71,0.58 -1.71,-4.01 " />
</g>
<g transform="matrix(0.81 0 0 0.81 26.88 24.22)"  >
<path style="stroke: none; stroke-width: 1; stroke-dasharray: none; stroke-linecap: butt; stroke-dashoffset: 0; stroke-linejoin: miter; stroke-miterlimit: 4; fill: rgb(0,49,82); fill-rule: nonzero; opacity: 1;" vector-effect="non-scaling-stroke"  transform=" translate(-26.2, -25.29)" d="M 52.41 50.51 L 49.99 47.26 L 41.61 36.03 C 46 32.06 48.5 26.44 48.5 20.5 C 48.5 14.56 46.19 9.41 42.17 5.55 C 38.21 1.77 33 -0.2 27.53 0.02 L 3.31 0.02 L 3.31 0 L 0 0 L 0 14.45 L 0 14.45 L 0 50.1 C 0 50.36 0.21 50.57 0.47 50.57 L 7.07 50.57 L 21.54 36.1 L 23.4 38.61 L 11.44 50.58 L 16.12 50.58 L 25.41 41.29 L 27.27 43.8 L 20.5 50.58 L 25.18 50.58 L 29.24 46.52 C 29.24 46.52 29.29 46.5 29.31 46.52 L 29.87 47.27 L 30.49 48.11 C 31.64 49.66 33.47 50.58 35.41 50.58 L 52.36 50.58 C 52.36 50.58 52.42 50.53 52.4 50.51 L 52.41 50.51 Z M 3.31 3.33 L 27.64 3.33 C 32.22 3.13 36.57 4.78 39.88 7.95 C 43.26 11.19 45.2 15.77 45.2 20.51 C 45.2 24.59 43.8 28.49 41.27 31.6 C 40.48 32.57 39.01 32.55 38.27 31.55 C 38.02 31.22 37.9 30.83 37.9 30.43 C 37.9 29.98 38.06 29.51 38.39 29.15 C 40.63 26.64 41.89 23.38 41.89 19.98 C 41.89 16.22 40.42 12.74 37.74 10.15 C 35.14 7.63 31.71 6.32 28.08 6.44 L 3.31 6.44 L 3.31 3.33 Z M 6.41 46.56 L 3.3 49.66 L 3.3 16.18 L 6.41 16.18 L 6.41 46.57 L 6.41 46.56 Z M 3.31 12.87 L 3.31 9.76 L 28.12 9.76 L 28.73 9.74 C 29.77 9.69 30.82 9.83 31.79 10.21 C 36.1 11.92 38.6 15.73 38.6 19.99 C 38.6 22.1 37.97 24.14 36.8 25.85 C 36.16 26.81 34.74 26.82 34.05 25.89 C 33.83 25.6 33.72 25.25 33.72 24.9 C 33.72 24.59 33.81 24.28 33.97 24 C 35.51 21.33 35.36 17.75 32.78 14.84 C 31.67 13.59 30.06 12.88 28.39 12.88 L 3.31 12.88 L 3.31 12.87 Z M 31.24 22.03 C 31.24 22.03 31.18 22.07 31.16 22.03 L 26.83 16.23 C 26.83 16.23 26.83 16.16 26.86 16.16 L 28.37 16.16 C 28.97 16.16 29.55 16.38 30 16.78 C 31.7 18.36 32 20.42 31.24 22.02 L 31.24 22.03 Z M 12.81 40.14 C 12.81 40.14 12.81 40.17 12.81 40.17 L 9.72 43.26 L 9.72 20.25 L 12.81 24.4 C 12.81 24.4 12.81 24.4 12.81 24.42 L 12.81 40.14 Z M 16.12 36.86 L 16.12 28.84 L 19.55 33.43 L 16.12 36.86 Z M 33.99 47.27 L 10.8 16.18 L 14.64 16.18 C 14.64 16.18 14.67 16.18 14.68 16.2 L 37.86 47.27 L 33.99 47.27 Z M 41.99 47.27 L 18.8 16.18 L 22.63 16.18 C 22.63 16.18 22.66 16.18 22.67 16.2 L 45.85 47.27 L 41.99 47.27 Z" stroke-linecap="round" />
</g>
</svg>