<svg xmlns="http://www.w3.org/2000/svg" xmlns:xlink="http://www.w3.org/1999/xlink" width="1200" zoomAndPan="magnify" viewBox="0 0 900 525.000007" height="700" preserveAspectRatio="xMidYMid meet" version="1.0"><path fill="#003152" d="M 440.601562 93.21875 C 416.691406 92.457031 393.777344 88.800781 372.347656 82.664062 C 371.859375 82.527344 371.355469 82.726562 371.097656 83.160156 C 357.40625 106.09375 347.308594 131.132812 341.457031 157.574219 C 341.210938 158.6875 340.410156 165.417969 339.746094 170.867188 C 339.679688 171.425781 339.207031 171.839844 338.644531 171.835938 C 333.558594 171.789062 328.671875 172.71875 324.152344 174.492188 C 323.785156 174.636719 323.402344 174.585938 323.089844 174.347656 C 322.773438 174.113281 322.617188 173.757812 322.652344 173.367188 C 323.148438 168.015625 323.707031 161.871094 323.886719 160.941406 C 329.5625 131.601562 340.140625 103.761719 354.800781 78.335938 C 354.96875 78.046875 354.996094 77.726562 354.882812 77.410156 C 354.765625 77.09375 354.542969 76.867188 354.226562 76.753906 C 338.847656 71.097656 324.464844 64.117188 311.328125 56.007812 C 310.890625 55.738281 310.339844 55.800781 309.976562 56.164062 C 308.640625 57.484375 307.320312 58.828125 306.019531 60.191406 C 273.277344 94.445312 251.609375 140.3125 247.101562 191.410156 C 247.09375 191.539062 247.101562 191.648438 247.132812 191.773438 L 260.800781 246.453125 C 263.257812 256.273438 271.59375 270.953125 277.90625 278.917969 L 278.707031 279.902344 C 278.753906 279.800781 278.804688 279.695312 278.855469 279.589844 L 291.171875 288.347656 C 291.488281 288.570312 291.871094 288.613281 292.234375 288.464844 C 292.59375 288.316406 292.832031 288.015625 292.898438 287.628906 C 298.511719 254.054688 338.578125 237.265625 366.425781 258.921875 C 373.710938 264.585938 379.269531 272.371094 382.132812 281.324219 C 382.207031 281.546875 382.207031 281.761719 382.136719 281.988281 C 380.046875 288.660156 378.917969 295.746094 378.917969 303.085938 L 378.917969 333.222656 C 378.917969 333.554688 379.050781 333.839844 379.304688 334.058594 L 393.628906 346.300781 C 393.964844 346.585938 394.40625 346.648438 394.804688 346.464844 C 395.207031 346.277344 395.445312 345.902344 395.445312 345.460938 L 395.445312 303.085938 C 395.445312 273.136719 419.980469 248.601562 449.929688 248.601562 C 479.878906 248.601562 504.414062 273.136719 504.414062 303.085938 L 504.414062 345.460938 C 504.414062 345.902344 504.65625 346.277344 505.054688 346.464844 C 505.453125 346.648438 505.898438 346.585938 506.230469 346.300781 L 520.554688 334.058594 C 520.808594 333.839844 520.941406 333.554688 520.941406 333.222656 L 520.941406 303.085938 C 520.941406 295.746094 519.816406 288.660156 517.726562 281.988281 C 517.65625 281.761719 517.65625 281.546875 517.726562 281.324219 C 520.59375 272.375 526.148438 264.585938 533.433594 258.921875 C 561.28125 237.265625 601.347656 254.054688 606.964844 287.628906 C 607.03125 288.015625 607.265625 288.316406 607.628906 288.464844 C 607.988281 288.613281 608.371094 288.570312 608.6875 288.347656 L 621.003906 279.589844 C 621.054688 279.695312 621.105469 279.800781 621.15625 279.902344 L 621.953125 278.917969 C 628.265625 270.953125 636.601562 256.273438 639.058594 246.453125 L 652.730469 191.773438 C 652.761719 191.648438 652.769531 191.539062 652.757812 191.410156 C 648.253906 140.3125 626.585938 94.445312 593.84375 60.191406 C 592.542969 58.828125 591.222656 57.488281 589.886719 56.164062 C 589.519531 55.800781 588.96875 55.738281 588.53125 56.007812 C 575.398438 64.117188 561.011719 71.097656 545.636719 76.753906 C 545.320312 76.867188 545.09375 77.097656 544.980469 77.410156 C 544.867188 77.726562 544.894531 78.046875 545.0625 78.335938 C 559.722656 103.761719 570.300781 131.601562 575.972656 160.941406 C 576.152344 161.871094 576.710938 168.015625 577.207031 173.367188 C 577.246094 173.757812 577.085938 174.113281 576.773438 174.347656 C 576.460938 174.585938 576.074219 174.636719 575.710938 174.492188 C 571.1875 172.71875 566.300781 171.789062 561.21875 171.835938 C 560.65625 171.839844 560.183594 171.425781 560.113281 170.867188 C 559.449219 165.417969 558.648438 158.6875 558.402344 157.574219 C 552.554688 131.132812 542.453125 106.09375 528.765625 83.160156 C 528.503906 82.726562 528.003906 82.527344 527.515625 82.664062 C 506.085938 88.800781 483.167969 92.457031 459.261719 93.21875 C 458.667969 93.234375 458.195312 93.722656 458.195312 94.320312 L 458.195312 161.171875 C 458.195312 161.503906 458.0625 161.792969 457.804688 162.011719 C 457.550781 162.226562 457.246094 162.3125 456.917969 162.257812 C 452.304688 161.511719 447.558594 161.511719 442.941406 162.257812 C 442.613281 162.3125 442.308594 162.226562 442.054688 162.011719 C 441.800781 161.792969 441.667969 161.503906 441.667969 161.171875 L 441.667969 94.320312 C 441.667969 93.722656 441.195312 93.234375 440.601562 93.21875 Z M 449.933594 232.070312 C 426.015625 232.070312 413.984375 203.023438 430.894531 186.113281 C 447.804688 169.199219 476.855469 181.234375 476.855469 205.148438 C 476.855469 220.019531 464.800781 232.070312 449.933594 232.070312 Z M 561.582031 232.714844 C 541.882812 232.714844 531.96875 208.789062 545.902344 194.855469 C 559.832031 180.925781 583.757812 190.839844 583.757812 210.539062 C 583.757812 222.785156 573.832031 232.714844 561.582031 232.714844 Z M 682.644531 140.269531 C 684.8125 131.59375 692.359375 125.703125 701.300781 125.703125 L 702.359375 125.703125 C 713.675781 125.703125 722.464844 135.253906 721.527344 146.53125 C 716.691406 204.542969 717.910156 300.386719 690.347656 349.65625 C 670.410156 385.296875 643.476562 397.621094 616.742188 426.671875 C 587.308594 458.65625 583.359375 473.050781 582.828125 506.425781 C 582.679688 515.949219 574.886719 523.617188 565.363281 523.617188 C 529.617188 523.617188 493.871094 523.617188 458.125 523.617188 C 457.515625 523.617188 457.023438 523.125 457.023438 522.515625 C 457.023438 497.207031 457.023438 471.894531 457.023438 446.582031 C 457.023438 422.109375 467.070312 401.046875 486.09375 385.648438 L 567.851562 319.464844 C 577.140625 311.945312 590.808594 313.210938 598.578125 322.179688 C 598.585938 322.191406 598.59375 322.199219 598.601562 322.207031 C 601.101562 325.28125 602.140625 328.796875 601.738281 332.605469 C 601.273438 337.023438 599.382812 339.554688 596.191406 342.355469 C 596.183594 342.363281 596.171875 342.375 596.160156 342.382812 L 525.082031 399.921875 C 521.550781 402.792969 521.015625 407.980469 523.886719 411.511719 C 526.757812 415.042969 531.945312 415.574219 535.476562 412.707031 L 607.0625 354.757812 C 620.0625 344.230469 622.097656 324.984375 611.535156 311.96875 C 611.355469 311.746094 611.167969 311.539062 610.96875 311.339844 L 610.988281 311.324219 L 610.863281 311.203125 L 632.246094 290.296875 C 643.902344 278.894531 651.136719 266.285156 655.09375 250.460938 Z M 459.960938 6.820312 C 482.425781 23.773438 502.042969 43.953125 518.019531 66.617188 C 518.234375 66.917969 518.28125 67.277344 518.152344 67.628906 C 518.027344 67.980469 517.757812 68.222656 517.398438 68.316406 C 499.101562 73.101562 479.613281 75.992188 459.335938 76.675781 C 459.023438 76.6875 458.753906 76.582031 458.53125 76.367188 C 458.308594 76.152344 458.195312 75.886719 458.195312 75.574219 L 458.195312 7.699219 C 458.195312 7.269531 458.421875 6.902344 458.808594 6.710938 C 459.191406 6.523438 459.621094 6.5625 459.960938 6.820312 Z M 575.140625 44.800781 C 563.175781 51.75 550.140625 57.730469 536.246094 62.578125 C 535.765625 62.746094 535.253906 62.574219 534.96875 62.152344 C 519.96875 39.863281 501.695312 19.722656 480.792969 2.332031 C 480.40625 2.011719 480.285156 1.488281 480.496094 1.027344 C 480.703125 0.570312 481.179688 0.316406 481.675781 0.398438 C 516.25 6.070312 548.304688 20.929688 575.285156 42.996094 C 575.574219 43.234375 575.714844 43.566406 575.6875 43.9375 C 575.65625 44.308594 575.464844 44.613281 575.140625 44.800781 Z M 338.28125 232.714844 C 326.03125 232.714844 316.105469 222.789062 316.105469 210.539062 C 316.105469 190.835938 340.03125 180.925781 353.964844 194.855469 C 367.894531 208.789062 357.984375 232.714844 338.28125 232.714844 Z M 217.222656 140.269531 L 244.769531 250.460938 C 248.726562 266.28125 255.960938 278.894531 267.621094 290.292969 L 289 311.199219 L 288.875 311.320312 L 288.894531 311.339844 C 288.695312 311.539062 288.507812 311.746094 288.328125 311.96875 C 277.765625 324.980469 279.804688 344.230469 292.804688 354.757812 L 364.386719 412.707031 C 367.917969 415.574219 373.109375 415.039062 375.976562 411.511719 C 378.847656 407.980469 378.3125 402.792969 374.78125 399.921875 L 303.703125 342.382812 C 303.691406 342.371094 303.683594 342.363281 303.671875 342.355469 C 300.484375 339.554688 298.589844 337.023438 298.125 332.601562 C 297.726562 328.796875 298.765625 325.277344 301.261719 322.207031 C 301.269531 322.195312 301.277344 322.1875 301.285156 322.179688 C 309.058594 313.210938 322.722656 311.941406 332.011719 319.460938 L 413.769531 385.648438 C 432.792969 401.046875 442.839844 422.109375 442.839844 446.582031 C 442.839844 471.894531 442.839844 497.203125 442.839844 522.515625 C 442.839844 523.121094 442.347656 523.617188 441.738281 523.617188 C 405.992188 523.617188 370.25 523.617188 334.503906 523.617188 C 324.976562 523.617188 317.1875 515.945312 317.035156 506.421875 C 316.503906 473.050781 312.558594 458.65625 283.125 426.671875 C 256.386719 397.617188 229.453125 385.296875 209.515625 349.65625 C 181.953125 300.386719 183.171875 204.542969 178.339844 146.527344 C 177.398438 135.253906 186.191406 125.699219 197.503906 125.699219 L 198.5625 125.699219 C 207.503906 125.699219 215.054688 131.59375 217.222656 140.269531 Z M 439.902344 6.820312 C 440.242188 6.5625 440.671875 6.519531 441.058594 6.710938 C 441.441406 6.902344 441.667969 7.269531 441.667969 7.699219 L 441.667969 75.578125 C 441.667969 75.886719 441.554688 76.152344 441.332031 76.371094 C 441.109375 76.585938 440.839844 76.6875 440.527344 76.679688 C 420.253906 75.992188 400.761719 73.101562 382.464844 68.316406 C 382.105469 68.222656 381.839844 67.980469 381.710938 67.628906 C 381.582031 67.28125 381.628906 66.921875 381.84375 66.617188 C 397.820312 43.953125 417.4375 23.773438 439.902344 6.820312 Z M 324.722656 44.800781 C 324.398438 44.613281 324.207031 44.308594 324.175781 43.9375 C 324.148438 43.566406 324.289062 43.234375 324.578125 42.996094 C 351.558594 20.929688 383.609375 6.070312 418.1875 0.398438 C 418.683594 0.316406 419.15625 0.570312 419.367188 1.027344 C 419.578125 1.484375 419.457031 2.007812 419.070312 2.332031 C 398.167969 19.722656 379.894531 39.859375 364.894531 62.152344 C 364.609375 62.574219 364.097656 62.746094 363.617188 62.578125 C 349.722656 57.730469 336.6875 51.75 324.722656 44.800781 Z M 324.722656 44.800781 " fill-opacity="1" fill-rule="evenodd"/></svg>