<svg xmlns="http://www.w3.org/2000/svg" xmlns:xlink="http://www.w3.org/1999/xlink" width="1200" zoomAndPan="magnify" viewBox="0 0 900 525.000007" height="700" preserveAspectRatio="xMidYMid meet" version="1.0"><defs><clipPath id="8161ede445"><path d="M 183.410156 6 L 716.394531 6 L 716.394531 524 L 183.410156 524 Z M 183.410156 6 " clip-rule="nonzero"/></clipPath></defs><g clip-path="url(#8161ede445)"><path fill="#ec9707" d="M 384.570312 535.230469 L 246.171875 536.445312 C 244.726562 536.660156 243.589844 537.96875 243.601562 539.433594 L 243.859375 566.386719 C 244.074219 567.824219 245.382812 568.964844 246.847656 568.953125 C 292.789062 568.539062 338.871094 568.160156 384.863281 567.769531 C 386.46875 567.757812 387.828125 566.355469 387.816406 564.75 L 387.558594 537.800781 C 387.34375 536.355469 386.035156 535.21875 384.570312 535.230469 Z M 618.085938 246.933594 C 624.125 246.734375 629 241.738281 629 235.648438 L 629 227.339844 L 546.015625 227.339844 L 546.015625 235.648438 C 546.015625 241.859375 551.097656 246.941406 557.308594 246.941406 L 557.6875 246.941406 L 557.6875 254.144531 L 535.847656 254.144531 C 530.777344 254.144531 526.664062 258.257812 526.664062 263.324219 L 526.664062 320.039062 C 519.84375 323.425781 515.160156 330.453125 515.160156 338.578125 C 515.160156 350.007812 524.421875 359.265625 535.847656 359.265625 C 547.273438 359.265625 556.53125 350.003906 556.53125 338.578125 C 556.53125 330.453125 551.847656 323.421875 545.027344 320.039062 L 545.027344 272.511719 L 569.265625 272.511719 L 569.265625 274.625 C 569.265625 280.832031 574.347656 285.914062 580.554688 285.914062 L 595.210938 285.914062 C 601.417969 285.914062 606.5 280.832031 606.5 274.625 L 606.5 267.125 L 606.789062 267.125 C 612.996094 267.125 618.078125 262.042969 618.078125 255.835938 L 618.078125 246.933594 Z M 489.378906 397.375 C 477.953125 397.375 468.695312 388.113281 468.695312 376.6875 C 468.695312 368.5625 473.378906 361.53125 480.199219 358.148438 L 480.199219 199.789062 C 480.199219 194.722656 484.3125 190.609375 489.378906 190.609375 L 541.886719 190.609375 C 533.886719 160.59375 518.015625 155.945312 518.015625 124.980469 C 518.015625 86.605469 549.128906 55.492188 587.503906 55.492188 C 625.882812 55.492188 656.992188 86.605469 656.992188 124.980469 C 656.992188 161.371094 635.082031 161.40625 629.773438 208.976562 L 608.683594 208.976562 L 608.683594 150.828125 L 615.652344 150.828125 C 629.601562 150.828125 640.988281 139.445312 640.988281 125.492188 C 640.988281 111.542969 629.601562 100.160156 615.652344 100.160156 C 601.699219 100.160156 590.316406 111.542969 590.316406 125.492188 L 590.316406 132.460938 L 584.691406 132.460938 L 584.691406 125.492188 C 584.691406 111.542969 573.308594 100.160156 559.359375 100.160156 C 545.40625 100.160156 534.023438 111.542969 534.023438 125.492188 C 534.023438 139.445312 545.40625 150.828125 559.359375 150.828125 L 566.324219 150.828125 L 566.324219 208.976562 L 498.554688 208.976562 L 498.554688 358.15625 C 505.375 361.542969 510.058594 368.570312 510.058594 376.695312 C 510.066406 388.113281 500.800781 397.375 489.378906 397.375 Z M 590.328125 208.972656 L 590.328125 150.824219 L 584.691406 150.824219 L 584.691406 208.972656 Z M 566.324219 132.453125 L 566.324219 125.488281 C 566.324219 121.675781 563.171875 118.519531 559.359375 118.519531 C 555.542969 118.519531 552.390625 121.675781 552.390625 125.488281 C 552.390625 129.300781 555.542969 132.453125 559.359375 132.453125 Z M 608.691406 132.453125 L 615.65625 132.453125 C 619.46875 132.453125 622.625 129.300781 622.625 125.488281 C 622.625 121.675781 619.46875 118.519531 615.65625 118.519531 C 611.84375 118.519531 608.691406 121.675781 608.691406 125.488281 Z M 355.703125 51.875 C 364.199219 53.898438 372.320312 57.269531 379.757812 61.847656 L 395.386719 54.90625 L 413.808594 73.328125 L 406.867188 88.960938 C 411.449219 96.402344 414.820312 104.519531 416.839844 113.019531 L 432.789062 119.15625 L 432.789062 145.210938 L 416.835938 151.355469 C 414.808594 159.851562 411.441406 167.972656 406.859375 175.40625 L 411.265625 185.328125 L 416.683594 185.328125 C 421.75 185.328125 425.863281 189.4375 425.863281 194.507812 L 425.863281 364.6875 C 432.683594 368.074219 437.367188 375.101562 437.367188 383.226562 C 437.367188 394.65625 428.109375 403.914062 416.683594 403.914062 C 405.257812 403.914062 395.996094 394.65625 395.996094 383.226562 C 395.996094 375.101562 400.679688 368.070312 407.5 364.6875 L 407.5 203.695312 L 401.152344 203.695312 L 395.378906 209.464844 L 382.386719 203.695312 L 377.785156 203.695312 C 373.363281 206.25 368.722656 208.390625 363.914062 210.082031 L 365.007812 210.082031 C 370.074219 210.082031 374.1875 214.195312 374.1875 219.261719 L 374.1875 285.160156 C 381.007812 288.542969 385.691406 295.574219 385.691406 303.699219 C 385.691406 315.125 376.433594 324.382812 365.007812 324.382812 C 353.582031 324.382812 344.320312 315.125 344.320312 303.699219 C 344.320312 295.574219 349.003906 288.539062 355.824219 285.160156 L 355.824219 228.445312 C 345.046875 228.445312 334.273438 228.445312 323.492188 228.445312 L 317.351562 212.492188 C 308.851562 210.464844 300.734375 207.097656 293.296875 202.515625 L 277.667969 209.460938 L 259.242188 191.035156 L 266.1875 175.40625 C 261.605469 167.964844 258.238281 159.84375 256.210938 151.347656 L 240.265625 145.210938 L 240.265625 119.15625 L 256.21875 113.019531 C 258.242188 104.519531 261.609375 96.402344 266.191406 88.960938 L 259.25 73.328125 L 277.671875 54.90625 L 293.300781 61.847656 C 300.738281 57.269531 308.859375 53.898438 317.355469 51.875 L 323.5 35.921875 L 349.554688 35.921875 Z M 336.535156 82.773438 C 309.242188 82.773438 287.121094 104.894531 287.121094 132.1875 C 287.121094 159.480469 309.242188 181.597656 336.535156 181.597656 C 363.828125 181.597656 385.949219 159.480469 385.949219 132.1875 C 385.941406 104.894531 363.828125 82.773438 336.535156 82.773438 Z M 596.691406 31.992188 C 596.691406 37.0625 592.578125 41.175781 587.511719 41.175781 C 582.441406 41.175781 578.328125 37.0625 578.328125 31.992188 L 578.328125 15.625 C 578.328125 10.558594 582.441406 6.445312 587.511719 6.445312 C 592.578125 6.445312 596.691406 10.558594 596.691406 15.625 Z M 647.847656 50.59375 L 656.035156 36.417969 C 658.550781 32.035156 657.042969 26.449219 652.664062 23.933594 C 648.28125 21.421875 642.695312 22.929688 640.179688 27.308594 L 631.996094 41.484375 C 629.480469 45.867188 630.988281 51.453125 635.367188 53.96875 C 639.742188 56.480469 645.335938 54.972656 647.847656 50.59375 Z M 682.882812 92.332031 C 678.503906 94.871094 672.898438 93.375 670.367188 88.996094 C 667.828125 84.617188 669.324219 79.007812 673.703125 76.476562 L 687.878906 68.289062 C 692.261719 65.753906 697.867188 67.246094 700.398438 71.628906 C 702.9375 76.007812 701.441406 81.613281 697.0625 84.144531 Z M 501.320312 76.476562 L 487.140625 68.289062 C 482.761719 65.753906 477.15625 67.246094 474.625 71.628906 C 472.085938 76.007812 473.582031 81.613281 477.960938 84.144531 L 492.136719 92.332031 C 496.519531 94.871094 502.125 93.375 504.65625 88.996094 C 507.191406 84.621094 505.699219 79.015625 501.320312 76.476562 Z M 543.027344 41.449219 L 534.839844 27.273438 C 532.300781 22.890625 526.695312 21.398438 522.320312 23.933594 C 517.941406 26.472656 516.449219 32.078125 518.984375 36.453125 L 527.171875 50.628906 C 529.710938 55.011719 535.316406 56.503906 539.691406 53.96875 C 544.0625 51.429688 545.558594 45.824219 543.027344 41.449219 Z M 515.421875 537.554688 L 653.820312 538.769531 C 655.265625 538.984375 656.402344 540.292969 656.390625 541.757812 C 656.3125 550.660156 656.21875 559.753906 656.132812 568.710938 C 655.921875 570.148438 654.609375 571.289062 653.144531 571.277344 L 515.128906 570.09375 C 513.527344 570.082031 512.164062 568.679688 512.175781 567.074219 L 512.433594 540.125 C 512.648438 538.683594 513.957031 537.542969 515.421875 537.554688 Z M 541.015625 519.480469 L 540.910156 450.3125 C 540.859375 419.824219 546.289062 414.960938 568.113281 396.574219 C 583.550781 383.5625 603.183594 367.019531 619.441406 347.925781 C 625.203125 343.027344 633.78125 342.355469 639.363281 347.9375 C 645.617188 354.191406 644.195312 361.035156 639.273438 367.628906 C 627.042969 381.488281 613.414062 393.847656 600.371094 406.890625 C 596.785156 410.480469 596.785156 416.292969 600.371094 419.878906 C 603.957031 423.464844 609.769531 423.464844 613.359375 419.878906 C 629.351562 403.882812 645.976562 388.761719 660.292969 371.144531 C 669.976562 359.222656 675.222656 345.789062 675.167969 330.351562 L 674.800781 234.976562 C 674.757812 223.0625 676.589844 193.160156 693.9375 192.609375 C 701.429688 192.371094 711.121094 198.796875 711.347656 206.648438 L 716.320312 382.214844 C 716.714844 396.234375 711.84375 407.09375 702.210938 417.078125 L 622.78125 496.476562 C 620.789062 498.46875 619.902344 501.15625 620.128906 503.757812 L 620.128906 520.15625 Z M 535.878906 556.984375 C 537.5625 552.746094 535.492188 547.949219 531.253906 546.261719 C 527.019531 544.578125 522.21875 546.644531 520.535156 550.882812 C 518.851562 555.125 520.917969 559.917969 525.160156 561.609375 C 529.390625 563.292969 534.195312 561.226562 535.878906 556.984375 Z M 358.980469 517.15625 L 359.082031 447.988281 C 359.125 418.421875 354.050781 412.929688 331.882812 394.25 C 316.441406 381.238281 296.808594 364.695312 280.550781 345.601562 C 274.789062 340.703125 266.210938 340.03125 260.628906 345.613281 C 254.375 351.867188 255.429688 358.996094 260.71875 365.304688 C 272.597656 379.46875 286.578125 391.523438 299.621094 404.566406 C 303.210938 408.15625 303.210938 413.96875 299.621094 417.554688 C 296.035156 421.140625 290.222656 421.140625 286.632812 417.554688 C 270.640625 401.558594 254.015625 386.4375 239.699219 368.820312 C 230.015625 356.898438 224.769531 343.464844 224.824219 328.027344 L 225.191406 232.652344 C 225.234375 220.738281 223.40625 190.835938 206.054688 190.285156 C 198.5625 190.046875 188.871094 196.472656 188.644531 204.324219 L 183.671875 379.890625 C 183.277344 393.902344 188.148438 404.769531 197.78125 414.753906 L 277.214844 494.152344 C 279.210938 496.144531 280.09375 498.832031 279.871094 501.433594 L 279.871094 517.832031 Z M 364.109375 554.660156 C 362.425781 550.421875 364.492188 545.625 368.734375 543.9375 C 372.96875 542.253906 377.769531 544.320312 379.457031 548.558594 C 381.140625 552.800781 379.074219 557.59375 374.832031 559.285156 C 370.601562 560.96875 365.800781 558.894531 364.109375 554.660156 Z M 364.109375 554.660156 " fill-opacity="1" fill-rule="evenodd"/></g></svg>