<svg xmlns="http://www.w3.org/2000/svg" xmlns:xlink="http://www.w3.org/1999/xlink" width="1200" zoomAndPan="magnify" viewBox="0 0 900 525.000007" height="700" preserveAspectRatio="xMidYMid meet" version="1.0"><defs><clipPath id="b16894b91f"><path d="M 192 0 L 708 0 L 708 515.769531 L 192 515.769531 Z M 192 0 " clip-rule="nonzero"/></clipPath></defs><g clip-path="url(#b16894b91f)"><path fill="#003152" d="M 363.445312 278.988281 C 378.808594 265.9375 394.1875 252.890625 409.550781 239.839844 C 410.40625 239.09375 411.550781 238.945312 412.589844 239.417969 C 413.609375 239.894531 414.226562 240.855469 414.226562 242.003906 L 414.226562 260.242188 L 509.257812 260.242188 C 512.390625 260.242188 514.9375 262.789062 514.9375 265.921875 L 514.9375 296.371094 C 514.9375 299.503906 512.390625 302.070312 509.257812 302.070312 L 414.226562 302.070312 L 414.226562 320.308594 C 414.226562 321.4375 413.609375 322.402344 412.589844 322.875 C 411.550781 323.367188 410.40625 323.203125 409.550781 322.472656 C 394.1875 309.421875 378.808594 296.371094 363.445312 283.320312 C 362.773438 282.757812 362.445312 282.011719 362.445312 281.15625 C 362.445312 280.28125 362.773438 279.535156 363.445312 278.988281 Z M 492.238281 318.824219 C 487.25 340.679688 477.066406 360.550781 463.082031 377.0625 L 463.074219 377.074219 C 457.316406 383.839844 454.160156 391.152344 453.199219 399.972656 L 453.199219 399.980469 C 449.679688 431.960938 458.378906 469.316406 477.867188 508.933594 C 478.578125 510.382812 478.492188 512.09375 477.640625 513.464844 C 476.789062 514.832031 475.289062 515.664062 473.675781 515.664062 L 321.554688 515.664062 C 319.292969 515.664062 317.355469 514.042969 316.957031 511.816406 C 314.195312 496.339844 308.398438 485.5 299.070312 479.570312 C 289.671875 473.59375 276.945312 472.707031 260.9375 476.328125 C 260.859375 476.34375 260.78125 476.359375 260.703125 476.375 C 248.078125 478.566406 238.679688 478.625 232.511719 476.867188 C 228.546875 475.734375 225.6875 473.851562 223.792969 471.445312 C 221.800781 468.914062 220.777344 465.75 220.933594 461.894531 C 220.859375 454.378906 220.238281 449.238281 219.089844 445.617188 C 218.226562 442.890625 217.101562 441.25 215.625 440.164062 C 215.597656 440.144531 215.570312 440.121094 215.542969 440.101562 C 211.902344 437.285156 210.386719 434.148438 210.121094 431.074219 C 209.863281 428.085938 210.839844 424.980469 212.9375 422 C 214.460938 419.832031 216.636719 417.695312 219.164062 415.6875 C 215.082031 413.777344 211.484375 411.167969 209.449219 408.441406 C 207.066406 405.242188 206.457031 401.828125 207.691406 398.691406 C 210.574219 388.675781 210.449219 384.394531 205.90625 382.027344 C 198.472656 378.367188 194.253906 373.933594 192.730469 369.28125 C 191.09375 364.273438 192.226562 358.605469 197.015625 352.492188 C 197.089844 352.394531 197.171875 352.300781 197.257812 352.210938 C 205.222656 343.558594 211.539062 334.816406 216.183594 325.871094 C 216.1875 325.867188 216.1875 325.863281 216.191406 325.859375 C 220.214844 318.179688 221.675781 310.546875 220.804688 301.90625 C 220.335938 297.339844 220.121094 292.714844 220.121094 287.992188 C 220.121094 211.890625 281.785156 150.179688 357.886719 150.179688 C 418.457031 150.179688 469.859375 189.21875 488.359375 243.488281 L 435.90625 243.488281 C 434.789062 241.253906 433.574219 239.066406 432.257812 236.933594 L 439.339844 220.941406 L 420.503906 202.105469 L 404.511719 209.214844 C 396.894531 204.519531 388.601562 201.082031 379.90625 199.015625 L 373.628906 182.675781 L 346.984375 182.675781 L 340.679688 199.015625 C 331.984375 201.082031 323.695312 204.519531 316.074219 209.214844 L 300.082031 202.105469 L 281.246094 220.941406 L 288.355469 236.933594 C 283.660156 244.550781 280.226562 252.84375 278.132812 261.5625 L 261.820312 267.84375 L 261.820312 294.488281 L 278.132812 300.765625 C 280.226562 309.460938 283.660156 317.777344 288.355469 325.371094 L 281.246094 341.363281 L 300.082031 360.199219 L 316.074219 353.117188 C 323.695312 357.785156 331.984375 361.246094 340.707031 363.3125 L 346.984375 379.625 L 373.628906 379.625 L 379.90625 363.3125 C 388.601562 361.246094 396.917969 357.8125 404.511719 353.117188 L 420.503906 360.199219 L 439.339844 341.363281 L 432.257812 325.371094 C 433.5625 323.238281 434.777344 321.054688 435.890625 318.824219 Z M 392.503906 329.972656 C 383.265625 336.082031 372.191406 339.640625 360.289062 339.640625 C 327.988281 339.640625 301.832031 313.449219 301.832031 281.148438 C 301.832031 248.847656 327.988281 222.691406 360.289062 222.691406 C 372.191406 222.691406 383.261719 226.242188 392.5 232.34375 C 379.261719 243.582031 365.992188 254.847656 352.734375 266.109375 L 352.695312 266.140625 C 348.085938 269.96875 345.691406 275.089844 345.691406 281.15625 C 345.691406 287.066406 347.996094 292.203125 352.628906 296.113281 C 365.914062 307.398438 379.214844 318.6875 392.503906 329.972656 Z M 624.328125 264.363281 L 624.324219 271.421875 C 624.324219 278.765625 618.328125 284.761719 611.011719 284.761719 L 611.011719 298.101562 C 611.011719 305.445312 604.988281 311.441406 597.671875 311.441406 L 597.3125 311.441406 L 597.3125 324.78125 C 597.3125 332.097656 591.316406 338.121094 584 338.121094 L 566.671875 338.121094 C 559.355469 338.121094 553.332031 332.097656 553.332031 324.78125 L 553.332031 311.441406 L 553 311.441406 C 545.65625 311.441406 539.660156 305.445312 539.660156 298.101562 L 539.660156 284.761719 C 532.316406 284.761719 526.320312 278.765625 526.320312 271.421875 L 526.320312 264.363281 Z M 552.792969 247.609375 L 526.320312 247.609375 C 522.386719 180.441406 493.257812 183.164062 493.257812 137.585938 C 493.257812 92.257812 530.003906 55.511719 575.335938 55.511719 C 620.664062 55.511719 657.414062 92.257812 657.414062 137.585938 C 657.414062 183.164062 628.285156 180.441406 624.351562 247.609375 L 597.878906 247.609375 L 597.878906 165.628906 L 608.589844 165.628906 C 623.675781 165.628906 636.027344 153.277344 636.027344 138.191406 C 636.027344 123.070312 623.671875 110.726562 608.589844 110.726562 C 593.472656 110.726562 581.125 123.074219 581.125 138.191406 L 581.125 148.878906 L 569.546875 148.878906 L 569.546875 138.191406 C 569.546875 123.074219 557.199219 110.726562 542.082031 110.726562 C 527 110.726562 514.644531 123.070312 514.644531 138.191406 C 514.644531 153.277344 526.996094 165.628906 542.082031 165.628906 L 552.792969 165.628906 Z M 581.125 247.609375 L 569.546875 247.609375 L 569.546875 165.628906 L 581.125 165.628906 Z M 552.792969 148.878906 L 542.082031 148.878906 C 536.207031 148.878906 531.394531 144.066406 531.394531 138.191406 C 531.394531 132.300781 536.203125 127.480469 542.082031 127.480469 C 547.976562 127.480469 552.792969 132.296875 552.792969 138.191406 Z M 597.878906 148.878906 L 597.878906 138.191406 C 597.878906 132.296875 602.691406 127.480469 608.589844 127.480469 C 614.46875 127.480469 619.273438 132.300781 619.273438 138.191406 C 619.273438 144.066406 614.464844 148.878906 608.589844 148.878906 Z M 583.710938 27.757812 C 583.710938 32.378906 579.957031 36.132812 575.335938 36.132812 C 570.710938 36.132812 566.960938 32.378906 566.960938 27.757812 L 566.960938 8.421875 C 566.960938 3.796875 570.710938 0.0429688 575.335938 0.0429688 C 579.957031 0.0429688 583.710938 3.796875 583.710938 8.421875 Z M 520.675781 40.160156 C 522.984375 44.164062 521.609375 49.292969 517.601562 51.601562 C 513.597656 53.910156 508.472656 52.53125 506.164062 48.527344 L 496.507812 31.773438 C 494.199219 27.769531 495.578125 22.644531 499.582031 20.335938 C 503.589844 18.027344 508.714844 19.40625 511.023438 23.410156 Z M 472.308594 82.421875 C 476.3125 84.734375 477.683594 89.863281 475.371094 93.863281 C 473.058594 97.867188 467.929688 99.238281 463.925781 96.925781 L 447.175781 87.242188 C 443.171875 84.929688 441.800781 79.800781 444.113281 75.796875 C 446.429688 71.796875 451.554688 70.425781 455.558594 72.738281 Z M 644.476562 48.535156 C 642.160156 52.539062 637.035156 53.910156 633.03125 51.59375 C 629.027344 49.28125 627.65625 44.152344 629.972656 40.152344 L 639.652344 23.402344 C 641.964844 19.398438 647.09375 18.027344 651.097656 20.339844 C 655.097656 22.652344 656.46875 27.78125 654.15625 31.785156 Z M 686.75 96.921875 C 682.75 99.238281 677.621094 97.871094 675.304688 93.867188 C 672.988281 89.867188 674.355469 84.738281 678.355469 82.425781 L 695.078125 72.742188 C 699.078125 70.425781 704.207031 71.792969 706.527344 75.792969 C 708.839844 79.796875 707.472656 84.921875 703.472656 87.238281 Z M 686.75 96.921875 " fill-opacity="1" fill-rule="evenodd"/></g></svg>