<svg xmlns="http://www.w3.org/2000/svg" xmlns:xlink="http://www.w3.org/1999/xlink" width="500" zoomAndPan="magnify" viewBox="0 0 375 374.999991" height="500" preserveAspectRatio="xMidYMid meet" version="1.0"><defs><clipPath id="ea5c76a428"><path d="M 15 92.019531 L 361.789062 92.019531 L 361.789062 278 L 15 278 Z M 15 92.019531 " clip-rule="nonzero"/></clipPath><clipPath id="5d35ae19d6"><path d="M 13.039062 92.019531 L 361.789062 92.019531 L 361.789062 283 L 13.039062 283 Z M 13.039062 92.019531 " clip-rule="nonzero"/></clipPath><clipPath id="b6f9802432"><path d="M 13.039062 92.019531 L 361.789062 92.019531 L 361.789062 283 L 13.039062 283 Z M 13.039062 92.019531 " clip-rule="nonzero"/></clipPath></defs><g clip-path="url(#ea5c76a428)"><path fill="#f5f1e1" d="M 361.242188 92.929688 L 342.519531 221.222656 L 273.09375 277.386719 L 15.164062 276.535156 L 126.007812 221.222656 L 144.660156 92.929688 Z M 361.242188 92.929688 " fill-opacity="1" fill-rule="nonzero"/></g><path fill="#003152" d="M 185.792969 196.753906 L 306.140625 196.753906 L 292.808594 196.542969 C 293.585938 192.785156 293.585938 187.394531 293.585938 187.394531 L 305.785156 183.988281 C 306.707031 188.882812 306.070312 196.683594 306.070312 196.683594 L 309.046875 196.683594 L 319.828125 122.574219 L 196.570312 122.574219 Z M 281.390625 141.722656 C 286.351562 141.722656 290.394531 145.765625 290.394531 150.730469 C 290.394531 155.695312 286.351562 159.734375 281.390625 159.734375 C 276.425781 159.734375 272.382812 155.695312 272.382812 150.730469 C 272.382812 145.765625 276.425781 141.722656 281.390625 141.722656 Z M 230.117188 164.132812 L 230.753906 164.132812 C 229.761719 164.132812 228.980469 163.351562 228.980469 162.359375 C 228.980469 161.367188 229.761719 160.585938 230.753906 160.585938 L 232.101562 160.585938 C 232.101562 159.878906 232.667969 159.382812 233.308594 159.382812 L 235.433594 159.382812 C 235.363281 159.027344 235.363281 158.8125 235.363281 158.742188 C 235.363281 158.601562 235.503906 158.035156 235.929688 157.609375 C 236.425781 157.113281 236.925781 157.039062 237.136719 157.039062 C 237.136719 157.039062 238.269531 157.039062 240.46875 157.039062 C 242.667969 157.039062 244.511719 158.957031 244.511719 158.957031 L 259.6875 174.203125 L 258.128906 186.613281 C 254.296875 185.976562 251.320312 183.492188 251.320312 183.492188 L 238.199219 170.019531 L 235.292969 170.019531 L 235.578125 169.453125 L 235.152344 169.59375 C 235.152344 170.585938 234.371094 171.367188 233.378906 171.367188 L 230.613281 171.367188 C 229.621094 171.367188 228.839844 170.585938 228.839844 169.59375 C 228.839844 168.601562 229.621094 167.820312 230.613281 167.820312 L 229.972656 167.820312 C 228.980469 167.820312 228.199219 167.039062 228.199219 166.046875 C 228.34375 164.984375 229.125 164.132812 230.117188 164.132812 Z M 147.851562 98.390625 L 130.761719 215.761719 L 336.492188 215.761719 L 353.582031 98.390625 Z M 330.605469 200.867188 C 329.96875 205.121094 325.996094 208.597656 321.742188 208.597656 L 147.640625 208.597656 C 143.382812 208.597656 140.40625 205.121094 141.042969 200.867188 L 153.808594 113.285156 C 154.445312 109.03125 158.417969 105.554688 162.671875 105.554688 L 336.777344 105.554688 C 341.03125 105.554688 344.007812 109.03125 343.371094 113.285156 Z M 330.605469 200.867188 " fill-opacity="1" fill-rule="nonzero"/><g clip-path="url(#5d35ae19d6)"><path fill="#ec9707" d="M 258.128906 186.613281 L 259.757812 174.203125 L 271.671875 162.148438 C 273.375 159.167969 275.859375 157.820312 275.859375 157.820312 C 277.417969 159.027344 279.261719 159.734375 281.390625 159.734375 C 284.507812 159.734375 287.277344 158.175781 288.90625 155.695312 C 288.90625 155.695312 302.378906 160.941406 305.714844 181.011719 C 305.714844 181.011719 306.777344 185.976562 306.210938 195.195312 C 306.351562 192.640625 306.492188 187.605469 305.785156 184.058594 L 293.585938 187.464844 C 293.585938 187.464844 293.585938 192.855469 292.808594 196.613281 L 306.140625 196.824219 L 270.113281 196.824219 C 270.113281 196.824219 270.113281 188.8125 270.113281 181.367188 L 265.433594 185.054688 C 264.085938 186.117188 262.382812 186.828125 260.609375 186.898438 C 259.757812 186.828125 258.980469 186.753906 258.128906 186.613281 Z M 337.625 118.105469 L 325.214844 118.105469 L 313.089844 201.222656 L 325.5 201.222656 Z M 13.746094 276.535156 L 13.746094 281.359375 L 271.601562 282.140625 L 341.101562 225.335938 L 341.101562 221.292969 L 271.671875 277.457031 Z M 359.824219 92.929688 L 359.683594 94.136719 L 341.171875 221.292969 L 343.867188 218.3125 L 361.242188 95.199219 Z M 359.824219 92.929688 " fill-opacity="1" fill-rule="nonzero"/></g><path fill="#ec9707" d="M 171.539062 201.292969 L 147.214844 201.292969 L 149.625 184.484375 L 174.019531 184.484375 Z M 177.210938 162.359375 L 152.886719 162.359375 L 150.476562 179.167969 L 174.800781 179.167969 Z M 326.210938 126.476562 L 325.144531 134.0625 L 333.089844 134.0625 L 334.222656 126.476562 Z M 117.78125 272.140625 L 188.0625 272.707031 L 212.671875 254.625 L 147.640625 254.625 Z M 238.34375 170.019531 L 235.433594 170.019531 L 235.71875 169.453125 L 235.292969 169.59375 C 235.292969 170.585938 234.511719 171.367188 233.519531 171.367188 L 230.753906 171.367188 C 229.761719 171.367188 228.980469 170.585938 228.980469 169.59375 C 228.980469 168.601562 229.761719 167.820312 230.753906 167.820312 L 230.117188 167.820312 C 229.125 167.820312 228.34375 167.039062 228.34375 166.046875 C 228.34375 165.054688 229.125 164.273438 230.117188 164.273438 L 230.753906 164.273438 C 229.761719 164.273438 228.980469 163.496094 228.980469 162.5 C 228.980469 161.507812 229.761719 160.730469 230.753906 160.730469 L 232.101562 160.730469 C 232.101562 160.019531 232.667969 159.523438 233.308594 159.523438 L 235.433594 159.523438 C 235.363281 159.167969 235.363281 158.957031 235.363281 158.882812 C 235.363281 158.742188 235.503906 158.175781 235.929688 157.75 C 236.425781 157.253906 236.925781 157.183594 237.136719 157.183594 C 237.136719 157.183594 238.269531 157.183594 240.46875 157.183594 C 242.667969 157.183594 244.511719 159.097656 244.511719 159.097656 L 258.765625 173.421875 L 263.945312 135.765625 L 200.613281 135.765625 L 194.019531 180.867188 L 248.695312 180.867188 Z M 180.472656 140.234375 L 156.148438 140.234375 L 153.738281 157.039062 L 178.0625 157.039062 Z M 183.664062 118.105469 L 159.339844 118.105469 L 156.929688 134.914062 L 181.253906 134.914062 Z M 80.765625 250.511719 L 290.113281 250.582031 L 323.441406 226.46875 L 128.277344 226.46875 Z M 322.023438 155.195312 L 329.96875 155.195312 L 331.101562 147.609375 L 323.160156 147.609375 Z M 320.535156 165.765625 L 328.476562 165.765625 L 329.613281 158.175781 L 321.671875 158.175781 Z M 315.925781 197.464844 L 323.867188 197.464844 L 325.003906 189.875 L 317.0625 189.875 Z M 323.585938 144.628906 L 331.527344 144.628906 L 332.664062 137.042969 L 324.71875 137.042969 Z M 318.976562 176.332031 L 326.917969 176.332031 L 328.054688 168.742188 L 320.109375 168.742188 Z M 317.414062 186.898438 L 325.359375 186.898438 L 326.492188 179.308594 L 318.550781 179.308594 Z M 317.414062 186.898438 " fill-opacity="1" fill-rule="nonzero"/><g clip-path="url(#b6f9802432)"><path fill="#2d2828" d="M 354.152344 97.964844 C 354.007812 97.824219 353.796875 97.753906 353.582031 97.753906 L 147.851562 97.753906 C 147.496094 97.753906 147.214844 98.039062 147.140625 98.390625 L 130.050781 215.691406 C 130.050781 215.902344 130.050781 216.113281 130.191406 216.257812 C 130.335938 216.398438 130.546875 216.46875 130.761719 216.46875 L 336.492188 216.46875 C 336.847656 216.46875 337.128906 216.1875 337.203125 215.832031 L 354.292969 98.535156 C 354.363281 98.320312 354.292969 98.109375 354.152344 97.964844 Z M 335.925781 215.050781 L 131.613281 215.050781 L 148.488281 99.101562 L 352.804688 99.101562 Z M 141.964844 206.824219 C 143.3125 208.457031 145.371094 209.308594 147.640625 209.308594 L 321.742188 209.308594 C 326.351562 209.308594 330.605469 205.546875 331.316406 200.9375 L 344.082031 113.355469 C 344.433594 111.085938 343.796875 108.886719 342.449219 107.328125 C 341.03125 105.695312 339.046875 104.84375 336.777344 104.84375 L 162.671875 104.84375 C 158.0625 104.84375 153.808594 108.605469 153.097656 113.214844 L 140.335938 200.796875 C 139.980469 203.066406 140.546875 205.195312 141.964844 206.824219 Z M 162.671875 106.265625 L 336.777344 106.265625 C 338.621094 106.265625 340.25 106.972656 341.316406 108.25 C 342.308594 109.382812 342.804688 110.945312 342.734375 112.574219 L 154.660156 112.574219 C 155.582031 109.03125 158.984375 106.265625 162.671875 106.265625 Z M 141.753906 201.007812 L 154.445312 113.992188 L 342.589844 113.992188 L 329.96875 200.796875 C 329.402344 204.699219 325.710938 207.890625 321.8125 207.890625 L 147.640625 207.890625 C 145.796875 207.890625 144.164062 207.179688 143.101562 205.902344 C 141.894531 204.625 141.46875 202.855469 141.753906 201.007812 Z M 156.929688 135.625 L 181.253906 135.625 C 181.609375 135.625 181.890625 135.339844 181.964844 134.984375 L 184.375 118.179688 C 184.375 117.964844 184.375 117.753906 184.230469 117.609375 C 184.089844 117.46875 183.878906 117.398438 183.664062 117.398438 L 159.339844 117.398438 C 158.984375 117.398438 158.703125 117.683594 158.632812 118.035156 L 156.21875 134.84375 C 156.21875 135.054688 156.21875 135.269531 156.363281 135.410156 C 156.503906 135.554688 156.714844 135.625 156.929688 135.625 Z M 159.980469 118.816406 L 182.886719 118.816406 L 180.617188 134.207031 L 157.710938 134.207031 Z M 153.667969 157.75 L 177.992188 157.75 C 178.347656 157.75 178.628906 157.464844 178.699219 157.113281 L 181.113281 140.304688 C 181.113281 140.089844 181.113281 139.878906 180.96875 139.738281 C 180.828125 139.59375 180.617188 139.523438 180.402344 139.523438 L 156.078125 139.523438 C 155.722656 139.523438 155.441406 139.808594 155.367188 140.164062 L 152.957031 156.96875 C 152.957031 157.183594 152.957031 157.394531 153.097656 157.539062 C 153.242188 157.679688 153.453125 157.75 153.667969 157.75 Z M 156.714844 140.941406 L 179.621094 140.941406 L 177.351562 156.332031 L 154.445312 156.332031 Z M 150.476562 179.875 L 174.800781 179.875 C 175.15625 179.875 175.4375 179.59375 175.507812 179.238281 L 177.921875 162.429688 C 177.921875 162.21875 177.921875 162.003906 177.777344 161.863281 C 177.636719 161.722656 177.425781 161.652344 177.210938 161.652344 L 152.886719 161.652344 C 152.53125 161.652344 152.25 161.933594 152.175781 162.289062 L 149.765625 179.097656 C 149.765625 179.308594 149.765625 179.523438 149.910156 179.664062 C 150.050781 179.804688 150.261719 179.875 150.476562 179.875 Z M 153.523438 163.070312 L 176.429688 163.070312 L 174.160156 178.457031 L 151.253906 178.457031 Z M 147.214844 202.003906 L 171.539062 202.003906 C 171.894531 202.003906 172.175781 201.71875 172.246094 201.363281 L 174.660156 184.558594 C 174.660156 184.34375 174.660156 184.132812 174.515625 183.988281 C 174.375 183.847656 174.160156 183.777344 173.949219 183.777344 L 149.625 183.777344 C 149.269531 183.777344 148.988281 184.058594 148.914062 184.414062 L 146.503906 201.222656 C 146.503906 201.433594 146.503906 201.648438 146.644531 201.789062 C 146.789062 201.929688 147.070312 202.003906 147.214844 202.003906 Z M 150.332031 185.195312 L 173.238281 185.195312 L 170.972656 200.585938 L 148.0625 200.585938 Z M 177.070312 201.152344 L 189.195312 118.035156 C 189.265625 117.683594 189.621094 117.398438 189.976562 117.46875 C 190.332031 117.539062 190.613281 117.894531 190.542969 118.25 L 178.417969 201.363281 C 178.347656 201.71875 178.0625 202.003906 177.707031 202.003906 C 177.707031 202.003906 177.636719 202.003906 177.636719 202.003906 C 177.28125 201.929688 177 201.578125 177.070312 201.152344 Z M 185.226562 197.179688 C 185.367188 197.320312 185.578125 197.394531 185.792969 197.394531 L 309.046875 197.394531 C 309.402344 197.394531 309.683594 197.109375 309.757812 196.753906 L 320.535156 122.644531 C 320.535156 122.433594 320.535156 122.21875 320.394531 122.078125 C 320.253906 121.9375 320.039062 121.867188 319.828125 121.867188 L 196.570312 121.867188 C 196.21875 121.867188 195.933594 122.148438 195.863281 122.503906 L 185.082031 196.613281 C 185.082031 196.824219 185.152344 197.039062 185.226562 197.179688 Z M 245.152344 158.460938 C 245.078125 158.386719 243.023438 156.332031 240.539062 156.332031 L 237.136719 156.332031 C 236.78125 156.332031 236.074219 156.542969 235.503906 157.113281 C 234.9375 157.679688 234.796875 158.316406 234.726562 158.671875 L 233.378906 158.671875 C 232.527344 158.671875 231.890625 159.167969 231.605469 159.878906 L 230.824219 159.878906 C 229.476562 159.878906 228.34375 161.011719 228.34375 162.359375 C 228.34375 162.925781 228.554688 163.421875 228.839844 163.847656 C 228.128906 164.273438 227.703125 165.054688 227.703125 165.976562 C 227.703125 166.898438 228.203125 167.609375 228.839844 168.105469 C 228.554688 168.53125 228.34375 169.027344 228.34375 169.59375 C 228.34375 170.941406 229.476562 172.074219 230.824219 172.074219 L 233.589844 172.074219 C 234.511719 172.074219 235.363281 171.507812 235.789062 170.726562 L 238.128906 170.726562 L 247.136719 180.019531 L 194.941406 180.019531 L 201.324219 136.332031 L 263.234375 136.332031 L 258.410156 171.722656 Z M 234.230469 164.839844 C 234.796875 164.839844 235.292969 165.339844 235.292969 165.90625 C 235.292969 166.472656 234.796875 166.96875 234.230469 166.96875 L 230.1875 166.96875 C 229.621094 166.96875 229.125 166.472656 229.125 165.90625 C 229.125 165.339844 229.621094 164.839844 230.1875 164.839844 Z M 230.824219 168.457031 L 233.589844 168.457031 C 234.160156 168.457031 234.65625 168.953125 234.65625 169.523438 C 234.65625 170.089844 234.160156 170.585938 233.589844 170.585938 L 230.824219 170.585938 C 230.257812 170.585938 229.761719 170.089844 229.761719 169.523438 C 229.761719 168.953125 230.1875 168.457031 230.824219 168.457031 Z M 233.519531 163.421875 L 230.753906 163.421875 C 230.1875 163.421875 229.691406 162.925781 229.691406 162.359375 C 229.691406 161.792969 230.1875 161.296875 230.753906 161.296875 L 233.519531 161.296875 C 234.085938 161.296875 234.582031 161.792969 234.582031 162.359375 C 234.582031 162.925781 234.160156 163.421875 233.519531 163.421875 Z M 238.839844 169.523438 C 238.695312 169.378906 238.554688 169.308594 238.34375 169.308594 L 236.003906 169.308594 C 235.929688 168.8125 235.789062 168.457031 235.503906 168.105469 C 236.214844 167.679688 236.640625 166.898438 236.640625 165.976562 C 236.640625 165.054688 236.144531 164.34375 235.503906 163.847656 C 235.789062 163.421875 236.003906 162.925781 236.003906 162.359375 C 236.003906 161.296875 235.363281 160.445312 234.441406 160.019531 L 234.9375 160.019531 C 235.082031 160.304688 235.222656 160.515625 235.503906 160.730469 C 235.578125 160.800781 235.578125 160.800781 235.648438 160.800781 C 236.003906 161.082031 236.5 161.226562 236.996094 161.226562 L 240.46875 161.226562 C 240.894531 161.226562 241.179688 160.941406 241.179688 160.515625 C 241.179688 160.089844 240.894531 159.808594 240.46875 159.808594 L 236.996094 159.808594 C 236.78125 159.808594 236.640625 159.734375 236.425781 159.59375 C 236.074219 159.308594 236.074219 158.742188 236.074219 158.671875 C 236.074219 158.53125 236.144531 158.246094 236.425781 157.960938 C 236.710938 157.679688 237.066406 157.609375 237.136719 157.609375 L 240.46875 157.609375 C 242.382812 157.609375 244.015625 159.308594 244.015625 159.308594 L 258.980469 174.34375 L 257.417969 185.621094 C 254.371094 184.839844 252.101562 183.066406 251.816406 182.855469 Z M 260.46875 174.558594 L 269.757812 165.125 C 269.546875 166.046875 269.402344 167.109375 269.402344 168.246094 L 269.402344 181.011719 L 265.007812 184.484375 C 263.730469 185.550781 262.171875 186.117188 260.609375 186.1875 C 260.042969 186.1875 259.476562 186.1875 258.910156 186.117188 Z M 270.824219 168.175781 C 270.824219 162.429688 274.582031 159.453125 275.785156 158.671875 C 277.347656 159.808594 279.261719 160.445312 281.316406 160.445312 C 284.4375 160.445312 287.277344 158.957031 289.046875 156.617188 C 291.460938 157.75 302.097656 163.847656 304.933594 181.222656 C 304.933594 181.222656 305.074219 182.003906 305.21875 183.492188 L 294.15625 186.542969 C 293.800781 178.671875 290.890625 176.046875 290.75 175.90625 C 290.464844 175.621094 290.042969 175.691406 289.757812 175.976562 C 289.472656 176.257812 289.542969 176.683594 289.828125 176.96875 C 289.898438 177.039062 294.578125 181.4375 292.097656 196.117188 L 270.75 196.117188 L 270.75 168.175781 Z M 274.792969 147.324219 C 275.714844 148.886719 277.347656 151.011719 279.972656 152.21875 C 281.390625 152.855469 282.878906 153.210938 284.507812 153.210938 C 286.070312 153.210938 287.699219 152.925781 289.472656 152.289062 C 288.765625 156.117188 285.359375 159.027344 281.316406 159.027344 C 277.132812 159.027344 273.660156 155.90625 273.09375 151.863281 C 274.015625 150.730469 274.511719 148.8125 274.792969 147.324219 Z M 294.296875 187.960938 L 305.429688 184.910156 C 305.644531 187.394531 305.714844 191.152344 305.429688 196.046875 L 293.585938 196.046875 C 294.15625 192.925781 294.367188 190.230469 294.296875 187.960938 Z M 197.210938 123.355469 L 319.046875 123.355469 L 308.480469 196.046875 L 306.917969 196.046875 C 307.558594 186.328125 306.492188 181.152344 306.421875 180.941406 C 303.445312 163.210938 292.878906 156.828125 289.898438 155.410156 C 290.609375 154.203125 290.964844 152.785156 291.105469 151.296875 C 291.105469 151.226562 291.105469 151.226562 291.105469 151.15625 C 291.105469 151.011719 291.105469 150.871094 291.105469 150.660156 C 291.105469 145.269531 286.777344 140.941406 281.390625 140.941406 C 278.410156 140.941406 275.785156 142.289062 274.015625 144.347656 C 274.015625 144.347656 274.015625 144.417969 273.941406 144.417969 C 272.523438 146.121094 271.671875 148.246094 271.671875 150.660156 C 271.671875 151.011719 271.671875 151.367188 271.746094 151.722656 C 272.027344 154.0625 273.09375 156.117188 274.722656 157.679688 C 273.800781 158.316406 272.3125 159.59375 271.175781 161.652344 L 259.832031 173.140625 L 259.617188 172.925781 L 264.722656 135.625 C 264.722656 135.410156 264.722656 135.199219 264.582031 135.054688 C 264.441406 134.914062 264.226562 134.84375 264.015625 134.84375 L 200.683594 134.84375 C 200.332031 134.84375 200.046875 135.128906 199.976562 135.480469 L 193.378906 180.585938 C 193.378906 180.796875 193.378906 181.011719 193.523438 181.152344 C 193.664062 181.292969 193.878906 181.367188 194.089844 181.367188 L 248.484375 181.367188 L 250.964844 183.917969 C 250.964844 183.917969 250.964844 183.917969 251.035156 183.988281 C 251.179688 184.132812 255.222656 187.464844 260.183594 187.464844 C 260.398438 187.464844 260.609375 187.464844 260.753906 187.464844 C 262.597656 187.394531 264.441406 186.683594 265.929688 185.480469 L 269.476562 182.714844 L 269.476562 196.046875 L 186.644531 196.046875 Z M 312.523438 201.71875 C 312.664062 201.859375 312.875 201.929688 313.089844 201.929688 L 325.5 201.929688 C 325.855469 201.929688 326.136719 201.648438 326.210938 201.292969 L 338.335938 118.179688 C 338.335938 117.964844 338.335938 117.753906 338.195312 117.609375 C 338.050781 117.46875 337.839844 117.398438 337.625 117.398438 L 325.214844 117.398438 C 324.863281 117.398438 324.578125 117.683594 324.507812 118.035156 L 312.378906 201.152344 C 312.378906 201.363281 312.378906 201.578125 312.523438 201.71875 Z M 336.847656 118.816406 L 336.421875 121.9375 L 325.429688 121.9375 L 325.855469 118.816406 Z M 325.144531 123.355469 L 336.136719 123.355469 L 324.863281 200.511719 L 313.871094 200.511719 Z M 325.144531 134.773438 L 333.089844 134.773438 C 333.441406 134.773438 333.726562 134.488281 333.796875 134.132812 L 334.933594 126.546875 C 334.933594 126.332031 334.933594 126.121094 334.789062 125.980469 C 334.648438 125.835938 334.4375 125.765625 334.222656 125.765625 L 326.28125 125.765625 C 325.925781 125.765625 325.640625 126.050781 325.570312 126.40625 L 324.4375 133.992188 C 324.4375 134.207031 324.4375 134.417969 324.578125 134.558594 C 324.71875 134.703125 324.933594 134.773438 325.144531 134.773438 Z M 326.847656 127.183594 L 333.300781 127.183594 L 332.378906 133.355469 L 325.925781 133.355469 Z M 323.585938 145.339844 L 331.527344 145.339844 C 331.882812 145.339844 332.167969 145.054688 332.238281 144.703125 L 333.371094 137.113281 C 333.371094 136.898438 333.371094 136.6875 333.230469 136.546875 C 333.089844 136.402344 332.875 136.332031 332.664062 136.332031 L 324.71875 136.332031 C 324.367188 136.332031 324.082031 136.617188 324.011719 136.972656 L 322.875 144.558594 C 322.875 144.773438 322.875 144.984375 323.019531 145.125 C 323.160156 145.269531 323.371094 145.339844 323.585938 145.339844 Z M 325.289062 137.75 L 331.742188 137.75 L 330.820312 143.921875 L 324.367188 143.921875 Z M 322.023438 155.90625 L 329.96875 155.90625 C 330.324219 155.90625 330.605469 155.621094 330.675781 155.269531 L 331.8125 147.679688 C 331.8125 147.46875 331.8125 147.253906 331.667969 147.113281 C 331.527344 146.96875 331.316406 146.898438 331.101562 146.898438 L 323.160156 146.898438 C 322.804688 146.898438 322.519531 147.183594 322.449219 147.539062 L 321.316406 155.125 C 321.316406 155.339844 321.316406 155.550781 321.457031 155.695312 C 321.671875 155.835938 321.882812 155.90625 322.023438 155.90625 Z M 323.796875 148.316406 L 330.25 148.316406 L 329.328125 154.488281 L 322.875 154.488281 Z M 320.535156 166.472656 L 328.476562 166.472656 C 328.832031 166.472656 329.117188 166.1875 329.1875 165.835938 L 330.324219 158.246094 C 330.324219 158.035156 330.324219 157.820312 330.179688 157.679688 C 330.039062 157.539062 329.824219 157.464844 329.613281 157.464844 L 321.671875 157.464844 C 321.316406 157.464844 321.03125 157.75 320.960938 158.105469 L 319.828125 165.691406 C 319.828125 165.90625 319.828125 166.117188 319.96875 166.261719 C 320.109375 166.402344 320.324219 166.472656 320.535156 166.472656 Z M 322.238281 158.882812 L 328.691406 158.882812 L 327.769531 165.054688 L 321.316406 165.054688 Z M 318.976562 177.039062 L 326.917969 177.039062 C 327.273438 177.039062 327.554688 176.757812 327.628906 176.402344 L 328.761719 168.8125 C 328.761719 168.601562 328.761719 168.386719 328.621094 168.246094 C 328.476562 168.105469 328.265625 168.03125 328.054688 168.03125 L 320.109375 168.03125 C 319.753906 168.03125 319.472656 168.316406 319.402344 168.671875 L 318.265625 176.257812 C 318.265625 176.472656 318.265625 176.683594 318.410156 176.828125 C 318.550781 176.96875 318.761719 177.039062 318.976562 177.039062 Z M 320.675781 169.453125 L 327.132812 169.453125 L 326.210938 175.621094 L 319.753906 175.621094 Z M 317.414062 187.605469 L 325.359375 187.605469 C 325.710938 187.605469 325.996094 187.324219 326.066406 186.96875 L 327.203125 179.378906 C 327.203125 179.167969 327.203125 178.953125 327.058594 178.8125 C 326.917969 178.671875 326.707031 178.601562 326.492188 178.601562 L 318.550781 178.601562 C 318.195312 178.601562 317.910156 178.882812 317.839844 179.238281 L 316.707031 186.828125 C 316.707031 187.039062 316.707031 187.25 316.847656 187.394531 C 317.0625 187.535156 317.203125 187.605469 317.414062 187.605469 Z M 319.1875 180.019531 L 325.640625 180.019531 L 324.71875 186.1875 L 318.265625 186.1875 Z M 325.429688 189.378906 C 325.289062 189.238281 325.074219 189.167969 324.863281 189.167969 L 316.917969 189.167969 C 316.5625 189.167969 316.28125 189.449219 316.210938 189.804688 L 315.074219 197.394531 C 315.074219 197.605469 315.074219 197.820312 315.21875 197.960938 C 315.359375 198.101562 315.570312 198.171875 315.785156 198.171875 L 323.726562 198.171875 C 324.082031 198.171875 324.367188 197.890625 324.4375 197.535156 L 325.570312 189.945312 C 325.640625 189.734375 325.570312 189.59375 325.429688 189.378906 Z M 323.230469 196.753906 L 316.777344 196.753906 L 317.699219 190.585938 L 324.152344 190.585938 Z M 361.878906 94.847656 L 360.460938 92.578125 C 360.460938 92.578125 360.460938 92.578125 360.390625 92.507812 C 360.390625 92.507812 360.390625 92.507812 360.390625 92.433594 C 360.390625 92.433594 360.320312 92.433594 360.320312 92.363281 C 360.25 92.292969 360.25 92.292969 360.179688 92.292969 C 360.109375 92.292969 360.109375 92.222656 360.035156 92.222656 C 359.964844 92.222656 359.894531 92.222656 359.894531 92.222656 C 359.894531 92.222656 359.824219 92.222656 359.824219 92.222656 L 143.242188 92.222656 C 142.886719 92.222656 142.605469 92.507812 142.53125 92.859375 L 123.882812 220.796875 L 13.464844 275.898438 C 13.390625 275.898438 13.390625 275.96875 13.320312 275.96875 C 13.320312 275.96875 13.320312 275.96875 13.25 275.96875 C 13.179688 276.039062 13.109375 276.113281 13.109375 276.183594 C 13.109375 276.183594 13.109375 276.253906 13.109375 276.253906 C 13.109375 276.324219 13.109375 276.394531 13.039062 276.464844 L 13.039062 281.289062 C 13.039062 281.714844 13.320312 281.996094 13.746094 281.996094 L 271.601562 282.777344 C 271.671875 282.777344 271.746094 282.777344 271.886719 282.707031 C 271.886719 282.707031 271.957031 282.707031 271.957031 282.636719 C 272.027344 282.636719 272.027344 282.636719 272.097656 282.566406 L 341.597656 225.761719 C 341.738281 225.617188 341.882812 225.40625 341.882812 225.191406 L 341.882812 221.433594 L 344.363281 218.597656 C 344.433594 218.527344 344.507812 218.382812 344.507812 218.242188 L 361.953125 95.34375 C 361.953125 95.128906 361.953125 94.988281 361.878906 94.847656 Z M 143.878906 93.640625 L 359.042969 93.640625 L 358.972656 93.996094 L 352.804688 136.121094 L 340.535156 220.511719 L 125.371094 220.511719 Z M 124.734375 221.929688 L 339.117188 221.929688 L 292.664062 259.515625 L 271.460938 276.679688 L 180.332031 276.394531 L 16.726562 275.828125 Z M 14.457031 277.246094 L 136.71875 277.671875 L 270.964844 278.097656 L 270.894531 281.429688 L 14.457031 280.648438 Z M 272.382812 280.578125 L 272.453125 277.742188 L 312.949219 244.980469 L 340.464844 222.710938 L 340.464844 224.910156 Z M 343.085938 217.957031 L 342.164062 219.023438 L 360.25 94.988281 L 360.53125 95.414062 Z M 290.539062 251.148438 L 323.867188 227.035156 C 324.152344 226.824219 324.222656 226.539062 324.152344 226.257812 C 324.082031 225.972656 323.796875 225.761719 323.441406 225.761719 L 128.277344 225.761719 C 128.136719 225.761719 128.066406 225.761719 127.925781 225.832031 L 80.410156 249.871094 C 80.125 250.015625 79.984375 250.367188 80.054688 250.652344 C 80.125 250.9375 80.410156 251.21875 80.765625 251.21875 L 290.113281 251.289062 C 290.253906 251.289062 290.394531 251.21875 290.539062 251.148438 Z M 83.742188 249.800781 L 128.421875 227.179688 L 321.316406 227.179688 L 289.898438 249.871094 Z M 188.0625 273.417969 C 188.203125 273.417969 188.34375 273.34375 188.488281 273.273438 L 213.097656 255.191406 C 213.308594 254.976562 213.449219 254.695312 213.378906 254.410156 C 213.308594 254.125 213.023438 253.914062 212.671875 253.914062 L 147.640625 253.914062 C 147.496094 253.914062 147.355469 253.914062 147.285156 253.984375 L 117.355469 271.5 C 117.074219 271.644531 116.929688 272 117.003906 272.28125 C 117.074219 272.566406 117.355469 272.777344 117.710938 272.777344 Z M 147.851562 255.332031 L 210.542969 255.332031 L 187.847656 272 L 120.335938 271.429688 Z M 147.851562 255.332031 " fill-opacity="1" fill-rule="nonzero"/></g></svg>