<svg xmlns="http://www.w3.org/2000/svg" xmlns:xlink="http://www.w3.org/1999/xlink" width="500" zoomAndPan="magnify" viewBox="0 0 375 374.999991" height="500" preserveAspectRatio="xMidYMid meet" version="1.0"><defs><clipPath id="bf46f2b758"><path d="M 154 19.359375 L 368 19.359375 L 368 178 L 154 178 Z M 154 19.359375 " clip-rule="nonzero"/></clipPath><clipPath id="0916e7799b"><path d="M 13.410156 136 L 175 136 L 175 317 L 13.410156 317 Z M 13.410156 136 " clip-rule="nonzero"/></clipPath><clipPath id="975371bfe6"><path d="M 153 302 L 255 302 L 255 355.359375 L 153 355.359375 Z M 153 302 " clip-rule="nonzero"/></clipPath><clipPath id="56ed468b9f"><path d="M 274 302 L 374.910156 302 L 374.910156 355.359375 L 274 355.359375 Z M 274 302 " clip-rule="nonzero"/></clipPath><clipPath id="31560133d3"><path d="M 13.410156 12.378906 L 364.410156 12.378906 L 364.410156 364 L 13.410156 364 Z M 13.410156 12.378906 " clip-rule="nonzero"/></clipPath></defs><g clip-path="url(#bf46f2b758)"><path fill="#ffffff" d="M 349.542969 177.875 L 172.066406 177.875 C 162.367188 177.875 154.46875 169.984375 154.46875 160.28125 L 154.46875 37.199219 C 154.46875 27.492188 162.367188 19.597656 172.066406 19.597656 L 349.542969 19.597656 C 359.242188 19.597656 367.136719 27.492188 367.136719 37.199219 L 367.136719 160.28125 C 367.136719 169.984375 359.242188 177.875 349.542969 177.875 Z M 288.175781 72.507812 L 203.257812 72.507812 C 200.914062 72.507812 199.019531 70.617188 199.019531 68.269531 C 199.019531 65.933594 200.914062 64.03125 203.257812 64.03125 L 288.175781 64.03125 C 290.511719 64.03125 292.414062 65.933594 292.414062 68.269531 C 292.414062 70.617188 290.511719 72.507812 288.175781 72.507812 Z M 318.351562 102.972656 L 203.257812 102.972656 C 200.914062 102.972656 199.019531 101.082031 199.019531 98.734375 C 199.019531 96.398438 200.914062 94.496094 203.257812 94.496094 L 318.351562 94.496094 C 320.6875 94.496094 322.589844 96.398438 322.589844 98.734375 C 322.589844 101.082031 320.695312 102.972656 318.351562 102.972656 Z M 292.609375 133.4375 L 203.257812 133.4375 C 200.914062 133.4375 199.019531 131.546875 199.019531 129.199219 C 199.019531 126.863281 200.914062 124.960938 203.257812 124.960938 L 292.609375 124.960938 C 294.957031 124.960938 296.847656 126.863281 296.847656 129.199219 C 296.847656 131.546875 294.957031 133.4375 292.609375 133.4375 Z M 292.609375 133.4375 " fill-opacity="1" fill-rule="evenodd"/></g><g clip-path="url(#0916e7799b)"><path fill="#ffffff" d="M 65.160156 316.328125 L 54.464844 316.328125 C 46.53125 316.328125 40.074219 309.871094 40.074219 301.9375 L 40.074219 259.464844 L 30.992188 259.464844 C 21.308594 259.464844 13.433594 251.589844 13.433594 241.90625 L 13.433594 172.34375 C 13.433594 152.328125 29.71875 136.039062 49.738281 136.039062 L 99.628906 136.039062 C 119.644531 136.039062 135.933594 152.328125 135.933594 172.34375 L 135.933594 185.921875 L 153.078125 185.921875 C 164.8125 185.921875 174.359375 195.46875 174.359375 207.203125 C 174.359375 218.9375 164.8125 228.484375 153.078125 228.484375 L 110.527344 228.484375 L 110.527344 291.675781 C 110.527344 291.710938 110.527344 291.753906 110.527344 291.796875 L 110.527344 301.945312 C 110.527344 309.871094 104.078125 316.328125 96.144531 316.328125 L 85.453125 316.328125 C 81.496094 316.328125 77.90625 314.722656 75.300781 312.125 C 72.703125 314.722656 69.113281 316.328125 65.160156 316.328125 Z M 65.160156 316.328125 " fill-opacity="1" fill-rule="evenodd"/></g><path fill="#ffffff" d="M 170.121094 211.441406 C 169.035156 211.441406 167.953125 211.023438 167.121094 210.199219 C 165.46875 208.546875 165.46875 205.859375 167.121094 204.207031 L 220.492188 150.828125 C 222.152344 149.175781 224.835938 149.175781 226.488281 150.828125 C 228.140625 152.488281 228.140625 155.171875 226.488281 156.824219 L 173.117188 210.199219 C 172.289062 211.023438 171.203125 211.441406 170.121094 211.441406 Z M 170.121094 211.441406 " fill-opacity="1" fill-rule="evenodd"/><path fill="#ffffff" d="M 74.679688 118.324219 C 56.972656 118.324219 42.554688 103.914062 42.554688 86.199219 C 42.554688 68.488281 56.972656 54.074219 74.679688 54.074219 C 92.394531 54.074219 106.804688 68.488281 106.804688 86.199219 C 106.804688 103.914062 92.394531 118.324219 74.679688 118.324219 Z M 74.679688 118.324219 " fill-opacity="1" fill-rule="evenodd"/><g clip-path="url(#975371bfe6)"><path fill="#ffffff" d="M 249.996094 355.464844 L 158.121094 355.464844 C 155.777344 355.464844 153.882812 353.566406 153.882812 351.226562 L 153.882812 328.984375 C 153.882812 314.386719 165.757812 302.511719 180.359375 302.511719 L 227.761719 302.511719 C 242.359375 302.511719 254.234375 314.386719 254.234375 328.984375 L 254.234375 351.226562 C 254.234375 353.566406 252.34375 355.464844 249.996094 355.464844 Z M 249.996094 355.464844 " fill-opacity="1" fill-rule="evenodd"/></g><path fill="#ffffff" d="M 204.054688 288.378906 C 189.660156 288.378906 177.941406 276.660156 177.941406 262.261719 C 177.941406 247.859375 189.660156 236.148438 204.054688 236.148438 C 218.457031 236.148438 230.167969 247.859375 230.167969 262.261719 C 230.167969 276.660156 218.457031 288.378906 204.054688 288.378906 Z M 204.054688 288.378906 " fill-opacity="1" fill-rule="evenodd"/><path fill="#ffffff" d="M 324.871094 288.378906 C 310.46875 288.378906 298.757812 276.660156 298.757812 262.261719 C 298.757812 247.859375 310.46875 236.148438 324.871094 236.148438 C 339.265625 236.148438 350.984375 247.859375 350.984375 262.261719 C 350.984375 276.660156 339.265625 288.378906 324.871094 288.378906 Z M 324.871094 288.378906 " fill-opacity="1" fill-rule="evenodd"/><g clip-path="url(#56ed468b9f)"><path fill="#ffffff" d="M 370.804688 355.464844 L 278.929688 355.464844 C 276.589844 355.464844 274.691406 353.566406 274.691406 351.226562 L 274.691406 328.984375 C 274.691406 314.386719 286.566406 302.511719 301.164062 302.511719 L 348.566406 302.511719 C 363.167969 302.511719 375.042969 314.386719 375.042969 328.984375 L 375.042969 351.226562 C 375.042969 353.566406 373.148438 355.464844 370.804688 355.464844 Z M 370.804688 355.464844 " fill-opacity="1" fill-rule="evenodd"/></g><g clip-path="url(#31560133d3)"><path fill="#ffc229" d="M 364.347656 187.71875 C 364.347656 284.554688 285.800781 363.058594 188.910156 363.058594 C 92.023438 363.058594 13.472656 284.554688 13.472656 187.71875 C 13.472656 90.882812 92.023438 12.378906 188.910156 12.378906 C 285.800781 12.378906 364.347656 90.882812 364.347656 187.71875 Z M 364.347656 187.71875 " fill-opacity="1" fill-rule="nonzero"/></g><path fill="#f2e6c2" d="M 238.285156 136.878906 C 238.0625 137.988281 237.523438 139.007812 237.070312 140.050781 C 236.046875 142.390625 235.433594 144.882812 235.054688 147.398438 C 234.636719 150.144531 234.460938 153.023438 233.0625 155.433594 C 231.8125 157.578125 229.199219 159.195312 226.828125 158.695312 C 226.089844 165.902344 225.695312 171.625 225.207031 173.761719 C 224.507812 176.84375 223.046875 180.183594 221.265625 183.21875 C 221.328125 184.738281 221.238281 186.355469 221.292969 187.097656 C 221.488281 189.828125 221.683594 192.558594 221.878906 195.292969 C 221.945312 196.15625 222.007812 197.023438 222.042969 197.890625 L 222.042969 197.90625 C 220.921875 201.683594 220.027344 206.371094 217.511719 209.570312 C 214.800781 213.027344 211.304688 215.789062 207.753906 218.386719 C 207.714844 218.421875 207.664062 218.449219 207.621094 218.476562 C 201.410156 223.023438 194.921875 227.179688 188.199219 230.925781 C 187.933594 231.078125 187.660156 231.234375 187.386719 231.371094 C 186.464844 231.890625 185.535156 232.390625 184.605469 232.882812 C 183.402344 231.882812 182.207031 230.882812 181.019531 229.898438 C 177.6875 227.125 174.40625 224.378906 171.144531 221.53125 L 171.136719 221.53125 C 169.863281 220.417969 168.605469 219.300781 167.339844 218.164062 C 164.523438 215.621094 161.6875 213.050781 159.472656 209.976562 C 158.183594 208.195312 157.121094 206.253906 156.3125 204.207031 C 155.914062 203.214844 155.578125 202.195312 155.296875 201.160156 C 155.089844 200.382812 154.695312 198.175781 154.640625 197.875 C 154.90625 193.019531 154.996094 188.179688 154.5 183.367188 C 153.816406 182.390625 153.179688 181.417969 152.640625 180.515625 C 151.082031 177.890625 150.152344 174.878906 149.824219 171.839844 C 149.390625 167.773438 148.875 164.050781 148.292969 160.433594 C 147.917969 157.960938 147.503906 155.53125 147.085938 153.0625 C 147.503906 155.53125 147.917969 157.960938 148.292969 160.433594 C 145.8125 160.65625 143.304688 158.988281 141.941406 156.808594 C 140.417969 154.375 139.96875 151.441406 139.445312 148.621094 C 138.894531 145.652344 138.230469 142.703125 137.441406 139.785156 C 136.867188 137.679688 134.761719 133.824219 136.175781 131.8125 C 139.941406 126.421875 144.261719 138.707031 144.875 140.746094 C 145.191406 141.796875 145.503906 142.851562 145.800781 143.898438 C 146.238281 147.078125 146.742188 150.253906 147.308594 153.417969 C 146.742188 150.253906 146.238281 147.078125 145.800781 143.898438 C 145.261719 140.035156 144.8125 136.164062 144.464844 132.28125 C 144.261719 129.988281 144.085938 127.671875 144.445312 125.402344 C 145.324219 119.875 147.804688 115.523438 148.316406 109.957031 C 148.390625 109.144531 148.398438 108.304688 148.761719 107.578125 C 149.21875 106.664062 151.824219 105.308594 153.921875 103.695312 C 157.234375 101.140625 158.03125 99.023438 160.757812 95.277344 C 160.757812 95.277344 166.824219 92.699219 169.5 91.5625 C 172.792969 90.164062 178.070312 86.191406 178.070312 86.191406 C 180.480469 87.53125 183.410156 88.835938 183.410156 88.835938 C 187.640625 90.75 204.625 89.816406 210.824219 91.671875 C 216.074219 93.253906 218.707031 97.882812 223.117188 102.597656 C 224.160156 103.71875 225.460938 104.738281 225.773438 106.230469 C 226.011719 107.347656 225.703125 108.507812 225.765625 109.65625 C 225.835938 110.941406 226.367188 112.15625 226.828125 113.355469 C 229.917969 121.425781 229.738281 130.316406 228.980469 139.097656 C 229.207031 138.46875 229.429688 137.84375 229.652344 137.21875 C 230.792969 134.0625 231.925781 130.738281 233.628906 127.824219 C 234.875 125.699219 238.011719 125.167969 238.152344 128.355469 C 238.230469 130.242188 238.3125 132.132812 238.398438 134.027344 C 238.433594 134.976562 238.472656 135.941406 238.285156 136.878906 Z M 238.285156 136.878906 " fill-opacity="1" fill-rule="nonzero"/><path fill="#282828" d="M 319.726562 303.507812 C 250.300781 382.144531 126.835938 381.667969 57.941406 303.332031 C 60.589844 285.414062 63.496094 267.523438 67.621094 249.890625 C 68.382812 246.636719 69.25 243.269531 71.386719 240.707031 C 74.234375 237.304688 78.777344 235.933594 83.074219 234.859375 C 101.917969 230.15625 122.015625 227.648438 138.355469 216.417969 C 144.246094 208.550781 149.851562 201.375 154.632812 197.660156 C 154.632812 197.722656 154.628906 197.785156 154.628906 197.847656 L 154.632812 197.847656 C 154.632812 197.847656 154.632812 197.847656 154.640625 197.871094 C 156.144531 208.921875 163.257812 214.613281 171.136719 221.53125 L 171.144531 221.53125 C 175.574219 225.398438 180.078125 229.109375 184.605469 232.882812 C 185.535156 232.390625 186.464844 231.890625 187.386719 231.371094 C 194.40625 227.515625 201.15625 223.207031 207.621094 218.476562 C 207.664062 218.449219 207.714844 218.421875 207.753906 218.386719 C 211.304688 215.789062 214.800781 213.027344 217.511719 209.570312 C 220.027344 206.371094 220.921875 201.683594 222.042969 197.90625 C 222.042969 197.820312 222.042969 197.742188 222.042969 197.660156 C 226.453125 199.574219 228.746094 204.910156 232.09375 208.632812 C 233.636719 210.359375 235.488281 211.769531 237.195312 213.328125 C 239.730469 214.140625 243.101562 215.242188 243.835938 215.613281 C 249.34375 218.386719 254.957031 220.929688 260.632812 223.324219 C 265.203125 225.253906 269.820312 227.082031 274.457031 228.859375 C 284.277344 232.601562 294.699219 237.6875 305.148438 239.246094 C 309.335938 239.476562 310.921875 247.320312 311.976562 250.542969 C 313.5 255.171875 314.074219 260.042969 314.414062 264.964844 C 315.296875 277.867188 317.296875 290.703125 319.734375 303.507812 Z M 319.726562 303.507812 " fill-opacity="1" fill-rule="nonzero"/><path fill="#7f461b" d="M 241.753906 116.171875 C 241.585938 116.507812 241.667969 116.90625 241.753906 117.269531 C 242.164062 118.996094 242.464844 120.742188 242.648438 122.507812 C 242.683594 122.851562 242.695312 123.234375 242.464844 123.488281 C 242.289062 123.667969 242.03125 123.730469 241.785156 123.792969 C 238.710938 124.597656 236.441406 127.292969 235.183594 130.214844 C 233.921875 133.132812 233.492188 136.324219 232.785156 139.425781 C 232.078125 142.527344 230.289062 145.980469 228.085938 148.269531 C 229.207031 136.65625 231.003906 124.253906 226.828125 113.355469 C 226.367188 112.148438 225.835938 110.941406 225.765625 109.648438 C 225.703125 108.503906 226.011719 107.34375 225.773438 106.226562 C 225.460938 104.730469 224.152344 103.71875 223.109375 102.597656 C 218.699219 97.878906 216.074219 93.246094 210.824219 91.671875 C 204.625 89.816406 187.640625 90.75 183.410156 88.835938 C 183.410156 88.835938 180.480469 87.53125 178.070312 86.191406 C 178.070312 86.191406 172.792969 90.164062 169.5 91.5625 C 166.824219 92.699219 160.757812 95.277344 160.757812 95.277344 C 158.023438 99.023438 157.234375 101.140625 153.921875 103.6875 C 151.816406 105.308594 149.21875 106.65625 148.761719 107.574219 C 148.398438 108.300781 148.390625 109.144531 148.316406 109.949219 C 147.796875 115.515625 145.324219 119.867188 144.445312 125.394531 C 144.078125 127.664062 144.253906 129.984375 144.464844 132.28125 C 145.109375 139.363281 146.058594 146.421875 147.308594 153.417969 C 143.835938 148.269531 143.988281 141.363281 140.730469 136.082031 C 139.648438 134.328125 138.207031 132.785156 137.371094 130.898438 C 136.683594 129.367188 136.441406 127.683594 136.195312 126.023438 C 135.113281 118.570312 134.230469 110.683594 133.140625 103.234375 C 130.667969 101.132812 128.984375 98.121094 128.480469 94.90625 C 129.535156 97.085938 130.953125 99.085938 132.644531 100.816406 C 130.785156 94.238281 129.792969 86.820312 133.113281 80.847656 C 133.175781 82.367188 133.246094 83.890625 133.308594 85.414062 C 134.492188 81.375 135.824219 77.085938 139.070312 74.40625 C 141.390625 72.484375 144.394531 71.632812 146.996094 70.101562 C 151.144531 67.648438 154.125 63.527344 158.339844 61.1875 C 154.339844 62.488281 150.511719 64.277344 146.945312 66.496094 C 155.675781 58.625 167.070312 53.753906 178.796875 52.902344 C 190.527344 52.042969 202.503906 55.203125 212.285156 61.726562 C 209.503906 54.976562 201.703125 50.703125 194.507812 51.996094 C 201.171875 49.878906 208.707031 52.066406 214.144531 56.453125 C 219.589844 60.839844 223.027344 67.671875 225.445312 74.230469 C 228.199219 76.074219 238.628906 82.328125 242.847656 98.074219 C 244.332031 103.597656 244.078125 109.054688 242.800781 114.425781 C 242.710938 114.816406 242.605469 115.230469 242.347656 115.535156 C 242.152344 115.765625 241.878906 115.929688 241.746094 116.195312 Z M 214.199219 126.265625 C 211.003906 125.8125 207.753906 126.105469 204.527344 126.035156 C 203.421875 126.015625 202.296875 125.953125 201.242188 126.257812 C 200.410156 126.503906 199.660156 126.972656 198.953125 127.46875 C 197.886719 128.214844 195.789062 129.5 195.382812 130.714844 C 201.078125 130.457031 204.652344 130.3125 208.984375 129.996094 C 213.507812 129.667969 218.105469 129.5625 222.542969 130.652344 C 220.652344 128.039062 217.402344 126.722656 214.199219 126.265625 Z M 173.316406 127.117188 C 172.703125 126.910156 172.058594 126.761719 171.402344 126.679688 C 167.65625 126.195312 163.414062 126.226562 159.660156 126.644531 C 156.675781 126.980469 153.808594 129.953125 151.488281 131.652344 C 157.324219 130.285156 163.363281 130.117188 169.332031 130.351562 C 170.800781 130.410156 172.269531 130.492188 173.730469 130.589844 C 174.484375 130.640625 178.160156 130.878906 178.160156 130.878906 C 177.015625 129.082031 175.289062 127.789062 173.308594 127.117188 Z M 184.554688 153.679688 L 184.5625 153.679688 C 184.757812 153.679688 184.90625 153.511719 184.90625 153.320312 C 184.808594 149.730469 184.613281 146.09375 184.320312 142.507812 C 184.304688 142.320312 184.128906 142.171875 183.941406 142.1875 C 183.746094 142.199219 183.605469 142.367188 183.621094 142.5625 C 183.914062 146.132812 184.109375 149.765625 184.199219 153.34375 C 184.199219 153.53125 184.359375 153.683594 184.550781 153.683594 Z M 193.117188 133.523438 C 192.957031 133.425781 192.742188 133.46875 192.636719 133.636719 C 190.957031 136.324219 190.558594 138.148438 190.925781 141.445312 C 191.113281 143.144531 191.460938 144.835938 191.796875 146.46875 C 192.089844 147.875 192.386719 149.328125 192.582031 150.765625 C 192.601562 150.941406 192.753906 151.066406 192.921875 151.066406 C 192.9375 151.066406 192.949219 151.066406 192.972656 151.066406 C 193.160156 151.039062 193.300781 150.863281 193.273438 150.675781 C 193.078125 149.214844 192.777344 147.746094 192.484375 146.328125 C 192.148438 144.707031 191.804688 143.03125 191.617188 141.371094 C 191.265625 138.21875 191.621094 136.5625 193.222656 134.007812 C 193.328125 133.847656 193.28125 133.628906 193.113281 133.523438 Z M 142.855469 148.214844 C 142.242188 147.664062 141.660156 147.140625 141.347656 146.457031 C 140.992188 145.671875 141.039062 144.722656 141.480469 143.976562 C 141.578125 143.808594 141.523438 143.597656 141.359375 143.492188 C 141.191406 143.394531 140.984375 143.453125 140.878906 143.613281 C 140.320312 144.546875 140.257812 145.75 140.710938 146.742188 C 141.089844 147.558594 141.746094 148.152344 142.382812 148.726562 C 142.988281 149.269531 143.554688 149.789062 143.878906 150.457031 C 143.941406 150.582031 144.066406 150.660156 144.191406 150.660156 C 144.242188 150.660156 144.289062 150.648438 144.339844 150.625 C 144.511719 150.542969 144.589844 150.332031 144.507812 150.15625 C 144.128906 149.359375 143.480469 148.773438 142.851562 148.203125 Z M 180.867188 163.011719 C 180.71875 163.03125 180.601562 163.136719 180.566406 163.277344 C 180.53125 163.417969 180.585938 163.570312 180.710938 163.648438 C 181.667969 164.289062 182.699219 164.828125 183.773438 165.246094 C 183.925781 165.308594 184.09375 165.246094 184.1875 165.121094 C 184.304688 165.21875 184.417969 165.324219 184.535156 165.421875 C 185.066406 165.882812 185.613281 166.355469 186.242188 166.71875 C 186.925781 167.117188 187.640625 167.320312 188.304688 167.320312 C 188.800781 167.320312 189.265625 167.210938 189.671875 166.980469 C 190.246094 166.65625 190.628906 166.148438 191 165.660156 C 191.21875 165.371094 191.421875 165.105469 191.65625 164.875 C 192.441406 164.113281 193.636719 163.816406 194.699219 164.058594 C 194.238281 164.21875 193.761719 164.351562 193.292969 164.472656 C 193.105469 164.519531 192.992188 164.707031 193.035156 164.890625 C 193.082031 165.078125 193.273438 165.191406 193.453125 165.148438 C 194.25 164.953125 195.046875 164.695312 195.808594 164.386719 C 195.933594 164.339844 196.019531 164.21875 196.027344 164.085938 C 196.035156 163.953125 195.964844 163.828125 195.851562 163.757812 C 194.382812 162.933594 192.371094 163.199219 191.167969 164.375 C 190.894531 164.640625 190.664062 164.9375 190.441406 165.234375 C 190.097656 165.6875 189.769531 166.113281 189.324219 166.363281 C 188.46875 166.851562 187.351562 166.554688 186.589844 166.113281 C 186.015625 165.777344 185.519531 165.34375 184.988281 164.890625 C 184.695312 164.632812 184.394531 164.375 184.089844 164.136719 C 182.957031 163.261719 181.867188 162.878906 180.859375 162.996094 Z M 138.488281 134.867188 C 138.160156 134.515625 137.648438 134.441406 137.230469 134.664062 C 136.804688 134.886719 136.59375 135.335938 136.699219 135.800781 C 136.742188 135.984375 136.789062 136.160156 136.839844 136.332031 L 137.707031 139.265625 C 137.746094 139.421875 137.886719 139.519531 138.039062 139.519531 C 138.074219 139.519531 138.105469 139.519531 138.140625 139.503906 C 138.320312 139.449219 138.433594 139.253906 138.375 139.070312 L 137.507812 136.136719 C 137.460938 135.984375 137.417969 135.816406 137.382812 135.65625 C 137.335938 135.425781 137.503906 135.3125 137.558594 135.285156 C 137.675781 135.222656 137.851562 135.207031 137.984375 135.347656 C 138.789062 136.191406 139.375 137.226562 139.675781 138.335938 C 139.726562 138.527344 139.914062 138.636719 140.101562 138.582031 C 140.292969 138.535156 140.394531 138.335938 140.347656 138.15625 C 140.011719 136.933594 139.367188 135.796875 138.488281 134.867188 Z M 197.214844 165.847656 L 195.675781 166.859375 C 195.515625 166.964844 195.472656 167.179688 195.578125 167.34375 C 195.648438 167.445312 195.753906 167.496094 195.871094 167.496094 C 195.933594 167.496094 196.003906 167.476562 196.066406 167.441406 L 197.605469 166.425781 C 198.039062 166.140625 198.488281 165.847656 198.871094 165.457031 C 199.683594 164.632812 200.171875 163.402344 200.234375 161.984375 C 200.289062 160.746094 200.050781 159.539062 199.816406 158.371094 C 199.78125 158.183594 199.585938 158.058594 199.402344 158.101562 C 199.214844 158.136719 199.085938 158.324219 199.128906 158.511719 C 199.351562 159.636719 199.589844 160.804688 199.535156 161.949219 C 199.480469 163.191406 199.066406 164.261719 198.367188 164.960938 C 198.03125 165.296875 197.621094 165.574219 197.214844 165.839844 Z M 233.492188 139.875 C 233.300781 139.917969 233.183594 140.097656 233.21875 140.285156 C 233.363281 141.019531 233.449219 142.089844 232.988281 143.023438 C 232.839844 143.3125 232.652344 143.578125 232.457031 143.855469 C 232.378906 143.96875 232.296875 144.078125 232.21875 144.191406 C 231.617188 145.070312 231.191406 146.042969 230.769531 146.984375 C 230.671875 147.203125 230.539062 147.496094 230.574219 147.824219 C 230.605469 148.105469 230.738281 148.335938 230.882812 148.570312 C 231.582031 149.730469 231.890625 151.113281 231.757812 152.460938 C 231.734375 152.652344 231.875 152.824219 232.070312 152.847656 C 232.085938 152.847656 232.09375 152.847656 232.105469 152.847656 C 232.28125 152.847656 232.433594 152.714844 232.457031 152.53125 C 232.609375 151.039062 232.261719 149.507812 231.464844 148.171875 C 231.371094 148.027344 231.289062 147.886719 231.273438 147.761719 C 231.261719 147.628906 231.332031 147.46875 231.414062 147.273438 C 231.820312 146.355469 232.238281 145.421875 232.804688 144.589844 C 232.875 144.484375 232.953125 144.375 233.027344 144.269531 C 233.238281 143.976562 233.449219 143.675781 233.617188 143.339844 C 234.167969 142.230469 234.078125 140.992188 233.910156 140.152344 C 233.867188 139.964844 233.679688 139.847656 233.496094 139.882812 Z M 180.355469 165.730469 C 178.832031 165.273438 177.558594 163.898438 176.9375 162.039062 C 176.601562 161.035156 176.726562 160.476562 176.894531 159.707031 C 177 159.230469 177.121094 158.695312 177.148438 157.96875 C 177.148438 157.773438 177 157.609375 176.8125 157.605469 C 176.636719 157.589844 176.457031 157.75 176.449219 157.941406 C 176.425781 158.601562 176.316406 159.085938 176.210938 159.546875 C 176.027344 160.355469 175.875 161.0625 176.265625 162.25 C 176.957031 164.324219 178.40625 165.867188 180.144531 166.386719 C 180.179688 166.390625 180.214844 166.398438 180.242188 166.398438 C 180.398438 166.398438 180.539062 166.300781 180.578125 166.148438 C 180.636719 165.964844 180.53125 165.769531 180.34375 165.714844 Z M 206.59375 132.183594 C 204.726562 132.183594 203.210938 134.558594 203.210938 137.484375 C 203.210938 140.414062 204.726562 142.789062 206.59375 142.789062 C 208.460938 142.789062 209.976562 140.414062 209.976562 137.484375 C 209.976562 134.558594 208.460938 132.183594 206.59375 132.183594 Z M 171.03125 137.484375 C 171.03125 134.558594 169.515625 132.183594 167.648438 132.183594 C 165.78125 132.183594 164.265625 134.558594 164.265625 137.484375 C 164.265625 140.414062 165.78125 142.789062 167.648438 142.789062 C 169.515625 142.789062 171.03125 140.414062 171.03125 137.484375 Z M 207.027344 175.269531 C 206.523438 174.691406 202.75 175 201.996094 175 C 200.589844 175 199.179688 174.949219 197.773438 174.835938 C 195.320312 174.648438 194.972656 174.605469 192.511719 174.65625 C 190.425781 174.699219 189.050781 175.035156 186.976562 174.878906 C 185.367188 174.761719 183.78125 174.34375 182.171875 174.285156 C 178.601562 174.152344 172.578125 174.488281 168.648438 174.605469 C 168.136719 174.558594 167.621094 174.558594 167.105469 174.628906 C 170.410156 176.4375 173.707031 178.238281 177.015625 180.050781 C 178.433594 180.824219 179.859375 181.601562 181.382812 182.125 C 183.921875 182.984375 186.644531 183.09375 189.332031 183.136719 C 190.699219 183.15625 192.085938 183.15625 193.425781 182.878906 C 194.902344 182.570312 196.277344 181.933594 197.632812 181.273438 C 199.367188 180.417969 201.078125 179.511719 202.765625 178.5625 C 204.03125 177.847656 206.921875 176.71875 207.566406 175.472656 C 207.441406 175.367188 207.25 175.320312 207.042969 175.292969 C 207.042969 175.292969 207.042969 175.285156 207.035156 175.277344 Z M 207.027344 175.269531 " fill-opacity="1" fill-rule="nonzero"/><path fill="#512a14" d="M 315.109375 264.917969 C 314.835938 259.980469 313.976562 254.035156 312.144531 248.691406 C 310.992188 244.742188 309.25 238.769531 305.246094 238.554688 C 297.347656 237.378906 289.429688 234.144531 281.773438 231.03125 C 275.035156 228.257812 266.929688 225.28125 260.894531 222.683594 C 254.746094 220.082031 249.265625 217.570312 244.140625 214.992188 C 243.527344 214.683594 241.304688 213.914062 237.542969 212.707031 C 234.546875 210.207031 231.730469 207.59375 229.609375 204.246094 C 227.660156 201.496094 225.632812 198.660156 222.707031 197.21875 C 222.585938 194.273438 221.878906 187.710938 221.992188 184.742188 C 224.152344 181.242188 225.808594 177.4375 226.570312 174.078125 C 227.109375 171.730469 227.648438 164.269531 228.085938 160.167969 C 230.476562 160.019531 232.929688 158.433594 234.273438 156.128906 C 235.824219 153.453125 236 150.507812 236.441406 147.609375 C 236.84375 144.917969 237.46875 142.632812 238.347656 140.609375 C 238.851562 139.484375 239.390625 138.441406 239.65625 137.148438 C 239.878906 136.046875 239.828125 135 239.796875 133.964844 C 239.5625 131.617188 239.863281 129.027344 239.25 126.761719 C 240.136719 125.964844 241.128906 125.414062 242.179688 125.136719 C 242.507812 125.050781 243.050781 124.910156 243.492188 124.4375 C 244.175781 123.695312 244.078125 122.726562 244.039062 122.363281 C 243.84375 120.484375 243.519531 118.601562 243.074219 116.773438 C 243.710938 116.269531 244.066406 115.277344 244.171875 114.734375 C 245.632812 108.621094 245.644531 103.046875 244.210938 97.695312 C 240.046875 82.152344 229.960938 75.507812 226.648438 73.328125 L 226.613281 73.300781 C 221.433594 59.457031 213.5 50.3125 199.898438 49.765625 C 197.886719 49.765625 195.933594 50.066406 194.097656 50.648438 C 193.355469 50.878906 192.957031 51.667969 193.183594 52.402344 C 176.527344 48.984375 158.578125 54.035156 146.015625 65.449219 C 145.058594 66.253906 145.722656 67.9375 146.953125 67.886719 C 147.820312 67.824219 148.503906 67.078125 149.28125 66.722656 C 143.101562 71.980469 137.496094 70.570312 133.796875 79.617188 C 133.148438 79.253906 132.261719 79.484375 131.902344 80.160156 C 129.722656 84.082031 129.046875 88.746094 129.863281 94.550781 C 129.3125 92.882812 126.878906 93.378906 127.101562 95.125 C 127.621094 98.472656 129.339844 101.648438 131.835938 103.941406 C 132.34375 107.503906 132.820312 111.210938 133.28125 114.804688 C 134.058594 119.980469 134.359375 125.203125 135.636719 130.269531 C 132.867188 132.875 135.113281 137.085938 136.089844 140.148438 C 136.847656 142.949219 137.515625 145.890625 138.070312 148.878906 C 138.628906 151.828125 139.082031 154.878906 140.753906 157.546875 C 142.234375 159.917969 144.660156 161.53125 147.097656 161.800781 C 147.636719 165.300781 148.078125 168.648438 148.433594 171.988281 C 148.988281 177.121094 150.902344 180.921875 153.957031 184.996094 C 154.285156 189.3125 154.164062 193.53125 153.96875 197.296875 C 149.050781 201.214844 143.324219 208.613281 137.867188 215.898438 C 122.117188 226.839844 101.28125 229.621094 82.90625 234.179688 C 73.386719 236.464844 68.941406 239.582031 66.941406 249.730469 C 62.882812 268.132812 59.21875 286.636719 57.417969 303.792969 C 97.445312 349.605469 161.296875 371.589844 220.9375 360.140625 L 220.945312 360.140625 C 259.113281 353.222656 294.558594 333.046875 320.25 303.96875 C 320.390625 303.808594 320.453125 303.589844 320.414062 303.375 C 317.5625 288.402344 315.875 276.183594 315.109375 264.917969 Z M 222.035156 200.515625 C 226.605469 209.332031 225.585938 219.714844 224.726562 229.285156 C 224.628906 229.488281 224.5 229.660156 224.367188 229.871094 C 224.355469 229.882812 224.339844 229.90625 224.328125 229.917969 C 224.1875 230.113281 224.039062 230.3125 223.878906 230.511719 C 223.867188 230.511719 223.859375 230.527344 223.851562 230.542969 C 220.761719 233.628906 218.929688 237.421875 217.210938 241.277344 C 214.332031 247.585938 211.628906 254.074219 209.152344 260.585938 C 204.8125 255.171875 200.359375 249.6875 195.726562 244.464844 C 193.453125 241.894531 191.292969 239.582031 189.121094 237.375 C 187.847656 236.082031 186.507812 234.753906 185.570312 233.1875 C 185.5625 233.183594 185.5625 233.175781 185.554688 233.167969 C 193.40625 228.96875 200.976562 224.207031 208.167969 218.953125 C 212.703125 215.542969 216.304688 212.8125 219 208.605469 C 220.496094 206.125 221.273438 203.289062 222.035156 200.515625 Z M 172.917969 240.878906 C 175.300781 237.367188 179.25 233.433594 184.171875 233.558594 C 185.179688 235.375 186.675781 236.898438 188.128906 238.351562 C 190.261719 240.523438 192.351562 242.757812 194.371094 245.042969 C 192.8125 248.332031 190.324219 251.394531 188.589844 254.515625 C 188.582031 254.523438 188.582031 254.53125 188.574219 254.53125 C 188.023438 255.710938 186.917969 255.746094 185.730469 255.613281 C 183.1875 255.382812 180.640625 255.164062 178.105469 254.933594 C 177.414062 254.933594 177.308594 254.59375 177.121094 254.019531 C 175.730469 249.660156 174.316406 245.230469 172.917969 240.878906 Z M 176.027344 255.082031 C 171.375 287.082031 172.164062 319.59375 171.457031 351.609375 C 167.726562 340.503906 165.152344 329.023438 162.691406 317.582031 C 156.800781 290.539062 150.453125 260.957031 153.25 231.636719 C 155.703125 235.695312 157.578125 239.992188 158.640625 244.644531 C 158.640625 244.644531 161.910156 256.871094 161.910156 256.871094 C 162.007812 257.246094 162.457031 257.5 162.824219 257.339844 C 166.984375 253.699219 168.976562 247.503906 171.855469 242.585938 C 171.890625 242.535156 171.917969 242.488281 171.949219 242.4375 C 173.324219 246.617188 174.601562 250.917969 176.027344 255.082031 Z M 238.285156 136.878906 C 238.0625 137.988281 237.523438 139.007812 237.070312 140.050781 C 236.046875 142.390625 235.433594 144.882812 235.054688 147.398438 C 234.511719 152 233.742188 157.917969 228.226562 158.757812 C 228.605469 155.125 228.988281 151.902344 229.410156 148.898438 C 231.601562 146.476562 233.398438 143.019531 234.148438 139.742188 C 235.078125 135.695312 235.523438 131.234375 238.117188 127.964844 C 238.179688 130.917969 238.632812 133.9375 238.285156 136.878906 Z M 141.941406 156.808594 C 140.417969 154.375 139.96875 151.441406 139.445312 148.621094 C 138.894531 145.652344 138.230469 142.703125 137.441406 139.785156 C 136.859375 137.652344 134.714844 133.761719 136.222656 131.742188 C 137.113281 133.621094 138.480469 135.109375 139.542969 136.816406 C 142.585938 141.832031 142.570312 148.46875 145.757812 153.59375 C 146.136719 155.78125 146.503906 158.042969 146.867188 160.363281 C 144.890625 159.992188 143.039062 158.566406 141.941406 156.808594 Z M 153.664062 182.144531 C 151.539062 179.078125 150.203125 175.550781 149.824219 171.839844 C 149.132812 165.433594 148.167969 159.574219 147.308594 153.417969 C 147.261719 152.847656 146.414062 151.734375 145.882812 150.777344 C 143.78125 146.035156 143.464844 140.511719 140.730469 136.082031 C 139.613281 134.273438 138.109375 132.6875 137.292969 130.714844 C 136.664062 129.230469 136.433594 127.613281 136.195312 126.023438 C 135.105469 118.570312 134.230469 110.6875 133.140625 103.234375 C 130.667969 101.132812 128.984375 98.121094 128.480469 94.90625 C 129.542969 97.085938 130.953125 99.09375 132.652344 100.816406 C 130.792969 94.238281 129.800781 86.820312 133.121094 80.839844 C 133.191406 82.363281 133.253906 83.886719 133.324219 85.40625 C 134.503906 81.371094 135.839844 77.085938 139.074219 74.398438 C 141.394531 72.476562 144.410156 71.625 147 70.09375 C 151.152344 67.644531 154.132812 63.523438 158.34375 61.179688 C 154.355469 62.480469 150.515625 64.269531 146.953125 66.484375 C 164.441406 50.304688 192.636719 48.238281 212.292969 61.710938 C 209.507812 54.964844 201.703125 50.6875 194.515625 51.980469 C 201.183594 49.863281 208.710938 52.050781 214.148438 56.4375 C 219.59375 60.824219 223.042969 67.65625 225.460938 74.214844 C 228.214844 76.0625 238.640625 82.3125 242.863281 98.058594 C 244.339844 103.585938 244.09375 109.039062 242.808594 114.410156 C 242.714844 114.804688 242.613281 115.207031 242.351562 115.515625 C 242.15625 115.746094 241.886719 115.90625 241.753906 116.171875 C 241.578125 116.507812 241.667969 116.90625 241.753906 117.269531 C 242.164062 118.996094 242.464844 120.742188 242.648438 122.507812 C 242.6875 122.851562 242.703125 123.234375 242.464844 123.488281 C 242.296875 123.667969 242.03125 123.730469 241.792969 123.792969 C 238.667969 124.617188 236.417969 127.34375 235.183594 130.214844 C 233.921875 133.132812 233.492188 136.332031 232.785156 139.433594 C 232.042969 142.613281 230.421875 145.699219 228.085938 148.269531 C 226.984375 155.1875 226.011719 169.320312 225.207031 173.761719 C 224.425781 177.234375 222.613281 181.125 220.585938 184.339844 C 219.691406 185.761719 218.734375 187.105469 217.765625 188.285156 C 214.515625 192.238281 210.363281 194.621094 206.910156 198.402344 C 204.867188 200.628906 202.769531 202.898438 200.074219 204.269531 C 197.195312 205.722656 194.585938 206.015625 191.371094 206.273438 C 185.394531 206.769531 178.902344 206.433594 173.910156 203.109375 C 171.535156 201.53125 169.738281 199.945312 167.886719 197.777344 C 165.265625 194.734375 162.449219 191.847656 159.457031 189.160156 C 157.421875 187.328125 155.257812 184.582031 153.664062 182.144531 Z M 196.515625 53.160156 C 200.605469 52.980469 204.664062 54.613281 207.582031 57.347656 C 204.0625 55.566406 200.347656 54.160156 196.515625 53.160156 Z M 158.519531 190.199219 C 161.441406 192.820312 164.238281 195.675781 166.824219 198.6875 C 173.21875 206.300781 180.914062 208.648438 191.484375 207.664062 C 199.058594 207.292969 203.121094 204.925781 207.945312 199.34375 C 212.054688 194.96875 217.210938 192.0625 220.582031 186.882812 C 220.707031 188.929688 221.246094 195.871094 221.34375 197.8125 C 220.222656 201.601562 219.371094 206.050781 216.960938 209.136719 C 214.449219 212.335938 211.304688 214.921875 207.34375 217.820312 C 207.300781 217.855469 207.25 217.890625 207.210938 217.910156 C 200.074219 223.136719 192.503906 227.878906 184.6875 232.042969 C 180.308594 228.402344 175.421875 224.339844 171.542969 220.957031 C 163.886719 214.222656 156.816406 208.628906 155.339844 197.828125 C 155.523438 194.523438 155.65625 190.808594 155.464844 186.949219 C 156.4375 188.125 157.480469 189.257812 158.519531 190.199219 Z M 154.125 217.625 C 154.445312 212.617188 154.765625 207.71875 155.046875 202.765625 C 157.527344 211.050781 164.539062 216.640625 170.738281 222.101562 C 174.304688 225.226562 178.59375 228.800781 182.699219 232.195312 C 182.152344 232.28125 181.621094 232.386719 181.082031 232.539062 C 176.582031 234.042969 173.90625 236.925781 171.5625 240.390625 C 168.480469 245.105469 166.539062 251.246094 162.9375 255.296875 C 161.707031 251.003906 159.640625 242.144531 158.078125 238.070312 C 156.828125 234.898438 155.039062 232.015625 153.410156 229.074219 C 153.640625 225.265625 153.886719 221.480469 154.125 217.625 Z M 58.679688 303.113281 C 61.183594 286.210938 64.085938 268.097656 68.300781 250.050781 C 69.109375 246.585938 69.949219 243.527344 71.925781 241.152344 C 74.644531 237.902344 79.007812 236.597656 83.242188 235.535156 C 87.179688 234.550781 91.210938 233.65625 95.109375 232.789062 C 108.648438 229.820312 123.601562 226.378906 135.484375 219.09375 C 131.421875 224.527344 127.261719 230.15625 123.117188 235.0625 C 122.445312 235.828125 121.617188 236.785156 121.832031 238.015625 C 121.964844 238.742188 122.40625 239.292969 122.839844 239.796875 C 124.984375 242.296875 127.109375 242.792969 129.429688 244.792969 C 126.578125 247.992188 123.0625 250.652344 119.210938 252.523438 C 119.695312 270.191406 132.078125 312.132812 143.746094 334.59375 C 145.042969 337.246094 146.351562 339.910156 148.386719 344.03125 C 150.789062 348.863281 153.214844 353.707031 155.695312 358.503906 C 118.414062 351.289062 84.027344 331.660156 58.679688 303.113281 Z M 172.09375 360.851562 C 167.195312 360.40625 162.246094 359.699219 157.4375 358.824219 C 154.027344 352.308594 147.945312 340.019531 145.792969 335.585938 C 133.554688 313.300781 122.425781 272.050781 120.265625 253.558594 C 124.3125 251.519531 127.988281 248.632812 130.933594 245.195312 C 131.171875 244.917969 131.15625 244.5 130.890625 244.246094 C 129.710938 243.085938 128.5625 242.382812 127.453125 241.703125 C 126.03125 240.796875 123.972656 239.566406 123.210938 237.777344 C 123.105469 237.023438 123.929688 236.296875 124.433594 235.675781 C 133.726562 224.835938 143.988281 208.222656 153.859375 199.203125 C 153.117188 212.238281 152.144531 225.761719 151.445312 238.734375 C 149.894531 261.949219 154.960938 287.933594 159.261719 308.207031 C 162.875 324.953125 166.207031 342.242188 172.316406 358.128906 C 172.324219 358.15625 172.339844 358.183594 172.347656 358.210938 C 172.6875 359.117188 173.042969 360.046875 173.375 360.976562 C 172.945312 360.941406 172.519531 360.898438 172.09375 360.851562 Z M 174.910156 361.109375 C 174.238281 359.21875 173.507812 357.335938 172.808594 355.457031 C 173.519531 323.472656 172.675781 288.488281 177.28125 256.214844 C 177.300781 256.21875 177.328125 256.226562 177.351562 256.226562 C 177.425781 256.25 177.503906 256.269531 177.582031 256.277344 C 180.242188 256.554688 182.929688 256.746094 185.605469 257.011719 C 186.109375 257.042969 186.640625 257.085938 187.148438 257.03125 C 187.296875 257.015625 187.441406 256.996094 187.582031 256.960938 C 188.050781 256.855469 188.511719 256.675781 188.882812 256.359375 C 194.480469 274.292969 194.894531 293.355469 195.640625 311.910156 C 196.171875 324.785156 196.957031 347.167969 197.605469 361.445312 C 190.128906 361.816406 182.480469 361.703125 174.910156 361.109375 Z M 201.617188 357.828125 C 201.332031 358.972656 201.058594 360.125 200.757812 361.261719 C 200.171875 361.304688 199.585938 361.339844 198.996094 361.375 C 198.542969 351.574219 197.496094 323.011719 197.039062 311.839844 C 196.300781 292.859375 195.808594 273.320312 189.929688 254.976562 C 191.300781 252.574219 193.222656 249.996094 194.65625 247.507812 C 194.664062 247.488281 194.675781 247.46875 194.683594 247.445312 C 194.9375 247.027344 195.144531 246.609375 195.375 246.183594 C 198.871094 250.148438 202.246094 254.25 205.566406 258.359375 C 206.664062 259.714844 207.753906 261.070312 208.832031 262.417969 C 209.160156 262.820312 209.859375 262.730469 210.035156 262.222656 C 212.605469 255.355469 215.449219 248.507812 218.484375 241.859375 C 220.078125 238.457031 221.59375 234.824219 224.425781 232.027344 C 223.277344 241.328125 221.230469 252.46875 219.691406 261.765625 C 216.835938 278.769531 214.820312 295.621094 211.507812 312.59375 C 209.816406 320.832031 207.824219 329.074219 206.183594 337.261719 C 204.742188 344.113281 203.308594 351.023438 201.617188 357.828125 Z M 221.390625 356.058594 C 221.027344 356.988281 220.664062 357.917969 220.300781 358.839844 C 214.316406 359.929688 208.230469 360.699219 202.238281 361.160156 C 204.21875 353.34375 205.910156 345.425781 207.550781 337.546875 C 209.203125 329.339844 211.199219 321.125 212.878906 312.859375 C 216.199219 295.863281 218.203125 279.015625 221.078125 262.003906 C 222.742188 251.765625 225.019531 239.824219 226.101562 229.5625 C 227.289062 219.9375 227.5625 206.195312 222.769531 198.988281 L 222.769531 198.828125 C 226.367188 201.007812 228.617188 205.882812 231.5625 209.101562 C 232.644531 210.304688 233.875 211.367188 235.0625 212.386719 C 243.96875 219.621094 248.777344 230.90625 252.78125 240.941406 C 248.582031 242.261719 244.804688 245.058594 242.347656 248.703125 C 242.09375 249.054688 242.253906 249.585938 242.660156 249.746094 C 247.273438 251.644531 251.914062 253.539062 256.527344 255.4375 C 255.949219 256.578125 255.03125 258.980469 253.347656 264.078125 C 251.539062 269.25 242.625 298.539062 241.550781 301.828125 C 240.59375 304.574219 238.640625 309.933594 236.347656 316.207031 C 231.441406 329.515625 226.507812 342.835938 221.390625 356.058594 Z M 281.816406 334.835938 C 263.441406 346.445312 243.214844 354.464844 221.921875 358.53125 C 226.851562 345.921875 231.554688 333.203125 236.25 320.507812 C 236.257812 320.496094 236.257812 320.488281 236.265625 320.480469 C 236.753906 319.140625 237.238281 317.839844 237.699219 316.582031 C 239.320312 312.167969 240.722656 308.292969 241.757812 305.414062 C 241.757812 305.414062 241.757812 305.40625 241.765625 305.398438 C 242.050781 304.597656 242.3125 303.871094 242.535156 303.234375 C 242.542969 303.21875 242.550781 303.199219 242.550781 303.183594 C 245.890625 293.1875 255.773438 259.273438 257.945312 255.71875 C 258.429688 255.453125 258.386719 254.667969 257.855469 254.472656 C 255.390625 253.453125 252.914062 252.441406 250.441406 251.429688 L 244.003906 248.789062 C 246.429688 245.546875 249.992188 243.121094 253.898438 242.074219 C 254.296875 241.96875 254.523438 241.507812 254.367188 241.136719 C 254.074219 240.417969 253.78125 239.679688 253.480469 238.945312 C 250.015625 230.394531 246.167969 221.726562 239.789062 214.90625 C 241.820312 215.578125 243.136719 216.046875 243.511719 216.234375 C 253.136719 221.082031 263.238281 225.316406 274.199219 229.507812 C 284.207031 233.34375 294.515625 238.367188 305.105469 239.945312 C 308.1875 240.113281 309.824219 245.726562 310.800781 249.082031 C 312.597656 254.304688 313.445312 260.132812 313.710938 265.015625 C 314.476562 276.25 316.148438 288.425781 318.980469 303.296875 C 308.105469 315.507812 295.601562 326.117188 281.816406 334.835938 Z M 281.816406 334.835938 " fill-opacity="1" fill-rule="nonzero"/></svg>