<svg xmlns="http://www.w3.org/2000/svg" xmlns:xlink="http://www.w3.org/1999/xlink" width="1200" zoomAndPan="magnify" viewBox="0 0 900 525.000007" height="700" preserveAspectRatio="xMidYMid meet" version="1.0"><path fill="#003152" d="M 523.773438 269.652344 L 544.21875 313.570312 C 545.019531 315.285156 547.417969 315.394531 548.367188 313.757812 L 566.480469 282.59375 L 601.984375 288.796875 C 603.855469 289.121094 605.316406 287.222656 604.511719 285.5 L 579.054688 230.8125 C 577.777344 231.519531 576.894531 232.386719 576 233.75 L 565.164062 250.320312 C 555.96875 264.375 539.953125 271.625 523.773438 269.652344 Z M 343.925781 333.933594 C 360.691406 324.222656 377.738281 317.335938 396.160156 323.3125 C 416.707031 329.976562 450.25 344.28125 484.460938 350.449219 C 497.160156 354.566406 505.078125 367.28125 501.621094 380.175781 C 498.890625 390.371094 489.339844 399.492188 478.28125 396.5625 L 421.464844 381.507812 C 416.925781 380.3125 412.277344 383.023438 411.082031 387.5625 C 409.886719 392.105469 412.601562 396.753906 417.140625 397.949219 L 473.953125 413.003906 C 488.453125 416.84375 502.144531 411.113281 509.378906 398.066406 C 513.71875 396.828125 517.964844 395.015625 522.140625 392.585938 L 608.019531 342.566406 C 674.777344 303.6875 684.582031 363.5 662.386719 377.164062 L 506.535156 473.128906 C 492.203125 481.953125 476.519531 484.015625 460.257812 479.65625 L 347.214844 449.367188 L 338.132812 454.609375 L 288.132812 366.261719 Z M 264.976562 359.945312 C 261.550781 353.890625 253.796875 351.742188 247.746094 355.167969 L 223.648438 368.804688 C 217.597656 372.230469 215.449219 379.984375 218.875 386.035156 L 289.710938 511.203125 C 293.136719 517.257812 300.890625 519.40625 306.945312 515.980469 L 331.039062 502.34375 C 337.09375 498.917969 339.242188 491.164062 335.816406 485.113281 Z M 247.316406 376.203125 C 252.019531 375.515625 256.386719 378.769531 257.074219 383.472656 C 257.761719 388.171875 254.507812 392.542969 249.804688 393.226562 C 245.105469 393.917969 240.738281 390.660156 240.050781 385.960938 C 239.363281 381.257812 242.617188 376.890625 247.316406 376.203125 Z M 494.707031 62.363281 C 457.535156 62.363281 427.402344 92.496094 427.402344 129.667969 C 427.402344 166.839844 457.535156 196.96875 494.707031 196.96875 C 531.878906 196.96875 562.011719 166.839844 562.011719 129.667969 C 562.011719 92.496094 531.878906 62.363281 494.707031 62.363281 Z M 484.75 136.355469 L 521.617188 99.117188 C 525.984375 94.710938 533.101562 94.695312 537.496094 99.066406 C 541.890625 103.4375 541.90625 110.539062 537.546875 114.9375 C 522.59375 130.027344 507.746094 145.214844 492.726562 160.234375 C 488.335938 164.625 481.210938 164.625 476.820312 160.234375 L 451.902344 135.316406 C 447.511719 130.925781 447.511719 123.804688 451.902344 119.414062 C 456.292969 115.019531 463.417969 115.019531 467.808594 119.414062 Z M 510.472656 11.714844 L 526.320312 23.582031 C 530.65625 26.828125 535.21875 28.488281 540.625 28.789062 L 560.394531 29.886719 C 572.230469 30.542969 581.847656 38.613281 584.550781 50.15625 L 589.066406 69.433594 C 590.300781 74.703125 592.726562 78.910156 596.675781 82.613281 L 611.113281 96.164062 C 619.757812 104.277344 621.9375 116.636719 616.589844 127.21875 L 607.65625 144.886719 C 605.214844 149.71875 604.371094 154.5 605.011719 159.878906 L 607.363281 179.539062 C 608.769531 191.308594 602.496094 202.175781 591.597656 206.84375 L 573.394531 214.636719 C 568.417969 216.769531 564.699219 219.890625 561.734375 224.421875 L 550.898438 240.992188 C 544.410156 250.914062 532.617188 255.207031 521.269531 251.777344 L 502.316406 246.050781 C 497.132812 244.484375 492.277344 244.484375 487.09375 246.050781 L 468.140625 251.777344 C 456.792969 255.207031 445 250.914062 438.511719 240.992188 L 427.675781 224.421875 C 424.710938 219.890625 420.992188 216.769531 416.011719 214.636719 L 397.8125 206.84375 C 386.914062 202.175781 380.640625 191.308594 382.046875 179.539062 L 384.394531 159.878906 C 385.039062 154.5 384.195312 149.71875 381.753906 144.886719 L 372.820312 127.21875 C 367.472656 116.636719 369.652344 104.277344 378.296875 96.164062 L 392.730469 82.613281 C 396.679688 78.910156 399.109375 74.703125 400.34375 69.433594 L 404.859375 50.15625 C 407.5625 38.613281 417.175781 30.542969 429.011719 29.886719 L 448.78125 28.789062 C 454.1875 28.488281 458.75 26.824219 463.085938 23.582031 L 478.9375 11.71875 C 488.433594 4.613281 500.980469 4.613281 510.472656 11.714844 Z M 494.707031 45.320312 C 541.285156 45.320312 579.050781 83.085938 579.050781 129.667969 C 579.050781 176.246094 541.289062 214.011719 494.707031 214.011719 C 448.125 214.011719 410.363281 176.246094 410.363281 129.667969 C 410.363281 83.085938 448.125 45.320312 494.707031 45.320312 Z M 465.640625 269.652344 C 449.457031 271.625 433.445312 264.375 424.25 250.320312 L 413.414062 233.75 C 412.519531 232.382812 411.636719 231.515625 410.359375 230.8125 L 384.898438 285.496094 C 384.097656 287.21875 385.554688 289.121094 387.425781 288.792969 L 422.933594 282.589844 L 441.046875 313.753906 C 441.996094 315.394531 444.394531 315.285156 445.195312 313.566406 Z M 465.640625 269.652344 " fill-opacity="1" fill-rule="evenodd"/></svg>