<svg xmlns="http://www.w3.org/2000/svg" xmlns:xlink="http://www.w3.org/1999/xlink" width="500" zoomAndPan="magnify" viewBox="0 0 375 374.999991" height="500" preserveAspectRatio="xMidYMid meet" version="1.0"><defs><clipPath id="2002c9c231"><path d="M 163 16.007812 L 354 16.007812 L 354 284 L 163 284 Z M 163 16.007812 " clip-rule="nonzero"/></clipPath><clipPath id="2b6ab75bf7"><path d="M 15.5 215 L 191 215 L 191 362.507812 L 15.5 362.507812 Z M 15.5 215 " clip-rule="nonzero"/></clipPath></defs><g clip-path="url(#2002c9c231)"><path fill="#ec9707" d="M 353.042969 179.386719 C 353.042969 170.792969 348.417969 163.289062 341.464844 159.210938 C 349.148438 154.769531 354.027344 146.027344 352.863281 136.304688 C 351.480469 124.320312 340.226562 115.835938 328.167969 115.835938 L 253.035156 115.835938 C 253.617188 114.304688 254.417969 112.265625 255.148438 110.480469 C 259.699219 99.152344 268.113281 77.992188 268.113281 56.324219 C 268.113281 32.03125 251.105469 17.390625 239.375 16.480469 C 231.839844 16.007812 226.410156 20.59375 225.28125 28.71875 C 223.023438 44.015625 212.898438 66.523438 208.746094 75.371094 C 207.546875 78.03125 205.980469 80.46875 204.050781 82.65625 C 197.238281 90.523438 179.683594 109.863281 163.222656 121.1875 C 163.222656 121.917969 163.367188 122.574219 163.367188 123.300781 L 163.367188 209.835938 C 191.886719 224.804688 210.675781 250.152344 210.675781 278.816406 C 210.675781 279.542969 210.675781 280.199219 210.605469 280.925781 C 221.859375 282.382812 233.183594 283.113281 244.839844 283.113281 L 308.792969 283.113281 C 319.976562 283.113281 330.316406 275.757812 332.613281 264.828125 C 334.46875 255.835938 331.15625 247.566406 325.148438 242.320312 C 335.417969 239.882812 343.027344 230.667969 343.027344 219.632812 C 343.027344 212.601562 339.96875 206.339844 335.015625 202.078125 C 345.324219 199.636719 353.042969 190.421875 353.042969 179.386719 Z M 353.042969 179.386719 " fill-opacity="1" fill-rule="nonzero"/></g><path fill="#ec9707" d="M 143.15625 201.605469 L 143.15625 123.300781 C 143.15625 116.273438 137.398438 110.589844 130.445312 110.589844 L 80.21875 110.589844 C 73.191406 110.589844 67.507812 116.273438 67.507812 123.300781 L 67.507812 200.292969 C 78.691406 197.308594 90.671875 195.59375 103.238281 195.59375 C 117.296875 195.59375 130.84375 197.707031 143.15625 201.605469 Z M 143.15625 201.605469 " fill-opacity="1" fill-rule="nonzero"/><g clip-path="url(#2b6ab75bf7)"><path fill="#ec9707" d="M 103.238281 215.445312 C 54.910156 215.445312 15.609375 243.925781 15.609375 278.886719 C 15.609375 297.789062 27.011719 315.417969 46.933594 327.507812 C 45.839844 333.15625 41.285156 342.515625 35.132812 351.691406 C 33.53125 354.058594 33.53125 357.082031 35.132812 359.449219 C 36.441406 361.34375 38.554688 362.4375 40.8125 362.4375 C 41.324219 362.4375 41.832031 362.398438 42.34375 362.289062 C 56.910156 359.011719 73.992188 353.988281 90.382812 341.605469 C 95.042969 342.113281 99.269531 342.332031 103.238281 342.332031 C 151.566406 342.332031 190.902344 313.886719 190.902344 278.886719 C 190.863281 243.886719 151.566406 215.445312 103.238281 215.445312 Z M 137.945312 275.320312 L 125.234375 286.972656 C 124.363281 287.773438 123.996094 288.941406 124.214844 290.105469 L 127.675781 306.96875 C 128.585938 311.449219 123.816406 314.90625 119.84375 312.648438 L 104.875 304.164062 C 103.855469 303.582031 102.617188 303.582031 101.597656 304.164062 L 86.628906 312.648438 C 82.660156 314.90625 77.890625 311.449219 78.800781 306.96875 L 82.261719 290.070312 C 82.476562 288.941406 82.113281 287.738281 81.238281 286.972656 L 68.53125 275.320312 C 65.140625 272.257812 67 266.613281 71.515625 266.105469 L 88.632812 264.210938 C 89.800781 264.066406 90.820312 263.335938 91.292969 262.28125 L 98.394531 246.582031 C 100.289062 242.429688 106.1875 242.429688 108.082031 246.582031 L 115.21875 262.28125 C 115.695312 263.335938 116.714844 264.066406 117.878906 264.210938 L 134.996094 266.105469 C 139.511719 266.613281 141.332031 272.222656 137.945312 275.320312 Z M 137.945312 275.320312 " fill-opacity="1" fill-rule="nonzero"/></g></svg>