<svg xmlns="http://www.w3.org/2000/svg" xmlns:xlink="http://www.w3.org/1999/xlink" width="500" zoomAndPan="magnify" viewBox="0 0 375 374.999991" height="500" preserveAspectRatio="xMidYMid meet" version="1.0"><defs><clipPath id="9bdb77aeb8"><path d="M 14.914062 41.519531 L 359.914062 41.519531 L 359.914062 337.765625 L 14.914062 337.765625 Z M 14.914062 41.519531 " clip-rule="nonzero"/></clipPath></defs><g clip-path="url(#9bdb77aeb8)"><path fill="#0a5078" d="M 353.914062 337.433594 L 21.078125 337.433594 C 17.675781 337.433594 14.914062 334.675781 14.914062 331.273438 L 14.914062 47.742188 C 14.914062 44.339844 17.675781 41.582031 21.078125 41.582031 L 353.914062 41.582031 C 357.316406 41.582031 360.078125 44.339844 360.078125 47.742188 L 360.078125 331.273438 C 360.078125 334.675781 357.316406 337.433594 353.914062 337.433594 Z M 353.914062 337.433594 " fill-opacity="1" fill-rule="nonzero"/></g><path fill="#f0f0f0" d="M 347.753906 53.90625 L 347.753906 325.109375 L 27.242188 325.109375 L 27.242188 53.90625 Z M 347.753906 53.90625 " fill-opacity="1" fill-rule="nonzero"/><path fill="#ec9707" d="M 113.535156 109.378906 L 113.535156 146.363281 C 113.535156 149.753906 110.761719 152.527344 107.371094 152.527344 L 45.734375 152.527344 C 42.34375 152.527344 39.570312 149.753906 39.570312 146.363281 L 39.570312 109.378906 C 39.570312 105.992188 42.34375 103.21875 45.734375 103.21875 L 107.371094 103.21875 C 110.761719 103.21875 113.535156 105.992188 113.535156 109.378906 Z M 113.535156 109.378906 " fill-opacity="1" fill-rule="nonzero"/><path fill="#003152" d="M 218.316406 152.527344 L 156.679688 152.527344 C 153.277344 152.527344 150.515625 149.765625 150.515625 146.363281 L 150.515625 109.378906 C 150.515625 105.976562 153.277344 103.21875 156.679688 103.21875 L 218.316406 103.21875 C 221.71875 103.21875 224.480469 105.976562 224.480469 109.378906 L 224.480469 146.363281 C 224.480469 149.765625 221.71875 152.527344 218.316406 152.527344 Z M 218.316406 152.527344 " fill-opacity="1" fill-rule="nonzero"/><path fill="#f0f0f0" d="M 175.171875 127.871094 C 175.171875 128.679688 175.089844 129.484375 174.933594 130.277344 C 174.777344 131.070312 174.542969 131.839844 174.230469 132.589844 C 173.921875 133.335938 173.542969 134.046875 173.09375 134.71875 C 172.644531 135.394531 172.132812 136.015625 171.558594 136.589844 C 170.988281 137.160156 170.363281 137.671875 169.691406 138.121094 C 169.019531 138.570312 168.308594 138.949219 167.558594 139.261719 C 166.8125 139.570312 166.042969 139.804688 165.246094 139.960938 C 164.453125 140.121094 163.652344 140.199219 162.84375 140.199219 C 162.035156 140.199219 161.230469 140.121094 160.4375 139.960938 C 159.644531 139.804688 158.875 139.570312 158.125 139.261719 C 157.378906 138.949219 156.667969 138.570312 155.996094 138.121094 C 155.320312 137.671875 154.699219 137.160156 154.125 136.589844 C 153.554688 136.015625 153.042969 135.394531 152.59375 134.71875 C 152.144531 134.046875 151.765625 133.335938 151.453125 132.589844 C 151.144531 131.839844 150.910156 131.070312 150.753906 130.277344 C 150.59375 129.484375 150.515625 128.679688 150.515625 127.871094 C 150.515625 127.0625 150.59375 126.261719 150.753906 125.464844 C 150.910156 124.671875 151.144531 123.902344 151.453125 123.152344 C 151.765625 122.40625 152.144531 121.695312 152.59375 121.023438 C 153.042969 120.351562 153.554688 119.726562 154.125 119.15625 C 154.699219 118.582031 155.320312 118.070312 155.996094 117.621094 C 156.667969 117.171875 157.378906 116.792969 158.125 116.484375 C 158.875 116.171875 159.644531 115.9375 160.4375 115.78125 C 161.230469 115.625 162.035156 115.542969 162.84375 115.542969 C 163.652344 115.542969 164.453125 115.625 165.246094 115.78125 C 166.042969 115.9375 166.8125 116.171875 167.558594 116.484375 C 168.308594 116.792969 169.019531 117.171875 169.691406 117.621094 C 170.363281 118.070312 170.988281 118.582031 171.558594 119.15625 C 172.132812 119.726562 172.644531 120.351562 173.09375 121.023438 C 173.542969 121.695312 173.921875 122.40625 174.230469 123.152344 C 174.542969 123.902344 174.777344 124.671875 174.933594 125.464844 C 175.089844 126.261719 175.171875 127.0625 175.171875 127.871094 Z M 175.171875 127.871094 " fill-opacity="1" fill-rule="nonzero"/><path fill="#0a5078" d="M 329.261719 152.527344 L 267.625 152.527344 C 264.222656 152.527344 261.460938 149.765625 261.460938 146.363281 L 261.460938 109.378906 C 261.460938 105.976562 264.222656 103.21875 267.625 103.21875 L 329.261719 103.21875 C 332.664062 103.21875 335.425781 105.976562 335.425781 109.378906 L 335.425781 146.363281 C 335.425781 149.765625 332.664062 152.527344 329.261719 152.527344 Z M 329.261719 152.527344 " fill-opacity="1" fill-rule="nonzero"/><path fill="#ec9707" d="M 298.441406 127.871094 C 298.441406 128.679688 298.363281 129.484375 298.207031 130.277344 C 298.046875 131.070312 297.816406 131.839844 297.503906 132.589844 C 297.195312 133.335938 296.816406 134.046875 296.367188 134.71875 C 295.914062 135.394531 295.40625 136.015625 294.832031 136.589844 C 294.261719 137.160156 293.636719 137.671875 292.964844 138.121094 C 292.292969 138.570312 291.582031 138.949219 290.832031 139.261719 C 290.085938 139.570312 289.316406 139.804688 288.519531 139.960938 C 287.726562 140.121094 286.925781 140.199219 286.117188 140.199219 C 285.304688 140.199219 284.503906 140.121094 283.710938 139.960938 C 282.917969 139.804688 282.144531 139.570312 281.398438 139.261719 C 280.652344 138.949219 279.941406 138.570312 279.265625 138.121094 C 278.59375 137.671875 277.972656 137.160156 277.398438 136.589844 C 276.828125 136.015625 276.316406 135.394531 275.867188 134.71875 C 275.417969 134.046875 275.035156 133.335938 274.726562 132.589844 C 274.417969 131.839844 274.183594 131.070312 274.023438 130.277344 C 273.867188 129.484375 273.789062 128.679688 273.789062 127.871094 C 273.789062 127.0625 273.867188 126.261719 274.023438 125.464844 C 274.183594 124.671875 274.417969 123.902344 274.726562 123.152344 C 275.035156 122.40625 275.417969 121.695312 275.867188 121.023438 C 276.316406 120.351562 276.828125 119.726562 277.398438 119.15625 C 277.972656 118.582031 278.59375 118.070312 279.265625 117.621094 C 279.941406 117.171875 280.652344 116.792969 281.398438 116.484375 C 282.144531 116.171875 282.917969 115.9375 283.710938 115.78125 C 284.503906 115.625 285.304688 115.542969 286.117188 115.542969 C 286.925781 115.542969 287.726562 115.625 288.519531 115.78125 C 289.316406 115.9375 290.085938 116.171875 290.832031 116.484375 C 291.582031 116.792969 292.292969 117.171875 292.964844 117.621094 C 293.636719 118.070312 294.261719 118.582031 294.832031 119.15625 C 295.40625 119.726562 295.914062 120.351562 296.367188 121.023438 C 296.816406 121.695312 297.195312 122.40625 297.503906 123.152344 C 297.816406 123.902344 298.046875 124.671875 298.207031 125.464844 C 298.363281 126.261719 298.441406 127.0625 298.441406 127.871094 Z M 298.441406 127.871094 " fill-opacity="1" fill-rule="nonzero"/><path fill="#0a5078" d="M 110.453125 164.851562 L 42.652344 164.851562 C 40.949219 164.851562 39.570312 163.472656 39.570312 161.769531 C 39.570312 160.070312 40.949219 158.691406 42.652344 158.691406 L 110.453125 158.691406 C 112.152344 158.691406 113.535156 160.070312 113.535156 161.769531 C 113.535156 163.472656 112.152344 164.851562 110.453125 164.851562 Z M 110.453125 164.851562 " fill-opacity="1" fill-rule="nonzero"/><path fill="#0a5078" d="M 110.453125 177.179688 L 42.652344 177.179688 C 40.949219 177.179688 39.570312 175.800781 39.570312 174.097656 C 39.570312 172.398438 40.949219 171.015625 42.652344 171.015625 L 110.453125 171.015625 C 112.152344 171.015625 113.535156 172.398438 113.535156 174.097656 C 113.535156 175.800781 112.152344 177.179688 110.453125 177.179688 Z M 110.453125 177.179688 " fill-opacity="1" fill-rule="nonzero"/><path fill="#0a5078" d="M 221.398438 164.851562 L 153.597656 164.851562 C 151.894531 164.851562 150.515625 163.472656 150.515625 161.769531 C 150.515625 160.070312 151.894531 158.691406 153.597656 158.691406 L 221.398438 158.691406 C 223.097656 158.691406 224.480469 160.070312 224.480469 161.769531 C 224.480469 163.472656 223.097656 164.851562 221.398438 164.851562 Z M 221.398438 164.851562 " fill-opacity="1" fill-rule="nonzero"/><path fill="#0a5078" d="M 221.398438 177.179688 L 153.597656 177.179688 C 151.894531 177.179688 150.515625 175.800781 150.515625 174.097656 C 150.515625 172.398438 151.894531 171.015625 153.597656 171.015625 L 221.398438 171.015625 C 223.097656 171.015625 224.480469 172.398438 224.480469 174.097656 C 224.480469 175.800781 223.097656 177.179688 221.398438 177.179688 Z M 221.398438 177.179688 " fill-opacity="1" fill-rule="nonzero"/><path fill="#0a5078" d="M 221.398438 78.5625 L 153.597656 78.5625 C 151.894531 78.5625 150.515625 77.179688 150.515625 75.480469 C 150.515625 73.777344 151.894531 72.398438 153.597656 72.398438 L 221.398438 72.398438 C 223.097656 72.398438 224.480469 73.777344 224.480469 75.480469 C 224.480469 77.179688 223.097656 78.5625 221.398438 78.5625 Z M 221.398438 78.5625 " fill-opacity="1" fill-rule="nonzero"/><path fill="#0a5078" d="M 233.726562 90.890625 L 141.269531 90.890625 C 139.570312 90.890625 138.1875 89.507812 138.1875 87.808594 C 138.1875 86.105469 139.570312 84.726562 141.269531 84.726562 L 233.726562 84.726562 C 235.425781 84.726562 236.808594 86.105469 236.808594 87.808594 C 236.808594 89.507812 235.425781 90.890625 233.726562 90.890625 Z M 233.726562 90.890625 " fill-opacity="1" fill-rule="nonzero"/><path fill="#0a5078" d="M 332.34375 164.851562 L 264.542969 164.851562 C 262.84375 164.851562 261.460938 163.472656 261.460938 161.769531 C 261.460938 160.070312 262.84375 158.691406 264.542969 158.691406 L 332.34375 158.691406 C 334.042969 158.691406 335.425781 160.070312 335.425781 161.769531 C 335.425781 163.472656 334.042969 164.851562 332.34375 164.851562 Z M 332.34375 164.851562 " fill-opacity="1" fill-rule="nonzero"/><path fill="#0a5078" d="M 332.34375 177.179688 L 264.542969 177.179688 C 262.84375 177.179688 261.460938 175.800781 261.460938 174.097656 C 261.460938 172.398438 262.84375 171.015625 264.542969 171.015625 L 332.34375 171.015625 C 334.042969 171.015625 335.425781 172.398438 335.425781 174.097656 C 335.425781 175.800781 334.042969 177.179688 332.34375 177.179688 Z M 332.34375 177.179688 " fill-opacity="1" fill-rule="nonzero"/><path fill="#f0ba40" d="M 107.371094 288.125 L 45.734375 288.125 C 42.332031 288.125 39.570312 285.363281 39.570312 281.960938 L 39.570312 244.980469 C 39.570312 241.578125 42.332031 238.816406 45.734375 238.816406 L 107.371094 238.816406 C 110.773438 238.816406 113.535156 241.578125 113.535156 244.980469 L 113.535156 281.960938 C 113.535156 285.363281 110.773438 288.125 107.371094 288.125 Z M 107.371094 288.125 " fill-opacity="1" fill-rule="nonzero"/><path fill="#f0f0f0" d="M 88.878906 263.472656 C 88.878906 264.28125 88.800781 265.082031 88.640625 265.875 C 88.484375 266.671875 88.25 267.441406 87.941406 268.1875 C 87.632812 268.9375 87.25 269.648438 86.800781 270.320312 C 86.351562 270.992188 85.839844 271.617188 85.269531 272.1875 C 84.695312 272.761719 84.074219 273.273438 83.402344 273.722656 C 82.726562 274.171875 82.015625 274.550781 81.269531 274.859375 C 80.523438 275.171875 79.75 275.402344 78.957031 275.5625 C 78.164062 275.71875 77.363281 275.796875 76.550781 275.800781 C 75.742188 275.796875 74.941406 275.71875 74.148438 275.5625 C 73.351562 275.402344 72.582031 275.171875 71.835938 274.859375 C 71.085938 274.550781 70.375 274.171875 69.703125 273.722656 C 69.03125 273.273438 68.40625 272.761719 67.835938 272.1875 C 67.261719 271.617188 66.75 270.992188 66.300781 270.320312 C 65.851562 269.648438 65.472656 268.9375 65.164062 268.1875 C 64.851562 267.441406 64.621094 266.671875 64.460938 265.875 C 64.304688 265.082031 64.226562 264.28125 64.226562 263.472656 C 64.226562 262.660156 64.304688 261.859375 64.460938 261.066406 C 64.621094 260.273438 64.851562 259.5 65.164062 258.753906 C 65.472656 258.007812 65.851562 257.296875 66.300781 256.621094 C 66.75 255.949219 67.261719 255.328125 67.835938 254.753906 C 68.40625 254.183594 69.03125 253.671875 69.703125 253.222656 C 70.375 252.773438 71.085938 252.390625 71.835938 252.082031 C 72.582031 251.773438 73.351562 251.539062 74.148438 251.382812 C 74.941406 251.222656 75.742188 251.144531 76.550781 251.144531 C 77.363281 251.144531 78.164062 251.222656 78.957031 251.382812 C 79.75 251.539062 80.523438 251.773438 81.269531 252.082031 C 82.015625 252.390625 82.726562 252.773438 83.402344 253.222656 C 84.074219 253.671875 84.695312 254.183594 85.269531 254.753906 C 85.839844 255.328125 86.351562 255.949219 86.800781 256.621094 C 87.25 257.296875 87.632812 258.007812 87.941406 258.753906 C 88.25 259.5 88.484375 260.273438 88.640625 261.066406 C 88.800781 261.859375 88.878906 262.660156 88.878906 263.472656 Z M 88.878906 263.472656 " fill-opacity="1" fill-rule="nonzero"/><path fill="#ec9707" d="M 218.316406 288.125 L 156.679688 288.125 C 153.277344 288.125 150.515625 285.363281 150.515625 281.960938 L 150.515625 244.980469 C 150.515625 241.578125 153.277344 238.816406 156.679688 238.816406 L 218.316406 238.816406 C 221.71875 238.816406 224.480469 241.578125 224.480469 244.980469 L 224.480469 281.960938 C 224.480469 285.363281 221.71875 288.125 218.316406 288.125 Z M 218.316406 288.125 " fill-opacity="1" fill-rule="nonzero"/><path fill="#003152" d="M 335.425781 244.980469 L 335.425781 281.960938 C 335.425781 285.351562 332.652344 288.125 329.261719 288.125 L 267.625 288.125 C 264.234375 288.125 261.460938 285.351562 261.460938 281.960938 L 261.460938 244.980469 C 261.460938 241.589844 264.234375 238.816406 267.625 238.816406 L 329.261719 238.816406 C 332.652344 238.816406 335.425781 241.589844 335.425781 244.980469 Z M 335.425781 244.980469 " fill-opacity="1" fill-rule="nonzero"/><path fill="#0a5078" d="M 110.453125 300.453125 L 42.652344 300.453125 C 40.949219 300.453125 39.570312 299.074219 39.570312 297.371094 C 39.570312 295.671875 40.949219 294.289062 42.652344 294.289062 L 110.453125 294.289062 C 112.152344 294.289062 113.535156 295.671875 113.535156 297.371094 C 113.535156 299.074219 112.152344 300.453125 110.453125 300.453125 Z M 110.453125 300.453125 " fill-opacity="1" fill-rule="nonzero"/><path fill="#0a5078" d="M 110.453125 312.78125 L 42.652344 312.78125 C 40.949219 312.78125 39.570312 311.398438 39.570312 309.699219 C 39.570312 307.996094 40.949219 306.617188 42.652344 306.617188 L 110.453125 306.617188 C 112.152344 306.617188 113.535156 307.996094 113.535156 309.699219 C 113.535156 311.398438 112.152344 312.78125 110.453125 312.78125 Z M 110.453125 312.78125 " fill-opacity="1" fill-rule="nonzero"/><path fill="#0a5078" d="M 221.398438 300.453125 L 153.597656 300.453125 C 151.894531 300.453125 150.515625 299.074219 150.515625 297.371094 C 150.515625 295.671875 151.894531 294.289062 153.597656 294.289062 L 221.398438 294.289062 C 223.097656 294.289062 224.480469 295.671875 224.480469 297.371094 C 224.480469 299.074219 223.097656 300.453125 221.398438 300.453125 Z M 221.398438 300.453125 " fill-opacity="1" fill-rule="nonzero"/><path fill="#0a5078" d="M 221.398438 312.78125 L 153.597656 312.78125 C 151.894531 312.78125 150.515625 311.398438 150.515625 309.699219 C 150.515625 307.996094 151.894531 306.617188 153.597656 306.617188 L 221.398438 306.617188 C 223.097656 306.617188 224.480469 307.996094 224.480469 309.699219 C 224.480469 311.398438 223.097656 312.78125 221.398438 312.78125 Z M 221.398438 312.78125 " fill-opacity="1" fill-rule="nonzero"/><path fill="#0a5078" d="M 332.34375 300.453125 L 264.542969 300.453125 C 262.84375 300.453125 261.460938 299.074219 261.460938 297.371094 C 261.460938 295.671875 262.84375 294.289062 264.542969 294.289062 L 332.34375 294.289062 C 334.042969 294.289062 335.425781 295.671875 335.425781 297.371094 C 335.425781 299.074219 334.042969 300.453125 332.34375 300.453125 Z M 332.34375 300.453125 " fill-opacity="1" fill-rule="nonzero"/><path fill="#0a5078" d="M 332.34375 312.78125 L 264.542969 312.78125 C 262.84375 312.78125 261.460938 311.398438 261.460938 309.699219 C 261.460938 307.996094 262.84375 306.617188 264.542969 306.617188 L 332.34375 306.617188 C 334.042969 306.617188 335.425781 307.996094 335.425781 309.699219 C 335.425781 311.398438 334.042969 312.78125 332.34375 312.78125 Z M 332.34375 312.78125 " fill-opacity="1" fill-rule="nonzero"/><path fill="#003152" d="M 51.898438 127.871094 C 51.898438 134.652344 46.351562 140.199219 39.570312 140.199219 L 39.570312 115.542969 C 46.351562 115.542969 51.898438 121.089844 51.898438 127.871094 Z M 51.898438 127.871094 " fill-opacity="1" fill-rule="nonzero"/><path fill="#0a5078" d="M 212.152344 263.472656 C 212.152344 264.28125 212.074219 265.082031 211.914062 265.875 C 211.757812 266.671875 211.523438 267.441406 211.214844 268.1875 C 210.902344 268.9375 210.523438 269.648438 210.074219 270.320312 C 209.625 270.992188 209.113281 271.617188 208.542969 272.1875 C 207.96875 272.761719 207.347656 273.273438 206.671875 273.722656 C 206 274.171875 205.289062 274.550781 204.542969 274.859375 C 203.792969 275.171875 203.023438 275.402344 202.230469 275.5625 C 201.4375 275.71875 200.632812 275.796875 199.824219 275.800781 C 199.015625 275.796875 198.214844 275.71875 197.417969 275.5625 C 196.625 275.402344 195.855469 275.171875 195.105469 274.859375 C 194.359375 274.550781 193.648438 274.171875 192.976562 273.722656 C 192.304688 273.273438 191.679688 272.761719 191.109375 272.1875 C 190.535156 271.617188 190.023438 270.992188 189.574219 270.320312 C 189.125 269.648438 188.746094 268.9375 188.4375 268.1875 C 188.125 267.441406 187.890625 266.671875 187.734375 265.875 C 187.578125 265.082031 187.496094 264.28125 187.496094 263.472656 C 187.496094 262.660156 187.578125 261.859375 187.734375 261.066406 C 187.890625 260.273438 188.125 259.5 188.4375 258.753906 C 188.746094 258.007812 189.125 257.296875 189.574219 256.621094 C 190.023438 255.949219 190.535156 255.328125 191.109375 254.753906 C 191.679688 254.183594 192.304688 253.671875 192.976562 253.222656 C 193.648438 252.773438 194.359375 252.390625 195.105469 252.082031 C 195.855469 251.773438 196.625 251.539062 197.417969 251.382812 C 198.214844 251.222656 199.015625 251.144531 199.824219 251.144531 C 200.632812 251.144531 201.4375 251.222656 202.230469 251.382812 C 203.023438 251.539062 203.792969 251.773438 204.542969 252.082031 C 205.289062 252.390625 206 252.773438 206.671875 253.222656 C 207.347656 253.671875 207.96875 254.183594 208.542969 254.753906 C 209.113281 255.328125 209.625 255.949219 210.074219 256.621094 C 210.523438 257.296875 210.902344 258.007812 211.214844 258.753906 C 211.523438 259.5 211.757812 260.273438 211.914062 261.066406 C 212.074219 261.859375 212.152344 262.660156 212.152344 263.472656 Z M 212.152344 263.472656 " fill-opacity="1" fill-rule="nonzero"/><path fill="#0a5078" d="M 335.425781 251.144531 L 335.425781 275.800781 C 328.644531 275.800781 323.097656 270.25 323.097656 263.472656 C 323.097656 256.691406 328.644531 251.144531 335.425781 251.144531 Z M 335.425781 251.144531 " fill-opacity="1" fill-rule="nonzero"/><path fill="#003152" d="M 79.632812 226.488281 L 73.46875 226.488281 L 73.46875 208 C 73.46875 202.902344 77.617188 198.753906 82.714844 198.753906 L 292.28125 198.753906 C 293.972656 198.753906 295.359375 197.367188 295.359375 195.671875 L 295.359375 189.507812 L 301.523438 189.507812 L 301.523438 195.671875 C 301.523438 200.769531 297.375 204.917969 292.28125 204.917969 L 82.714844 204.917969 C 81.019531 204.917969 79.632812 206.304688 79.632812 208 Z M 79.632812 226.488281 " fill-opacity="1" fill-rule="nonzero"/><path fill="#003152" d="M 76.550781 229.570312 C 75.761719 229.570312 74.972656 229.269531 74.371094 228.671875 L 62.042969 216.34375 C 60.839844 215.140625 60.839844 213.1875 62.042969 211.988281 C 63.246094 210.785156 65.199219 210.785156 66.402344 211.988281 L 76.550781 222.132812 L 86.699219 211.988281 C 87.898438 210.785156 89.851562 210.785156 91.054688 211.988281 C 92.257812 213.1875 92.257812 215.140625 91.054688 216.34375 L 78.726562 228.671875 C 78.128906 229.269531 77.339844 229.570312 76.550781 229.570312 Z M 76.550781 229.570312 " fill-opacity="1" fill-rule="nonzero"/><path fill="#003152" d="M 123.679688 142.378906 C 122.476562 141.179688 122.476562 139.226562 123.679688 138.023438 L 133.832031 127.871094 L 123.683594 117.726562 C 122.484375 116.523438 122.484375 114.570312 123.683594 113.367188 C 124.886719 112.167969 126.839844 112.167969 128.042969 113.367188 L 140.371094 125.695312 C 141.570312 126.898438 141.570312 128.851562 140.371094 130.054688 L 128.042969 142.378906 C 126.835938 143.582031 124.886719 143.582031 123.679688 142.378906 Z M 123.679688 142.378906 " fill-opacity="1" fill-rule="nonzero"/><path fill="#0a5078" d="M 234.625 142.378906 C 233.421875 141.179688 233.421875 139.226562 234.625 138.023438 L 244.777344 127.871094 L 234.632812 117.726562 C 233.429688 116.523438 233.429688 114.570312 234.632812 113.367188 C 235.832031 112.167969 237.785156 112.167969 238.988281 113.367188 L 251.316406 125.695312 C 252.519531 126.898438 252.519531 128.851562 251.316406 130.054688 L 238.988281 142.378906 C 237.78125 143.582031 235.832031 143.582031 234.625 142.378906 Z M 234.625 142.378906 " fill-opacity="1" fill-rule="nonzero"/><path fill="#ec9707" d="M 123.679688 277.980469 C 122.476562 276.777344 122.476562 274.824219 123.679688 273.625 L 133.832031 263.472656 L 123.683594 253.328125 C 122.484375 252.125 122.484375 250.171875 123.683594 248.96875 C 124.886719 247.765625 126.839844 247.765625 128.042969 248.96875 L 140.371094 261.296875 C 141.570312 262.496094 141.570312 264.453125 140.371094 265.652344 L 128.042969 277.980469 C 126.835938 279.183594 124.886719 279.183594 123.679688 277.980469 Z M 123.679688 277.980469 " fill-opacity="1" fill-rule="nonzero"/><path fill="#003152" d="M 234.625 277.980469 C 233.421875 276.777344 233.421875 274.824219 234.625 273.625 L 244.777344 263.472656 L 234.632812 253.328125 C 233.429688 252.125 233.429688 250.171875 234.632812 248.96875 C 235.832031 247.765625 237.785156 247.765625 238.988281 248.96875 L 251.316406 261.296875 C 252.519531 262.496094 252.519531 264.453125 251.316406 265.652344 L 238.988281 277.980469 C 237.78125 279.183594 235.832031 279.183594 234.625 277.980469 Z M 234.625 277.980469 " fill-opacity="1" fill-rule="nonzero"/></svg>