<svg xmlns="http://www.w3.org/2000/svg" xmlns:xlink="http://www.w3.org/1999/xlink" width="500" zoomAndPan="magnify" viewBox="0 0 375 374.999991" height="500" preserveAspectRatio="xMidYMid meet" version="1.0"><defs><clipPath id="5409e51b69"><path d="M 310 102 L 363.953125 102 L 363.953125 307 L 310 307 Z M 310 102 " clip-rule="nonzero"/></clipPath><clipPath id="3c2328664d"><path d="M 275 6.894531 L 288 6.894531 L 288 20 L 275 20 Z M 275 6.894531 " clip-rule="nonzero"/></clipPath></defs><path fill="#003152" d="M 187.050781 360.085938 C 182.84375 360.085938 178.59375 359.9375 174.414062 359.640625 C 173.402344 359.570312 172.640625 358.691406 172.710938 357.679688 C 172.785156 356.667969 173.664062 355.90625 174.675781 355.976562 C 178.765625 356.265625 182.929688 356.414062 187.050781 356.414062 C 189.558594 356.414062 192.09375 356.359375 194.589844 356.25 C 195.605469 356.207031 196.460938 356.996094 196.503906 358.007812 C 196.546875 359.023438 195.761719 359.878906 194.746094 359.921875 C 192.199219 360.03125 189.609375 360.085938 187.050781 360.085938 Z M 154.585938 357.082031 C 154.472656 357.082031 154.359375 357.070312 154.246094 357.050781 C 147.59375 355.804688 140.953125 354.15625 134.5 352.148438 C 133.53125 351.847656 132.988281 350.820312 133.289062 349.851562 C 133.589844 348.882812 134.617188 348.339844 135.589844 348.640625 C 141.90625 350.605469 148.410156 352.21875 154.921875 353.441406 C 155.917969 353.625 156.578125 354.585938 156.390625 355.582031 C 156.222656 356.464844 155.453125 357.082031 154.585938 357.082031 Z M 116.195312 345.15625 C 115.945312 345.15625 115.695312 345.105469 115.453125 345 C 109.277344 342.261719 103.191406 339.136719 97.359375 335.699219 C 96.488281 335.183594 96.195312 334.058594 96.710938 333.183594 C 97.226562 332.3125 98.351562 332.019531 99.226562 332.535156 C 104.933594 335.898438 110.894531 338.960938 116.941406 341.640625 C 117.867188 342.050781 118.285156 343.136719 117.875 344.0625 C 117.570312 344.75 116.898438 345.15625 116.195312 345.15625 Z M 81.566406 324.757812 C 81.179688 324.757812 80.789062 324.636719 80.460938 324.386719 C 75.070312 320.3125 69.855469 315.878906 64.964844 311.214844 C 64.230469 310.511719 64.203125 309.351562 64.902344 308.617188 C 65.601562 307.882812 66.765625 307.855469 67.5 308.554688 C 72.292969 313.125 77.398438 317.464844 82.675781 321.453125 C 83.484375 322.066406 83.644531 323.21875 83.03125 324.027344 C 82.671875 324.503906 82.121094 324.757812 81.566406 324.757812 Z M 52.484375 297.019531 C 51.957031 297.019531 51.4375 296.796875 51.074219 296.359375 C 46.742188 291.167969 42.671875 285.667969 38.96875 280.019531 C 38.414062 279.171875 38.648438 278.03125 39.5 277.476562 C 40.347656 276.921875 41.484375 277.15625 42.042969 278.007812 C 45.667969 283.539062 49.65625 288.921875 53.894531 294.007812 C 54.542969 294.789062 54.4375 295.945312 53.660156 296.597656 C 53.316406 296.882812 52.898438 297.019531 52.484375 297.019531 Z M 52.484375 297.019531 " fill-opacity="1" fill-rule="nonzero"/><g clip-path="url(#5409e51b69)"><path fill="#003152" d="M 312.710938 306.921875 C 312.25 306.921875 311.789062 306.75 311.429688 306.402344 C 310.703125 305.695312 310.683594 304.535156 311.390625 303.804688 C 314.773438 300.320312 318.050781 296.648438 321.128906 292.890625 C 321.769531 292.109375 322.929688 291.992188 323.714844 292.636719 C 324.496094 293.277344 324.613281 294.4375 323.96875 295.21875 C 320.828125 299.054688 317.484375 302.804688 314.027344 306.363281 C 313.667969 306.734375 313.1875 306.921875 312.710938 306.921875 Z M 334.390625 279.621094 C 334.050781 279.621094 333.707031 279.523438 333.398438 279.328125 C 332.546875 278.777344 332.300781 277.640625 332.847656 276.789062 C 336.433594 271.21875 339.730469 265.382812 342.644531 259.445312 C 343.09375 258.535156 344.195312 258.160156 345.105469 258.609375 C 346.015625 259.054688 346.390625 260.15625 345.945312 261.066406 C 342.964844 267.128906 339.601562 273.085938 335.9375 278.777344 C 335.585938 279.324219 334.996094 279.621094 334.390625 279.621094 Z M 352.109375 243.542969 C 351.90625 243.542969 351.699219 243.507812 351.496094 243.4375 C 350.539062 243.097656 350.039062 242.046875 350.378906 241.089844 C 352.59375 234.855469 354.460938 228.417969 355.9375 221.964844 C 356.164062 220.976562 357.152344 220.359375 358.140625 220.582031 C 359.128906 220.808594 359.746094 221.796875 359.519531 222.785156 C 358.011719 229.375 356.101562 235.949219 353.84375 242.320312 C 353.574219 243.074219 352.867188 243.542969 352.109375 243.542969 Z M 361.082031 204.359375 C 361.015625 204.359375 360.949219 204.355469 360.878906 204.347656 C 359.871094 204.238281 359.144531 203.328125 359.253906 202.320312 C 359.949219 196.003906 360.300781 189.558594 360.300781 183.160156 C 360.300781 182.914062 360.300781 182.671875 360.300781 182.425781 C 360.296875 181.410156 361.113281 180.585938 362.128906 180.578125 C 362.132812 180.578125 362.132812 180.578125 362.136719 180.578125 C 363.148438 180.578125 363.96875 181.398438 363.972656 182.410156 C 363.976562 182.660156 363.976562 182.910156 363.976562 183.160156 C 363.976562 189.691406 363.617188 196.273438 362.90625 202.722656 C 362.800781 203.664062 362.007812 204.359375 361.082031 204.359375 Z M 360.910156 164.164062 C 359.992188 164.164062 359.199219 163.480469 359.085938 162.542969 C 358.308594 155.960938 357.136719 149.367188 355.609375 142.9375 C 355.375 141.949219 355.984375 140.960938 356.96875 140.722656 C 357.957031 140.488281 358.949219 141.101562 359.183594 142.085938 C 360.742188 148.652344 361.9375 155.390625 362.734375 162.113281 C 362.855469 163.121094 362.136719 164.035156 361.128906 164.152344 C 361.054688 164.160156 360.980469 164.164062 360.910156 164.164062 Z M 351.613281 125.070312 C 350.863281 125.070312 350.160156 124.605469 349.886719 123.859375 C 347.625 117.644531 344.96875 111.492188 342 105.574219 C 341.546875 104.667969 341.910156 103.5625 342.820312 103.109375 C 343.726562 102.652344 344.828125 103.019531 345.285156 103.925781 C 348.316406 109.972656 351.027344 116.257812 353.339844 122.605469 C 353.6875 123.558594 353.195312 124.609375 352.242188 124.957031 C 352.035156 125.035156 351.820312 125.070312 351.613281 125.070312 Z M 351.613281 125.070312 " fill-opacity="1" fill-rule="nonzero"/></g><path fill="#003152" d="M 70.539062 54.304688 C 70.03125 54.304688 69.53125 54.097656 69.167969 53.6875 C 68.492188 52.933594 68.558594 51.769531 69.316406 51.09375 C 74.359375 46.59375 79.71875 42.339844 85.238281 38.445312 C 86.070312 37.863281 87.214844 38.0625 87.800781 38.890625 C 88.382812 39.71875 88.1875 40.867188 87.355469 41.449219 C 81.949219 45.261719 76.703125 49.429688 71.761719 53.835938 C 71.410156 54.148438 70.972656 54.304688 70.539062 54.304688 Z M 103.390625 31.152344 C 102.738281 31.152344 102.109375 30.808594 101.777344 30.195312 C 101.289062 29.304688 101.617188 28.1875 102.507812 27.703125 C 108.449219 24.464844 114.636719 21.542969 120.902344 19.019531 C 121.839844 18.636719 122.910156 19.09375 123.292969 20.035156 C 123.671875 20.976562 123.214844 22.046875 122.273438 22.425781 C 116.140625 24.898438 110.082031 27.761719 104.265625 30.929688 C 103.988281 31.082031 103.6875 31.152344 103.390625 31.152344 Z M 140.65625 16.121094 C 139.851562 16.121094 139.109375 15.585938 138.886719 14.769531 C 138.617188 13.792969 139.195312 12.78125 140.171875 12.515625 C 146.683594 10.730469 153.378906 9.304688 160.066406 8.28125 C 161.070312 8.128906 162.007812 8.816406 162.160156 9.820312 C 162.3125 10.820312 161.625 11.757812 160.621094 11.914062 C 154.074219 12.914062 147.519531 14.308594 141.144531 16.058594 C 140.980469 16.101562 140.816406 16.121094 140.65625 16.121094 Z M 140.65625 16.121094 " fill-opacity="1" fill-rule="nonzero"/><path fill="#003152" d="M 12.996094 174.660156 C 12.96875 174.660156 12.945312 174.660156 12.917969 174.660156 C 11.902344 174.617188 11.117188 173.761719 11.160156 172.75 C 11.4375 165.972656 12.109375 159.164062 13.152344 152.507812 C 13.308594 151.503906 14.246094 150.820312 15.25 150.976562 C 16.253906 151.132812 16.9375 152.074219 16.78125 153.074219 C 15.761719 159.59375 15.105469 166.265625 14.828125 172.902344 C 14.789062 173.886719 13.972656 174.660156 12.996094 174.660156 Z M 19.21875 134.953125 C 19.054688 134.953125 18.890625 134.929688 18.726562 134.886719 C 17.75 134.613281 17.175781 133.601562 17.449219 132.625 C 19.253906 126.109375 21.464844 119.632812 24.011719 113.371094 C 24.394531 112.429688 25.464844 111.980469 26.40625 112.363281 C 27.34375 112.746094 27.796875 113.816406 27.414062 114.757812 C 24.917969 120.886719 22.757812 127.226562 20.988281 133.605469 C 20.761719 134.421875 20.023438 134.953125 19.21875 134.953125 Z M 19.21875 134.953125 " fill-opacity="1" fill-rule="nonzero"/><path fill="#ec9707" d="M 315.601562 183.160156 C 315.601562 185.265625 315.550781 187.367188 315.449219 189.46875 C 315.34375 191.570312 315.191406 193.667969 314.984375 195.761719 C 314.777344 197.855469 314.519531 199.941406 314.210938 202.023438 C 313.902344 204.105469 313.542969 206.175781 313.132812 208.242188 C 312.722656 210.304688 312.261719 212.355469 311.75 214.398438 C 311.238281 216.4375 310.675781 218.464844 310.066406 220.476562 C 309.457031 222.492188 308.796875 224.488281 308.085938 226.46875 C 307.378906 228.449219 306.621094 230.414062 305.816406 232.355469 C 305.011719 234.300781 304.160156 236.222656 303.261719 238.125 C 302.359375 240.027344 301.414062 241.90625 300.421875 243.761719 C 299.429688 245.617188 298.394531 247.445312 297.3125 249.25 C 296.230469 251.054688 295.105469 252.832031 293.9375 254.582031 C 292.769531 256.332031 291.558594 258.050781 290.304688 259.738281 C 289.050781 261.429688 287.757812 263.085938 286.421875 264.714844 C 285.085938 266.339844 283.714844 267.933594 282.300781 269.492188 C 280.886719 271.050781 279.4375 272.574219 277.949219 274.0625 C 276.460938 275.550781 274.9375 277 273.378906 278.414062 C 271.820312 279.824219 270.230469 281.199219 268.601562 282.535156 C 266.976562 283.867188 265.320312 285.164062 263.628906 286.414062 C 261.9375 287.667969 260.21875 288.878906 258.46875 290.046875 C 256.71875 291.21875 254.945312 292.34375 253.140625 293.425781 C 251.335938 294.503906 249.503906 295.542969 247.648438 296.535156 C 245.792969 297.527344 243.914062 298.472656 242.011719 299.371094 C 240.113281 300.269531 238.1875 301.121094 236.246094 301.929688 C 234.300781 302.734375 232.339844 303.488281 230.359375 304.199219 C 228.378906 304.90625 226.378906 305.566406 224.367188 306.179688 C 222.355469 306.789062 220.328125 307.351562 218.285156 307.859375 C 216.246094 308.371094 214.191406 308.832031 212.128906 309.242188 C 210.066406 309.652344 207.992188 310.011719 205.914062 310.320312 C 203.832031 310.628906 201.746094 310.886719 199.652344 311.09375 C 197.558594 311.300781 195.460938 311.457031 193.359375 311.558594 C 191.257812 311.660156 189.152344 311.714844 187.050781 311.714844 C 184.945312 311.714844 182.84375 311.660156 180.742188 311.558594 C 178.640625 311.457031 176.542969 311.300781 174.449219 311.09375 C 172.355469 310.886719 170.269531 310.628906 168.1875 310.320312 C 166.105469 310.011719 164.035156 309.652344 161.972656 309.242188 C 159.90625 308.832031 157.855469 308.371094 155.8125 307.859375 C 153.773438 307.351562 151.746094 306.789062 149.734375 306.179688 C 147.71875 305.566406 145.722656 304.90625 143.742188 304.199219 C 141.761719 303.488281 139.800781 302.734375 137.855469 301.929688 C 135.910156 301.121094 133.988281 300.269531 132.085938 299.371094 C 130.183594 298.472656 128.304688 297.527344 126.449219 296.535156 C 124.59375 295.542969 122.765625 294.503906 120.960938 293.425781 C 119.15625 292.34375 117.378906 291.21875 115.628906 290.046875 C 113.882812 288.878906 112.160156 287.667969 110.472656 286.414062 C 108.78125 285.160156 107.125 283.867188 105.496094 282.535156 C 103.871094 281.199219 102.277344 279.824219 100.71875 278.414062 C 99.160156 277 97.636719 275.550781 96.148438 274.0625 C 94.664062 272.574219 93.210938 271.050781 91.800781 269.492188 C 90.386719 267.933594 89.011719 266.339844 87.679688 264.714844 C 86.34375 263.085938 85.050781 261.429688 83.796875 259.738281 C 82.542969 258.050781 81.332031 256.332031 80.164062 254.582031 C 78.992188 252.832031 77.867188 251.054688 76.789062 249.25 C 75.707031 247.445312 74.667969 245.617188 73.675781 243.761719 C 72.683594 241.90625 71.738281 240.027344 70.839844 238.125 C 69.941406 236.222656 69.089844 234.300781 68.285156 232.355469 C 67.476562 230.414062 66.722656 228.449219 66.011719 226.46875 C 65.304688 224.488281 64.644531 222.492188 64.035156 220.476562 C 63.421875 218.464844 62.863281 216.4375 62.351562 214.398438 C 61.839844 212.355469 61.378906 210.304688 60.96875 208.242188 C 60.558594 206.175781 60.199219 204.105469 59.890625 202.023438 C 59.582031 199.941406 59.324219 197.855469 59.117188 195.761719 C 58.910156 193.667969 58.757812 191.570312 58.652344 189.46875 C 58.550781 187.367188 58.496094 185.265625 58.496094 183.160156 C 58.496094 181.058594 58.550781 178.953125 58.652344 176.855469 C 58.757812 174.753906 58.910156 172.65625 59.117188 170.5625 C 59.324219 168.46875 59.582031 166.378906 59.890625 164.296875 C 60.199219 162.21875 60.558594 160.144531 60.96875 158.082031 C 61.378906 156.019531 61.839844 153.964844 62.351562 151.925781 C 62.863281 149.886719 63.421875 147.859375 64.035156 145.84375 C 64.644531 143.832031 65.304688 141.835938 66.011719 139.851562 C 66.722656 137.871094 67.476562 135.910156 68.285156 133.964844 C 69.089844 132.023438 69.941406 130.101562 70.839844 128.199219 C 71.738281 126.296875 72.683594 124.417969 73.675781 122.5625 C 74.667969 120.707031 75.707031 118.875 76.789062 117.070312 C 77.867188 115.269531 78.992188 113.492188 80.164062 111.742188 C 81.332031 109.992188 82.542969 108.273438 83.796875 106.582031 C 85.050781 104.894531 86.34375 103.234375 87.679688 101.609375 C 89.011719 99.980469 90.386719 98.390625 91.800781 96.832031 C 93.210938 95.273438 94.664062 93.75 96.148438 92.261719 C 97.636719 90.773438 99.160156 89.324219 100.71875 87.910156 C 102.277344 86.496094 103.871094 85.125 105.496094 83.789062 C 107.125 82.453125 108.78125 81.160156 110.472656 79.90625 C 112.160156 78.652344 113.882812 77.441406 115.628906 76.273438 C 117.378906 75.105469 119.15625 73.980469 120.960938 72.898438 C 122.765625 71.816406 124.59375 70.78125 126.449219 69.789062 C 128.304688 68.796875 130.183594 67.851562 132.085938 66.953125 C 133.988281 66.050781 135.910156 65.199219 137.855469 64.394531 C 139.800781 63.589844 141.761719 62.832031 143.742188 62.125 C 145.722656 61.414062 147.71875 60.753906 149.734375 60.144531 C 151.746094 59.535156 153.773438 58.972656 155.8125 58.460938 C 157.855469 57.949219 159.90625 57.488281 161.972656 57.078125 C 164.035156 56.667969 166.105469 56.308594 168.1875 56 C 170.269531 55.691406 172.355469 55.433594 174.449219 55.226562 C 176.542969 55.023438 178.640625 54.867188 180.742188 54.765625 C 182.84375 54.660156 184.945312 54.609375 187.050781 54.609375 C 189.152344 54.609375 191.257812 54.660156 193.359375 54.765625 C 195.460938 54.867188 197.558594 55.023438 199.652344 55.226562 C 201.746094 55.433594 203.832031 55.691406 205.914062 56 C 207.992188 56.308594 210.066406 56.667969 212.128906 57.078125 C 214.191406 57.488281 216.246094 57.949219 218.285156 58.460938 C 220.328125 58.972656 222.355469 59.535156 224.367188 60.144531 C 226.378906 60.753906 228.378906 61.414062 230.359375 62.125 C 232.339844 62.832031 234.300781 63.589844 236.246094 64.394531 C 238.1875 65.199219 240.113281 66.050781 242.011719 66.953125 C 243.914062 67.851562 245.792969 68.796875 247.648438 69.789062 C 249.503906 70.78125 251.335938 71.816406 253.140625 72.898438 C 254.945312 73.980469 256.71875 75.105469 258.46875 76.273438 C 260.21875 77.441406 261.9375 78.652344 263.628906 79.90625 C 265.320312 81.160156 266.976562 82.453125 268.601562 83.789062 C 270.230469 85.125 271.820312 86.496094 273.378906 87.910156 C 274.9375 89.324219 276.460938 90.773438 277.949219 92.261719 C 279.4375 93.75 280.886719 95.273438 282.300781 96.832031 C 283.714844 98.390625 285.085938 99.980469 286.421875 101.609375 C 287.757812 103.234375 289.050781 104.894531 290.304688 106.582031 C 291.558594 108.273438 292.769531 109.992188 293.9375 111.742188 C 295.105469 113.492188 296.230469 115.269531 297.3125 117.070312 C 298.394531 118.875 299.429688 120.707031 300.421875 122.5625 C 301.414062 124.417969 302.359375 126.296875 303.261719 128.199219 C 304.160156 130.101562 305.011719 132.023438 305.816406 133.964844 C 306.621094 135.910156 307.378906 137.871094 308.085938 139.851562 C 308.796875 141.835938 309.457031 143.832031 310.066406 145.84375 C 310.675781 147.859375 311.238281 149.886719 311.75 151.925781 C 312.261719 153.964844 312.722656 156.019531 313.132812 158.082031 C 313.542969 160.144531 313.902344 162.21875 314.210938 164.296875 C 314.519531 166.378906 314.777344 168.46875 314.984375 170.5625 C 315.191406 172.65625 315.34375 174.753906 315.449219 176.855469 C 315.550781 178.953125 315.601562 181.058594 315.601562 183.160156 Z M 315.601562 183.160156 " fill-opacity="1" fill-rule="nonzero"/><path fill="#ffffff" d="M 285.933594 17.890625 L 285.933594 12.980469 C 285.933594 10.628906 284.027344 8.726562 281.675781 8.726562 C 279.328125 8.726562 277.421875 10.628906 277.421875 13.617188 L 277.421875 17.890625 Z M 285.933594 17.890625 " fill-opacity="1" fill-rule="nonzero"/><g clip-path="url(#3c2328664d)"><path fill="#003152" d="M 285.933594 19.726562 C 284.917969 19.726562 284.097656 18.90625 284.097656 17.890625 L 284.097656 12.980469 C 284.097656 11.648438 283.011719 10.5625 281.675781 10.5625 C 280.230469 10.5625 279.257812 11.789062 279.257812 13.617188 L 279.257812 17.890625 C 279.257812 18.90625 278.4375 19.726562 277.421875 19.726562 C 276.40625 19.726562 275.585938 18.90625 275.585938 17.890625 L 275.585938 13.617188 C 275.585938 9.78125 278.203125 6.890625 281.675781 6.890625 C 285.035156 6.890625 287.769531 9.621094 287.769531 12.980469 L 287.769531 17.890625 C 287.769531 18.90625 286.949219 19.726562 285.933594 19.726562 Z M 285.933594 19.726562 " fill-opacity="1" fill-rule="nonzero"/></g><path fill="#ffffff" d="M 238.496094 29.300781 L 238.496094 102.292969 L 239.523438 111.882812 L 320.21875 111.882812 C 322.773438 111.882812 324.847656 109.808594 324.847656 107.253906 L 324.859375 29.300781 Z M 238.496094 29.300781 " fill-opacity="1" fill-rule="nonzero"/><path fill="#003152" d="M 320.21875 113.71875 L 239.523438 113.71875 C 238.582031 113.71875 237.796875 113.011719 237.695312 112.078125 L 236.667969 102.488281 C 236.660156 102.421875 236.65625 102.355469 236.65625 102.292969 L 236.65625 29.300781 C 236.65625 28.289062 237.480469 27.464844 238.496094 27.464844 C 239.507812 27.464844 240.332031 28.289062 240.332031 29.300781 L 240.332031 102.191406 L 241.171875 110.046875 L 320.21875 110.046875 C 321.757812 110.046875 323.011719 108.792969 323.011719 107.253906 L 323.023438 29.300781 C 323.023438 28.289062 323.847656 27.464844 324.859375 27.464844 C 325.875 27.464844 326.699219 28.289062 326.695312 29.300781 L 326.683594 107.253906 C 326.683594 110.820312 323.78125 113.71875 320.21875 113.71875 Z M 320.21875 113.71875 " fill-opacity="1" fill-rule="nonzero"/><path fill="#98b7e4" d="M 326.410156 29.300781 L 236.945312 29.300781 C 235.410156 29.300781 234.167969 28.058594 234.167969 26.523438 L 234.167969 20.667969 C 234.167969 19.136719 235.410156 17.890625 236.945312 17.890625 L 326.410156 17.890625 C 327.941406 17.890625 329.1875 19.136719 329.1875 20.667969 L 329.1875 26.523438 C 329.1875 28.058594 327.941406 29.300781 326.410156 29.300781 Z M 326.410156 29.300781 " fill-opacity="1" fill-rule="nonzero"/><path fill="#003152" d="M 326.410156 31.140625 L 236.945312 31.140625 C 234.402344 31.140625 232.332031 29.070312 232.332031 26.523438 L 232.332031 20.667969 C 232.332031 18.125 234.402344 16.054688 236.945312 16.054688 L 326.410156 16.054688 C 328.953125 16.054688 331.023438 18.125 331.023438 20.667969 L 331.023438 26.523438 C 331.023438 29.070312 328.953125 31.140625 326.410156 31.140625 Z M 236.945312 19.726562 C 236.425781 19.726562 236.003906 20.148438 236.003906 20.667969 L 236.003906 26.523438 C 236.003906 27.042969 236.425781 27.464844 236.945312 27.464844 L 326.410156 27.464844 C 326.929688 27.464844 327.351562 27.042969 327.351562 26.523438 L 327.351562 20.667969 C 327.351562 20.148438 326.929688 19.726562 326.410156 19.726562 Z M 236.945312 19.726562 " fill-opacity="1" fill-rule="nonzero"/><path fill="#003152" d="M 221.320312 13.238281 L 221.109375 13.292969 C 221.839844 12.035156 222.265625 10.582031 222.265625 9.023438 L 196.722656 9.023438 C 188.886719 9.023438 182.535156 15.375 182.535156 23.210938 L 182.535156 36.351562 L 227.941406 36.210938 L 227.941406 23.222656 C 227.941406 18.03125 225.15625 14.445312 221.320312 13.238281 Z M 221.320312 13.238281 " fill-opacity="1" fill-rule="nonzero"/><path fill="#003152" d="M 182.535156 38.1875 C 182.046875 38.1875 181.582031 37.996094 181.238281 37.652344 C 180.890625 37.308594 180.695312 36.839844 180.695312 36.351562 L 180.695312 23.210938 C 180.695312 14.375 187.886719 7.1875 196.722656 7.1875 L 222.265625 7.1875 C 223.28125 7.1875 224.101562 8.007812 224.101562 9.023438 C 224.101562 10.101562 223.929688 11.167969 223.601562 12.191406 C 227.453125 14.15625 229.777344 18.226562 229.777344 23.222656 L 229.777344 36.210938 C 229.777344 37.222656 228.957031 38.042969 227.945312 38.046875 L 182.539062 38.1875 C 182.539062 38.1875 182.535156 38.1875 182.535156 38.1875 Z M 196.722656 10.859375 C 189.914062 10.859375 184.371094 16.402344 184.371094 23.210938 L 184.371094 34.507812 L 226.105469 34.378906 L 226.105469 23.222656 C 226.105469 19.28125 224.265625 16.289062 221.164062 15.128906 C 220.578125 15.140625 220.007812 14.878906 219.644531 14.398438 C 219.199219 13.808594 219.148438 13.007812 219.523438 12.367188 C 219.800781 11.890625 220.015625 11.382812 220.167969 10.859375 Z M 196.722656 10.859375 " fill-opacity="1" fill-rule="nonzero"/><path fill="#003152" d="M 184.070312 97.597656 L 184.070312 132.011719 L 228.117188 132.011719 L 228.117188 97.597656 L 228.117188 106.78125 L 236.09375 118.902344 L 242.574219 100.027344 C 242.574219 100.027344 239.195312 92.730469 237.027344 87.851562 C 232.507812 79.230469 223.511719 73.328125 213.125 73.238281 L 197.625 73.257812 C 183.085938 73.832031 171.476562 85.800781 171.476562 100.480469 L 171.476562 136.101562 L 183.996094 136.101562 Z M 184.070312 97.597656 " fill-opacity="1" fill-rule="nonzero"/><path fill="#003152" d="M 183.996094 137.941406 L 171.476562 137.941406 C 170.464844 137.941406 169.640625 137.117188 169.640625 136.101562 L 169.640625 100.476562 C 169.640625 92.914062 172.53125 85.75 177.777344 80.304688 C 183.007812 74.875 190.03125 71.71875 197.550781 71.421875 C 197.574219 71.421875 197.597656 71.421875 197.621094 71.421875 L 213.121094 71.402344 C 213.128906 71.402344 213.132812 71.402344 213.140625 71.402344 C 223.886719 71.496094 233.660156 77.472656 238.652344 87 C 238.671875 87.035156 238.6875 87.070312 238.703125 87.105469 C 240.84375 91.914062 244.207031 99.183594 244.242188 99.253906 C 244.441406 99.683594 244.464844 100.175781 244.3125 100.621094 L 237.832031 119.496094 C 237.601562 120.160156 237.019531 120.636719 236.324219 120.722656 C 235.628906 120.808594 234.945312 120.496094 234.558594 119.910156 L 229.953125 112.914062 L 229.953125 132.011719 C 229.953125 133.027344 229.128906 133.851562 228.117188 133.851562 L 185.835938 133.851562 L 185.832031 136.105469 C 185.828125 137.121094 185.007812 137.941406 183.996094 137.941406 Z M 173.316406 134.265625 L 182.160156 134.265625 L 182.230469 97.59375 C 182.234375 96.578125 183.054688 95.757812 184.070312 95.757812 C 185.085938 95.761719 185.90625 96.582031 185.90625 97.597656 L 185.90625 130.175781 L 226.277344 130.175781 L 226.277344 97.597656 C 226.277344 96.582031 227.101562 95.757812 228.113281 95.757812 C 229.128906 95.757812 229.953125 96.582031 229.953125 97.597656 L 229.953125 106.230469 L 235.570312 114.765625 L 240.597656 100.128906 C 239.714844 98.214844 237.140625 92.625 235.371094 88.652344 C 231.003906 80.363281 222.480469 75.160156 213.117188 75.074219 L 197.660156 75.09375 C 184.007812 75.652344 173.316406 86.796875 173.316406 100.476562 Z M 173.316406 134.265625 " fill-opacity="1" fill-rule="nonzero"/><path fill="#ffffff" d="M 184.070312 132.015625 L 228.117188 132.015625 L 228.117188 166.640625 L 184.070312 166.640625 Z M 184.070312 132.015625 " fill-opacity="1" fill-rule="nonzero"/><path fill="#003152" d="M 228.117188 168.480469 C 227.101562 168.480469 226.277344 167.65625 226.277344 166.640625 L 226.277344 133.851562 L 185.90625 133.851562 L 185.90625 166.640625 C 185.90625 167.65625 185.082031 168.480469 184.070312 168.480469 C 183.054688 168.480469 182.230469 167.65625 182.230469 166.640625 L 182.230469 132.011719 C 182.230469 131 183.054688 130.175781 184.070312 130.175781 L 228.117188 130.175781 C 229.128906 130.175781 229.953125 131 229.953125 132.011719 L 229.953125 166.640625 C 229.953125 167.65625 229.128906 168.480469 228.117188 168.480469 Z M 228.117188 168.480469 " fill-opacity="1" fill-rule="nonzero"/><path fill="#ffffff" d="M 184.070312 153.851562 L 177.773438 153.851562 C 174.296875 153.851562 171.476562 151.03125 171.476562 147.554688 L 171.476562 136.101562 L 184.070312 136.101562 Z M 184.070312 153.851562 " fill-opacity="1" fill-rule="nonzero"/><path fill="#003152" d="M 184.070312 155.6875 L 177.773438 155.6875 C 173.289062 155.6875 169.640625 152.039062 169.640625 147.554688 L 169.640625 136.101562 C 169.640625 135.089844 170.464844 134.265625 171.476562 134.265625 L 184.070312 134.265625 C 185.082031 134.265625 185.90625 135.089844 185.90625 136.101562 L 185.90625 153.851562 C 185.90625 154.863281 185.082031 155.6875 184.070312 155.6875 Z M 173.3125 137.941406 L 173.3125 147.554688 C 173.3125 150.011719 175.316406 152.015625 177.773438 152.015625 L 182.230469 152.015625 L 182.230469 137.941406 Z M 173.3125 137.941406 " fill-opacity="1" fill-rule="nonzero"/><path fill="#ffffff" d="M 213.125 62.601562 L 213.125 72.414062 C 213.125 76.695312 209.65625 80.164062 205.375 80.164062 C 201.097656 80.164062 197.628906 76.695312 197.628906 72.414062 L 197.628906 62.601562 Z M 213.125 62.601562 " fill-opacity="1" fill-rule="nonzero"/><path fill="#003152" d="M 205.378906 82 C 200.089844 82 195.792969 77.699219 195.792969 72.414062 L 195.792969 62.601562 C 195.792969 61.585938 196.613281 60.765625 197.628906 60.765625 C 198.644531 60.765625 199.464844 61.585938 199.464844 62.601562 L 199.464844 72.414062 C 199.464844 75.671875 202.117188 78.324219 205.378906 78.324219 C 208.636719 78.324219 211.289062 75.671875 211.289062 72.414062 L 211.289062 62.601562 C 211.289062 61.585938 212.109375 60.765625 213.125 60.765625 C 214.140625 60.765625 214.960938 61.585938 214.960938 62.601562 L 214.960938 72.414062 C 214.960938 77.699219 210.660156 82 205.378906 82 Z M 205.378906 82 " fill-opacity="1" fill-rule="nonzero"/><path fill="#ffffff" d="M 222.542969 33.777344 L 222.542969 31.863281 C 222.542969 23.941406 216.121094 17.523438 208.203125 17.523438 L 202.289062 17.523438 C 194.371094 17.523438 187.953125 23.941406 187.953125 31.863281 L 187.953125 33.78125 C 184.019531 33.835938 180.84375 37.035156 180.84375 40.984375 C 180.84375 44.929688 184.019531 48.128906 187.953125 48.1875 L 187.953125 50.105469 C 187.953125 58.023438 194.371094 64.441406 202.289062 64.441406 L 208.203125 64.441406 C 216.121094 64.441406 222.542969 58.023438 222.542969 50.105469 L 222.542969 48.191406 C 226.523438 48.191406 229.75 44.964844 229.75 40.984375 C 229.75 37 226.523438 33.777344 222.542969 33.777344 Z M 222.542969 33.777344 " fill-opacity="1" fill-rule="nonzero"/><path fill="#003152" d="M 208.203125 66.28125 L 202.289062 66.28125 C 193.371094 66.28125 186.113281 59.023438 186.113281 50.105469 L 186.113281 49.8125 C 182.0625 48.917969 179.007812 45.277344 179.007812 40.984375 C 179.007812 36.6875 182.0625 33.050781 186.113281 32.15625 L 186.113281 31.863281 C 186.113281 22.941406 193.371094 15.6875 202.289062 15.6875 L 208.203125 15.6875 C 217.121094 15.6875 224.378906 22.941406 224.378906 31.863281 L 224.378906 32.125 C 228.488281 32.976562 231.585938 36.625 231.585938 40.984375 C 231.585938 45.339844 228.488281 48.988281 224.378906 49.839844 L 224.378906 50.105469 C 224.378906 59.023438 217.121094 66.28125 208.203125 66.28125 Z M 202.289062 19.359375 C 195.394531 19.359375 189.789062 24.96875 189.789062 31.863281 L 189.789062 33.78125 C 189.789062 34.785156 188.980469 35.605469 187.976562 35.617188 C 185.058594 35.65625 182.683594 38.066406 182.683594 40.984375 C 182.683594 43.902344 185.058594 46.308594 187.976562 46.351562 C 188.980469 46.363281 189.789062 47.183594 189.789062 48.1875 L 189.789062 50.105469 C 189.789062 57 195.394531 62.605469 202.289062 62.605469 L 208.203125 62.605469 C 215.097656 62.605469 220.707031 57 220.707031 50.105469 L 220.707031 48.191406 C 220.707031 47.175781 221.527344 46.351562 222.542969 46.351562 C 225.503906 46.351562 227.914062 43.945312 227.914062 40.984375 C 227.914062 38.023438 225.503906 35.613281 222.542969 35.613281 C 221.527344 35.613281 220.707031 34.789062 220.707031 33.777344 L 220.707031 31.863281 C 220.707031 24.96875 215.097656 19.359375 208.203125 19.359375 Z M 202.289062 19.359375 " fill-opacity="1" fill-rule="nonzero"/><path fill="#ffffff" d="M 249.039062 96.457031 C 248.785156 94.1875 247.652344 92.425781 245.210938 91.910156 C 243.144531 91.476562 241.054688 92.414062 240.429688 94.429688 L 234.734375 112.808594 C 233.738281 116.089844 235.492188 119.570312 238.714844 120.730469 L 244.941406 122.96875 C 244.941406 122.96875 249.734375 125.039062 251.140625 121.929688 Z M 249.039062 96.457031 " fill-opacity="1" fill-rule="nonzero"/><path fill="#003152" d="M 248.128906 125.484375 C 247.878906 125.484375 247.617188 125.46875 247.34375 125.445312 C 245.859375 125.304688 244.589844 124.8125 244.273438 124.679688 L 238.09375 122.460938 C 233.945312 120.96875 231.695312 116.496094 232.976562 112.277344 L 238.671875 93.886719 C 239.554688 91.042969 242.460938 89.453125 245.585938 90.113281 C 248.621094 90.75 250.496094 92.933594 250.863281 96.253906 C 250.976562 97.261719 250.25 98.171875 249.242188 98.285156 C 248.234375 98.394531 247.324219 97.667969 247.214844 96.660156 C 246.964844 94.433594 245.8125 93.914062 244.832031 93.707031 C 243.8125 93.492188 242.546875 93.796875 242.183594 94.972656 L 236.488281 113.351562 C 235.78125 115.6875 237.03125 118.175781 239.335938 119.003906 L 245.5625 121.238281 C 245.597656 121.253906 245.636719 121.265625 245.671875 121.28125 C 245.695312 121.292969 248.851562 122.53125 249.464844 121.175781 C 249.882812 120.25 250.96875 119.839844 251.894531 120.257812 C 252.820312 120.675781 253.230469 121.761719 252.8125 122.6875 C 252.324219 123.769531 251.085938 125.484375 248.128906 125.484375 Z M 248.128906 125.484375 " fill-opacity="1" fill-rule="nonzero"/><path fill="#003152" d="M 253.078125 96.847656 C 252.875 96.847656 252.667969 96.8125 252.46875 96.742188 C 251.511719 96.402344 251.007812 95.355469 251.347656 94.398438 L 267.804688 47.773438 C 268.144531 46.816406 269.191406 46.3125 270.148438 46.652344 C 271.105469 46.988281 271.605469 48.039062 271.269531 48.996094 L 254.8125 95.621094 C 254.542969 96.375 253.835938 96.847656 253.078125 96.847656 Z M 253.078125 96.847656 " fill-opacity="1" fill-rule="nonzero"/><path fill="#003152" d="M 206.09375 168.480469 C 205.078125 168.480469 204.253906 167.65625 204.253906 166.640625 L 204.253906 142.976562 C 204.253906 141.960938 205.078125 141.140625 206.09375 141.140625 C 207.105469 141.140625 207.929688 141.960938 207.929688 142.976562 L 207.929688 166.640625 C 207.929688 167.65625 207.105469 168.480469 206.09375 168.480469 Z M 206.09375 168.480469 " fill-opacity="1" fill-rule="nonzero"/><path fill="#003152" d="M 184.070312 137.941406 L 171.476562 137.941406 C 170.464844 137.941406 169.640625 137.117188 169.640625 136.101562 C 169.640625 135.089844 170.464844 134.265625 171.476562 134.265625 L 184.070312 134.265625 C 185.082031 134.265625 185.90625 135.089844 185.90625 136.101562 C 185.90625 137.117188 185.082031 137.941406 184.070312 137.941406 Z M 184.070312 137.941406 " fill-opacity="1" fill-rule="nonzero"/><path fill="#003152" d="M 277.207031 95.070312 C 276.195312 95.070312 275.371094 94.246094 275.371094 93.234375 L 275.371094 64.441406 C 275.371094 63.429688 276.195312 62.605469 277.207031 62.605469 C 278.222656 62.605469 279.046875 63.429688 279.046875 64.441406 L 279.046875 93.234375 C 279.046875 94.246094 278.222656 95.070312 277.207031 95.070312 Z M 277.207031 95.070312 " fill-opacity="1" fill-rule="nonzero"/><path fill="#003152" d="M 291.605469 95.070312 C 290.589844 95.070312 289.769531 94.246094 289.769531 93.234375 L 289.769531 60.730469 C 289.769531 59.714844 290.589844 58.894531 291.605469 58.894531 C 292.621094 58.894531 293.441406 59.714844 293.441406 60.730469 L 293.441406 93.234375 C 293.441406 94.246094 292.621094 95.070312 291.605469 95.070312 Z M 291.605469 95.070312 " fill-opacity="1" fill-rule="nonzero"/><path fill="#003152" d="M 306.152344 95.070312 C 305.136719 95.070312 304.316406 94.246094 304.316406 93.234375 L 304.316406 57.316406 C 304.316406 56.300781 305.136719 55.480469 306.152344 55.480469 C 307.167969 55.480469 307.988281 56.300781 307.988281 57.316406 L 307.988281 93.234375 C 307.988281 94.246094 307.167969 95.070312 306.152344 95.070312 Z M 306.152344 95.070312 " fill-opacity="1" fill-rule="nonzero"/><path fill="#003152" d="M 316.5 95.070312 L 268.136719 95.070312 C 267.125 95.070312 266.300781 94.246094 266.300781 93.234375 C 266.300781 92.21875 267.125 91.394531 268.136719 91.394531 L 316.5 91.394531 C 317.511719 91.394531 318.335938 92.21875 318.335938 93.234375 C 318.335938 94.246094 317.511719 95.070312 316.5 95.070312 Z M 316.5 95.070312 " fill-opacity="1" fill-rule="nonzero"/><path fill="#ffffff" d="M 247.707031 124.109375 L 251.285156 125.351562 C 253.15625 126 255.199219 125.007812 255.847656 123.136719 L 263.6875 100.511719 C 264.335938 98.640625 263.34375 96.597656 261.476562 95.949219 L 257.898438 94.710938 C 253.679688 93.25 249.078125 95.480469 247.617188 99.699219 L 242.71875 113.832031 C 241.257812 118.046875 243.492188 122.648438 247.707031 124.109375 Z M 247.707031 124.109375 " fill-opacity="1" fill-rule="nonzero"/><path fill="#003152" d="M 252.464844 127.386719 C 251.867188 127.386719 251.265625 127.289062 250.683594 127.085938 L 247.105469 125.847656 C 241.9375 124.054688 239.191406 118.394531 240.984375 113.230469 L 245.882812 99.097656 C 246.75 96.59375 248.539062 94.578125 250.921875 93.421875 C 253.304688 92.265625 255.996094 92.109375 258.496094 92.976562 L 262.078125 94.214844 C 264.902344 95.195312 266.402344 98.289062 265.421875 101.113281 L 257.582031 123.738281 C 257.109375 125.109375 256.128906 126.210938 254.824219 126.839844 C 254.078125 127.203125 253.273438 127.386719 252.464844 127.386719 Z M 248.308594 122.375 L 251.886719 123.617188 C 252.328125 123.769531 252.800781 123.738281 253.222656 123.535156 C 253.640625 123.332031 253.957031 122.976562 254.109375 122.535156 L 261.953125 99.910156 C 262.269531 99 261.785156 98 260.875 97.6875 L 257.292969 96.445312 C 255.71875 95.898438 254.027344 96 252.527344 96.726562 C 251.023438 97.457031 249.898438 98.722656 249.351562 100.300781 L 244.453125 114.433594 C 243.328125 117.683594 245.054688 121.246094 248.308594 122.375 Z M 248.308594 122.375 " fill-opacity="1" fill-rule="nonzero"/><path fill="#ffffff" d="M 331.023438 120.148438 C 331.023438 121.191406 330.925781 122.226562 330.726562 123.25 C 330.53125 124.277344 330.238281 125.269531 329.855469 126.234375 C 329.46875 127.199219 328.996094 128.117188 328.433594 128.984375 C 327.875 129.855469 327.238281 130.65625 326.523438 131.394531 C 325.808594 132.132812 325.035156 132.792969 324.195312 133.375 C 323.355469 133.953125 322.472656 134.445312 321.539062 134.84375 C 320.605469 135.242188 319.648438 135.542969 318.65625 135.75 C 317.667969 135.953125 316.667969 136.054688 315.660156 136.054688 C 314.652344 136.054688 313.652344 135.953125 312.664062 135.75 C 311.671875 135.542969 310.714844 135.242188 309.78125 134.84375 C 308.847656 134.445312 307.964844 133.953125 307.125 133.375 C 306.285156 132.792969 305.511719 132.132812 304.796875 131.394531 C 304.082031 130.65625 303.445312 129.855469 302.886719 128.984375 C 302.324219 128.117188 301.851562 127.199219 301.46875 126.234375 C 301.082031 125.269531 300.789062 124.277344 300.59375 123.25 C 300.394531 122.226562 300.296875 121.191406 300.296875 120.148438 C 300.296875 119.105469 300.394531 118.070312 300.59375 117.046875 C 300.789062 116.023438 301.082031 115.027344 301.464844 114.0625 C 301.851562 113.097656 302.324219 112.179688 302.886719 111.3125 C 303.445312 110.445312 304.082031 109.640625 304.796875 108.902344 C 305.511719 108.164062 306.285156 107.503906 307.125 106.925781 C 307.964844 106.34375 308.847656 105.855469 309.78125 105.453125 C 310.714844 105.054688 311.671875 104.753906 312.664062 104.550781 C 313.652344 104.34375 314.652344 104.242188 315.660156 104.242188 C 316.667969 104.242188 317.667969 104.34375 318.65625 104.550781 C 319.648438 104.753906 320.605469 105.054688 321.539062 105.453125 C 322.472656 105.855469 323.355469 106.34375 324.195312 106.925781 C 325.035156 107.503906 325.808594 108.164062 326.523438 108.902344 C 327.238281 109.640625 327.875 110.445312 328.433594 111.3125 C 328.996094 112.179688 329.46875 113.097656 329.855469 114.0625 C 330.238281 115.027344 330.53125 116.023438 330.726562 117.046875 C 330.925781 118.070312 331.023438 119.105469 331.023438 120.148438 Z M 331.023438 120.148438 " fill-opacity="1" fill-rule="nonzero"/><path fill="#003152" d="M 315.660156 137.890625 C 306.175781 137.890625 298.460938 129.933594 298.460938 120.148438 C 298.460938 110.367188 306.175781 102.40625 315.660156 102.40625 C 325.144531 102.40625 332.859375 110.367188 332.859375 120.148438 C 332.859375 129.933594 325.144531 137.890625 315.660156 137.890625 Z M 315.660156 106.082031 C 308.203125 106.082031 302.132812 112.390625 302.132812 120.148438 C 302.132812 127.90625 308.203125 134.21875 315.660156 134.21875 C 323.117188 134.21875 329.1875 127.90625 329.1875 120.148438 C 329.1875 112.390625 323.117188 106.082031 315.660156 106.082031 Z M 315.660156 106.082031 " fill-opacity="1" fill-rule="nonzero"/><path fill="#98b7e4" d="M 287.492188 172.367188 C 288.289062 160.550781 289.945312 149.164062 294.957031 142.378906 C 298.15625 138.039062 303.195312 133.105469 308.429688 133.121094 C 312.71875 133.128906 317.832031 133.144531 323.742188 133.152344 C 329.222656 133.160156 334.386719 138.414062 337.640625 143.035156 C 342.375 149.769531 343.90625 160.90625 344.652344 172.40625 Z M 287.492188 172.367188 " fill-opacity="1" fill-rule="nonzero"/><path fill="#003152" d="M 344.652344 174.242188 C 343.691406 174.242188 342.882812 173.496094 342.820312 172.523438 C 342.191406 162.816406 340.859375 150.8125 336.136719 144.09375 C 334.214844 141.359375 329.15625 134.996094 323.742188 134.992188 C 319.230469 134.984375 315.183594 134.972656 311.613281 134.964844 L 308.425781 134.957031 C 308.417969 134.957031 308.414062 134.957031 308.410156 134.957031 C 303.273438 134.957031 298.324219 140.90625 296.433594 143.46875 C 291.410156 150.273438 289.996094 162.550781 289.324219 172.488281 C 289.257812 173.503906 288.382812 174.269531 287.367188 174.199219 C 286.355469 174.128906 285.589844 173.253906 285.660156 172.242188 C 286.40625 161.160156 287.921875 148.8125 293.476562 141.285156 C 296.238281 137.550781 301.84375 131.285156 308.410156 131.285156 C 308.417969 131.285156 308.425781 131.285156 308.433594 131.285156 L 311.621094 131.292969 C 315.191406 131.300781 319.234375 131.3125 323.746094 131.316406 C 330.625 131.324219 336.34375 138 339.140625 141.980469 C 344.363281 149.402344 345.785156 161.464844 346.484375 172.285156 C 346.550781 173.300781 345.785156 174.171875 344.773438 174.238281 C 344.730469 174.242188 344.691406 174.242188 344.652344 174.242188 Z M 344.652344 174.242188 " fill-opacity="1" fill-rule="nonzero"/><path fill="#ffffff" d="M 282.015625 120.574219 C 282.015625 121.621094 281.917969 122.65625 281.722656 123.679688 C 281.523438 124.703125 281.234375 125.699219 280.847656 126.664062 C 280.460938 127.628906 279.988281 128.542969 279.429688 129.414062 C 278.867188 130.28125 278.230469 131.085938 277.519531 131.824219 C 276.804688 132.5625 276.027344 133.21875 275.191406 133.800781 C 274.351562 134.378906 273.464844 134.871094 272.535156 135.269531 C 271.601562 135.671875 270.640625 135.972656 269.652344 136.175781 C 268.664062 136.378906 267.664062 136.480469 266.65625 136.480469 C 265.644531 136.480469 264.648438 136.378906 263.65625 136.175781 C 262.667969 135.972656 261.707031 135.671875 260.777344 135.269531 C 259.84375 134.871094 258.957031 134.378906 258.121094 133.800781 C 257.28125 133.21875 256.503906 132.5625 255.792969 131.824219 C 255.078125 131.085938 254.441406 130.28125 253.878906 129.414062 C 253.320312 128.542969 252.847656 127.628906 252.460938 126.664062 C 252.074219 125.699219 251.785156 124.703125 251.585938 123.679688 C 251.390625 122.65625 251.292969 121.621094 251.292969 120.574219 C 251.292969 119.53125 251.390625 118.496094 251.585938 117.472656 C 251.785156 116.449219 252.074219 115.453125 252.460938 114.488281 C 252.847656 113.523438 253.320312 112.609375 253.878906 111.738281 C 254.441406 110.871094 255.078125 110.066406 255.792969 109.328125 C 256.503906 108.589844 257.28125 107.929688 258.121094 107.351562 C 258.957031 106.769531 259.84375 106.28125 260.777344 105.882812 C 261.707031 105.480469 262.667969 105.179688 263.65625 104.976562 C 264.648438 104.773438 265.644531 104.671875 266.65625 104.671875 C 267.664062 104.671875 268.664062 104.773438 269.652344 104.976562 C 270.640625 105.179688 271.601562 105.480469 272.535156 105.882812 C 273.464844 106.28125 274.351562 106.769531 275.191406 107.351562 C 276.027344 107.929688 276.804688 108.589844 277.519531 109.328125 C 278.230469 110.066406 278.867188 110.871094 279.429688 111.738281 C 279.988281 112.609375 280.460938 113.523438 280.847656 114.488281 C 281.234375 115.453125 281.527344 116.449219 281.722656 117.472656 C 281.917969 118.496094 282.015625 119.53125 282.015625 120.574219 Z M 282.015625 120.574219 " fill-opacity="1" fill-rule="nonzero"/><path fill="#003152" d="M 266.65625 138.316406 C 257.171875 138.316406 249.453125 130.359375 249.453125 120.574219 C 249.453125 110.792969 257.171875 102.832031 266.65625 102.832031 C 276.136719 102.832031 283.855469 110.792969 283.855469 120.574219 C 283.855469 130.359375 276.136719 138.316406 266.65625 138.316406 Z M 266.65625 106.507812 C 259.195312 106.507812 253.128906 112.816406 253.128906 120.574219 C 253.128906 128.332031 259.195312 134.644531 266.65625 134.644531 C 274.113281 134.644531 280.179688 128.332031 280.179688 120.574219 C 280.179688 112.820312 274.113281 106.507812 266.65625 106.507812 Z M 266.65625 106.507812 " fill-opacity="1" fill-rule="nonzero"/><path fill="#98b7e4" d="M 238.484375 172.792969 C 239.285156 160.976562 240.941406 149.589844 245.949219 142.804688 C 249.152344 138.46875 254.191406 133.535156 259.421875 133.546875 C 263.714844 133.558594 268.824219 133.574219 274.738281 133.582031 C 280.21875 133.585938 285.382812 138.839844 288.632812 143.464844 C 293.367188 150.195312 294.902344 161.332031 295.648438 172.832031 Z M 238.484375 172.792969 " fill-opacity="1" fill-rule="nonzero"/><path fill="#003152" d="M 295.644531 174.667969 C 294.683594 174.667969 293.878906 173.921875 293.8125 172.953125 C 293.183594 163.242188 291.855469 151.238281 287.132812 144.519531 C 285.207031 141.785156 280.152344 135.425781 274.734375 135.417969 C 270.1875 135.410156 266.113281 135.402344 262.519531 135.390625 L 259.417969 135.382812 C 259.414062 135.382812 259.40625 135.382812 259.402344 135.382812 C 254.265625 135.382812 249.316406 141.335938 247.425781 143.894531 C 242.402344 150.699219 240.988281 162.980469 240.320312 172.917969 C 240.25 173.929688 239.375 174.695312 238.363281 174.625 C 237.351562 174.558594 236.585938 173.679688 236.652344 172.667969 C 237.402344 161.585938 238.914062 149.238281 244.472656 141.714844 C 247.230469 137.976562 252.835938 131.710938 259.402344 131.710938 C 259.410156 131.710938 259.417969 131.710938 259.429688 131.710938 L 262.53125 131.71875 C 266.121094 131.726562 270.195312 131.738281 274.742188 131.742188 C 281.617188 131.753906 287.339844 138.429688 290.136719 142.40625 C 295.355469 149.832031 296.777344 161.894531 297.480469 172.714844 C 297.546875 173.726562 296.777344 174.597656 295.765625 174.664062 C 295.726562 174.667969 295.683594 174.667969 295.644531 174.667969 Z M 295.644531 174.667969 " fill-opacity="1" fill-rule="nonzero"/><path fill="#98b7e4" d="M 34.65625 194.625 C 34.847656 173.765625 51.363281 157.460938 72.253906 156.976562 L 102.445312 156.578125 C 123.066406 157.714844 139.492188 174.886719 139.304688 195.5625 Z M 34.65625 194.625 " fill-opacity="1" fill-rule="nonzero"/><path fill="#003152" d="M 139.304688 197.402344 C 139.296875 197.402344 139.292969 197.402344 139.285156 197.402344 C 138.273438 197.390625 137.457031 196.5625 137.46875 195.546875 C 137.648438 175.839844 122.253906 159.542969 102.40625 158.417969 L 72.285156 158.8125 C 52.394531 159.28125 36.671875 175.015625 36.492188 194.640625 C 36.484375 195.65625 35.648438 196.464844 34.640625 196.460938 C 33.625 196.453125 32.808594 195.621094 32.820312 194.609375 C 32.914062 184.058594 37.027344 174.207031 44.394531 166.859375 C 51.726562 159.546875 61.605469 155.386719 72.210938 155.140625 C 72.214844 155.140625 72.222656 155.140625 72.230469 155.140625 L 102.421875 154.742188 C 102.464844 154.742188 102.507812 154.742188 102.546875 154.746094 C 113.015625 155.324219 122.769531 159.84375 130.011719 167.480469 C 137.285156 175.144531 141.238281 185.125 141.140625 195.582031 C 141.132812 196.589844 140.3125 197.402344 139.304688 197.402344 Z M 139.304688 197.402344 " fill-opacity="1" fill-rule="nonzero"/><path fill="#98b7e4" d="M 142.925781 251.398438 L 154.554688 251.398438 C 163.347656 251.398438 169.183594 242.386719 165.523438 234.46875 L 148.953125 198.640625 L 135.890625 170.785156 L 38.085938 170.746094 L 24.949219 198.753906 L 8.4375 234.464844 C 4.777344 242.386719 10.613281 251.398438 19.40625 251.398438 Z M 142.925781 251.398438 " fill-opacity="1" fill-rule="nonzero"/><path fill="#003152" d="M 154.554688 253.238281 L 142.925781 253.238281 C 141.914062 253.238281 141.089844 252.414062 141.089844 251.398438 C 141.089844 250.386719 141.914062 249.5625 142.925781 249.5625 L 154.554688 249.5625 C 158.082031 249.5625 161.316406 247.800781 163.199219 244.855469 C 165.054688 241.953125 165.300781 238.359375 163.855469 235.238281 L 147.289062 199.410156 L 134.722656 172.621094 L 39.253906 172.582031 L 26.613281 199.535156 L 10.105469 235.238281 C 8.664062 238.359375 8.90625 241.953125 10.761719 244.851562 C 12.644531 247.800781 15.878906 249.5625 19.40625 249.5625 L 32 249.5625 C 33.015625 249.5625 33.839844 250.382812 33.839844 251.398438 C 33.839844 252.414062 33.015625 253.234375 32 253.234375 L 19.40625 253.234375 C 14.617188 253.234375 10.230469 250.839844 7.664062 246.832031 C 5.132812 242.871094 4.800781 237.960938 6.769531 233.695312 L 23.285156 197.984375 L 36.421875 169.964844 C 36.726562 169.320312 37.375 168.910156 38.085938 168.910156 L 135.890625 168.949219 C 136.601562 168.949219 137.25 169.359375 137.554688 170.007812 L 150.617188 197.859375 L 167.191406 233.695312 C 169.160156 237.960938 168.828125 242.871094 166.296875 246.832031 C 163.730469 250.84375 159.34375 253.238281 154.554688 253.238281 Z M 154.554688 253.238281 " fill-opacity="1" fill-rule="nonzero"/><path fill="#ffffff" d="M 74.0625 152.042969 L 74.0625 158.097656 C 74.0625 163.214844 80.144531 167.402344 87.578125 167.402344 C 95.007812 167.402344 101.089844 163.214844 101.089844 158.097656 L 101.089844 152.042969 Z M 74.0625 152.042969 " fill-opacity="1" fill-rule="nonzero"/><path fill="#003152" d="M 87.578125 169.242188 C 83.613281 169.242188 79.855469 168.15625 76.992188 166.183594 C 73.917969 164.066406 72.226562 161.195312 72.226562 158.097656 L 72.226562 152.042969 C 72.226562 151.027344 73.050781 150.207031 74.0625 150.207031 C 75.078125 150.207031 75.902344 151.027344 75.902344 152.042969 L 75.902344 158.097656 C 75.902344 162.144531 81.246094 165.566406 87.578125 165.566406 C 93.90625 165.566406 99.253906 162.144531 99.253906 158.097656 L 99.253906 152.042969 C 99.253906 151.027344 100.074219 150.207031 101.089844 150.207031 C 102.105469 150.207031 102.925781 151.027344 102.925781 152.042969 L 102.925781 158.097656 C 102.925781 161.195312 101.234375 164.066406 98.164062 166.183594 C 95.300781 168.15625 91.539062 169.242188 87.578125 169.242188 Z M 87.578125 169.242188 " fill-opacity="1" fill-rule="nonzero"/><path fill="#003152" d="M 109.554688 80.429688 C 115.027344 82.148438 119.257812 87.21875 119.257812 94.621094 L 119.257812 113.136719 L 54.53125 113.335938 L 54.53125 94.6875 C 54.53125 83.46875 63.625 74.378906 74.839844 74.378906 L 111.167969 74.378906 Z M 109.554688 80.429688 " fill-opacity="1" fill-rule="nonzero"/><path fill="#003152" d="M 54.53125 115.175781 C 54.046875 115.175781 53.578125 114.980469 53.234375 114.636719 C 52.890625 114.292969 52.695312 113.824219 52.695312 113.335938 L 52.695312 94.6875 C 52.695312 82.476562 62.628906 72.542969 74.839844 72.542969 L 111.167969 72.542969 C 111.738281 72.542969 112.277344 72.808594 112.625 73.261719 C 112.972656 73.710938 113.089844 74.300781 112.941406 74.851562 L 111.757812 79.300781 C 114.230469 80.394531 116.347656 82.105469 117.945312 84.316406 C 120.007812 87.164062 121.097656 90.726562 121.097656 94.621094 L 121.097656 113.136719 C 121.097656 114.148438 120.277344 114.96875 119.265625 114.972656 L 54.539062 115.175781 C 54.535156 115.175781 54.535156 115.175781 54.53125 115.175781 Z M 119.257812 113.136719 L 119.261719 113.136719 Z M 74.839844 76.214844 C 64.652344 76.214844 56.367188 84.5 56.367188 94.6875 L 56.367188 111.496094 L 117.421875 111.304688 L 117.421875 94.621094 C 117.421875 88.578125 114.195312 83.8125 109.003906 82.183594 C 108.066406 81.886719 107.527344 80.90625 107.78125 79.957031 L 108.777344 76.214844 Z M 74.839844 76.214844 " fill-opacity="1" fill-rule="nonzero"/><path fill="#ffffff" d="M 111.5625 109.664062 L 111.5625 106.9375 C 111.5625 95.648438 102.410156 86.5 91.125 86.5 L 82.691406 86.5 C 71.40625 86.5 62.253906 95.648438 62.253906 106.9375 L 62.253906 109.671875 C 56.648438 109.75 52.125 114.3125 52.125 119.941406 C 52.125 125.5625 56.648438 130.128906 62.253906 130.207031 L 62.253906 131.042969 C 62.253906 143.378906 72.253906 153.382812 84.589844 153.382812 L 89.226562 153.382812 C 101.5625 153.382812 111.5625 143.378906 111.5625 131.042969 L 111.5625 130.214844 C 117.238281 130.214844 121.835938 125.613281 121.835938 119.9375 C 121.835938 114.265625 117.238281 109.664062 111.5625 109.664062 Z M 111.5625 109.664062 " fill-opacity="1" fill-rule="nonzero"/><path fill="#003152" d="M 89.226562 155.21875 L 84.589844 155.21875 C 71.542969 155.21875 60.878906 144.828125 60.429688 131.886719 C 57.917969 131.476562 55.601562 130.289062 53.78125 128.445312 C 51.527344 126.164062 50.289062 123.144531 50.289062 119.9375 C 50.289062 116.734375 51.527344 113.714844 53.78125 111.433594 C 55.597656 109.59375 57.90625 108.40625 60.417969 107.996094 L 60.417969 106.9375 C 60.417969 94.652344 70.410156 84.660156 82.691406 84.660156 L 91.125 84.660156 C 103.40625 84.660156 113.398438 94.652344 113.398438 106.9375 L 113.398438 107.96875 C 119.210938 108.855469 123.675781 113.886719 123.675781 119.9375 C 123.675781 126 119.199219 131.03125 113.382812 131.914062 C 112.925781 144.84375 102.265625 155.21875 89.226562 155.21875 Z M 82.691406 88.335938 C 72.433594 88.335938 64.089844 96.679688 64.089844 106.9375 L 64.089844 109.671875 C 64.089844 110.675781 63.285156 111.496094 62.277344 111.511719 C 57.691406 111.574219 53.960938 115.355469 53.960938 119.9375 C 53.960938 124.523438 57.691406 128.304688 62.277344 128.371094 C 63.285156 128.382812 64.089844 129.203125 64.089844 130.207031 L 64.089844 131.042969 C 64.089844 142.347656 73.285156 151.546875 84.589844 151.546875 L 89.226562 151.546875 C 100.53125 151.546875 109.726562 142.347656 109.726562 131.042969 L 109.726562 130.214844 C 109.726562 129.199219 110.546875 128.378906 111.5625 128.378906 C 116.214844 128.378906 120 124.59375 120 119.941406 C 120 115.289062 116.214844 111.503906 111.5625 111.503906 C 110.546875 111.503906 109.726562 110.679688 109.726562 109.664062 L 109.726562 106.9375 C 109.726562 96.679688 101.382812 88.335938 91.125 88.335938 Z M 82.691406 88.335938 " fill-opacity="1" fill-rule="nonzero"/><path fill="#ffffff" d="M 149.207031 176.710938 L 149.207031 241.03125 L 25.722656 241.03125 L 25.722656 176.710938 C 25.722656 172.566406 29.082031 169.207031 33.226562 169.207031 L 141.703125 169.207031 C 145.847656 169.207031 149.207031 172.566406 149.207031 176.710938 Z M 149.207031 176.710938 " fill-opacity="1" fill-rule="nonzero"/><path fill="#003152" d="M 149.207031 242.867188 L 25.722656 242.867188 C 24.707031 242.867188 23.882812 242.042969 23.882812 241.03125 L 23.882812 176.710938 C 23.882812 171.5625 28.074219 167.371094 33.226562 167.371094 L 141.703125 167.371094 C 146.851562 167.371094 151.042969 171.5625 151.042969 176.710938 L 151.042969 241.03125 C 151.042969 242.042969 150.21875 242.867188 149.207031 242.867188 Z M 27.558594 239.195312 L 147.367188 239.195312 L 147.367188 176.710938 C 147.367188 173.585938 144.828125 171.042969 141.703125 171.042969 L 33.226562 171.042969 C 30.101562 171.042969 27.558594 173.585938 27.558594 176.710938 Z M 27.558594 239.195312 " fill-opacity="1" fill-rule="nonzero"/><path fill="#003152" d="M 139.976562 251.398438 L 34.257812 251.398438 C 28.621094 251.398438 24.054688 243.695312 24.054688 234.195312 L 150.175781 234.195312 C 150.175781 243.695312 145.613281 251.398438 139.976562 251.398438 Z M 139.976562 251.398438 " fill-opacity="1" fill-rule="nonzero"/><path fill="#003152" d="M 139.976562 253.234375 L 34.257812 253.234375 C 27.503906 253.234375 22.21875 244.871094 22.21875 234.195312 C 22.21875 233.179688 23.039062 232.359375 24.054688 232.359375 L 150.175781 232.359375 C 151.191406 232.359375 152.011719 233.179688 152.011719 234.195312 C 152.011719 244.871094 146.726562 253.234375 139.976562 253.234375 Z M 25.953125 236.03125 C 26.464844 243.535156 30.058594 249.5625 34.257812 249.5625 L 139.976562 249.5625 C 144.171875 249.5625 147.765625 243.535156 148.277344 236.03125 Z M 25.953125 236.03125 " fill-opacity="1" fill-rule="nonzero"/><path fill="#ffffff" d="M 301.53125 210.191406 C 302.140625 210.097656 302.765625 210.050781 303.398438 210.050781 C 310.34375 210.050781 315.96875 215.679688 315.96875 222.621094 C 315.96875 224.199219 315.679688 225.710938 315.148438 227.101562 L 315.136719 227.09375 L 301.527344 271.96875 Z M 301.53125 210.191406 " fill-opacity="1" fill-rule="nonzero"/><path fill="#003152" d="M 301.527344 273.808594 C 301.351562 273.808594 301.171875 273.78125 300.996094 273.726562 C 300.023438 273.433594 299.476562 272.410156 299.769531 271.4375 L 313.378906 226.5625 C 313.410156 226.453125 313.453125 226.347656 313.503906 226.25 C 313.921875 225.089844 314.132812 223.871094 314.132812 222.621094 C 314.132812 216.703125 309.320312 211.886719 303.398438 211.886719 C 302.863281 211.886719 302.324219 211.929688 301.800781 212.007812 C 300.796875 212.15625 299.863281 211.464844 299.710938 210.460938 C 299.5625 209.457031 300.253906 208.523438 301.257812 208.371094 C 301.960938 208.269531 302.683594 208.214844 303.398438 208.214844 C 311.34375 208.214844 317.808594 214.675781 317.808594 222.621094 C 317.808594 224.390625 317.492188 226.117188 316.867188 227.753906 C 316.855469 227.785156 316.84375 227.8125 316.828125 227.84375 L 303.285156 272.503906 C 303.042969 273.296875 302.316406 273.808594 301.527344 273.808594 Z M 301.527344 273.808594 " fill-opacity="1" fill-rule="nonzero"/><path fill="#ffffff" d="M 278.09375 197.507812 C 280.273438 193.773438 284.324219 191.265625 288.957031 191.265625 C 295.898438 191.265625 301.527344 196.894531 301.527344 203.835938 L 301.527344 271.96875 Z M 278.09375 197.507812 " fill-opacity="1" fill-rule="nonzero"/><path fill="#003152" d="M 301.527344 273.808594 C 300.511719 273.808594 299.691406 272.984375 299.691406 271.96875 L 299.691406 203.835938 C 299.691406 197.917969 294.875 193.101562 288.957031 193.101562 C 285.15625 193.101562 281.601562 195.144531 279.679688 198.433594 C 279.167969 199.308594 278.042969 199.605469 277.167969 199.09375 C 276.292969 198.582031 275.996094 197.457031 276.507812 196.582031 C 279.082031 192.167969 283.855469 189.429688 288.957031 189.429688 C 296.902344 189.429688 303.363281 195.890625 303.363281 203.835938 L 303.363281 271.96875 C 303.363281 272.984375 302.542969 273.808594 301.527344 273.808594 Z M 301.527344 273.808594 " fill-opacity="1" fill-rule="nonzero"/><path fill="#ffffff" d="M 227.941406 363.925781 C 211.972656 340.136719 180.292969 293.5 178.4375 287.972656 C 175.800781 280.101562 181.734375 271.96875 190.035156 271.96875 L 190.828125 271.96875 C 196.105469 271.96875 200.65625 275.410156 202.421875 280.382812 C 205.882812 290.132812 215.1875 297.109375 226.121094 297.109375 C 240.949219 297.109375 252.777344 284.273438 251.101562 269.109375 C 249.828125 257.582031 240.511719 248.261719 228.984375 246.988281 C 216.839844 245.648438 206.191406 252.964844 202.425781 263.546875 C 200.65625 268.523438 196.109375 271.96875 190.828125 271.96875 L 190.03125 271.96875 C 181.808594 271.96875 175.792969 263.953125 178.378906 256.148438 C 185.011719 236.128906 203.878906 221.6875 226.121094 221.6875 C 242.945312 221.6875 257.835938 229.953125 266.964844 242.640625 L 266.960938 242.644531 L 252.5 198.839844 L 252.5 198.84375 C 251.636719 197.0625 251.179688 195.050781 251.253906 192.925781 C 251.484375 186.257812 257.15625 180.792969 263.828125 180.796875 C 270.046875 180.804688 275.207031 185.324219 276.210938 191.257812 L 276.199219 191.265625 L 301.527344 271.96875 L 301.527344 335.503906 Z M 227.941406 363.925781 " fill-opacity="1" fill-rule="nonzero"/><path fill="#003152" d="M 227.941406 365.761719 C 227.351562 365.761719 226.769531 365.476562 226.414062 364.949219 C 224.304688 361.804688 221.917969 358.257812 219.363281 354.460938 C 196.945312 321.15625 178.257812 293.207031 176.699219 288.554688 C 175.257812 284.265625 175.953125 279.6875 178.609375 275.996094 C 179.824219 274.308594 181.34375 272.945312 183.066406 271.960938 C 181.320312 270.972656 179.777344 269.609375 178.574219 267.941406 C 175.945312 264.300781 175.238281 259.789062 176.636719 255.570312 C 178.335938 250.4375 180.824219 245.613281 184.027344 241.234375 C 187.191406 236.90625 190.988281 233.105469 195.308594 229.929688 C 204.292969 223.335938 214.945312 219.851562 226.121094 219.851562 C 234.527344 219.851562 242.882812 221.902344 250.28125 225.78125 C 254.683594 228.085938 258.753906 231.039062 262.335938 234.496094 L 250.796875 199.542969 C 249.816406 197.472656 249.339844 195.167969 249.417969 192.863281 C 249.683594 185.195312 256.140625 178.960938 263.816406 178.960938 C 263.820312 178.960938 263.824219 178.960938 263.828125 178.960938 C 270.875 178.96875 276.835938 184 278.019531 190.933594 L 303.28125 271.421875 C 303.335938 271.597656 303.363281 271.785156 303.363281 271.96875 L 303.363281 335.503906 C 303.363281 336.519531 302.542969 337.339844 301.527344 337.339844 C 300.511719 337.339844 299.691406 336.519531 299.691406 335.503906 L 299.691406 272.253906 L 274.445312 191.816406 C 274.398438 191.664062 274.371094 191.511719 274.363281 191.359375 C 273.40625 186.296875 269.007812 182.640625 263.824219 182.636719 C 263.824219 182.636719 263.820312 182.636719 263.816406 182.636719 C 258.097656 182.636719 253.285156 187.277344 253.089844 192.988281 C 253.027344 194.738281 253.375 196.414062 254.117188 197.976562 C 254.167969 198.066406 254.210938 198.164062 254.242188 198.265625 L 268.652344 241.910156 C 268.988281 242.683594 268.753906 243.609375 268.042969 244.125 C 267.566406 244.46875 266.957031 244.570312 266.398438 244.390625 C 265.96875 244.25 265.609375 243.964844 265.382812 243.585938 C 256.28125 231.023438 241.617188 223.527344 226.121094 223.527344 C 205.1875 223.527344 186.703125 236.867188 180.125 256.726562 C 179.101562 259.8125 179.621094 263.117188 181.550781 265.789062 C 183.546875 268.550781 186.636719 270.132812 190.03125 270.132812 L 190.828125 270.132812 C 195.265625 270.132812 199.140625 267.304688 200.695312 262.929688 C 202.6875 257.332031 206.550781 252.472656 211.570312 249.25 C 216.816406 245.882812 222.910156 244.46875 229.183594 245.164062 C 241.574219 246.53125 251.558594 256.515625 252.929688 268.90625 C 253.363281 272.847656 252.964844 276.71875 251.75 280.417969 C 250.582031 283.960938 248.722656 287.171875 246.222656 289.960938 C 241.109375 295.671875 233.78125 298.949219 226.121094 298.949219 C 214.722656 298.949219 204.503906 291.734375 200.691406 281 C 199.164062 276.695312 195.199219 273.808594 190.828125 273.808594 L 190.035156 273.808594 C 186.648438 273.808594 183.574219 275.386719 181.59375 278.140625 C 179.636719 280.859375 179.121094 284.230469 180.179688 287.386719 C 181.710938 291.949219 207.1875 329.796875 222.410156 352.410156 C 224.964844 356.207031 227.351562 359.753906 229.464844 362.902344 C 230.03125 363.742188 229.804688 364.882812 228.964844 365.449219 C 228.648438 365.660156 228.292969 365.761719 227.941406 365.761719 Z M 197.707031 271.96875 C 198.160156 272.230469 198.601562 272.519531 199.03125 272.832031 C 201.382812 274.558594 203.15625 276.960938 204.152344 279.769531 C 207.445312 289.042969 216.273438 295.273438 226.121094 295.273438 C 232.738281 295.273438 239.066406 292.445312 243.484375 287.511719 C 247.964844 282.511719 250.019531 276.046875 249.277344 269.308594 C 248.097656 258.613281 239.476562 249.996094 228.78125 248.8125 C 217.921875 247.613281 207.796875 253.925781 204.15625 264.160156 C 203.15625 266.972656 201.386719 269.375 199.03125 271.105469 C 198.605469 271.417969 198.160156 271.707031 197.707031 271.96875 Z M 197.707031 271.96875 " fill-opacity="1" fill-rule="nonzero"/><path fill="#ffffff" d="M 276.277344 275.535156 C 277.128906 263.230469 273.542969 251.785156 266.964844 242.640625 Z M 276.277344 275.535156 " fill-opacity="1" fill-rule="nonzero"/><path fill="#003152" d="M 276.28125 277.375 C 276.238281 277.375 276.195312 277.371094 276.152344 277.371094 C 275.140625 277.300781 274.375 276.421875 274.445312 275.410156 C 275.238281 263.933594 272.136719 252.972656 265.472656 243.710938 C 264.882812 242.886719 265.070312 241.742188 265.890625 241.148438 C 266.714844 240.554688 267.863281 240.742188 268.457031 241.566406 C 271.921875 246.386719 274.519531 251.710938 276.171875 257.390625 C 277.886719 263.292969 278.539062 269.441406 278.113281 275.664062 C 278.042969 276.632812 277.238281 277.375 276.28125 277.375 Z M 276.28125 277.375 " fill-opacity="1" fill-rule="nonzero"/></svg>