<svg xmlns="http://www.w3.org/2000/svg" xmlns:xlink="http://www.w3.org/1999/xlink" width="500" zoomAndPan="magnify" viewBox="0 0 375 374.999991" height="500" preserveAspectRatio="xMidYMid meet" version="1.0"><defs><clipPath id="1d2353dfd2"><path d="M 106.847656 145 L 366 145 L 366 355 L 106.847656 355 Z M 106.847656 145 " clip-rule="nonzero"/></clipPath><clipPath id="2ba55240b9"><path d="M 107 144.898438 L 327 144.898438 L 327 321 L 107 321 Z M 107 144.898438 " clip-rule="nonzero"/></clipPath><clipPath id="708526e4ee"><path d="M 60 92 L 204 92 L 204 261.445312 L 60 261.445312 Z M 60 92 " clip-rule="nonzero"/></clipPath><clipPath id="8c6ccb20c9"><path d="M 47 190 L 216.464844 190 L 216.464844 242 L 47 242 Z M 47 190 " clip-rule="nonzero"/></clipPath></defs><g clip-path="url(#1d2353dfd2)"><path fill="#333333" d="M 359.230469 354.265625 L 283.375 354.265625 L 283.671875 338.335938 C 283.628906 338.347656 283.59375 338.363281 283.550781 338.363281 C 283.433594 338.363281 283.3125 338.320312 283.214844 338.238281 C 283.003906 338.058594 282.976562 337.742188 283.148438 337.527344 L 282.785156 337.902344 C 281.640625 339.089844 280.523438 340.195312 279.464844 341.191406 C 271.785156 348.429688 264.46875 352.101562 257.707031 352.101562 C 245.109375 352.101562 237.28125 339.386719 233.734375 331.808594 C 228.652344 320.945312 217.976562 279.84375 217.871094 279.425781 L 217.824219 279.246094 L 217.667969 279.136719 C 215.230469 277.402344 213.242188 274.769531 211.753906 271.300781 L 211.621094 270.988281 L 178.25 270.988281 L 178.25 315.277344 C 178.25 317.660156 176.3125 319.597656 173.925781 319.597656 L 118.636719 319.597656 L 118.636719 320.113281 C 118.636719 320.1875 118.621094 320.253906 118.597656 320.316406 C 118.585938 320.34375 118.566406 320.363281 118.550781 320.390625 C 118.515625 320.449219 118.460938 320.496094 118.40625 320.539062 C 118.324219 320.59375 118.230469 320.632812 118.125 320.632812 C 117.84375 320.632812 117.609375 320.398438 117.609375 320.113281 L 117.609375 318.824219 L 108.570312 309.378906 L 107.363281 309.378906 C 107.078125 309.378906 106.847656 309.144531 106.847656 308.859375 C 106.847656 308.578125 107.078125 308.34375 107.363281 308.34375 L 107.878906 308.34375 L 107.878906 268.703125 C 107.878906 266.316406 109.816406 264.382812 112.203125 264.382812 L 128.269531 264.382812 L 128.269531 182.378906 C 128.269531 179.152344 130.894531 176.527344 134.121094 176.527344 L 224.816406 176.527344 L 224.703125 176.386719 L 224.707031 176.386719 L 224.082031 175.609375 C 221.386719 172.273438 219.96875 168.25 219.96875 163.972656 C 219.96875 153.75 228.28125 145.429688 238.507812 145.429688 C 248.730469 145.429688 257.046875 153.746094 257.046875 163.972656 C 257.046875 168.253906 255.621094 172.277344 252.929688 175.609375 L 252.195312 176.515625 L 253.273438 176.527344 L 257.210938 176.527344 C 260.4375 176.527344 263.0625 179.152344 263.0625 182.378906 L 263.0625 265.144531 C 263.0625 268.375 260.4375 270.996094 257.210938 270.996094 L 243.40625 270.996094 L 259.996094 310.136719 L 260.195312 309.894531 C 260.253906 309.828125 260.320312 309.785156 260.390625 309.753906 C 260.464844 309.722656 260.535156 309.714844 260.613281 309.71875 C 260.628906 309.71875 260.640625 309.71875 260.65625 309.722656 C 260.726562 309.734375 260.804688 309.757812 260.871094 309.800781 C 260.886719 309.8125 260.910156 309.816406 260.925781 309.828125 C 261.128906 309.996094 261.160156 310.285156 261.015625 310.503906 L 261.027344 310.507812 L 261.304688 310.078125 C 264.382812 305.375 266.894531 300.953125 269.105469 297.050781 C 272.039062 291.875 274.570312 287.40625 277.550781 283.769531 L 277.6875 283.601562 L 277.664062 283.382812 C 277.640625 283.207031 277.640625 283.046875 277.632812 282.875 C 277.472656 283.0625 277.3125 283.25 277.152344 283.441406 C 277.152344 283.441406 277.152344 283.441406 277.152344 283.433594 C 277.132812 283.242188 277.117188 283.050781 277.101562 282.855469 C 277.089844 282.660156 277.078125 282.464844 277.074219 282.265625 C 277.070312 282.054688 277.074219 281.847656 277.078125 281.640625 C 277.078125 281.574219 277.089844 281.507812 277.089844 281.441406 C 277.09375 281.300781 277.105469 281.160156 277.117188 281.027344 C 277.121094 280.941406 277.136719 280.851562 277.148438 280.765625 C 277.15625 280.652344 277.167969 280.53125 277.183594 280.417969 C 277.191406 280.324219 277.214844 280.226562 277.230469 280.132812 C 277.246094 280.03125 277.261719 279.921875 277.28125 279.820312 C 277.300781 279.722656 277.324219 279.621094 277.34375 279.523438 C 277.363281 279.425781 277.382812 279.328125 277.40625 279.230469 C 277.429688 279.125 277.457031 279.027344 277.488281 278.925781 C 277.511719 278.832031 277.535156 278.746094 277.558594 278.652344 C 277.589844 278.542969 277.628906 278.441406 277.65625 278.332031 C 277.683594 278.25 277.710938 278.167969 277.734375 278.082031 C 277.773438 277.976562 277.8125 277.867188 277.855469 277.757812 C 277.886719 277.679688 277.910156 277.601562 277.941406 277.527344 C 277.988281 277.414062 278.035156 277.304688 278.082031 277.195312 C 278.113281 277.121094 278.136719 277.054688 278.175781 276.984375 C 278.226562 276.871094 278.28125 276.757812 278.339844 276.644531 C 278.371094 276.582031 278.402344 276.519531 278.433594 276.457031 C 278.496094 276.339844 278.558594 276.222656 278.617188 276.109375 C 278.648438 276.054688 278.679688 275.996094 278.710938 275.945312 C 278.777344 275.828125 278.851562 275.714844 278.921875 275.59375 C 278.953125 275.546875 278.980469 275.496094 279.011719 275.449219 C 279.089844 275.332031 279.167969 275.210938 279.25 275.097656 C 279.28125 275.058594 279.304688 275.015625 279.335938 274.96875 C 279.417969 274.851562 279.511719 274.730469 279.601562 274.617188 C 279.625 274.582031 279.65625 274.546875 279.683594 274.507812 C 279.777344 274.390625 279.875 274.273438 279.972656 274.160156 C 279.996094 274.128906 280.023438 274.097656 280.050781 274.066406 C 280.152344 273.945312 280.257812 273.828125 280.363281 273.714844 C 280.390625 273.6875 280.410156 273.664062 280.4375 273.636719 C 280.550781 273.519531 280.664062 273.40625 280.78125 273.289062 C 280.804688 273.269531 280.824219 273.25 280.84375 273.234375 C 280.96875 273.113281 281.09375 273 281.214844 272.894531 C 281.230469 272.878906 281.253906 272.863281 281.269531 272.847656 C 281.398438 272.734375 281.53125 272.621094 281.671875 272.511719 C 281.6875 272.5 281.695312 272.488281 281.710938 272.476562 C 281.851562 272.359375 281.996094 272.257812 282.140625 272.148438 C 282.152344 272.144531 282.160156 272.132812 282.171875 272.125 C 282.320312 272.015625 282.472656 271.910156 282.625 271.8125 C 282.632812 271.808594 282.640625 271.804688 282.648438 271.796875 C 282.800781 271.695312 282.960938 271.597656 283.128906 271.503906 C 283.132812 271.503906 283.136719 271.5 283.144531 271.5 C 283.308594 271.398438 283.472656 271.308594 283.644531 271.21875 C 283.644531 271.21875 283.648438 271.21875 283.648438 271.214844 C 285.203125 270.402344 286.953125 269.914062 288.8125 269.835938 C 288.761719 269.519531 288.726562 269.199219 288.695312 268.878906 C 288.691406 268.8125 288.679688 268.746094 288.675781 268.679688 C 288.648438 268.351562 288.628906 268.023438 288.621094 267.691406 C 288.617188 267.4375 288.621094 267.1875 288.628906 266.933594 C 288.632812 266.859375 288.636719 266.789062 288.644531 266.710938 C 288.652344 266.535156 288.660156 266.355469 288.675781 266.179688 C 288.679688 266.105469 288.691406 266.027344 288.699219 265.957031 C 288.714844 265.78125 288.738281 265.609375 288.757812 265.441406 C 288.769531 265.371094 288.777344 265.304688 288.789062 265.238281 C 288.8125 265.0625 288.839844 264.882812 288.875 264.707031 C 288.886719 264.648438 288.902344 264.59375 288.914062 264.535156 C 288.949219 264.351562 288.988281 264.167969 289.03125 263.984375 C 289.042969 263.9375 289.058594 263.886719 289.066406 263.839844 C 289.113281 263.648438 289.164062 263.460938 289.21875 263.277344 C 289.226562 263.238281 289.242188 263.199219 289.253906 263.164062 C 289.308594 262.964844 289.371094 262.773438 289.4375 262.582031 C 289.449219 262.558594 289.460938 262.53125 289.46875 262.5 C 289.542969 262.300781 289.613281 262.097656 289.699219 261.902344 C 289.703125 261.886719 289.710938 261.867188 289.71875 261.851562 C 289.800781 261.644531 289.894531 261.441406 289.988281 261.242188 C 289.992188 261.230469 289.996094 261.21875 290.003906 261.210938 C 290.101562 261.003906 290.203125 260.796875 290.308594 260.59375 C 290.308594 260.589844 290.3125 260.585938 290.3125 260.585938 C 290.984375 259.320312 291.832031 258.164062 292.828125 257.152344 C 292.980469 257.238281 293.140625 257.320312 293.300781 257.410156 L 293.664062 257.042969 L 293.085938 256.707031 C 286.777344 253.039062 283.054688 246.246094 283.375 238.980469 L 283.613281 233.609375 L 281.222656 231.734375 C 280.214844 230.949219 280.152344 229.824219 280.425781 229.027344 C 280.699219 228.234375 281.445312 227.390625 282.726562 227.390625 L 283.902344 227.390625 L 283.902344 226.875 L 284.441406 214.28125 C 284.441406 209.53125 285.589844 204.878906 287.777344 200.746094 C 287.71875 200.21875 287.707031 199.878906 287.703125 199.796875 C 287.859375 199.515625 288.023438 199.242188 288.1875 198.96875 C 288.25 198.867188 288.324219 198.761719 288.386719 198.652344 C 288.488281 198.488281 288.59375 198.324219 288.699219 198.15625 C 288.78125 198.027344 288.871094 197.90625 288.953125 197.78125 C 289.046875 197.640625 289.140625 197.5 289.234375 197.367188 C 289.324219 197.234375 289.429688 197.097656 289.527344 196.964844 C 289.613281 196.839844 289.703125 196.71875 289.796875 196.597656 C 289.902344 196.453125 290.011719 196.3125 290.121094 196.175781 C 290.203125 196.066406 290.292969 195.953125 290.375 195.84375 C 290.492188 195.695312 290.617188 195.550781 290.742188 195.398438 C 290.824219 195.300781 290.902344 195.203125 290.984375 195.109375 C 291.113281 194.957031 291.246094 194.804688 291.382812 194.65625 C 291.457031 194.566406 291.53125 194.480469 291.609375 194.398438 C 291.753906 194.242188 291.898438 194.089844 292.042969 193.9375 C 292.113281 193.859375 292.1875 193.78125 292.257812 193.710938 C 292.414062 193.550781 292.574219 193.394531 292.730469 193.242188 C 292.796875 193.171875 292.863281 193.105469 292.929688 193.042969 C 293.097656 192.882812 293.265625 192.722656 293.441406 192.5625 C 293.503906 192.507812 293.5625 192.449219 293.621094 192.394531 C 293.804688 192.230469 293.988281 192.070312 294.171875 191.914062 C 294.226562 191.867188 294.277344 191.820312 294.332031 191.773438 C 294.519531 191.609375 294.71875 191.449219 294.914062 191.292969 C 294.964844 191.253906 295.011719 191.210938 295.058594 191.175781 C 295.265625 191.007812 295.472656 190.847656 295.683594 190.695312 C 295.726562 190.664062 295.765625 190.628906 295.808594 190.597656 C 296.023438 190.4375 296.246094 190.277344 296.46875 190.117188 C 296.503906 190.089844 296.539062 190.066406 296.578125 190.039062 C 296.804688 189.878906 297.035156 189.722656 297.269531 189.574219 C 297.300781 189.554688 297.332031 189.53125 297.363281 189.511719 C 297.597656 189.355469 297.84375 189.203125 298.089844 189.058594 C 298.117188 189.042969 298.140625 189.027344 298.167969 189.011719 C 298.421875 188.855469 298.671875 188.710938 298.933594 188.566406 C 298.953125 188.554688 298.96875 188.546875 298.988281 188.535156 C 299.253906 188.386719 299.515625 188.246094 299.785156 188.105469 C 299.800781 188.101562 299.816406 188.089844 299.824219 188.085938 C 300.097656 187.945312 300.371094 187.808594 300.652344 187.671875 C 300.664062 187.667969 300.671875 187.664062 300.675781 187.65625 C 300.960938 187.523438 301.246094 187.390625 301.535156 187.265625 C 301.539062 187.265625 301.546875 187.261719 301.546875 187.261719 C 301.835938 187.132812 302.128906 187.007812 302.429688 186.886719 C 305.703125 185.570312 309.273438 184.828125 313.007812 184.777344 L 312.976562 185.292969 C 312.992188 185.292969 313 185.292969 313.015625 185.292969 L 313.496094 185.285156 L 313.585938 183.851562 C 313.660156 182.585938 314.714844 181.59375 315.984375 181.59375 C 316.042969 181.59375 316.105469 181.59375 316.160156 181.597656 L 319.664062 181.851562 C 320.339844 181.898438 320.945312 182.21875 321.367188 182.746094 C 321.792969 183.273438 321.972656 183.933594 321.875 184.601562 L 321.605469 186.453125 L 322.027344 186.582031 C 322.054688 186.59375 322.082031 186.597656 322.105469 186.609375 L 322.183594 186.09375 C 322.273438 186.117188 322.355469 186.148438 322.4375 186.175781 C 322.773438 186.285156 323.109375 186.398438 323.4375 186.515625 C 323.597656 186.574219 323.753906 186.636719 323.910156 186.691406 C 324.167969 186.789062 324.425781 186.886719 324.679688 186.996094 C 324.84375 187.0625 325.007812 187.136719 325.167969 187.203125 C 325.421875 187.3125 325.671875 187.425781 325.917969 187.539062 C 326.074219 187.609375 326.222656 187.679688 326.378906 187.753906 C 326.671875 187.902344 326.960938 188.050781 327.257812 188.207031 C 327.355469 188.257812 327.453125 188.304688 327.546875 188.355469 C 327.917969 188.554688 328.285156 188.773438 328.652344 188.992188 C 328.78125 189.066406 328.910156 189.148438 329.039062 189.234375 C 329.28125 189.382812 329.523438 189.539062 329.753906 189.691406 C 329.898438 189.789062 330.039062 189.882812 330.183594 189.980469 C 330.40625 190.136719 330.628906 190.292969 330.84375 190.453125 C 330.980469 190.550781 331.121094 190.652344 331.253906 190.757812 C 331.492188 190.9375 331.722656 191.125 331.957031 191.308594 C 332.0625 191.398438 332.167969 191.480469 332.277344 191.566406 C 332.601562 191.835938 332.921875 192.113281 333.238281 192.398438 C 333.324219 192.480469 333.414062 192.5625 333.5 192.640625 C 333.734375 192.859375 333.960938 193.070312 334.183594 193.292969 C 334.296875 193.40625 334.410156 193.523438 334.523438 193.636719 C 334.714844 193.835938 334.90625 194.035156 335.097656 194.238281 C 335.210938 194.363281 335.324219 194.484375 335.4375 194.609375 C 335.628906 194.828125 335.820312 195.042969 336.003906 195.265625 C 336.097656 195.378906 336.195312 195.488281 336.289062 195.601562 C 336.5625 195.933594 336.828125 196.265625 337.085938 196.613281 C 337.109375 196.648438 337.136719 196.6875 337.164062 196.71875 C 337.394531 197.03125 337.621094 197.351562 337.84375 197.671875 C 337.925781 197.796875 338.007812 197.921875 338.089844 198.042969 C 338.25 198.285156 338.40625 198.53125 338.5625 198.777344 C 338.648438 198.917969 338.730469 199.054688 338.816406 199.195312 C 338.964844 199.445312 339.105469 199.691406 339.242188 199.945312 C 339.316406 200.078125 339.394531 200.214844 339.464844 200.347656 C 339.632812 200.65625 339.789062 200.96875 339.945312 201.28125 C 339.988281 201.359375 340.027344 201.4375 340.066406 201.519531 C 340.253906 201.914062 340.429688 202.308594 340.601562 202.714844 C 340.652344 202.832031 340.699219 202.949219 340.746094 203.070312 C 340.867188 203.359375 340.984375 203.652344 341.09375 203.953125 C 341.148438 204.101562 341.199219 204.253906 341.253906 204.402344 C 341.351562 204.679688 341.445312 204.953125 341.535156 205.238281 C 341.582031 205.386719 341.636719 205.539062 341.679688 205.691406 C 341.773438 206.003906 341.863281 206.316406 341.949219 206.628906 C 341.980469 206.746094 342.015625 206.867188 342.046875 206.984375 C 342.15625 207.417969 342.261719 207.851562 342.347656 208.292969 C 342.367188 208.378906 342.378906 208.46875 342.398438 208.558594 C 342.472656 208.917969 342.535156 209.273438 342.589844 209.628906 C 342.617188 209.785156 342.636719 209.933594 342.65625 210.089844 C 342.699219 210.394531 342.738281 210.699219 342.769531 211.003906 C 342.792969 211.167969 342.808594 211.328125 342.824219 211.492188 C 342.855469 211.808594 342.875 212.128906 342.894531 212.449219 C 342.90625 212.59375 342.914062 212.742188 342.921875 212.886719 C 342.941406 213.351562 342.957031 213.816406 342.957031 214.28125 L 342.957031 237.855469 C 343.484375 238.15625 344 238.480469 344.496094 238.824219 C 344.742188 238.996094 344.988281 239.175781 345.222656 239.363281 C 345.230469 239.367188 345.234375 239.367188 345.238281 239.375 C 345.472656 239.554688 345.703125 239.738281 345.933594 239.929688 C 345.941406 239.941406 345.953125 239.945312 345.964844 239.957031 C 346.183594 240.144531 346.402344 240.339844 346.613281 240.535156 C 346.628906 240.550781 346.644531 240.566406 346.660156 240.582031 C 346.867188 240.773438 347.066406 240.96875 347.265625 241.171875 C 347.285156 241.195312 347.3125 241.21875 347.332031 241.242188 C 347.523438 241.4375 347.707031 241.636719 347.890625 241.835938 C 347.921875 241.871094 347.953125 241.910156 347.984375 241.945312 C 348.152344 242.140625 348.324219 242.335938 348.484375 242.539062 C 348.523438 242.585938 348.5625 242.636719 348.597656 242.683594 C 348.753906 242.875 348.902344 243.070312 349.046875 243.273438 C 349.09375 243.335938 349.132812 243.398438 349.179688 243.464844 C 349.316406 243.65625 349.449219 243.847656 349.578125 244.035156 C 349.628906 244.113281 349.683594 244.195312 349.734375 244.28125 C 349.851562 244.460938 349.964844 244.648438 350.078125 244.832031 C 350.136719 244.929688 350.191406 245.027344 350.246094 245.125 C 350.34375 245.300781 350.445312 245.476562 350.539062 245.660156 C 350.601562 245.777344 350.65625 245.902344 350.71875 246.019531 C 350.800781 246.1875 350.886719 246.347656 350.96875 246.515625 C 351.035156 246.660156 351.097656 246.8125 351.160156 246.957031 C 351.226562 247.105469 351.292969 247.25 351.355469 247.398438 C 351.433594 247.585938 351.5 247.769531 351.566406 247.960938 C 351.613281 248.082031 351.660156 248.195312 351.699219 248.3125 C 351.808594 248.625 351.914062 248.9375 352.007812 249.253906 C 352.09375 249.558594 352.175781 249.859375 352.25 250.164062 C 352.273438 250.261719 352.296875 250.359375 352.316406 250.457031 C 352.363281 250.664062 352.410156 250.863281 352.449219 251.070312 C 352.472656 251.191406 352.492188 251.304688 352.511719 251.421875 C 352.542969 251.609375 352.578125 251.800781 352.605469 251.984375 C 352.621094 252.109375 352.640625 252.226562 352.65625 252.351562 C 352.683594 252.539062 352.703125 252.722656 352.71875 252.90625 C 352.730469 253.023438 352.746094 253.148438 352.753906 253.265625 C 352.769531 253.457031 352.78125 253.648438 352.789062 253.839844 C 352.796875 253.953125 352.804688 254.0625 352.804688 254.175781 C 352.816406 254.414062 352.816406 254.65625 352.816406 254.894531 C 352.816406 254.972656 352.816406 255.046875 352.816406 255.125 C 352.8125 255.398438 352.800781 255.671875 352.785156 255.945312 C 352.78125 256.070312 352.765625 256.191406 352.761719 256.3125 C 352.746094 256.484375 352.734375 256.660156 352.714844 256.832031 C 352.699219 256.96875 352.683594 257.109375 352.660156 257.242188 C 352.640625 257.398438 352.621094 257.546875 352.601562 257.699219 C 352.578125 257.84375 352.554688 257.988281 352.527344 258.132812 C 352.5 258.269531 352.476562 258.414062 352.449219 258.554688 C 352.417969 258.707031 352.386719 258.855469 352.355469 259.003906 C 352.324219 259.132812 352.296875 259.261719 352.265625 259.390625 C 352.226562 259.550781 352.1875 259.707031 352.144531 259.863281 C 352.121094 259.964844 352.089844 260.0625 352.058594 260.167969 C 351.875 260.792969 351.671875 261.40625 351.425781 262.011719 C 351.394531 262.089844 351.371094 262.160156 351.339844 262.238281 C 351.261719 262.425781 351.183594 262.605469 351.101562 262.785156 C 351.066406 262.863281 351.035156 262.941406 351 263.011719 C 350.910156 263.199219 350.824219 263.378906 350.734375 263.558594 C 350.703125 263.628906 350.667969 263.695312 350.632812 263.761719 C 350.535156 263.953125 350.4375 264.136719 350.332031 264.324219 C 350.308594 264.367188 350.28125 264.414062 350.261719 264.453125 C 349.613281 265.585938 348.859375 266.648438 348.003906 267.636719 C 347.996094 267.644531 347.988281 267.652344 347.984375 267.660156 C 347.8125 267.855469 347.636719 268.046875 347.457031 268.238281 C 347.445312 268.25 347.441406 268.261719 347.429688 268.265625 C 346.132812 269.628906 344.625 270.816406 342.941406 271.773438 C 342.769531 271.871094 342.601562 271.957031 342.425781 272.050781 L 342.425781 273.042969 L 342.960938 273.023438 C 342.976562 273.023438 343.132812 273.015625 343.40625 273.015625 C 346.835938 273.015625 363.988281 273.929688 365.019531 292.003906 C 365.722656 304.027344 359.886719 349.25 359.230469 354.265625 Z M 359.230469 354.265625 " fill-opacity="1" fill-rule="nonzero"/></g><path fill="#ffffff" d="M 257.199219 176.015625 L 253.265625 176.015625 C 253.234375 176.050781 253.203125 176.09375 253.171875 176.128906 C 252.269531 177.277344 247.261719 183.921875 247.261719 191.207031 L 247.246094 191.207031 C 248.429688 191.207031 249.390625 192.167969 249.390625 193.347656 C 249.390625 194.53125 248.429688 195.492188 247.246094 195.492188 C 248.429688 195.492188 249.390625 196.453125 249.390625 197.636719 C 249.390625 198.820312 248.429688 199.78125 247.246094 199.78125 L 245.820312 199.78125 C 245.820312 203.824219 242.542969 207.101562 238.5 207.101562 C 234.453125 207.101562 231.175781 203.824219 231.175781 199.78125 L 229.8125 199.78125 C 228.628906 199.78125 227.667969 198.820312 227.667969 197.636719 C 227.667969 196.453125 228.628906 195.492188 229.8125 195.492188 C 228.628906 195.492188 227.667969 194.53125 227.667969 193.347656 C 227.667969 192.167969 228.628906 191.207031 229.8125 191.207031 L 229.734375 191.207031 C 229.734375 183.921875 224.734375 177.277344 223.824219 176.128906 C 223.792969 176.09375 223.761719 176.050781 223.730469 176.015625 L 134.121094 176.015625 C 130.605469 176.015625 127.753906 178.867188 127.753906 182.382812 L 127.753906 263.863281 L 173.925781 263.863281 C 176.601562 263.863281 178.765625 266.035156 178.765625 268.703125 L 178.765625 271.515625 L 211.28125 271.515625 C 209.960938 268.453125 209.425781 265.632812 209.25 264.515625 C 209.238281 264.515625 209.234375 264.519531 209.222656 264.519531 C 209.207031 264.519531 209.191406 264.519531 209.175781 264.519531 C 208.914062 264.519531 208.6875 264.320312 208.667969 264.050781 L 208.660156 264.015625 C 205.402344 263.878906 204.285156 259.273438 204.152344 255.292969 L 155.074219 255.292969 C 154.816406 257.570312 152.890625 259.339844 150.546875 259.339844 C 148.027344 259.339844 145.980469 257.296875 145.980469 254.773438 C 145.980469 252.253906 148.027344 250.210938 150.546875 250.210938 C 152.890625 250.210938 154.824219 251.980469 155.082031 254.257812 L 204.140625 254.257812 C 204.148438 253.902344 204.152344 253.554688 204.171875 253.226562 C 204.34375 249.929688 206.925781 249.082031 208.03125 248.867188 C 208.015625 248.761719 208.019531 248.660156 208.070312 248.554688 C 208.164062 248.371094 208.355469 248.273438 208.550781 248.277344 C 208.816406 244.996094 212.019531 244.128906 213.277344 243.914062 C 213.261719 243.808594 213.273438 243.707031 213.324219 243.609375 C 213.460938 243.355469 213.769531 243.257812 214.023438 243.390625 C 214.367188 242.8125 215.117188 241.804688 216.394531 241.171875 C 219.9375 239.402344 225.613281 243.113281 225.613281 243.113281 L 221.367188 227.246094 C 220.796875 225.125 222.085938 222.945312 224.222656 222.421875 C 226.214844 221.929688 228.25 223.0625 228.886719 225.015625 L 238.425781 254.253906 L 245.355469 254.253906 C 245.640625 254.253906 245.875 254.484375 245.875 254.769531 C 245.875 255.054688 245.640625 255.285156 245.355469 255.285156 L 238.765625 255.285156 L 243.585938 270.050781 L 244.199219 271.5 L 257.214844 271.5 C 260.734375 271.5 263.582031 268.648438 263.582031 265.128906 L 263.582031 182.378906 C 263.570312 178.867188 260.71875 176.015625 257.199219 176.015625 Z M 210.675781 222.875 L 184.402344 238.046875 C 181.898438 239.492188 178.765625 237.683594 178.765625 234.792969 L 178.765625 204.453125 C 178.765625 201.5625 181.898438 199.753906 184.402344 201.199219 L 210.675781 216.367188 C 213.179688 217.816406 213.179688 221.429688 210.675781 222.875 Z M 210.675781 222.875 " fill-opacity="1" fill-rule="nonzero"/><path fill="#ededed" d="M 323.191406 238.09375 C 323.191406 238.097656 323.191406 238.109375 323.191406 238.113281 C 323.175781 238.125 323.164062 238.128906 323.15625 238.140625 C 323.164062 238.125 323.179688 238.109375 323.191406 238.09375 Z M 341.53125 272.496094 L 342.945312 272.496094 L 342.945312 271.761719 C 342.492188 272.023438 342.015625 272.273438 341.53125 272.496094 Z M 320.445312 269.46875 C 319.074219 270.289062 317.871094 271.316406 316.859375 272.496094 L 305.074219 272.496094 L 305.074219 259.671875 C 304.066406 259.773438 303.058594 259.878906 302.035156 259.847656 C 298.679688 259.703125 295.554688 258.742188 292.835938 257.160156 C 292.066406 256.710938 291.328125 256.214844 290.632812 255.671875 C 290.617188 255.65625 290.597656 255.648438 290.582031 255.632812 C 289.886719 255.089844 289.226562 254.507812 288.613281 253.882812 C 288.601562 253.871094 288.597656 253.859375 288.585938 253.855469 C 288.292969 253.554688 288.007812 253.246094 287.734375 252.929688 C 287.714844 252.910156 287.691406 252.882812 287.679688 252.863281 C 287.121094 252.21875 286.609375 251.53125 286.140625 250.820312 C 286.101562 250.765625 286.070312 250.714844 286.039062 250.664062 C 285.824219 250.328125 285.617188 249.980469 285.414062 249.628906 C 285.40625 249.613281 285.394531 249.597656 285.390625 249.585938 C 285.183594 249.210938 284.988281 248.835938 284.804688 248.449219 C 284.78125 248.390625 284.753906 248.335938 284.730469 248.28125 C 284.578125 247.957031 284.433594 247.632812 284.300781 247.296875 C 284.269531 247.21875 284.234375 247.136719 284.203125 247.058594 C 283.902344 246.289062 283.65625 245.5 283.453125 244.6875 C 283.425781 244.585938 283.402344 244.480469 283.378906 244.378906 C 283.304688 244.046875 283.234375 243.710938 283.175781 243.371094 C 283.160156 243.292969 283.144531 243.210938 283.128906 243.132812 C 283.058594 242.726562 283.003906 242.3125 282.960938 241.898438 C 282.953125 241.804688 282.945312 241.707031 282.9375 241.613281 C 282.90625 241.285156 282.886719 240.949219 282.875 240.609375 C 282.871094 240.488281 282.863281 240.371094 282.863281 240.25 C 282.855469 239.828125 282.855469 239.398438 282.875 238.96875 L 283.101562 233.863281 L 280.917969 232.152344 C 278.710938 230.425781 279.9375 226.890625 282.734375 226.890625 L 283.394531 226.890625 L 283.394531 226.882812 L 283.933594 214.277344 C 283.933594 209.023438 285.300781 204.082031 287.714844 199.816406 C 287.730469 200.378906 288.074219 213.046875 302.992188 218.914062 C 301.570312 221.378906 300.738281 224.355469 300.738281 227.5625 C 300.738281 236.046875 306.558594 242.925781 313.738281 242.925781 C 315.566406 242.925781 317.304688 242.476562 318.878906 241.675781 C 314.4375 246.5625 312.585938 253.582031 314.601562 260.375 C 315.691406 264.023438 317.769531 267.125 320.445312 269.46875 Z M 287.257812 222.882812 C 287.257812 224.179688 288.308594 225.226562 289.605469 225.226562 C 290.902344 225.226562 291.949219 224.179688 291.949219 222.882812 C 291.949219 221.585938 290.902344 220.535156 289.605469 220.535156 C 288.3125 220.535156 287.257812 221.585938 287.257812 222.882812 Z M 292.265625 236.683594 C 292.035156 236.511719 291.710938 236.554688 291.542969 236.78125 C 291.519531 236.804688 289.644531 239.21875 286.785156 238.128906 C 286.515625 238.023438 286.222656 238.160156 286.117188 238.429688 C 286.015625 238.695312 286.148438 238.992188 286.417969 239.09375 C 287.078125 239.347656 287.691406 239.445312 288.261719 239.445312 C 290.78125 239.445312 292.347656 237.425781 292.363281 237.40625 C 292.539062 237.179688 292.492188 236.851562 292.265625 236.683594 Z M 238.414062 254.261719 L 228.875 225.023438 C 228.242188 223.074219 226.207031 221.941406 224.210938 222.433594 C 222.074219 222.953125 220.789062 225.132812 221.355469 227.257812 L 225.601562 243.121094 C 225.601562 243.121094 219.929688 239.414062 216.382812 241.179688 C 215.105469 241.816406 214.359375 242.824219 214.011719 243.402344 L 220.316406 246.695312 C 220.570312 246.832031 220.667969 247.140625 220.535156 247.394531 C 220.441406 247.570312 220.261719 247.671875 220.074219 247.671875 C 219.992188 247.671875 219.914062 247.652344 219.835938 247.617188 L 213.53125 244.320312 C 213.375 244.238281 213.289062 244.089844 213.269531 243.929688 C 212.007812 244.144531 208.804688 245.011719 208.542969 248.292969 C 208.613281 248.292969 208.6875 248.308594 208.757812 248.34375 L 214.394531 251.230469 C 214.648438 251.359375 214.75 251.671875 214.617188 251.929688 C 214.523438 252.109375 214.34375 252.207031 214.15625 252.207031 C 214.078125 252.207031 213.996094 252.1875 213.917969 252.152344 L 208.285156 249.265625 C 208.128906 249.1875 208.042969 249.035156 208.015625 248.875 C 206.910156 249.089844 204.324219 249.933594 204.15625 253.234375 C 204.140625 253.566406 204.132812 253.914062 204.125 254.269531 C 204.121094 254.605469 204.125 254.949219 204.140625 255.300781 C 204.277344 259.277344 205.390625 263.890625 208.652344 264.023438 L 208.035156 257.480469 C 208.011719 257.195312 208.21875 256.945312 208.5 256.917969 C 208.785156 256.890625 209.039062 257.097656 209.0625 257.382812 L 209.683594 263.964844 C 209.710938 264.238281 209.511719 264.480469 209.238281 264.519531 C 209.414062 265.636719 209.953125 268.457031 211.269531 271.519531 C 211.722656 272.574219 212.269531 273.65625 212.921875 274.710938 C 212.941406 274.746094 212.96875 274.785156 212.988281 274.820312 C 213.195312 275.144531 213.414062 275.46875 213.640625 275.789062 C 213.664062 275.828125 213.691406 275.863281 213.722656 275.898438 C 213.953125 276.21875 214.199219 276.535156 214.449219 276.84375 C 214.457031 276.847656 214.457031 276.855469 214.460938 276.859375 C 214.710938 277.160156 214.976562 277.453125 215.25 277.738281 C 215.296875 277.789062 215.347656 277.839844 215.394531 277.886719 C 215.664062 278.160156 215.945312 278.425781 216.234375 278.675781 C 216.285156 278.722656 216.339844 278.769531 216.394531 278.8125 C 216.703125 279.074219 217.019531 279.328125 217.347656 279.566406 C 217.347656 279.566406 235.703125 272.914062 241.691406 270.746094 C 242.855469 270.320312 243.554688 270.066406 243.554688 270.066406 L 238.734375 255.300781 Z M 238.414062 254.261719 " fill-opacity="1" fill-rule="nonzero"/><path fill="#003152" d="M 210.675781 222.875 L 184.402344 238.046875 C 181.898438 239.492188 178.765625 237.683594 178.765625 234.792969 L 178.765625 204.453125 C 178.765625 201.5625 181.898438 199.753906 184.402344 201.199219 L 210.675781 216.367188 C 213.179688 217.816406 213.179688 221.429688 210.675781 222.875 Z M 150.542969 250.214844 C 148.019531 250.214844 145.976562 252.257812 145.976562 254.78125 C 145.976562 257.300781 148.019531 259.34375 150.542969 259.34375 C 152.886719 259.34375 154.816406 257.574219 155.070312 255.296875 C 155.089844 255.125 155.101562 254.957031 155.101562 254.78125 C 155.101562 254.605469 155.089844 254.433594 155.070312 254.261719 C 154.816406 251.984375 152.886719 250.214844 150.542969 250.214844 Z M 359.6875 354.78125 L 282.847656 354.78125 L 283.152344 338.265625 C 282.648438 338.785156 282.140625 339.300781 281.628906 339.808594 C 281.53125 339.90625 281.433594 340 281.339844 340.097656 C 280.835938 340.597656 280.328125 341.09375 279.816406 341.570312 C 255.789062 364.210938 240.492188 347.484375 233.265625 332.023438 C 228.105469 320.992188 217.367188 279.554688 217.367188 279.554688 C 217.367188 279.554688 235.726562 272.902344 241.710938 270.734375 C 242.878906 270.3125 243.574219 270.058594 243.574219 270.058594 L 244.191406 271.503906 L 260.398438 309.742188 C 260.324219 309.773438 260.253906 309.816406 260.199219 309.882812 L 254.855469 316.335938 C 254.675781 316.550781 254.707031 316.875 254.921875 317.0625 C 255.019531 317.144531 255.132812 317.179688 255.253906 317.179688 C 255.402344 317.179688 255.546875 317.121094 255.652344 316.996094 L 260.996094 310.542969 C 261.175781 310.328125 261.144531 310.003906 260.929688 309.816406 C 260.914062 309.800781 260.894531 309.800781 260.878906 309.789062 C 264.492188 304.265625 267.277344 299.207031 269.839844 294.714844 C 270.039062 294.359375 270.242188 294.007812 270.441406 293.660156 C 270.535156 293.496094 270.628906 293.335938 270.726562 293.171875 C 270.964844 292.757812 271.203125 292.347656 271.441406 291.945312 C 271.5 291.835938 271.570312 291.730469 271.628906 291.621094 C 271.882812 291.191406 272.136719 290.773438 272.382812 290.355469 C 272.4375 290.273438 272.484375 290.191406 272.535156 290.105469 C 272.796875 289.679688 273.054688 289.253906 273.320312 288.84375 C 273.359375 288.773438 273.402344 288.710938 273.445312 288.644531 C 273.710938 288.222656 273.980469 287.804688 274.253906 287.394531 C 274.289062 287.34375 274.320312 287.292969 274.359375 287.242188 C 274.636719 286.824219 274.914062 286.414062 275.199219 286.011719 C 275.226562 285.976562 275.257812 285.933594 275.28125 285.898438 C 275.578125 285.484375 275.871094 285.082031 276.164062 284.6875 C 276.179688 284.667969 276.195312 284.648438 276.210938 284.628906 C 276.523438 284.21875 276.835938 283.816406 277.15625 283.429688 C 281.796875 277.773438 287.527344 274.085938 297.453125 272.902344 C 299.757812 272.628906 302.285156 272.484375 305.078125 272.484375 L 316.863281 272.484375 C 315.292969 274.3125 314.195312 276.503906 313.660156 278.863281 C 310.582031 276.648438 308.679688 274.898438 308.625 274.855469 C 308.414062 274.660156 308.089844 274.675781 307.898438 274.882812 C 307.703125 275.089844 307.71875 275.417969 307.925781 275.609375 C 307.976562 275.65625 310.082031 277.585938 313.457031 279.980469 C 313.160156 282.015625 313.289062 284.140625 313.914062 286.242188 C 314.445312 288.03125 315.289062 289.636719 316.363281 291.03125 C 313.792969 292.605469 311.925781 295.070312 311.0625 297.878906 C 310.902344 297.652344 310.742188 297.421875 310.589844 297.195312 C 303.304688 286.539062 299.472656 275.179688 299.4375 275.066406 C 299.351562 274.796875 299.054688 274.648438 298.789062 274.742188 C 298.519531 274.835938 298.367188 275.125 298.460938 275.394531 C 298.5 275.507812 302.371094 286.984375 309.730469 297.757812 C 310.066406 298.246094 310.410156 298.726562 310.742188 299.203125 C 310.394531 301.058594 310.464844 303.019531 311.039062 304.957031 C 311.34375 305.980469 311.765625 306.933594 312.292969 307.808594 C 307.9375 309.636719 305.570312 314.484375 306.941406 319.113281 C 308.414062 324.078125 313.636719 326.90625 318.601562 325.429688 C 323.5625 323.957031 326.394531 318.734375 324.917969 313.773438 C 324.890625 313.691406 324.859375 313.617188 324.832031 313.539062 C 325.078125 313.5 325.320312 313.453125 325.5625 313.394531 C 329.925781 315.902344 334.457031 317.171875 339.078125 317.171875 C 340.390625 317.171875 341.703125 317.066406 343.023438 316.867188 C 353.839844 315.1875 360.953125 308.335938 362.035156 298.53125 C 363.175781 288.277344 357.507812 278.273438 348.554688 274.753906 C 348.292969 274.648438 347.992188 274.777344 347.882812 275.042969 C 347.78125 275.304688 347.910156 275.605469 348.171875 275.714844 C 356.695312 279.070312 362.09375 288.621094 361.003906 298.417969 C 360.0625 306.878906 354.375 313.023438 345.601562 315.28125 C 354.820312 301.207031 347.191406 290.238281 345.234375 287.8125 C 346.023438 287.320312 346.644531 286.703125 347.074219 285.964844 C 349.558594 281.726562 345.101562 275.210938 344.910156 274.9375 C 344.75 274.707031 344.425781 274.644531 344.191406 274.808594 C 343.960938 274.96875 343.898438 275.292969 344.0625 275.527344 C 344.105469 275.589844 348.339844 281.769531 346.183594 285.445312 C 345.765625 286.15625 345.125 286.734375 344.277344 287.179688 C 344.234375 287.195312 344.195312 287.214844 344.15625 287.246094 C 343.394531 287.625 342.464844 287.898438 341.386719 288.074219 C 342.777344 284.980469 343.113281 281.390625 342.070312 277.882812 C 341.550781 276.148438 340.746094 274.582031 339.71875 273.21875 C 340.339844 273 340.941406 272.757812 341.53125 272.484375 L 342.945312 272.484375 C 342.945312 272.484375 342.957031 272.484375 342.960938 272.484375 C 342.96875 272.484375 342.976562 272.484375 342.988281 272.484375 C 342.992188 272.484375 343.003906 272.484375 343.015625 272.484375 C 343.03125 272.484375 343.050781 272.484375 343.066406 272.484375 C 343.070312 272.484375 343.074219 272.484375 343.085938 272.484375 C 343.113281 272.484375 343.144531 272.484375 343.179688 272.484375 C 343.183594 272.484375 343.183594 272.484375 343.183594 272.484375 C 343.21875 272.484375 343.261719 272.484375 343.308594 272.484375 C 343.3125 272.484375 343.3125 272.484375 343.320312 272.484375 C 343.363281 272.484375 343.410156 272.484375 343.46875 272.484375 C 343.472656 272.484375 343.472656 272.484375 343.480469 272.484375 C 343.53125 272.484375 343.585938 272.484375 343.648438 272.484375 C 343.652344 272.484375 343.660156 272.484375 343.664062 272.484375 C 343.726562 272.484375 343.792969 272.484375 343.867188 272.488281 C 343.867188 272.488281 343.867188 272.488281 343.871094 272.488281 C 343.945312 272.488281 344.015625 272.496094 344.09375 272.496094 C 344.097656 272.496094 344.097656 272.496094 344.105469 272.496094 C 344.265625 272.5 344.4375 272.503906 344.628906 272.515625 L 344.636719 272.515625 C 344.730469 272.519531 344.828125 272.527344 344.925781 272.53125 C 344.929688 272.53125 344.929688 272.53125 344.933594 272.53125 C 345.238281 272.550781 345.574219 272.578125 345.9375 272.613281 L 345.941406 272.613281 C 346.0625 272.625 346.183594 272.640625 346.308594 272.65625 L 346.3125 272.65625 C 346.4375 272.671875 346.566406 272.6875 346.695312 272.703125 C 346.703125 272.703125 346.703125 272.703125 346.707031 272.703125 C 346.96875 272.734375 347.238281 272.773438 347.523438 272.816406 L 347.527344 272.816406 C 347.667969 272.835938 347.808594 272.855469 347.945312 272.882812 C 347.953125 272.882812 347.957031 272.882812 347.960938 272.882812 C 348.101562 272.910156 348.246094 272.933594 348.390625 272.960938 C 348.394531 272.960938 348.394531 272.960938 348.402344 272.960938 C 348.546875 272.984375 348.691406 273.015625 348.839844 273.042969 C 348.84375 273.042969 348.851562 273.042969 348.855469 273.046875 C 349 273.078125 349.148438 273.109375 349.292969 273.140625 C 349.304688 273.140625 349.308594 273.144531 349.320312 273.144531 C 349.46875 273.175781 349.621094 273.214844 349.773438 273.25 C 349.78125 273.25 349.789062 273.253906 349.796875 273.253906 C 349.949219 273.289062 350.105469 273.328125 350.261719 273.367188 C 350.265625 273.367188 350.269531 273.375 350.277344 273.375 C 350.429688 273.414062 350.589844 273.457031 350.746094 273.496094 C 350.75 273.496094 350.761719 273.503906 350.765625 273.503906 C 350.921875 273.542969 351.082031 273.589844 351.234375 273.636719 C 351.246094 273.640625 351.257812 273.640625 351.261719 273.648438 C 351.421875 273.695312 351.578125 273.746094 351.738281 273.792969 C 351.746094 273.796875 351.753906 273.796875 351.761719 273.800781 C 351.921875 273.855469 352.082031 273.90625 352.242188 273.960938 C 352.253906 273.96875 352.265625 273.96875 352.273438 273.972656 C 352.429688 274.023438 352.589844 274.082031 352.746094 274.136719 C 352.761719 274.144531 352.769531 274.148438 352.785156 274.152344 C 352.945312 274.210938 353.101562 274.273438 353.261719 274.332031 C 353.269531 274.339844 353.285156 274.34375 353.296875 274.347656 C 353.453125 274.410156 353.613281 274.472656 353.765625 274.539062 C 353.78125 274.546875 353.796875 274.550781 353.8125 274.554688 C 353.96875 274.625 354.125 274.691406 354.277344 274.757812 C 354.292969 274.761719 354.308594 274.773438 354.328125 274.777344 C 354.484375 274.84375 354.640625 274.917969 354.792969 274.996094 C 354.808594 275.003906 354.832031 275.011719 354.847656 275.019531 C 355 275.09375 355.152344 275.171875 355.300781 275.25 C 355.320312 275.257812 355.34375 275.269531 355.359375 275.277344 C 355.507812 275.355469 355.65625 275.433594 355.808594 275.515625 C 355.828125 275.527344 355.847656 275.539062 355.875 275.554688 C 356.019531 275.636719 356.167969 275.71875 356.3125 275.800781 C 356.339844 275.816406 356.359375 275.828125 356.386719 275.84375 C 356.53125 275.925781 356.675781 276.019531 356.820312 276.105469 C 356.84375 276.121094 356.867188 276.136719 356.890625 276.152344 C 357.035156 276.238281 357.175781 276.332031 357.320312 276.429688 C 357.347656 276.445312 357.371094 276.460938 357.394531 276.476562 C 357.53125 276.570312 357.667969 276.667969 357.804688 276.761719 C 357.832031 276.78125 357.863281 276.796875 357.886719 276.816406 C 358.023438 276.917969 358.15625 277.015625 358.292969 277.117188 C 358.316406 277.136719 358.347656 277.160156 358.375 277.179688 C 358.507812 277.28125 358.636719 277.386719 358.765625 277.496094 C 358.796875 277.515625 358.824219 277.542969 358.855469 277.5625 C 358.984375 277.671875 359.113281 277.777344 359.238281 277.886719 C 359.269531 277.914062 359.296875 277.9375 359.324219 277.964844 C 359.449219 278.074219 359.566406 278.1875 359.691406 278.300781 C 359.722656 278.332031 359.757812 278.355469 359.789062 278.386719 C 359.90625 278.5 360.027344 278.617188 360.140625 278.734375 C 360.171875 278.765625 360.207031 278.796875 360.238281 278.832031 C 360.351562 278.953125 360.464844 279.070312 360.578125 279.195312 C 360.609375 279.230469 360.648438 279.261719 360.675781 279.296875 C 360.785156 279.421875 360.894531 279.546875 361.003906 279.667969 C 361.035156 279.707031 361.070312 279.746094 361.101562 279.78125 C 361.203125 279.90625 361.308594 280.035156 361.410156 280.164062 C 361.445312 280.207031 361.484375 280.253906 361.515625 280.292969 C 361.613281 280.421875 361.710938 280.550781 361.804688 280.679688 C 361.839844 280.726562 361.875 280.78125 361.910156 280.824219 C 362.003906 280.957031 362.097656 281.089844 362.1875 281.222656 C 362.222656 281.277344 362.257812 281.328125 362.292969 281.382812 C 362.382812 281.519531 362.46875 281.664062 362.558594 281.800781 C 362.59375 281.859375 362.628906 281.910156 362.660156 281.96875 C 362.742188 282.105469 362.828125 282.25 362.910156 282.394531 C 362.945312 282.457031 362.976562 282.515625 363.011719 282.570312 C 363.089844 282.714844 363.167969 282.867188 363.246094 283.011719 C 363.277344 283.074219 363.3125 283.136719 363.34375 283.203125 C 363.414062 283.347656 363.488281 283.496094 363.554688 283.644531 C 363.585938 283.71875 363.621094 283.785156 363.65625 283.859375 C 363.726562 284.007812 363.785156 284.164062 363.855469 284.3125 C 363.886719 284.390625 363.921875 284.460938 363.953125 284.539062 C 364.015625 284.6875 364.070312 284.84375 364.128906 285 C 364.160156 285.082031 364.195312 285.164062 364.222656 285.246094 C 364.277344 285.402344 364.328125 285.558594 364.378906 285.710938 C 364.410156 285.804688 364.441406 285.894531 364.472656 285.984375 C 364.527344 286.144531 364.570312 286.3125 364.617188 286.476562 C 364.644531 286.570312 364.675781 286.65625 364.699219 286.75 C 364.746094 286.914062 364.789062 287.085938 364.832031 287.25 C 364.855469 287.347656 364.882812 287.441406 364.902344 287.539062 C 364.945312 287.707031 364.976562 287.875 365.011719 288.046875 C 365.03125 288.148438 365.058594 288.253906 365.078125 288.363281 C 365.113281 288.539062 365.144531 288.722656 365.175781 288.902344 C 365.191406 289.007812 365.210938 289.105469 365.234375 289.207031 C 365.265625 289.390625 365.285156 289.574219 365.308594 289.761719 C 365.324219 289.871094 365.339844 289.976562 365.355469 290.09375 C 365.378906 290.277344 365.398438 290.464844 365.417969 290.65625 C 365.429688 290.773438 365.445312 290.886719 365.457031 291 C 365.480469 291.3125 365.507812 291.621094 365.523438 291.941406 C 366.285156 304.835938 359.6875 354.78125 359.6875 354.78125 Z M 248.136719 285.09375 C 248.046875 284.824219 247.753906 284.675781 247.484375 284.765625 L 223.691406 292.710938 C 223.421875 292.796875 223.273438 293.09375 223.367188 293.359375 C 223.4375 293.578125 223.640625 293.710938 223.855469 293.710938 C 223.90625 293.710938 223.964844 293.703125 224.019531 293.6875 L 247.808594 285.742188 C 248.078125 285.65625 248.222656 285.367188 248.136719 285.09375 Z M 295.476562 323.855469 C 295.261719 323.667969 294.933594 323.695312 294.75 323.910156 L 283.152344 337.511719 C 282.96875 337.726562 282.992188 338.050781 283.210938 338.238281 C 283.308594 338.320312 283.425781 338.363281 283.546875 338.363281 C 283.691406 338.363281 283.835938 338.300781 283.9375 338.183594 L 295.535156 324.582031 C 295.71875 324.367188 295.695312 324.039062 295.476562 323.855469 Z M 342.863281 315.855469 C 343.292969 315.785156 343.714844 315.710938 344.132812 315.625 C 354.324219 301.113281 345.949219 290.207031 344.316406 288.316406 C 343.347656 288.742188 342.1875 289.039062 340.839844 289.191406 C 339.257812 292.039062 336.742188 294.367188 333.558594 295.667969 C 333.949219 296.398438 334.269531 297.171875 334.519531 297.992188 C 336.371094 304.242188 333.007812 310.804688 326.957031 312.992188 C 331.636719 315.488281 336.957031 316.769531 342.863281 315.855469 Z M 342.863281 315.855469 " fill-opacity="1" fill-rule="nonzero"/><g clip-path="url(#2ba55240b9)"><path fill="#ec9707" d="M 235.460938 163.144531 L 235.460938 165.929688 L 233.78125 165.929688 C 232.859375 165.929688 232.105469 165.175781 232.105469 164.25 L 232.105469 163.144531 C 232.105469 162.222656 232.859375 161.46875 233.78125 161.46875 C 234.707031 161.46875 235.460938 162.222656 235.460938 163.144531 Z M 243.222656 161.46875 C 242.300781 161.46875 241.546875 162.222656 241.546875 163.144531 L 241.546875 165.929688 L 243.222656 165.929688 C 244.148438 165.929688 244.902344 165.175781 244.902344 164.25 L 244.902344 163.144531 C 244.902344 162.222656 244.148438 161.46875 243.222656 161.46875 Z M 257.5625 163.976562 C 257.5625 168.511719 255.972656 172.667969 253.328125 175.9375 L 253.332031 175.9375 C 253.332031 175.9375 253.304688 175.96875 253.28125 176.003906 C 253.273438 176.011719 253.273438 176.011719 253.269531 176.015625 C 253.238281 176.050781 253.207031 176.09375 253.175781 176.128906 C 252.273438 177.277344 247.269531 183.921875 247.269531 191.207031 L 229.738281 191.207031 C 229.738281 183.921875 224.738281 177.277344 223.832031 176.128906 C 223.800781 176.09375 223.769531 176.050781 223.738281 176.015625 C 223.730469 176.011719 223.730469 176.003906 223.726562 176.003906 C 223.699219 175.96875 223.675781 175.9375 223.675781 175.9375 L 223.679688 175.9375 C 221.035156 172.667969 219.445312 168.507812 219.445312 163.976562 C 219.445312 153.449219 227.976562 144.917969 238.503906 144.917969 C 249.03125 144.917969 257.5625 153.449219 257.5625 163.976562 Z M 245.9375 163.144531 C 245.9375 161.648438 244.714844 160.433594 243.222656 160.433594 C 241.730469 160.433594 240.511719 161.648438 240.511719 163.144531 L 240.511719 165.929688 L 236.496094 165.929688 L 236.496094 163.144531 C 236.496094 161.648438 235.28125 160.433594 233.78125 160.433594 C 232.285156 160.433594 231.070312 161.648438 231.070312 163.144531 L 231.070312 164.25 C 231.070312 165.75 232.285156 166.960938 233.78125 166.960938 L 235.460938 166.960938 L 235.460938 190.441406 C 235.460938 190.726562 235.695312 190.957031 235.976562 190.957031 C 236.261719 190.957031 236.496094 190.726562 236.496094 190.441406 L 236.496094 166.960938 L 240.511719 166.960938 L 240.511719 190.441406 C 240.511719 190.726562 240.746094 190.957031 241.027344 190.957031 C 241.3125 190.957031 241.546875 190.726562 241.546875 190.441406 L 241.546875 166.960938 L 243.222656 166.960938 C 244.714844 166.960938 245.9375 165.75 245.9375 164.25 Z M 326.738281 227.550781 C 326.738281 231.632812 325.390625 235.339844 323.191406 238.09375 C 323.179688 238.109375 323.164062 238.125 323.15625 238.140625 C 321.953125 239.632812 320.503906 240.839844 318.878906 241.667969 C 317.304688 242.472656 315.5625 242.917969 313.738281 242.917969 C 306.558594 242.917969 300.738281 236.035156 300.738281 227.550781 C 300.738281 224.34375 301.570312 221.367188 302.992188 218.90625 C 304.898438 215.605469 307.855469 213.234375 311.300781 212.460938 L 313.015625 184.761719 L 313.078125 183.800781 C 313.175781 182.179688 314.585938 180.949219 316.207031 181.0625 L 319.710938 181.316406 C 321.402344 181.4375 322.636719 182.972656 322.390625 184.652344 L 322.183594 186.066406 L 318.226562 213.121094 C 323.195312 215.285156 326.738281 220.925781 326.738281 227.550781 Z M 322.933594 227.550781 C 322.933594 222.28125 320.71875 217.371094 317.007812 214.40625 C 316.785156 214.226562 316.460938 214.265625 316.28125 214.488281 C 316.105469 214.710938 316.140625 215.035156 316.363281 215.21875 C 319.828125 217.984375 321.898438 222.597656 321.898438 227.554688 C 321.898438 232.820312 319.519531 237.734375 315.691406 240.390625 C 315.460938 240.550781 315.398438 240.875 315.5625 241.109375 C 315.660156 241.253906 315.820312 241.332031 315.984375 241.332031 C 316.089844 241.332031 316.191406 241.300781 316.28125 241.238281 C 320.386719 238.386719 322.933594 233.144531 322.933594 227.550781 Z M 113.28125 309.378906 L 107.855469 309.378906 L 112.398438 314.140625 L 117.605469 319.589844 L 117.605469 313.699219 C 117.605469 311.3125 115.664062 309.378906 113.28125 309.378906 Z M 178.765625 268.699219 L 178.765625 315.285156 C 178.765625 317.960938 176.597656 320.125 173.925781 320.125 L 118.636719 320.125 L 118.636719 313.695312 C 118.636719 310.742188 116.234375 308.339844 113.28125 308.339844 L 107.363281 308.339844 L 107.363281 268.699219 C 107.363281 266.023438 109.53125 263.859375 112.203125 263.859375 L 173.925781 263.859375 C 176.597656 263.859375 178.765625 266.027344 178.765625 268.699219 Z M 156.929688 302.125 C 156.929688 301.84375 156.699219 301.609375 156.414062 301.609375 L 118.617188 301.609375 C 118.332031 301.609375 118.101562 301.84375 118.101562 302.125 C 118.101562 302.410156 118.332031 302.640625 118.617188 302.640625 L 156.414062 302.640625 C 156.699219 302.640625 156.929688 302.410156 156.929688 302.125 Z M 168.523438 295.097656 C 168.523438 294.8125 168.292969 294.582031 168.007812 294.582031 L 118.617188 294.582031 C 118.332031 294.582031 118.101562 294.8125 118.101562 295.097656 C 118.101562 295.378906 118.332031 295.613281 118.617188 295.613281 L 168.007812 295.613281 C 168.292969 295.613281 168.523438 295.378906 168.523438 295.097656 Z M 168.523438 288.066406 C 168.523438 287.785156 168.292969 287.550781 168.007812 287.550781 L 118.617188 287.550781 C 118.332031 287.550781 118.101562 287.785156 118.101562 288.066406 C 118.101562 288.351562 118.332031 288.582031 118.617188 288.582031 L 168.007812 288.582031 C 168.292969 288.582031 168.523438 288.355469 168.523438 288.066406 Z M 168.523438 281.074219 C 168.523438 280.789062 168.292969 280.558594 168.007812 280.558594 L 118.617188 280.558594 C 118.332031 280.558594 118.101562 280.789062 118.101562 281.074219 C 118.101562 281.359375 118.332031 281.589844 118.617188 281.589844 L 168.007812 281.589844 C 168.292969 281.589844 168.523438 281.359375 168.523438 281.074219 Z M 168.523438 281.074219 " fill-opacity="1" fill-rule="nonzero"/></g><path fill="#ffac00" d="M 125.261719 108.996094 C 125.261719 110.066406 125.226562 111.132812 125.160156 112.199219 C 125.097656 113.265625 125 114.332031 124.875 115.390625 C 124.746094 116.453125 124.589844 117.511719 124.398438 118.5625 C 124.210938 119.613281 123.992188 120.660156 123.742188 121.699219 C 123.492188 122.738281 123.214844 123.769531 122.902344 124.792969 C 122.59375 125.816406 122.253906 126.828125 121.886719 127.832031 C 121.519531 128.835938 121.121094 129.828125 120.695312 130.808594 C 120.265625 131.789062 119.8125 132.753906 119.328125 133.707031 C 118.847656 134.664062 118.335938 135.601562 117.800781 136.527344 C 117.261719 137.449219 116.699219 138.359375 116.109375 139.25 C 115.515625 140.140625 114.902344 141.015625 114.261719 141.871094 C 113.617188 142.726562 112.953125 143.5625 112.261719 144.382812 C 111.574219 145.199219 110.859375 145.996094 110.125 146.769531 C 109.386719 147.546875 108.628906 148.300781 107.847656 149.03125 C 107.066406 149.765625 106.265625 150.472656 105.445312 151.15625 C 104.625 151.84375 103.78125 152.503906 102.921875 153.140625 C 102.0625 153.777344 101.183594 154.386719 100.289062 154.972656 C 99.394531 155.558594 98.480469 156.117188 97.554688 156.652344 C 96.625 157.183594 95.683594 157.691406 94.722656 158.167969 C 93.765625 158.644531 92.796875 159.09375 91.8125 159.515625 C 90.828125 159.9375 89.832031 160.332031 88.824219 160.695312 C 87.816406 161.058594 86.800781 161.394531 85.773438 161.699219 C 84.75 162.003906 83.714844 162.277344 82.671875 162.523438 C 81.628906 162.769531 80.582031 162.984375 79.527344 163.167969 C 78.472656 163.351562 77.414062 163.503906 76.347656 163.625 C 75.285156 163.75 74.21875 163.839844 73.148438 163.902344 C 72.082031 163.960938 71.011719 163.992188 69.941406 163.988281 C 68.867188 163.988281 67.796875 163.957031 66.730469 163.894531 C 65.660156 163.828125 64.59375 163.734375 63.53125 163.609375 C 62.46875 163.484375 61.410156 163.328125 60.355469 163.140625 C 59.300781 162.953125 58.253906 162.738281 57.210938 162.488281 C 56.167969 162.242188 55.136719 161.964844 54.109375 161.65625 C 53.085938 161.347656 52.070312 161.011719 51.0625 160.644531 C 50.058594 160.277344 49.0625 159.882812 48.078125 159.457031 C 47.097656 159.035156 46.128906 158.582031 45.171875 158.101562 C 44.214844 157.621094 43.273438 157.113281 42.34375 156.578125 C 41.417969 156.042969 40.507812 155.480469 39.613281 154.894531 C 38.71875 154.304688 37.84375 153.691406 36.984375 153.054688 C 36.125 152.414062 35.289062 151.75 34.46875 151.0625 C 33.648438 150.375 32.847656 149.664062 32.070312 148.929688 C 31.292969 148.199219 30.535156 147.441406 29.800781 146.664062 C 29.066406 145.886719 28.355469 145.085938 27.667969 144.269531 C 26.980469 143.449219 26.316406 142.609375 25.679688 141.753906 C 25.039062 140.894531 24.425781 140.019531 23.835938 139.128906 C 23.25 138.234375 22.6875 137.324219 22.152344 136.398438 C 21.617188 135.472656 21.109375 134.53125 20.628906 133.578125 C 20.148438 132.621094 19.699219 131.652344 19.273438 130.671875 C 18.851562 129.691406 18.457031 128.699219 18.089844 127.695312 C 17.722656 126.6875 17.386719 125.675781 17.082031 124.652344 C 16.773438 123.628906 16.496094 122.59375 16.25 121.554688 C 16.003906 120.515625 15.785156 119.46875 15.601562 118.417969 C 15.414062 117.363281 15.261719 116.308594 15.136719 115.246094 C 15.011719 114.183594 14.917969 113.121094 14.855469 112.054688 C 14.792969 110.988281 14.761719 109.917969 14.761719 108.851562 C 14.761719 107.78125 14.792969 106.714844 14.855469 105.648438 C 14.917969 104.578125 15.011719 103.515625 15.136719 102.453125 C 15.261719 101.390625 15.414062 100.335938 15.601562 99.28125 C 15.785156 98.230469 16.003906 97.183594 16.25 96.144531 C 16.496094 95.105469 16.773438 94.074219 17.082031 93.046875 C 17.386719 92.023438 17.722656 91.011719 18.089844 90.007812 C 18.457031 89 18.851562 88.007812 19.273438 87.027344 C 19.699219 86.046875 20.148438 85.078125 20.628906 84.121094 C 21.109375 83.167969 21.617188 82.226562 22.152344 81.300781 C 22.6875 80.375 23.25 79.464844 23.835938 78.574219 C 24.425781 77.679688 25.039062 76.804688 25.675781 75.945312 C 26.316406 75.089844 26.980469 74.25 27.667969 73.429688 C 28.355469 72.613281 29.066406 71.8125 29.800781 71.035156 C 30.535156 70.257812 31.292969 69.503906 32.070312 68.769531 C 32.847656 68.035156 33.648438 67.324219 34.46875 66.636719 C 35.289062 65.949219 36.125 65.285156 36.984375 64.648438 C 37.84375 64.007812 38.71875 63.394531 39.613281 62.804688 C 40.507812 62.21875 41.417969 61.65625 42.34375 61.121094 C 43.273438 60.585938 44.214844 60.078125 45.171875 59.597656 C 46.125 59.117188 47.097656 58.664062 48.078125 58.242188 C 49.0625 57.816406 50.054688 57.421875 51.0625 57.054688 C 52.066406 56.6875 53.082031 56.351562 54.109375 56.042969 C 55.136719 55.734375 56.167969 55.457031 57.210938 55.210938 C 58.25 54.960938 59.300781 54.746094 60.355469 54.558594 C 61.410156 54.371094 62.46875 54.214844 63.53125 54.089844 C 64.59375 53.964844 65.660156 53.871094 66.730469 53.808594 C 67.796875 53.742188 68.867188 53.710938 69.9375 53.710938 C 71.011719 53.707031 72.078125 53.738281 73.148438 53.796875 C 74.21875 53.859375 75.285156 53.949219 76.347656 54.074219 C 77.414062 54.195312 78.472656 54.347656 79.527344 54.53125 C 80.582031 54.71875 81.628906 54.929688 82.671875 55.175781 C 83.714844 55.421875 84.75 55.695312 85.773438 56 C 86.800781 56.304688 87.816406 56.640625 88.824219 57.003906 C 89.832031 57.367188 90.828125 57.761719 91.8125 58.183594 C 92.796875 58.605469 93.765625 59.054688 94.722656 59.53125 C 95.679688 60.007812 96.625 60.515625 97.554688 61.046875 C 98.480469 61.582031 99.394531 62.140625 100.289062 62.726562 C 101.183594 63.3125 102.0625 63.921875 102.921875 64.558594 C 103.78125 65.195312 104.625 65.855469 105.445312 66.542969 C 106.265625 67.226562 107.066406 67.933594 107.847656 68.667969 C 108.628906 69.398438 109.386719 70.152344 110.125 70.929688 C 110.859375 71.703125 111.574219 72.5 112.261719 73.316406 C 114.355469 75.792969 116.210938 78.433594 117.835938 81.238281 C 119.460938 84.039062 120.828125 86.960938 121.9375 90.007812 C 123.046875 93.050781 123.878906 96.164062 124.4375 99.355469 C 124.996094 102.546875 125.273438 105.757812 125.261719 108.996094 Z M 125.261719 108.996094 " fill-opacity="1" fill-rule="nonzero"/><path fill="#ea9706" d="M 125.261719 112.242188 C 125.394531 110.078125 125.394531 107.917969 125.261719 105.753906 L 102.511719 105.753906 C 102.296875 101.226562 101.597656 96.773438 100.414062 92.398438 C 99.230469 88.023438 97.589844 83.824219 95.492188 79.804688 L 116.976562 79.804688 C 115.5625 77.527344 113.992188 75.367188 112.261719 73.316406 L 91.464844 73.316406 C 86.144531 65.726562 79.589844 59.414062 71.800781 54.375 C 71.257812 54.019531 70.664062 53.839844 70.011719 53.839844 C 69.363281 53.839844 68.769531 54.019531 68.226562 54.375 C 60.433594 59.414062 53.882812 65.726562 48.5625 73.316406 L 27.925781 73.316406 C 26.171875 75.363281 24.582031 77.527344 23.148438 79.804688 L 44.628906 79.804688 C 42.511719 83.820312 40.851562 88.015625 39.648438 92.390625 C 38.449219 96.765625 37.738281 101.222656 37.511719 105.753906 L 14.761719 105.753906 C 14.632812 107.917969 14.632812 110.078125 14.761719 112.242188 L 37.511719 112.242188 C 37.722656 116.769531 38.417969 121.222656 39.601562 125.597656 C 40.785156 129.972656 42.429688 134.171875 44.53125 138.1875 L 23.148438 138.1875 C 24.582031 140.46875 26.171875 142.632812 27.925781 144.675781 L 48.5625 144.675781 C 53.84375 152.238281 60.34375 158.554688 68.0625 163.617188 C 68.605469 163.976562 69.203125 164.152344 69.851562 164.152344 C 70.5 164.152344 71.097656 163.976562 71.636719 163.617188 C 79.488281 158.597656 86.097656 152.285156 91.464844 144.675781 L 112.261719 144.675781 C 114.015625 142.632812 115.609375 140.46875 117.039062 138.1875 L 95.394531 138.1875 C 97.515625 134.175781 99.175781 129.980469 100.375 125.605469 C 101.578125 121.226562 102.289062 116.773438 102.511719 112.242188 Z M 70.011719 61.023438 C 75.066406 64.492188 79.539062 68.589844 83.4375 73.316406 L 56.589844 73.316406 C 60.484375 68.589844 64.960938 64.492188 70.011719 61.023438 Z M 70.011719 156.96875 C 64.960938 153.5 60.484375 149.402344 56.589844 144.675781 L 83.4375 144.675781 C 79.539062 149.402344 75.066406 153.5 70.011719 156.96875 Z M 88.050781 138.1875 L 51.976562 138.1875 C 49.570312 134.269531 47.695312 130.113281 46.347656 125.71875 C 45 121.324219 44.21875 116.832031 44.011719 112.242188 L 96.011719 112.242188 C 95.804688 116.832031 95.027344 121.324219 93.679688 125.71875 C 92.332031 130.113281 90.453125 134.269531 88.050781 138.1875 Z M 44.011719 105.753906 C 44.199219 101.167969 44.957031 96.679688 46.285156 92.285156 C 47.609375 87.890625 49.464844 83.730469 51.84375 79.804688 L 87.921875 79.804688 C 90.34375 83.722656 92.238281 87.875 93.609375 92.269531 C 94.976562 96.664062 95.78125 101.15625 96.011719 105.753906 Z M 44.011719 105.753906 " fill-opacity="1" fill-rule="nonzero"/><path fill="#ea9706" d="M 125.261719 108.996094 C 125.261719 110.070312 125.230469 111.144531 125.167969 112.214844 C 125.105469 113.289062 125.011719 114.359375 124.886719 115.425781 C 124.761719 116.492188 124.605469 117.554688 124.417969 118.613281 C 124.230469 119.667969 124.011719 120.722656 123.761719 121.765625 C 123.515625 122.8125 123.234375 123.847656 122.925781 124.875 C 122.613281 125.90625 122.273438 126.921875 121.90625 127.933594 C 121.535156 128.941406 121.136719 129.9375 120.710938 130.921875 C 120.28125 131.910156 119.824219 132.882812 119.339844 133.839844 C 118.855469 134.800781 118.34375 135.742188 117.804688 136.671875 C 117.265625 137.601562 116.695312 138.515625 116.105469 139.410156 C 115.511719 140.304688 114.890625 141.183594 114.246094 142.042969 C 113.601562 142.902344 112.933594 143.742188 112.238281 144.566406 C 111.542969 145.386719 110.828125 146.1875 110.085938 146.964844 C 109.34375 147.742188 108.582031 148.5 107.796875 149.234375 C 107.011719 149.96875 106.203125 150.679688 105.378906 151.367188 C 104.550781 152.054688 103.703125 152.71875 102.839844 153.355469 C 101.972656 153.996094 101.089844 154.605469 100.1875 155.195312 C 99.285156 155.78125 98.367188 156.339844 97.433594 156.875 C 96.5 157.40625 95.550781 157.910156 94.585938 158.390625 C 93.625 158.867188 92.644531 159.316406 91.65625 159.738281 C 90.664062 160.15625 89.664062 160.550781 88.652344 160.910156 C 87.636719 161.273438 86.613281 161.605469 85.582031 161.910156 C 84.550781 162.210938 83.507812 162.484375 82.460938 162.726562 C 81.414062 162.96875 80.359375 163.179688 79.296875 163.359375 C 78.234375 163.539062 77.171875 163.691406 76.101562 163.808594 C 75.03125 163.925781 73.957031 164.011719 72.882812 164.070312 C 71.808594 164.125 70.734375 164.148438 69.65625 164.144531 C 68.582031 164.136719 67.507812 164.097656 66.433594 164.027344 C 65.359375 163.957031 64.289062 163.859375 63.21875 163.726562 C 62.152344 163.59375 61.089844 163.429688 60.03125 163.234375 C 58.972656 163.042969 57.917969 162.816406 56.875 162.5625 C 55.828125 162.304688 54.792969 162.019531 53.761719 161.703125 L 53.761719 99.265625 C 53.761719 98.414062 53.847656 97.570312 54.011719 96.734375 C 54.179688 95.898438 54.425781 95.089844 54.753906 94.300781 C 55.078125 93.515625 55.480469 92.765625 55.953125 92.058594 C 56.429688 91.351562 56.96875 90.695312 57.570312 90.09375 C 58.175781 89.488281 58.832031 88.953125 59.539062 88.480469 C 60.25 88.003906 61 87.605469 61.789062 87.28125 C 62.578125 86.953125 63.390625 86.707031 64.226562 86.542969 C 65.0625 86.375 65.910156 86.292969 66.761719 86.292969 L 120.324219 86.292969 C 121.964844 89.851562 123.199219 93.546875 124.035156 97.375 C 124.867188 101.203125 125.277344 105.078125 125.261719 108.996094 Z M 125.261719 108.996094 " fill-opacity="1" fill-rule="nonzero"/><g clip-path="url(#708526e4ee)"><path fill="#f3f3f3" d="M 203.261719 125.214844 L 203.261719 254.957031 C 203.261719 255.382812 203.222656 255.804688 203.140625 256.222656 C 203.054688 256.640625 202.933594 257.046875 202.769531 257.441406 C 202.605469 257.832031 202.40625 258.207031 202.167969 258.5625 C 201.929688 258.914062 201.660156 259.242188 201.359375 259.542969 C 201.058594 259.84375 200.730469 260.113281 200.375 260.351562 C 200.019531 260.585938 199.644531 260.789062 199.25 260.949219 C 198.855469 261.113281 198.449219 261.238281 198.03125 261.320312 C 197.613281 261.402344 197.191406 261.445312 196.761719 261.445312 L 66.761719 261.445312 C 66.335938 261.445312 65.914062 261.402344 65.496094 261.320312 C 65.078125 261.238281 64.671875 261.113281 64.277344 260.949219 C 63.882812 260.789062 63.507812 260.585938 63.152344 260.351562 C 62.796875 260.113281 62.46875 259.84375 62.167969 259.542969 C 61.863281 259.242188 61.59375 258.914062 61.359375 258.5625 C 61.121094 258.207031 60.921875 257.832031 60.757812 257.441406 C 60.59375 257.046875 60.472656 256.640625 60.386719 256.222656 C 60.304688 255.804688 60.261719 255.382812 60.261719 254.957031 L 60.261719 99.265625 C 60.261719 98.839844 60.304688 98.417969 60.386719 98 C 60.472656 97.582031 60.59375 97.175781 60.757812 96.785156 C 60.921875 96.390625 61.121094 96.015625 61.359375 95.664062 C 61.59375 95.308594 61.863281 94.980469 62.167969 94.679688 C 62.46875 94.378906 62.796875 94.109375 63.152344 93.871094 C 63.507812 93.636719 63.882812 93.4375 64.277344 93.273438 C 64.671875 93.109375 65.078125 92.988281 65.496094 92.902344 C 65.914062 92.820312 66.335938 92.78125 66.761719 92.78125 L 170.761719 92.78125 Z M 203.261719 125.214844 " fill-opacity="1" fill-rule="nonzero"/></g><path fill="#d9d9d9" d="M 203.261719 125.214844 L 177.261719 125.214844 C 176.835938 125.214844 176.414062 125.171875 175.996094 125.089844 C 175.578125 125.007812 175.171875 124.882812 174.777344 124.722656 C 174.382812 124.558594 174.007812 124.359375 173.652344 124.121094 C 173.296875 123.886719 172.96875 123.617188 172.667969 123.316406 C 172.367188 123.015625 172.097656 122.6875 171.859375 122.332031 C 171.621094 121.976562 171.421875 121.605469 171.257812 121.210938 C 171.09375 120.816406 170.972656 120.410156 170.886719 119.992188 C 170.804688 119.574219 170.761719 119.152344 170.761719 118.726562 L 170.761719 92.78125 Z M 203.261719 125.214844 " fill-opacity="1" fill-rule="nonzero"/><path fill="#d9d9d9" d="M 60.261719 183.597656 L 203.261719 183.597656 L 203.261719 248.46875 L 60.261719 248.46875 Z M 60.261719 183.597656 " fill-opacity="1" fill-rule="nonzero"/><g clip-path="url(#8c6ccb20c9)"><path fill="#50d9d7" d="M 53.761719 190.085938 L 209.761719 190.085938 C 210.191406 190.085938 210.613281 190.128906 211.03125 190.210938 C 211.449219 190.292969 211.855469 190.417969 212.25 190.578125 C 212.644531 190.742188 213.019531 190.941406 213.375 191.179688 C 213.730469 191.414062 214.058594 191.683594 214.359375 191.984375 C 214.660156 192.289062 214.929688 192.613281 215.167969 192.96875 C 215.40625 193.324219 215.605469 193.695312 215.769531 194.089844 C 215.933594 194.484375 216.054688 194.890625 216.140625 195.308594 C 216.222656 195.726562 216.261719 196.148438 216.261719 196.574219 L 216.261719 235.496094 C 216.261719 235.921875 216.222656 236.34375 216.140625 236.761719 C 216.054688 237.179688 215.933594 237.585938 215.769531 237.976562 C 215.605469 238.371094 215.40625 238.746094 215.167969 239.101562 C 214.929688 239.453125 214.660156 239.78125 214.359375 240.082031 C 214.058594 240.382812 213.730469 240.652344 213.375 240.890625 C 213.019531 241.125 212.644531 241.324219 212.25 241.488281 C 211.855469 241.652344 211.449219 241.773438 211.03125 241.859375 C 210.613281 241.941406 210.191406 241.984375 209.761719 241.984375 L 47.261719 241.984375 L 47.261719 196.574219 C 47.261719 196.148438 47.304688 195.726562 47.386719 195.308594 C 47.472656 194.890625 47.59375 194.484375 47.757812 194.089844 C 47.921875 193.695312 48.121094 193.324219 48.359375 192.96875 C 48.59375 192.613281 48.863281 192.289062 49.167969 191.984375 C 49.46875 191.683594 49.796875 191.414062 50.152344 191.179688 C 50.507812 190.941406 50.882812 190.742188 51.277344 190.578125 C 51.667969 190.417969 52.078125 190.292969 52.496094 190.210938 C 52.914062 190.128906 53.335938 190.085938 53.761719 190.085938 Z M 53.761719 190.085938 " fill-opacity="1" fill-rule="nonzero"/></g><path fill="#00bebd" d="M 47.261719 241.984375 L 60.261719 254.957031 L 60.261719 241.984375 Z M 47.261719 241.984375 " fill-opacity="1" fill-rule="nonzero"/><path fill="#00bebd" d="M 76.511719 232.253906 C 76.082031 232.253906 75.667969 232.167969 75.269531 232.003906 C 74.871094 231.839844 74.519531 231.605469 74.214844 231.300781 C 73.910156 230.996094 73.675781 230.648438 73.511719 230.25 C 73.34375 229.851562 73.261719 229.4375 73.261719 229.007812 L 73.261719 203.058594 C 73.261719 202.628906 73.34375 202.214844 73.511719 201.820312 C 73.675781 201.421875 73.910156 201.070312 74.214844 200.765625 C 74.519531 200.460938 74.871094 200.226562 75.269531 200.0625 C 75.667969 199.898438 76.082031 199.816406 76.511719 199.816406 C 76.945312 199.816406 77.359375 199.898438 77.757812 200.0625 C 78.15625 200.226562 78.507812 200.460938 78.8125 200.765625 C 79.117188 201.070312 79.351562 201.421875 79.515625 201.820312 C 79.679688 202.214844 79.761719 202.628906 79.761719 203.058594 L 79.761719 229.007812 C 79.761719 229.4375 79.679688 229.851562 79.515625 230.25 C 79.351562 230.648438 79.117188 230.996094 78.8125 231.300781 C 78.507812 231.605469 78.15625 231.839844 77.757812 232.003906 C 77.359375 232.167969 76.945312 232.253906 76.511719 232.253906 Z M 76.511719 232.253906 " fill-opacity="1" fill-rule="nonzero"/><path fill="#00bebd" d="M 96.011719 232.253906 C 95.582031 232.253906 95.167969 232.167969 94.769531 232.003906 C 94.371094 231.839844 94.019531 231.605469 93.714844 231.300781 C 93.410156 230.996094 93.175781 230.648438 93.011719 230.25 C 92.84375 229.851562 92.761719 229.4375 92.761719 229.007812 L 92.761719 203.058594 C 92.761719 202.628906 92.84375 202.214844 93.011719 201.820312 C 93.175781 201.421875 93.410156 201.070312 93.714844 200.765625 C 94.019531 200.460938 94.371094 200.226562 94.769531 200.0625 C 95.167969 199.898438 95.582031 199.816406 96.011719 199.816406 C 96.445312 199.816406 96.859375 199.898438 97.257812 200.0625 C 97.65625 200.226562 98.007812 200.460938 98.3125 200.765625 C 98.617188 201.070312 98.851562 201.421875 99.015625 201.820312 C 99.179688 202.214844 99.261719 202.628906 99.261719 203.058594 L 99.261719 229.007812 C 99.261719 229.4375 99.179688 229.851562 99.015625 230.25 C 98.851562 230.648438 98.617188 230.996094 98.3125 231.300781 C 98.007812 231.605469 97.65625 231.839844 97.257812 232.003906 C 96.859375 232.167969 96.445312 232.253906 96.011719 232.253906 Z M 96.011719 232.253906 " fill-opacity="1" fill-rule="nonzero"/><path fill="#00bebd" d="M 96.011719 219.277344 L 76.511719 219.277344 C 76.082031 219.277344 75.667969 219.195312 75.269531 219.03125 C 74.871094 218.867188 74.519531 218.632812 74.214844 218.328125 C 73.910156 218.023438 73.675781 217.671875 73.511719 217.277344 C 73.34375 216.878906 73.261719 216.464844 73.261719 216.035156 C 73.261719 215.605469 73.34375 215.191406 73.511719 214.792969 C 73.675781 214.394531 73.910156 214.046875 74.214844 213.742188 C 74.519531 213.4375 74.871094 213.203125 75.269531 213.039062 C 75.667969 212.875 76.082031 212.789062 76.511719 212.789062 L 96.011719 212.789062 C 96.445312 212.789062 96.859375 212.875 97.257812 213.039062 C 97.65625 213.203125 98.007812 213.4375 98.3125 213.742188 C 98.617188 214.046875 98.851562 214.394531 99.015625 214.792969 C 99.179688 215.191406 99.261719 215.605469 99.261719 216.035156 C 99.261719 216.464844 99.179688 216.878906 99.015625 217.277344 C 98.851562 217.671875 98.617188 218.023438 98.3125 218.328125 C 98.007812 218.632812 97.65625 218.867188 97.257812 219.03125 C 96.859375 219.195312 96.445312 219.277344 96.011719 219.277344 Z M 96.011719 219.277344 " fill-opacity="1" fill-rule="nonzero"/><path fill="#00bebd" d="M 128.511719 206.304688 L 109.011719 206.304688 C 108.582031 206.304688 108.167969 206.222656 107.769531 206.058594 C 107.371094 205.890625 107.019531 205.65625 106.714844 205.355469 C 106.410156 205.050781 106.175781 204.699219 106.011719 204.300781 C 105.84375 203.902344 105.761719 203.492188 105.761719 203.058594 C 105.761719 202.628906 105.84375 202.214844 106.011719 201.820312 C 106.175781 201.421875 106.410156 201.070312 106.714844 200.765625 C 107.019531 200.460938 107.371094 200.226562 107.769531 200.0625 C 108.167969 199.898438 108.582031 199.816406 109.011719 199.816406 L 128.511719 199.816406 C 128.945312 199.816406 129.359375 199.898438 129.757812 200.0625 C 130.15625 200.226562 130.507812 200.460938 130.8125 200.765625 C 131.117188 201.070312 131.351562 201.421875 131.515625 201.820312 C 131.679688 202.214844 131.761719 202.628906 131.761719 203.058594 C 131.761719 203.492188 131.679688 203.902344 131.515625 204.300781 C 131.351562 204.699219 131.117188 205.050781 130.8125 205.355469 C 130.507812 205.65625 130.15625 205.890625 129.757812 206.058594 C 129.359375 206.222656 128.945312 206.304688 128.511719 206.304688 Z M 128.511719 206.304688 " fill-opacity="1" fill-rule="nonzero"/><path fill="#00bebd" d="M 118.761719 232.253906 C 118.332031 232.253906 117.917969 232.167969 117.519531 232.003906 C 117.121094 231.839844 116.769531 231.605469 116.464844 231.300781 C 116.160156 230.996094 115.925781 230.648438 115.761719 230.25 C 115.597656 229.851562 115.511719 229.4375 115.511719 229.007812 L 115.511719 203.058594 C 115.511719 202.628906 115.597656 202.214844 115.761719 201.820312 C 115.925781 201.421875 116.160156 201.070312 116.464844 200.765625 C 116.769531 200.460938 117.121094 200.226562 117.519531 200.0625 C 117.917969 199.898438 118.332031 199.816406 118.761719 199.816406 C 119.195312 199.816406 119.609375 199.898438 120.007812 200.0625 C 120.40625 200.226562 120.757812 200.460938 121.0625 200.765625 C 121.367188 201.070312 121.601562 201.421875 121.765625 201.820312 C 121.929688 202.214844 122.011719 202.628906 122.011719 203.058594 L 122.011719 229.007812 C 122.011719 229.4375 121.929688 229.851562 121.765625 230.25 C 121.601562 230.648438 121.367188 230.996094 121.0625 231.300781 C 120.757812 231.605469 120.40625 231.839844 120.007812 232.003906 C 119.609375 232.167969 119.195312 232.253906 118.761719 232.253906 Z M 118.761719 232.253906 " fill-opacity="1" fill-rule="nonzero"/><path fill="#00bebd" d="M 161.011719 232.253906 C 160.582031 232.253906 160.167969 232.167969 159.769531 232.003906 C 159.371094 231.839844 159.019531 231.605469 158.714844 231.300781 C 158.410156 230.996094 158.175781 230.648438 158.011719 230.25 C 157.847656 229.851562 157.761719 229.4375 157.761719 229.007812 L 157.761719 210.878906 L 153.570312 215.09375 C 153.265625 215.402344 152.914062 215.636719 152.511719 215.804688 C 152.113281 215.96875 151.695312 216.054688 151.261719 216.054688 C 150.832031 216.054688 150.414062 215.96875 150.011719 215.804688 C 149.613281 215.636719 149.261719 215.402344 148.957031 215.09375 L 144.761719 210.878906 L 144.761719 229.007812 C 144.761719 229.4375 144.679688 229.851562 144.515625 230.25 C 144.351562 230.648438 144.117188 230.996094 143.8125 231.300781 C 143.507812 231.605469 143.15625 231.839844 142.757812 232.003906 C 142.359375 232.167969 141.945312 232.253906 141.511719 232.253906 C 141.082031 232.253906 140.667969 232.167969 140.269531 232.003906 C 139.871094 231.839844 139.519531 231.605469 139.214844 231.300781 C 138.910156 230.996094 138.675781 230.648438 138.511719 230.25 C 138.347656 229.851562 138.261719 229.4375 138.261719 229.007812 L 138.261719 203.058594 C 138.257812 202.402344 138.441406 201.796875 138.804688 201.25 C 139.171875 200.699219 139.65625 200.296875 140.265625 200.046875 C 140.875 199.792969 141.503906 199.730469 142.152344 199.859375 C 142.800781 199.992188 143.355469 200.289062 143.820312 200.757812 L 151.261719 208.21875 L 158.707031 200.757812 C 159.171875 200.289062 159.726562 199.992188 160.375 199.859375 C 161.023438 199.730469 161.648438 199.792969 162.257812 200.046875 C 162.871094 200.296875 163.355469 200.699219 163.722656 201.25 C 164.085938 201.796875 164.265625 202.402344 164.261719 203.058594 L 164.261719 229.007812 C 164.261719 229.4375 164.179688 229.851562 164.015625 230.25 C 163.851562 230.648438 163.617188 230.996094 163.3125 231.300781 C 163.007812 231.605469 162.65625 231.839844 162.257812 232.003906 C 161.859375 232.167969 161.445312 232.253906 161.011719 232.253906 Z M 161.011719 232.253906 " fill-opacity="1" fill-rule="nonzero"/><path fill="#00bebd" d="M 187.011719 232.253906 L 174.011719 232.253906 C 173.582031 232.253906 173.167969 232.167969 172.769531 232.003906 C 172.371094 231.839844 172.019531 231.605469 171.714844 231.300781 C 171.410156 230.996094 171.175781 230.648438 171.011719 230.25 C 170.847656 229.851562 170.761719 229.4375 170.761719 229.007812 L 170.761719 203.058594 C 170.761719 202.628906 170.847656 202.214844 171.011719 201.820312 C 171.175781 201.421875 171.410156 201.070312 171.714844 200.765625 C 172.019531 200.460938 172.371094 200.226562 172.769531 200.0625 C 173.167969 199.898438 173.582031 199.816406 174.011719 199.816406 C 174.445312 199.816406 174.859375 199.898438 175.257812 200.0625 C 175.65625 200.226562 176.007812 200.460938 176.3125 200.765625 C 176.617188 201.070312 176.851562 201.421875 177.015625 201.820312 C 177.179688 202.214844 177.261719 202.628906 177.261719 203.058594 L 177.261719 225.765625 L 187.011719 225.765625 C 187.445312 225.765625 187.859375 225.847656 188.257812 226.011719 C 188.65625 226.175781 189.007812 226.410156 189.3125 226.714844 C 189.617188 227.019531 189.851562 227.371094 190.015625 227.765625 C 190.179688 228.164062 190.261719 228.578125 190.261719 229.007812 C 190.261719 229.4375 190.179688 229.851562 190.015625 230.25 C 189.851562 230.648438 189.617188 230.996094 189.3125 231.300781 C 189.007812 231.605469 188.65625 231.839844 188.257812 232.003906 C 187.859375 232.167969 187.445312 232.253906 187.011719 232.253906 Z M 187.011719 232.253906 " fill-opacity="1" fill-rule="nonzero"/><path fill="#ffac00" d="M 86.261719 141.433594 C 85.75 141.433594 85.265625 141.320312 84.808594 141.089844 C 84.351562 140.863281 83.96875 140.542969 83.664062 140.136719 L 73.914062 127.160156 C 73.703125 126.878906 73.542969 126.574219 73.429688 126.242188 C 73.320312 125.90625 73.261719 125.566406 73.261719 125.214844 C 73.261719 124.863281 73.320312 124.523438 73.429688 124.1875 C 73.542969 123.855469 73.703125 123.550781 73.914062 123.269531 L 83.664062 110.292969 C 83.921875 109.949219 84.238281 109.667969 84.605469 109.449219 C 84.976562 109.230469 85.375 109.089844 85.804688 109.03125 C 86.230469 108.96875 86.652344 108.992188 87.070312 109.097656 C 87.488281 109.207031 87.867188 109.386719 88.214844 109.644531 C 88.558594 109.902344 88.839844 110.21875 89.058594 110.589844 C 89.277344 110.957031 89.417969 111.355469 89.480469 111.78125 C 89.542969 112.207031 89.519531 112.628906 89.410156 113.046875 C 89.304688 113.460938 89.121094 113.84375 88.863281 114.1875 L 80.574219 125.214844 L 88.863281 136.242188 C 89.234375 136.734375 89.445312 137.285156 89.5 137.898438 C 89.554688 138.507812 89.445312 139.089844 89.171875 139.640625 C 88.894531 140.1875 88.496094 140.625 87.972656 140.949219 C 87.449219 141.269531 86.878906 141.433594 86.261719 141.433594 Z M 86.261719 141.433594 " fill-opacity="1" fill-rule="nonzero"/><path fill="#ffac00" d="M 118.761719 141.433594 C 118.101562 141.4375 117.496094 141.257812 116.949219 140.890625 C 116.398438 140.527344 115.996094 140.042969 115.742188 139.433594 C 115.488281 138.824219 115.429688 138.195312 115.558594 137.550781 C 115.6875 136.90625 115.988281 136.351562 116.457031 135.886719 L 127.3125 125.214844 L 117.949219 114.542969 C 117.6875 114.21875 117.496094 113.855469 117.375 113.457031 C 117.25 113.054688 117.207031 112.648438 117.242188 112.230469 C 117.28125 111.816406 117.390625 111.421875 117.582031 111.046875 C 117.769531 110.675781 118.019531 110.351562 118.335938 110.074219 C 118.648438 109.796875 119.003906 109.589844 119.398438 109.449219 C 119.792969 109.3125 120.199219 109.25 120.617188 109.269531 C 121.035156 109.285156 121.4375 109.378906 121.816406 109.550781 C 122.199219 109.722656 122.535156 109.960938 122.824219 110.261719 L 134.199219 123.238281 C 134.484375 123.539062 134.703125 123.878906 134.855469 124.261719 C 135.007812 124.648438 135.082031 125.046875 135.082031 125.457031 C 135.082031 125.871094 135.007812 126.269531 134.855469 126.652344 C 134.703125 127.035156 134.484375 127.378906 134.199219 127.679688 L 121.199219 140.652344 C 120.5 141.261719 119.6875 141.519531 118.761719 141.433594 Z M 118.761719 141.433594 " fill-opacity="1" fill-rule="nonzero"/><path fill="#ffac00" d="M 99.261719 144.675781 C 99.019531 144.679688 98.777344 144.660156 98.539062 144.609375 C 98.300781 144.5625 98.070312 144.484375 97.847656 144.382812 C 97.628906 144.285156 97.417969 144.160156 97.226562 144.011719 C 97.03125 143.863281 96.855469 143.695312 96.699219 143.511719 C 96.542969 143.324219 96.410156 143.121094 96.300781 142.902344 C 96.191406 142.6875 96.105469 142.460938 96.046875 142.226562 C 95.984375 141.988281 95.953125 141.75 95.949219 141.507812 C 95.941406 141.261719 95.964844 141.023438 96.011719 140.785156 L 102.511719 108.347656 C 102.597656 107.917969 102.765625 107.519531 103.007812 107.15625 C 103.253906 106.792969 103.558594 106.488281 103.925781 106.246094 C 104.289062 106 104.6875 105.835938 105.121094 105.753906 C 105.550781 105.667969 105.980469 105.667969 106.414062 105.753906 C 106.84375 105.839844 107.242188 106.003906 107.609375 106.25 C 107.972656 106.492188 108.277344 106.796875 108.519531 107.164062 C 108.765625 107.527344 108.929688 107.925781 109.015625 108.355469 C 109.101562 108.785156 109.097656 109.214844 109.011719 109.644531 L 102.511719 142.082031 C 102.4375 142.453125 102.300781 142.800781 102.101562 143.125 C 101.902344 143.449219 101.65625 143.730469 101.359375 143.964844 C 101.0625 144.203125 100.734375 144.382812 100.375 144.503906 C 100.011719 144.625 99.644531 144.683594 99.261719 144.675781 Z M 99.261719 144.675781 " fill-opacity="1" fill-rule="nonzero"/><path fill="#d9d9d9" d="M 73.261719 151.164062 L 99.261719 151.164062 L 99.261719 157.652344 L 73.261719 157.652344 Z M 73.261719 151.164062 " fill-opacity="1" fill-rule="nonzero"/><path fill="#d9d9d9" d="M 73.261719 164.136719 L 99.261719 164.136719 L 99.261719 170.625 L 73.261719 170.625 Z M 73.261719 164.136719 " fill-opacity="1" fill-rule="nonzero"/><path fill="#d9d9d9" d="M 112.261719 151.164062 L 164.261719 151.164062 L 164.261719 157.652344 L 112.261719 157.652344 Z M 112.261719 151.164062 " fill-opacity="1" fill-rule="nonzero"/><path fill="#d9d9d9" d="M 112.261719 164.136719 L 164.261719 164.136719 L 164.261719 170.625 L 112.261719 170.625 Z M 112.261719 164.136719 " fill-opacity="1" fill-rule="nonzero"/></svg>