<svg xmlns="http://www.w3.org/2000/svg" xmlns:xlink="http://www.w3.org/1999/xlink" width="500" zoomAndPan="magnify" viewBox="0 0 375 374.999991" height="500" preserveAspectRatio="xMidYMid meet" version="1.0"><defs><clipPath id="03bffbea1d"><path d="M 254 37.5 L 260 37.5 L 260 52 L 254 52 Z M 254 37.5 " clip-rule="nonzero"/></clipPath><clipPath id="b8f7a57ca8"><path d="M 273 37.5 L 279 37.5 L 279 52 L 273 52 Z M 273 37.5 " clip-rule="nonzero"/></clipPath><clipPath id="ba21605208"><path d="M 293 37.5 L 299 37.5 L 299 52 L 293 52 Z M 293 37.5 " clip-rule="nonzero"/></clipPath><clipPath id="935e0bc522"><path d="M 313 37.5 L 318 37.5 L 318 52 L 313 52 Z M 313 37.5 " clip-rule="nonzero"/></clipPath><clipPath id="1bb0048954"><path d="M 338 293 L 348.820312 293 L 348.820312 375 L 338 375 Z M 338 293 " clip-rule="nonzero"/></clipPath><clipPath id="8990d7d81b"><path d="M 11.320312 270 L 144 270 L 144 340 L 11.320312 340 Z M 11.320312 270 " clip-rule="nonzero"/></clipPath></defs><path fill="#fa5879" d="M 319.363281 44.199219 L 252.328125 44.199219 C 245.417969 44.199219 239.816406 49.800781 239.816406 56.710938 L 239.816406 71.003906 L 331.875 71.003906 L 331.875 56.710938 C 331.875 49.800781 326.273438 44.199219 319.363281 44.199219 Z M 319.363281 44.199219 " fill-opacity="1" fill-rule="nonzero"/><path fill="#ffccba" d="M 252.328125 138.910156 L 319.363281 138.910156 C 326.273438 138.910156 331.875 133.308594 331.875 126.398438 L 331.875 71.003906 L 239.816406 71.003906 L 239.816406 126.398438 C 239.816406 133.308594 245.417969 138.910156 252.328125 138.910156 Z M 252.328125 138.910156 " fill-opacity="1" fill-rule="nonzero"/><path fill="#ffffff" d="M 252.328125 134.886719 C 245.417969 134.886719 239.816406 129.621094 239.816406 123.121094 L 239.816406 71.003906 L 331.875 71.003906 L 331.875 113.445312 L 310.203125 134.886719 Z M 252.328125 134.886719 " fill-opacity="1" fill-rule="nonzero"/><path fill="#fe8d00" d="M 331.875 113.445312 L 310.203125 134.886719 L 310.203125 118.257812 C 310.203125 115.597656 312.355469 113.445312 315.015625 113.445312 Z M 331.875 113.445312 " fill-opacity="1" fill-rule="nonzero"/><path fill="#ffccba" d="M 250.09375 85.097656 C 250.09375 84.222656 250.804688 83.511719 251.679688 83.511719 L 255.660156 83.511719 C 256.535156 83.511719 257.246094 84.222656 257.246094 85.097656 L 257.246094 89.078125 C 257.246094 89.953125 256.535156 90.660156 255.660156 90.660156 L 251.679688 90.660156 C 250.804688 90.660156 250.09375 89.953125 250.09375 89.078125 Z M 250.09375 85.097656 " fill-opacity="1" fill-rule="nonzero"/><path fill="#ffccba" d="M 260.820312 85.097656 C 260.820312 84.222656 261.527344 83.511719 262.402344 83.511719 L 266.382812 83.511719 C 267.261719 83.511719 267.96875 84.222656 267.96875 85.097656 L 267.96875 89.078125 C 267.96875 89.953125 267.261719 90.660156 266.382812 90.660156 L 262.402344 90.660156 C 261.527344 90.660156 260.820312 89.953125 260.820312 89.078125 Z M 260.820312 85.097656 " fill-opacity="1" fill-rule="nonzero"/><path fill="#ffccba" d="M 271.546875 85.097656 C 271.546875 84.222656 272.253906 83.511719 273.128906 83.511719 L 277.109375 83.511719 C 277.984375 83.511719 278.695312 84.222656 278.695312 85.097656 L 278.695312 89.078125 C 278.695312 89.953125 277.984375 90.660156 277.109375 90.660156 L 273.128906 90.660156 C 272.253906 90.660156 271.546875 89.953125 271.546875 89.078125 Z M 271.546875 85.097656 " fill-opacity="1" fill-rule="nonzero"/><path fill="#ffccba" d="M 282.269531 85.097656 C 282.269531 84.222656 282.980469 83.511719 283.855469 83.511719 L 287.835938 83.511719 C 288.710938 83.511719 289.421875 84.222656 289.421875 85.097656 L 289.421875 89.078125 C 289.421875 89.953125 288.710938 90.660156 287.835938 90.660156 L 283.855469 90.660156 C 282.980469 90.660156 282.269531 89.953125 282.269531 89.078125 Z M 282.269531 85.097656 " fill-opacity="1" fill-rule="nonzero"/><path fill="#ffccba" d="M 282.269531 75.269531 C 282.269531 74.394531 282.980469 73.683594 283.855469 73.683594 L 287.835938 73.683594 C 288.710938 73.683594 289.421875 74.394531 289.421875 75.269531 L 289.421875 79.25 C 289.421875 80.125 288.710938 80.832031 287.835938 80.832031 L 283.855469 80.832031 C 282.980469 80.832031 282.269531 80.125 282.269531 79.25 Z M 282.269531 75.269531 " fill-opacity="1" fill-rule="nonzero"/><path fill="#ffccba" d="M 292.996094 85.097656 C 292.996094 84.222656 293.707031 83.511719 294.582031 83.511719 L 298.5625 83.511719 C 299.4375 83.511719 300.148438 84.222656 300.148438 85.097656 L 300.148438 89.078125 C 300.148438 89.953125 299.4375 90.660156 298.5625 90.660156 L 294.582031 90.660156 C 293.707031 90.660156 292.996094 89.953125 292.996094 89.078125 Z M 292.996094 85.097656 " fill-opacity="1" fill-rule="nonzero"/><path fill="#ffccba" d="M 292.996094 75.269531 C 292.996094 74.394531 293.707031 73.683594 294.582031 73.683594 L 298.5625 73.683594 C 299.4375 73.683594 300.148438 74.394531 300.148438 75.269531 L 300.148438 79.25 C 300.148438 80.125 299.4375 80.832031 298.5625 80.832031 L 294.582031 80.832031 C 293.707031 80.832031 292.996094 80.125 292.996094 79.25 Z M 292.996094 75.269531 " fill-opacity="1" fill-rule="nonzero"/><path fill="#ffccba" d="M 303.722656 85.097656 C 303.722656 84.222656 304.433594 83.511719 305.308594 83.511719 L 309.289062 83.511719 C 310.164062 83.511719 310.875 84.222656 310.875 85.097656 L 310.875 89.078125 C 310.875 89.953125 310.164062 90.660156 309.289062 90.660156 L 305.308594 90.660156 C 304.433594 90.660156 303.722656 89.953125 303.722656 89.078125 Z M 303.722656 85.097656 " fill-opacity="1" fill-rule="nonzero"/><path fill="#ffccba" d="M 303.722656 75.269531 C 303.722656 74.394531 304.433594 73.683594 305.308594 73.683594 L 309.289062 73.683594 C 310.164062 73.683594 310.875 74.394531 310.875 75.269531 L 310.875 79.25 C 310.875 80.125 310.164062 80.832031 309.289062 80.832031 L 305.308594 80.832031 C 304.433594 80.832031 303.722656 80.125 303.722656 79.25 Z M 303.722656 75.269531 " fill-opacity="1" fill-rule="nonzero"/><path fill="#fa5879" d="M 314.445312 85.097656 C 314.445312 84.222656 315.15625 83.511719 316.03125 83.511719 L 320.011719 83.511719 C 320.886719 83.511719 321.597656 84.222656 321.597656 85.097656 L 321.597656 89.078125 C 321.597656 89.953125 320.886719 90.660156 320.011719 90.660156 L 316.03125 90.660156 C 315.15625 90.660156 314.445312 89.953125 314.445312 89.078125 Z M 314.445312 85.097656 " fill-opacity="1" fill-rule="nonzero"/><path fill="#fa5879" d="M 314.445312 75.269531 C 314.445312 74.394531 315.15625 73.683594 316.03125 73.683594 L 320.011719 73.683594 C 320.886719 73.683594 321.597656 74.394531 321.597656 75.269531 L 321.597656 79.25 C 321.597656 80.125 320.886719 80.832031 320.011719 80.832031 L 316.03125 80.832031 C 315.15625 80.832031 314.445312 80.125 314.445312 79.25 Z M 314.445312 75.269531 " fill-opacity="1" fill-rule="nonzero"/><path fill="#ffccba" d="M 250.09375 105.203125 C 250.09375 104.324219 250.804688 103.617188 251.679688 103.617188 L 255.660156 103.617188 C 256.535156 103.617188 257.246094 104.324219 257.246094 105.203125 L 257.246094 109.179688 C 257.246094 110.054688 256.535156 110.765625 255.660156 110.765625 L 251.679688 110.765625 C 250.804688 110.765625 250.09375 110.054688 250.09375 109.179688 Z M 250.09375 105.203125 " fill-opacity="1" fill-rule="nonzero"/><path fill="#ffccba" d="M 260.820312 105.203125 C 260.820312 104.324219 261.527344 103.617188 262.402344 103.617188 L 266.382812 103.617188 C 267.261719 103.617188 267.96875 104.324219 267.96875 105.203125 L 267.96875 109.179688 C 267.96875 110.054688 267.261719 110.765625 266.382812 110.765625 L 262.402344 110.765625 C 261.527344 110.765625 260.820312 110.054688 260.820312 109.179688 Z M 260.820312 105.203125 " fill-opacity="1" fill-rule="nonzero"/><path fill="#ffccba" d="M 271.546875 105.203125 C 271.546875 104.324219 272.253906 103.617188 273.128906 103.617188 L 277.109375 103.617188 C 277.984375 103.617188 278.695312 104.324219 278.695312 105.203125 L 278.695312 109.179688 C 278.695312 110.054688 277.984375 110.765625 277.109375 110.765625 L 273.128906 110.765625 C 272.253906 110.765625 271.546875 110.054688 271.546875 109.179688 Z M 271.546875 105.203125 " fill-opacity="1" fill-rule="nonzero"/><path fill="#ffccba" d="M 282.269531 105.203125 C 282.269531 104.324219 282.980469 103.617188 283.855469 103.617188 L 287.835938 103.617188 C 288.710938 103.617188 289.421875 104.324219 289.421875 105.203125 L 289.421875 109.179688 C 289.421875 110.054688 288.710938 110.765625 287.835938 110.765625 L 283.855469 110.765625 C 282.980469 110.765625 282.269531 110.054688 282.269531 109.179688 Z M 282.269531 105.203125 " fill-opacity="1" fill-rule="nonzero"/><path fill="#ffccba" d="M 292.996094 105.203125 C 292.996094 104.324219 293.707031 103.617188 294.582031 103.617188 L 298.5625 103.617188 C 299.4375 103.617188 300.148438 104.324219 300.148438 105.203125 L 300.148438 109.179688 C 300.148438 110.054688 299.4375 110.765625 298.5625 110.765625 L 294.582031 110.765625 C 293.707031 110.765625 292.996094 110.054688 292.996094 109.179688 Z M 292.996094 105.203125 " fill-opacity="1" fill-rule="nonzero"/><path fill="#ffccba" d="M 303.722656 105.203125 C 303.722656 104.324219 304.433594 103.617188 305.308594 103.617188 L 309.289062 103.617188 C 310.164062 103.617188 310.875 104.324219 310.875 105.203125 L 310.875 109.179688 C 310.875 110.054688 310.164062 110.765625 309.289062 110.765625 L 305.308594 110.765625 C 304.433594 110.765625 303.722656 110.054688 303.722656 109.179688 Z M 303.722656 105.203125 " fill-opacity="1" fill-rule="nonzero"/><path fill="#fa5879" d="M 314.445312 105.203125 C 314.445312 104.324219 315.15625 103.617188 316.03125 103.617188 L 320.011719 103.617188 C 320.886719 103.617188 321.597656 104.324219 321.597656 105.203125 L 321.597656 109.179688 C 321.597656 110.054688 320.886719 110.765625 320.011719 110.765625 L 316.03125 110.765625 C 315.15625 110.765625 314.445312 110.054688 314.445312 109.179688 Z M 314.445312 105.203125 " fill-opacity="1" fill-rule="nonzero"/><path fill="#ffccba" d="M 250.09375 95.371094 C 250.09375 94.496094 250.804688 93.789062 251.679688 93.789062 L 255.660156 93.789062 C 256.535156 93.789062 257.246094 94.496094 257.246094 95.371094 L 257.246094 99.351562 C 257.246094 100.226562 256.535156 100.9375 255.660156 100.9375 L 251.679688 100.9375 C 250.804688 100.9375 250.09375 100.226562 250.09375 99.351562 Z M 250.09375 95.371094 " fill-opacity="1" fill-rule="nonzero"/><path fill="#ffccba" d="M 260.820312 95.371094 C 260.820312 94.496094 261.527344 93.789062 262.402344 93.789062 L 266.382812 93.789062 C 267.261719 93.789062 267.96875 94.496094 267.96875 95.371094 L 267.96875 99.351562 C 267.96875 100.226562 267.261719 100.9375 266.382812 100.9375 L 262.402344 100.9375 C 261.527344 100.9375 260.820312 100.226562 260.820312 99.351562 Z M 260.820312 95.371094 " fill-opacity="1" fill-rule="nonzero"/><path fill="#ffccba" d="M 271.546875 95.371094 C 271.546875 94.496094 272.253906 93.789062 273.128906 93.789062 L 277.109375 93.789062 C 277.984375 93.789062 278.695312 94.496094 278.695312 95.371094 L 278.695312 99.351562 C 278.695312 100.226562 277.984375 100.9375 277.109375 100.9375 L 273.128906 100.9375 C 272.253906 100.9375 271.546875 100.226562 271.546875 99.351562 Z M 271.546875 95.371094 " fill-opacity="1" fill-rule="nonzero"/><path fill="#ffccba" d="M 282.269531 95.371094 C 282.269531 94.496094 282.980469 93.789062 283.855469 93.789062 L 287.835938 93.789062 C 288.710938 93.789062 289.421875 94.496094 289.421875 95.371094 L 289.421875 99.351562 C 289.421875 100.226562 288.710938 100.9375 287.835938 100.9375 L 283.855469 100.9375 C 282.980469 100.9375 282.269531 100.226562 282.269531 99.351562 Z M 282.269531 95.371094 " fill-opacity="1" fill-rule="nonzero"/><path fill="#ffccba" d="M 292.996094 95.371094 C 292.996094 94.496094 293.707031 93.789062 294.582031 93.789062 L 298.5625 93.789062 C 299.4375 93.789062 300.148438 94.496094 300.148438 95.371094 L 300.148438 99.351562 C 300.148438 100.226562 299.4375 100.9375 298.5625 100.9375 L 294.582031 100.9375 C 293.707031 100.9375 292.996094 100.226562 292.996094 99.351562 Z M 292.996094 95.371094 " fill-opacity="1" fill-rule="nonzero"/><path fill="#ffccba" d="M 303.722656 95.371094 C 303.722656 94.496094 304.433594 93.789062 305.308594 93.789062 L 309.289062 93.789062 C 310.164062 93.789062 310.875 94.496094 310.875 95.371094 L 310.875 99.351562 C 310.875 100.226562 310.164062 100.9375 309.289062 100.9375 L 305.308594 100.9375 C 304.433594 100.9375 303.722656 100.226562 303.722656 99.351562 Z M 303.722656 95.371094 " fill-opacity="1" fill-rule="nonzero"/><path fill="#fa5879" d="M 314.445312 95.371094 C 314.445312 94.496094 315.15625 93.789062 316.03125 93.789062 L 320.011719 93.789062 C 320.886719 93.789062 321.597656 94.496094 321.597656 95.371094 L 321.597656 99.351562 C 321.597656 100.226562 320.886719 100.9375 320.011719 100.9375 L 316.03125 100.9375 C 315.15625 100.9375 314.445312 100.226562 314.445312 99.351562 Z M 314.445312 95.371094 " fill-opacity="1" fill-rule="nonzero"/><path fill="#ffccba" d="M 250.09375 115.476562 C 250.09375 114.601562 250.804688 113.890625 251.679688 113.890625 L 255.660156 113.890625 C 256.535156 113.890625 257.246094 114.601562 257.246094 115.476562 L 257.246094 119.453125 C 257.246094 120.328125 256.535156 121.039062 255.660156 121.039062 L 251.679688 121.039062 C 250.804688 121.039062 250.09375 120.328125 250.09375 119.453125 Z M 250.09375 115.476562 " fill-opacity="1" fill-rule="nonzero"/><path fill="#ffccba" d="M 260.820312 115.476562 C 260.820312 114.601562 261.527344 113.890625 262.402344 113.890625 L 266.382812 113.890625 C 267.261719 113.890625 267.96875 114.601562 267.96875 115.476562 L 267.96875 119.453125 C 267.96875 120.328125 267.261719 121.039062 266.382812 121.039062 L 262.402344 121.039062 C 261.527344 121.039062 260.820312 120.328125 260.820312 119.453125 Z M 260.820312 115.476562 " fill-opacity="1" fill-rule="nonzero"/><path fill="#ffccba" d="M 271.546875 115.476562 C 271.546875 114.601562 272.253906 113.890625 273.128906 113.890625 L 277.109375 113.890625 C 277.984375 113.890625 278.695312 114.601562 278.695312 115.476562 L 278.695312 119.453125 C 278.695312 120.328125 277.984375 121.039062 277.109375 121.039062 L 273.128906 121.039062 C 272.253906 121.039062 271.546875 120.328125 271.546875 119.453125 Z M 271.546875 115.476562 " fill-opacity="1" fill-rule="nonzero"/><path fill="#ffccba" d="M 282.269531 115.476562 C 282.269531 114.601562 282.980469 113.890625 283.855469 113.890625 L 287.835938 113.890625 C 288.710938 113.890625 289.421875 114.601562 289.421875 115.476562 L 289.421875 119.453125 C 289.421875 120.328125 288.710938 121.039062 287.835938 121.039062 L 283.855469 121.039062 C 282.980469 121.039062 282.269531 120.328125 282.269531 119.453125 Z M 282.269531 115.476562 " fill-opacity="1" fill-rule="nonzero"/><path fill="#ffccba" d="M 292.996094 115.476562 C 292.996094 114.601562 293.707031 113.890625 294.582031 113.890625 L 298.5625 113.890625 C 299.4375 113.890625 300.148438 114.601562 300.148438 115.476562 L 300.148438 119.453125 C 300.148438 120.328125 299.4375 121.039062 298.5625 121.039062 L 294.582031 121.039062 C 293.707031 121.039062 292.996094 120.328125 292.996094 119.453125 Z M 292.996094 115.476562 " fill-opacity="1" fill-rule="nonzero"/><path fill="#ffffff" d="M 261.265625 51.125 C 261.265625 52.234375 259.164062 53.136719 256.574219 53.136719 C 253.980469 53.136719 251.882812 52.234375 251.882812 51.125 C 251.882812 50.015625 253.980469 49.113281 256.574219 49.113281 C 259.164062 49.113281 261.265625 50.015625 261.265625 51.125 Z M 261.265625 51.125 " fill-opacity="1" fill-rule="nonzero"/><path fill="#ffffff" d="M 280.929688 51.125 C 280.929688 52.234375 278.828125 53.136719 276.238281 53.136719 C 273.644531 53.136719 271.546875 52.234375 271.546875 51.125 C 271.546875 50.015625 273.644531 49.113281 276.238281 49.113281 C 278.828125 49.113281 280.929688 50.015625 280.929688 51.125 Z M 280.929688 51.125 " fill-opacity="1" fill-rule="nonzero"/><path fill="#ffffff" d="M 301.039062 51.125 C 301.039062 52.234375 298.9375 53.136719 296.347656 53.136719 C 293.757812 53.136719 291.65625 52.234375 291.65625 51.125 C 291.65625 50.015625 293.757812 49.113281 296.347656 49.113281 C 298.9375 49.113281 301.039062 50.015625 301.039062 51.125 Z M 301.039062 51.125 " fill-opacity="1" fill-rule="nonzero"/><path fill="#ffffff" d="M 319.808594 51.125 C 319.808594 52.234375 317.707031 53.136719 315.117188 53.136719 C 312.523438 53.136719 310.425781 52.234375 310.425781 51.125 C 310.425781 50.015625 312.523438 49.113281 315.117188 49.113281 C 317.707031 49.113281 319.808594 50.015625 319.808594 51.125 Z M 319.808594 51.125 " fill-opacity="1" fill-rule="nonzero"/><g clip-path="url(#03bffbea1d)"><path fill="#3a3683" d="M 254.5625 39.734375 C 254.5625 38.5 255.566406 37.5 256.800781 37.5 C 258.035156 37.5 259.03125 38.5 259.03125 39.734375 L 259.03125 49.113281 C 259.03125 50.347656 258.035156 51.347656 256.800781 51.347656 C 255.566406 51.347656 254.5625 50.347656 254.5625 49.113281 Z M 254.5625 39.734375 " fill-opacity="1" fill-rule="nonzero"/></g><g clip-path="url(#b8f7a57ca8)"><path fill="#3a3683" d="M 273.777344 39.734375 C 273.777344 38.5 274.78125 37.5 276.015625 37.5 C 277.246094 37.5 278.25 38.5 278.25 39.734375 L 278.25 49.113281 C 278.25 50.347656 277.246094 51.347656 276.015625 51.347656 C 274.78125 51.347656 273.777344 50.347656 273.777344 49.113281 Z M 273.777344 39.734375 " fill-opacity="1" fill-rule="nonzero"/></g><g clip-path="url(#ba21605208)"><path fill="#3a3683" d="M 293.890625 39.734375 C 293.890625 38.5 294.890625 37.5 296.125 37.5 C 297.359375 37.5 298.359375 38.5 298.359375 39.734375 L 298.359375 49.113281 C 298.359375 50.347656 297.359375 51.347656 296.125 51.347656 C 294.890625 51.347656 293.890625 50.347656 293.890625 49.113281 Z M 293.890625 39.734375 " fill-opacity="1" fill-rule="nonzero"/></g><g clip-path="url(#935e0bc522)"><path fill="#3a3683" d="M 313.109375 39.734375 C 313.109375 38.5 314.109375 37.5 315.339844 37.5 C 316.574219 37.5 317.578125 38.5 317.578125 39.734375 L 317.578125 49.113281 C 317.578125 50.347656 316.574219 51.347656 315.339844 51.347656 C 314.109375 51.347656 313.109375 50.347656 313.109375 49.113281 Z M 313.109375 39.734375 " fill-opacity="1" fill-rule="nonzero"/></g><path fill="#8a86d3" d="M 338.519531 293.398438 L 250.542969 293.398438 L 250.542969 375 L 338.519531 375 Z M 338.519531 293.398438 " fill-opacity="1" fill-rule="nonzero"/><g clip-path="url(#1bb0048954)"><path fill="#2d3250" d="M 338.519531 293.398438 L 348.820312 299.722656 L 348.820312 375 L 338.519531 375 Z M 338.519531 293.398438 " fill-opacity="1" fill-rule="nonzero"/></g><path fill="#8a86d3" d="M 269.546875 340.164062 C 265.523438 327.339844 259.257812 310.410156 251.683594 297.011719 L 250.992188 297.402344 C 258.527344 310.730469 264.773438 327.597656 268.792969 340.402344 Z M 269.546875 340.164062 " fill-opacity="1" fill-rule="evenodd"/><path fill="#f29a77" d="M 281 174.488281 C 282.03125 172.820312 284.53125 170.363281 286.292969 173.871094 C 288.042969 177.351562 285.886719 179.429688 283.996094 180.570312 L 286.382812 181.808594 C 285.4375 189.664062 285.277344 193.640625 292.175781 195.808594 C 284.40625 205.40625 273.253906 205.152344 270.820312 194.011719 C 273.246094 194.75 272.371094 189.574219 272.371094 189.574219 C 267.867188 188.941406 265.449219 181.25 265.453125 173.527344 C 265.816406 173.503906 266.179688 173.4375 266.496094 173.355469 C 268.457031 175.441406 270.28125 174.640625 270.457031 173.910156 C 274.046875 176.769531 276.074219 172.4375 277.023438 170.304688 C 278.753906 172.359375 278.96875 172.886719 279.808594 176.808594 C 279.890625 176.445312 280.242188 175.46875 281 174.488281 Z M 281 174.488281 " fill-opacity="1" fill-rule="nonzero"/><path fill="#8c1a00" d="M 279.730469 177.386719 L 281.160156 183.984375 C 280.054688 186.265625 276.726562 190.621094 272.261719 189.800781 C 268.074219 188.941406 266.660156 184.191406 266.476562 181.917969 C 266.609375 182.753906 267.101562 183.921875 268.199219 185.191406 C 269.042969 183.964844 269.75 183.726562 272.722656 184.144531 C 274.976562 184.460938 277.886719 184.308594 278.988281 185.359375 C 279.257812 185.152344 279.496094 184.960938 279.699219 184.785156 Z M 279.730469 177.386719 " fill-opacity="1" fill-rule="nonzero"/><path fill="#8c1a00" d="M 286.292969 173.871094 C 284.53125 170.363281 282.03125 172.820312 281 174.488281 C 280.242188 175.46875 279.886719 176.445312 279.808594 176.808594 C 278.96875 172.886719 278.753906 172.359375 277.023438 170.304688 C 276.074219 172.4375 274.046875 176.769531 270.457031 173.910156 C 270.28125 174.640625 268.457031 175.441406 266.496094 173.355469 C 266.179688 173.4375 265.816406 173.503906 265.449219 173.527344 C 263.867188 173.621094 262.253906 172.832031 264.269531 168.515625 C 261.484375 165.179688 264.824219 158.402344 270.230469 160.070312 C 273.652344 155.480469 277.179688 155.386719 285.738281 159.304688 C 287.78125 159.59375 288.019531 161.585938 287.882812 162.550781 C 292.925781 163.710938 290.804688 171.109375 289.757812 173.90625 C 289.453125 174.730469 289.03125 174.929688 288.585938 174.78125 C 287.992188 176.453125 287.136719 178.902344 286.382812 181.808594 L 283.996094 180.570312 C 285.886719 179.429688 288.042969 177.351562 286.292969 173.871094 Z M 286.292969 173.871094 " fill-opacity="1" fill-rule="nonzero"/><path fill="#ffc928" d="M 333.367188 245.863281 C 335.347656 234.769531 325.105469 211.003906 317.179688 201.496094 C 313.027344 196.515625 301.621094 193.414062 291.757812 191.792969 C 287.003906 199.007812 275.828125 209.035156 269.171875 191.421875 C 262.296875 192.5625 255.042969 196.136719 244.15625 216.152344 C 239.679688 225.027344 250.941406 238.335938 259.539062 230.601562 C 259.429688 240.210938 258.46875 248.238281 255.695312 250.617188 C 252.921875 252.992188 255.695312 255.171875 254.902344 255.765625 C 250.464844 259.09375 250.542969 260.914062 253.714844 261.3125 C 261.113281 264.214844 276.757812 267.964844 297.367188 264.480469 C 299.746094 264.078125 310.046875 266.878906 312.425781 266.066406 C 315.535156 265 313.21875 263.292969 313.21875 261.707031 C 314.207031 259.085938 314.855469 255.917969 315.269531 252.871094 C 326.390625 254.589844 332.488281 250.769531 333.367188 245.863281 Z M 333.367188 245.863281 " fill-opacity="1" fill-rule="nonzero"/><path fill="#8c1a00" d="M 306.417969 250.617188 C 315.929688 244.183594 314.742188 229.925781 308.003906 229.925781 C 303.617188 229.925781 301.6875 251.25 306.417969 250.617188 Z M 306.417969 250.617188 " fill-opacity="1" fill-rule="nonzero"/><path fill="#2d3250" d="M 269.167969 191.425781 C 275.828125 209.035156 287 199.007812 291.757812 191.792969 C 290.152344 191.527344 287.449219 191.011719 285.914062 190.8125 C 278.382812 201.914062 273.925781 195.160156 272.523438 190.828125 C 271.632812 190.953125 269.902344 191.304688 269.167969 191.425781 Z M 269.167969 191.425781 " fill-opacity="1" fill-rule="nonzero"/><path fill="#f29a77" d="M 292.101562 233.464844 C 294.035156 232.46875 296.527344 231.808594 297.535156 231.601562 C 302.988281 233.203125 307.773438 231.585938 311.695312 231.898438 C 312.984375 233.664062 313.550781 236.421875 313.203125 239.390625 C 306.808594 239.761719 306.078125 242.9375 302.664062 240.597656 C 302.4375 242.054688 302.09375 243.933594 301.457031 243.390625 C 300.800781 242.828125 300.636719 240.578125 300.550781 239.046875 C 298.835938 237.6875 298.050781 237.882812 296.328125 237.496094 C 295.664062 239.167969 294.867188 242.976562 293.613281 242.460938 C 292.101562 241.839844 292.851562 236.253906 296.097656 234.703125 C 293.703125 235.164062 289.496094 237.707031 288.480469 237.1875 C 287.273438 236.566406 289.6875 234.703125 292.101562 233.464844 Z M 292.101562 233.464844 " fill-opacity="1" fill-rule="nonzero"/><path fill="#f29a77" d="M 221.039062 266.894531 L 219.015625 253.625 L 223.371094 252.292969 L 227.703125 264.054688 Z M 221.039062 266.894531 " fill-opacity="1" fill-rule="nonzero"/><path fill="#8c1a00" d="M 315.484375 229.527344 L 322.667969 229.527344 C 322.886719 229.527344 323.0625 229.707031 323.0625 229.925781 C 323.0625 230.144531 322.886719 230.320312 322.667969 230.320312 L 308.402344 230.320312 C 308.183594 230.320312 308.003906 230.144531 308.003906 229.925781 C 308.003906 229.707031 308.183594 229.527344 308.402344 229.527344 L 314.6875 229.527344 L 313.410156 219.671875 C 313.382812 219.457031 313.535156 219.257812 313.75 219.230469 C 313.96875 219.199219 314.167969 219.355469 314.195312 219.570312 Z M 306.417969 250.617188 C 306.347656 250.824219 306.457031 251.046875 306.667969 251.117188 C 309.628906 252.113281 312.359375 252.792969 314.847656 253.203125 C 315.0625 253.238281 315.265625 253.089844 315.296875 252.875 C 315.332031 252.65625 315.183594 252.453125 314.96875 252.417969 C 312.527344 252.019531 309.847656 251.351562 306.921875 250.367188 C 306.714844 250.300781 306.492188 250.410156 306.417969 250.617188 Z M 306.417969 250.617188 " fill-opacity="1" fill-rule="evenodd"/><path fill="#8c1a00" d="M 219.011719 253.625 C 217.796875 250.53125 216.445312 251.929688 215.921875 253.019531 L 189.515625 261.730469 L 204.574219 268.464844 L 215.921875 271.632812 L 221.035156 266.894531 Z M 219.011719 253.625 " fill-opacity="1" fill-rule="nonzero"/><path fill="#f29a77" d="M 226.46875 360.410156 L 215.125 353.230469 L 216.980469 349.070312 L 228.699219 353.519531 Z M 226.46875 360.410156 " fill-opacity="1" fill-rule="nonzero"/><path fill="#8a86d3" d="M 287.398438 213.378906 L 230.332031 210.210938 L 235.089844 248.238281 L 292.152344 251.410156 L 309.984375 252.398438 L 309.984375 248.238281 L 291.628906 247.21875 Z M 287.398438 213.378906 " fill-opacity="1" fill-rule="nonzero"/><path fill="#8c1a00" d="M 194.710938 358.664062 L 222.804688 371.230469 L 223.171875 371.394531 L 223.902344 368.953125 L 226.46875 360.410156 L 215.121094 353.230469 C 211.988281 352.117188 212.160156 354.054688 212.636719 355.164062 C 210.023438 355.085938 204.304688 356.75 198.878906 357.816406 C 197.292969 358.128906 195.851562 358.421875 194.710938 358.664062 Z M 194.710938 358.664062 " fill-opacity="1" fill-rule="nonzero"/><path fill="#2d3250" d="M 273.5 239.546875 C 286.496094 239.863281 306.390625 272.027344 313.523438 265.292969 C 313.523438 292.230469 311.9375 295.796875 291.332031 295.796875 C 287.527344 295.863281 263.265625 294.238281 251.609375 293.417969 C 250 305.976562 247.664062 309.058594 246.949219 310.847656 C 246.15625 312.828125 239.023438 336.199219 239.417969 340.558594 C 239.734375 344.042969 238.230469 345.179688 237.4375 345.3125 C 238.390625 351.96875 234.929688 356.535156 233.078125 357.988281 C 226.738281 357.039062 216.964844 352.839844 212.867188 350.859375 C 215.113281 333.691406 220.476562 296.113281 223.964844 283.121094 C 225.175781 278.601562 226.714844 275.421875 228.3125 273.222656 C 227.453125 273.160156 226.78125 273 226.34375 272.820312 C 222.855469 265.53125 222.511719 256.050781 222.777344 252.222656 C 252.101562 244.300781 257.253906 239.148438 273.5 239.546875 Z M 273.5 239.546875 " fill-opacity="1" fill-rule="nonzero"/><path fill="#8a86d3" d="M 242.277344 269.835938 C 244.265625 269.417969 246.496094 268.898438 248.714844 268.382812 C 251.4375 267.75 254.140625 267.121094 256.347656 266.6875 L 256.269531 266.300781 C 254.066406 266.730469 251.347656 267.363281 248.609375 268 C 246.375 268.519531 244.128906 269.042969 242.152344 269.457031 L 242.105469 269.46875 L 242.070312 269.496094 C 240.515625 270.691406 239.066406 271.136719 237.96875 271.207031 C 237.417969 271.242188 236.960938 271.183594 236.621094 271.082031 C 236.269531 270.976562 236.082031 270.835938 236.019531 270.738281 L 235.914062 270.5625 L 235.746094 270.671875 C 233.6875 271.984375 232.382812 272.605469 231.324219 272.882812 C 230.273438 273.160156 229.449219 273.101562 228.324219 273.023438 L 228.296875 273.417969 L 228.316406 273.421875 C 229.429688 273.5 230.308594 273.5625 231.425781 273.265625 C 232.519531 272.980469 233.824219 272.355469 235.8125 271.101562 C 235.972656 271.253906 236.21875 271.375 236.507812 271.460938 C 236.898438 271.578125 237.40625 271.640625 237.992188 271.601562 C 239.167969 271.527344 240.675781 271.058594 242.277344 269.835938 Z M 242.277344 269.835938 " fill-opacity="1" fill-rule="evenodd"/><path fill="#8a86d3" d="M 252.492188 286.472656 C 252.261719 288.9375 251.933594 292.46875 251.808594 293.445312 L 251.414062 293.394531 C 251.539062 292.425781 251.867188 288.914062 252.09375 286.453125 C 252.183594 285.511719 252.257812 284.722656 252.296875 284.289062 L 252.691406 284.328125 C 252.652344 284.757812 252.578125 285.539062 252.492188 286.472656 Z M 252.492188 286.472656 " fill-opacity="1" fill-rule="evenodd"/><path fill="#8a86d3" d="M 256.582031 266.640625 C 261.269531 265.722656 265.246094 265.003906 267.582031 264.699219 L 267.53125 264.304688 C 265.144531 264.617188 261.058594 265.359375 256.273438 266.300781 L 256.039062 266.34375 L 256.128906 266.566406 C 258.125 271.675781 262.246094 278.109375 267.648438 283.691406 C 273.050781 289.269531 279.753906 294.011719 286.929688 295.71875 L 287.019531 295.332031 C 279.945312 293.652344 273.304688 288.960938 267.933594 283.414062 C 262.636719 277.945312 258.589844 271.660156 256.582031 266.640625 Z M 256.582031 266.640625 " fill-opacity="1" fill-rule="evenodd"/><path fill="#8a86d3" d="M 234.875 257.023438 C 235.101562 257.960938 235.3125 258.9375 235.496094 259.941406 C 238.765625 259.0625 242.171875 258.167969 245.460938 257.339844 C 249.570312 256.308594 253.496094 255.375 256.738281 254.703125 C 259.957031 254.035156 262.5625 253.609375 263.988281 253.609375 C 266.148438 253.609375 267.769531 253.996094 269.242188 254.875 C 270.691406 255.742188 271.945312 257.058594 273.410156 258.824219 C 274.007812 259.539062 274.640625 260.332031 275.339844 261.210938 C 278.117188 264.691406 281.957031 269.5 288.578125 275.960938 C 291.976562 279.28125 294.835938 280.617188 297.191406 280.722656 C 299.523438 280.828125 301.492188 279.734375 303.152344 277.875 C 304.816406 276.007812 306.128906 273.40625 307.097656 270.621094 C 307.683594 268.933594 308.140625 267.191406 308.476562 265.53125 C 308.863281 265.707031 309.238281 265.851562 309.601562 265.964844 C 309.261719 267.613281 308.800781 269.335938 308.21875 271.011719 C 307.222656 273.875 305.847656 276.636719 304.039062 278.664062 C 302.21875 280.703125 299.929688 282.035156 297.136719 281.910156 C 294.371094 281.785156 291.25 280.230469 287.746094 276.8125 C 281.070312 270.296875 277.175781 265.417969 274.402344 261.9375 C 273.703125 261.066406 273.078125 260.285156 272.496094 259.582031 C 271.042969 257.832031 269.894531 256.648438 268.632812 255.894531 C 267.390625 255.152344 265.992188 254.796875 263.988281 254.796875 C 262.703125 254.796875 260.21875 255.195312 256.976562 255.867188 C 253.757812 256.535156 249.851562 257.460938 245.753906 258.492188 C 242.433594 259.328125 238.992188 260.230469 235.695312 261.117188 C 236.207031 264.300781 236.449219 267.738281 236.183594 271.121094 C 236.023438 271.035156 235.910156 270.9375 235.851562 270.839844 C 235.542969 271.039062 235.246094 271.21875 234.96875 271.390625 C 235.269531 268.046875 235.046875 264.621094 234.542969 261.429688 C 230.476562 262.53125 226.683594 263.59375 223.679688 264.460938 C 223.601562 264.070312 223.53125 263.675781 223.464844 263.289062 C 226.480469 262.417969 230.277344 261.351562 234.34375 260.25 C 234.160156 259.238281 233.949219 258.25 233.71875 257.304688 C 232.980469 254.246094 232.0625 251.636719 231.257812 249.820312 C 231.644531 249.707031 232.027344 249.589844 232.40625 249.476562 C 233.238281 251.382812 234.148438 254.011719 234.875 257.023438 Z M 234.875 257.023438 " fill-opacity="1" fill-rule="nonzero"/><path fill="#8a86d3" d="M 227.972656 340.542969 C 230.824219 341.558594 234.390625 343.0625 237.546875 344.566406 C 237.785156 344.679688 238.019531 344.792969 238.253906 344.90625 C 237.960938 345.148438 237.667969 345.273438 237.4375 345.3125 C 237.464844 345.496094 237.488281 345.683594 237.507812 345.863281 C 237.351562 345.789062 237.191406 345.710938 237.035156 345.636719 C 233.960938 344.175781 230.5 342.714844 227.722656 341.71875 C 227.015625 345.074219 226.355469 348.621094 225.746094 351.867188 C 225.488281 353.261719 225.238281 354.597656 224.996094 355.84375 C 224.621094 355.714844 224.242188 355.582031 223.863281 355.445312 C 224.089844 354.261719 224.328125 352.992188 224.574219 351.667969 C 225.191406 348.367188 225.871094 344.742188 226.59375 341.324219 C 222.394531 339.90625 218.632812 339.089844 214.535156 338.585938 C 214.589844 338.195312 214.644531 337.800781 214.699219 337.40625 C 218.8125 337.917969 222.617188 338.738281 226.84375 340.152344 C 232.101562 315.628906 239.5625 285.085938 243.53125 269.363281 C 243.953125 269.269531 244.390625 269.171875 244.828125 269.074219 C 240.894531 284.636719 233.296875 315.710938 227.972656 340.542969 Z M 227.972656 340.542969 " fill-opacity="1" fill-rule="nonzero"/><g clip-path="url(#8990d7d81b)"><path fill="#3a3683" d="M 13.613281 270.167969 C 12.308594 270.210938 11.28125 271.308594 11.324219 272.621094 C 12.480469 309.671875 42.761719 339.347656 79.949219 339.347656 C 102.265625 339.347656 124.902344 328.53125 137.1875 309.421875 L 138.980469 318.328125 C 139.242188 319.613281 140.492188 320.445312 141.773438 320.1875 C 143.054688 319.925781 143.882812 318.671875 143.625 317.386719 L 140.851562 303.636719 C 140.660156 302.679688 140.125 301.886719 139.414062 301.355469 C 138.324219 300.535156 136.792969 300.316406 135.433594 301.011719 L 121.890625 307.953125 C 120.726562 308.546875 120.261719 309.980469 120.859375 311.148438 C 121.453125 312.320312 122.878906 312.78125 124.042969 312.183594 L 132.566406 307.816406 C 121.117188 324.796875 100.503906 334.59375 79.949219 334.59375 C 45.328125 334.59375 17.132812 306.964844 16.054688 272.472656 C 16.015625 271.160156 14.921875 270.128906 13.613281 270.167969 Z M 13.613281 270.167969 " fill-opacity="1" fill-rule="evenodd"/></g><path fill="#3a3683" d="M 147.722656 263.339844 C 149.03125 263.296875 150.054688 262.203125 150.015625 260.890625 C 148.859375 223.839844 118.578125 194.160156 81.390625 194.160156 C 59.070312 194.160156 36.4375 204.976562 24.152344 224.085938 L 22.355469 215.179688 C 22.097656 213.894531 20.847656 213.0625 19.566406 213.324219 C 18.285156 213.582031 17.457031 214.835938 17.714844 216.125 L 20.484375 229.871094 C 20.679688 230.828125 21.214844 231.621094 21.925781 232.15625 C 23.011719 232.972656 24.546875 233.195312 25.90625 232.496094 L 39.449219 225.558594 C 40.613281 224.960938 41.074219 223.527344 40.480469 222.359375 C 39.886719 221.191406 38.460938 220.726562 37.296875 221.324219 L 28.773438 225.691406 C 40.21875 208.710938 60.835938 198.914062 81.390625 198.914062 C 116.011719 198.914062 144.207031 226.546875 145.28125 261.039062 C 145.324219 262.351562 146.417969 263.378906 147.722656 263.339844 Z M 147.722656 263.339844 " fill-opacity="1" fill-rule="evenodd"/><path fill="#02dcb0" d="M 81.355469 299.386719 C 64.21875 299.386719 50.324219 285.4375 50.324219 268.234375 C 50.324219 251.03125 64.21875 237.082031 81.355469 237.082031 C 98.492188 237.082031 112.386719 251.03125 112.386719 268.234375 C 112.386719 285.4375 98.492188 299.386719 81.355469 299.386719 Z M 81.355469 290.890625 C 68.890625 290.890625 58.785156 280.746094 58.785156 268.234375 C 58.785156 255.722656 68.890625 245.578125 81.355469 245.578125 C 93.816406 245.578125 103.921875 255.722656 103.921875 268.234375 C 103.921875 280.746094 93.816406 290.890625 81.355469 290.890625 Z M 81.355469 290.890625 " fill-opacity="1" fill-rule="evenodd"/><path fill="#02dcb0" d="M 81.351562 309.296875 C 58.761719 309.296875 40.449219 290.910156 40.449219 268.234375 C 40.449219 245.554688 58.761719 227.171875 81.351562 227.171875 C 103.941406 227.171875 122.253906 245.554688 122.253906 268.234375 C 122.253906 290.910156 103.941406 309.296875 81.351562 309.296875 Z M 81.351562 302.214844 C 62.65625 302.214844 47.5 287.003906 47.5 268.234375 C 47.5 249.464844 62.65625 234.25 81.351562 234.25 C 100.046875 234.25 115.203125 249.464844 115.203125 268.234375 C 115.203125 287.003906 100.046875 302.214844 81.351562 302.214844 Z M 81.351562 302.214844 " fill-opacity="1" fill-rule="evenodd"/><path fill="#02dcb0" d="M 36.085938 240.046875 L 51.027344 243.453125 L 42.5625 261.15625 L 29.726562 251.65625 C 29.40625 251.421875 29.3125 250.980469 29.507812 250.632812 L 35.222656 240.429688 C 35.394531 240.125 35.746094 239.96875 36.085938 240.046875 Z M 36.085938 240.046875 " fill-opacity="1" fill-rule="nonzero"/><path fill="#02dcb0" d="M 129.4375 244.292969 L 114.496094 247.703125 L 121.039062 265.890625 L 135.757812 255.898438 C 136.097656 255.667969 136.203125 255.214844 136 254.855469 L 130.300781 244.675781 C 130.128906 244.371094 129.777344 244.214844 129.4375 244.292969 Z M 129.4375 244.292969 " fill-opacity="1" fill-rule="nonzero"/><path fill="#02dcb0" d="M 98.828125 218.542969 L 88.582031 229.980469 L 105.667969 239.535156 L 110.695312 224.34375 C 110.820312 223.964844 110.644531 223.550781 110.285156 223.378906 L 99.753906 218.355469 C 99.4375 218.207031 99.0625 218.28125 98.828125 218.542969 Z M 98.828125 218.542969 " fill-opacity="1" fill-rule="nonzero"/><path fill="#02dcb0" d="M 56.382812 221.433594 L 58.097656 236.71875 L 76.558594 230.246094 L 68.585938 216.382812 C 68.386719 216.035156 67.964844 215.890625 67.59375 216.046875 L 56.859375 220.617188 C 56.539062 220.753906 56.34375 221.085938 56.382812 221.433594 Z M 56.382812 221.433594 " fill-opacity="1" fill-rule="nonzero"/><path fill="#02dcb0" d="M 28.21875 279.324219 L 41.890625 272.375 L 48.910156 290.890625 L 30.722656 292.324219 C 30.316406 292.355469 29.957031 292.074219 29.882812 291.675781 L 27.800781 280.171875 C 27.738281 279.828125 27.90625 279.484375 28.21875 279.324219 Z M 28.21875 279.324219 " fill-opacity="1" fill-rule="nonzero"/><path fill="#02dcb0" d="M 131.066406 285.132812 L 120.082031 274.410156 L 107.882812 289.984375 L 124.824219 296.792969 C 125.199219 296.941406 125.628906 296.785156 125.816406 296.421875 L 131.21875 286.066406 C 131.378906 285.757812 131.320312 285.375 131.066406 285.132812 Z M 131.066406 285.132812 " fill-opacity="1" fill-rule="nonzero"/><path fill="#02dcb0" d="M 51.664062 313.113281 L 55.484375 298.214844 L 73.972656 305.136719 L 63.042969 319.800781 C 62.800781 320.125 62.355469 320.214844 62.007812 320.007812 L 52.023438 313.988281 C 51.722656 313.808594 51.578125 313.453125 51.664062 313.113281 Z M 51.664062 313.113281 " fill-opacity="1" fill-rule="nonzero"/><path fill="#02dcb0" d="M 104.601562 316.226562 L 104.714844 300.84375 L 85.074219 302.773438 L 91.894531 319.761719 C 92.046875 320.140625 92.457031 320.339844 92.847656 320.226562 L 104.03125 316.980469 C 104.367188 316.882812 104.601562 316.574219 104.601562 316.226562 Z M 104.601562 316.226562 " fill-opacity="1" fill-rule="nonzero"/><path fill="#fe8d00" d="M 98.171875 175.160156 C 98.171875 204.800781 122.207031 228.828125 151.855469 228.828125 C 181.507812 228.828125 205.542969 204.800781 205.542969 175.160156 C 205.542969 145.523438 181.507812 121.496094 151.855469 121.496094 C 122.207031 121.496094 98.171875 145.523438 98.171875 175.160156 Z M 98.171875 175.160156 " fill-opacity="1" fill-rule="nonzero"/><path fill="#fe8d00" d="M 92.269531 138.28125 L 112.058594 142.777344 L 100.949219 165.910156 L 83.925781 153.371094 C 83.605469 153.132812 83.511719 152.695312 83.707031 152.34375 L 91.402344 138.667969 C 91.574219 138.359375 91.929688 138.203125 92.269531 138.28125 Z M 92.269531 138.28125 " fill-opacity="1" fill-rule="nonzero"/><path fill="#fe8d00" d="M 215.152344 143.832031 L 195.363281 148.328125 L 203.953125 172.101562 L 223.453125 158.917969 C 223.796875 158.683594 223.902344 158.230469 223.703125 157.871094 L 216.019531 144.21875 C 215.847656 143.914062 215.492188 143.757812 215.152344 143.832031 Z M 215.152344 143.832031 " fill-opacity="1" fill-rule="nonzero"/><path fill="#fe8d00" d="M 174.921875 110.085938 L 161.355469 125.167969 L 183.777344 137.65625 L 190.445312 117.597656 C 190.570312 117.21875 190.394531 116.804688 190.03125 116.632812 L 175.851562 109.898438 C 175.535156 109.75 175.15625 109.824219 174.921875 110.085938 Z M 174.921875 110.085938 " fill-opacity="1" fill-rule="nonzero"/><path fill="#fe8d00" d="M 119.070312 113.816406 L 121.335938 133.976562 L 145.570312 125.515625 L 134.996094 107.207031 C 134.796875 106.863281 134.371094 106.71875 134.003906 106.875 L 119.546875 113 C 119.222656 113.136719 119.03125 113.46875 119.070312 113.816406 Z M 119.070312 113.816406 " fill-opacity="1" fill-rule="nonzero"/><path fill="#fe8d00" d="M 81.960938 189.738281 L 100.0625 180.574219 L 109.28125 204.773438 L 85.1875 206.660156 C 84.78125 206.695312 84.417969 206.414062 84.34375 206.011719 L 81.539062 190.585938 C 81.476562 190.242188 81.648438 189.898438 81.960938 189.738281 Z M 81.960938 189.738281 " fill-opacity="1" fill-rule="nonzero"/><path fill="#fe8d00" d="M 217.242188 197.371094 L 202.695312 183.234375 L 186.683594 203.589844 L 209.121094 212.566406 C 209.5 212.71875 209.929688 212.558594 210.121094 212.199219 L 217.394531 198.308594 C 217.558594 197.996094 217.496094 197.617188 217.242188 197.371094 Z M 217.242188 197.371094 " fill-opacity="1" fill-rule="nonzero"/><path fill="#fe8d00" d="M 112.855469 233.988281 L 117.910156 214.34375 L 142.179688 223.386719 L 127.703125 242.734375 C 127.460938 243.058594 127.007812 243.144531 126.660156 242.9375 L 113.214844 234.867188 C 112.914062 234.6875 112.765625 234.328125 112.855469 233.988281 Z M 112.855469 233.988281 " fill-opacity="1" fill-rule="nonzero"/><path fill="#fe8d00" d="M 182.378906 238.066406 L 182.527344 217.78125 L 156.75 220.304688 L 165.785156 242.710938 C 165.933594 243.089844 166.347656 243.289062 166.738281 243.175781 L 181.804688 238.820312 C 182.144531 238.722656 182.375 238.414062 182.378906 238.066406 Z M 182.378906 238.066406 " fill-opacity="1" fill-rule="nonzero"/><path fill="#ffffff" d="M 108.300781 175.800781 C 108.300781 199.464844 127.488281 218.644531 151.160156 218.644531 C 174.832031 218.644531 194.023438 199.464844 194.023438 175.800781 C 194.023438 152.140625 174.832031 132.957031 151.160156 132.957031 C 127.488281 132.957031 108.300781 152.140625 108.300781 175.800781 Z M 108.300781 175.800781 " fill-opacity="1" fill-rule="nonzero"/><path fill="#ffccba" d="M 151.164062 178.480469 L 151.164062 138.3125 C 134.457031 138.3125 120.5 150.070312 117.117188 165.761719 Z M 151.164062 178.480469 " fill-opacity="1" fill-rule="nonzero"/><path fill="#3a3683" d="M 174.136719 139.3125 C 173.949219 139.199219 173.703125 139.261719 173.59375 139.449219 L 167.566406 149.488281 C 167.453125 149.675781 167.511719 149.921875 167.699219 150.035156 C 167.886719 150.144531 168.132812 150.085938 168.246094 149.898438 L 174.269531 139.855469 C 174.382812 139.667969 174.324219 139.425781 174.136719 139.3125 Z M 189.296875 156.410156 C 189.1875 156.21875 188.945312 156.152344 188.757812 156.257812 L 178.425781 162.066406 C 178.234375 162.175781 178.167969 162.417969 178.273438 162.605469 C 178.382812 162.796875 178.625 162.867188 178.8125 162.757812 L 189.144531 156.949219 C 189.335938 156.84375 189.402344 156.601562 189.296875 156.410156 Z M 120.753906 178.480469 C 120.753906 178.261719 120.574219 178.082031 120.355469 178.082031 L 108.652344 178.082031 C 108.429688 178.082031 108.253906 178.261719 108.253906 178.480469 C 108.253906 178.699219 108.429688 178.875 108.652344 178.875 L 120.355469 178.875 C 120.574219 178.875 120.753906 178.699219 120.753906 178.480469 Z M 193.75 179.148438 C 193.75 178.929688 193.574219 178.753906 193.351562 178.753906 L 182.636719 178.753906 C 182.417969 178.753906 182.242188 178.929688 182.242188 179.148438 C 182.242188 179.367188 182.417969 179.546875 182.636719 179.546875 L 193.351562 179.546875 C 193.574219 179.546875 193.75 179.367188 193.75 179.148438 Z M 175.617188 194.316406 C 175.492188 194.492188 175.53125 194.742188 175.710938 194.867188 L 185.085938 201.5625 C 185.265625 201.691406 185.511719 201.648438 185.640625 201.472656 C 185.765625 201.292969 185.726562 201.046875 185.546875 200.917969 L 176.171875 194.222656 C 175.992188 194.097656 175.746094 194.136719 175.617188 194.316406 Z M 126.707031 194.316406 C 126.578125 194.136719 126.332031 194.097656 126.152344 194.222656 L 116.777344 200.917969 C 116.597656 201.046875 116.558594 201.292969 116.683594 201.472656 C 116.8125 201.648438 117.058594 201.691406 117.238281 201.5625 L 126.613281 194.867188 C 126.792969 194.742188 126.832031 194.492188 126.707031 194.316406 Z M 139.925781 205.558594 C 139.722656 205.476562 139.492188 205.578125 139.410156 205.78125 L 135.523438 215.492188 C 135.441406 215.695312 135.539062 215.925781 135.742188 216.007812 C 135.945312 216.089844 136.175781 215.988281 136.257812 215.785156 L 140.144531 206.074219 C 140.226562 205.871094 140.128906 205.640625 139.925781 205.558594 Z M 157.789062 206.207031 C 157.574219 206.242188 157.429688 206.449219 157.46875 206.664062 L 159.40625 217.628906 C 159.441406 217.84375 159.648438 217.988281 159.863281 217.949219 C 160.078125 217.910156 160.222656 217.707031 160.183594 217.492188 L 158.25 206.527344 C 158.210938 206.3125 158.003906 206.167969 157.789062 206.207031 Z M 157.789062 206.207031 " fill-opacity="1" fill-rule="evenodd"/><path fill="#3a3683" d="M 151.835938 141.140625 C 151.179688 141.140625 150.644531 141.675781 150.644531 142.332031 L 150.644531 177.898438 L 136.851562 172.683594 C 136.238281 172.449219 135.550781 172.757812 135.320312 173.375 C 135.085938 173.988281 135.398438 174.671875 136.011719 174.90625 L 150.644531 180.441406 L 150.644531 187.183594 C 150.644531 187.839844 151.179688 188.371094 151.835938 188.371094 C 152.492188 188.371094 153.023438 187.839844 153.023438 187.183594 L 153.023438 181.339844 L 160.789062 184.277344 C 161.402344 184.511719 162.089844 184.199219 162.324219 183.585938 C 162.554688 182.972656 162.246094 182.285156 161.632812 182.054688 L 153.023438 178.796875 L 153.023438 142.332031 C 153.023438 141.675781 152.492188 141.140625 151.835938 141.140625 Z M 151.835938 141.140625 " fill-opacity="1" fill-rule="evenodd"/><path fill="#3a3683" d="M 129.226562 73.234375 C 130.015625 72.96875 130.816406 72.703125 131.628906 72.433594 L 131.378906 71.683594 C 130.566406 71.949219 129.765625 72.21875 128.972656 72.480469 Z M 119.996094 76.429688 C 121.488281 75.894531 123.027344 75.351562 124.613281 74.800781 L 124.355469 74.054688 C 122.765625 74.601562 121.222656 75.144531 119.730469 75.683594 Z M 110.855469 79.847656 C 112.332031 79.269531 113.871094 78.679688 115.472656 78.082031 L 115.195312 77.339844 C 113.589844 77.941406 112.046875 78.53125 110.566406 79.109375 Z M 101.910156 83.535156 C 103.324219 82.917969 104.808594 82.285156 106.371094 81.644531 L 106.070312 80.910156 C 104.503906 81.554688 103.011719 82.1875 101.59375 82.808594 Z M 81.609375 84.34375 C 83.191406 84.382812 84.726562 84.492188 86.207031 84.65625 L 86.296875 83.867188 C 84.792969 83.699219 83.234375 83.59375 81.628906 83.550781 Z M 72.375 84.84375 C 73.9375 84.632812 75.476562 84.488281 76.980469 84.40625 L 76.9375 83.617188 C 75.410156 83.699219 73.851562 83.84375 72.265625 84.058594 Z M 94.265625 86.214844 C 93.164062 85.898438 92 85.613281 90.785156 85.367188 L 90.941406 84.589844 C 92.484375 84.90625 93.945312 85.277344 95.316406 85.699219 C 95.890625 85.417969 96.484375 85.132812 97.09375 84.847656 L 97.433594 85.5625 C 95.867188 86.300781 94.410156 87.015625 93.058594 87.714844 L 92.695312 87.011719 C 93.203125 86.75 93.726562 86.484375 94.265625 86.214844 Z M 63.347656 86.78125 C 64.855469 86.332031 66.351562 85.953125 67.828125 85.636719 L 67.660156 84.863281 C 66.164062 85.183594 64.648438 85.570312 63.125 86.023438 Z M 99.558594 88.140625 C 101.109375 88.855469 102.445312 89.625 103.535156 90.410156 L 104 89.769531 C 102.859375 88.945312 101.476562 88.152344 99.886719 87.421875 Z M 54.707031 90.082031 C 56.132812 89.410156 57.550781 88.808594 58.96875 88.269531 L 58.683594 87.527344 C 57.25 88.074219 55.8125 88.683594 54.371094 89.363281 Z M 84.742188 92.601562 C 85.917969 91.785156 87.265625 90.933594 88.800781 90.039062 L 88.402344 89.355469 C 86.851562 90.257812 85.484375 91.121094 84.289062 91.949219 Z M 46.640625 94.613281 C 47.957031 93.746094 49.273438 92.945312 50.59375 92.203125 L 50.203125 91.511719 C 48.871094 92.265625 47.535156 93.074219 46.207031 93.953125 Z M 106.523438 93.644531 C 106.855469 94.363281 106.917969 95.023438 106.734375 95.613281 C 106.503906 96.355469 106.164062 97.054688 105.734375 97.710938 L 106.398438 98.144531 C 106.867188 97.433594 107.238281 96.667969 107.492188 95.851562 C 107.746094 95.03125 107.636719 94.164062 107.242188 93.308594 Z M 78.210938 99.335938 C 78.59375 98.28125 79.453125 97.046875 80.941406 95.628906 L 80.394531 95.054688 C 78.859375 96.515625 77.902344 97.851562 77.464844 99.066406 Z M 39.277344 100.207031 C 40.46875 99.175781 41.664062 98.207031 42.867188 97.289062 L 42.386719 96.660156 C 41.171875 97.585938 39.960938 98.566406 38.757812 99.609375 Z M 102.375 100.996094 C 101.113281 101.847656 99.660156 102.566406 98.105469 103.148438 L 98.382812 103.886719 C 99.988281 103.289062 101.496094 102.542969 102.820312 101.652344 Z M 32.675781 106.671875 C 33.734375 105.507812 34.804688 104.398438 35.882812 103.34375 L 35.328125 102.777344 C 34.238281 103.84375 33.160156 104.964844 32.089844 106.140625 Z M 83.882812 104.710938 C 82.046875 104.410156 80.523438 103.878906 79.484375 103.148438 L 79.027344 103.796875 C 80.203125 104.625 81.859375 105.183594 83.753906 105.492188 Z M 93.464844 104.433594 C 91.855469 104.742188 90.230469 104.921875 88.667969 104.976562 L 88.695312 105.769531 C 90.300781 105.710938 91.964844 105.527344 93.613281 105.210938 Z M 26.820312 113.839844 C 27.757812 112.570312 28.703125 111.347656 29.660156 110.175781 L 29.042969 109.675781 C 28.078125 110.859375 27.125 112.089844 26.183594 113.367188 Z M 21.667969 121.574219 C 22.484375 120.21875 23.316406 118.910156 24.15625 117.648438 L 23.496094 117.207031 C 22.648438 118.480469 21.8125 119.800781 20.988281 121.164062 Z M 18.25 127.644531 C 18.617188 126.941406 18.988281 126.246094 19.367188 125.566406 L 18.671875 125.183594 C 18.292969 125.871094 17.917969 126.566406 17.546875 127.277344 Z M 18.25 127.644531 " fill-opacity="1" fill-rule="evenodd"/><path fill="#fdb5bc" d="M 131.597656 63.425781 L 173.75 65.179688 L 132.476562 70.445312 L 133.027344 74.019531 L 134.0625 80.746094 C 134.148438 81.308594 134.746094 81.644531 135.273438 81.421875 L 173.75 65.179688 L 131.191406 49.4375 C 130.578125 49.210938 129.9375 49.714844 130.015625 50.367188 Z M 131.597656 63.425781 " fill-opacity="1" fill-rule="nonzero"/><path fill="#f798a2" d="M 131.597656 63.425781 L 173.75 65.179688 L 132.476562 70.445312 L 125.96875 74.910156 C 125.664062 74.605469 125.597656 74.136719 125.808594 73.761719 Z M 131.597656 63.425781 " fill-opacity="1" fill-rule="nonzero"/><path fill="#fa6e7e" d="M 126.835938 75.175781 C 126.519531 75.238281 126.195312 75.140625 125.96875 74.910156 L 132.476562 70.445312 L 133.027344 74.019531 Z M 126.835938 75.175781 " fill-opacity="1" fill-rule="nonzero"/></svg>