<svg xmlns="http://www.w3.org/2000/svg" xmlns:xlink="http://www.w3.org/1999/xlink" width="500" zoomAndPan="magnify" viewBox="0 0 375 374.999991" height="500" preserveAspectRatio="xMidYMid meet" version="1.0"><defs><clipPath id="22a8022a73"><path d="M 276 51 L 351.648438 51 L 351.648438 249 L 276 249 Z M 276 51 " clip-rule="nonzero"/></clipPath><clipPath id="53d751e043"><path d="M 5.148438 72 L 57 72 L 57 241 L 5.148438 241 Z M 5.148438 72 " clip-rule="nonzero"/></clipPath><clipPath id="b3d4978c82"><path d="M 167 17.714844 L 261 17.714844 L 261 111 L 167 111 Z M 167 17.714844 " clip-rule="nonzero"/></clipPath><clipPath id="a6490da6c9"><path d="M 210 237 L 331 237 L 331 357.464844 L 210 357.464844 Z M 210 237 " clip-rule="nonzero"/></clipPath><clipPath id="8c5b51f3ee"><path d="M 23 212 L 168 212 L 168 357.464844 L 23 357.464844 Z M 23 212 " clip-rule="nonzero"/></clipPath></defs><g clip-path="url(#22a8022a73)"><path fill="#430f63" d="M 341.355469 248.003906 C 341.167969 248.003906 340.980469 247.972656 340.792969 247.914062 C 339.851562 247.601562 339.335938 246.585938 339.644531 245.644531 C 341.660156 239.488281 343.339844 233.144531 344.632812 226.789062 C 344.828125 225.816406 345.777344 225.1875 346.753906 225.386719 C 347.726562 225.585938 348.355469 226.535156 348.15625 227.507812 C 346.835938 233.996094 345.121094 240.476562 343.0625 246.761719 C 342.816406 247.519531 342.109375 248.003906 341.355469 248.003906 Z M 349.207031 209.4375 C 349.152344 209.4375 349.101562 209.4375 349.050781 209.429688 C 348.058594 209.347656 347.328125 208.476562 347.410156 207.484375 C 347.828125 202.632812 348.039062 197.6875 348.039062 192.789062 C 348.039062 191.195312 348.015625 189.582031 347.972656 187.988281 C 347.945312 186.996094 348.726562 186.167969 349.71875 186.140625 C 349.738281 186.140625 349.753906 186.140625 349.769531 186.140625 C 350.742188 186.140625 351.542969 186.910156 351.566406 187.886719 C 351.613281 189.515625 351.636719 191.164062 351.636719 192.789062 C 351.636719 197.789062 351.421875 202.839844 350.996094 207.792969 C 350.914062 208.730469 350.128906 209.4375 349.207031 209.4375 Z M 348.101562 170.101562 C 347.21875 170.101562 346.449219 169.453125 346.320312 168.554688 C 345.402344 162.136719 344.101562 155.707031 342.453125 149.449219 C 342.199219 148.488281 342.773438 147.503906 343.734375 147.253906 C 344.695312 147 345.679688 147.574219 345.933594 148.53125 C 347.617188 154.925781 348.945312 161.488281 349.882812 168.046875 C 350.023438 169.03125 349.339844 169.941406 348.355469 170.082031 C 348.269531 170.09375 348.183594 170.101562 348.101562 170.101562 Z M 338.078125 132.058594 C 337.359375 132.058594 336.679688 131.625 336.402344 130.914062 C 334.039062 124.886719 331.296875 118.925781 328.25 113.203125 C 327.785156 112.324219 328.117188 111.238281 328.992188 110.769531 C 329.871094 110.304688 330.960938 110.636719 331.425781 111.511719 C 334.539062 117.359375 337.339844 123.445312 339.75 129.601562 C 340.113281 130.527344 339.65625 131.570312 338.734375 131.933594 C 338.519531 132.019531 338.296875 132.058594 338.078125 132.058594 Z M 319.59375 97.320312 C 319.023438 97.320312 318.460938 97.050781 318.113281 96.542969 C 314.433594 91.210938 310.402344 86.035156 306.132812 81.152344 C 305.480469 80.40625 305.554688 79.269531 306.304688 78.617188 C 307.050781 77.960938 308.1875 78.039062 308.84375 78.785156 C 313.203125 83.769531 317.316406 89.058594 321.074219 94.5 C 321.636719 95.316406 321.433594 96.4375 320.617188 97.003906 C 320.304688 97.21875 319.949219 97.320312 319.59375 97.320312 Z M 293.6875 67.699219 C 293.253906 67.699219 292.820312 67.542969 292.476562 67.230469 C 287.679688 62.867188 282.578125 58.738281 277.320312 54.957031 C 276.511719 54.378906 276.328125 53.253906 276.910156 52.449219 C 277.488281 51.640625 278.613281 51.457031 279.421875 52.039062 C 284.789062 55.898438 289.996094 60.117188 294.898438 64.570312 C 295.632812 65.238281 295.6875 66.375 295.019531 67.109375 C 294.664062 67.5 294.175781 67.699219 293.6875 67.699219 Z M 293.6875 67.699219 " fill-opacity="1" fill-rule="nonzero"/></g><g clip-path="url(#53d751e043)"><path fill="#430f63" d="M 13.101562 240.289062 C 12.3125 240.289062 11.589844 239.765625 11.371094 238.96875 C 9.613281 232.59375 8.207031 226.042969 7.195312 219.492188 C 7.042969 218.511719 7.714844 217.59375 8.695312 217.441406 C 9.675781 217.289062 10.597656 217.960938 10.75 218.945312 C 11.742188 225.355469 13.117188 231.769531 14.839844 238.011719 C 15.101562 238.96875 14.539062 239.957031 13.582031 240.222656 C 13.421875 240.265625 13.261719 240.289062 13.101562 240.289062 Z M 7.078125 201.398438 C 6.117188 201.398438 5.320312 200.640625 5.28125 199.671875 C 5.191406 197.394531 5.148438 195.078125 5.148438 192.789062 C 5.148438 188.453125 5.308594 184.070312 5.628906 179.761719 C 5.703125 178.773438 6.566406 178.027344 7.558594 178.101562 C 8.546875 178.175781 9.292969 179.039062 9.21875 180.03125 C 8.902344 184.246094 8.746094 188.539062 8.746094 192.789062 C 8.746094 195.03125 8.789062 197.300781 8.875 199.53125 C 8.914062 200.523438 8.140625 201.359375 7.148438 201.398438 C 7.125 201.398438 7.101562 201.398438 7.078125 201.398438 Z M 10.011719 162.15625 C 9.898438 162.15625 9.785156 162.144531 9.671875 162.121094 C 8.695312 161.933594 8.058594 160.992188 8.242188 160.015625 C 9.488281 153.511719 11.128906 147.015625 13.117188 140.703125 C 13.414062 139.753906 14.425781 139.230469 15.371094 139.527344 C 16.320312 139.824219 16.84375 140.835938 16.546875 141.785156 C 14.601562 147.960938 12.996094 154.324219 11.777344 160.695312 C 11.613281 161.554688 10.859375 162.15625 10.011719 162.15625 Z M 21.828125 124.617188 C 21.582031 124.617188 21.332031 124.566406 21.09375 124.457031 C 20.1875 124.050781 19.78125 122.988281 20.1875 122.082031 C 22.890625 116.046875 25.976562 110.097656 29.359375 104.402344 C 29.867188 103.546875 30.972656 103.265625 31.824219 103.773438 C 32.679688 104.28125 32.960938 105.386719 32.453125 106.242188 C 29.136719 111.816406 26.117188 117.640625 23.472656 123.550781 C 23.171875 124.21875 22.515625 124.617188 21.828125 124.617188 Z M 41.929688 90.785156 C 41.550781 90.785156 41.167969 90.664062 40.84375 90.414062 C 40.050781 89.8125 39.898438 88.683594 40.503906 87.894531 C 44.511719 82.632812 48.871094 77.542969 53.457031 72.769531 C 54.144531 72.054688 55.285156 72.03125 56 72.71875 C 56.714844 73.40625 56.738281 74.546875 56.050781 75.261719 C 51.558594 79.9375 47.289062 84.921875 43.363281 90.074219 C 43.007812 90.539062 42.472656 90.785156 41.929688 90.785156 Z M 41.929688 90.785156 " fill-opacity="1" fill-rule="nonzero"/></g><path fill="#ec9707" d="M 304.269531 192.789062 C 304.269531 194.851562 304.21875 196.910156 304.117188 198.96875 C 304.015625 201.023438 303.867188 203.078125 303.664062 205.128906 C 303.460938 207.179688 303.210938 209.222656 302.90625 211.261719 C 302.605469 213.296875 302.253906 215.328125 301.851562 217.347656 C 301.449219 219.367188 301 221.378906 300.496094 223.375 C 299.996094 225.375 299.449219 227.359375 298.851562 229.332031 C 298.25 231.300781 297.605469 233.257812 296.910156 235.199219 C 296.21875 237.136719 295.476562 239.058594 294.6875 240.960938 C 293.898438 242.863281 293.066406 244.746094 292.183594 246.609375 C 291.304688 248.472656 290.378906 250.3125 289.40625 252.128906 C 288.433594 253.945312 287.421875 255.738281 286.359375 257.503906 C 285.300781 259.269531 284.199219 261.011719 283.054688 262.722656 C 281.910156 264.4375 280.726562 266.121094 279.5 267.777344 C 278.269531 269.429688 277.003906 271.054688 275.695312 272.644531 C 274.390625 274.238281 273.046875 275.796875 271.660156 277.324219 C 270.277344 278.851562 268.859375 280.34375 267.402344 281.800781 C 265.945312 283.257812 264.453125 284.675781 262.925781 286.058594 C 261.398438 287.441406 259.839844 288.789062 258.25 290.09375 C 256.65625 291.402344 255.03125 292.667969 253.378906 293.894531 C 251.722656 295.125 250.039062 296.308594 248.324219 297.453125 C 246.613281 298.597656 244.875 299.699219 243.105469 300.757812 C 241.339844 301.820312 239.546875 302.832031 237.730469 303.804688 C 235.914062 304.777344 234.074219 305.703125 232.210938 306.582031 C 230.347656 307.464844 228.464844 308.296875 226.5625 309.085938 C 224.660156 309.875 222.738281 310.617188 220.800781 311.308594 C 218.859375 312.003906 216.902344 312.648438 214.933594 313.246094 C 212.960938 313.847656 210.976562 314.394531 208.976562 314.894531 C 206.980469 315.394531 204.96875 315.847656 202.949219 316.25 C 200.929688 316.652344 198.898438 317.003906 196.863281 317.304688 C 194.824219 317.609375 192.78125 317.859375 190.730469 318.0625 C 188.679688 318.265625 186.625 318.414062 184.570312 318.515625 C 182.511719 318.617188 180.453125 318.667969 178.390625 318.667969 C 176.332031 318.667969 174.273438 318.617188 172.214844 318.515625 C 170.15625 318.414062 168.105469 318.265625 166.054688 318.0625 C 164.003906 317.859375 161.960938 317.609375 159.921875 317.304688 C 157.882812 317.003906 155.855469 316.652344 153.835938 316.25 C 151.8125 315.847656 149.804688 315.394531 147.804688 314.894531 C 145.808594 314.394531 143.824219 313.847656 141.851562 313.246094 C 139.878906 312.648438 137.925781 312.003906 135.984375 311.308594 C 134.046875 310.617188 132.125 309.875 130.222656 309.085938 C 128.316406 308.296875 126.433594 307.464844 124.574219 306.582031 C 122.710938 305.703125 120.871094 304.777344 119.054688 303.804688 C 117.238281 302.832031 115.445312 301.820312 113.679688 300.757812 C 111.910156 299.699219 110.171875 298.597656 108.457031 297.453125 C 106.746094 296.308594 105.0625 295.125 103.40625 293.894531 C 101.753906 292.667969 100.128906 291.402344 98.535156 290.09375 C 96.945312 288.789062 95.382812 287.441406 93.859375 286.058594 C 92.332031 284.675781 90.839844 283.257812 89.382812 281.800781 C 87.925781 280.34375 86.507812 278.851562 85.121094 277.324219 C 83.738281 275.796875 82.394531 274.238281 81.085938 272.644531 C 79.78125 271.054688 78.511719 269.429688 77.285156 267.777344 C 76.058594 266.121094 74.871094 264.4375 73.726562 262.722656 C 72.582031 261.011719 71.480469 259.269531 70.421875 257.503906 C 69.363281 255.738281 68.347656 253.945312 67.378906 252.128906 C 66.40625 250.3125 65.480469 248.472656 64.601562 246.609375 C 63.71875 244.746094 62.882812 242.863281 62.097656 240.960938 C 61.308594 239.058594 60.566406 237.136719 59.871094 235.199219 C 59.179688 233.257812 58.53125 231.300781 57.933594 229.332031 C 57.335938 227.359375 56.789062 225.375 56.285156 223.375 C 55.785156 221.378906 55.335938 219.367188 54.933594 217.347656 C 54.53125 215.328125 54.179688 213.296875 53.875 211.261719 C 53.574219 209.222656 53.320312 207.179688 53.121094 205.128906 C 52.917969 203.078125 52.765625 201.023438 52.664062 198.96875 C 52.566406 196.910156 52.515625 194.851562 52.515625 192.789062 C 52.515625 190.730469 52.566406 188.671875 52.664062 186.613281 C 52.765625 184.554688 52.917969 182.503906 53.121094 180.453125 C 53.320312 178.402344 53.574219 176.359375 53.875 174.320312 C 54.179688 172.28125 54.53125 170.253906 54.933594 168.234375 C 55.335938 166.210938 55.785156 164.203125 56.285156 162.203125 C 56.789062 160.207031 57.335938 158.222656 57.933594 156.25 C 58.53125 154.277344 59.179688 152.324219 59.871094 150.382812 C 60.566406 148.445312 61.308594 146.523438 62.097656 144.617188 C 62.882812 142.714844 63.71875 140.832031 64.601562 138.96875 C 65.480469 137.109375 66.40625 135.269531 67.378906 133.453125 C 68.347656 131.636719 69.363281 129.84375 70.421875 128.074219 C 71.480469 126.308594 72.582031 124.570312 73.726562 122.855469 C 74.871094 121.144531 76.058594 119.460938 77.285156 117.804688 C 78.511719 116.148438 79.78125 114.527344 81.085938 112.933594 C 82.394531 111.339844 83.738281 109.78125 85.121094 108.257812 C 86.507812 106.730469 87.925781 105.238281 89.382812 103.78125 C 90.839844 102.324219 92.332031 100.90625 93.859375 99.519531 C 95.382812 98.136719 96.945312 96.792969 98.535156 95.484375 C 100.128906 94.179688 101.753906 92.910156 103.40625 91.683594 C 105.0625 90.457031 106.746094 89.269531 108.457031 88.125 C 110.171875 86.980469 111.910156 85.878906 113.679688 84.820312 C 115.445312 83.761719 117.238281 82.746094 119.054688 81.777344 C 120.871094 80.804688 122.710938 79.878906 124.574219 78.996094 C 126.433594 78.117188 128.316406 77.28125 130.222656 76.496094 C 132.125 75.707031 134.046875 74.964844 135.984375 74.269531 C 137.925781 73.578125 139.878906 72.929688 141.851562 72.332031 C 143.824219 71.734375 145.808594 71.183594 147.804688 70.683594 C 149.804688 70.183594 151.8125 69.734375 153.835938 69.332031 C 155.855469 68.929688 157.882812 68.578125 159.921875 68.273438 C 161.960938 67.972656 164.003906 67.71875 166.054688 67.519531 C 168.105469 67.316406 170.15625 67.164062 172.214844 67.0625 C 174.273438 66.964844 176.332031 66.914062 178.390625 66.914062 C 180.453125 66.914062 182.511719 66.964844 184.570312 67.0625 C 186.625 67.164062 188.679688 67.316406 190.730469 67.519531 C 192.78125 67.71875 194.824219 67.972656 196.863281 68.273438 C 198.898438 68.578125 200.929688 68.929688 202.949219 69.332031 C 204.96875 69.734375 206.980469 70.183594 208.976562 70.683594 C 210.976562 71.183594 212.960938 71.734375 214.933594 72.332031 C 216.902344 72.929688 218.859375 73.578125 220.800781 74.269531 C 222.738281 74.964844 224.660156 75.707031 226.5625 76.496094 C 228.464844 77.28125 230.347656 78.117188 232.210938 78.996094 C 234.074219 79.878906 235.914062 80.804688 237.730469 81.777344 C 239.546875 82.746094 241.339844 83.761719 243.105469 84.820312 C 244.875 85.878906 246.613281 86.980469 248.324219 88.125 C 250.039062 89.269531 251.722656 90.457031 253.378906 91.683594 C 255.03125 92.910156 256.65625 94.179688 258.25 95.484375 C 259.839844 96.792969 261.398438 98.136719 262.925781 99.519531 C 264.453125 100.90625 265.945312 102.324219 267.402344 103.78125 C 268.859375 105.238281 270.277344 106.730469 271.660156 108.257812 C 273.046875 109.78125 274.390625 111.339844 275.695312 112.933594 C 277.003906 114.527344 278.269531 116.148438 279.5 117.804688 C 280.726562 119.460938 281.910156 121.144531 283.054688 122.855469 C 284.199219 124.570312 285.300781 126.308594 286.359375 128.074219 C 287.421875 129.84375 288.433594 131.636719 289.40625 133.453125 C 290.378906 135.269531 291.304688 137.109375 292.183594 138.96875 C 293.066406 140.832031 293.898438 142.714844 294.6875 144.617188 C 295.476562 146.523438 296.21875 148.445312 296.910156 150.382812 C 297.605469 152.324219 298.25 154.277344 298.851562 156.25 C 299.449219 158.222656 299.996094 160.207031 300.496094 162.203125 C 301 164.203125 301.449219 166.210938 301.851562 168.234375 C 302.253906 170.253906 302.605469 172.28125 302.90625 174.320312 C 303.210938 176.359375 303.460938 178.402344 303.664062 180.453125 C 303.867188 182.503906 304.015625 184.554688 304.117188 186.613281 C 304.21875 188.671875 304.269531 190.730469 304.269531 192.789062 Z M 304.269531 192.789062 " fill-opacity="1" fill-rule="nonzero"/><path fill="#ffffff" d="M 176.414062 19.429688 L 251.441406 19.429688 C 255.453125 19.429688 258.707031 22.679688 258.707031 26.691406 L 258.707031 101.71875 C 258.707031 105.730469 255.453125 108.984375 251.441406 108.984375 L 216.726562 108.984375 L 169.152344 33.421875 L 169.152344 26.691406 C 169.152344 22.679688 172.402344 19.429688 176.414062 19.429688 Z M 176.414062 19.429688 " fill-opacity="1" fill-rule="nonzero"/><g clip-path="url(#b3d4978c82)"><path fill="#430f63" d="M 251.441406 110.660156 L 216.726562 110.660156 C 216.152344 110.660156 215.617188 110.363281 215.308594 109.875 L 167.734375 34.3125 C 167.566406 34.046875 167.476562 33.738281 167.476562 33.421875 L 167.476562 26.691406 C 167.476562 21.761719 171.484375 17.753906 176.414062 17.753906 L 251.441406 17.753906 C 256.371094 17.753906 260.382812 21.761719 260.382812 26.691406 L 260.382812 101.71875 C 260.382812 106.648438 256.371094 110.660156 251.441406 110.660156 Z M 217.652344 107.308594 L 251.441406 107.308594 C 254.523438 107.308594 257.03125 104.800781 257.03125 101.71875 L 257.03125 26.691406 C 257.03125 23.609375 254.523438 21.105469 251.441406 21.105469 L 176.414062 21.105469 C 173.335938 21.105469 170.828125 23.609375 170.828125 26.691406 L 170.828125 32.9375 Z M 217.652344 107.308594 " fill-opacity="1" fill-rule="nonzero"/></g><path fill="#003152" d="M 239.117188 46.015625 C 239.117188 46.65625 239.054688 47.292969 238.929688 47.925781 C 238.804688 48.554688 238.617188 49.167969 238.371094 49.761719 C 238.125 50.355469 237.824219 50.921875 237.464844 51.457031 C 237.109375 51.992188 236.703125 52.484375 236.246094 52.941406 C 235.792969 53.394531 235.296875 53.800781 234.761719 54.160156 C 234.230469 54.515625 233.664062 54.816406 233.070312 55.0625 C 232.476562 55.308594 231.863281 55.496094 231.230469 55.621094 C 230.601562 55.746094 229.964844 55.808594 229.320312 55.808594 C 228.679688 55.808594 228.042969 55.746094 227.410156 55.621094 C 226.78125 55.496094 226.167969 55.308594 225.574219 55.0625 C 224.980469 54.816406 224.414062 54.515625 223.878906 54.160156 C 223.34375 53.800781 222.851562 53.394531 222.394531 52.941406 C 221.941406 52.484375 221.535156 51.992188 221.175781 51.457031 C 220.820312 50.921875 220.519531 50.355469 220.273438 49.761719 C 220.027344 49.167969 219.839844 48.554688 219.714844 47.925781 C 219.589844 47.292969 219.527344 46.65625 219.527344 46.015625 C 219.527344 45.371094 219.589844 44.734375 219.714844 44.105469 C 219.839844 43.472656 220.027344 42.859375 220.273438 42.265625 C 220.519531 41.671875 220.820312 41.109375 221.175781 40.574219 C 221.535156 40.039062 221.941406 39.542969 222.394531 39.089844 C 222.851562 38.632812 223.34375 38.226562 223.878906 37.871094 C 224.414062 37.511719 224.980469 37.210938 225.574219 36.964844 C 226.167969 36.71875 226.78125 36.535156 227.410156 36.40625 C 228.042969 36.28125 228.679688 36.21875 229.320312 36.21875 C 229.964844 36.21875 230.601562 36.28125 231.230469 36.40625 C 231.863281 36.535156 232.476562 36.71875 233.070312 36.964844 C 233.664062 37.210938 234.230469 37.511719 234.761719 37.871094 C 235.296875 38.226562 235.792969 38.632812 236.246094 39.089844 C 236.703125 39.542969 237.109375 40.039062 237.464844 40.574219 C 237.824219 41.109375 238.125 41.671875 238.371094 42.265625 C 238.617188 42.859375 238.804688 43.472656 238.929688 44.105469 C 239.054688 44.734375 239.117188 45.371094 239.117188 46.015625 Z M 239.117188 46.015625 " fill-opacity="1" fill-rule="nonzero"/><path fill="#430f63" d="M 229.320312 57.484375 C 222.996094 57.484375 217.851562 52.339844 217.851562 46.015625 C 217.851562 39.691406 222.996094 34.542969 229.320312 34.542969 C 235.648438 34.542969 240.792969 39.691406 240.792969 46.015625 C 240.792969 52.339844 235.648438 57.484375 229.320312 57.484375 Z M 229.320312 37.894531 C 224.84375 37.894531 221.203125 41.539062 221.203125 46.015625 C 221.203125 50.492188 224.84375 54.132812 229.320312 54.132812 C 233.796875 54.132812 237.441406 50.492188 237.441406 46.015625 C 237.441406 41.539062 233.796875 37.894531 229.320312 37.894531 Z M 229.320312 37.894531 " fill-opacity="1" fill-rule="nonzero"/><path fill="#98b7e4" d="M 217.242188 79.246094 C 222.136719 84.140625 230.074219 84.140625 234.96875 79.246094 C 239.863281 74.351562 247.800781 74.351562 252.695312 79.246094 L 258.707031 85.257812 L 258.707031 101.71875 C 258.707031 105.730469 255.453125 108.984375 251.441406 108.984375 L 216.859375 108.984375 Z M 217.242188 79.246094 " fill-opacity="1" fill-rule="nonzero"/><path fill="#430f63" d="M 251.441406 110.660156 L 216.859375 110.660156 C 216.410156 110.660156 215.980469 110.480469 215.667969 110.160156 C 215.351562 109.84375 215.175781 109.410156 215.183594 108.960938 L 215.566406 79.222656 C 215.574219 78.550781 215.984375 77.945312 216.609375 77.695312 C 217.234375 77.441406 217.949219 77.582031 218.425781 78.0625 C 222.660156 82.292969 229.550781 82.292969 233.78125 78.0625 C 236.464844 75.375 240.035156 73.898438 243.832031 73.898438 C 247.625 73.898438 251.195312 75.375 253.878906 78.0625 L 259.890625 84.074219 C 260.207031 84.386719 260.382812 84.8125 260.382812 85.257812 L 260.382812 101.71875 C 260.382812 106.648438 256.371094 110.660156 251.441406 110.660156 Z M 218.558594 107.308594 L 251.441406 107.308594 C 254.523438 107.308594 257.03125 104.800781 257.03125 101.71875 L 257.03125 85.953125 L 251.507812 80.429688 C 249.457031 78.378906 246.730469 77.25 243.832031 77.25 C 240.929688 77.25 238.203125 78.378906 236.152344 80.429688 C 231.476562 85.109375 224.324219 85.835938 218.875 82.617188 Z M 218.558594 107.308594 " fill-opacity="1" fill-rule="nonzero"/><path fill="#ffffff" d="M 191.539062 150.960938 L 191.539062 171.683594 C 191.539062 175.695312 188.289062 178.949219 184.277344 178.949219 L 80.710938 178.949219 C 75.457031 178.949219 71.195312 174.691406 71.191406 169.4375 L 71.175781 144.210938 L 71.199219 69.867188 L 104.933594 33.421875 L 181.476562 33.421875 C 185.488281 33.421875 188.742188 36.671875 188.742188 40.683594 L 188.742188 61.40625 Z M 191.539062 150.960938 " fill-opacity="1" fill-rule="nonzero"/><path fill="#430f63" d="M 184.277344 180.625 L 80.710938 180.625 C 74.542969 180.625 69.519531 175.609375 69.515625 169.441406 L 69.5 144.210938 L 69.523438 69.867188 C 69.523438 69.445312 69.683594 69.039062 69.96875 68.726562 L 103.703125 32.28125 C 104.019531 31.941406 104.464844 31.746094 104.929688 31.746094 L 181.476562 31.746094 C 186.40625 31.746094 190.417969 35.757812 190.417969 40.6875 L 190.417969 61.40625 C 190.417969 62.332031 189.667969 63.082031 188.742188 63.082031 C 187.816406 63.082031 187.066406 62.332031 187.066406 61.40625 L 187.066406 40.6875 C 187.066406 37.605469 184.558594 35.097656 181.476562 35.097656 L 105.664062 35.097656 L 72.875 70.523438 L 72.851562 144.210938 L 72.867188 169.4375 C 72.871094 173.757812 76.390625 177.273438 80.710938 177.273438 L 184.273438 177.273438 C 187.355469 177.273438 189.863281 174.765625 189.863281 171.683594 L 189.863281 150.964844 C 189.863281 150.039062 190.613281 149.285156 191.539062 149.285156 C 192.464844 149.285156 193.214844 150.039062 193.214844 150.964844 L 193.214844 171.683594 C 193.214844 176.613281 189.207031 180.625 184.277344 180.625 Z M 184.277344 180.625 " fill-opacity="1" fill-rule="nonzero"/><path fill="#98b7e4" d="M 104.933594 33.421875 L 104.933594 59.6875 C 104.933594 65.308594 100.375 69.867188 94.753906 69.867188 L 71.199219 69.867188 Z M 104.933594 33.421875 " fill-opacity="1" fill-rule="nonzero"/><path fill="#430f63" d="M 94.753906 71.542969 L 71.199219 71.542969 C 70.535156 71.542969 69.929688 71.148438 69.664062 70.539062 C 69.398438 69.925781 69.515625 69.21875 69.96875 68.726562 L 103.703125 32.28125 C 104.171875 31.777344 104.902344 31.609375 105.542969 31.859375 C 106.183594 32.113281 106.609375 32.730469 106.609375 33.421875 L 106.609375 59.6875 C 106.609375 66.226562 101.289062 71.542969 94.753906 71.542969 Z M 75.035156 68.191406 L 94.753906 68.191406 C 99.441406 68.191406 103.253906 64.375 103.253906 59.6875 L 103.253906 37.699219 Z M 75.035156 68.191406 " fill-opacity="1" fill-rule="nonzero"/><path fill="#430f63" d="M 113.179688 86.894531 L 93.589844 86.894531 C 92.664062 86.894531 91.914062 86.144531 91.914062 85.21875 C 91.914062 84.292969 92.664062 83.542969 93.589844 83.542969 L 113.179688 83.542969 C 114.105469 83.542969 114.855469 84.292969 114.855469 85.21875 C 114.855469 86.144531 114.105469 86.894531 113.179688 86.894531 Z M 113.179688 86.894531 " fill-opacity="1" fill-rule="nonzero"/><path fill="#430f63" d="M 113.179688 103.6875 L 93.589844 103.6875 C 92.664062 103.6875 91.914062 102.9375 91.914062 102.011719 C 91.914062 101.085938 92.664062 100.335938 93.589844 100.335938 L 113.179688 100.335938 C 114.105469 100.335938 114.855469 101.085938 114.855469 102.011719 C 114.855469 102.9375 114.105469 103.6875 113.179688 103.6875 Z M 113.179688 103.6875 " fill-opacity="1" fill-rule="nonzero"/><path fill="#430f63" d="M 113.179688 120.480469 L 93.589844 120.480469 C 92.664062 120.480469 91.914062 119.730469 91.914062 118.804688 C 91.914062 117.878906 92.664062 117.128906 93.589844 117.128906 L 113.179688 117.128906 C 114.105469 117.128906 114.855469 117.878906 114.855469 118.804688 C 114.855469 119.730469 114.105469 120.480469 113.179688 120.480469 Z M 113.179688 120.480469 " fill-opacity="1" fill-rule="nonzero"/><path fill="#003152" d="M 134.4375 61.40625 L 209.464844 61.40625 C 213.476562 61.40625 216.726562 64.660156 216.726562 68.671875 L 216.726562 143.699219 C 216.726562 147.710938 213.476562 150.960938 209.464844 150.960938 L 134.4375 150.960938 C 130.425781 150.960938 127.171875 147.710938 127.171875 143.699219 L 127.171875 68.671875 C 127.171875 64.660156 130.425781 61.40625 134.4375 61.40625 Z M 134.4375 61.40625 " fill-opacity="1" fill-rule="nonzero"/><path fill="#430f63" d="M 209.464844 152.640625 L 134.4375 152.640625 C 129.507812 152.640625 125.496094 148.628906 125.496094 143.699219 L 125.496094 68.671875 C 125.496094 63.742188 129.507812 59.730469 134.4375 59.730469 L 209.464844 59.730469 C 214.394531 59.730469 218.402344 63.742188 218.402344 68.671875 L 218.402344 143.699219 C 218.402344 148.628906 214.394531 152.640625 209.464844 152.640625 Z M 134.4375 63.082031 C 131.355469 63.082031 128.847656 65.589844 128.847656 68.671875 L 128.847656 143.699219 C 128.847656 146.78125 131.355469 149.285156 134.4375 149.285156 L 209.464844 149.285156 C 212.542969 149.285156 215.050781 146.78125 215.050781 143.699219 L 215.050781 68.671875 C 215.050781 65.589844 212.542969 63.082031 209.464844 63.082031 Z M 134.4375 63.082031 " fill-opacity="1" fill-rule="nonzero"/><path fill="#ffffff" d="M 153.929688 90.242188 L 153.929688 121.769531 C 153.929688 126.71875 159.378906 129.726562 163.566406 127.089844 L 188.605469 111.324219 C 192.519531 108.859375 192.519531 103.152344 188.605469 100.6875 L 163.566406 84.921875 C 159.378906 82.285156 153.929688 85.296875 153.929688 90.242188 Z M 153.929688 90.242188 " fill-opacity="1" fill-rule="nonzero"/><path fill="#430f63" d="M 160.222656 129.75 C 158.90625 129.75 157.585938 129.414062 156.367188 128.742188 C 153.792969 127.320312 152.253906 124.714844 152.253906 121.773438 L 152.253906 90.242188 C 152.253906 87.300781 153.792969 84.695312 156.367188 83.269531 C 158.945312 81.847656 161.96875 81.9375 164.457031 83.503906 L 189.496094 99.269531 C 191.824219 100.734375 193.214844 103.253906 193.214844 106.007812 C 193.214844 108.757812 191.824219 111.277344 189.496094 112.742188 L 164.457031 128.507812 C 163.148438 129.335938 161.6875 129.75 160.222656 129.75 Z M 160.21875 85.621094 C 159.457031 85.621094 158.695312 85.816406 157.988281 86.207031 C 156.496094 87.03125 155.605469 88.539062 155.605469 90.242188 L 155.605469 121.773438 C 155.605469 123.476562 156.496094 124.984375 157.988281 125.804688 C 159.480469 126.628906 161.230469 126.578125 162.671875 125.671875 L 187.710938 109.90625 C 189.058594 109.058594 189.863281 107.601562 189.863281 106.007812 C 189.863281 104.414062 189.058594 102.953125 187.710938 102.105469 L 162.671875 86.339844 C 161.914062 85.863281 161.066406 85.621094 160.21875 85.621094 Z M 160.21875 85.621094 " fill-opacity="1" fill-rule="nonzero"/><path fill="#98b7e4" d="M 105.359375 136.726562 C 105.359375 137.84375 105.304688 138.960938 105.195312 140.074219 C 105.085938 141.191406 104.921875 142.296875 104.703125 143.394531 C 104.484375 144.492188 104.214844 145.578125 103.890625 146.648438 C 103.5625 147.71875 103.1875 148.773438 102.757812 149.804688 C 102.332031 150.839844 101.851562 151.851562 101.324219 152.839844 C 100.796875 153.824219 100.222656 154.785156 99.601562 155.714844 C 98.976562 156.644531 98.3125 157.542969 97.601562 158.410156 C 96.890625 159.273438 96.140625 160.101562 95.347656 160.894531 C 94.558594 161.6875 93.730469 162.4375 92.863281 163.148438 C 92 163.855469 91.101562 164.523438 90.167969 165.144531 C 89.238281 165.765625 88.28125 166.34375 87.292969 166.871094 C 86.304688 167.398438 85.292969 167.875 84.261719 168.304688 C 83.226562 168.730469 82.171875 169.109375 81.101562 169.433594 C 80.03125 169.757812 78.945312 170.03125 77.847656 170.25 C 76.75 170.46875 75.644531 170.632812 74.53125 170.742188 C 73.417969 170.851562 72.300781 170.90625 71.179688 170.90625 C 70.0625 170.90625 68.945312 170.851562 67.832031 170.742188 C 66.714844 170.632812 65.609375 170.46875 64.511719 170.25 C 63.414062 170.03125 62.328125 169.757812 61.257812 169.433594 C 60.1875 169.109375 59.132812 168.730469 58.101562 168.304688 C 57.066406 167.875 56.054688 167.398438 55.066406 166.871094 C 54.082031 166.34375 53.121094 165.765625 52.191406 165.144531 C 51.261719 164.523438 50.363281 163.855469 49.496094 163.148438 C 48.632812 162.4375 47.804688 161.6875 47.011719 160.894531 C 46.21875 160.101562 45.46875 159.273438 44.757812 158.410156 C 44.046875 157.542969 43.382812 156.644531 42.761719 155.714844 C 42.140625 154.785156 41.5625 153.824219 41.035156 152.839844 C 40.507812 151.851562 40.03125 150.839844 39.601562 149.804688 C 39.171875 148.773438 38.796875 147.71875 38.472656 146.648438 C 38.148438 145.578125 37.875 144.492188 37.65625 143.394531 C 37.4375 142.296875 37.273438 141.191406 37.164062 140.074219 C 37.054688 138.960938 37 137.84375 37 136.726562 C 37 135.605469 37.054688 134.488281 37.164062 133.375 C 37.273438 132.261719 37.4375 131.15625 37.65625 130.058594 C 37.875 128.960938 38.148438 127.875 38.472656 126.804688 C 38.796875 125.734375 39.171875 124.679688 39.601562 123.644531 C 40.03125 122.609375 40.507812 121.601562 41.035156 120.613281 C 41.5625 119.625 42.140625 118.667969 42.761719 117.734375 C 43.382812 116.804688 44.046875 115.90625 44.757812 115.042969 C 45.46875 114.175781 46.21875 113.347656 47.011719 112.558594 C 47.804688 111.765625 48.632812 111.015625 49.496094 110.304688 C 50.363281 109.59375 51.261719 108.929688 52.191406 108.304688 C 53.121094 107.683594 54.082031 107.109375 55.066406 106.582031 C 56.054688 106.054688 57.066406 105.574219 58.101562 105.148438 C 59.132812 104.71875 60.1875 104.34375 61.257812 104.015625 C 62.328125 103.691406 63.414062 103.421875 64.511719 103.203125 C 65.609375 102.984375 66.714844 102.820312 67.832031 102.710938 C 68.945312 102.601562 70.0625 102.546875 71.179688 102.546875 C 72.300781 102.546875 73.417969 102.601562 74.53125 102.710938 C 75.644531 102.820312 76.75 102.984375 77.847656 103.203125 C 78.945312 103.421875 80.03125 103.691406 81.101562 104.015625 C 82.171875 104.34375 83.226562 104.71875 84.261719 105.148438 C 85.292969 105.574219 86.304688 106.054688 87.292969 106.582031 C 88.28125 107.109375 89.238281 107.683594 90.167969 108.304688 C 91.101562 108.929688 92 109.59375 92.863281 110.304688 C 93.730469 111.015625 94.558594 111.765625 95.347656 112.558594 C 96.140625 113.347656 96.890625 114.175781 97.601562 115.042969 C 98.3125 115.90625 98.976562 116.804688 99.601562 117.734375 C 100.222656 118.667969 100.796875 119.625 101.324219 120.613281 C 101.851562 121.601562 102.332031 122.609375 102.757812 123.644531 C 103.1875 124.679688 103.5625 125.734375 103.890625 126.804688 C 104.214844 127.875 104.484375 128.960938 104.703125 130.058594 C 104.921875 131.15625 105.085938 132.261719 105.195312 133.375 C 105.304688 134.488281 105.359375 135.605469 105.359375 136.726562 Z M 105.359375 136.726562 " fill-opacity="1" fill-rule="nonzero"/><path fill="#430f63" d="M 71.183594 172.582031 C 61.605469 172.582031 52.601562 168.851562 45.828125 162.082031 C 39.058594 155.308594 35.328125 146.304688 35.328125 136.726562 C 35.328125 127.148438 39.058594 118.144531 45.828125 111.371094 C 52.601562 104.597656 61.605469 100.871094 71.183594 100.871094 C 80.761719 100.871094 89.765625 104.597656 96.539062 111.371094 C 103.308594 118.144531 107.039062 127.148438 107.039062 136.726562 C 107.039062 146.304688 103.308594 155.308594 96.539062 162.082031 C 89.765625 168.851562 80.761719 172.582031 71.183594 172.582031 Z M 71.183594 104.222656 C 53.261719 104.222656 38.679688 118.804688 38.679688 136.726562 C 38.679688 154.648438 53.261719 169.230469 71.183594 169.230469 C 89.105469 169.230469 103.6875 154.648438 103.6875 136.726562 C 103.6875 118.804688 89.105469 104.222656 71.183594 104.222656 Z M 71.183594 104.222656 " fill-opacity="1" fill-rule="nonzero"/><path fill="#430f63" d="M 89.574219 140.722656 L 71.183594 140.722656 C 70.257812 140.722656 69.507812 139.972656 69.507812 139.046875 L 69.507812 116.015625 C 69.507812 115.089844 70.257812 114.339844 71.183594 114.339844 C 72.109375 114.339844 72.859375 115.089844 72.859375 116.015625 L 72.859375 137.371094 L 89.574219 137.371094 C 90.5 137.371094 91.25 138.121094 91.25 139.046875 C 91.25 139.972656 90.5 140.722656 89.574219 140.722656 Z M 89.574219 140.722656 " fill-opacity="1" fill-rule="nonzero"/><path fill="#ffffff" d="M 328.351562 351.695312 C 328.351562 353.816406 326.632812 355.535156 324.511719 355.535156 L 215.917969 355.535156 C 213.796875 355.535156 212.078125 353.816406 212.078125 351.695312 L 212.078125 243.101562 C 212.078125 240.980469 213.796875 239.261719 215.917969 239.261719 L 324.511719 239.261719 C 326.632812 239.261719 328.351562 240.980469 328.351562 243.101562 Z M 328.351562 351.695312 " fill-opacity="1" fill-rule="nonzero"/><g clip-path="url(#a6490da6c9)"><path fill="#430f63" d="M 324.511719 357.246094 L 215.917969 357.246094 C 212.859375 357.246094 210.371094 354.753906 210.371094 351.695312 L 210.371094 243.101562 C 210.371094 240.039062 212.859375 237.550781 215.917969 237.550781 L 324.511719 237.550781 C 327.574219 237.550781 330.0625 240.039062 330.0625 243.101562 L 330.0625 351.695312 C 330.0625 354.753906 327.574219 357.246094 324.511719 357.246094 Z M 215.917969 240.96875 C 214.746094 240.96875 213.789062 241.925781 213.789062 243.101562 L 213.789062 351.695312 C 213.789062 352.871094 214.746094 353.824219 215.917969 353.824219 L 324.511719 353.824219 C 325.6875 353.824219 326.644531 352.871094 326.644531 351.695312 L 326.644531 243.101562 C 326.644531 241.925781 325.6875 240.96875 324.511719 240.96875 Z M 215.917969 240.96875 " fill-opacity="1" fill-rule="nonzero"/></g><path fill="#ffffff" d="M 307.007812 311.617188 L 233.222656 311.617188 C 229.90625 311.617188 227.21875 308.929688 227.21875 305.613281 L 227.21875 261.1875 C 227.21875 257.871094 229.90625 255.183594 233.222656 255.183594 L 307.007812 255.183594 C 310.324219 255.183594 313.011719 257.871094 313.011719 261.1875 L 313.011719 305.613281 C 313.011719 308.929688 310.324219 311.617188 307.007812 311.617188 Z M 307.007812 311.617188 " fill-opacity="1" fill-rule="nonzero"/><path fill="#430f63" d="M 307.007812 313.324219 L 233.222656 313.324219 C 228.96875 313.324219 225.511719 309.867188 225.511719 305.613281 L 225.511719 261.1875 C 225.511719 256.933594 228.96875 253.472656 233.222656 253.472656 L 307.007812 253.472656 C 311.261719 253.472656 314.722656 256.933594 314.722656 261.1875 L 314.722656 305.613281 C 314.722656 309.867188 311.261719 313.324219 307.007812 313.324219 Z M 233.222656 256.894531 C 230.855469 256.894531 228.929688 258.820312 228.929688 261.1875 L 228.929688 305.613281 C 228.929688 307.980469 230.855469 309.90625 233.222656 309.90625 L 307.007812 309.90625 C 309.375 309.90625 311.300781 307.980469 311.300781 305.613281 L 311.300781 261.1875 C 311.300781 258.820312 309.375 256.894531 307.007812 256.894531 Z M 233.222656 256.894531 " fill-opacity="1" fill-rule="nonzero"/><path fill="#430f63" d="M 316.203125 340.675781 L 224.03125 340.675781 C 223.085938 340.675781 222.320312 339.910156 222.320312 338.964844 C 222.320312 338.019531 223.085938 337.253906 224.03125 337.253906 L 316.203125 337.253906 C 317.144531 337.253906 317.910156 338.019531 317.910156 338.964844 C 317.910156 339.910156 317.144531 340.675781 316.203125 340.675781 Z M 316.203125 340.675781 " fill-opacity="1" fill-rule="nonzero"/><path fill="#430f63" d="M 316.203125 326.152344 L 224.03125 326.152344 C 223.085938 326.152344 222.320312 325.386719 222.320312 324.441406 C 222.320312 323.496094 223.085938 322.730469 224.03125 322.730469 L 316.203125 322.730469 C 317.144531 322.730469 317.910156 323.496094 317.910156 324.441406 C 317.910156 325.386719 317.144531 326.152344 316.203125 326.152344 Z M 316.203125 326.152344 " fill-opacity="1" fill-rule="nonzero"/><path fill="#98b7e4" d="M 286.988281 107.566406 L 286.988281 148.769531 L 246.890625 148.769531 L 246.890625 124.316406 Z M 286.988281 107.566406 " fill-opacity="1" fill-rule="nonzero"/><path fill="#430f63" d="M 286.988281 150.476562 L 246.890625 150.476562 C 245.949219 150.476562 245.183594 149.710938 245.183594 148.769531 L 245.183594 124.316406 C 245.183594 123.371094 245.949219 122.605469 246.890625 122.605469 C 247.835938 122.605469 248.601562 123.371094 248.601562 124.316406 L 248.601562 147.058594 L 285.28125 147.058594 L 285.28125 107.566406 C 285.28125 106.621094 286.046875 105.855469 286.988281 105.855469 C 287.933594 105.855469 288.699219 106.621094 288.699219 107.566406 L 288.699219 148.769531 C 288.699219 149.710938 287.933594 150.476562 286.988281 150.476562 Z M 286.988281 150.476562 " fill-opacity="1" fill-rule="nonzero"/><path fill="#98b7e4" d="M 245.859375 188.542969 L 230.121094 204.28125 L 239.148438 213.3125 L 239.148438 245.042969 L 214.246094 220.140625 L 204.460938 210.359375 C 201.105469 207.003906 201.105469 201.5625 204.460938 198.207031 L 214.246094 188.425781 L 238.796875 163.871094 Z M 245.859375 188.542969 " fill-opacity="1" fill-rule="nonzero"/><path fill="#430f63" d="M 239.152344 246.75 C 238.707031 246.75 238.269531 246.578125 237.941406 246.25 L 213.035156 221.351562 L 203.25 211.566406 C 201.304688 209.621094 200.234375 207.035156 200.234375 204.28125 C 200.234375 201.53125 201.304688 198.945312 203.25 197 L 237.589844 162.664062 C 238.015625 162.234375 238.640625 162.0625 239.226562 162.214844 C 239.8125 162.367188 240.273438 162.820312 240.441406 163.402344 L 247.503906 188.074219 C 247.675781 188.671875 247.507812 189.3125 247.066406 189.753906 L 232.539062 204.28125 L 240.359375 212.101562 C 240.679688 212.425781 240.859375 212.859375 240.859375 213.3125 L 240.859375 245.042969 C 240.859375 245.734375 240.445312 246.355469 239.804688 246.621094 C 239.59375 246.710938 239.371094 246.75 239.152344 246.75 Z M 237.953125 167.132812 L 205.671875 199.417969 C 204.371094 200.71875 203.65625 202.445312 203.65625 204.28125 C 203.65625 206.121094 204.371094 207.847656 205.671875 209.148438 L 215.453125 218.933594 L 237.441406 240.914062 L 237.441406 214.019531 L 228.910156 205.492188 C 228.242188 204.824219 228.242188 203.742188 228.910156 203.074219 L 243.9375 188.046875 Z M 237.953125 167.132812 " fill-opacity="1" fill-rule="nonzero"/><path fill="#430f63" d="M 230.121094 205.992188 L 219.128906 205.992188 C 218.183594 205.992188 217.417969 205.226562 217.417969 204.28125 C 217.417969 203.339844 218.183594 202.574219 219.128906 202.574219 L 230.121094 202.574219 C 231.066406 202.574219 231.832031 203.339844 231.832031 204.28125 C 231.832031 205.226562 231.066406 205.992188 230.121094 205.992188 Z M 230.121094 205.992188 " fill-opacity="1" fill-rule="nonzero"/><path fill="#98b7e4" d="M 294.722656 232.234375 L 294.722656 213.316406 L 303.765625 204.273438 L 288.050781 188.558594 L 288.027344 188.539062 L 295.074219 163.871094 L 295.097656 163.890625 L 319.632812 188.429688 L 329.421875 198.21875 C 332.78125 201.554688 332.78125 206.996094 329.421875 210.355469 L 319.632812 220.144531 L 306.617188 233.136719 Z M 294.722656 232.234375 " fill-opacity="1" fill-rule="nonzero"/><path fill="#430f63" d="M 306.617188 234.847656 C 306.574219 234.847656 306.53125 234.84375 306.488281 234.839844 L 294.59375 233.941406 C 293.703125 233.875 293.011719 233.128906 293.011719 232.234375 L 293.011719 213.316406 C 293.011719 212.863281 293.191406 212.429688 293.511719 212.109375 L 301.347656 204.273438 L 286.816406 189.746094 C 286.378906 189.304688 286.214844 188.664062 286.382812 188.070312 L 293.429688 163.398438 C 293.597656 162.816406 294.058594 162.367188 294.644531 162.214844 C 295.230469 162.0625 295.851562 162.230469 296.28125 162.65625 L 296.304688 162.679688 L 330.628906 197.007812 C 332.570312 198.9375 333.644531 201.511719 333.648438 204.261719 C 333.65625 207.019531 332.582031 209.613281 330.628906 211.5625 L 320.84375 221.351562 L 307.824219 234.347656 C 307.503906 234.667969 307.070312 234.847656 306.617188 234.847656 Z M 296.433594 230.648438 L 305.964844 231.371094 L 318.425781 218.933594 L 328.210938 209.144531 C 329.515625 207.839844 330.234375 206.109375 330.230469 204.265625 C 330.226562 202.433594 329.511719 200.71875 328.214844 199.429688 L 295.917969 167.132812 L 289.949219 188.039062 L 304.972656 203.066406 C 305.292969 203.386719 305.476562 203.820312 305.476562 204.273438 C 305.476562 204.726562 305.292969 205.164062 304.972656 205.484375 L 296.433594 214.023438 Z M 296.433594 230.648438 " fill-opacity="1" fill-rule="nonzero"/><path fill="#430f63" d="M 314.753906 205.992188 L 303.761719 205.992188 C 302.816406 205.992188 302.050781 205.226562 302.050781 204.28125 C 302.050781 203.339844 302.816406 202.574219 303.761719 202.574219 L 314.753906 202.574219 C 315.699219 202.574219 316.464844 203.339844 316.464844 204.28125 C 316.464844 205.226562 315.699219 205.992188 314.753906 205.992188 Z M 314.753906 205.992188 " fill-opacity="1" fill-rule="nonzero"/><path fill="#ffffff" d="M 295.578125 169.179688 C 295.578125 170.117188 295.53125 171.054688 295.4375 171.988281 C 295.347656 172.921875 295.210938 173.847656 295.027344 174.765625 C 294.84375 175.6875 294.617188 176.597656 294.34375 177.492188 C 294.070312 178.390625 293.757812 179.273438 293.398438 180.140625 C 293.039062 181.003906 292.636719 181.851562 292.195312 182.679688 C 291.753906 183.507812 291.273438 184.308594 290.75 185.089844 C 290.230469 185.871094 289.671875 186.621094 289.078125 187.347656 C 288.480469 188.074219 287.851562 188.765625 287.191406 189.429688 C 286.527344 190.09375 285.832031 190.722656 285.109375 191.316406 C 284.382812 191.910156 283.628906 192.46875 282.851562 192.992188 C 282.070312 193.511719 281.265625 193.992188 280.441406 194.4375 C 279.613281 194.878906 278.765625 195.277344 277.898438 195.636719 C 277.03125 195.996094 276.152344 196.3125 275.253906 196.582031 C 274.355469 196.855469 273.449219 197.082031 272.527344 197.265625 C 271.609375 197.449219 270.679688 197.585938 269.746094 197.679688 C 268.816406 197.769531 267.878906 197.816406 266.941406 197.816406 C 266.003906 197.816406 265.066406 197.769531 264.132812 197.679688 C 263.199219 197.585938 262.273438 197.449219 261.355469 197.265625 C 260.433594 197.082031 259.527344 196.855469 258.628906 196.582031 C 257.730469 196.3125 256.847656 195.996094 255.980469 195.636719 C 255.117188 195.277344 254.269531 194.878906 253.441406 194.4375 C 252.613281 193.992188 251.8125 193.511719 251.03125 192.992188 C 250.25 192.46875 249.5 191.910156 248.773438 191.316406 C 248.050781 190.722656 247.355469 190.09375 246.691406 189.429688 C 246.027344 188.765625 245.398438 188.074219 244.804688 187.347656 C 244.210938 186.621094 243.652344 185.871094 243.128906 185.089844 C 242.609375 184.308594 242.128906 183.507812 241.6875 182.679688 C 241.242188 181.851562 240.84375 181.003906 240.484375 180.140625 C 240.125 179.273438 239.808594 178.390625 239.539062 177.492188 C 239.265625 176.597656 239.039062 175.6875 238.855469 174.765625 C 238.671875 173.847656 238.535156 172.921875 238.441406 171.988281 C 238.351562 171.054688 238.304688 170.117188 238.304688 169.179688 C 238.304688 168.242188 238.351562 167.308594 238.441406 166.375 C 238.535156 165.441406 238.671875 164.515625 238.855469 163.59375 C 239.039062 162.675781 239.265625 161.765625 239.539062 160.867188 C 239.808594 159.96875 240.125 159.089844 240.484375 158.222656 C 240.84375 157.355469 241.242188 156.507812 241.6875 155.683594 C 242.128906 154.855469 242.609375 154.050781 243.132812 153.269531 C 243.652344 152.492188 244.210938 151.738281 244.804688 151.015625 C 245.398438 150.289062 246.027344 149.59375 246.691406 148.933594 C 247.355469 148.269531 248.050781 147.640625 248.773438 147.042969 C 249.5 146.449219 250.25 145.890625 251.03125 145.371094 C 251.8125 144.847656 252.613281 144.367188 253.441406 143.925781 C 254.269531 143.484375 255.117188 143.082031 255.980469 142.722656 C 256.847656 142.367188 257.730469 142.050781 258.628906 141.777344 C 259.527344 141.503906 260.433594 141.277344 261.355469 141.09375 C 262.273438 140.910156 263.199219 140.773438 264.132812 140.683594 C 265.066406 140.589844 266.003906 140.542969 266.941406 140.542969 C 267.878906 140.542969 268.816406 140.589844 269.746094 140.683594 C 270.679688 140.773438 271.609375 140.910156 272.527344 141.09375 C 273.449219 141.277344 274.355469 141.503906 275.253906 141.777344 C 276.152344 142.050781 277.03125 142.367188 277.898438 142.722656 C 278.765625 143.082031 279.613281 143.484375 280.441406 143.925781 C 281.265625 144.367188 282.070312 144.847656 282.851562 145.371094 C 283.628906 145.890625 284.382812 146.449219 285.109375 147.042969 C 285.832031 147.640625 286.527344 148.269531 287.191406 148.933594 C 287.851562 149.59375 288.480469 150.289062 289.078125 151.015625 C 289.671875 151.738281 290.230469 152.492188 290.75 153.269531 C 291.273438 154.050781 291.753906 154.855469 292.195312 155.683594 C 292.636719 156.507812 293.039062 157.355469 293.398438 158.222656 C 293.757812 159.089844 294.070312 159.96875 294.34375 160.867188 C 294.617188 161.765625 294.84375 162.675781 295.027344 163.59375 C 295.210938 164.515625 295.347656 165.441406 295.4375 166.375 C 295.53125 167.308594 295.578125 168.242188 295.578125 169.179688 Z M 295.578125 169.179688 " fill-opacity="1" fill-rule="nonzero"/><path fill="#430f63" d="M 266.941406 199.527344 C 250.207031 199.527344 236.59375 185.914062 236.59375 169.179688 C 236.59375 152.449219 250.207031 138.835938 266.941406 138.835938 C 283.675781 138.835938 297.285156 152.449219 297.285156 169.179688 C 297.285156 185.914062 283.675781 199.527344 266.941406 199.527344 Z M 266.941406 142.253906 C 252.09375 142.253906 240.015625 154.332031 240.015625 169.179688 C 240.015625 184.027344 252.09375 196.105469 266.941406 196.105469 C 281.789062 196.105469 293.867188 184.027344 293.867188 169.179688 C 293.867188 154.332031 281.789062 142.253906 266.941406 142.253906 Z M 266.941406 142.253906 " fill-opacity="1" fill-rule="nonzero"/><path fill="#003152" d="M 280.542969 169.179688 C 280.542969 170.074219 280.457031 170.957031 280.28125 171.835938 C 280.109375 172.710938 279.847656 173.5625 279.507812 174.386719 C 279.167969 175.210938 278.746094 175.996094 278.25 176.738281 C 277.753906 177.480469 277.191406 178.167969 276.558594 178.800781 C 275.925781 179.429688 275.242188 179.996094 274.496094 180.492188 C 273.753906 180.988281 272.972656 181.40625 272.144531 181.746094 C 271.320312 182.089844 270.46875 182.347656 269.59375 182.523438 C 268.71875 182.695312 267.835938 182.78125 266.941406 182.78125 C 266.046875 182.78125 265.164062 182.695312 264.289062 182.523438 C 263.410156 182.347656 262.5625 182.089844 261.734375 181.746094 C 260.910156 181.40625 260.125 180.988281 259.382812 180.492188 C 258.640625 179.996094 257.953125 179.429688 257.324219 178.800781 C 256.691406 178.167969 256.128906 177.480469 255.632812 176.738281 C 255.136719 175.996094 254.714844 175.210938 254.375 174.386719 C 254.03125 173.5625 253.773438 172.710938 253.601562 171.835938 C 253.425781 170.957031 253.339844 170.074219 253.339844 169.179688 C 253.339844 168.289062 253.425781 167.402344 253.601562 166.527344 C 253.773438 165.652344 254.03125 164.800781 254.375 163.976562 C 254.714844 163.148438 255.136719 162.367188 255.632812 161.625 C 256.128906 160.882812 256.691406 160.195312 257.324219 159.5625 C 257.953125 158.929688 258.640625 158.367188 259.382812 157.871094 C 260.125 157.375 260.910156 156.957031 261.734375 156.613281 C 262.5625 156.273438 263.410156 156.015625 264.289062 155.839844 C 265.164062 155.664062 266.046875 155.578125 266.941406 155.578125 C 267.835938 155.578125 268.71875 155.664062 269.59375 155.839844 C 270.46875 156.015625 271.320312 156.273438 272.144531 156.613281 C 272.972656 156.957031 273.753906 157.375 274.496094 157.871094 C 275.242188 158.367188 275.925781 158.929688 276.558594 159.5625 C 277.191406 160.195312 277.753906 160.882812 278.25 161.625 C 278.746094 162.367188 279.167969 163.148438 279.507812 163.976562 C 279.847656 164.800781 280.109375 165.652344 280.28125 166.527344 C 280.457031 167.402344 280.542969 168.289062 280.542969 169.179688 Z M 280.542969 169.179688 " fill-opacity="1" fill-rule="nonzero"/><path fill="#430f63" d="M 266.941406 184.492188 C 258.496094 184.492188 251.628906 177.625 251.628906 169.179688 C 251.628906 160.738281 258.496094 153.867188 266.941406 153.867188 C 275.382812 153.867188 282.253906 160.738281 282.253906 169.179688 C 282.253906 177.625 275.382812 184.492188 266.941406 184.492188 Z M 266.941406 157.289062 C 260.382812 157.289062 255.050781 162.625 255.050781 169.179688 C 255.050781 175.738281 260.382812 181.074219 266.941406 181.074219 C 273.5 181.074219 278.832031 175.738281 278.832031 169.179688 C 278.832031 162.625 273.5 157.289062 266.941406 157.289062 Z M 266.941406 157.289062 " fill-opacity="1" fill-rule="nonzero"/><path fill="#003152" d="M 323.160156 237.691406 L 323.160156 237.652344 L 315.394531 237.652344 L 315.394531 236.6875 C 315.394531 229.3125 309.628906 222.988281 302.257812 222.851562 C 294.746094 222.714844 288.613281 228.761719 288.613281 236.242188 L 288.613281 237.652344 L 281.578125 237.652344 C 277.03125 237.652344 273.34375 241.339844 273.34375 245.886719 L 273.34375 246.617188 C 273.34375 250.761719 276.707031 254.121094 280.851562 254.121094 L 323.160156 254.121094 C 327.304688 254.121094 330.667969 250.761719 330.667969 246.617188 L 330.667969 245.886719 C 330.664062 241.585938 327.363281 238.058594 323.160156 237.691406 Z M 323.160156 237.691406 " fill-opacity="1" fill-rule="nonzero"/><path fill="#430f63" d="M 323.160156 255.832031 L 280.851562 255.832031 C 275.769531 255.832031 271.632812 251.699219 271.632812 246.617188 L 271.632812 245.886719 C 271.632812 240.40625 276.09375 235.941406 281.578125 235.941406 L 286.90625 235.941406 C 286.984375 231.96875 288.582031 228.257812 291.425781 225.464844 C 294.339844 222.605469 298.195312 221.066406 302.289062 221.144531 C 310.21875 221.289062 316.710938 227.859375 317.089844 235.941406 L 323.160156 235.941406 C 323.34375 235.941406 323.523438 235.972656 323.691406 236.027344 C 326.011719 236.320312 328.152344 237.421875 329.746094 239.15625 C 331.441406 240.992188 332.375 243.386719 332.375 245.886719 L 332.375 246.617188 C 332.375 251.699219 328.242188 255.832031 323.160156 255.832031 Z M 281.578125 239.363281 C 277.980469 239.363281 275.054688 242.289062 275.054688 245.886719 L 275.054688 246.617188 C 275.054688 249.8125 277.65625 252.414062 280.851562 252.414062 L 323.160156 252.414062 C 326.355469 252.414062 328.957031 249.8125 328.957031 246.617188 L 328.957031 245.886719 C 328.957031 242.539062 326.34375 239.6875 323.007812 239.394531 C 322.941406 239.386719 322.871094 239.378906 322.804688 239.363281 L 315.394531 239.363281 C 314.453125 239.363281 313.6875 238.597656 313.6875 237.652344 L 313.6875 236.6875 C 313.6875 230.117188 308.542969 224.679688 302.226562 224.5625 C 299.066406 224.507812 296.078125 225.691406 293.820312 227.90625 C 291.566406 230.121094 290.324219 233.082031 290.324219 236.242188 L 290.324219 237.652344 C 290.324219 238.597656 289.558594 239.363281 288.613281 239.363281 Z M 281.578125 239.363281 " fill-opacity="1" fill-rule="nonzero"/><path fill="#003152" d="M 258.964844 271.75 L 258.964844 295.050781 C 258.964844 298.703125 262.992188 300.925781 266.085938 298.980469 L 284.589844 287.332031 C 287.480469 285.507812 287.480469 281.292969 284.589844 279.46875 L 266.085938 267.820312 C 262.992188 265.871094 258.964844 268.09375 258.964844 271.75 Z M 258.964844 271.75 " fill-opacity="1" fill-rule="nonzero"/><path fill="#430f63" d="M 263.617188 301.417969 C 262.566406 301.417969 261.511719 301.148438 260.539062 300.613281 C 258.484375 299.476562 257.257812 297.398438 257.257812 295.050781 L 257.257812 271.75 C 257.257812 269.402344 258.484375 267.320312 260.539062 266.1875 C 262.59375 265.050781 265.011719 265.121094 266.996094 266.371094 L 285.5 278.023438 C 287.359375 279.191406 288.46875 281.203125 288.46875 283.398438 C 288.46875 285.597656 287.359375 287.605469 285.5 288.777344 L 266.996094 300.425781 C 265.949219 301.085938 264.785156 301.417969 263.617188 301.417969 Z M 263.613281 268.808594 C 263.128906 268.808594 262.640625 268.933594 262.191406 269.179688 C 261.242188 269.707031 260.675781 270.664062 260.675781 271.75 L 260.675781 295.050781 C 260.675781 296.132812 261.242188 297.09375 262.191406 297.617188 C 263.140625 298.140625 264.257812 298.109375 265.175781 297.53125 L 283.675781 285.882812 C 284.546875 285.335938 285.046875 284.429688 285.046875 283.398438 C 285.046875 282.371094 284.546875 281.464844 283.675781 280.917969 L 265.175781 269.265625 C 264.691406 268.960938 264.152344 268.808594 263.613281 268.808594 Z M 263.613281 268.808594 " fill-opacity="1" fill-rule="nonzero"/><path fill="#ffffff" d="M 165.726562 259.960938 L 165.726562 350.882812 C 165.726562 353.453125 163.644531 355.535156 161.074219 355.535156 L 29.496094 355.535156 C 26.925781 355.535156 24.84375 353.453125 24.84375 350.882812 L 24.84375 219.304688 C 24.84375 216.734375 26.925781 214.652344 29.496094 214.652344 L 106.457031 214.652344 Z M 165.726562 259.960938 " fill-opacity="1" fill-rule="nonzero"/><g clip-path="url(#8c5b51f3ee)"><path fill="#430f63" d="M 161.074219 357.246094 L 29.496094 357.246094 C 25.988281 357.246094 23.132812 354.390625 23.132812 350.882812 L 23.132812 219.304688 C 23.132812 215.796875 25.988281 212.941406 29.496094 212.941406 L 106.457031 212.941406 C 107.398438 212.941406 108.164062 213.707031 108.164062 214.652344 C 108.164062 215.597656 107.398438 216.363281 106.457031 216.363281 L 29.496094 216.363281 C 27.875 216.363281 26.554688 217.679688 26.554688 219.304688 L 26.554688 350.882812 C 26.554688 352.503906 27.875 353.824219 29.496094 353.824219 L 161.074219 353.824219 C 162.695312 353.824219 164.015625 352.503906 164.015625 350.882812 L 164.015625 259.960938 C 164.015625 259.015625 164.78125 258.25 165.726562 258.25 C 166.671875 258.25 167.4375 259.015625 167.4375 259.960938 L 167.4375 350.882812 C 167.4375 354.390625 164.582031 357.246094 161.074219 357.246094 Z M 161.074219 357.246094 " fill-opacity="1" fill-rule="nonzero"/></g><path fill="#003152" d="M 94.378906 342.710938 L 42.28125 342.710938 C 39.941406 342.710938 38.042969 340.8125 38.042969 338.472656 L 38.042969 307.105469 C 38.042969 304.761719 39.941406 302.867188 42.28125 302.867188 L 94.378906 302.867188 C 96.71875 302.867188 98.617188 304.761719 98.617188 307.105469 L 98.617188 338.472656 C 98.617188 340.8125 96.71875 342.710938 94.378906 342.710938 Z M 94.378906 342.710938 " fill-opacity="1" fill-rule="nonzero"/><path fill="#430f63" d="M 94.378906 344.421875 L 42.28125 344.421875 C 39 344.421875 36.332031 341.753906 36.332031 338.472656 L 36.332031 307.105469 C 36.332031 303.824219 39 301.15625 42.28125 301.15625 L 94.378906 301.15625 C 97.660156 301.15625 100.328125 303.824219 100.328125 307.105469 L 100.328125 338.472656 C 100.328125 341.753906 97.660156 344.421875 94.378906 344.421875 Z M 42.28125 304.574219 C 40.886719 304.574219 39.753906 305.710938 39.753906 307.105469 L 39.753906 338.472656 C 39.753906 339.867188 40.886719 341 42.28125 341 L 94.378906 341 C 95.773438 341 96.90625 339.867188 96.90625 338.472656 L 96.90625 307.105469 C 96.90625 305.710938 95.773438 304.574219 94.378906 304.574219 Z M 42.28125 304.574219 " fill-opacity="1" fill-rule="nonzero"/><path fill="#003152" d="M 106.453125 214.652344 L 29.496094 214.652344 C 26.925781 214.652344 24.84375 216.734375 24.84375 219.304688 L 24.84375 234.835938 L 123.335938 234.835938 L 123.335938 227.554688 Z M 106.453125 214.652344 " fill-opacity="1" fill-rule="nonzero"/><path fill="#430f63" d="M 123.335938 236.542969 L 24.84375 236.542969 C 23.898438 236.542969 23.132812 235.777344 23.132812 234.835938 L 23.132812 219.304688 C 23.132812 215.796875 25.988281 212.941406 29.496094 212.941406 L 106.453125 212.941406 C 106.832031 212.941406 107.195312 213.066406 107.492188 213.292969 L 124.371094 226.195312 C 124.796875 226.519531 125.042969 227.023438 125.042969 227.554688 L 125.042969 234.835938 C 125.042969 235.777344 124.277344 236.542969 123.335938 236.542969 Z M 26.554688 233.125 L 121.625 233.125 L 121.625 228.398438 L 105.875 216.363281 L 29.496094 216.363281 C 27.875 216.363281 26.554688 217.679688 26.554688 219.304688 Z M 26.554688 233.125 " fill-opacity="1" fill-rule="nonzero"/><path fill="#ffffff" d="M 38.042969 258.402344 C 38.042969 256.0625 39.941406 254.164062 42.28125 254.164062 L 94.378906 254.164062 C 96.71875 254.164062 98.617188 256.0625 98.617188 258.402344 L 98.617188 289.769531 C 98.617188 292.109375 96.71875 294.007812 94.378906 294.007812 L 44.523438 294.007812 Z M 38.042969 258.402344 " fill-opacity="1" fill-rule="nonzero"/><path fill="#430f63" d="M 94.378906 295.71875 L 44.523438 295.71875 C 43.699219 295.71875 42.992188 295.128906 42.84375 294.316406 L 36.359375 258.707031 C 36.339844 258.605469 36.332031 258.503906 36.332031 258.402344 C 36.332031 255.121094 39 252.453125 42.28125 252.453125 L 94.378906 252.453125 C 97.660156 252.453125 100.328125 255.121094 100.328125 258.402344 L 100.328125 289.769531 C 100.328125 293.050781 97.660156 295.71875 94.378906 295.71875 Z M 45.953125 292.296875 L 94.378906 292.296875 C 95.773438 292.296875 96.90625 291.164062 96.90625 289.769531 L 96.90625 258.402344 C 96.90625 257.007812 95.773438 255.871094 94.378906 255.871094 L 42.28125 255.871094 C 40.933594 255.871094 39.824219 256.933594 39.753906 258.265625 Z M 45.953125 292.296875 " fill-opacity="1" fill-rule="nonzero"/><path fill="#003152" d="M 90.304688 268.644531 C 90.304688 272.179688 87.4375 275.046875 83.902344 275.046875 C 80.367188 275.046875 77.5 272.179688 77.5 268.644531 C 77.5 265.109375 80.367188 262.242188 83.902344 262.242188 C 87.4375 262.242188 90.304688 265.109375 90.304688 268.644531 Z M 90.304688 268.644531 " fill-opacity="1" fill-rule="nonzero"/><path fill="#430f63" d="M 83.902344 276.753906 C 79.429688 276.753906 75.789062 273.117188 75.789062 268.644531 C 75.789062 264.171875 79.429688 260.53125 83.902344 260.53125 C 88.375 260.53125 92.015625 264.171875 92.015625 268.644531 C 92.015625 273.117188 88.375 276.753906 83.902344 276.753906 Z M 83.902344 263.953125 C 81.316406 263.953125 79.210938 266.054688 79.210938 268.644531 C 79.210938 271.230469 81.316406 273.335938 83.902344 273.335938 C 86.488281 273.335938 88.59375 271.230469 88.59375 268.644531 C 88.59375 266.054688 86.488281 263.953125 83.902344 263.953125 Z M 83.902344 263.953125 " fill-opacity="1" fill-rule="nonzero"/><path fill="#98b7e4" d="M 73.550781 294.007812 L 38.042969 258.5 L 38.042969 258.402344 L 38.042969 289.769531 C 38.042969 292.109375 39.941406 294.007812 42.28125 294.007812 C 42.28125 294.007812 88.570312 294.007812 88.570312 294.007812 L 66.265625 271.804688 C 64.515625 270.0625 61.675781 270.0625 59.925781 271.804688 L 55.679688 276.042969 Z M 73.550781 294.007812 " fill-opacity="1" fill-rule="nonzero"/><path fill="#430f63" d="M 88.570312 295.71875 C 88.5625 295.71875 88.558594 295.71875 88.550781 295.71875 C 88.238281 295.71875 81.667969 295.71875 73.570312 295.71875 C 73.554688 295.71875 73.542969 295.71875 73.527344 295.71875 C 60.125 295.71875 42.566406 295.71875 42.28125 295.71875 C 39 295.71875 36.332031 293.050781 36.332031 289.769531 L 36.332031 258.402344 C 36.332031 257.457031 37.097656 256.691406 38.042969 256.691406 C 38.691406 256.691406 39.257812 257.054688 39.546875 257.585938 L 55.632812 273.675781 L 58.71875 270.59375 C 61.132812 268.191406 65.058594 268.191406 67.472656 270.59375 L 89.777344 292.796875 L 89.773438 292.800781 C 90.167969 293.199219 90.28125 293.734375 90.28125 294.011719 C 90.28125 294.699219 89.863281 295.324219 89.226562 295.589844 C 89.015625 295.675781 88.792969 295.71875 88.570312 295.71875 Z M 74.257812 292.296875 L 84.425781 292.300781 L 65.058594 273.015625 C 63.976562 271.941406 62.214844 271.941406 61.132812 273.015625 L 58.050781 276.09375 Z M 39.753906 262.628906 L 39.753906 289.769531 C 39.753906 291.164062 40.886719 292.296875 42.28125 292.296875 L 69.421875 292.296875 Z M 39.753906 262.628906 " fill-opacity="1" fill-rule="nonzero"/><path fill="#ffffff" d="M 61.761719 310.457031 L 79.765625 320.851562 C 81.253906 321.710938 81.253906 323.863281 79.765625 324.726562 L 61.761719 335.117188 C 60.273438 335.980469 58.40625 334.902344 58.40625 333.179688 L 58.40625 312.394531 C 58.40625 310.675781 60.273438 309.597656 61.761719 310.457031 Z M 61.761719 310.457031 " fill-opacity="1" fill-rule="nonzero"/><path fill="#430f63" d="M 60.644531 337.136719 C 59.964844 337.136719 59.289062 336.957031 58.671875 336.597656 C 57.433594 335.886719 56.695312 334.609375 56.695312 333.179688 L 56.695312 312.394531 C 56.695312 310.96875 57.433594 309.691406 58.671875 308.976562 C 59.90625 308.261719 61.382812 308.261719 62.617188 308.976562 L 80.617188 319.367188 C 81.855469 320.082031 82.59375 321.359375 82.59375 322.789062 C 82.59375 324.214844 81.855469 325.492188 80.621094 326.207031 L 62.617188 336.597656 C 62 336.957031 61.324219 337.136719 60.644531 337.136719 Z M 60.648438 311.867188 C 60.53125 311.867188 60.4375 311.90625 60.378906 311.9375 C 60.28125 311.996094 60.117188 312.132812 60.117188 312.394531 L 60.117188 333.179688 C 60.117188 333.445312 60.28125 333.582031 60.378906 333.636719 C 60.480469 333.695312 60.679688 333.769531 60.910156 333.636719 L 78.910156 323.246094 C 79.136719 323.113281 79.171875 322.902344 79.171875 322.789062 C 79.171875 322.675781 79.136719 322.464844 78.90625 322.332031 L 60.910156 311.9375 C 60.816406 311.882812 60.726562 311.867188 60.648438 311.867188 Z M 60.648438 311.867188 " fill-opacity="1" fill-rule="nonzero"/><path fill="#430f63" d="M 154.363281 295.125 L 109.785156 295.125 C 108.839844 295.125 108.074219 294.359375 108.074219 293.414062 C 108.074219 292.46875 108.839844 291.703125 109.785156 291.703125 L 154.363281 291.703125 C 155.308594 291.703125 156.074219 292.46875 156.074219 293.414062 C 156.074219 294.359375 155.308594 295.125 154.363281 295.125 Z M 154.363281 295.125 " fill-opacity="1" fill-rule="nonzero"/><path fill="#430f63" d="M 154.363281 313.710938 L 109.785156 313.710938 C 108.839844 313.710938 108.074219 312.945312 108.074219 312 C 108.074219 311.054688 108.839844 310.289062 109.785156 310.289062 L 154.363281 310.289062 C 155.308594 310.289062 156.074219 311.054688 156.074219 312 C 156.074219 312.945312 155.308594 313.710938 154.363281 313.710938 Z M 154.363281 313.710938 " fill-opacity="1" fill-rule="nonzero"/><path fill="#430f63" d="M 154.363281 332.292969 L 109.785156 332.292969 C 108.839844 332.292969 108.074219 331.527344 108.074219 330.585938 C 108.074219 329.640625 108.839844 328.875 109.785156 328.875 L 154.363281 328.875 C 155.308594 328.875 156.074219 329.640625 156.074219 330.585938 C 156.074219 331.527344 155.308594 332.292969 154.363281 332.292969 Z M 154.363281 332.292969 " fill-opacity="1" fill-rule="nonzero"/><path fill="#98b7e4" d="M 176.359375 194.019531 L 119.347656 194.019531 C 112.226562 194.019531 106.453125 199.792969 106.453125 206.914062 L 106.453125 246.929688 C 106.453125 254.050781 112.226562 259.824219 119.347656 259.824219 L 127.84375 259.824219 C 129.554688 259.824219 131.195312 260.5 132.402344 261.710938 L 142.890625 272.199219 C 145.40625 274.714844 149.488281 274.714844 152.007812 272.199219 L 162.492188 261.710938 C 163.703125 260.5 165.34375 259.824219 167.054688 259.824219 L 176.359375 259.824219 C 183.480469 259.824219 189.253906 254.050781 189.253906 246.929688 L 189.253906 206.914062 C 189.253906 199.792969 183.480469 194.019531 176.359375 194.019531 Z M 176.359375 194.019531 " fill-opacity="1" fill-rule="nonzero"/><path fill="#430f63" d="M 147.449219 275.796875 C 145.269531 275.796875 143.222656 274.949219 141.679688 273.40625 L 131.195312 262.921875 C 130.300781 262.023438 129.109375 261.53125 127.84375 261.53125 L 119.347656 261.53125 C 111.296875 261.53125 104.746094 254.980469 104.746094 246.929688 L 104.746094 206.914062 C 104.746094 198.859375 111.296875 192.308594 119.347656 192.308594 L 176.359375 192.308594 C 184.414062 192.308594 190.964844 198.859375 190.964844 206.914062 L 190.964844 246.929688 C 190.964844 254.980469 184.414062 261.53125 176.359375 261.53125 L 167.054688 261.53125 C 165.789062 261.53125 164.597656 262.023438 163.703125 262.917969 L 153.214844 273.40625 C 151.675781 274.949219 149.628906 275.796875 147.449219 275.796875 Z M 119.347656 195.730469 C 113.183594 195.730469 108.164062 200.746094 108.164062 206.914062 L 108.164062 246.929688 C 108.164062 253.09375 113.183594 258.113281 119.347656 258.113281 L 127.84375 258.113281 C 130.023438 258.113281 132.070312 258.960938 133.613281 260.5 L 144.097656 270.988281 C 145.945312 272.835938 148.953125 272.835938 150.796875 270.988281 L 161.285156 260.5 C 162.824219 258.960938 164.875 258.113281 167.050781 258.113281 L 176.359375 258.113281 C 182.527344 258.113281 187.542969 253.09375 187.542969 246.929688 L 187.542969 206.914062 C 187.542969 200.746094 182.527344 195.730469 176.359375 195.730469 Z M 119.347656 195.730469 " fill-opacity="1" fill-rule="nonzero"/><path fill="#ffffff" d="M 167.644531 229.90625 C 170.53125 224.867188 169.097656 218.226562 164.359375 214.867188 C 162.394531 213.46875 159.992188 212.648438 157.394531 212.648438 C 153.1875 212.648438 149.488281 214.808594 147.335938 218.078125 C 145.183594 214.808594 141.484375 212.648438 137.277344 212.648438 C 135.796875 212.648438 134.382812 212.914062 133.074219 213.402344 C 126.203125 215.960938 123.699219 224.515625 127.636719 230.695312 C 127.683594 230.769531 127.730469 230.839844 127.777344 230.910156 C 129.355469 233.179688 131.320312 235.152344 133.503906 236.84375 L 147.519531 247.691406 L 161.480469 236.832031 C 163.921875 234.929688 166.046875 232.628906 167.613281 229.960938 C 167.625 229.941406 167.632812 229.925781 167.644531 229.90625 Z M 167.644531 229.90625 " fill-opacity="1" fill-rule="nonzero"/><path fill="#430f63" d="M 147.519531 249.402344 C 147.152344 249.402344 146.78125 249.28125 146.472656 249.042969 L 132.457031 238.195312 C 130.015625 236.308594 127.96875 234.183594 126.371094 231.882812 C 126.3125 231.796875 126.253906 231.707031 126.195312 231.613281 C 123.960938 228.109375 123.441406 223.824219 124.773438 219.855469 C 126.035156 216.089844 128.84375 213.152344 132.476562 211.800781 C 134.011719 211.230469 135.625 210.9375 137.277344 210.9375 C 141.132812 210.9375 144.753906 212.542969 147.335938 215.316406 C 149.917969 212.542969 153.539062 210.9375 157.394531 210.9375 C 160.265625 210.9375 163.015625 211.816406 165.351562 213.472656 C 170.800781 217.339844 172.460938 224.933594 169.128906 230.757812 L 169.089844 230.820312 C 167.476562 233.574219 165.269531 236.050781 162.53125 238.179688 L 148.570312 249.042969 C 148.261719 249.28125 147.890625 249.402344 147.519531 249.402344 Z M 137.277344 214.359375 C 136.035156 214.359375 134.820312 214.578125 133.671875 215.003906 C 131.011719 215.996094 128.949219 218.160156 128.015625 220.945312 C 127.015625 223.929688 127.402344 227.148438 129.078125 229.777344 C 129.113281 229.832031 129.144531 229.882812 129.179688 229.933594 C 130.578125 231.945312 132.386719 233.816406 134.550781 235.492188 L 147.519531 245.527344 L 160.429688 235.480469 C 162.824219 233.617188 164.746094 231.46875 166.140625 229.09375 L 166.160156 229.0625 C 166.160156 229.058594 166.160156 229.058594 166.160156 229.058594 C 168.628906 224.746094 167.402344 219.125 163.371094 216.261719 C 161.617188 215.015625 159.550781 214.359375 157.394531 214.359375 C 153.914062 214.359375 150.6875 216.101562 148.761719 219.015625 C 148.445312 219.496094 147.910156 219.785156 147.335938 219.785156 C 146.761719 219.785156 146.226562 219.496094 145.90625 219.015625 C 143.984375 216.101562 140.757812 214.359375 137.277344 214.359375 Z M 137.277344 214.359375 " fill-opacity="1" fill-rule="nonzero"/></svg>