<svg xmlns="http://www.w3.org/2000/svg" xmlns:xlink="http://www.w3.org/1999/xlink" width="500" zoomAndPan="magnify" viewBox="0 0 375 374.999991" height="500" preserveAspectRatio="xMidYMid meet" version="1.0"><defs><clipPath id="755549c7ef"><path d="M 165 344 L 267 344 L 267 366.933594 L 165 366.933594 Z M 165 344 " clip-rule="nonzero"/></clipPath><clipPath id="679e943567"><path d="M 51 21.933594 L 245 21.933594 L 245 153 L 51 153 Z M 51 21.933594 " clip-rule="nonzero"/></clipPath></defs><g clip-path="url(#755549c7ef)"><path fill="#003152" d="M 185.914062 366.910156 C 179.652344 366.910156 173.335938 366.578125 167.144531 365.925781 C 166.136719 365.820312 165.40625 364.917969 165.511719 363.910156 C 165.621094 362.902344 166.523438 362.167969 167.53125 362.277344 C 174.085938 362.96875 180.785156 363.289062 187.410156 363.234375 C 187.414062 363.234375 187.417969 363.234375 187.425781 363.234375 C 188.429688 363.234375 189.25 364.046875 189.257812 365.054688 C 189.269531 366.066406 188.453125 366.894531 187.441406 366.90625 C 186.933594 366.910156 186.421875 366.910156 185.914062 366.910156 Z M 207.484375 365.59375 C 206.570312 365.59375 205.78125 364.914062 205.667969 363.984375 C 205.542969 362.976562 206.257812 362.0625 207.265625 361.9375 C 213.835938 361.128906 220.421875 359.929688 226.835938 358.375 C 227.824219 358.136719 228.816406 358.742188 229.054688 359.726562 C 229.292969 360.710938 228.6875 361.703125 227.703125 361.941406 C 221.148438 363.53125 214.421875 364.753906 207.710938 365.578125 C 207.636719 365.589844 207.558594 365.59375 207.484375 365.59375 Z M 246.503906 356.132812 C 245.757812 356.132812 245.058594 355.675781 244.785156 354.933594 C 244.433594 353.984375 244.917969 352.925781 245.871094 352.574219 C 252.070312 350.285156 258.203125 347.609375 264.105469 344.617188 C 265.007812 344.15625 266.113281 344.519531 266.570312 345.421875 C 267.03125 346.324219 266.667969 347.429688 265.765625 347.890625 C 259.738281 350.945312 253.472656 353.679688 247.140625 356.019531 C 246.929688 356.097656 246.714844 356.132812 246.503906 356.132812 Z M 246.503906 356.132812 " fill-opacity="1" fill-rule="nonzero"/></g><path fill="#003152" d="M 354.480469 145.089844 C 353.675781 145.089844 352.9375 144.554688 352.710938 143.742188 C 351 137.582031 348.921875 131.449219 346.53125 125.519531 C 346.152344 124.578125 346.609375 123.507812 347.546875 123.128906 C 348.488281 122.75 349.558594 123.207031 349.9375 124.148438 C 352.378906 130.207031 354.5 136.46875 356.246094 142.761719 C 356.519531 143.738281 355.945312 144.75 354.96875 145.019531 C 354.804688 145.066406 354.640625 145.089844 354.480469 145.089844 Z M 339.660156 108.484375 C 339.011719 108.484375 338.378906 108.140625 338.046875 107.527344 C 334.890625 101.726562 331.355469 96.039062 327.546875 90.628906 C 326.964844 89.800781 327.164062 88.65625 327.992188 88.070312 C 328.820312 87.488281 329.964844 87.6875 330.546875 88.515625 C 334.4375 94.042969 338.046875 99.847656 341.269531 105.773438 C 341.753906 106.664062 341.425781 107.777344 340.535156 108.261719 C 340.257812 108.414062 339.957031 108.484375 339.660156 108.484375 Z M 316.550781 75.65625 C 316.046875 75.65625 315.542969 75.449219 315.179688 75.042969 C 310.78125 70.105469 306.050781 65.371094 301.117188 60.964844 C 300.359375 60.292969 300.292969 59.132812 300.96875 58.375 C 301.644531 57.621094 302.800781 57.554688 303.558594 58.226562 C 308.597656 62.722656 313.429688 67.558594 317.921875 72.601562 C 318.59375 73.355469 318.527344 74.515625 317.773438 75.191406 C 317.421875 75.503906 316.984375 75.65625 316.550781 75.65625 Z M 286.589844 48.921875 C 286.226562 48.921875 285.855469 48.816406 285.535156 48.589844 C 280.125 44.773438 274.441406 41.238281 268.640625 38.074219 C 267.75 37.589844 267.421875 36.476562 267.90625 35.585938 C 268.390625 34.695312 269.507812 34.367188 270.398438 34.851562 C 276.320312 38.082031 282.125 41.695312 287.648438 45.589844 C 288.476562 46.171875 288.675781 47.316406 288.09375 48.144531 C 287.734375 48.652344 287.167969 48.921875 286.589844 48.921875 Z M 286.589844 48.921875 " fill-opacity="1" fill-rule="nonzero"/><path fill="#003152" d="M 11.800781 208.957031 C 10.867188 208.957031 10.070312 208.246094 9.976562 207.296875 C 9.433594 201.640625 9.15625 195.871094 9.15625 190.152344 C 9.15625 189.101562 9.164062 188.039062 9.183594 186.992188 C 9.203125 185.976562 10.035156 185.171875 11.050781 185.1875 C 12.0625 185.207031 12.871094 186.042969 12.855469 187.054688 C 12.835938 188.082031 12.828125 189.125 12.828125 190.152344 C 12.828125 195.753906 13.097656 201.402344 13.628906 206.945312 C 13.726562 207.957031 12.988281 208.851562 11.980469 208.949219 C 11.921875 208.953125 11.859375 208.957031 11.800781 208.957031 Z M 12.515625 168.800781 C 12.4375 168.800781 12.355469 168.796875 12.273438 168.785156 C 11.269531 168.652344 10.5625 167.730469 10.695312 166.726562 C 11.582031 160.023438 12.871094 153.308594 14.519531 146.765625 C 14.769531 145.785156 15.765625 145.1875 16.75 145.4375 C 17.730469 145.683594 18.328125 146.683594 18.078125 147.664062 C 16.464844 154.070312 15.203125 160.644531 14.332031 167.207031 C 14.210938 168.132812 13.421875 168.800781 12.515625 168.800781 Z M 22.339844 129.871094 C 22.125 129.871094 21.902344 129.832031 21.691406 129.75 C 20.742188 129.390625 20.265625 128.332031 20.625 127.382812 C 23.023438 121.074219 25.816406 114.832031 28.929688 108.835938 C 29.398438 107.933594 30.503906 107.585938 31.40625 108.050781 C 32.304688 108.519531 32.65625 109.625 32.1875 110.527344 C 29.140625 116.398438 26.402344 122.507812 24.058594 128.6875 C 23.777344 129.417969 23.082031 129.871094 22.339844 129.871094 Z M 22.339844 129.871094 " fill-opacity="1" fill-rule="nonzero"/><path fill="#ec9707" d="M 314.347656 190.152344 C 314.347656 192.253906 314.292969 194.355469 314.191406 196.453125 C 314.089844 198.554688 313.933594 200.648438 313.726562 202.742188 C 313.523438 204.832031 313.265625 206.917969 312.957031 208.996094 C 312.648438 211.078125 312.289062 213.148438 311.878906 215.207031 C 311.46875 217.269531 311.007812 219.320312 310.496094 221.359375 C 309.988281 223.398438 309.425781 225.421875 308.816406 227.433594 C 308.207031 229.445312 307.546875 231.441406 306.839844 233.417969 C 306.128906 235.398438 305.375 237.359375 304.570312 239.300781 C 303.765625 241.242188 302.914062 243.164062 302.015625 245.0625 C 301.117188 246.964844 300.171875 248.839844 299.179688 250.695312 C 298.191406 252.546875 297.15625 254.375 296.074219 256.179688 C 294.992188 257.980469 293.871094 259.757812 292.703125 261.503906 C 291.535156 263.253906 290.324219 264.96875 289.070312 266.660156 C 287.820312 268.347656 286.527344 270.003906 285.195312 271.628906 C 283.859375 273.253906 282.488281 274.84375 281.074219 276.402344 C 279.664062 277.960938 278.214844 279.480469 276.730469 280.96875 C 275.242188 282.453125 273.722656 283.902344 272.164062 285.3125 C 270.605469 286.726562 269.015625 288.097656 267.390625 289.429688 C 265.765625 290.765625 264.109375 292.058594 262.421875 293.308594 C 260.734375 294.5625 259.015625 295.773438 257.265625 296.9375 C 255.519531 298.105469 253.746094 299.230469 251.941406 300.3125 C 250.136719 301.390625 248.308594 302.429688 246.457031 303.417969 C 244.601562 304.410156 242.726562 305.355469 240.824219 306.253906 C 238.925781 307.152344 237.003906 308.003906 235.0625 308.808594 C 233.121094 309.613281 231.160156 310.367188 229.183594 311.078125 C 227.203125 311.785156 225.207031 312.445312 223.195312 313.054688 C 221.183594 313.664062 219.160156 314.222656 217.121094 314.734375 C 215.082031 315.246094 213.03125 315.707031 210.96875 316.117188 C 208.910156 316.527344 206.839844 316.886719 204.757812 317.195312 C 202.679688 317.503906 200.59375 317.757812 198.503906 317.964844 C 196.410156 318.171875 194.316406 318.324219 192.214844 318.429688 C 190.117188 318.53125 188.015625 318.582031 185.914062 318.582031 C 183.8125 318.582031 181.710938 318.53125 179.613281 318.429688 C 177.511719 318.324219 175.417969 318.171875 173.324219 317.964844 C 171.234375 317.757812 169.148438 317.503906 167.070312 317.195312 C 164.992188 316.886719 162.921875 316.527344 160.859375 316.117188 C 158.796875 315.707031 156.746094 315.246094 154.707031 314.734375 C 152.667969 314.222656 150.644531 313.664062 148.632812 313.054688 C 146.621094 312.445312 144.625 311.785156 142.648438 311.078125 C 140.667969 310.367188 138.707031 309.613281 136.765625 308.808594 C 134.824219 308.003906 132.902344 307.152344 131.003906 306.253906 C 129.101562 305.355469 127.226562 304.410156 125.371094 303.417969 C 123.519531 302.429688 121.691406 301.390625 119.886719 300.3125 C 118.085938 299.230469 116.308594 298.105469 114.5625 296.9375 C 112.8125 295.773438 111.097656 294.5625 109.40625 293.308594 C 107.71875 292.058594 106.0625 290.765625 104.4375 289.429688 C 102.8125 288.097656 101.222656 286.726562 99.664062 285.3125 C 98.109375 283.902344 96.585938 282.453125 95.101562 280.96875 C 93.613281 279.480469 92.164062 277.960938 90.753906 276.402344 C 89.339844 274.84375 87.96875 273.253906 86.636719 271.628906 C 85.300781 270.003906 84.007812 268.347656 82.757812 266.660156 C 81.503906 264.972656 80.296875 263.253906 79.128906 261.503906 C 77.960938 259.757812 76.835938 257.980469 75.753906 256.179688 C 74.675781 254.375 73.640625 252.546875 72.648438 250.695312 C 71.65625 248.839844 70.710938 246.964844 69.8125 245.0625 C 68.914062 243.164062 68.0625 241.242188 67.257812 239.300781 C 66.453125 237.359375 65.699219 235.398438 64.992188 233.417969 C 64.28125 231.441406 63.625 229.445312 63.011719 227.433594 C 62.402344 225.421875 61.84375 223.398438 61.332031 221.359375 C 60.820312 219.320312 60.359375 217.269531 59.949219 215.207031 C 59.539062 213.148438 59.179688 211.078125 58.875 208.996094 C 58.566406 206.917969 58.308594 204.832031 58.101562 202.742188 C 57.894531 200.648438 57.742188 198.554688 57.636719 196.453125 C 57.535156 194.355469 57.484375 192.253906 57.484375 190.152344 C 57.484375 188.050781 57.535156 185.949219 57.636719 183.851562 C 57.742188 181.75 57.894531 179.65625 58.101562 177.5625 C 58.308594 175.472656 58.566406 173.386719 58.875 171.308594 C 59.179688 169.226562 59.539062 167.15625 59.949219 165.097656 C 60.359375 163.035156 60.820312 160.984375 61.332031 158.945312 C 61.84375 156.90625 62.402344 154.882812 63.011719 152.871094 C 63.625 150.859375 64.28125 148.863281 64.992188 146.886719 C 65.699219 144.90625 66.453125 142.945312 67.257812 141.003906 C 68.0625 139.0625 68.914062 137.140625 69.8125 135.242188 C 70.710938 133.339844 71.65625 131.464844 72.648438 129.609375 C 73.640625 127.757812 74.675781 125.929688 75.753906 124.125 C 76.835938 122.324219 77.960938 120.546875 79.128906 118.800781 C 80.296875 117.050781 81.503906 115.335938 82.757812 113.644531 C 84.007812 111.957031 85.300781 110.300781 86.636719 108.675781 C 87.96875 107.050781 89.339844 105.460938 90.753906 103.902344 C 92.164062 102.34375 93.613281 100.824219 95.101562 99.335938 C 96.585938 97.851562 98.109375 96.402344 99.664062 94.992188 C 101.222656 93.578125 102.8125 92.207031 104.4375 90.875 C 106.0625 89.539062 107.71875 88.246094 109.40625 86.996094 C 111.097656 85.742188 112.8125 84.53125 114.5625 83.367188 C 116.308594 82.199219 118.085938 81.074219 119.886719 79.992188 C 121.691406 78.914062 123.519531 77.875 125.371094 76.886719 C 127.226562 75.894531 129.101562 74.949219 131.003906 74.050781 C 132.902344 73.152344 134.824219 72.300781 136.765625 71.496094 C 138.707031 70.691406 140.667969 69.9375 142.648438 69.226562 C 144.625 68.519531 146.621094 67.859375 148.632812 67.25 C 150.644531 66.640625 152.667969 66.082031 154.707031 65.570312 C 156.746094 65.058594 158.796875 64.597656 160.859375 64.1875 C 162.921875 63.777344 164.992188 63.417969 167.070312 63.109375 C 169.148438 62.800781 171.234375 62.546875 173.324219 62.339844 C 175.417969 62.132812 177.511719 61.980469 179.613281 61.875 C 181.710938 61.773438 183.8125 61.722656 185.914062 61.722656 C 188.015625 61.722656 190.117188 61.773438 192.214844 61.875 C 194.316406 61.980469 196.410156 62.132812 198.503906 62.339844 C 200.59375 62.546875 202.679688 62.800781 204.757812 63.109375 C 206.839844 63.417969 208.910156 63.777344 210.96875 64.1875 C 213.03125 64.597656 215.082031 65.058594 217.121094 65.570312 C 219.160156 66.082031 221.183594 66.640625 223.195312 67.25 C 225.207031 67.859375 227.203125 68.519531 229.183594 69.226562 C 231.160156 69.9375 233.121094 70.691406 235.0625 71.496094 C 237.003906 72.300781 238.925781 73.152344 240.824219 74.050781 C 242.726562 74.949219 244.601562 75.894531 246.457031 76.886719 C 248.308594 77.875 250.136719 78.914062 251.941406 79.992188 C 253.746094 81.074219 255.519531 82.199219 257.265625 83.367188 C 259.015625 84.53125 260.734375 85.742188 262.421875 86.996094 C 264.109375 88.246094 265.765625 89.539062 267.390625 90.875 C 269.015625 92.207031 270.605469 93.578125 272.164062 94.992188 C 273.722656 96.402344 275.242188 97.851562 276.730469 99.335938 C 278.214844 100.824219 279.664062 102.34375 281.074219 103.902344 C 282.488281 105.460938 283.859375 107.050781 285.195312 108.675781 C 286.527344 110.300781 287.820312 111.957031 289.070312 113.644531 C 290.324219 115.335938 291.535156 117.050781 292.703125 118.800781 C 293.871094 120.546875 294.992188 122.324219 296.074219 124.125 C 297.15625 125.929688 298.191406 127.757812 299.179688 129.609375 C 300.171875 131.464844 301.117188 133.339844 302.015625 135.242188 C 302.914062 137.140625 303.765625 139.0625 304.570312 141.003906 C 305.375 142.945312 306.128906 144.90625 306.839844 146.886719 C 307.546875 148.863281 308.207031 150.859375 308.816406 152.871094 C 309.425781 154.882812 309.988281 156.90625 310.496094 158.945312 C 311.007812 160.984375 311.46875 163.035156 311.878906 165.097656 C 312.289062 167.15625 312.648438 169.226562 312.957031 171.308594 C 313.265625 173.386719 313.523438 175.472656 313.726562 177.5625 C 313.933594 179.65625 314.089844 181.75 314.191406 183.851562 C 314.292969 185.949219 314.347656 188.050781 314.347656 190.152344 Z M 314.347656 190.152344 " fill-opacity="1" fill-rule="nonzero"/><path fill="#ffffff" d="M 78.058594 323.496094 L 215.164062 323.496094 C 215.164062 336.300781 204.785156 346.679688 191.980469 346.679688 L 47.007812 346.679688 C 40.597656 346.679688 34.804688 344.078125 30.613281 339.890625 C 26.421875 335.699219 23.824219 329.90625 23.824219 323.496094 L 44.480469 323.496094 C 35.496094 323.496094 28.210938 316.210938 28.210938 307.238281 L 28.210938 216.6875 C 28.210938 207.890625 35.339844 200.757812 44.136719 200.757812 L 194.507812 200.757812 C 203.492188 200.757812 210.777344 208.042969 210.777344 217.027344 L 210.777344 307.238281 C 210.777344 316.210938 203.492188 323.496094 194.507812 323.496094 Z M 78.058594 323.496094 " fill-opacity="1" fill-rule="nonzero"/><path fill="#003152" d="M 191.980469 348.515625 L 47.007812 348.515625 C 40.324219 348.515625 34.042969 345.914062 29.316406 341.1875 C 24.589844 336.460938 21.988281 330.179688 21.988281 323.496094 C 21.988281 322.484375 22.808594 321.660156 23.824219 321.660156 L 33.558594 321.660156 C 29.199219 318.355469 26.375 313.121094 26.375 307.238281 L 26.375 216.6875 C 26.375 206.890625 34.34375 198.921875 44.136719 198.921875 L 194.507812 198.921875 C 204.488281 198.921875 212.609375 207.046875 212.609375 217.027344 L 212.609375 307.238281 C 212.609375 313.121094 209.789062 318.355469 205.425781 321.660156 L 215.164062 321.660156 C 216.175781 321.660156 217 322.484375 217 323.496094 C 217 337.292969 205.777344 348.515625 191.980469 348.515625 Z M 25.734375 325.332031 C 26.160156 330.339844 28.316406 334.996094 31.910156 338.589844 C 35.945312 342.625 41.304688 344.84375 47.007812 344.84375 L 191.980469 344.84375 C 203.132812 344.84375 212.316406 336.246094 213.25 325.332031 L 78.058594 325.332031 C 77.046875 325.332031 76.222656 324.507812 76.222656 323.496094 C 76.222656 322.484375 77.046875 321.660156 78.058594 321.660156 L 194.507812 321.660156 C 202.464844 321.660156 208.941406 315.191406 208.941406 307.238281 L 208.941406 217.027344 C 208.941406 209.070312 202.464844 202.59375 194.507812 202.59375 L 44.140625 202.59375 C 36.367188 202.59375 30.046875 208.917969 30.046875 216.6875 L 30.046875 307.238281 C 30.046875 315.191406 36.519531 321.660156 44.480469 321.660156 C 45.492188 321.660156 46.316406 322.484375 46.316406 323.496094 C 46.316406 324.507812 45.492188 325.332031 44.480469 325.332031 Z M 25.734375 325.332031 " fill-opacity="1" fill-rule="nonzero"/><path fill="#003152" d="M 185.359375 257.390625 L 203.777344 275.820312 L 185.375 294.222656 L 148.671875 294.222656 L 130.269531 275.820312 L 148.6875 257.390625 Z M 185.359375 257.390625 " fill-opacity="1" fill-rule="nonzero"/><path fill="#003152" d="M 185.375 296.058594 L 148.671875 296.058594 C 148.183594 296.058594 147.71875 295.863281 147.375 295.519531 L 128.972656 277.121094 C 128.253906 276.402344 128.253906 275.242188 128.972656 274.523438 L 147.386719 256.09375 C 148.105469 255.378906 149.265625 255.375 149.984375 256.09375 C 150.699219 256.808594 150.699219 257.972656 149.984375 258.6875 L 132.863281 275.820312 L 149.433594 292.386719 L 184.617188 292.386719 L 201.183594 275.820312 L 184.0625 258.6875 C 183.347656 257.972656 183.347656 256.808594 184.0625 256.09375 C 184.78125 255.378906 185.941406 255.378906 186.660156 256.09375 L 205.074219 274.523438 C 205.792969 275.242188 205.792969 276.402344 205.074219 277.121094 L 186.671875 295.519531 C 186.328125 295.863281 185.863281 296.058594 185.375 296.058594 Z M 185.375 296.058594 " fill-opacity="1" fill-rule="nonzero"/><path fill="#003152" d="M 161.113281 286.894531 C 160.101562 286.894531 159.277344 286.070312 159.277344 285.058594 L 159.277344 266.589844 C 159.277344 265.578125 160.101562 264.757812 161.113281 264.757812 C 162.128906 264.757812 162.949219 265.578125 162.949219 266.589844 L 162.949219 285.058594 C 162.949219 286.070312 162.128906 286.894531 161.113281 286.894531 Z M 161.113281 286.894531 " fill-opacity="1" fill-rule="nonzero"/><path fill="#003152" d="M 167.433594 276.402344 C 166.695312 276.402344 166 275.953125 165.71875 275.222656 C 165.359375 274.277344 165.832031 273.214844 166.78125 272.855469 C 167.800781 272.464844 168.460938 271.636719 168.460938 270.746094 C 168.460938 269.484375 167.128906 268.421875 165.546875 268.421875 L 161.109375 268.421875 C 160.09375 268.421875 159.273438 267.597656 159.273438 266.585938 C 159.273438 265.570312 160.09375 264.75 161.109375 264.75 L 165.546875 264.75 C 169.179688 264.75 172.132812 267.441406 172.132812 270.746094 C 172.132812 273.171875 170.546875 275.347656 168.089844 276.285156 C 167.875 276.363281 167.652344 276.402344 167.433594 276.402344 Z M 167.433594 276.402344 " fill-opacity="1" fill-rule="nonzero"/><path fill="#003152" d="M 169.160156 286.886719 L 161.109375 286.886719 C 160.09375 286.886719 159.273438 286.066406 159.273438 285.050781 C 159.273438 284.039062 160.09375 283.214844 161.109375 283.214844 L 169.160156 283.214844 C 171.457031 283.214844 173.324219 281.6875 173.324219 279.808594 C 173.324219 277.933594 171.457031 276.402344 169.160156 276.402344 L 161.109375 276.402344 C 160.09375 276.402344 159.273438 275.582031 159.273438 274.570312 C 159.273438 273.554688 160.09375 272.734375 161.109375 272.734375 L 169.160156 272.734375 C 173.480469 272.734375 176.996094 275.90625 176.996094 279.8125 C 176.996094 283.714844 173.480469 286.886719 169.160156 286.886719 Z M 169.160156 286.886719 " fill-opacity="1" fill-rule="nonzero"/><path fill="#ffffff" d="M 130.269531 238.988281 L 148.671875 257.390625 L 185.375 257.390625 L 203.777344 238.988281 L 185.359375 220.558594 L 148.6875 220.558594 Z M 130.269531 238.988281 " fill-opacity="1" fill-rule="nonzero"/><path fill="#003152" d="M 185.375 259.226562 L 148.671875 259.226562 C 148.183594 259.226562 147.71875 259.03125 147.375 258.6875 L 128.972656 240.289062 C 128.253906 239.570312 128.253906 238.410156 128.972656 237.691406 L 147.386719 219.261719 C 147.730469 218.917969 148.199219 218.726562 148.6875 218.726562 L 185.359375 218.726562 C 185.847656 218.726562 186.316406 218.917969 186.660156 219.261719 L 205.074219 237.691406 C 205.792969 238.410156 205.792969 239.570312 205.074219 240.289062 L 186.671875 258.6875 C 186.328125 259.03125 185.863281 259.226562 185.375 259.226562 Z M 149.429688 255.554688 L 184.613281 255.554688 L 201.183594 238.988281 L 184.601562 222.394531 L 149.445312 222.394531 L 132.863281 238.988281 Z M 149.429688 255.554688 " fill-opacity="1" fill-rule="nonzero"/><path fill="#003152" d="M 130.269531 240.824219 L 112.53125 240.824219 C 111.519531 240.824219 110.695312 240.003906 110.695312 238.988281 C 110.695312 237.976562 111.519531 237.15625 112.53125 237.15625 L 130.269531 237.15625 C 131.285156 237.15625 132.105469 237.976562 132.105469 238.988281 C 132.105469 240.003906 131.285156 240.824219 130.269531 240.824219 Z M 130.269531 240.824219 " fill-opacity="1" fill-rule="nonzero"/><path fill="#003152" d="M 130.269531 277.65625 L 112.53125 277.65625 C 111.519531 277.65625 110.695312 276.835938 110.695312 275.820312 C 110.695312 274.808594 111.519531 273.988281 112.53125 273.988281 L 130.269531 273.988281 C 131.285156 273.988281 132.105469 274.808594 132.105469 275.820312 C 132.105469 276.835938 131.285156 277.65625 130.269531 277.65625 Z M 130.269531 277.65625 " fill-opacity="1" fill-rule="nonzero"/><path fill="#003152" d="M 174.9375 248.703125 C 174.226562 248.703125 173.550781 248.285156 173.25 247.589844 L 167.023438 233.054688 L 160.796875 247.589844 C 160.394531 248.523438 159.316406 248.953125 158.386719 248.554688 C 157.453125 248.15625 157.023438 247.078125 157.421875 246.144531 L 165.335938 227.671875 C 165.625 226.996094 166.289062 226.558594 167.023438 226.558594 C 167.757812 226.558594 168.421875 226.996094 168.710938 227.671875 L 176.625 246.144531 C 177.023438 247.078125 176.59375 248.15625 175.660156 248.554688 C 175.425781 248.65625 175.179688 248.703125 174.9375 248.703125 Z M 174.9375 248.703125 " fill-opacity="1" fill-rule="nonzero"/><path fill="#003152" d="M 172.015625 245.019531 L 162.03125 245.019531 C 161.019531 245.019531 160.195312 244.195312 160.195312 243.183594 C 160.195312 242.167969 161.019531 241.347656 162.03125 241.347656 L 172.015625 241.347656 C 173.027344 241.347656 173.847656 242.167969 173.847656 243.183594 C 173.847656 244.195312 173.027344 245.019531 172.015625 245.019531 Z M 172.015625 245.019531 " fill-opacity="1" fill-rule="nonzero"/><path fill="#98b7e4" d="M 56.511719 257.382812 L 38.082031 275.8125 L 56.496094 294.226562 L 93.199219 294.226562 L 111.597656 275.828125 L 93.199219 257.398438 L 93.183594 257.382812 Z M 56.511719 257.382812 " fill-opacity="1" fill-rule="nonzero"/><path fill="#003152" d="M 93.199219 296.058594 L 56.496094 296.058594 C 56.011719 296.058594 55.542969 295.867188 55.199219 295.523438 L 36.785156 277.109375 C 36.070312 276.390625 36.070312 275.230469 36.785156 274.515625 L 55.214844 256.085938 C 55.558594 255.742188 56.027344 255.546875 56.511719 255.546875 L 93.183594 255.546875 C 93.671875 255.546875 94.136719 255.742188 94.480469 256.085938 L 94.496094 256.101562 L 112.894531 274.53125 C 113.613281 275.246094 113.609375 276.410156 112.894531 277.125 L 94.496094 295.523438 C 94.152344 295.867188 93.6875 296.058594 93.199219 296.058594 Z M 57.257812 292.390625 L 92.4375 292.390625 L 109.003906 275.824219 L 92.421875 259.21875 L 57.273438 259.21875 L 40.679688 275.8125 Z M 57.257812 292.390625 " fill-opacity="1" fill-rule="nonzero"/><path fill="#003152" d="M 111.597656 238.988281 L 93.195312 257.390625 L 56.492188 257.390625 L 38.089844 238.988281 L 56.503906 220.558594 L 93.179688 220.558594 Z M 111.597656 238.988281 " fill-opacity="1" fill-rule="nonzero"/><path fill="#003152" d="M 93.195312 259.226562 L 56.492188 259.226562 C 56.003906 259.226562 55.539062 259.03125 55.195312 258.6875 L 36.792969 240.289062 C 36.074219 239.570312 36.074219 238.410156 36.792969 237.691406 L 55.207031 219.261719 C 55.550781 218.917969 56.019531 218.722656 56.503906 218.722656 L 93.179688 218.722656 C 93.667969 218.722656 94.136719 218.917969 94.480469 219.261719 L 112.894531 237.691406 C 113.609375 238.410156 113.609375 239.570312 112.894531 240.289062 L 94.492188 258.6875 C 94.148438 259.03125 93.683594 259.226562 93.195312 259.226562 Z M 57.25 255.554688 L 92.433594 255.554688 L 109.003906 238.988281 L 92.421875 222.394531 L 57.265625 222.394531 L 40.683594 238.988281 Z M 57.25 255.554688 " fill-opacity="1" fill-rule="nonzero"/><path fill="#003152" d="M 77.023438 248.703125 C 71.140625 248.703125 66.351562 243.738281 66.351562 237.632812 C 66.351562 231.527344 71.140625 226.558594 77.023438 226.558594 C 78.945312 226.558594 80.828125 227.097656 82.46875 228.113281 C 83.328125 228.648438 83.59375 229.78125 83.0625 230.640625 C 82.527344 231.503906 81.394531 231.769531 80.535156 231.234375 C 79.472656 230.578125 78.261719 230.230469 77.023438 230.230469 C 73.164062 230.230469 70.019531 233.550781 70.019531 237.632812 C 70.019531 241.714844 73.164062 245.03125 77.023438 245.03125 C 78.261719 245.03125 79.472656 244.6875 80.535156 244.03125 C 81.394531 243.496094 82.527344 243.761719 83.058594 244.621094 C 83.59375 245.484375 83.328125 246.617188 82.46875 247.148438 C 80.828125 248.167969 78.945312 248.703125 77.023438 248.703125 Z M 77.023438 248.703125 " fill-opacity="1" fill-rule="nonzero"/><path fill="#ffffff" d="M 2.09375 321.246094 L 7.578125 315.011719 L 9.335938 312.898438 L 9.15625 311.976562 C 7.199219 303.316406 9.171875 293.9375 15.320312 286.773438 L 21.125 280.015625 L 30.871094 268.796875 C 32.894531 266.441406 36.519531 266.183594 38.929688 268.222656 C 41.339844 270.257812 41.65625 273.851562 39.632812 276.207031 Z M 2.09375 321.246094 " fill-opacity="1" fill-rule="nonzero"/><path fill="#003152" d="M 2.089844 323.082031 C 1.660156 323.082031 1.230469 322.929688 0.878906 322.621094 C 0.117188 321.953125 0.046875 320.792969 0.714844 320.03125 L 6.183594 313.816406 L 7.367188 312.394531 L 7.359375 312.351562 C 6.324219 307.757812 6.34375 302.929688 7.414062 298.394531 C 8.535156 293.617188 10.726562 289.304688 13.929688 285.578125 L 19.730469 278.820312 L 29.488281 267.59375 C 32.160156 264.480469 36.929688 264.128906 40.113281 266.820312 C 41.667969 268.132812 42.613281 269.972656 42.777344 271.996094 C 42.933594 273.984375 42.3125 275.902344 41.027344 277.402344 C 40.367188 278.171875 39.207031 278.257812 38.4375 277.597656 C 37.667969 276.9375 37.582031 275.78125 38.242188 275.011719 C 38.886719 274.257812 39.199219 273.292969 39.117188 272.289062 C 39.035156 271.246094 38.546875 270.300781 37.742188 269.621094 C 36.09375 268.226562 33.636719 268.394531 32.265625 269.992188 L 22.507812 281.21875 L 16.714844 287.96875 C 11.128906 294.472656 9.027344 303.074219 10.945312 311.570312 C 10.949219 311.589844 10.953125 311.605469 10.957031 311.625 L 11.136719 312.546875 C 11.242188 313.085938 11.097656 313.648438 10.746094 314.070312 L 8.992188 316.183594 C 8.980469 316.195312 8.96875 316.207031 8.957031 316.222656 L 3.46875 322.457031 C 3.109375 322.871094 2.601562 323.082031 2.089844 323.082031 Z M 2.089844 323.082031 " fill-opacity="1" fill-rule="nonzero"/><path fill="#ffffff" d="M 55.515625 312.628906 L 75.46875 305.675781 C 78.527344 304.609375 81.949219 306.226562 83.070312 309.269531 C 84.195312 312.3125 82.613281 315.675781 79.554688 316.742188 L 48.335938 332.457031 C 48.335938 332.457031 41.371094 337.410156 36.242188 335.160156 L 34.464844 334.554688 L 33.109375 336.121094 L 27.640625 342.332031 Z M 55.515625 312.628906 " fill-opacity="1" fill-rule="nonzero"/><path fill="#003152" d="M 27.640625 344.167969 C 27.210938 344.167969 26.777344 344.015625 26.429688 343.710938 C 25.667969 343.039062 25.59375 341.878906 26.265625 341.121094 L 31.730469 334.90625 L 33.078125 333.351562 C 33.570312 332.789062 34.351562 332.578125 35.058594 332.820312 L 36.835938 333.425781 C 36.882812 333.441406 36.933594 333.460938 36.980469 333.480469 C 40.386719 334.976562 45.566406 332.167969 47.273438 330.960938 C 47.347656 330.90625 47.429688 330.859375 47.511719 330.816406 L 78.730469 315.101562 C 78.800781 315.066406 78.875 315.035156 78.953125 315.007812 C 79.960938 314.65625 80.765625 313.933594 81.21875 312.96875 C 81.675781 312.003906 81.722656 310.914062 81.351562 309.90625 C 80.566406 307.785156 78.199219 306.664062 76.074219 307.40625 L 56.121094 314.359375 C 55.164062 314.695312 54.117188 314.1875 53.785156 313.230469 C 53.449219 312.273438 53.957031 311.230469 54.914062 310.894531 L 74.867188 303.941406 C 78.871094 302.546875 83.324219 304.652344 84.792969 308.636719 C 85.507812 310.574219 85.417969 312.671875 84.539062 314.535156 C 83.679688 316.359375 82.167969 317.738281 80.28125 318.429688 L 49.273438 334.039062 C 48.445312 334.605469 43.875 337.574219 39.195312 337.574219 C 37.976562 337.578125 36.75 337.375 35.582031 336.875 L 35.042969 336.691406 L 34.492188 337.324219 L 29.019531 343.542969 C 28.65625 343.957031 28.152344 344.167969 27.640625 344.167969 Z M 27.640625 344.167969 " fill-opacity="1" fill-rule="nonzero"/><path fill="#ffffff" d="M 2.09375 321.246094 L 7.578125 315.011719 L 9.335938 312.898438 L 9.15625 311.976562 C 7.199219 303.316406 9.171875 293.9375 15.320312 286.773438 L 21.125 280.015625 L 30.871094 268.796875 C 32.894531 266.441406 36.519531 266.183594 38.929688 268.222656 C 41.339844 270.257812 41.65625 273.851562 39.632812 276.207031 L 32.691406 284.296875 L 41.261719 274.230469 C 43.277344 271.867188 46.890625 271.605469 49.292969 273.652344 C 51.695312 275.699219 52.011719 279.308594 49.996094 281.675781 L 41.378906 291.835938 L 51.535156 279.914062 C 53.550781 277.546875 57.246094 277.355469 59.746094 279.488281 C 62.25 281.621094 62.648438 285.300781 60.632812 287.667969 L 50.410156 299.671875 L 57.679688 291.253906 L 70.097656 277.0625 L 75.488281 270.734375 C 77.574219 268.28125 81.335938 268.027344 83.851562 270.167969 C 86.363281 272.308594 86.714844 276.066406 84.628906 278.515625 L 57.101562 310.847656 L 55.515625 312.628906 L 75.472656 305.675781 C 78.527344 304.609375 81.949219 306.226562 83.074219 309.269531 C 84.195312 312.3125 82.613281 315.675781 79.554688 316.742188 L 48.335938 332.457031 C 48.335938 332.457031 41.371094 337.410156 36.242188 335.160156 L 34.464844 334.554688 L 33.109375 336.121094 L 27.640625 342.332031 Z M 2.09375 321.246094 " fill-opacity="1" fill-rule="nonzero"/><path fill="#003152" d="M 27.640625 344.167969 C 27.210938 344.167969 26.777344 344.015625 26.429688 343.710938 C 25.667969 343.039062 25.59375 341.878906 26.265625 341.121094 L 31.730469 334.90625 L 33.078125 333.351562 C 33.570312 332.789062 34.351562 332.578125 35.058594 332.820312 L 36.835938 333.425781 C 36.882812 333.441406 36.933594 333.460938 36.980469 333.480469 C 40.386719 334.976562 45.566406 332.167969 47.273438 330.960938 C 47.347656 330.90625 47.429688 330.859375 47.511719 330.816406 L 78.730469 315.101562 C 78.800781 315.066406 78.875 315.035156 78.953125 315.007812 C 79.960938 314.65625 80.765625 313.933594 81.21875 312.96875 C 81.675781 312.003906 81.722656 310.914062 81.351562 309.90625 C 80.566406 307.785156 78.199219 306.664062 76.074219 307.40625 L 56.121094 314.359375 C 55.332031 314.636719 54.457031 314.34375 53.992188 313.648438 C 53.527344 312.953125 53.589844 312.035156 54.144531 311.410156 L 55.71875 309.640625 L 83.230469 277.328125 C 84.664062 275.640625 84.410156 273.054688 82.660156 271.566406 C 81.808594 270.84375 80.734375 270.484375 79.632812 270.558594 C 78.546875 270.632812 77.570312 271.117188 76.882812 271.921875 L 71.496094 278.253906 C 71.492188 278.257812 71.484375 278.265625 71.480469 278.273438 L 59.0625 292.464844 L 51.796875 300.871094 C 51.136719 301.636719 49.980469 301.722656 49.214844 301.0625 C 48.445312 300.40625 48.355469 299.25 49.011719 298.480469 L 59.234375 286.476562 C 60.597656 284.875 60.292969 282.367188 58.554688 280.886719 C 57.703125 280.160156 56.636719 279.789062 55.550781 279.847656 C 54.503906 279.902344 53.574219 280.347656 52.929688 281.101562 L 42.777344 293.027344 C 42.121094 293.796875 40.960938 293.890625 40.191406 293.234375 C 39.417969 292.582031 39.324219 291.421875 39.980469 290.652344 L 48.59375 280.488281 C 49.960938 278.882812 49.738281 276.445312 48.101562 275.046875 C 47.308594 274.375 46.300781 274.042969 45.261719 274.117188 C 44.238281 274.191406 43.3125 274.65625 42.660156 275.421875 L 41.519531 276.757812 C 41.367188 276.980469 41.203125 277.195312 41.027344 277.402344 L 34.082031 285.492188 C 33.421875 286.257812 32.265625 286.347656 31.496094 285.691406 C 30.726562 285.035156 30.636719 283.878906 31.292969 283.105469 L 38.574219 274.554688 C 38.992188 273.886719 39.183594 273.101562 39.117188 272.289062 C 39.035156 271.246094 38.546875 270.300781 37.742188 269.621094 C 36.09375 268.226562 33.636719 268.394531 32.265625 269.992188 L 22.507812 281.21875 L 16.714844 287.96875 C 11.128906 294.472656 9.027344 303.074219 10.945312 311.570312 C 10.949219 311.589844 10.953125 311.605469 10.957031 311.625 L 11.132812 312.546875 C 11.238281 313.085938 11.097656 313.648438 10.746094 314.070312 L 8.992188 316.183594 C 8.980469 316.195312 8.96875 316.210938 8.957031 316.222656 L 3.46875 322.457031 C 2.800781 323.21875 1.640625 323.292969 0.878906 322.621094 C 0.117188 321.953125 0.0429688 320.792969 0.714844 320.03125 L 6.183594 313.816406 L 7.367188 312.394531 L 7.359375 312.351562 C 6.324219 307.757812 6.34375 302.929688 7.410156 298.394531 C 8.535156 293.617188 10.726562 289.304688 13.929688 285.578125 L 19.730469 278.820312 L 29.488281 267.59375 C 32.160156 264.476562 36.929688 264.128906 40.113281 266.820312 C 41.414062 267.917969 42.285156 269.382812 42.632812 271.015625 C 43.375 270.707031 44.171875 270.515625 45 270.457031 C 47.003906 270.3125 48.949219 270.949219 50.480469 272.253906 C 51.871094 273.4375 52.730469 275.011719 53.035156 276.667969 C 53.761719 276.390625 54.546875 276.222656 55.363281 276.179688 C 57.390625 276.074219 59.367188 276.753906 60.9375 278.089844 C 62.167969 279.140625 63.003906 280.472656 63.429688 281.898438 L 68.707031 275.863281 L 74.089844 269.542969 C 75.421875 267.976562 77.300781 267.039062 79.382812 266.898438 C 81.449219 266.757812 83.457031 267.421875 85.039062 268.769531 C 88.328125 271.574219 88.769531 276.476562 86.023438 279.707031 L 61.390625 308.636719 L 74.867188 303.941406 C 78.871094 302.546875 83.324219 304.652344 84.792969 308.636719 C 85.507812 310.574219 85.417969 312.671875 84.539062 314.535156 C 83.679688 316.359375 82.167969 317.738281 80.28125 318.429688 L 49.273438 334.039062 C 48.445312 334.605469 43.875 337.574219 39.195312 337.574219 C 37.976562 337.578125 36.75 337.375 35.582031 336.875 L 35.042969 336.691406 L 34.492188 337.324219 L 29.019531 343.542969 C 28.65625 343.957031 28.152344 344.167969 27.640625 344.167969 Z M 27.640625 344.167969 " fill-opacity="1" fill-rule="nonzero"/><path fill="#ffffff" d="M 61.359375 305.9375 L 55.605469 312.570312 Z M 61.359375 305.9375 " fill-opacity="1" fill-rule="nonzero"/><path fill="#003152" d="M 55.605469 314.40625 C 55.179688 314.40625 54.753906 314.257812 54.40625 313.957031 C 53.640625 313.292969 53.558594 312.132812 54.222656 311.367188 L 59.972656 304.734375 C 60.636719 303.96875 61.796875 303.886719 62.5625 304.550781 C 63.328125 305.214844 63.410156 306.375 62.746094 307.140625 L 56.992188 313.773438 C 56.628906 314.191406 56.121094 314.40625 55.605469 314.40625 Z M 55.605469 314.40625 " fill-opacity="1" fill-rule="nonzero"/><path fill="#ffffff" d="M 53.851562 295.703125 L 49.335938 300.910156 Z M 53.851562 295.703125 " fill-opacity="1" fill-rule="nonzero"/><path fill="#003152" d="M 49.332031 302.746094 C 48.90625 302.746094 48.480469 302.597656 48.132812 302.296875 C 47.367188 301.632812 47.285156 300.472656 47.949219 299.707031 L 52.464844 294.5 C 53.128906 293.734375 54.289062 293.652344 55.054688 294.316406 C 55.820312 294.980469 55.902344 296.140625 55.238281 296.90625 L 50.71875 302.113281 C 50.359375 302.53125 49.847656 302.746094 49.332031 302.746094 Z M 49.332031 302.746094 " fill-opacity="1" fill-rule="nonzero"/><path fill="#ffffff" d="M 46.5 285.71875 L 39.238281 294.085938 Z M 46.5 285.71875 " fill-opacity="1" fill-rule="nonzero"/><path fill="#003152" d="M 39.238281 295.921875 C 38.8125 295.921875 38.382812 295.773438 38.035156 295.472656 C 37.269531 294.808594 37.1875 293.648438 37.851562 292.882812 L 45.113281 284.515625 C 45.777344 283.75 46.933594 283.667969 47.703125 284.332031 C 48.46875 284.996094 48.550781 286.152344 47.886719 286.917969 L 40.625 295.289062 C 40.261719 295.707031 39.75 295.921875 39.238281 295.921875 Z M 39.238281 295.921875 " fill-opacity="1" fill-rule="nonzero"/><path fill="#ffffff" d="M 38.097656 277.878906 L 29.597656 287.675781 Z M 38.097656 277.878906 " fill-opacity="1" fill-rule="nonzero"/><path fill="#003152" d="M 29.597656 289.511719 C 29.171875 289.511719 28.742188 289.363281 28.394531 289.0625 C 27.628906 288.398438 27.546875 287.238281 28.210938 286.472656 L 36.710938 276.675781 C 37.375 275.910156 38.535156 275.828125 39.300781 276.492188 C 40.066406 277.15625 40.148438 278.316406 39.484375 279.082031 L 30.984375 288.878906 C 30.621094 289.296875 30.109375 289.511719 29.597656 289.511719 Z M 29.597656 289.511719 " fill-opacity="1" fill-rule="nonzero"/><path fill="#ffffff" d="M 215.683594 23.769531 L 238.632812 23.769531 C 240.773438 23.769531 242.507812 25.601562 242.507812 27.863281 L 242.507812 146.355469 C 242.507812 148.617188 240.773438 150.449219 238.632812 150.449219 L 57.039062 150.449219 C 54.898438 150.449219 53.160156 148.617188 53.160156 146.355469 L 53.160156 27.863281 C 53.160156 25.601562 54.898438 23.769531 57.039062 23.769531 Z M 215.683594 23.769531 " fill-opacity="1" fill-rule="nonzero"/><g clip-path="url(#679e943567)"><path fill="#003152" d="M 238.632812 152.285156 L 57.039062 152.285156 C 53.886719 152.285156 51.324219 149.625 51.324219 146.355469 L 51.324219 27.863281 C 51.324219 24.59375 53.886719 21.933594 57.039062 21.933594 L 238.632812 21.933594 C 241.78125 21.933594 244.34375 24.59375 244.34375 27.863281 L 244.34375 146.355469 C 244.34375 149.625 241.78125 152.285156 238.632812 152.285156 Z M 57.039062 25.605469 C 55.910156 25.605469 54.996094 26.617188 54.996094 27.863281 L 54.996094 146.355469 C 54.996094 147.601562 55.914062 148.613281 57.039062 148.613281 L 238.632812 148.613281 C 239.757812 148.613281 240.671875 147.601562 240.671875 146.355469 L 240.671875 27.863281 C 240.671875 26.617188 239.757812 25.605469 238.632812 25.605469 Z M 57.039062 25.605469 " fill-opacity="1" fill-rule="nonzero"/></g><path fill="#003152" d="M 170 180.457031 L 160.277344 150.449219 L 130.75 150.449219 L 120.988281 179.632812 Z M 170 180.457031 " fill-opacity="1" fill-rule="nonzero"/><path fill="#003152" d="M 170 182.292969 C 169.226562 182.292969 168.507812 181.796875 168.257812 181.019531 L 158.941406 152.285156 L 132.070312 152.285156 L 122.726562 180.214844 C 122.40625 181.175781 121.367188 181.695312 120.40625 181.375 C 119.441406 181.050781 118.925781 180.011719 119.246094 179.050781 L 129.007812 149.867188 C 129.257812 149.121094 129.960938 148.617188 130.75 148.617188 L 160.277344 148.617188 C 161.074219 148.617188 161.777344 149.128906 162.023438 149.886719 L 171.746094 179.890625 C 172.058594 180.855469 171.53125 181.890625 170.566406 182.203125 C 170.378906 182.261719 170.1875 182.292969 170 182.292969 Z M 170 182.292969 " fill-opacity="1" fill-rule="nonzero"/><path fill="#003152" d="M 111.542969 189.234375 L 111.542969 186.148438 C 111.542969 183.003906 113.957031 180.453125 116.933594 180.453125 L 174.003906 180.453125 C 176.980469 180.453125 179.390625 183.003906 179.390625 186.148438 L 179.390625 189.234375 Z M 111.542969 189.234375 " fill-opacity="1" fill-rule="nonzero"/><path fill="#003152" d="M 179.390625 191.066406 C 178.378906 191.066406 177.558594 190.246094 177.558594 189.234375 L 177.558594 186.148438 C 177.558594 184.019531 175.964844 182.289062 174.003906 182.289062 L 116.933594 182.289062 C 114.972656 182.289062 113.378906 184.019531 113.378906 186.148438 L 113.378906 189.234375 C 113.378906 190.246094 112.558594 191.066406 111.542969 191.066406 C 110.53125 191.066406 109.707031 190.246094 109.707031 189.234375 L 109.707031 186.148438 C 109.707031 181.996094 112.949219 178.621094 116.933594 178.621094 L 174.003906 178.621094 C 177.988281 178.621094 181.226562 181.996094 181.226562 186.148438 L 181.226562 189.234375 C 181.226562 190.246094 180.40625 191.066406 179.390625 191.066406 Z M 179.390625 191.066406 " fill-opacity="1" fill-rule="nonzero"/><path fill="#003152" d="M 242.507812 137.285156 L 53.160156 137.285156 C 52.148438 137.285156 51.324219 136.464844 51.324219 135.449219 C 51.324219 134.4375 52.148438 133.617188 53.160156 133.617188 L 242.507812 133.617188 C 243.523438 133.617188 244.34375 134.4375 244.34375 135.449219 C 244.34375 136.464844 243.523438 137.285156 242.507812 137.285156 Z M 242.507812 137.285156 " fill-opacity="1" fill-rule="nonzero"/><path fill="#98b7e4" d="M 179.394531 60.707031 L 179.394531 97.242188 L 149.414062 110.445312 L 119.433594 97.242188 L 119.433594 60.707031 Z M 179.394531 60.707031 " fill-opacity="1" fill-rule="nonzero"/><path fill="#003152" d="M 149.414062 112.28125 C 149.160156 112.28125 148.910156 112.230469 148.671875 112.125 L 118.691406 98.921875 C 118.027344 98.628906 117.597656 97.972656 117.597656 97.242188 L 117.597656 60.707031 C 117.597656 59.695312 118.417969 58.871094 119.433594 58.871094 C 120.445312 58.871094 121.265625 59.695312 121.265625 60.707031 L 121.265625 96.046875 L 149.414062 108.441406 L 177.558594 96.046875 L 177.558594 60.707031 C 177.558594 59.695312 178.378906 58.871094 179.390625 58.871094 C 180.40625 58.871094 181.226562 59.695312 181.226562 60.707031 L 181.226562 97.242188 C 181.226562 97.972656 180.796875 98.628906 180.132812 98.921875 L 150.152344 112.125 C 149.917969 112.230469 149.664062 112.28125 149.414062 112.28125 Z M 149.414062 112.28125 " fill-opacity="1" fill-rule="nonzero"/><path fill="#003152" d="M 149.414062 112.28125 C 148.398438 112.28125 147.578125 111.460938 147.578125 110.445312 L 147.578125 72.109375 C 147.578125 71.09375 148.398438 70.273438 149.414062 70.273438 C 150.425781 70.273438 151.246094 71.09375 151.246094 72.109375 L 151.246094 110.445312 C 151.246094 111.460938 150.425781 112.28125 149.414062 112.28125 Z M 149.414062 112.28125 " fill-opacity="1" fill-rule="nonzero"/><path fill="#ffffff" d="M 195.285156 76.992188 L 188.90625 93.664062 L 204.6875 86.925781 Z M 195.285156 76.992188 " fill-opacity="1" fill-rule="nonzero"/><path fill="#003152" d="M 188.90625 95.5 C 188.4375 95.5 187.980469 95.324219 187.632812 94.988281 C 187.101562 94.476562 186.925781 93.695312 187.191406 93.007812 L 193.574219 76.335938 C 193.933594 75.386719 194.996094 74.914062 195.941406 75.277344 C 196.890625 75.640625 197.363281 76.699219 197 77.648438 L 192.167969 90.277344 L 203.96875 85.238281 C 204.898438 84.839844 205.980469 85.273438 206.375 86.203125 C 206.773438 87.136719 206.339844 88.214844 205.410156 88.613281 L 189.625 95.351562 C 189.394531 95.453125 189.148438 95.5 188.90625 95.5 Z M 188.90625 95.5 " fill-opacity="1" fill-rule="nonzero"/><path fill="#ffffff" d="M 217.558594 53.464844 L 223.089844 47.621094 C 224.675781 45.945312 227.246094 45.945312 228.832031 47.621094 L 232.492188 51.488281 C 234.078125 53.164062 234.078125 55.878906 232.492188 57.554688 L 226.960938 63.398438 Z M 217.558594 53.464844 " fill-opacity="1" fill-rule="nonzero"/><path fill="#003152" d="M 226.960938 65.234375 C 226.507812 65.234375 226.054688 65.066406 225.699219 64.730469 C 224.960938 64.03125 224.929688 62.871094 225.628906 62.136719 L 231.160156 56.292969 C 232.066406 55.332031 232.066406 53.710938 231.160156 52.75 L 227.5 48.882812 C 227.082031 48.441406 226.535156 48.199219 225.960938 48.199219 C 225.386719 48.199219 224.839844 48.441406 224.421875 48.882812 L 218.890625 54.726562 C 218.195312 55.464844 217.03125 55.496094 216.296875 54.796875 C 215.558594 54.101562 215.527344 52.941406 216.226562 52.203125 L 221.757812 46.359375 C 222.871094 45.179688 224.367188 44.53125 225.960938 44.53125 C 227.554688 44.53125 229.046875 45.179688 230.164062 46.363281 L 233.824219 50.226562 C 236.0625 52.59375 236.0625 56.445312 233.828125 58.816406 L 228.292969 64.660156 C 227.933594 65.039062 227.445312 65.230469 226.960938 65.234375 Z M 226.960938 65.234375 " fill-opacity="1" fill-rule="nonzero"/><path fill="#ffffff" d="M 103.535156 75.894531 L 109.085938 89.464844 L 102.457031 96.46875 L 76.179688 84.46875 L 70.761719 68.328125 L 82.449219 55.980469 L 97.730469 61.703125 L 101.621094 71.21875 Z M 103.535156 75.894531 " fill-opacity="1" fill-rule="nonzero"/><path fill="#003152" d="M 102.457031 98.300781 C 102.199219 98.300781 101.9375 98.25 101.695312 98.136719 L 75.417969 86.136719 C 74.957031 85.925781 74.601562 85.535156 74.441406 85.054688 L 69.019531 68.914062 C 68.804688 68.269531 68.960938 67.558594 69.425781 67.066406 L 81.117188 54.71875 C 81.625 54.183594 82.402344 54.003906 83.09375 54.261719 L 98.375 59.988281 C 98.851562 60.164062 99.234375 60.535156 99.429688 61.011719 L 105.230469 75.199219 L 110.785156 88.769531 C 111.058594 89.4375 110.914062 90.203125 110.417969 90.726562 L 103.789062 97.730469 C 103.433594 98.105469 102.949219 98.300781 102.457031 98.300781 Z M 77.667969 83.128906 L 102.027344 94.253906 L 106.941406 89.0625 L 96.335938 63.140625 L 82.945312 58.125 L 72.851562 68.789062 Z M 77.667969 83.128906 " fill-opacity="1" fill-rule="nonzero"/><path fill="#ffffff" d="M 89.644531 68.570312 C 87.792969 66.617188 84.800781 66.617188 82.949219 68.570312 C 81.101562 70.527344 81.101562 73.691406 82.949219 75.644531 C 84.800781 77.597656 87.792969 77.597656 89.644531 75.644531 C 91.492188 73.691406 91.492188 70.527344 89.644531 68.570312 Z M 89.644531 68.570312 " fill-opacity="1" fill-rule="nonzero"/><path fill="#003152" d="M 86.296875 78.945312 C 84.523438 78.945312 82.863281 78.21875 81.617188 76.90625 C 79.113281 74.261719 79.113281 69.957031 81.617188 67.3125 C 82.863281 65.996094 84.523438 65.273438 86.296875 65.273438 C 88.070312 65.273438 89.730469 65.996094 90.976562 67.308594 C 90.976562 67.308594 90.976562 67.3125 90.976562 67.3125 C 93.480469 69.957031 93.480469 74.261719 90.976562 76.90625 C 89.730469 78.21875 88.070312 78.945312 86.296875 78.945312 Z M 86.296875 68.941406 C 85.542969 68.941406 84.824219 69.257812 84.28125 69.835938 C 83.09375 71.089844 83.09375 73.128906 84.28125 74.382812 C 84.824219 74.957031 85.542969 75.273438 86.296875 75.273438 C 87.050781 75.273438 87.765625 74.957031 88.3125 74.382812 C 89.496094 73.128906 89.496094 71.089844 88.3125 69.835938 C 87.765625 69.257812 87.050781 68.941406 86.296875 68.941406 Z M 86.296875 68.941406 " fill-opacity="1" fill-rule="nonzero"/><path fill="#ffffff" d="M 105.703125 93.039062 L 89.367188 75.785156 Z M 105.703125 93.039062 " fill-opacity="1" fill-rule="nonzero"/><path fill="#003152" d="M 105.703125 94.875 C 105.214844 94.875 104.730469 94.683594 104.371094 94.300781 L 88.035156 77.046875 C 87.339844 76.308594 87.371094 75.148438 88.109375 74.453125 C 88.84375 73.753906 90.003906 73.785156 90.703125 74.523438 L 107.035156 91.777344 C 107.730469 92.515625 107.699219 93.675781 106.964844 94.371094 C 106.609375 94.707031 106.15625 94.875 105.703125 94.875 Z M 105.703125 94.875 " fill-opacity="1" fill-rule="nonzero"/><path fill="#ffffff" d="M 61.621094 61.246094 L 70.761719 68.328125 Z M 61.621094 61.246094 " fill-opacity="1" fill-rule="nonzero"/><path fill="#003152" d="M 70.761719 70.164062 C 70.367188 70.164062 69.972656 70.039062 69.636719 69.777344 L 60.496094 62.695312 C 59.695312 62.074219 59.546875 60.921875 60.167969 60.121094 C 60.789062 59.320312 61.941406 59.175781 62.742188 59.796875 L 71.886719 66.878906 C 72.6875 67.5 72.832031 68.652344 72.210938 69.453125 C 71.851562 69.917969 71.308594 70.164062 70.761719 70.164062 Z M 70.761719 70.164062 " fill-opacity="1" fill-rule="nonzero"/><path fill="#ffffff" d="M 82.449219 55.980469 L 75.582031 46.5 Z M 82.449219 55.980469 " fill-opacity="1" fill-rule="nonzero"/><path fill="#003152" d="M 82.453125 57.816406 C 81.882812 57.816406 81.324219 57.550781 80.964844 57.058594 L 74.09375 47.574219 C 73.5 46.753906 73.683594 45.609375 74.503906 45.011719 C 75.324219 44.417969 76.472656 44.601562 77.066406 45.421875 L 83.9375 54.902344 C 84.53125 55.722656 84.347656 56.871094 83.527344 57.464844 C 83.203125 57.703125 82.824219 57.816406 82.453125 57.816406 Z M 82.453125 57.816406 " fill-opacity="1" fill-rule="nonzero"/><path fill="#ffffff" d="M 192.015625 108.777344 L 192.015625 120.445312 L 182.546875 120.445312 Z M 192.015625 108.777344 " fill-opacity="1" fill-rule="nonzero"/><path fill="#003152" d="M 192.015625 122.28125 L 182.546875 122.28125 C 181.535156 122.28125 180.714844 121.460938 180.714844 120.445312 C 180.714844 119.433594 181.535156 118.613281 182.546875 118.613281 L 190.179688 118.613281 L 190.179688 108.777344 C 190.179688 107.765625 191.003906 106.945312 192.015625 106.945312 C 193.03125 106.945312 193.851562 107.765625 193.851562 108.777344 L 193.851562 120.449219 C 193.851562 121.460938 193.03125 122.28125 192.015625 122.28125 Z M 192.015625 122.28125 " fill-opacity="1" fill-rule="nonzero"/><path fill="#ffffff" d="M 180.972656 40.4375 L 192.015625 40.4375 L 192.015625 50.4375 Z M 180.972656 40.4375 " fill-opacity="1" fill-rule="nonzero"/><path fill="#003152" d="M 192.015625 52.273438 C 191.003906 52.273438 190.179688 51.453125 190.179688 50.4375 L 190.179688 42.273438 L 180.972656 42.273438 C 179.957031 42.273438 179.136719 41.449219 179.136719 40.4375 C 179.136719 39.425781 179.957031 38.601562 180.972656 38.601562 L 192.015625 38.601562 C 193.03125 38.601562 193.851562 39.425781 193.851562 40.4375 L 193.851562 50.4375 C 193.851562 51.453125 193.03125 52.273438 192.015625 52.273438 Z M 192.015625 52.273438 " fill-opacity="1" fill-rule="nonzero"/><path fill="#ffffff" d="M 106.808594 50.4375 L 106.808594 40.4375 L 116.277344 40.4375 Z M 106.808594 50.4375 " fill-opacity="1" fill-rule="nonzero"/><path fill="#003152" d="M 106.808594 52.273438 C 105.796875 52.273438 104.972656 51.453125 104.972656 50.4375 L 104.972656 40.4375 C 104.972656 39.421875 105.796875 38.601562 106.808594 38.601562 L 116.277344 38.601562 C 117.289062 38.601562 118.109375 39.425781 118.109375 40.4375 C 118.109375 41.449219 117.289062 42.273438 116.277344 42.273438 L 108.644531 42.273438 L 108.644531 50.4375 C 108.644531 51.453125 107.824219 52.273438 106.808594 52.273438 Z M 106.808594 52.273438 " fill-opacity="1" fill-rule="nonzero"/><path fill="#ffffff" d="M 117.855469 120.449219 L 106.808594 120.449219 L 106.808594 108.78125 Z M 117.855469 120.449219 " fill-opacity="1" fill-rule="nonzero"/><path fill="#003152" d="M 117.855469 122.28125 L 106.808594 122.28125 C 105.796875 122.28125 104.972656 121.460938 104.972656 120.449219 L 104.972656 108.78125 C 104.972656 107.765625 105.796875 106.945312 106.808594 106.945312 C 107.824219 106.945312 108.644531 107.765625 108.644531 108.78125 L 108.644531 118.613281 L 117.855469 118.613281 C 118.867188 118.613281 119.691406 119.433594 119.691406 120.449219 C 119.691406 121.460938 118.867188 122.28125 117.855469 122.28125 Z M 117.855469 122.28125 " fill-opacity="1" fill-rule="nonzero"/><path fill="#98b7e4" d="M 179.394531 60.707031 L 149.628906 50.382812 L 119.433594 60.707031 L 149.414062 72.109375 Z M 179.394531 60.707031 " fill-opacity="1" fill-rule="nonzero"/><path fill="#003152" d="M 149.414062 73.941406 C 149.191406 73.941406 148.96875 73.902344 148.761719 73.824219 L 118.78125 62.425781 C 118.058594 62.148438 117.585938 61.449219 117.597656 60.679688 C 117.609375 59.90625 118.109375 59.222656 118.839844 58.972656 L 149.035156 48.644531 C 149.421875 48.511719 149.84375 48.515625 150.230469 48.648438 L 179.996094 58.976562 C 180.722656 59.226562 181.21875 59.910156 181.226562 60.683594 C 181.238281 61.453125 180.765625 62.148438 180.046875 62.425781 L 150.0625 73.824219 C 149.855469 73.902344 149.632812 73.941406 149.414062 73.941406 Z M 124.835938 60.800781 L 149.414062 70.144531 L 174.023438 60.789062 L 149.625 52.324219 Z M 124.835938 60.800781 " fill-opacity="1" fill-rule="nonzero"/><path fill="#003152" d="M 204.691406 86.925781 L 195.289062 76.992188 L 217.558594 53.464844 L 226.960938 63.398438 Z M 204.691406 86.925781 " fill-opacity="1" fill-rule="nonzero"/><path fill="#003152" d="M 204.691406 88.757812 C 204.183594 88.757812 203.703125 88.550781 203.355469 88.1875 L 193.953125 78.25 C 193.285156 77.542969 193.285156 76.4375 193.953125 75.730469 L 216.226562 52.203125 C 216.570312 51.835938 217.054688 51.628906 217.558594 51.628906 C 218.0625 51.628906 218.542969 51.835938 218.890625 52.203125 L 228.292969 62.136719 C 228.964844 62.84375 228.964844 63.949219 228.292969 64.660156 L 206.023438 88.1875 C 205.675781 88.550781 205.195312 88.757812 204.691406 88.757812 Z M 197.8125 76.992188 L 204.691406 84.253906 L 224.433594 63.398438 L 217.558594 56.132812 Z M 197.8125 76.992188 " fill-opacity="1" fill-rule="nonzero"/><path fill="#ffffff" d="M 248.085938 237.414062 C 232.644531 225.636719 214.84375 208.082031 211.5 188.492188 C 209.890625 179.070312 214.117188 166.710938 223.980469 163.488281 C 230.90625 161.234375 240.585938 165.902344 245.839844 171.097656 Z M 248.085938 237.414062 " fill-opacity="1" fill-rule="nonzero"/><path fill="#003152" d="M 250.050781 241.21875 L 246.972656 238.871094 C 231.902344 227.378906 213.199219 209.359375 209.691406 188.800781 C 208.808594 183.628906 209.5625 177.835938 211.761719 172.914062 C 214.25 167.351562 218.386719 163.382812 223.414062 161.742188 C 231.023438 159.265625 241.3125 164.039062 247.128906 169.792969 L 247.648438 170.304688 Z M 227.878906 164.746094 C 226.667969 164.746094 225.546875 164.90625 224.550781 165.234375 C 215.679688 168.128906 211.808594 179.402344 213.308594 188.183594 C 216.386719 206.214844 232.214844 222.441406 246.121094 233.550781 L 244.03125 171.90625 C 241.515625 169.566406 238.214844 167.511719 234.871094 166.210938 C 232.382812 165.238281 229.992188 164.746094 227.878906 164.746094 Z M 227.878906 164.746094 " fill-opacity="1" fill-rule="nonzero"/><path fill="#ffffff" d="M 327.949219 237.414062 C 343.390625 225.636719 360.417969 208.101562 363.761719 188.492188 C 365.371094 179.070312 361.140625 166.710938 351.277344 163.488281 C 344.351562 161.234375 333.222656 166.542969 327.949219 171.738281 Z M 327.949219 237.414062 " fill-opacity="1" fill-rule="nonzero"/><path fill="#003152" d="M 326.113281 241.121094 L 326.113281 170.96875 L 326.660156 170.429688 C 329.550781 167.585938 333.910156 164.847656 338.324219 163.113281 C 341.984375 161.671875 347.300781 160.265625 351.847656 161.742188 C 356.871094 163.382812 361.007812 167.351562 363.496094 172.914062 C 365.699219 177.835938 366.453125 183.628906 365.570312 188.800781 C 363.992188 198.046875 359.371094 207.546875 351.828125 217.03125 C 345.828125 224.578125 338.167969 231.925781 329.0625 238.871094 Z M 329.785156 172.527344 L 329.785156 233.644531 C 341.523438 224.210938 358.660156 207.484375 361.949219 188.183594 C 363.453125 179.402344 359.582031 168.128906 350.707031 165.234375 C 347.972656 164.34375 344.050781 164.800781 339.667969 166.527344 C 335.964844 167.984375 332.332031 170.195312 329.785156 172.527344 Z M 329.785156 172.527344 " fill-opacity="1" fill-rule="nonzero"/><path fill="#98b7e4" d="M 279.410156 261.511719 L 295.859375 261.511719 L 295.859375 295.535156 L 279.410156 295.535156 Z M 279.410156 261.511719 " fill-opacity="1" fill-rule="nonzero"/><path fill="#003152" d="M 295.859375 297.371094 C 294.847656 297.371094 294.023438 296.550781 294.023438 295.539062 L 294.023438 263.347656 L 281.242188 263.347656 L 281.242188 295.539062 C 281.242188 296.550781 280.421875 297.371094 279.410156 297.371094 C 278.394531 297.371094 277.574219 296.550781 277.574219 295.539062 L 277.574219 261.511719 C 277.574219 260.496094 278.394531 259.675781 279.410156 259.675781 L 295.859375 259.675781 C 296.875 259.675781 297.695312 260.5 297.695312 261.511719 L 297.695312 295.539062 C 297.695312 296.550781 296.875 297.371094 295.859375 297.371094 Z M 295.859375 297.371094 " fill-opacity="1" fill-rule="nonzero"/><path fill="#ffffff" d="M 242.652344 160.710938 L 242.652344 224.824219 C 242.652344 249.664062 262.789062 269.800781 287.628906 269.800781 C 312.46875 269.800781 332.605469 249.664062 332.605469 224.824219 L 332.605469 160.710938 Z M 242.652344 160.710938 " fill-opacity="1" fill-rule="nonzero"/><path fill="#003152" d="M 287.628906 271.632812 C 275.125 271.632812 263.367188 266.765625 254.527344 257.925781 C 245.683594 249.082031 240.816406 237.328125 240.816406 224.824219 L 240.816406 160.710938 C 240.816406 159.699219 241.636719 158.875 242.652344 158.875 L 332.605469 158.875 C 333.617188 158.875 334.4375 159.699219 334.4375 160.710938 L 334.4375 224.824219 C 334.4375 237.328125 329.570312 249.082031 320.726562 257.925781 C 311.886719 266.765625 300.132812 271.632812 287.628906 271.632812 Z M 244.488281 162.546875 L 244.488281 224.824219 C 244.488281 248.613281 263.839844 267.964844 287.628906 267.964844 C 311.414062 267.964844 330.769531 248.613281 330.769531 224.824219 L 330.769531 162.546875 Z M 244.488281 162.546875 " fill-opacity="1" fill-rule="nonzero"/><path fill="#ffffff" d="M 256.015625 295.535156 L 319.238281 295.535156 L 319.238281 329.660156 L 256.015625 329.660156 Z M 256.015625 295.535156 " fill-opacity="1" fill-rule="nonzero"/><path fill="#003152" d="M 319.238281 331.496094 L 256.015625 331.496094 C 255.003906 331.496094 254.179688 330.671875 254.179688 329.660156 L 254.179688 295.535156 C 254.179688 294.523438 255.003906 293.699219 256.015625 293.699219 L 319.238281 293.699219 C 320.253906 293.699219 321.074219 294.523438 321.074219 295.535156 L 321.074219 329.660156 C 321.074219 330.671875 320.253906 331.496094 319.238281 331.496094 Z M 257.851562 327.824219 L 317.402344 327.824219 L 317.402344 297.371094 L 257.851562 297.371094 Z M 257.851562 327.824219 " fill-opacity="1" fill-rule="nonzero"/><path fill="#003152" d="M 293.039062 250.316406 C 293.039062 253.523438 290.441406 256.125 287.230469 256.125 C 284.023438 256.125 281.425781 253.523438 281.425781 250.316406 C 281.425781 247.109375 284.023438 244.511719 287.230469 244.511719 C 290.441406 244.511719 293.039062 247.109375 293.039062 250.316406 Z M 293.039062 250.316406 " fill-opacity="1" fill-rule="nonzero"/><path fill="#003152" d="M 287.230469 257.960938 C 283.019531 257.960938 279.589844 254.53125 279.589844 250.316406 C 279.589844 246.101562 283.019531 242.675781 287.230469 242.675781 C 291.445312 242.675781 294.875 246.101562 294.875 250.316406 C 294.875 254.53125 291.445312 257.960938 287.230469 257.960938 Z M 287.230469 246.34375 C 285.042969 246.34375 283.261719 248.128906 283.261719 250.316406 C 283.261719 252.507812 285.042969 254.289062 287.230469 254.289062 C 289.421875 254.289062 291.203125 252.507812 291.203125 250.316406 C 291.203125 248.125 289.421875 246.34375 287.230469 246.34375 Z M 287.230469 246.34375 " fill-opacity="1" fill-rule="nonzero"/><path fill="#003152" d="M 314.074219 199.527344 C 313.242188 186.15625 302.359375 175.269531 288.988281 174.441406 C 275.820312 173.625 264.539062 182.300781 261.332031 194.277344 C 260.390625 197.789062 263.039062 201.242188 266.675781 201.242188 L 266.878906 201.242188 C 269.289062 201.242188 271.300781 199.558594 271.910156 197.226562 C 273.832031 189.851562 280.921875 184.5625 289.082031 185.464844 C 296.351562 186.265625 302.25 192.160156 303.050781 199.433594 C 304.109375 209.011719 296.636719 217.117188 287.273438 217.117188 L 287.214844 217.117188 C 284.109375 217.105469 281.542969 219.511719 281.542969 222.613281 L 281.542969 226.140625 L 281.539062 226.140625 L 281.539062 231.71875 C 281.539062 234.863281 284.085938 237.410156 287.230469 237.410156 C 290.375 237.410156 292.921875 234.863281 292.921875 231.71875 L 292.921875 227.5 C 305.574219 224.789062 314.917969 213.171875 314.074219 199.527344 Z M 314.074219 199.527344 " fill-opacity="1" fill-rule="nonzero"/><path fill="#003152" d="M 287.230469 239.246094 C 283.082031 239.246094 279.707031 235.867188 279.707031 231.71875 L 279.707031 226.140625 C 279.707031 226.117188 279.707031 226.097656 279.707031 226.074219 L 279.707031 222.613281 C 279.707031 220.671875 280.464844 218.84375 281.839844 217.472656 C 283.257812 216.058594 285.15625 215.285156 287.191406 215.285156 C 287.199219 215.285156 287.210938 215.285156 287.21875 215.285156 L 287.273438 215.285156 C 291.261719 215.285156 295.074219 213.578125 297.738281 210.605469 C 300.4375 207.59375 301.675781 203.695312 301.226562 199.636719 C 300.515625 193.191406 295.324219 188 288.878906 187.289062 C 281.847656 186.511719 275.457031 190.886719 273.683594 197.6875 C 272.859375 200.859375 270.058594 203.078125 266.878906 203.078125 L 266.675781 203.078125 C 264.367188 203.078125 262.238281 202.023438 260.832031 200.191406 C 259.425781 198.359375 258.960938 196.03125 259.5625 193.800781 C 261.242188 187.523438 265.070312 181.9375 270.34375 178.078125 C 275.730469 174.136719 282.390625 172.191406 289.101562 172.609375 C 296.015625 173.039062 302.5625 176.011719 307.53125 180.984375 C 312.503906 185.953125 315.476562 192.5 315.90625 199.414062 C 316.339844 206.378906 314.246094 213.238281 310.015625 218.734375 C 306.164062 223.726562 300.792969 227.3125 294.757812 228.941406 L 294.757812 231.71875 C 294.757812 235.867188 291.382812 239.246094 287.230469 239.246094 Z M 283.375 226.203125 L 283.375 231.71875 C 283.375 233.84375 285.105469 235.574219 287.230469 235.574219 C 289.355469 235.574219 291.085938 233.84375 291.085938 231.71875 L 291.085938 227.5 C 291.085938 226.632812 291.691406 225.886719 292.539062 225.703125 C 304.730469 223.09375 313.015625 212.132812 312.242188 199.640625 C 311.464844 187.097656 301.417969 177.050781 288.875 176.273438 C 277.007812 175.535156 266.171875 183.308594 263.105469 194.75 C 262.804688 195.871094 263.039062 197.039062 263.742188 197.957031 C 264.449219 198.878906 265.519531 199.40625 266.675781 199.40625 L 266.878906 199.40625 C 268.414062 199.40625 269.722656 198.34375 270.132812 196.765625 C 271.1875 192.714844 273.664062 189.15625 277.101562 186.738281 C 280.625 184.261719 284.953125 183.160156 289.28125 183.640625 C 297.417969 184.539062 303.976562 191.097656 304.875 199.234375 C 305.429688 204.269531 303.828125 209.308594 300.472656 213.054688 C 297.113281 216.804688 292.304688 218.953125 287.273438 218.953125 L 287.214844 218.953125 C 287.207031 218.953125 287.203125 218.953125 287.199219 218.953125 C 286.136719 218.953125 285.15625 219.351562 284.433594 220.074219 C 283.75 220.75 283.378906 221.652344 283.378906 222.613281 L 283.378906 226.140625 C 283.375 226.160156 283.375 226.183594 283.375 226.203125 Z M 283.375 226.203125 " fill-opacity="1" fill-rule="nonzero"/></svg>