<svg xmlns="http://www.w3.org/2000/svg" xmlns:xlink="http://www.w3.org/1999/xlink" width="500" zoomAndPan="magnify" viewBox="0 0 375 374.999991" height="500" preserveAspectRatio="xMidYMid meet" version="1.0"><defs><clipPath id="285620c97f"><path d="M 4.296875 124 L 73 124 L 73 326 L 4.296875 326 Z M 4.296875 124 " clip-rule="nonzero"/></clipPath><clipPath id="3a6b70b091"><path d="M 206 171 L 356 171 L 356 361.941406 L 206 361.941406 Z M 206 171 " clip-rule="nonzero"/></clipPath><clipPath id="2cdf1d150c"><path d="M 133 13.191406 L 272 13.191406 L 272 42 L 133 42 Z M 133 13.191406 " clip-rule="nonzero"/></clipPath><clipPath id="48e8d35dcb"><path d="M 79 293 L 148 293 L 148 361.941406 L 79 361.941406 Z M 79 293 " clip-rule="nonzero"/></clipPath><clipPath id="3a87985874"><path d="M 159 293 L 229 293 L 229 361.941406 L 159 361.941406 Z M 159 293 " clip-rule="nonzero"/></clipPath><clipPath id="12d3f4311a"><path d="M 211 111 L 374.796875 111 L 374.796875 138 L 211 138 Z M 211 111 " clip-rule="nonzero"/></clipPath></defs><g clip-path="url(#285620c97f)"><path fill="#003152" d="M 71.097656 325.976562 C 70.699219 325.976562 70.296875 325.847656 69.960938 325.574219 C 64.734375 321.378906 59.695312 316.835938 54.980469 312.070312 C 54.273438 311.351562 54.277344 310.199219 54.992188 309.492188 C 55.707031 308.785156 56.863281 308.789062 57.570312 309.507812 C 62.1875 314.175781 67.125 318.625 72.242188 322.734375 C 73.023438 323.363281 73.152344 324.511719 72.519531 325.296875 C 72.160156 325.742188 71.632812 325.976562 71.097656 325.976562 Z M 43.070312 297.636719 C 42.53125 297.636719 41.996094 297.398438 41.636719 296.941406 C 37.496094 291.664062 33.617188 286.09375 30.113281 280.386719 C 29.585938 279.53125 29.855469 278.410156 30.710938 277.882812 C 31.570312 277.355469 32.691406 277.625 33.21875 278.480469 C 36.652344 284.070312 40.449219 289.523438 44.503906 294.691406 C 45.125 295.480469 44.988281 296.628906 44.195312 297.25 C 43.863281 297.511719 43.464844 297.636719 43.070312 297.636719 Z M 22.214844 263.675781 C 21.527344 263.675781 20.871094 263.285156 20.5625 262.621094 C 17.734375 256.539062 15.230469 250.230469 13.125 243.871094 C 12.808594 242.917969 13.324219 241.886719 14.28125 241.570312 C 15.234375 241.253906 16.265625 241.769531 16.582031 242.726562 C 18.644531 248.953125 21.09375 255.128906 23.867188 261.082031 C 24.289062 261.996094 23.894531 263.078125 22.984375 263.503906 C 22.734375 263.621094 22.472656 263.675781 22.214844 263.675781 Z M 9.6875 225.839844 C 8.839844 225.839844 8.082031 225.25 7.902344 224.386719 C 6.550781 217.835938 5.558594 211.121094 4.964844 204.433594 C 4.875 203.429688 5.617188 202.546875 6.617188 202.457031 C 7.621094 202.367188 8.503906 203.109375 8.59375 204.109375 C 9.175781 210.660156 10.144531 217.234375 11.472656 223.652344 C 11.675781 224.636719 11.042969 225.601562 10.058594 225.804688 C 9.933594 225.828125 9.808594 225.839844 9.6875 225.839844 Z M 6.144531 186.140625 C 6.128906 186.140625 6.113281 186.136719 6.097656 186.136719 C 5.089844 186.113281 4.296875 185.277344 4.320312 184.273438 C 4.488281 177.550781 5.039062 170.785156 5.964844 164.164062 C 6.105469 163.167969 7.023438 162.472656 8.023438 162.613281 C 9.019531 162.753906 9.714844 163.671875 9.574219 164.671875 C 8.667969 171.152344 8.125 177.777344 7.964844 184.363281 C 7.9375 185.351562 7.128906 186.140625 6.144531 186.140625 Z M 11.671875 146.660156 C 11.519531 146.660156 11.363281 146.640625 11.210938 146.601562 C 10.238281 146.347656 9.652344 145.355469 9.90625 144.378906 C 11.59375 137.890625 13.679688 131.433594 16.105469 125.183594 C 16.46875 124.242188 17.527344 123.777344 18.464844 124.144531 C 19.402344 124.507812 19.867188 125.5625 19.503906 126.5 C 17.125 132.621094 15.085938 138.945312 13.433594 145.296875 C 13.21875 146.117188 12.480469 146.660156 11.671875 146.660156 Z M 11.671875 146.660156 " fill-opacity="1" fill-rule="nonzero"/></g><g clip-path="url(#3a6b70b091)"><path fill="#003152" d="M 208.414062 361.796875 C 207.539062 361.796875 206.765625 361.164062 206.617188 360.273438 C 206.453125 359.28125 207.125 358.339844 208.117188 358.175781 C 214.597656 357.101562 221.078125 355.632812 227.378906 353.820312 C 228.34375 353.542969 229.355469 354.101562 229.632812 355.066406 C 229.910156 356.035156 229.351562 357.042969 228.386719 357.320312 C 221.949219 359.175781 215.332031 360.671875 208.714844 361.769531 C 208.613281 361.789062 208.511719 361.796875 208.414062 361.796875 Z M 246.710938 350.769531 C 246 350.769531 245.320312 350.347656 245.03125 349.652344 C 244.640625 348.722656 245.078125 347.65625 246.007812 347.265625 C 252.054688 344.738281 258.019531 341.824219 263.746094 338.613281 C 264.621094 338.121094 265.734375 338.429688 266.226562 339.308594 C 266.71875 340.1875 266.40625 341.296875 265.527344 341.789062 C 259.683594 345.070312 253.585938 348.046875 247.414062 350.628906 C 247.183594 350.722656 246.945312 350.769531 246.710938 350.769531 Z M 281.445312 331.269531 C 280.882812 331.269531 280.324219 331.011719 279.96875 330.519531 C 279.378906 329.703125 279.5625 328.5625 280.375 327.972656 C 285.691406 324.128906 290.839844 319.929688 295.6875 315.5 C 296.429688 314.820312 297.582031 314.871094 298.261719 315.613281 C 298.9375 316.355469 298.886719 317.507812 298.144531 318.1875 C 293.199219 322.710938 287.9375 327 282.511719 330.925781 C 282.191406 331.160156 281.816406 331.269531 281.445312 331.269531 Z M 310.847656 304.375 C 310.425781 304.375 310 304.226562 309.65625 303.929688 C 308.894531 303.269531 308.816406 302.117188 309.476562 301.359375 C 313.785156 296.402344 317.851562 291.144531 321.5625 285.734375 C 322.128906 284.902344 323.265625 284.691406 324.09375 285.261719 C 324.921875 285.828125 325.136719 286.964844 324.566406 287.792969 C 320.777344 293.320312 316.625 298.6875 312.226562 303.75 C 311.863281 304.164062 311.359375 304.375 310.847656 304.375 Z M 333.386719 271.5 C 333.101562 271.5 332.808594 271.429688 332.539062 271.285156 C 331.648438 270.816406 331.308594 269.714844 331.777344 268.824219 C 334.847656 263.015625 337.609375 256.96875 339.984375 250.851562 C 340.347656 249.914062 341.402344 249.449219 342.339844 249.8125 C 343.277344 250.175781 343.746094 251.234375 343.378906 252.171875 C 340.953125 258.417969 338.136719 264.59375 335 270.527344 C 334.675781 271.144531 334.042969 271.5 333.386719 271.5 Z M 347.820312 234.328125 C 347.667969 234.328125 347.515625 234.3125 347.359375 234.269531 C 346.386719 234.019531 345.804688 233.023438 346.054688 232.050781 C 347.707031 225.703125 349.003906 219.1875 349.914062 212.683594 C 350.054688 211.683594 350.972656 210.992188 351.96875 211.128906 C 352.964844 211.269531 353.660156 212.191406 353.523438 213.1875 C 352.59375 219.832031 351.269531 226.488281 349.582031 232.964844 C 349.371094 233.785156 348.628906 234.328125 347.820312 234.328125 Z M 353.347656 194.867188 C 353.332031 194.867188 353.316406 194.863281 353.300781 194.863281 C 352.292969 194.839844 351.5 194.003906 351.523438 193 C 351.558594 191.566406 351.578125 190.113281 351.578125 188.675781 C 351.578125 183.535156 351.347656 178.34375 350.894531 173.253906 C 350.804688 172.25 351.546875 171.363281 352.546875 171.277344 C 353.546875 171.1875 354.433594 171.925781 354.523438 172.929688 C 354.984375 178.128906 355.21875 183.425781 355.21875 188.675781 C 355.21875 190.144531 355.203125 191.628906 355.164062 193.089844 C 355.140625 194.078125 354.332031 194.867188 353.347656 194.867188 Z M 353.347656 194.867188 " fill-opacity="1" fill-rule="nonzero"/></g><g clip-path="url(#2cdf1d150c)"><path fill="#003152" d="M 269.761719 41.964844 C 269.441406 41.964844 269.113281 41.882812 268.816406 41.703125 C 263.203125 38.289062 257.332031 35.171875 251.371094 32.4375 C 250.457031 32.015625 250.058594 30.933594 250.476562 30.019531 C 250.898438 29.105469 251.980469 28.707031 252.894531 29.125 C 258.980469 31.921875 264.972656 35.105469 270.710938 38.585938 C 271.570312 39.109375 271.84375 40.230469 271.320312 41.089844 C 270.976562 41.65625 270.378906 41.964844 269.761719 41.964844 Z M 233.539062 25.335938 C 233.351562 25.335938 233.164062 25.308594 232.976562 25.246094 C 226.738281 23.214844 220.308594 21.527344 213.871094 20.230469 C 212.882812 20.03125 212.246094 19.070312 212.445312 18.085938 C 212.644531 17.097656 213.605469 16.460938 214.589844 16.660156 C 221.167969 17.984375 227.730469 19.707031 234.105469 21.78125 C 235.058594 22.09375 235.582031 23.121094 235.273438 24.078125 C 235.023438 24.847656 234.308594 25.335938 233.539062 25.335938 Z M 135.058594 22.644531 C 134.253906 22.644531 133.515625 22.105469 133.300781 21.289062 C 133.042969 20.316406 133.621094 19.320312 134.59375 19.0625 C 141.066406 17.34375 147.714844 15.984375 154.355469 15.019531 C 155.351562 14.875 156.277344 15.566406 156.421875 16.5625 C 156.566406 17.558594 155.875 18.484375 154.878906 18.628906 C 148.375 19.570312 141.867188 20.902344 135.527344 22.582031 C 135.371094 22.625 135.214844 22.644531 135.058594 22.644531 Z M 194.464844 17.457031 C 194.414062 17.457031 194.363281 17.453125 194.3125 17.449219 C 189.5 17.046875 184.597656 16.84375 179.742188 16.84375 C 178.019531 16.84375 176.277344 16.867188 174.5625 16.917969 C 173.550781 16.949219 172.714844 16.15625 172.6875 15.152344 C 172.65625 14.144531 173.445312 13.304688 174.453125 13.277344 C 176.203125 13.226562 177.984375 13.199219 179.742188 13.199219 C 184.699219 13.199219 189.703125 13.40625 194.617188 13.820312 C 195.621094 13.902344 196.363281 14.785156 196.28125 15.789062 C 196.199219 16.738281 195.402344 17.457031 194.464844 17.457031 Z M 194.464844 17.457031 " fill-opacity="1" fill-rule="nonzero"/></g><path fill="#ec9707" d="M 307.242188 188.675781 C 307.242188 190.761719 307.191406 192.847656 307.089844 194.929688 C 306.988281 197.015625 306.835938 199.097656 306.628906 201.171875 C 306.425781 203.25 306.171875 205.320312 305.863281 207.382812 C 305.558594 209.449219 305.199219 211.503906 304.792969 213.550781 C 304.386719 215.59375 303.929688 217.632812 303.421875 219.65625 C 302.914062 221.679688 302.359375 223.691406 301.753906 225.6875 C 301.148438 227.683594 300.492188 229.664062 299.789062 231.628906 C 299.085938 233.59375 298.335938 235.539062 297.539062 237.46875 C 296.738281 239.394531 295.894531 241.300781 295.003906 243.1875 C 294.109375 245.074219 293.171875 246.9375 292.1875 248.777344 C 291.207031 250.617188 290.175781 252.433594 289.105469 254.222656 C 288.03125 256.011719 286.914062 257.773438 285.757812 259.511719 C 284.597656 261.246094 283.394531 262.949219 282.152344 264.625 C 280.910156 266.304688 279.625 267.949219 278.300781 269.558594 C 276.980469 271.171875 275.617188 272.753906 274.214844 274.300781 C 272.8125 275.84375 271.375 277.355469 269.898438 278.832031 C 268.425781 280.308594 266.914062 281.746094 265.367188 283.144531 C 263.820312 284.546875 262.242188 285.910156 260.628906 287.234375 C 259.015625 288.558594 257.371094 289.839844 255.695312 291.085938 C 254.019531 292.328125 252.3125 293.527344 250.578125 294.6875 C 248.84375 295.847656 247.082031 296.960938 245.292969 298.035156 C 243.503906 299.109375 241.6875 300.136719 239.847656 301.121094 C 238.007812 302.105469 236.144531 303.042969 234.257812 303.933594 C 232.371094 304.824219 230.464844 305.671875 228.535156 306.46875 C 226.609375 307.269531 224.660156 308.019531 222.695312 308.722656 C 220.734375 309.425781 218.75 310.078125 216.753906 310.683594 C 214.757812 311.289062 212.746094 311.847656 210.722656 312.355469 C 208.699219 312.859375 206.664062 313.316406 204.617188 313.726562 C 202.570312 314.132812 200.515625 314.488281 198.453125 314.796875 C 196.386719 315.101562 194.316406 315.355469 192.242188 315.5625 C 190.164062 315.765625 188.085938 315.917969 186 316.023438 C 183.914062 316.125 181.832031 316.175781 179.742188 316.175781 C 177.65625 316.175781 175.570312 316.125 173.488281 316.023438 C 171.402344 315.917969 169.324219 315.765625 167.246094 315.5625 C 165.171875 315.355469 163.101562 315.101562 161.035156 314.796875 C 158.972656 314.488281 156.917969 314.132812 154.871094 313.726562 C 152.824219 313.316406 150.789062 312.859375 148.765625 312.355469 C 146.738281 311.847656 144.730469 311.289062 142.730469 310.683594 C 140.734375 310.078125 138.753906 309.425781 136.789062 308.722656 C 134.824219 308.019531 132.878906 307.269531 130.953125 306.46875 C 129.023438 305.671875 127.117188 304.824219 125.230469 303.933594 C 123.34375 303.042969 121.480469 302.105469 119.640625 301.121094 C 117.800781 300.136719 115.984375 299.109375 114.195312 298.035156 C 112.40625 296.960938 110.644531 295.847656 108.910156 294.6875 C 107.171875 293.527344 105.46875 292.328125 103.792969 291.085938 C 102.117188 289.839844 100.472656 288.558594 98.859375 287.234375 C 97.246094 285.910156 95.664062 284.546875 94.121094 283.144531 C 92.574219 281.746094 91.0625 280.308594 89.585938 278.832031 C 88.113281 277.355469 86.671875 275.84375 85.273438 274.300781 C 83.871094 272.753906 82.507812 271.171875 81.183594 269.558594 C 79.859375 267.949219 78.578125 266.304688 77.335938 264.625 C 76.089844 262.949219 74.890625 261.246094 73.730469 259.511719 C 72.570312 257.773438 71.457031 256.011719 70.382812 254.222656 C 69.308594 252.433594 68.28125 250.617188 67.296875 248.777344 C 66.316406 246.9375 65.378906 245.074219 64.484375 243.1875 C 63.59375 241.300781 62.746094 239.394531 61.949219 237.46875 C 61.148438 235.539062 60.398438 233.59375 59.695312 231.628906 C 58.992188 229.664062 58.339844 227.683594 57.734375 225.6875 C 57.128906 223.691406 56.570312 221.679688 56.066406 219.65625 C 55.558594 217.632812 55.101562 215.59375 54.695312 213.550781 C 54.285156 211.503906 53.929688 209.449219 53.625 207.382812 C 53.316406 205.320312 53.0625 203.25 52.859375 201.171875 C 52.652344 199.097656 52.5 197.015625 52.398438 194.929688 C 52.292969 192.847656 52.242188 190.761719 52.242188 188.675781 C 52.242188 186.589844 52.292969 184.503906 52.398438 182.417969 C 52.5 180.335938 52.652344 178.253906 52.859375 176.179688 C 53.0625 174.101562 53.316406 172.03125 53.625 169.96875 C 53.929688 167.902344 54.285156 165.847656 54.695312 163.800781 C 55.101562 161.753906 55.558594 159.71875 56.066406 157.695312 C 56.570312 155.671875 57.128906 153.660156 57.734375 151.664062 C 58.339844 149.667969 58.992188 147.6875 59.695312 145.722656 C 60.398438 143.757812 61.148438 141.8125 61.949219 139.882812 C 62.746094 137.957031 63.59375 136.046875 64.484375 134.160156 C 65.378906 132.277344 66.316406 130.414062 67.296875 128.570312 C 68.28125 126.730469 69.308594 124.917969 70.382812 123.125 C 71.457031 121.335938 72.570312 119.574219 73.730469 117.839844 C 74.890625 116.105469 76.089844 114.398438 77.335938 112.722656 C 78.578125 111.046875 79.859375 109.402344 81.183594 107.789062 C 82.507812 106.175781 83.871094 104.597656 85.273438 103.050781 C 86.671875 101.503906 88.113281 99.996094 89.585938 98.519531 C 91.0625 97.042969 92.574219 95.605469 94.121094 94.203125 C 95.664062 92.800781 97.246094 91.441406 98.859375 90.117188 C 100.472656 88.792969 102.117188 87.507812 103.792969 86.265625 C 105.46875 85.023438 107.171875 83.820312 108.910156 82.664062 C 110.644531 81.503906 112.40625 80.386719 114.195312 79.316406 C 115.984375 78.242188 117.800781 77.214844 119.640625 76.230469 C 121.480469 75.246094 123.34375 74.308594 125.230469 73.417969 C 127.117188 72.523438 129.023438 71.679688 130.953125 70.878906 C 132.878906 70.082031 134.824219 69.332031 136.789062 68.628906 C 138.753906 67.925781 140.734375 67.269531 142.730469 66.664062 C 144.730469 66.058594 146.738281 65.503906 148.765625 64.996094 C 150.789062 64.488281 152.824219 64.03125 154.871094 63.625 C 156.917969 63.21875 158.972656 62.859375 161.035156 62.554688 C 163.097656 62.25 165.171875 61.992188 167.246094 61.789062 C 169.324219 61.585938 171.402344 61.429688 173.488281 61.328125 C 175.570312 61.226562 177.65625 61.175781 179.742188 61.175781 C 181.832031 61.175781 183.914062 61.226562 186 61.328125 C 188.085938 61.429688 190.164062 61.585938 192.242188 61.789062 C 194.316406 61.992188 196.386719 62.25 198.453125 62.554688 C 200.515625 62.859375 202.570312 63.21875 204.617188 63.625 C 206.664062 64.03125 208.699219 64.488281 210.722656 64.996094 C 212.746094 65.503906 214.757812 66.058594 216.753906 66.664062 C 218.75 67.269531 220.734375 67.925781 222.695312 68.628906 C 224.660156 69.332031 226.609375 70.082031 228.535156 70.878906 C 230.464844 71.679688 232.371094 72.523438 234.257812 73.417969 C 236.144531 74.308594 238.007812 75.246094 239.847656 76.230469 C 241.6875 77.214844 243.503906 78.242188 245.292969 79.316406 C 247.082031 80.386719 248.84375 81.503906 250.578125 82.664062 C 252.3125 83.820312 254.019531 85.023438 255.695312 86.265625 C 257.371094 87.507812 259.015625 88.792969 260.628906 90.117188 C 262.242188 91.441406 263.820312 92.800781 265.367188 94.203125 C 266.914062 95.605469 268.425781 97.042969 269.898438 98.519531 C 271.375 99.996094 272.8125 101.503906 274.214844 103.050781 C 275.617188 104.597656 276.980469 106.175781 278.300781 107.789062 C 279.625 109.402344 280.910156 111.046875 282.152344 112.722656 C 283.394531 114.398438 284.597656 116.105469 285.757812 117.839844 C 286.914062 119.574219 288.03125 121.335938 289.105469 123.125 C 290.175781 124.917969 291.207031 126.730469 292.1875 128.570312 C 293.171875 130.414062 294.109375 132.277344 295.003906 134.160156 C 295.894531 136.046875 296.738281 137.957031 297.539062 139.882812 C 298.335938 141.8125 299.085938 143.757812 299.789062 145.722656 C 300.492188 147.6875 301.148438 149.667969 301.753906 151.664062 C 302.359375 153.660156 302.914062 155.671875 303.421875 157.695312 C 303.929688 159.71875 304.386719 161.753906 304.792969 163.800781 C 305.199219 165.847656 305.558594 167.902344 305.863281 169.96875 C 306.171875 172.03125 306.425781 174.101562 306.628906 176.179688 C 306.835938 178.253906 306.988281 180.335938 307.089844 182.417969 C 307.191406 184.503906 307.242188 186.589844 307.242188 188.675781 Z M 307.242188 188.675781 " fill-opacity="1" fill-rule="nonzero"/><path fill="#ffffff" d="M 103.105469 279.65625 C 103.105469 255.953125 122.386719 236.671875 146.085938 236.671875 L 146.085938 214.765625 C 110.25 214.765625 81.195312 243.816406 81.195312 279.65625 Z M 103.105469 279.65625 " fill-opacity="1" fill-rule="nonzero"/><path fill="#003152" d="M 103.105469 281.476562 L 81.195312 281.476562 C 80.1875 281.476562 79.375 280.660156 79.375 279.65625 C 79.375 270.648438 81.136719 261.914062 84.617188 253.6875 C 87.976562 245.742188 92.785156 238.609375 98.914062 232.484375 C 105.039062 226.355469 112.171875 221.546875 120.117188 218.1875 C 128.34375 214.707031 137.082031 212.941406 146.085938 212.941406 C 147.089844 212.941406 147.90625 213.757812 147.90625 214.765625 L 147.90625 236.671875 C 147.90625 237.679688 147.089844 238.496094 146.085938 238.496094 C 123.390625 238.496094 104.925781 256.960938 104.925781 279.65625 C 104.929688 280.660156 104.113281 281.476562 103.105469 281.476562 Z M 83.042969 277.832031 L 101.320312 277.832031 C 102.257812 254.574219 121.007812 235.824219 144.261719 234.886719 L 144.261719 216.613281 C 110.933594 217.5625 83.992188 244.5 83.042969 277.832031 Z M 83.042969 277.832031 " fill-opacity="1" fill-rule="nonzero"/><path fill="#ffffff" d="M 146.085938 359.765625 C 110.246094 359.765625 81.195312 330.714844 81.195312 294.875 L 103.105469 294.875 C 103.105469 318.574219 122.386719 337.855469 146.085938 337.855469 Z M 146.085938 359.765625 " fill-opacity="1" fill-rule="nonzero"/><g clip-path="url(#48e8d35dcb)"><path fill="#003152" d="M 146.085938 361.585938 C 137.082031 361.585938 128.34375 359.824219 120.117188 356.34375 C 112.171875 352.984375 105.039062 348.175781 98.914062 342.046875 C 92.785156 335.921875 87.976562 328.789062 84.617188 320.84375 C 81.136719 312.617188 79.375 303.882812 79.375 294.875 C 79.375 293.871094 80.191406 293.054688 81.195312 293.054688 L 103.105469 293.054688 C 104.113281 293.054688 104.929688 293.871094 104.929688 294.875 C 104.929688 317.570312 123.390625 336.035156 146.085938 336.035156 C 147.09375 336.035156 147.90625 336.851562 147.90625 337.855469 L 147.90625 359.765625 C 147.90625 360.773438 147.089844 361.585938 146.085938 361.585938 Z M 83.042969 296.699219 C 83.992188 330.027344 110.933594 356.96875 144.265625 357.917969 L 144.265625 339.640625 C 121.007812 338.707031 102.257812 319.957031 101.320312 296.699219 Z M 83.042969 296.699219 " fill-opacity="1" fill-rule="nonzero"/></g><path fill="#ffffff" d="M 161.308594 359.765625 C 197.144531 359.765625 226.195312 330.714844 226.195312 294.875 L 204.285156 294.875 C 204.285156 318.574219 185.003906 337.855469 161.308594 337.855469 Z M 161.308594 359.765625 " fill-opacity="1" fill-rule="nonzero"/><g clip-path="url(#3a87985874)"><path fill="#003152" d="M 161.308594 361.585938 C 160.300781 361.585938 159.484375 360.773438 159.484375 359.765625 L 159.484375 337.855469 C 159.484375 336.851562 160.300781 336.035156 161.308594 336.035156 C 184 336.035156 202.464844 317.570312 202.464844 294.875 C 202.464844 293.871094 203.28125 293.054688 204.285156 293.054688 L 226.195312 293.054688 C 227.203125 293.054688 228.019531 293.871094 228.019531 294.875 C 228.019531 303.878906 226.253906 312.617188 222.777344 320.84375 C 219.414062 328.789062 214.605469 335.921875 208.480469 342.046875 C 202.351562 348.171875 195.21875 352.984375 187.273438 356.34375 C 179.050781 359.824219 170.3125 361.585938 161.308594 361.585938 Z M 163.128906 339.640625 L 163.128906 357.917969 C 196.460938 356.96875 223.398438 330.027344 224.347656 296.699219 L 206.070312 296.699219 C 205.136719 319.957031 186.386719 338.707031 163.128906 339.640625 Z M 163.128906 339.640625 " fill-opacity="1" fill-rule="nonzero"/></g><path fill="#98b7e4" d="M 240.652344 277.582031 C 240.652344 233.335938 204.785156 197.46875 160.539062 197.46875 L 160.539062 224.515625 C 189.796875 224.515625 213.601562 248.320312 213.601562 277.582031 Z M 240.652344 277.582031 " fill-opacity="1" fill-rule="nonzero"/><path fill="#003152" d="M 240.652344 279.402344 L 213.601562 279.402344 C 212.59375 279.402344 211.78125 278.585938 211.78125 277.582031 C 211.78125 249.324219 188.792969 226.335938 160.539062 226.335938 C 159.53125 226.335938 158.714844 225.523438 158.714844 224.515625 L 158.714844 197.46875 C 158.714844 196.460938 159.53125 195.644531 160.539062 195.644531 C 171.597656 195.644531 182.328125 197.8125 192.433594 202.085938 C 202.1875 206.210938 210.953125 212.121094 218.476562 219.644531 C 226 227.167969 231.90625 235.929688 236.035156 245.6875 C 240.308594 255.789062 242.476562 266.519531 242.476562 277.582031 C 242.476562 278.066406 242.28125 278.527344 241.941406 278.871094 C 241.597656 279.210938 241.136719 279.402344 240.652344 279.402344 Z M 215.394531 275.757812 L 238.808594 275.757812 C 237.851562 234.03125 204.085938 200.265625 162.359375 199.308594 L 162.359375 222.722656 C 191.179688 223.667969 214.449219 246.9375 215.394531 275.757812 Z M 215.394531 275.757812 " fill-opacity="1" fill-rule="nonzero"/><path fill="#ffffff" d="M 217.191406 220.933594 L 198.207031 239.910156 Z M 217.191406 220.933594 " fill-opacity="1" fill-rule="nonzero"/><path fill="#003152" d="M 198.207031 241.730469 C 197.742188 241.730469 197.277344 241.554688 196.921875 241.199219 C 196.210938 240.488281 196.210938 239.332031 196.921875 238.621094 L 215.902344 219.644531 C 216.613281 218.933594 217.765625 218.933594 218.476562 219.648438 C 219.191406 220.359375 219.191406 221.511719 218.476562 222.222656 L 199.496094 241.199219 C 199.140625 241.554688 198.675781 241.730469 198.207031 241.730469 Z M 198.207031 241.730469 " fill-opacity="1" fill-rule="nonzero"/><path fill="#ffffff" d="M 230.125 238.886719 L 206.867188 250.496094 Z M 230.125 238.886719 " fill-opacity="1" fill-rule="nonzero"/><path fill="#003152" d="M 206.867188 252.320312 C 206.199219 252.320312 205.554688 251.949219 205.238281 251.308594 C 204.789062 250.410156 205.152344 249.316406 206.054688 248.867188 L 229.3125 237.257812 C 230.210938 236.804688 231.304688 237.171875 231.757812 238.074219 C 232.207031 238.972656 231.839844 240.066406 230.941406 240.515625 L 207.679688 252.125 C 207.417969 252.257812 207.140625 252.320312 206.867188 252.320312 Z M 206.867188 252.320312 " fill-opacity="1" fill-rule="nonzero"/><path fill="#ffffff" d="M 238.65625 259.734375 L 212.148438 263.488281 Z M 238.65625 259.734375 " fill-opacity="1" fill-rule="nonzero"/><path fill="#003152" d="M 212.148438 265.3125 C 211.253906 265.3125 210.472656 264.65625 210.34375 263.746094 C 210.203125 262.75 210.898438 261.828125 211.894531 261.6875 L 238.402344 257.929688 C 239.394531 257.789062 240.320312 258.480469 240.460938 259.476562 C 240.601562 260.472656 239.910156 261.394531 238.914062 261.535156 L 212.40625 265.292969 C 212.316406 265.304688 212.230469 265.3125 212.148438 265.3125 Z M 212.148438 265.3125 " fill-opacity="1" fill-rule="nonzero"/><path fill="#ffffff" d="M 197.980469 206.738281 L 187.59375 231.230469 Z M 197.980469 206.738281 " fill-opacity="1" fill-rule="nonzero"/><path fill="#003152" d="M 187.59375 233.050781 C 187.355469 233.050781 187.113281 233.003906 186.882812 232.90625 C 185.953125 232.511719 185.523438 231.445312 185.914062 230.515625 L 196.304688 206.027344 C 196.695312 205.101562 197.765625 204.667969 198.691406 205.0625 C 199.617188 205.453125 200.050781 206.523438 199.65625 207.449219 L 189.269531 231.941406 C 188.976562 232.632812 188.300781 233.050781 187.59375 233.050781 Z M 187.59375 233.050781 " fill-opacity="1" fill-rule="nonzero"/><path fill="#ffffff" d="M 176.511719 199.246094 L 173.519531 225.914062 Z M 176.511719 199.246094 " fill-opacity="1" fill-rule="nonzero"/><path fill="#003152" d="M 173.523438 227.734375 C 173.453125 227.734375 173.386719 227.730469 173.316406 227.722656 C 172.316406 227.613281 171.597656 226.710938 171.710938 225.710938 L 174.703125 199.042969 C 174.816406 198.042969 175.71875 197.324219 176.714844 197.4375 C 177.714844 197.546875 178.4375 198.449219 178.324219 199.449219 L 175.332031 226.117188 C 175.226562 227.046875 174.4375 227.734375 173.523438 227.734375 Z M 173.523438 227.734375 " fill-opacity="1" fill-rule="nonzero"/><path fill="#003152" d="M 178.34375 309.945312 C 178.34375 310.738281 178.992188 311.390625 179.789062 311.390625 L 189.214844 311.390625 C 190.011719 311.390625 190.660156 310.738281 190.660156 309.945312 L 190.660156 257.304688 C 190.660156 256.507812 190.011719 255.859375 189.214844 255.859375 L 179.789062 255.859375 C 178.992188 255.859375 178.34375 256.507812 178.34375 257.304688 Z M 178.34375 309.945312 " fill-opacity="1" fill-rule="nonzero"/><path fill="#003152" d="M 189.214844 313.210938 L 179.789062 313.210938 C 177.988281 313.210938 176.519531 311.746094 176.519531 309.945312 L 176.519531 257.304688 C 176.519531 255.503906 177.988281 254.035156 179.789062 254.035156 L 189.214844 254.035156 C 191.015625 254.035156 192.484375 255.503906 192.484375 257.304688 L 192.484375 309.945312 C 192.484375 311.746094 191.015625 313.210938 189.214844 313.210938 Z M 180.164062 309.570312 L 188.839844 309.570312 L 188.839844 257.679688 L 180.164062 257.679688 Z M 180.164062 309.570312 " fill-opacity="1" fill-rule="nonzero"/><path fill="#003152" d="M 158.988281 309.945312 C 158.988281 310.738281 159.640625 311.390625 160.433594 311.390625 L 169.195312 311.390625 C 169.992188 311.390625 170.640625 310.738281 170.640625 309.945312 L 170.640625 275.667969 C 170.640625 274.871094 169.992188 274.21875 169.195312 274.21875 L 160.433594 274.21875 C 159.640625 274.21875 158.988281 274.871094 158.988281 275.667969 Z M 158.988281 309.945312 " fill-opacity="1" fill-rule="nonzero"/><path fill="#003152" d="M 169.195312 313.210938 L 160.433594 313.210938 C 158.632812 313.210938 157.164062 311.746094 157.164062 309.945312 L 157.164062 275.667969 C 157.164062 273.863281 158.632812 272.398438 160.433594 272.398438 L 169.195312 272.398438 C 170.996094 272.398438 172.464844 273.863281 172.464844 275.667969 L 172.464844 309.945312 C 172.464844 311.746094 170.996094 313.210938 169.195312 313.210938 Z M 160.808594 309.570312 L 168.820312 309.570312 L 168.820312 276.042969 L 160.808594 276.042969 Z M 160.808594 309.570312 " fill-opacity="1" fill-rule="nonzero"/><path fill="#003152" d="M 118.808594 309.945312 C 118.808594 310.738281 119.457031 311.390625 120.253906 311.390625 L 129.003906 311.390625 C 129.800781 311.390625 130.453125 310.738281 130.453125 309.945312 L 130.453125 282.546875 C 130.453125 281.753906 129.800781 281.101562 129.003906 281.101562 L 120.253906 281.101562 C 119.457031 281.101562 118.808594 281.753906 118.808594 282.546875 Z M 118.808594 309.945312 " fill-opacity="1" fill-rule="nonzero"/><path fill="#003152" d="M 129.003906 313.210938 L 120.253906 313.210938 C 118.453125 313.210938 116.984375 311.746094 116.984375 309.945312 L 116.984375 282.546875 C 116.984375 280.746094 118.453125 279.28125 120.253906 279.28125 L 129.003906 279.28125 C 130.804688 279.28125 132.273438 280.746094 132.273438 282.546875 L 132.273438 309.945312 C 132.273438 311.746094 130.804688 313.210938 129.003906 313.210938 Z M 120.628906 309.570312 L 128.628906 309.570312 L 128.628906 282.921875 L 120.628906 282.921875 Z M 120.628906 309.570312 " fill-opacity="1" fill-rule="nonzero"/><path fill="#003152" d="M 138.007812 309.945312 C 138.007812 310.738281 138.660156 311.390625 139.457031 311.390625 L 149.175781 311.390625 C 149.972656 311.390625 150.625 310.738281 150.625 309.945312 L 150.625 267.855469 C 150.625 267.0625 149.972656 266.410156 149.175781 266.410156 L 139.457031 266.410156 C 138.660156 266.410156 138.007812 267.0625 138.007812 267.855469 Z M 138.007812 309.945312 " fill-opacity="1" fill-rule="nonzero"/><path fill="#003152" d="M 149.175781 313.210938 L 139.457031 313.210938 C 137.652344 313.210938 136.1875 311.746094 136.1875 309.945312 L 136.1875 267.855469 C 136.1875 266.054688 137.652344 264.589844 139.457031 264.589844 L 149.175781 264.589844 C 150.980469 264.589844 152.445312 266.054688 152.445312 267.855469 L 152.445312 309.945312 C 152.445312 311.746094 150.980469 313.210938 149.175781 313.210938 Z M 139.832031 309.570312 L 148.804688 309.570312 L 148.804688 268.230469 L 139.832031 268.230469 Z M 139.832031 309.570312 " fill-opacity="1" fill-rule="nonzero"/><path fill="#ffffff" d="M 82.433594 96.226562 C 82.433594 96.894531 82.402344 97.5625 82.335938 98.226562 C 82.269531 98.894531 82.171875 99.554688 82.042969 100.210938 C 81.910156 100.863281 81.75 101.511719 81.554688 102.152344 C 81.363281 102.792969 81.136719 103.421875 80.878906 104.039062 C 80.625 104.65625 80.339844 105.261719 80.023438 105.847656 C 79.710938 106.4375 79.367188 107.011719 78.996094 107.566406 C 78.621094 108.125 78.226562 108.660156 77.800781 109.175781 C 77.375 109.695312 76.929688 110.1875 76.457031 110.660156 C 75.984375 111.132812 75.488281 111.582031 74.972656 112.007812 C 74.453125 112.429688 73.917969 112.828125 73.363281 113.199219 C 72.804688 113.570312 72.234375 113.914062 71.644531 114.230469 C 71.054688 114.542969 70.449219 114.832031 69.832031 115.085938 C 69.214844 115.34375 68.585938 115.566406 67.945312 115.761719 C 67.308594 115.957031 66.660156 116.117188 66.003906 116.246094 C 65.347656 116.378906 64.6875 116.476562 64.023438 116.542969 C 63.355469 116.605469 62.691406 116.640625 62.019531 116.640625 C 61.351562 116.640625 60.6875 116.605469 60.019531 116.542969 C 59.355469 116.476562 58.695312 116.378906 58.039062 116.246094 C 57.382812 116.117188 56.734375 115.957031 56.09375 115.761719 C 55.457031 115.566406 54.828125 115.34375 54.210938 115.085938 C 53.589844 114.832031 52.988281 114.542969 52.398438 114.230469 C 51.808594 113.914062 51.234375 113.570312 50.679688 113.199219 C 50.125 112.828125 49.585938 112.429688 49.070312 112.007812 C 48.554688 111.582031 48.058594 111.132812 47.585938 110.660156 C 47.113281 110.1875 46.664062 109.695312 46.242188 109.175781 C 45.816406 108.660156 45.417969 108.125 45.046875 107.566406 C 44.675781 107.011719 44.332031 106.4375 44.019531 105.847656 C 43.703125 105.261719 43.417969 104.65625 43.160156 104.039062 C 42.90625 103.421875 42.679688 102.792969 42.488281 102.152344 C 42.292969 101.511719 42.128906 100.863281 42 100.210938 C 41.871094 99.554688 41.773438 98.894531 41.707031 98.226562 C 41.640625 97.5625 41.609375 96.894531 41.609375 96.226562 C 41.609375 95.558594 41.640625 94.890625 41.707031 94.226562 C 41.773438 93.558594 41.871094 92.898438 42 92.246094 C 42.128906 91.589844 42.292969 90.941406 42.488281 90.300781 C 42.679688 89.660156 42.90625 89.03125 43.160156 88.414062 C 43.417969 87.796875 43.703125 87.195312 44.019531 86.605469 C 44.332031 86.015625 44.675781 85.441406 45.046875 84.886719 C 45.417969 84.328125 45.816406 83.792969 46.242188 83.277344 C 46.664062 82.757812 47.113281 82.265625 47.585938 81.792969 C 48.058594 81.320312 48.554688 80.871094 49.070312 80.445312 C 49.585938 80.023438 50.125 79.625 50.679688 79.253906 C 51.234375 78.882812 51.808594 78.539062 52.398438 78.222656 C 52.988281 77.910156 53.589844 77.621094 54.210938 77.367188 C 54.828125 77.109375 55.457031 76.886719 56.09375 76.691406 C 56.734375 76.5 57.382812 76.335938 58.039062 76.207031 C 58.695312 76.074219 59.355469 75.976562 60.019531 75.910156 C 60.6875 75.847656 61.351562 75.8125 62.019531 75.8125 C 62.691406 75.8125 63.355469 75.847656 64.023438 75.910156 C 64.6875 75.976562 65.347656 76.074219 66.003906 76.207031 C 66.660156 76.335938 67.308594 76.5 67.945312 76.691406 C 68.585938 76.886719 69.214844 77.109375 69.832031 77.367188 C 70.449219 77.621094 71.054688 77.910156 71.644531 78.222656 C 72.234375 78.539062 72.804688 78.882812 73.363281 79.253906 C 73.917969 79.625 74.453125 80.023438 74.972656 80.445312 C 75.488281 80.871094 75.984375 81.320312 76.457031 81.792969 C 76.929688 82.265625 77.375 82.757812 77.800781 83.277344 C 78.226562 83.792969 78.621094 84.328125 78.996094 84.886719 C 79.367188 85.441406 79.710938 86.015625 80.023438 86.605469 C 80.339844 87.195312 80.625 87.796875 80.878906 88.414062 C 81.136719 89.03125 81.363281 89.660156 81.554688 90.300781 C 81.75 90.941406 81.910156 91.589844 82.042969 92.246094 C 82.171875 92.898438 82.269531 93.558594 82.335938 94.226562 C 82.402344 94.890625 82.433594 95.558594 82.433594 96.226562 Z M 82.433594 96.226562 " fill-opacity="1" fill-rule="nonzero"/><path fill="#003152" d="M 62.019531 118.460938 C 49.761719 118.460938 39.785156 108.488281 39.785156 96.226562 C 39.785156 83.964844 49.761719 73.992188 62.019531 73.992188 C 74.28125 73.992188 84.257812 83.964844 84.257812 96.226562 C 84.257812 108.488281 74.28125 118.460938 62.019531 118.460938 Z M 62.019531 77.636719 C 51.769531 77.636719 43.429688 85.976562 43.429688 96.226562 C 43.429688 106.476562 51.769531 114.820312 62.019531 114.820312 C 72.273438 114.820312 80.613281 106.476562 80.613281 96.226562 C 80.613281 85.976562 72.273438 77.636719 62.019531 77.636719 Z M 62.019531 77.636719 " fill-opacity="1" fill-rule="nonzero"/><path fill="#ffffff" d="M 138.078125 182.554688 L 162.726562 182.554688 C 167.988281 182.554688 172.253906 178.289062 172.253906 173.03125 L 172.253906 146.492188 L 138.230469 146.492188 Z M 138.078125 182.554688 " fill-opacity="1" fill-rule="nonzero"/><path fill="#003152" d="M 162.726562 184.378906 L 138.078125 184.378906 C 137.59375 184.378906 137.128906 184.183594 136.789062 183.839844 C 136.445312 183.496094 136.253906 183.03125 136.257812 182.546875 L 136.410156 146.484375 C 136.414062 145.480469 137.226562 144.667969 138.230469 144.667969 L 172.253906 144.667969 C 173.261719 144.667969 174.074219 145.484375 174.074219 146.492188 L 174.074219 173.027344 C 174.074219 179.285156 168.984375 184.378906 162.726562 184.378906 Z M 139.910156 180.734375 L 162.726562 180.734375 C 166.976562 180.734375 170.433594 177.277344 170.433594 173.03125 L 170.433594 148.3125 L 140.046875 148.3125 Z M 139.910156 180.734375 " fill-opacity="1" fill-rule="nonzero"/><path fill="#98b7e4" d="M 76.992188 182.554688 L 36.164062 182.554688 C 30.902344 182.554688 26.636719 178.289062 26.636719 173.03125 L 26.636719 134.925781 C 26.636719 129.664062 30.902344 125.398438 36.164062 125.398438 L 87.726562 125.398438 C 93.738281 125.398438 98.613281 130.273438 98.613281 136.285156 Z M 76.992188 182.554688 " fill-opacity="1" fill-rule="nonzero"/><path fill="#003152" d="M 76.992188 184.378906 L 36.164062 184.378906 C 29.90625 184.378906 24.816406 179.285156 24.816406 173.03125 L 24.816406 134.925781 C 24.816406 128.667969 29.90625 123.574219 36.164062 123.574219 L 87.726562 123.574219 C 94.734375 123.574219 100.433594 129.277344 100.433594 136.285156 C 100.433594 137.292969 99.621094 138.105469 98.613281 138.105469 C 97.605469 138.105469 96.792969 137.292969 96.792969 136.285156 C 96.792969 131.285156 92.726562 127.21875 87.726562 127.21875 L 36.164062 127.21875 C 31.914062 127.21875 28.460938 130.675781 28.460938 134.925781 L 28.460938 173.027344 C 28.460938 177.277344 31.914062 180.734375 36.164062 180.734375 L 76.992188 180.734375 C 77.996094 180.734375 78.8125 181.550781 78.8125 182.554688 C 78.8125 183.5625 77.996094 184.378906 76.992188 184.378906 Z M 76.992188 184.378906 " fill-opacity="1" fill-rule="nonzero"/><path fill="#ffffff" d="M 168.171875 64.15625 C 168.171875 64.828125 168.136719 65.492188 168.074219 66.160156 C 168.007812 66.824219 167.910156 67.484375 167.777344 68.140625 C 167.648438 68.796875 167.484375 69.445312 167.292969 70.082031 C 167.097656 70.722656 166.875 71.351562 166.617188 71.96875 C 166.363281 72.585938 166.074219 73.191406 165.761719 73.78125 C 165.445312 74.371094 165.101562 74.941406 164.730469 75.5 C 164.359375 76.054688 163.960938 76.589844 163.539062 77.109375 C 163.113281 77.625 162.664062 78.121094 162.191406 78.59375 C 161.71875 79.066406 161.226562 79.511719 160.707031 79.9375 C 160.191406 80.363281 159.65625 80.757812 159.097656 81.132812 C 158.542969 81.503906 157.96875 81.84375 157.378906 82.160156 C 156.789062 82.476562 156.1875 82.761719 155.570312 83.015625 C 154.953125 83.273438 154.324219 83.5 153.683594 83.691406 C 153.042969 83.886719 152.394531 84.046875 151.738281 84.179688 C 151.085938 84.308594 150.425781 84.40625 149.757812 84.472656 C 149.09375 84.539062 148.425781 84.570312 147.757812 84.570312 C 147.089844 84.570312 146.421875 84.539062 145.757812 84.472656 C 145.089844 84.40625 144.429688 84.308594 143.773438 84.179688 C 143.121094 84.046875 142.472656 83.886719 141.832031 83.691406 C 141.191406 83.5 140.5625 83.273438 139.945312 83.015625 C 139.328125 82.761719 138.722656 82.476562 138.136719 82.160156 C 137.546875 81.84375 136.972656 81.503906 136.417969 81.132812 C 135.859375 80.757812 135.324219 80.363281 134.808594 79.9375 C 134.289062 79.511719 133.796875 79.066406 133.324219 78.59375 C 132.851562 78.121094 132.402344 77.625 131.976562 77.109375 C 131.554688 76.589844 131.15625 76.054688 130.785156 75.5 C 130.414062 74.941406 130.070312 74.371094 129.753906 73.78125 C 129.441406 73.191406 129.152344 72.585938 128.898438 71.96875 C 128.640625 71.351562 128.417969 70.722656 128.222656 70.082031 C 128.027344 69.445312 127.867188 68.796875 127.738281 68.140625 C 127.605469 67.484375 127.507812 66.824219 127.441406 66.160156 C 127.378906 65.492188 127.34375 64.828125 127.34375 64.15625 C 127.34375 63.488281 127.378906 62.824219 127.441406 62.15625 C 127.507812 61.492188 127.605469 60.832031 127.738281 60.175781 C 127.867188 59.519531 128.027344 58.871094 128.222656 58.230469 C 128.417969 57.59375 128.640625 56.964844 128.898438 56.347656 C 129.152344 55.726562 129.441406 55.125 129.753906 54.535156 C 130.070312 53.945312 130.414062 53.371094 130.785156 52.816406 C 131.15625 52.261719 131.554688 51.722656 131.976562 51.207031 C 132.402344 50.691406 132.851562 50.195312 133.324219 49.722656 C 133.796875 49.25 134.289062 48.800781 134.808594 48.378906 C 135.324219 47.953125 135.859375 47.554688 136.417969 47.183594 C 136.972656 46.8125 137.546875 46.46875 138.136719 46.15625 C 138.722656 45.839844 139.328125 45.554688 139.945312 45.296875 C 140.5625 45.042969 141.191406 44.816406 141.832031 44.625 C 142.472656 44.429688 143.121094 44.265625 143.773438 44.136719 C 144.429688 44.007812 145.089844 43.910156 145.757812 43.84375 C 146.421875 43.777344 147.089844 43.746094 147.757812 43.746094 C 148.425781 43.746094 149.09375 43.777344 149.757812 43.84375 C 150.425781 43.910156 151.085938 44.007812 151.738281 44.136719 C 152.394531 44.265625 153.042969 44.429688 153.683594 44.625 C 154.324219 44.816406 154.953125 45.042969 155.570312 45.296875 C 156.1875 45.554688 156.789062 45.839844 157.378906 46.15625 C 157.96875 46.46875 158.542969 46.8125 159.097656 47.183594 C 159.65625 47.554688 160.191406 47.953125 160.707031 48.378906 C 161.226562 48.800781 161.71875 49.25 162.191406 49.722656 C 162.664062 50.195312 163.113281 50.691406 163.539062 51.207031 C 163.960938 51.722656 164.359375 52.261719 164.730469 52.816406 C 165.101562 53.371094 165.445312 53.945312 165.761719 54.535156 C 166.074219 55.125 166.363281 55.726562 166.617188 56.347656 C 166.875 56.964844 167.097656 57.59375 167.292969 58.230469 C 167.484375 58.871094 167.648438 59.519531 167.777344 60.175781 C 167.910156 60.832031 168.007812 61.492188 168.074219 62.15625 C 168.136719 62.824219 168.171875 63.488281 168.171875 64.15625 Z M 168.171875 64.15625 " fill-opacity="1" fill-rule="nonzero"/><path fill="#003152" d="M 147.757812 86.394531 C 135.496094 86.394531 125.523438 76.417969 125.523438 64.15625 C 125.523438 51.898438 135.496094 41.921875 147.757812 41.921875 C 160.019531 41.921875 169.992188 51.898438 169.992188 64.15625 C 169.992188 76.417969 160.019531 86.394531 147.757812 86.394531 Z M 147.757812 45.566406 C 137.507812 45.566406 129.167969 53.90625 129.167969 64.15625 C 129.167969 74.410156 137.507812 82.75 147.757812 82.75 C 158.007812 82.75 166.347656 74.410156 166.347656 64.15625 C 166.347656 53.90625 158.007812 45.566406 147.757812 45.566406 Z M 147.757812 45.566406 " fill-opacity="1" fill-rule="nonzero"/><path fill="#ffffff" d="M 172.253906 155.339844 L 174.976562 155.339844 C 180.238281 155.339844 184.503906 151.074219 184.503906 145.8125 L 184.503906 104.984375 C 184.503906 99.722656 180.238281 95.457031 174.976562 95.457031 L 119.179688 95.457031 C 113.917969 95.457031 109.652344 99.722656 109.652344 104.984375 L 109.652344 136.203125 Z M 172.253906 155.339844 " fill-opacity="1" fill-rule="nonzero"/><path fill="#003152" d="M 174.976562 157.160156 L 172.253906 157.160156 C 171.246094 157.160156 170.433594 156.34375 170.433594 155.339844 C 170.433594 154.332031 171.246094 153.515625 172.253906 153.515625 L 174.976562 153.515625 C 179.222656 153.515625 182.679688 150.058594 182.679688 145.8125 L 182.679688 104.984375 C 182.679688 100.738281 179.222656 97.28125 174.976562 97.28125 L 119.179688 97.28125 C 114.929688 97.28125 111.472656 100.738281 111.472656 104.984375 L 111.472656 136.203125 C 111.472656 137.210938 110.660156 138.027344 109.652344 138.027344 C 108.648438 138.027344 107.832031 137.210938 107.832031 136.203125 L 107.832031 104.984375 C 107.832031 98.726562 112.921875 93.636719 119.179688 93.636719 L 174.976562 93.636719 C 181.234375 93.636719 186.324219 98.726562 186.324219 104.984375 L 186.324219 145.8125 C 186.324219 152.070312 181.234375 157.160156 174.976562 157.160156 Z M 174.976562 157.160156 " fill-opacity="1" fill-rule="nonzero"/><path fill="#003152" d="M 79.566406 163.855469 L 96.042969 136.285156 L 164.089844 136.285156 L 153.207031 155.339844 L 138.230469 182.554688 L 76.839844 182.554688 Z M 79.566406 163.855469 " fill-opacity="1" fill-rule="nonzero"/><path fill="#003152" d="M 138.230469 184.378906 L 76.839844 184.378906 C 76.308594 184.378906 75.808594 184.148438 75.460938 183.746094 C 75.113281 183.347656 74.960938 182.816406 75.035156 182.292969 L 77.765625 163.59375 C 77.796875 163.355469 77.878906 163.128906 78.003906 162.921875 L 94.480469 135.351562 C 94.808594 134.800781 95.402344 134.464844 96.042969 134.464844 L 164.089844 134.464844 C 164.738281 134.464844 165.339844 134.808594 165.664062 135.371094 C 165.988281 135.933594 165.992188 136.625 165.671875 137.1875 L 154.796875 156.230469 L 139.828125 183.433594 C 139.507812 184.015625 138.894531 184.378906 138.230469 184.378906 Z M 78.945312 180.734375 L 137.152344 180.734375 L 151.609375 154.460938 C 151.613281 154.449219 151.621094 154.441406 151.625 154.433594 L 160.949219 138.105469 L 97.078125 138.105469 L 81.316406 164.480469 Z M 78.945312 180.734375 " fill-opacity="1" fill-rule="nonzero"/><path fill="#98b7e4" d="M 44.328125 163.503906 L 76.992188 163.503906 C 82.253906 163.503906 86.515625 167.769531 86.515625 173.03125 C 86.515625 178.289062 82.253906 182.554688 76.992188 182.554688 L 42.96875 182.554688 Z M 44.328125 163.503906 " fill-opacity="1" fill-rule="nonzero"/><path fill="#003152" d="M 76.992188 184.378906 L 42.96875 184.378906 C 41.960938 184.378906 41.148438 183.5625 41.148438 182.554688 C 41.148438 181.550781 41.960938 180.734375 42.96875 180.734375 L 76.992188 180.734375 C 81.238281 180.734375 84.695312 177.277344 84.695312 173.03125 C 84.695312 168.78125 81.238281 165.324219 76.992188 165.324219 L 44.328125 165.324219 C 43.324219 165.324219 42.507812 164.507812 42.507812 163.503906 C 42.507812 162.496094 43.324219 161.679688 44.328125 161.679688 L 76.992188 161.679688 C 83.25 161.679688 88.339844 166.773438 88.339844 173.027344 C 88.339844 179.285156 83.25 184.378906 76.992188 184.378906 Z M 76.992188 184.378906 " fill-opacity="1" fill-rule="nonzero"/><path fill="#ffffff" d="M 164.089844 117.234375 L 164.089844 136.285156 L 138.230469 136.285156 C 132.96875 136.285156 128.707031 140.550781 128.707031 145.8125 C 128.707031 151.074219 132.96875 155.339844 138.230469 155.339844 L 172.253906 155.339844 Z M 164.089844 117.234375 " fill-opacity="1" fill-rule="nonzero"/><path fill="#003152" d="M 172.253906 157.160156 L 138.230469 157.160156 C 131.972656 157.160156 126.882812 152.070312 126.882812 145.8125 C 126.882812 139.554688 131.972656 134.464844 138.230469 134.464844 L 162.265625 134.464844 L 162.265625 117.234375 C 162.265625 116.226562 163.082031 115.410156 164.089844 115.410156 C 165.09375 115.410156 165.910156 116.226562 165.910156 117.234375 L 165.910156 136.285156 C 165.910156 137.292969 165.09375 138.105469 164.089844 138.105469 L 138.230469 138.105469 C 133.984375 138.105469 130.527344 141.5625 130.527344 145.8125 C 130.527344 150.058594 133.984375 153.515625 138.230469 153.515625 L 172.253906 153.515625 C 173.261719 153.515625 174.074219 154.332031 174.074219 155.339844 C 174.074219 156.34375 173.261719 157.160156 172.253906 157.160156 Z M 172.253906 157.160156 " fill-opacity="1" fill-rule="nonzero"/><path fill="#003152" d="M 112.953125 43.402344 L 112.953125 62.515625 C 112.953125 64.914062 111.011719 66.855469 108.613281 66.855469 L 72.683594 66.855469 C 70.289062 66.855469 68.34375 64.914062 68.34375 62.515625 L 68.34375 43.402344 Z M 112.953125 43.402344 " fill-opacity="1" fill-rule="nonzero"/><path fill="#003152" d="M 108.613281 68.675781 L 72.683594 68.675781 C 69.285156 68.675781 66.523438 65.914062 66.523438 62.515625 L 66.523438 43.402344 C 66.523438 42.394531 67.339844 41.578125 68.34375 41.578125 C 69.351562 41.578125 70.167969 42.394531 70.167969 43.402344 L 70.167969 62.515625 C 70.167969 63.902344 71.296875 65.03125 72.683594 65.03125 L 108.613281 65.03125 C 110 65.03125 111.128906 63.902344 111.128906 62.515625 L 111.128906 43.402344 C 111.128906 42.394531 111.945312 41.578125 112.953125 41.578125 C 113.957031 41.578125 114.773438 42.394531 114.773438 43.402344 L 114.773438 62.515625 C 114.773438 65.914062 112.011719 68.675781 108.613281 68.675781 Z M 108.613281 68.675781 " fill-opacity="1" fill-rule="nonzero"/><path fill="#003152" d="M 56.308594 37.683594 L 89.339844 27.957031 C 90.195312 27.703125 91.101562 27.703125 91.957031 27.957031 L 124.988281 37.683594 C 126.074219 38.003906 126.074219 39.539062 124.988281 39.855469 L 91.957031 49.585938 C 91.101562 49.835938 90.195312 49.835938 89.339844 49.585938 L 56.308594 39.855469 C 55.222656 39.539062 55.222656 38.003906 56.308594 37.683594 Z M 56.308594 37.683594 " fill-opacity="1" fill-rule="nonzero"/><path fill="#003152" d="M 90.648438 51.597656 C 90.035156 51.597656 89.421875 51.507812 88.824219 51.332031 L 55.792969 41.605469 C 54.527344 41.230469 53.671875 40.09375 53.671875 38.769531 C 53.671875 37.449219 54.527344 36.308594 55.792969 35.9375 L 88.824219 26.210938 C 90.019531 25.859375 91.28125 25.859375 92.472656 26.210938 L 125.503906 35.9375 C 126.773438 36.3125 127.625 37.449219 127.625 38.769531 C 127.625 40.09375 126.773438 41.230469 125.503906 41.605469 L 92.472656 51.332031 C 91.875 51.507812 91.261719 51.597656 90.648438 51.597656 Z M 59.070312 38.769531 L 89.855469 47.835938 C 90.375 47.988281 90.921875 47.988281 91.441406 47.835938 L 122.230469 38.769531 L 91.441406 29.703125 C 90.921875 29.550781 90.375 29.550781 89.855469 29.703125 Z M 56.308594 37.683594 Z M 56.308594 37.683594 " fill-opacity="1" fill-rule="nonzero"/><path fill="#98b7e4" d="M 224.5625 135.667969 L 278.902344 190.515625 L 278.902344 217.410156 L 307.195312 206.78125 L 307.195312 190.515625 L 361.535156 135.667969 Z M 224.5625 135.667969 " fill-opacity="1" fill-rule="nonzero"/><path fill="#003152" d="M 278.902344 219.234375 C 278.539062 219.234375 278.175781 219.121094 277.867188 218.910156 C 277.375 218.570312 277.082031 218.007812 277.082031 217.410156 L 277.082031 191.265625 L 223.265625 136.949219 C 222.558594 136.234375 222.566406 135.082031 223.28125 134.375 C 223.996094 133.664062 225.148438 133.671875 225.855469 134.386719 L 280.195312 189.234375 C 280.535156 189.574219 280.722656 190.035156 280.722656 190.515625 L 280.722656 214.78125 L 305.371094 205.519531 L 305.371094 190.515625 C 305.371094 190.035156 305.5625 189.578125 305.898438 189.234375 L 360.242188 134.386719 C 360.949219 133.671875 362.101562 133.664062 362.816406 134.375 C 363.53125 135.082031 363.535156 136.234375 362.828125 136.949219 L 309.015625 191.265625 L 309.015625 206.78125 C 309.015625 207.542969 308.542969 208.222656 307.832031 208.488281 L 279.542969 219.117188 C 279.335938 219.195312 279.117188 219.234375 278.902344 219.234375 Z M 278.902344 219.234375 " fill-opacity="1" fill-rule="nonzero"/><path fill="#98b7e4" d="M 366.71875 135.667969 L 219.375 135.667969 C 215.816406 135.667969 212.929688 132.78125 212.929688 129.21875 L 212.929688 119.683594 C 212.929688 116.121094 215.816406 113.234375 219.375 113.234375 L 366.71875 113.234375 C 370.28125 113.234375 373.167969 116.121094 373.167969 119.683594 L 373.167969 129.21875 C 373.167969 132.78125 370.28125 135.667969 366.71875 135.667969 Z M 366.71875 135.667969 " fill-opacity="1" fill-rule="nonzero"/><g clip-path="url(#12d3f4311a)"><path fill="#003152" d="M 366.71875 137.488281 L 219.375 137.488281 C 214.816406 137.488281 211.105469 133.78125 211.105469 129.21875 L 211.105469 119.683594 C 211.105469 115.125 214.816406 111.414062 219.375 111.414062 L 366.71875 111.414062 C 371.28125 111.414062 374.992188 115.125 374.992188 119.683594 L 374.992188 129.21875 C 374.992188 133.78125 371.28125 137.488281 366.71875 137.488281 Z M 219.375 115.058594 C 216.824219 115.058594 214.75 117.132812 214.75 119.683594 L 214.75 129.21875 C 214.75 131.769531 216.824219 133.847656 219.375 133.847656 L 366.71875 133.847656 C 369.273438 133.847656 371.347656 131.769531 371.347656 129.21875 L 371.347656 119.683594 C 371.347656 117.132812 369.269531 115.058594 366.71875 115.058594 Z M 219.375 115.058594 " fill-opacity="1" fill-rule="nonzero"/></g><path fill="#003152" d="M 293.15625 115.058594 C 292.152344 115.058594 291.335938 114.242188 291.335938 113.234375 L 291.335938 77.277344 C 291.335938 76.273438 292.152344 75.457031 293.15625 75.457031 C 294.164062 75.457031 294.980469 76.273438 294.980469 77.277344 L 294.980469 113.234375 C 294.980469 114.242188 294.164062 115.058594 293.15625 115.058594 Z M 293.15625 115.058594 " fill-opacity="1" fill-rule="nonzero"/><path fill="#003152" d="M 304.1875 69.980469 C 304.1875 70.703125 304.117188 71.421875 303.976562 72.132812 C 303.835938 72.84375 303.625 73.53125 303.347656 74.203125 C 303.070312 74.871094 302.730469 75.507812 302.328125 76.109375 C 301.925781 76.710938 301.46875 77.269531 300.957031 77.78125 C 300.445312 78.292969 299.886719 78.75 299.285156 79.152344 C 298.683594 79.554688 298.046875 79.894531 297.378906 80.171875 C 296.710938 80.449219 296.019531 80.65625 295.308594 80.796875 C 294.597656 80.941406 293.882812 81.011719 293.15625 81.011719 C 292.433594 81.011719 291.714844 80.941406 291.007812 80.796875 C 290.296875 80.65625 289.605469 80.449219 288.9375 80.171875 C 288.269531 79.894531 287.632812 79.554688 287.03125 79.152344 C 286.429688 78.75 285.871094 78.292969 285.359375 77.78125 C 284.847656 77.269531 284.390625 76.710938 283.988281 76.109375 C 283.585938 75.507812 283.246094 74.871094 282.96875 74.203125 C 282.691406 73.53125 282.480469 72.84375 282.339844 72.132812 C 282.199219 71.421875 282.128906 70.703125 282.128906 69.980469 C 282.128906 69.257812 282.199219 68.539062 282.339844 67.828125 C 282.480469 67.117188 282.691406 66.429688 282.96875 65.757812 C 283.246094 65.089844 283.585938 64.453125 283.988281 63.851562 C 284.390625 63.25 284.847656 62.691406 285.359375 62.179688 C 285.871094 61.667969 286.429688 61.210938 287.03125 60.808594 C 287.632812 60.40625 288.269531 60.066406 288.9375 59.789062 C 289.605469 59.511719 290.296875 59.304688 291.007812 59.164062 C 291.714844 59.019531 292.433594 58.949219 293.15625 58.949219 C 293.882812 58.949219 294.597656 59.019531 295.308594 59.164062 C 296.019531 59.304688 296.710938 59.511719 297.378906 59.789062 C 298.046875 60.066406 298.683594 60.40625 299.285156 60.808594 C 299.886719 61.210938 300.445312 61.667969 300.957031 62.179688 C 301.46875 62.691406 301.925781 63.25 302.328125 63.851562 C 302.730469 64.453125 303.070312 65.089844 303.347656 65.757812 C 303.625 66.429688 303.835938 67.117188 303.976562 67.828125 C 304.117188 68.539062 304.1875 69.257812 304.1875 69.980469 Z M 304.1875 69.980469 " fill-opacity="1" fill-rule="nonzero"/><path fill="#003152" d="M 293.15625 82.832031 C 286.070312 82.832031 280.304688 77.066406 280.304688 69.980469 C 280.304688 62.894531 286.070312 57.128906 293.15625 57.128906 C 300.246094 57.128906 306.007812 62.894531 306.007812 69.980469 C 306.007812 77.066406 300.246094 82.832031 293.15625 82.832031 Z M 293.15625 60.773438 C 288.082031 60.773438 283.949219 64.902344 283.949219 69.980469 C 283.949219 75.058594 288.082031 79.1875 293.15625 79.1875 C 298.234375 79.1875 302.367188 75.058594 302.367188 69.980469 C 302.367188 64.902344 298.234375 60.773438 293.15625 60.773438 Z M 293.15625 60.773438 " fill-opacity="1" fill-rule="nonzero"/><path fill="#003152" d="M 330.804688 115.058594 C 329.796875 115.058594 328.980469 114.242188 328.980469 113.234375 L 328.980469 90.011719 C 328.980469 89.003906 329.796875 88.1875 330.804688 88.1875 C 331.808594 88.1875 332.625 89.003906 332.625 90.011719 L 332.625 113.234375 C 332.625 114.242188 331.808594 115.058594 330.804688 115.058594 Z M 330.804688 115.058594 " fill-opacity="1" fill-rule="nonzero"/><path fill="#003152" d="M 341.832031 82.710938 C 341.832031 83.4375 341.761719 84.152344 341.621094 84.863281 C 341.480469 85.574219 341.269531 86.265625 340.992188 86.933594 C 340.71875 87.601562 340.378906 88.238281 339.976562 88.839844 C 339.574219 89.441406 339.113281 90 338.601562 90.511719 C 338.089844 91.023438 337.535156 91.480469 336.929688 91.882812 C 336.328125 92.285156 335.695312 92.625 335.023438 92.902344 C 334.355469 93.179688 333.664062 93.390625 332.957031 93.53125 C 332.246094 93.671875 331.527344 93.742188 330.804688 93.742188 C 330.078125 93.742188 329.363281 93.671875 328.652344 93.53125 C 327.941406 93.390625 327.25 93.179688 326.582031 92.902344 C 325.914062 92.625 325.277344 92.285156 324.675781 91.882812 C 324.074219 91.480469 323.515625 91.023438 323.003906 90.511719 C 322.492188 90 322.035156 89.441406 321.632812 88.839844 C 321.230469 88.238281 320.890625 87.601562 320.613281 86.933594 C 320.335938 86.265625 320.125 85.574219 319.984375 84.863281 C 319.84375 84.152344 319.773438 83.4375 319.773438 82.710938 C 319.773438 81.988281 319.84375 81.269531 319.984375 80.558594 C 320.125 79.851562 320.335938 79.160156 320.613281 78.492188 C 320.890625 77.820312 321.230469 77.1875 321.632812 76.585938 C 322.035156 75.980469 322.492188 75.425781 323.003906 74.914062 C 323.515625 74.402344 324.074219 73.941406 324.675781 73.539062 C 325.277344 73.136719 325.914062 72.796875 326.582031 72.523438 C 327.25 72.246094 327.941406 72.035156 328.652344 71.894531 C 329.363281 71.753906 330.078125 71.683594 330.804688 71.683594 C 331.527344 71.683594 332.246094 71.753906 332.957031 71.894531 C 333.664062 72.035156 334.355469 72.246094 335.023438 72.523438 C 335.695312 72.796875 336.328125 73.136719 336.929688 73.539062 C 337.535156 73.941406 338.089844 74.402344 338.601562 74.914062 C 339.113281 75.425781 339.574219 75.980469 339.976562 76.585938 C 340.378906 77.1875 340.71875 77.820312 340.992188 78.492188 C 341.269531 79.160156 341.480469 79.851562 341.621094 80.558594 C 341.761719 81.269531 341.832031 81.988281 341.832031 82.710938 Z M 341.832031 82.710938 " fill-opacity="1" fill-rule="nonzero"/><path fill="#003152" d="M 330.804688 95.5625 C 323.71875 95.5625 317.953125 89.796875 317.953125 82.710938 C 317.953125 75.625 323.71875 69.859375 330.804688 69.859375 C 337.890625 69.859375 343.65625 75.625 343.65625 82.710938 C 343.65625 89.796875 337.890625 95.5625 330.804688 95.5625 Z M 330.804688 73.503906 C 325.726562 73.503906 321.59375 77.632812 321.59375 82.710938 C 321.59375 87.789062 325.726562 91.921875 330.804688 91.921875 C 335.882812 91.921875 340.011719 87.789062 340.011719 82.710938 C 340.011719 77.632812 335.878906 73.503906 330.804688 73.503906 Z M 330.804688 73.503906 " fill-opacity="1" fill-rule="nonzero"/><path fill="#003152" d="M 255.511719 115.058594 C 254.507812 115.058594 253.691406 114.242188 253.691406 113.234375 L 253.691406 90.011719 C 253.691406 89.003906 254.507812 88.1875 255.511719 88.1875 C 256.519531 88.1875 257.335938 89.003906 257.335938 90.011719 L 257.335938 113.234375 C 257.335938 114.242188 256.519531 115.058594 255.511719 115.058594 Z M 255.511719 115.058594 " fill-opacity="1" fill-rule="nonzero"/><path fill="#003152" d="M 266.542969 82.710938 C 266.542969 83.4375 266.472656 84.152344 266.332031 84.863281 C 266.1875 85.574219 265.980469 86.265625 265.703125 86.933594 C 265.425781 87.601562 265.085938 88.238281 264.683594 88.839844 C 264.28125 89.441406 263.824219 90 263.3125 90.511719 C 262.800781 91.023438 262.242188 91.480469 261.640625 91.882812 C 261.039062 92.285156 260.402344 92.625 259.734375 92.902344 C 259.0625 93.179688 258.375 93.390625 257.664062 93.53125 C 256.953125 93.671875 256.238281 93.742188 255.511719 93.742188 C 254.789062 93.742188 254.070312 93.671875 253.359375 93.53125 C 252.648438 93.390625 251.960938 93.179688 251.292969 92.902344 C 250.621094 92.625 249.988281 92.285156 249.382812 91.882812 C 248.78125 91.480469 248.226562 91.023438 247.710938 90.511719 C 247.199219 90 246.742188 89.441406 246.339844 88.839844 C 245.9375 88.238281 245.597656 87.601562 245.320312 86.933594 C 245.042969 86.265625 244.835938 85.574219 244.695312 84.863281 C 244.554688 84.152344 244.480469 83.4375 244.480469 82.710938 C 244.480469 81.988281 244.554688 81.269531 244.695312 80.558594 C 244.835938 79.851562 245.042969 79.160156 245.320312 78.492188 C 245.597656 77.820312 245.9375 77.1875 246.339844 76.585938 C 246.742188 75.980469 247.199219 75.425781 247.710938 74.914062 C 248.226562 74.402344 248.78125 73.941406 249.382812 73.539062 C 249.988281 73.136719 250.621094 72.796875 251.292969 72.523438 C 251.960938 72.246094 252.648438 72.035156 253.359375 71.894531 C 254.070312 71.753906 254.789062 71.683594 255.511719 71.683594 C 256.238281 71.683594 256.953125 71.753906 257.664062 71.894531 C 258.375 72.035156 259.0625 72.246094 259.734375 72.523438 C 260.402344 72.796875 261.039062 73.136719 261.640625 73.539062 C 262.242188 73.941406 262.800781 74.402344 263.3125 74.914062 C 263.824219 75.425781 264.28125 75.980469 264.683594 76.585938 C 265.085938 77.1875 265.425781 77.820312 265.703125 78.492188 C 265.980469 79.160156 266.1875 79.851562 266.332031 80.558594 C 266.472656 81.269531 266.542969 81.988281 266.542969 82.710938 Z M 266.542969 82.710938 " fill-opacity="1" fill-rule="nonzero"/><path fill="#003152" d="M 255.511719 95.5625 C 248.425781 95.5625 242.660156 89.796875 242.660156 82.710938 C 242.660156 75.625 248.425781 69.859375 255.511719 69.859375 C 262.597656 69.859375 268.363281 75.625 268.363281 82.710938 C 268.363281 89.796875 262.597656 95.5625 255.511719 95.5625 Z M 255.511719 73.503906 C 250.433594 73.503906 246.304688 77.632812 246.304688 82.710938 C 246.304688 87.789062 250.433594 91.921875 255.511719 91.921875 C 260.589844 91.921875 264.71875 87.789062 264.71875 82.710938 C 264.71875 77.632812 260.589844 73.503906 255.511719 73.503906 Z M 255.511719 73.503906 " fill-opacity="1" fill-rule="nonzero"/><path fill="#003152" d="M 307.195312 192.339844 L 286.925781 192.339844 C 285.917969 192.339844 285.101562 191.523438 285.101562 190.515625 C 285.101562 189.511719 285.917969 188.695312 286.925781 188.695312 L 307.195312 188.695312 C 308.199219 188.695312 309.015625 189.511719 309.015625 190.515625 C 309.015625 191.523438 308.199219 192.339844 307.195312 192.339844 Z M 307.195312 192.339844 " fill-opacity="1" fill-rule="nonzero"/><path fill="#ffffff" d="M 320.6875 252.785156 C 320.6875 253.6875 320.644531 254.585938 320.554688 255.484375 C 320.464844 256.378906 320.335938 257.269531 320.160156 258.15625 C 319.984375 259.039062 319.765625 259.914062 319.503906 260.777344 C 319.242188 261.636719 318.9375 262.488281 318.59375 263.320312 C 318.246094 264.152344 317.863281 264.964844 317.4375 265.761719 C 317.011719 266.558594 316.550781 267.328125 316.046875 268.078125 C 315.546875 268.828125 315.011719 269.550781 314.4375 270.25 C 313.867188 270.945312 313.261719 271.613281 312.625 272.25 C 311.988281 272.886719 311.320312 273.492188 310.621094 274.066406 C 309.925781 274.636719 309.203125 275.171875 308.453125 275.675781 C 307.703125 276.175781 306.929688 276.636719 306.136719 277.0625 C 305.339844 277.488281 304.527344 277.875 303.691406 278.21875 C 302.859375 278.5625 302.011719 278.867188 301.148438 279.128906 C 300.285156 279.390625 299.414062 279.609375 298.527344 279.785156 C 297.644531 279.960938 296.753906 280.09375 295.855469 280.179688 C 294.960938 280.269531 294.058594 280.3125 293.15625 280.3125 C 292.257812 280.3125 291.355469 280.269531 290.460938 280.179688 C 289.5625 280.09375 288.671875 279.960938 287.789062 279.785156 C 286.902344 279.609375 286.03125 279.390625 285.167969 279.128906 C 284.304688 278.867188 283.457031 278.5625 282.621094 278.21875 C 281.789062 277.875 280.976562 277.488281 280.179688 277.0625 C 279.386719 276.636719 278.613281 276.175781 277.863281 275.675781 C 277.113281 275.171875 276.390625 274.636719 275.691406 274.066406 C 274.996094 273.492188 274.328125 272.886719 273.691406 272.25 C 273.054688 271.613281 272.449219 270.945312 271.878906 270.25 C 271.304688 269.550781 270.769531 268.828125 270.269531 268.078125 C 269.765625 267.328125 269.304688 266.558594 268.878906 265.761719 C 268.453125 264.964844 268.070312 264.152344 267.722656 263.320312 C 267.378906 262.488281 267.074219 261.636719 266.8125 260.777344 C 266.550781 259.914062 266.332031 259.039062 266.15625 258.15625 C 265.980469 257.269531 265.847656 256.378906 265.761719 255.484375 C 265.671875 254.585938 265.628906 253.6875 265.628906 252.785156 C 265.628906 251.882812 265.671875 250.984375 265.761719 250.085938 C 265.847656 249.1875 265.980469 248.296875 266.15625 247.414062 C 266.332031 246.527344 266.550781 245.65625 266.8125 244.792969 C 267.074219 243.929688 267.378906 243.082031 267.722656 242.25 C 268.070312 241.417969 268.453125 240.601562 268.878906 239.808594 C 269.304688 239.011719 269.765625 238.238281 270.269531 237.488281 C 270.769531 236.738281 271.304688 236.015625 271.878906 235.320312 C 272.449219 234.621094 273.054688 233.957031 273.691406 233.316406 C 274.328125 232.679688 274.996094 232.074219 275.691406 231.503906 C 276.390625 230.929688 277.113281 230.394531 277.863281 229.894531 C 278.613281 229.394531 279.386719 228.929688 280.179688 228.503906 C 280.976562 228.082031 281.789062 227.695312 282.621094 227.351562 C 283.457031 227.003906 284.304688 226.703125 285.167969 226.441406 C 286.03125 226.179688 286.902344 225.960938 287.789062 225.785156 C 288.671875 225.609375 289.5625 225.476562 290.460938 225.386719 C 291.355469 225.296875 292.257812 225.253906 293.15625 225.253906 C 294.058594 225.253906 294.960938 225.296875 295.855469 225.386719 C 296.753906 225.476562 297.644531 225.609375 298.527344 225.785156 C 299.414062 225.960938 300.285156 226.179688 301.148438 226.441406 C 302.011719 226.703125 302.859375 227.003906 303.691406 227.351562 C 304.527344 227.695312 305.339844 228.082031 306.136719 228.503906 C 306.929688 228.929688 307.703125 229.394531 308.453125 229.894531 C 309.203125 230.394531 309.925781 230.929688 310.621094 231.503906 C 311.320312 232.074219 311.988281 232.679688 312.625 233.316406 C 313.261719 233.957031 313.867188 234.621094 314.4375 235.320312 C 315.011719 236.015625 315.546875 236.738281 316.046875 237.488281 C 316.550781 238.238281 317.011719 239.011719 317.4375 239.808594 C 317.863281 240.601562 318.246094 241.417969 318.59375 242.25 C 318.9375 243.082031 319.242188 243.929688 319.503906 244.792969 C 319.765625 245.65625 319.984375 246.527344 320.160156 247.414062 C 320.335938 248.296875 320.464844 249.1875 320.554688 250.085938 C 320.644531 250.984375 320.6875 251.882812 320.6875 252.785156 Z M 320.6875 252.785156 " fill-opacity="1" fill-rule="nonzero"/><path fill="#003152" d="M 293.15625 282.136719 C 276.972656 282.136719 263.804688 268.96875 263.804688 252.785156 C 263.804688 236.601562 276.972656 223.433594 293.15625 223.433594 C 309.34375 223.433594 322.507812 236.597656 322.507812 252.785156 C 322.507812 268.96875 309.34375 282.136719 293.15625 282.136719 Z M 293.15625 227.078125 C 278.984375 227.078125 267.449219 238.609375 267.449219 252.785156 C 267.449219 266.960938 278.984375 278.492188 293.15625 278.492188 C 307.332031 278.492188 318.867188 266.960938 318.867188 252.785156 C 318.867188 238.609375 307.332031 227.078125 293.15625 227.078125 Z M 293.15625 227.078125 " fill-opacity="1" fill-rule="nonzero"/><path fill="#003152" d="M 318.949219 233.3125 C 316.628906 230.992188 312.875 230.992188 310.554688 233.3125 L 292.042969 251.824219 L 285.167969 244.949219 C 282.851562 242.628906 279.09375 242.628906 276.773438 244.949219 C 274.457031 247.265625 274.457031 251.023438 276.773438 253.339844 L 287.34375 263.910156 C 288.632812 265.199219 290.363281 265.746094 292.042969 265.601562 C 293.726562 265.746094 295.457031 265.199219 296.746094 263.910156 L 318.949219 241.707031 C 321.265625 239.386719 321.265625 235.628906 318.949219 233.3125 Z M 318.949219 233.3125 " fill-opacity="1" fill-rule="nonzero"/><path fill="#003152" d="M 291.519531 267.445312 C 289.464844 267.445312 287.503906 266.644531 286.054688 265.199219 L 275.484375 254.628906 C 272.460938 251.605469 272.460938 246.683594 275.484375 243.660156 C 276.949219 242.195312 278.898438 241.386719 280.972656 241.386719 C 283.042969 241.386719 284.992188 242.195312 286.457031 243.660156 L 292.042969 249.246094 L 309.265625 232.023438 C 312.292969 229 317.210938 229 320.238281 232.023438 C 323.261719 235.046875 323.261719 239.96875 320.238281 242.996094 L 298.03125 265.199219 C 296.464844 266.769531 294.289062 267.574219 292.042969 267.425781 C 291.867188 267.4375 291.695312 267.445312 291.519531 267.445312 Z M 280.972656 245.03125 C 279.871094 245.03125 278.839844 245.457031 278.0625 246.238281 C 276.457031 247.839844 276.457031 250.449219 278.0625 252.054688 L 288.632812 262.621094 C 289.476562 263.464844 290.664062 263.890625 291.886719 263.785156 C 291.992188 263.777344 292.097656 263.777344 292.199219 263.785156 C 293.425781 263.890625 294.613281 263.464844 295.457031 262.621094 L 317.660156 240.417969 C 319.265625 238.816406 319.265625 236.203125 317.660156 234.601562 C 316.058594 232.996094 313.445312 232.996094 311.84375 234.601562 L 293.332031 253.109375 C 292.621094 253.824219 291.46875 253.824219 290.757812 253.109375 L 283.878906 246.238281 C 283.101562 245.457031 282.070312 245.03125 280.972656 245.03125 Z M 280.972656 245.03125 " fill-opacity="1" fill-rule="nonzero"/></svg>