<svg xmlns="http://www.w3.org/2000/svg" xmlns:xlink="http://www.w3.org/1999/xlink" width="500" zoomAndPan="magnify" viewBox="0 0 375 374.999991" height="500" preserveAspectRatio="xMidYMid meet" version="1.0"><defs><clipPath id="7fca075e93"><path d="M 107 337 L 237 337 L 237 355.679688 L 107 355.679688 Z M 107 337 " clip-rule="nonzero"/></clipPath><clipPath id="3c97f4924d"><path d="M 344 209 L 369.941406 209 L 369.941406 263 L 344 263 Z M 344 209 " clip-rule="nonzero"/></clipPath><clipPath id="c1fbb7e2fb"><path d="M 62 30.179688 L 86 30.179688 L 86 64 L 62 64 Z M 62 30.179688 " clip-rule="nonzero"/></clipPath></defs><path fill="#003152" d="M 336.011719 192.570312 C 335.09375 192.570312 334.34375 191.835938 334.328125 190.914062 C 334.238281 184.832031 333.792969 178.707031 333.015625 172.710938 C 332.894531 171.789062 333.542969 170.945312 334.46875 170.824219 C 335.390625 170.703125 336.234375 171.355469 336.355469 172.277344 C 337.152344 178.398438 337.601562 184.652344 337.699219 190.863281 C 337.710938 191.792969 336.96875 192.558594 336.039062 192.570312 C 336.03125 192.570312 336.023438 192.570312 336.011719 192.570312 Z M 331.253906 156.054688 C 330.5 156.054688 329.8125 155.542969 329.621094 154.777344 C 328.152344 148.894531 326.320312 143.03125 324.179688 137.355469 C 323.851562 136.484375 324.289062 135.515625 325.160156 135.1875 C 326.03125 134.859375 327 135.296875 327.328125 136.167969 C 329.515625 141.964844 331.386719 147.949219 332.886719 153.960938 C 333.113281 154.863281 332.566406 155.777344 331.664062 156.003906 C 331.527344 156.039062 331.390625 156.054688 331.253906 156.054688 Z M 318.257812 121.589844 C 317.648438 121.589844 317.058594 121.257812 316.757812 120.679688 C 313.980469 115.292969 310.859375 110.011719 307.472656 104.96875 C 306.957031 104.199219 307.160156 103.152344 307.933594 102.632812 C 308.707031 102.117188 309.75 102.320312 310.269531 103.09375 C 313.726562 108.238281 316.917969 113.636719 319.753906 119.132812 C 320.179688 119.960938 319.855469 120.976562 319.027344 121.402344 C 318.78125 121.53125 318.515625 121.589844 318.257812 121.589844 Z M 297.730469 91.019531 C 297.253906 91.019531 296.78125 90.816406 296.449219 90.425781 C 292.511719 85.808594 288.269531 81.371094 283.832031 77.234375 C 283.152344 76.597656 283.113281 75.53125 283.75 74.851562 C 284.382812 74.171875 285.449219 74.136719 286.128906 74.769531 C 290.660156 78.996094 294.992188 83.527344 299.011719 88.242188 C 299.613281 88.949219 299.53125 90.011719 298.820312 90.613281 C 298.503906 90.886719 298.117188 91.019531 297.730469 91.019531 Z M 270.789062 65.890625 C 270.441406 65.890625 270.09375 65.785156 269.792969 65.5625 C 264.90625 61.953125 259.765625 58.59375 254.507812 55.574219 C 253.699219 55.113281 253.421875 54.082031 253.886719 53.277344 C 254.347656 52.46875 255.378906 52.191406 256.183594 52.65625 C 261.554688 55.738281 266.804688 59.167969 271.792969 62.855469 C 272.539062 63.40625 272.699219 64.460938 272.144531 65.210938 C 271.816406 65.65625 271.304688 65.890625 270.789062 65.890625 Z M 238.839844 47.546875 C 238.617188 47.546875 238.390625 47.503906 238.175781 47.410156 C 232.597656 45.011719 226.820312 42.917969 221.007812 41.183594 C 220.117188 40.917969 219.609375 39.980469 219.875 39.089844 C 220.140625 38.199219 221.082031 37.691406 221.972656 37.957031 C 227.910156 39.730469 233.808594 41.867188 239.503906 44.316406 C 240.359375 44.683594 240.753906 45.671875 240.386719 46.527344 C 240.113281 47.164062 239.492188 47.546875 238.839844 47.546875 Z M 113.074219 47.179688 C 112.417969 47.179688 111.792969 46.792969 111.523438 46.152344 C 111.160156 45.292969 111.5625 44.304688 112.417969 43.945312 C 118.125 41.53125 124.035156 39.425781 129.984375 37.691406 C 130.875 37.429688 131.8125 37.941406 132.070312 38.835938 C 132.332031 39.726562 131.820312 40.664062 130.925781 40.921875 C 125.105469 42.625 119.320312 44.683594 113.730469 47.046875 C 113.515625 47.136719 113.292969 47.179688 113.074219 47.179688 Z M 203.539062 37.011719 C 203.441406 37.011719 203.34375 37.003906 203.246094 36.988281 C 197.285156 35.9375 191.1875 35.222656 185.117188 34.859375 C 184.191406 34.804688 183.480469 34.007812 183.535156 33.082031 C 183.59375 32.152344 184.386719 31.445312 185.316406 31.5 C 191.515625 31.867188 197.742188 32.597656 203.828125 33.671875 C 204.746094 33.832031 205.355469 34.703125 205.195312 35.621094 C 205.050781 36.4375 204.34375 37.011719 203.539062 37.011719 Z M 148.433594 36.851562 C 147.625 36.851562 146.914062 36.273438 146.773438 35.449219 C 146.617188 34.535156 147.234375 33.664062 148.152344 33.507812 C 154.246094 32.472656 160.480469 31.777344 166.679688 31.445312 C 167.609375 31.398438 168.402344 32.109375 168.453125 33.035156 C 168.5 33.964844 167.789062 34.757812 166.859375 34.808594 C 160.789062 35.136719 154.683594 35.816406 148.71875 36.828125 C 148.621094 36.84375 148.527344 36.851562 148.433594 36.851562 Z M 148.433594 36.851562 " fill-opacity="1" fill-rule="nonzero"/><g clip-path="url(#7fca075e93)"><path fill="#003152" d="M 180.875 355.503906 C 179.972656 355.503906 179.222656 354.785156 179.195312 353.875 C 179.164062 352.945312 179.890625 352.167969 180.820312 352.136719 C 186.902344 351.9375 193.019531 351.386719 199.003906 350.5 C 199.925781 350.363281 200.78125 351 200.917969 351.917969 C 201.054688 352.839844 200.417969 353.695312 199.5 353.832031 C 193.386719 354.738281 187.140625 355.300781 180.933594 355.503906 C 180.914062 355.503906 180.894531 355.503906 180.875 355.503906 Z M 162.429688 355.0625 C 162.382812 355.0625 162.335938 355.0625 162.292969 355.058594 C 156.101562 354.558594 149.886719 353.695312 143.820312 352.492188 C 142.910156 352.3125 142.316406 351.425781 142.496094 350.515625 C 142.679688 349.601562 143.5625 349.007812 144.476562 349.191406 C 150.417969 350.367188 156.5 351.210938 162.5625 351.703125 C 163.488281 351.777344 164.179688 352.589844 164.105469 353.515625 C 164.035156 354.394531 163.296875 355.0625 162.429688 355.0625 Z M 217.316406 350.097656 C 216.574219 350.097656 215.894531 349.601562 215.691406 348.851562 C 215.449219 347.953125 215.980469 347.027344 216.878906 346.785156 C 222.738281 345.210938 228.566406 343.273438 234.207031 341.03125 C 235.070312 340.6875 236.050781 341.109375 236.394531 341.972656 C 236.738281 342.835938 236.316406 343.816406 235.449219 344.160156 C 229.691406 346.449219 223.738281 348.429688 217.753906 350.039062 C 217.609375 350.078125 217.460938 350.097656 217.316406 350.097656 Z M 126.285156 347.898438 C 126.117188 347.898438 125.941406 347.871094 125.769531 347.816406 C 119.875 345.917969 114.023438 343.652344 108.382812 341.082031 C 107.535156 340.699219 107.160156 339.699219 107.546875 338.851562 C 107.933594 338.007812 108.929688 337.632812 109.777344 338.019531 C 115.300781 340.535156 121.03125 342.75 126.800781 344.609375 C 127.6875 344.894531 128.175781 345.84375 127.890625 346.730469 C 127.660156 347.441406 127 347.898438 126.285156 347.898438 Z M 126.285156 347.898438 " fill-opacity="1" fill-rule="nonzero"/></g><path fill="#ec9707" d="M 293.371094 193.398438 C 293.371094 195.328125 293.324219 197.253906 293.230469 199.183594 C 293.136719 201.109375 292.996094 203.03125 292.804688 204.949219 C 292.617188 206.871094 292.378906 208.785156 292.097656 210.691406 C 291.816406 212.597656 291.484375 214.5 291.109375 216.390625 C 290.730469 218.28125 290.308594 220.164062 289.839844 222.035156 C 289.371094 223.90625 288.859375 225.761719 288.296875 227.609375 C 287.738281 229.453125 287.132812 231.285156 286.484375 233.101562 C 285.835938 234.917969 285.140625 236.714844 284.402344 238.496094 C 283.664062 240.28125 282.882812 242.042969 282.058594 243.785156 C 281.234375 245.527344 280.367188 247.25 279.457031 248.953125 C 278.546875 250.652344 277.597656 252.332031 276.605469 253.984375 C 275.617188 255.640625 274.582031 257.269531 273.511719 258.871094 C 272.441406 260.476562 271.332031 262.050781 270.179688 263.601562 C 269.03125 265.148438 267.847656 266.671875 266.621094 268.160156 C 265.398438 269.652344 264.140625 271.113281 262.84375 272.539062 C 261.550781 273.96875 260.21875 275.367188 258.855469 276.730469 C 257.492188 278.09375 256.097656 279.421875 254.667969 280.71875 C 253.238281 282.011719 251.777344 283.273438 250.289062 284.496094 C 248.796875 285.71875 247.277344 286.90625 245.726562 288.054688 C 244.179688 289.203125 242.601562 290.3125 241 291.386719 C 239.394531 292.457031 237.765625 293.488281 236.113281 294.480469 C 234.457031 295.472656 232.78125 296.421875 231.078125 297.332031 C 229.378906 298.242188 227.65625 299.105469 225.910156 299.933594 C 224.167969 300.757812 222.40625 301.539062 220.625 302.277344 C 218.84375 303.015625 217.042969 303.707031 215.226562 304.359375 C 213.410156 305.007812 211.582031 305.613281 209.734375 306.171875 C 207.890625 306.730469 206.03125 307.246094 204.160156 307.714844 C 202.289062 308.183594 200.410156 308.605469 198.515625 308.980469 C 196.625 309.359375 194.726562 309.6875 192.816406 309.972656 C 190.910156 310.253906 188.996094 310.488281 187.078125 310.679688 C 185.15625 310.867188 183.234375 311.011719 181.308594 311.105469 C 179.382812 311.199219 177.453125 311.246094 175.527344 311.246094 C 173.597656 311.246094 171.667969 311.199219 169.742188 311.105469 C 167.816406 311.011719 165.894531 310.867188 163.976562 310.679688 C 162.054688 310.488281 160.140625 310.253906 158.234375 309.972656 C 156.328125 309.6875 154.425781 309.359375 152.535156 308.980469 C 150.644531 308.605469 148.761719 308.183594 146.890625 307.714844 C 145.019531 307.246094 143.164062 306.730469 141.316406 306.171875 C 139.472656 305.613281 137.640625 305.007812 135.824219 304.359375 C 134.007812 303.707031 132.210938 303.015625 130.429688 302.277344 C 128.644531 301.539062 126.882812 300.757812 125.140625 299.933594 C 123.394531 299.105469 121.675781 298.242188 119.972656 297.332031 C 118.273438 296.421875 116.59375 295.472656 114.941406 294.480469 C 113.285156 293.488281 111.65625 292.457031 110.054688 291.386719 C 108.449219 290.3125 106.875 289.203125 105.324219 288.054688 C 103.777344 286.90625 102.253906 285.71875 100.765625 284.496094 C 99.273438 283.273438 97.8125 282.011719 96.386719 280.71875 C 94.957031 279.421875 93.558594 278.09375 92.195312 276.730469 C 90.832031 275.367188 89.503906 273.96875 88.207031 272.539062 C 86.910156 271.113281 85.652344 269.652344 84.429688 268.160156 C 83.207031 266.671875 82.019531 265.148438 80.871094 263.601562 C 79.722656 262.050781 78.613281 260.476562 77.539062 258.871094 C 76.46875 257.269531 75.4375 255.640625 74.445312 253.984375 C 73.453125 252.332031 72.503906 250.652344 71.59375 248.953125 C 70.683594 247.25 69.816406 245.527344 68.992188 243.785156 C 68.167969 242.042969 67.386719 240.28125 66.648438 238.496094 C 65.910156 236.714844 65.21875 234.917969 64.566406 233.101562 C 63.917969 231.285156 63.3125 229.453125 62.753906 227.609375 C 62.195312 225.761719 61.679688 223.90625 61.210938 222.035156 C 60.742188 220.164062 60.320312 218.28125 59.945312 216.390625 C 59.566406 214.5 59.238281 212.597656 58.953125 210.691406 C 58.671875 208.785156 58.4375 206.871094 58.246094 204.949219 C 58.058594 203.03125 57.914062 201.109375 57.820312 199.183594 C 57.726562 197.253906 57.679688 195.328125 57.679688 193.398438 C 57.679688 191.472656 57.726562 189.542969 57.820312 187.617188 C 57.914062 185.691406 58.058594 183.769531 58.246094 181.847656 C 58.4375 179.929688 58.671875 178.015625 58.953125 176.109375 C 59.238281 174.199219 59.566406 172.300781 59.945312 170.410156 C 60.320312 168.515625 60.742188 166.636719 61.210938 164.765625 C 61.679688 162.894531 62.195312 161.035156 62.753906 159.191406 C 63.3125 157.34375 63.917969 155.515625 64.566406 153.699219 C 65.21875 151.882812 65.910156 150.082031 66.648438 148.300781 C 67.386719 146.519531 68.167969 144.757812 68.992188 143.011719 C 69.816406 141.269531 70.683594 139.546875 71.59375 137.847656 C 72.503906 136.144531 73.453125 134.46875 74.445312 132.8125 C 75.4375 131.160156 76.46875 129.53125 77.539062 127.925781 C 78.613281 126.324219 79.722656 124.746094 80.871094 123.199219 C 82.019531 121.648438 83.207031 120.128906 84.429688 118.636719 C 85.652344 117.148438 86.910156 115.6875 88.207031 114.257812 C 89.503906 112.828125 90.832031 111.433594 92.195312 110.070312 C 93.558594 108.707031 94.957031 107.375 96.386719 106.082031 C 97.8125 104.785156 99.273438 103.527344 100.765625 102.300781 C 102.253906 101.078125 103.777344 99.894531 105.324219 98.742188 C 106.875 97.59375 108.449219 96.484375 110.054688 95.414062 C 111.65625 94.34375 113.285156 93.308594 114.941406 92.320312 C 116.59375 91.328125 118.273438 90.378906 119.972656 89.46875 C 121.675781 88.558594 123.394531 87.691406 125.140625 86.867188 C 126.882812 86.042969 128.644531 85.261719 130.429688 84.523438 C 132.210938 83.785156 134.007812 83.089844 135.824219 82.441406 C 137.640625 81.792969 139.472656 81.1875 141.316406 80.628906 C 143.164062 80.066406 145.019531 79.554688 146.890625 79.085938 C 148.761719 78.617188 150.644531 78.191406 152.535156 77.816406 C 154.425781 77.441406 156.328125 77.109375 158.234375 76.828125 C 160.140625 76.546875 162.054688 76.308594 163.976562 76.121094 C 165.894531 75.929688 167.816406 75.789062 169.742188 75.695312 C 171.667969 75.601562 173.597656 75.550781 175.527344 75.550781 C 177.453125 75.550781 179.382812 75.601562 181.308594 75.695312 C 183.234375 75.789062 185.15625 75.929688 187.078125 76.121094 C 188.996094 76.308594 190.910156 76.546875 192.816406 76.828125 C 194.726562 77.109375 196.625 77.441406 198.515625 77.816406 C 200.410156 78.191406 202.289062 78.617188 204.160156 79.085938 C 206.03125 79.554688 207.890625 80.066406 209.734375 80.628906 C 211.582031 81.1875 213.410156 81.792969 215.226562 82.441406 C 217.042969 83.089844 218.84375 83.785156 220.625 84.523438 C 222.40625 85.261719 224.167969 86.042969 225.910156 86.867188 C 227.65625 87.691406 229.378906 88.558594 231.078125 89.46875 C 232.78125 90.378906 234.457031 91.328125 236.113281 92.320312 C 237.765625 93.308594 239.394531 94.34375 241 95.414062 C 242.601562 96.484375 244.179688 97.59375 245.726562 98.742188 C 247.277344 99.894531 248.796875 101.078125 250.289062 102.300781 C 251.777344 103.527344 253.238281 104.785156 254.667969 106.082031 C 256.097656 107.375 257.492188 108.707031 258.855469 110.070312 C 260.21875 111.433594 261.550781 112.828125 262.84375 114.257812 C 264.140625 115.6875 265.398438 117.148438 266.621094 118.636719 C 267.847656 120.128906 269.03125 121.648438 270.179688 123.199219 C 271.332031 124.746094 272.441406 126.324219 273.511719 127.925781 C 274.582031 129.53125 275.617188 131.160156 276.605469 132.8125 C 277.597656 134.46875 278.546875 136.144531 279.457031 137.847656 C 280.367188 139.546875 281.234375 141.269531 282.058594 143.011719 C 282.882812 144.757812 283.664062 146.519531 284.402344 148.300781 C 285.140625 150.082031 285.835938 151.882812 286.484375 153.699219 C 287.132812 155.515625 287.738281 157.34375 288.296875 159.191406 C 288.859375 161.035156 289.371094 162.894531 289.839844 164.765625 C 290.308594 166.636719 290.730469 168.515625 291.109375 170.410156 C 291.484375 172.300781 291.816406 174.199219 292.097656 176.109375 C 292.378906 178.015625 292.617188 179.929688 292.804688 181.847656 C 292.996094 183.769531 293.136719 185.691406 293.230469 187.617188 C 293.324219 189.542969 293.371094 191.472656 293.371094 193.398438 Z M 293.371094 193.398438 " fill-opacity="1" fill-rule="nonzero"/><path fill="#003152" d="M 144.207031 215.941406 L 144.207031 235.574219 L 71.621094 235.574219 C 67.785156 235.574219 64.671875 232.460938 64.671875 228.628906 L 64.671875 222.878906 C 64.671875 219.054688 67.785156 215.941406 71.621094 215.941406 Z M 144.207031 215.941406 " fill-opacity="1" fill-rule="nonzero"/><path fill="#003152" d="M 144.207031 237.257812 L 71.621094 237.257812 C 66.859375 237.257812 62.988281 233.386719 62.988281 228.628906 L 62.988281 222.878906 C 62.988281 218.125 66.859375 214.257812 71.621094 214.257812 L 144.207031 214.257812 C 145.136719 214.257812 145.890625 215.011719 145.890625 215.941406 L 145.890625 235.574219 C 145.890625 236.503906 145.136719 237.257812 144.207031 237.257812 Z M 71.621094 217.625 C 68.71875 217.625 66.355469 219.980469 66.355469 222.878906 L 66.355469 228.628906 C 66.355469 231.53125 68.71875 233.890625 71.621094 233.890625 L 142.523438 233.890625 L 142.523438 217.625 Z M 71.621094 217.625 " fill-opacity="1" fill-rule="nonzero"/><path fill="#ffffff" d="M 173.582031 222.878906 L 173.582031 228.628906 C 173.582031 232.460938 170.480469 235.574219 166.644531 235.574219 L 144.207031 235.574219 L 144.207031 215.941406 L 166.644531 215.941406 C 170.480469 215.941406 173.582031 219.054688 173.582031 222.878906 Z M 173.582031 222.878906 " fill-opacity="1" fill-rule="nonzero"/><path fill="#003152" d="M 166.644531 237.257812 L 144.207031 237.257812 C 143.277344 237.257812 142.523438 236.503906 142.523438 235.574219 L 142.523438 215.941406 C 142.523438 215.011719 143.277344 214.257812 144.207031 214.257812 L 166.644531 214.257812 C 171.398438 214.257812 175.265625 218.125 175.265625 222.878906 L 175.265625 228.628906 C 175.265625 233.386719 171.398438 237.257812 166.644531 237.257812 Z M 145.890625 233.890625 L 166.644531 233.890625 C 169.542969 233.890625 171.898438 231.53125 171.898438 228.628906 L 171.898438 222.878906 C 171.898438 219.980469 169.542969 217.625 166.644531 217.625 L 145.890625 217.625 Z M 145.890625 233.890625 " fill-opacity="1" fill-rule="nonzero"/><path fill="#003152" d="M 119.226562 300.882812 L 119.226562 320.507812 L 71.621094 320.507812 C 67.785156 320.507812 64.671875 317.40625 64.671875 313.570312 L 64.671875 307.820312 C 64.671875 303.996094 67.785156 300.882812 71.621094 300.882812 Z M 119.226562 300.882812 " fill-opacity="1" fill-rule="nonzero"/><path fill="#003152" d="M 119.226562 322.191406 L 71.621094 322.191406 C 66.859375 322.191406 62.988281 318.324219 62.988281 313.570312 L 62.988281 307.820312 C 62.988281 303.066406 66.859375 299.199219 71.621094 299.199219 L 119.226562 299.199219 C 120.15625 299.199219 120.910156 299.953125 120.910156 300.882812 L 120.910156 320.507812 C 120.910156 321.4375 120.15625 322.191406 119.226562 322.191406 Z M 71.621094 302.566406 C 68.71875 302.566406 66.355469 304.925781 66.355469 307.820312 L 66.355469 313.570312 C 66.355469 316.46875 68.71875 318.824219 71.621094 318.824219 L 117.542969 318.824219 L 117.542969 302.566406 Z M 71.621094 302.566406 " fill-opacity="1" fill-rule="nonzero"/><path fill="#ffffff" d="M 173.582031 307.820312 L 173.582031 313.570312 C 173.582031 317.40625 170.480469 320.507812 166.644531 320.507812 L 119.226562 320.507812 L 119.226562 300.882812 L 166.644531 300.882812 C 170.480469 300.882812 173.582031 303.996094 173.582031 307.820312 Z M 173.582031 307.820312 " fill-opacity="1" fill-rule="nonzero"/><path fill="#003152" d="M 166.644531 322.191406 L 119.226562 322.191406 C 118.296875 322.191406 117.542969 321.4375 117.542969 320.507812 L 117.542969 300.882812 C 117.542969 299.953125 118.296875 299.199219 119.226562 299.199219 L 166.644531 299.199219 C 171.398438 299.199219 175.265625 303.066406 175.265625 307.820312 L 175.265625 313.570312 C 175.265625 318.324219 171.398438 322.191406 166.644531 322.191406 Z M 120.910156 318.824219 L 166.644531 318.824219 C 169.542969 318.824219 171.898438 316.46875 171.898438 313.570312 L 171.898438 307.820312 C 171.898438 304.925781 169.542969 302.566406 166.644531 302.566406 L 120.910156 302.566406 Z M 120.910156 318.824219 " fill-opacity="1" fill-rule="nonzero"/><path fill="#003152" d="M 95.160156 258.414062 L 95.160156 278.039062 L 71.621094 278.039062 C 67.785156 278.039062 64.671875 274.9375 64.671875 271.101562 L 64.671875 265.351562 C 64.671875 261.519531 67.785156 258.414062 71.621094 258.414062 Z M 95.160156 258.414062 " fill-opacity="1" fill-rule="nonzero"/><path fill="#003152" d="M 95.160156 279.722656 L 71.621094 279.722656 C 66.859375 279.722656 62.988281 275.855469 62.988281 271.101562 L 62.988281 265.351562 C 62.988281 260.597656 66.859375 256.730469 71.621094 256.730469 L 95.160156 256.730469 C 96.089844 256.730469 96.84375 257.484375 96.84375 258.414062 L 96.84375 278.039062 C 96.84375 278.96875 96.089844 279.722656 95.160156 279.722656 Z M 71.621094 260.097656 C 68.71875 260.097656 66.355469 262.457031 66.355469 265.351562 L 66.355469 271.101562 C 66.355469 274 68.71875 276.355469 71.621094 276.355469 L 93.476562 276.355469 L 93.476562 260.097656 Z M 71.621094 260.097656 " fill-opacity="1" fill-rule="nonzero"/><path fill="#ffffff" d="M 173.582031 265.351562 L 173.582031 271.101562 C 173.582031 274.9375 170.480469 278.039062 166.644531 278.039062 L 95.160156 278.039062 L 95.160156 258.414062 L 166.644531 258.414062 C 170.480469 258.414062 173.582031 261.519531 173.582031 265.351562 Z M 173.582031 265.351562 " fill-opacity="1" fill-rule="nonzero"/><path fill="#003152" d="M 166.644531 279.722656 L 95.160156 279.722656 C 94.230469 279.722656 93.476562 278.96875 93.476562 278.039062 L 93.476562 258.414062 C 93.476562 257.484375 94.230469 256.730469 95.160156 256.730469 L 166.644531 256.730469 C 171.398438 256.730469 175.265625 260.597656 175.265625 265.351562 L 175.265625 271.101562 C 175.265625 275.855469 171.398438 279.722656 166.644531 279.722656 Z M 96.84375 276.355469 L 166.644531 276.355469 C 169.542969 276.355469 171.898438 274 171.898438 271.101562 L 171.898438 265.351562 C 171.898438 262.457031 169.542969 260.097656 166.644531 260.097656 L 96.84375 260.097656 Z M 96.84375 276.355469 " fill-opacity="1" fill-rule="nonzero"/><path fill="#98b7e4" d="M 45.410156 210.5 L 52.617188 211.539062 C 55.921875 212.011719 57.246094 216.070312 54.859375 218.402344 L 49.65625 223.496094 C 48.707031 224.425781 48.277344 225.757812 48.503906 227.0625 L 49.742188 234.242188 C 50.316406 237.53125 46.863281 240.042969 43.910156 238.496094 L 37.453125 235.117188 C 36.28125 234.5 34.878906 234.503906 33.707031 235.125 L 27.265625 238.523438 C 24.3125 240.082031 20.855469 237.578125 21.414062 234.289062 L 22.632812 227.105469 C 22.855469 225.796875 22.417969 224.464844 21.46875 223.542969 L 16.242188 218.46875 C 13.851562 216.140625 15.160156 212.078125 18.464844 211.59375 L 25.671875 210.535156 C 26.984375 210.34375 28.117188 209.515625 28.699219 208.328125 L 31.914062 201.789062 C 33.386719 198.792969 37.652344 198.785156 39.136719 201.777344 L 42.371094 208.304688 C 42.960938 209.492188 44.09375 210.3125 45.410156 210.5 Z M 45.410156 210.5 " fill-opacity="1" fill-rule="nonzero"/><path fill="#003152" d="M 25.378906 240.679688 C 24.203125 240.679688 23.035156 240.3125 22.035156 239.589844 C 20.261719 238.304688 19.386719 236.164062 19.753906 234.007812 L 20.972656 226.824219 C 21.101562 226.0625 20.851562 225.289062 20.296875 224.75 L 15.070312 219.675781 C 13.5 218.148438 12.941406 215.90625 13.617188 213.820312 C 14.289062 211.738281 16.054688 210.246094 18.222656 209.925781 L 25.429688 208.867188 C 26.191406 208.757812 26.847656 208.277344 27.191406 207.582031 L 30.402344 201.046875 C 31.367188 199.082031 33.328125 197.859375 35.515625 197.851562 C 35.519531 197.851562 35.523438 197.851562 35.527344 197.851562 C 37.714844 197.851562 39.675781 199.070312 40.644531 201.027344 L 43.882812 207.554688 C 44.222656 208.246094 44.882812 208.726562 45.644531 208.835938 C 45.648438 208.835938 45.648438 208.835938 45.648438 208.835938 L 52.859375 209.871094 C 55.023438 210.183594 56.792969 211.667969 57.472656 213.75 C 58.15625 215.832031 57.605469 218.074219 56.039062 219.605469 L 50.832031 224.699219 C 50.28125 225.242188 50.03125 226.015625 50.160156 226.773438 L 51.402344 233.953125 C 51.777344 236.109375 50.910156 238.253906 49.144531 239.542969 C 47.371094 240.832031 45.066406 241.003906 43.128906 239.988281 L 36.671875 236.609375 C 35.988281 236.25 35.175781 236.253906 34.496094 236.613281 L 28.050781 240.011719 C 27.207031 240.457031 26.289062 240.679688 25.378906 240.679688 Z M 35.527344 201.222656 C 35.527344 201.222656 35.523438 201.222656 35.523438 201.222656 C 34.613281 201.222656 33.828125 201.710938 33.425781 202.53125 L 30.210938 209.070312 C 29.378906 210.757812 27.773438 211.929688 25.917969 212.199219 L 18.710938 213.257812 C 17.808594 213.390625 17.101562 213.988281 16.820312 214.855469 C 16.539062 215.726562 16.761719 216.625 17.417969 217.261719 L 22.644531 222.335938 C 23.992188 223.644531 24.609375 225.535156 24.292969 227.386719 L 23.074219 234.570312 C 22.921875 235.46875 23.269531 236.324219 24.011719 236.859375 C 24.75 237.394531 25.671875 237.460938 26.476562 237.035156 L 32.921875 233.632812 C 34.582031 232.757812 36.570312 232.753906 38.234375 233.625 L 44.691406 237.003906 C 45.496094 237.429688 46.421875 237.359375 47.160156 236.820312 C 47.894531 236.285156 48.242188 235.425781 48.085938 234.53125 L 46.84375 227.351562 C 46.523438 225.5 47.132812 223.609375 48.476562 222.292969 L 53.683594 217.199219 C 54.335938 216.5625 54.554688 215.660156 54.273438 214.792969 C 53.988281 213.929688 53.28125 213.335938 52.378906 213.203125 L 45.171875 212.167969 C 43.308594 211.902344 41.699219 210.738281 40.863281 209.050781 L 37.628906 202.523438 C 37.222656 201.707031 36.4375 201.222656 35.527344 201.222656 Z M 35.527344 201.222656 " fill-opacity="1" fill-rule="nonzero"/><path fill="#98b7e4" d="M 45.410156 257.019531 L 52.617188 258.058594 C 55.921875 258.53125 57.246094 262.589844 54.859375 264.921875 L 49.65625 270.015625 C 48.707031 270.945312 48.277344 272.277344 48.503906 273.582031 L 49.742188 280.761719 C 50.316406 284.050781 46.863281 286.5625 43.910156 285.015625 L 37.453125 281.636719 C 36.28125 281.023438 34.878906 281.023438 33.707031 281.644531 L 27.265625 285.042969 C 24.3125 286.601562 20.855469 284.097656 21.414062 280.808594 L 22.632812 273.625 C 22.855469 272.316406 22.417969 270.984375 21.46875 270.0625 L 16.242188 264.988281 C 13.851562 262.660156 15.160156 258.597656 18.464844 258.113281 L 25.671875 257.054688 C 26.984375 256.863281 28.117188 256.035156 28.699219 254.847656 L 31.914062 248.308594 C 33.386719 245.3125 37.652344 245.304688 39.136719 248.296875 L 42.371094 254.824219 C 42.960938 256.011719 44.09375 256.832031 45.410156 257.019531 Z M 45.410156 257.019531 " fill-opacity="1" fill-rule="nonzero"/><path fill="#003152" d="M 25.378906 287.199219 C 24.203125 287.199219 23.035156 286.832031 22.035156 286.109375 C 20.261719 284.824219 19.386719 282.683594 19.753906 280.527344 L 20.972656 273.34375 C 21.101562 272.582031 20.851562 271.808594 20.296875 271.269531 L 15.070312 266.195312 C 13.5 264.667969 12.941406 262.425781 13.617188 260.339844 C 14.289062 258.257812 16.054688 256.765625 18.222656 256.449219 L 25.429688 255.386719 C 26.191406 255.277344 26.847656 254.796875 27.191406 254.101562 L 30.402344 247.566406 C 31.367188 245.601562 33.328125 244.378906 35.515625 244.375 C 35.519531 244.375 35.523438 244.375 35.527344 244.375 C 37.714844 244.375 39.675781 245.589844 40.644531 247.546875 L 43.882812 254.078125 C 44.222656 254.765625 44.882812 255.246094 45.644531 255.355469 C 45.648438 255.355469 45.648438 255.355469 45.648438 255.355469 L 52.859375 256.390625 C 55.023438 256.703125 56.792969 258.1875 57.472656 260.269531 C 58.15625 262.351562 57.605469 264.59375 56.039062 266.125 L 50.832031 271.21875 C 50.28125 271.761719 50.03125 272.535156 50.160156 273.296875 L 51.402344 280.472656 C 51.777344 282.628906 50.910156 284.773438 49.144531 286.0625 C 47.371094 287.351562 45.066406 287.523438 43.128906 286.507812 L 36.671875 283.128906 C 35.988281 282.769531 35.175781 282.773438 34.496094 283.132812 L 28.050781 286.53125 C 27.207031 286.976562 26.289062 287.199219 25.378906 287.199219 Z M 35.527344 247.742188 C 35.527344 247.742188 35.523438 247.742188 35.523438 247.742188 C 34.613281 247.742188 33.828125 248.230469 33.425781 249.050781 L 30.210938 255.589844 C 29.378906 257.277344 27.773438 258.449219 25.917969 258.71875 L 18.710938 259.777344 C 17.808594 259.910156 17.101562 260.507812 16.820312 261.375 C 16.539062 262.246094 16.761719 263.144531 17.417969 263.78125 L 22.644531 268.855469 C 23.992188 270.164062 24.609375 272.054688 24.292969 273.90625 L 23.074219 281.089844 C 22.921875 281.988281 23.269531 282.84375 24.011719 283.378906 C 24.75 283.914062 25.671875 283.980469 26.476562 283.554688 L 32.921875 280.152344 C 34.582031 279.277344 36.570312 279.273438 38.234375 280.144531 L 44.691406 283.523438 C 45.496094 283.949219 46.421875 283.878906 47.160156 283.339844 C 47.894531 282.804688 48.242188 281.945312 48.085938 281.050781 L 46.84375 273.871094 C 46.523438 272.019531 47.132812 270.128906 48.476562 268.8125 L 53.683594 263.71875 C 54.335938 263.078125 54.554688 262.179688 54.273438 261.3125 C 53.988281 260.449219 53.28125 259.855469 52.378906 259.722656 L 45.167969 258.6875 C 43.308594 258.421875 41.699219 257.257812 40.863281 255.570312 L 37.628906 249.042969 C 37.222656 248.226562 36.4375 247.742188 35.527344 247.742188 Z M 35.527344 247.742188 " fill-opacity="1" fill-rule="nonzero"/><path fill="#98b7e4" d="M 45.410156 303.539062 L 52.617188 304.578125 C 55.921875 305.050781 57.246094 309.109375 54.859375 311.441406 L 49.65625 316.535156 C 48.707031 317.464844 48.277344 318.796875 48.503906 320.101562 L 49.742188 327.28125 C 50.316406 330.570312 46.863281 333.082031 43.910156 331.535156 L 37.453125 328.15625 C 36.28125 327.542969 34.878906 327.542969 33.707031 328.164062 L 27.265625 331.5625 C 24.3125 333.121094 20.855469 330.617188 21.414062 327.328125 L 22.632812 320.144531 C 22.855469 318.835938 22.417969 317.507812 21.46875 316.582031 L 16.242188 311.507812 C 13.851562 309.179688 15.160156 305.117188 18.464844 304.632812 L 25.671875 303.574219 C 26.984375 303.382812 28.117188 302.554688 28.699219 301.367188 L 31.914062 294.828125 C 33.386719 291.832031 37.652344 291.824219 39.136719 294.816406 L 42.371094 301.34375 C 42.960938 302.53125 44.09375 303.355469 45.410156 303.539062 Z M 45.410156 303.539062 " fill-opacity="1" fill-rule="nonzero"/><path fill="#003152" d="M 25.378906 333.71875 C 24.203125 333.71875 23.035156 333.351562 22.035156 332.628906 C 20.261719 331.34375 19.386719 329.203125 19.753906 327.046875 L 20.972656 319.863281 C 21.101562 319.101562 20.851562 318.328125 20.296875 317.789062 L 15.070312 312.714844 C 13.5 311.1875 12.941406 308.945312 13.617188 306.859375 C 14.289062 304.777344 16.054688 303.285156 18.222656 302.96875 L 25.429688 301.90625 C 26.191406 301.796875 26.847656 301.316406 27.191406 300.621094 L 30.402344 294.085938 C 31.367188 292.121094 33.328125 290.898438 35.515625 290.890625 C 35.519531 290.890625 35.523438 290.890625 35.527344 290.890625 C 37.714844 290.890625 39.675781 292.109375 40.644531 294.066406 L 43.882812 300.59375 C 44.222656 301.285156 44.882812 301.765625 45.644531 301.875 C 45.648438 301.875 45.648438 301.875 45.648438 301.875 L 52.859375 302.910156 C 55.023438 303.222656 56.792969 304.707031 57.472656 306.789062 C 58.15625 308.871094 57.605469 311.113281 56.039062 312.644531 L 50.832031 317.738281 C 50.28125 318.28125 50.03125 319.054688 50.160156 319.8125 L 51.402344 326.992188 C 51.777344 329.148438 50.910156 331.292969 49.144531 332.582031 C 47.371094 333.871094 45.066406 334.042969 43.128906 333.027344 L 36.671875 329.648438 C 35.988281 329.289062 35.175781 329.292969 34.496094 329.652344 L 28.050781 333.050781 C 27.203125 333.5 26.289062 333.71875 25.378906 333.71875 Z M 35.527344 294.261719 C 35.527344 294.261719 35.523438 294.261719 35.523438 294.261719 C 34.613281 294.261719 33.828125 294.75 33.425781 295.570312 L 30.210938 302.109375 C 29.378906 303.796875 27.773438 304.96875 25.917969 305.238281 L 18.710938 306.296875 C 17.808594 306.429688 17.101562 307.027344 16.820312 307.894531 C 16.539062 308.765625 16.761719 309.664062 17.417969 310.300781 L 22.644531 315.375 C 23.992188 316.683594 24.609375 318.574219 24.292969 320.425781 L 23.074219 327.609375 C 22.921875 328.507812 23.269531 329.363281 24.007812 329.898438 C 24.75 330.433594 25.671875 330.5 26.476562 330.074219 L 32.921875 326.671875 C 34.582031 325.796875 36.570312 325.792969 38.234375 326.664062 L 44.6875 330.042969 C 45.496094 330.46875 46.421875 330.398438 47.15625 329.859375 C 47.894531 329.324219 48.242188 328.464844 48.085938 327.570312 L 46.84375 320.390625 C 46.519531 318.539062 47.132812 316.648438 48.476562 315.332031 L 53.683594 310.238281 C 54.335938 309.601562 54.554688 308.699219 54.273438 307.835938 C 53.988281 306.96875 53.28125 306.375 52.378906 306.242188 L 45.167969 305.207031 C 43.308594 304.941406 41.699219 303.777344 40.863281 302.089844 L 37.628906 295.5625 C 37.222656 294.746094 36.4375 294.261719 35.527344 294.261719 Z M 35.527344 294.261719 " fill-opacity="1" fill-rule="nonzero"/><path fill="#ffffff" d="M 288.21875 261.117188 C 277.921875 253.265625 268.488281 241.574219 266.257812 228.515625 C 265.183594 222.234375 268.003906 213.992188 274.582031 211.84375 C 279.199219 210.339844 283.519531 212.863281 287.023438 216.328125 Z M 288.21875 261.117188 " fill-opacity="1" fill-rule="nonzero"/><path fill="#003152" d="M 288.21875 262.800781 C 287.859375 262.800781 287.503906 262.691406 287.195312 262.457031 C 274.882812 253.066406 266.644531 240.796875 264.597656 228.796875 C 263.996094 225.261719 264.511719 221.304688 266.015625 217.941406 C 267.726562 214.113281 270.582031 211.378906 274.058594 210.242188 C 278.652344 208.746094 283.414062 210.390625 288.207031 215.128906 C 288.867188 215.785156 288.875 216.847656 288.222656 217.511719 C 287.566406 218.171875 286.5 218.179688 285.839844 217.523438 C 282.015625 213.742188 278.402344 212.371094 275.101562 213.445312 C 271.824219 214.515625 270.023438 217.230469 269.089844 219.316406 C 267.851562 222.085938 267.421875 225.335938 267.917969 228.230469 C 269.824219 239.398438 277.59375 250.898438 289.238281 259.777344 C 289.980469 260.34375 290.121094 261.398438 289.558594 262.140625 C 289.226562 262.574219 288.722656 262.800781 288.21875 262.800781 Z M 288.21875 262.800781 " fill-opacity="1" fill-rule="nonzero"/><path fill="#ffffff" d="M 346.996094 216.328125 C 350.511719 212.863281 354.832031 210.339844 359.453125 211.84375 C 366.027344 213.992188 368.847656 222.234375 367.773438 228.515625 C 365.546875 241.589844 356.09375 253.277344 345.800781 261.132812 Z M 346.996094 216.328125 " fill-opacity="1" fill-rule="nonzero"/><g clip-path="url(#3c97f4924d)"><path fill="#003152" d="M 345.800781 262.816406 C 345.292969 262.816406 344.792969 262.585938 344.460938 262.152344 C 343.898438 261.414062 344.039062 260.355469 344.78125 259.792969 C 356.433594 250.902344 364.210938 239.398438 366.113281 228.230469 C 367.085938 222.539062 364.429688 215.242188 358.929688 213.445312 C 355.632812 212.371094 352.015625 213.746094 348.175781 217.527344 C 347.515625 218.179688 346.449219 218.171875 345.796875 217.507812 C 345.144531 216.847656 345.152344 215.78125 345.8125 215.128906 C 350.621094 210.390625 355.386719 208.75 359.972656 210.242188 C 363.449219 211.378906 366.304688 214.113281 368.019531 217.941406 C 369.523438 221.304688 370.039062 225.261719 369.433594 228.796875 C 367.386719 240.796875 359.148438 253.070312 346.820312 262.46875 C 346.515625 262.703125 346.15625 262.816406 345.800781 262.816406 Z M 345.800781 262.816406 " fill-opacity="1" fill-rule="nonzero"/></g><path fill="#003152" d="M 287.027344 209.992188 L 287.027344 252.738281 C 287.027344 269.296875 300.453125 282.722656 317.015625 282.722656 C 333.574219 282.722656 347 269.296875 347 252.738281 L 347 209.992188 Z M 287.027344 209.992188 " fill-opacity="1" fill-rule="nonzero"/><path fill="#003152" d="M 317.015625 284.40625 C 299.550781 284.40625 285.34375 270.199219 285.34375 252.738281 L 285.34375 209.992188 C 285.34375 209.0625 286.097656 208.308594 287.027344 208.308594 L 347 208.308594 C 347.929688 208.308594 348.683594 209.0625 348.683594 209.992188 L 348.683594 252.738281 C 348.683594 270.199219 334.476562 284.40625 317.015625 284.40625 Z M 288.710938 211.675781 L 288.710938 252.738281 C 288.710938 268.34375 301.410156 281.039062 317.015625 281.039062 C 332.621094 281.039062 345.316406 268.34375 345.316406 252.738281 L 345.316406 211.675781 Z M 288.710938 211.675781 " fill-opacity="1" fill-rule="nonzero"/><path fill="#003152" d="M 295.9375 299.882812 L 338.089844 299.882812 L 338.089844 322.632812 L 295.9375 322.632812 Z M 295.9375 299.882812 " fill-opacity="1" fill-rule="nonzero"/><path fill="#003152" d="M 338.089844 324.316406 L 295.9375 324.316406 C 295.007812 324.316406 294.253906 323.5625 294.253906 322.632812 L 294.253906 299.882812 C 294.253906 298.953125 295.007812 298.199219 295.9375 298.199219 L 338.089844 298.199219 C 339.019531 298.199219 339.773438 298.953125 339.773438 299.882812 L 339.773438 322.632812 C 339.773438 323.5625 339.019531 324.316406 338.089844 324.316406 Z M 297.621094 320.949219 L 336.40625 320.949219 L 336.40625 301.566406 L 297.621094 301.566406 Z M 297.621094 320.949219 " fill-opacity="1" fill-rule="nonzero"/><path fill="#ffffff" d="M 311.535156 282.222656 L 322.503906 282.222656 L 322.503906 299.882812 L 311.535156 299.882812 Z M 311.535156 282.222656 " fill-opacity="1" fill-rule="nonzero"/><path fill="#003152" d="M 322.503906 301.566406 L 311.535156 301.566406 C 310.605469 301.566406 309.851562 300.8125 309.851562 299.882812 L 309.851562 282.222656 C 309.851562 281.292969 310.605469 280.539062 311.535156 280.539062 L 322.503906 280.539062 C 323.433594 280.539062 324.1875 281.292969 324.1875 282.222656 L 324.1875 299.882812 C 324.1875 300.8125 323.433594 301.566406 322.503906 301.566406 Z M 313.21875 298.199219 L 320.820312 298.199219 L 320.820312 283.90625 L 313.21875 283.90625 Z M 313.21875 298.199219 " fill-opacity="1" fill-rule="nonzero"/><path fill="#98b7e4" d="M 320.945312 226.257812 L 324.070312 232.585938 L 331.050781 233.601562 C 334.648438 234.125 336.085938 238.542969 333.480469 241.082031 L 328.429688 246.003906 L 329.621094 252.960938 C 330.238281 256.542969 326.476562 259.273438 323.261719 257.582031 L 317.015625 254.300781 L 310.769531 257.582031 C 307.550781 259.273438 303.792969 256.542969 304.40625 252.960938 L 305.597656 246.003906 L 300.546875 241.082031 C 297.945312 238.542969 299.378906 234.125 302.976562 233.601562 L 309.960938 232.585938 L 313.082031 226.257812 C 314.691406 223 319.335938 223 320.945312 226.257812 Z M 320.945312 226.257812 " fill-opacity="1" fill-rule="nonzero"/><path fill="#003152" d="M 308.722656 259.777344 C 307.46875 259.777344 306.226562 259.382812 305.160156 258.609375 C 303.277344 257.242188 302.355469 254.96875 302.746094 252.675781 L 303.789062 246.59375 L 299.371094 242.285156 C 297.703125 240.660156 297.117188 238.277344 297.835938 236.066406 C 298.554688 233.851562 300.433594 232.269531 302.734375 231.933594 L 308.839844 231.046875 L 311.574219 225.511719 C 312.601562 223.425781 314.6875 222.128906 317.015625 222.128906 C 319.339844 222.128906 321.425781 223.425781 322.457031 225.511719 L 325.1875 231.046875 L 331.292969 231.933594 C 333.597656 232.269531 335.472656 233.851562 336.191406 236.066406 C 336.910156 238.277344 336.324219 240.660156 334.65625 242.285156 L 330.238281 246.59375 L 331.28125 252.675781 C 331.675781 254.96875 330.75 257.242188 328.867188 258.609375 C 326.984375 259.980469 324.535156 260.15625 322.476562 259.074219 L 317.015625 256.199219 L 311.550781 259.074219 C 310.65625 259.542969 309.6875 259.777344 308.722656 259.777344 Z M 317.015625 252.613281 C 317.285156 252.613281 317.554688 252.679688 317.796875 252.808594 L 324.042969 256.09375 C 324.972656 256.582031 326.039062 256.503906 326.886719 255.886719 C 327.738281 255.269531 328.140625 254.28125 327.960938 253.246094 L 326.769531 246.289062 C 326.675781 245.742188 326.855469 245.1875 327.253906 244.800781 L 332.308594 239.875 C 333.058594 239.140625 333.316406 238.105469 332.992188 237.105469 C 332.664062 236.105469 331.851562 235.417969 330.808594 235.269531 L 323.828125 234.253906 C 323.277344 234.171875 322.804688 233.828125 322.558594 233.332031 L 319.4375 227.003906 C 318.972656 226.0625 318.066406 225.5 317.015625 225.5 C 315.964844 225.5 315.058594 226.0625 314.59375 227.003906 L 311.46875 233.332031 C 311.222656 233.828125 310.75 234.171875 310.203125 234.253906 L 303.21875 235.269531 C 302.179688 235.417969 301.363281 236.105469 301.039062 237.105469 C 300.714844 238.105469 300.96875 239.140625 301.722656 239.875 L 306.773438 244.800781 C 307.171875 245.1875 307.351562 245.746094 307.257812 246.289062 L 306.066406 253.246094 C 305.890625 254.28125 306.289062 255.269531 307.140625 255.886719 C 307.992188 256.503906 309.054688 256.582031 309.984375 256.09375 L 316.230469 252.808594 C 316.476562 252.679688 316.746094 252.613281 317.015625 252.613281 Z M 317.015625 252.613281 " fill-opacity="1" fill-rule="nonzero"/><path fill="#ffffff" d="M 248.617188 134.890625 C 248.617188 135.511719 248.582031 136.132812 248.519531 136.753906 C 248.457031 137.375 248.363281 137.992188 248.238281 138.601562 C 248.113281 139.214844 247.957031 139.816406 247.769531 140.414062 C 247.582031 141.011719 247.363281 141.597656 247.117188 142.171875 C 246.871094 142.746094 246.597656 143.308594 246.292969 143.859375 C 245.988281 144.410156 245.65625 144.945312 245.300781 145.460938 C 244.941406 145.980469 244.558594 146.480469 244.148438 146.960938 C 243.738281 147.445312 243.308594 147.90625 242.851562 148.347656 C 242.398438 148.785156 241.917969 149.203125 241.421875 149.601562 C 240.921875 149.996094 240.40625 150.367188 239.871094 150.710938 C 239.335938 151.058594 238.78125 151.378906 238.214844 151.671875 C 237.644531 151.964844 237.0625 152.234375 236.46875 152.472656 C 235.875 152.710938 235.265625 152.917969 234.652344 153.101562 C 234.035156 153.28125 233.410156 153.433594 232.777344 153.554688 C 232.144531 153.675781 231.507812 153.765625 230.867188 153.828125 C 230.226562 153.890625 229.582031 153.917969 228.9375 153.917969 C 228.292969 153.917969 227.652344 153.890625 227.011719 153.828125 C 226.367188 153.765625 225.730469 153.675781 225.101562 153.554688 C 224.46875 153.433594 223.84375 153.28125 223.226562 153.101562 C 222.609375 152.917969 222.003906 152.710938 221.410156 152.472656 C 220.8125 152.234375 220.230469 151.964844 219.664062 151.671875 C 219.09375 151.378906 218.542969 151.058594 218.007812 150.710938 C 217.472656 150.367188 216.953125 149.996094 216.457031 149.601562 C 215.957031 149.203125 215.480469 148.785156 215.027344 148.347656 C 214.570312 147.90625 214.136719 147.445312 213.730469 146.960938 C 213.320312 146.480469 212.9375 145.980469 212.578125 145.460938 C 212.21875 144.945312 211.890625 144.410156 211.585938 143.859375 C 211.28125 143.308594 211.007812 142.746094 210.761719 142.171875 C 210.515625 141.597656 210.296875 141.011719 210.109375 140.414062 C 209.921875 139.816406 209.765625 139.214844 209.640625 138.601562 C 209.515625 137.992188 209.421875 137.375 209.359375 136.753906 C 209.292969 136.132812 209.261719 135.511719 209.261719 134.890625 C 209.261719 134.265625 209.292969 133.644531 209.355469 133.023438 C 209.421875 132.402344 209.515625 131.789062 209.640625 131.175781 C 209.765625 130.566406 209.921875 129.960938 210.109375 129.363281 C 210.296875 128.769531 210.515625 128.183594 210.761719 127.605469 C 211.007812 127.03125 211.28125 126.46875 211.585938 125.917969 C 211.890625 125.367188 212.21875 124.835938 212.578125 124.316406 C 212.9375 123.796875 213.320312 123.296875 213.730469 122.816406 C 214.136719 122.335938 214.570312 121.875 215.027344 121.433594 C 215.480469 120.992188 215.957031 120.574219 216.457031 120.179688 C 216.953125 119.785156 217.472656 119.414062 218.007812 119.066406 C 218.542969 118.71875 219.09375 118.398438 219.664062 118.105469 C 220.230469 117.8125 220.8125 117.546875 221.410156 117.308594 C 222.003906 117.070312 222.609375 116.859375 223.226562 116.679688 C 223.84375 116.496094 224.46875 116.347656 225.101562 116.222656 C 225.730469 116.101562 226.367188 116.011719 227.011719 115.949219 C 227.652344 115.890625 228.292969 115.859375 228.9375 115.859375 C 229.582031 115.859375 230.226562 115.890625 230.867188 115.949219 C 231.507812 116.011719 232.144531 116.101562 232.777344 116.222656 C 233.410156 116.347656 234.035156 116.496094 234.652344 116.679688 C 235.265625 116.859375 235.875 117.070312 236.46875 117.308594 C 237.0625 117.546875 237.644531 117.8125 238.214844 118.105469 C 238.78125 118.398438 239.335938 118.71875 239.871094 119.066406 C 240.40625 119.414062 240.921875 119.785156 241.421875 120.179688 C 241.917969 120.574219 242.398438 120.992188 242.851562 121.433594 C 243.308594 121.875 243.738281 122.335938 244.148438 122.816406 C 244.558594 123.296875 244.941406 123.796875 245.300781 124.316406 C 245.65625 124.835938 245.988281 125.367188 246.292969 125.917969 C 246.597656 126.46875 246.871094 127.03125 247.117188 127.605469 C 247.363281 128.183594 247.582031 128.769531 247.769531 129.363281 C 247.957031 129.960938 248.113281 130.566406 248.238281 131.175781 C 248.363281 131.789062 248.457031 132.402344 248.519531 133.023438 C 248.582031 133.644531 248.617188 134.265625 248.617188 134.890625 Z M 248.617188 134.890625 " fill-opacity="1" fill-rule="nonzero"/><path fill="#003152" d="M 228.9375 155.601562 C 217.160156 155.601562 207.578125 146.3125 207.578125 134.890625 C 207.578125 123.46875 217.160156 114.175781 228.9375 114.175781 C 240.71875 114.175781 250.300781 123.46875 250.300781 134.890625 C 250.300781 146.3125 240.71875 155.601562 228.9375 155.601562 Z M 228.9375 117.542969 C 219.019531 117.542969 210.945312 125.324219 210.945312 134.890625 C 210.945312 144.453125 219.019531 152.234375 228.9375 152.234375 C 238.859375 152.234375 246.929688 144.453125 246.929688 134.890625 C 246.929688 125.324219 238.859375 117.542969 228.9375 117.542969 Z M 228.9375 117.542969 " fill-opacity="1" fill-rule="nonzero"/><path fill="#ffffff" d="M 303.699219 177.207031 L 293.425781 141.570312 C 292.09375 136.921875 287.710938 133.703125 282.714844 133.703125 L 275.054688 133.703125 C 271.234375 133.703125 268.113281 136.703125 268.113281 140.433594 C 268.113281 142.265625 268.917969 143.941406 270.144531 145.164062 C 271.410156 146.382812 273.125 147.128906 275.054688 147.128906 L 280.53125 147.128906 C 281.261719 147.128906 281.890625 147.644531 282.035156 148.359375 L 286.257812 169.160156 C 286.480469 170.246094 285.507812 171.203125 284.425781 170.960938 C 275.785156 169.039062 245.523438 162.390625 239.871094 162.390625 L 221.796875 162.390625 C 212.242188 162.390625 199.585938 165.019531 191.488281 169.933594 L 172.835938 181.3125 C 171.363281 182.226562 170.363281 183.734375 170.117188 185.398438 C 169.875 187.09375 170.398438 188.769531 171.574219 190.027344 L 196.992188 217.953125 C 197.546875 218.566406 197.519531 219.507812 196.921875 220.085938 L 194.308594 222.613281 C 191.382812 225.425781 193.136719 230.394531 197.253906 230.648438 C 198.816406 230.75 200.410156 230.5625 201.9375 230.074219 C 201.945312 230.070312 201.953125 230.066406 201.960938 230.066406 C 203.015625 229.722656 204.09375 230.507812 204.011719 231.617188 L 198.464844 308.425781 C 198.421875 309.023438 198.03125 309.527344 197.476562 309.746094 C 191.917969 311.921875 187.300781 315.847656 184.308594 320.792969 C 183.699219 321.800781 184.464844 323.085938 185.640625 323.085938 L 214.335938 323.085938 C 215.121094 323.085938 215.777344 322.496094 215.859375 321.714844 L 225 235.210938 C 225.082031 234.429688 225.742188 233.835938 226.527344 233.835938 L 231.339844 233.835938 C 232.125 233.835938 232.78125 234.429688 232.863281 235.207031 L 242.023438 321.714844 C 242.105469 322.496094 242.761719 323.085938 243.546875 323.085938 L 272.242188 323.085938 C 273.417969 323.085938 274.183594 321.796875 273.574219 320.792969 C 270.582031 315.851562 265.960938 311.929688 260.417969 309.75 C 259.855469 309.527344 259.464844 309.015625 259.429688 308.414062 L 253.519531 208.089844 C 253.511719 207.996094 253.515625 207.898438 253.527344 207.804688 L 255.796875 190.113281 C 255.902344 189.3125 256.609375 188.726562 257.417969 188.78125 L 292.777344 191.078125 C 300.28125 191.078125 305.699219 184.175781 303.699219 177.207031 Z M 206.617188 210.695312 L 206.074219 210.082031 L 189.039062 191.636719 C 188.285156 190.824219 188.621094 189.503906 189.667969 189.144531 L 201.855469 184.992188 C 202.78125 184.675781 203.761719 185.296875 203.875 186.269531 L 206.722656 210.796875 C 206.6875 210.777344 206.652344 210.726562 206.617188 210.695312 Z M 206.617188 210.695312 " fill-opacity="1" fill-rule="nonzero"/><path fill="#003152" d="M 272.242188 324.769531 L 243.546875 324.769531 C 241.898438 324.769531 240.523438 323.53125 240.347656 321.890625 L 231.203125 235.519531 L 226.660156 235.519531 L 217.535156 321.890625 C 217.359375 323.53125 215.984375 324.769531 214.335938 324.769531 L 185.640625 324.769531 C 184.476562 324.769531 183.398438 324.140625 182.824219 323.121094 C 182.253906 322.105469 182.269531 320.910156 182.867188 319.921875 C 186.058594 314.648438 191 310.488281 196.792969 308.203125 L 202.316406 231.71875 C 200.636719 232.238281 198.902344 232.445312 197.144531 232.328125 C 194.585938 232.171875 192.445312 230.585938 191.570312 228.195312 C 190.683594 225.789062 191.289062 223.183594 193.144531 221.398438 L 195.648438 218.976562 L 170.335938 191.167969 C 168.820312 189.542969 168.132812 187.351562 168.453125 185.15625 C 168.773438 182.984375 170.046875 181.0625 171.945312 179.882812 L 190.613281 168.496094 C 199.476562 163.113281 212.664062 160.707031 221.796875 160.707031 L 239.871094 160.707031 C 245.472656 160.707031 272.804688 166.648438 284.5625 169.265625 L 280.410156 148.8125 L 275.054688 148.8125 C 272.761719 148.8125 270.601562 147.949219 268.976562 146.375 L 268.957031 146.359375 C 267.328125 144.734375 266.429688 142.628906 266.429688 140.433594 C 266.429688 135.792969 270.300781 132.019531 275.054688 132.019531 L 282.714844 132.019531 C 288.441406 132.019531 293.511719 135.753906 295.046875 141.105469 L 305.320312 176.742188 C 306.394531 180.492188 305.652344 184.445312 303.289062 187.585938 C 300.808594 190.875 296.980469 192.761719 292.777344 192.761719 L 292.667969 192.757812 L 257.449219 190.46875 L 255.199219 208.003906 L 261.105469 308.210938 C 266.890625 310.503906 271.828125 314.660156 275.011719 319.917969 C 275.613281 320.910156 275.628906 322.105469 275.058594 323.121094 C 274.484375 324.136719 273.40625 324.769531 272.242188 324.769531 Z M 243.683594 321.402344 L 271.972656 321.402344 C 269.148438 316.871094 264.839844 313.296875 259.800781 311.316406 C 258.628906 310.855469 257.820312 309.753906 257.746094 308.511719 L 251.835938 208.1875 C 251.824219 207.992188 251.832031 207.789062 251.859375 207.589844 L 254.128906 189.902344 C 254.34375 188.21875 255.835938 186.988281 257.527344 187.101562 L 292.832031 189.394531 C 295.941406 189.378906 298.773438 187.980469 300.597656 185.558594 C 302.320312 183.273438 302.863281 180.398438 302.082031 177.671875 L 291.808594 142.035156 C 290.683594 138.121094 286.945312 135.386719 282.714844 135.386719 L 275.054688 135.386719 C 272.15625 135.386719 269.796875 137.652344 269.796875 140.433594 C 269.796875 141.726562 270.339844 142.976562 271.324219 143.964844 C 272.320312 144.921875 273.644531 145.445312 275.054688 145.445312 L 280.53125 145.445312 C 282.054688 145.445312 283.382812 146.53125 283.6875 148.023438 L 287.910156 168.824219 C 288.125 169.898438 287.789062 170.996094 287.007812 171.761719 C 286.230469 172.527344 285.125 172.84375 284.058594 172.605469 C 265.539062 168.480469 244.203125 164.074219 239.871094 164.074219 L 221.796875 164.074219 C 213.410156 164.074219 200.625 166.359375 192.363281 171.375 L 173.710938 182.75 C 172.683594 183.390625 171.957031 184.476562 171.785156 185.644531 C 171.613281 186.820312 171.984375 188 172.800781 188.875 L 172.820312 188.894531 L 198.234375 216.816406 C 199.414062 218.113281 199.351562 220.078125 198.09375 221.296875 L 195.480469 223.824219 C 194.585938 224.683594 194.304688 225.882812 194.730469 227.035156 C 195.144531 228.167969 196.128906 228.894531 197.359375 228.96875 C 198.746094 229.058594 200.109375 228.890625 201.417969 228.46875 L 201.445312 228.460938 C 202.484375 228.125 203.621094 228.320312 204.480469 228.992188 C 205.316406 229.648438 205.769531 230.671875 205.691406 231.738281 L 200.144531 308.546875 C 200.054688 309.773438 199.25 310.859375 198.089844 311.3125 C 193.050781 313.289062 188.734375 316.863281 185.910156 321.402344 L 214.199219 321.402344 L 223.328125 235.03125 C 223.5 233.390625 224.875 232.152344 226.527344 232.152344 L 231.339844 232.152344 C 232.988281 232.152344 234.363281 233.390625 234.539062 235.03125 Z M 208.753906 213.679688 L 205.972656 212.304688 C 205.683594 212.160156 205.496094 211.964844 205.414062 211.871094 L 205.359375 211.8125 L 204.824219 211.214844 L 187.800781 192.78125 C 187.058594 191.976562 186.777344 190.867188 187.046875 189.808594 C 187.3125 188.746094 188.09375 187.90625 189.125 187.550781 L 201.3125 183.398438 C 202.238281 183.082031 203.242188 183.203125 204.066406 183.722656 C 204.894531 184.246094 205.433594 185.101562 205.546875 186.074219 Z M 190.433594 190.664062 L 204.453125 205.847656 L 202.222656 186.648438 Z M 190.433594 190.664062 " fill-opacity="1" fill-rule="nonzero"/><path fill="#003152" d="M 204.199219 230.738281 C 203.59375 230.738281 203.011719 230.414062 202.707031 229.839844 C 202.273438 229.019531 202.589844 228 203.410156 227.566406 C 203.566406 227.484375 203.6875 227.414062 203.796875 227.339844 C 203.820312 227.324219 203.839844 227.308594 203.863281 227.296875 C 204.359375 226.996094 204.890625 226.570312 205.445312 226.03125 C 205.464844 226.015625 205.480469 225.996094 205.5 225.980469 C 205.632812 225.863281 205.75 225.742188 205.902344 225.566406 C 205.910156 225.554688 205.917969 225.546875 205.929688 225.535156 C 208.097656 223.132812 208.566406 220.0625 208.578125 217.90625 C 208.578125 215.9375 207.558594 213.949219 205.550781 212.007812 C 204.882812 211.359375 204.863281 210.292969 205.511719 209.625 C 206.15625 208.957031 207.222656 208.9375 207.890625 209.585938 C 210.546875 212.148438 211.945312 215.03125 211.945312 217.917969 C 211.925781 221.847656 210.714844 225.253906 208.441406 227.777344 C 208.207031 228.050781 207.992188 228.269531 207.761719 228.476562 C 207.039062 229.171875 206.347656 229.722656 205.652344 230.148438 C 205.449219 230.285156 205.234375 230.414062 204.984375 230.542969 C 204.734375 230.675781 204.464844 230.738281 204.199219 230.738281 Z M 204.199219 230.738281 " fill-opacity="1" fill-rule="nonzero"/><path fill="#003152" d="M 255.984375 190.371094 C 255.914062 190.371094 255.839844 190.367188 255.769531 190.355469 C 254.847656 190.238281 254.195312 189.398438 254.3125 188.472656 L 255.503906 179.082031 C 255.621094 178.160156 256.460938 177.503906 257.386719 177.621094 C 258.308594 177.738281 258.960938 178.582031 258.84375 179.503906 L 257.652344 188.898438 C 257.542969 189.75 256.820312 190.371094 255.984375 190.371094 Z M 255.984375 190.371094 " fill-opacity="1" fill-rule="nonzero"/><path fill="#003152" d="M 223.859375 192.972656 L 228.941406 197.386719 L 234.019531 192.972656 L 234.019531 162.359375 L 223.859375 162.359375 Z M 223.859375 192.972656 " fill-opacity="1" fill-rule="nonzero"/><path fill="#003152" d="M 228.941406 199.070312 C 228.546875 199.070312 228.152344 198.933594 227.835938 198.660156 L 222.753906 194.246094 C 222.386719 193.925781 222.175781 193.460938 222.175781 192.972656 L 222.175781 162.359375 C 222.175781 161.429688 222.929688 160.675781 223.859375 160.675781 L 234.019531 160.675781 C 234.949219 160.675781 235.703125 161.429688 235.703125 162.359375 L 235.703125 192.972656 C 235.703125 193.460938 235.492188 193.925781 235.125 194.246094 L 230.042969 198.660156 C 229.726562 198.933594 229.332031 199.070312 228.941406 199.070312 Z M 225.542969 192.207031 L 228.9375 195.15625 L 232.335938 192.207031 L 232.335938 164.042969 L 225.542969 164.042969 Z M 225.542969 192.207031 " fill-opacity="1" fill-rule="nonzero"/><path fill="#003152" d="M 198.597656 126.539062 L 210.519531 69.105469 C 211.296875 65.351562 208.429688 61.828125 204.597656 61.828125 L 83.957031 61.828125 L 98.332031 131.089844 L 193.007812 131.089844 C 195.714844 131.089844 198.046875 129.191406 198.597656 126.539062 Z M 198.597656 126.539062 " fill-opacity="1" fill-rule="nonzero"/><path fill="#003152" d="M 193.007812 132.773438 L 98.332031 132.773438 C 97.53125 132.773438 96.84375 132.214844 96.679688 131.433594 L 82.308594 62.167969 C 82.207031 61.671875 82.332031 61.15625 82.652344 60.765625 C 82.972656 60.371094 83.449219 60.144531 83.957031 60.144531 L 204.597656 60.144531 C 206.933594 60.144531 209.121094 61.183594 210.59375 62.996094 C 212.070312 64.808594 212.640625 67.160156 212.167969 69.449219 L 200.246094 126.882812 C 199.539062 130.296875 196.496094 132.773438 193.007812 132.773438 Z M 99.699219 129.40625 L 193.007812 129.40625 C 194.90625 129.40625 196.5625 128.058594 196.949219 126.199219 L 208.871094 68.761719 C 209.136719 67.472656 208.8125 66.144531 207.980469 65.121094 C 207.148438 64.097656 205.914062 63.511719 204.597656 63.511719 L 86.027344 63.511719 Z M 99.699219 129.40625 " fill-opacity="1" fill-rule="nonzero"/><g clip-path="url(#c1fbb7e2fb)"><path fill="#003152" d="M 84.003906 63.667969 C 83.230469 63.667969 82.53125 63.128906 82.359375 62.34375 L 76.828125 36.90625 C 76.417969 35.007812 74.710938 33.632812 72.773438 33.632812 L 64.179688 33.632812 C 63.25 33.632812 62.496094 32.878906 62.496094 31.949219 C 62.496094 31.019531 63.25 30.265625 64.179688 30.265625 L 72.773438 30.265625 C 76.285156 30.265625 79.378906 32.757812 80.121094 36.191406 L 85.652344 61.625 C 85.847656 62.535156 85.273438 63.433594 84.363281 63.628906 C 84.242188 63.65625 84.121094 63.667969 84.003906 63.667969 Z M 84.003906 63.667969 " fill-opacity="1" fill-rule="nonzero"/></g><path fill="#003152" d="M 194.5625 150.429688 L 183.695312 150.429688 C 182.765625 150.429688 182.011719 149.675781 182.011719 148.746094 C 182.011719 147.816406 182.765625 147.0625 183.695312 147.0625 L 194.5625 147.0625 C 195.492188 147.0625 196.246094 147.816406 196.246094 148.746094 C 196.246094 149.675781 195.492188 150.429688 194.5625 150.429688 Z M 194.5625 150.429688 " fill-opacity="1" fill-rule="nonzero"/><path fill="#003152" d="M 160.609375 150.429688 L 136.164062 150.429688 C 135.234375 150.429688 134.480469 149.675781 134.480469 148.746094 C 134.480469 147.816406 135.234375 147.0625 136.164062 147.0625 L 160.609375 147.0625 C 161.539062 147.0625 162.292969 147.816406 162.292969 148.746094 C 162.292969 149.675781 161.539062 150.429688 160.609375 150.429688 Z M 160.609375 150.429688 " fill-opacity="1" fill-rule="nonzero"/><path fill="#003152" d="M 113.074219 150.429688 L 106.390625 150.429688 C 103.183594 150.429688 100.441406 148.25 99.726562 145.128906 L 96.730469 132.148438 C 96.519531 131.242188 97.085938 130.339844 97.992188 130.128906 C 98.898438 129.921875 99.804688 130.484375 100.011719 131.390625 L 103.007812 144.371094 C 103.371094 145.957031 104.761719 147.0625 106.390625 147.0625 L 113.074219 147.0625 C 114.003906 147.0625 114.757812 147.816406 114.757812 148.746094 C 114.757812 149.675781 114.003906 150.429688 113.074219 150.429688 Z M 113.074219 150.429688 " fill-opacity="1" fill-rule="nonzero"/><path fill="#ffffff" d="M 137.519531 154.859375 C 137.519531 161.984375 131.742188 167.761719 124.617188 167.761719 C 117.492188 167.761719 111.714844 161.984375 111.714844 154.859375 C 111.714844 147.730469 117.492188 141.957031 124.617188 141.957031 C 131.742188 141.957031 137.519531 147.730469 137.519531 154.859375 Z M 137.519531 154.859375 " fill-opacity="1" fill-rule="nonzero"/><path fill="#003152" d="M 124.617188 169.445312 C 116.574219 169.445312 110.03125 162.902344 110.03125 154.859375 C 110.03125 146.816406 116.574219 140.273438 124.617188 140.273438 C 132.660156 140.273438 139.203125 146.816406 139.203125 154.859375 C 139.203125 162.902344 132.660156 169.445312 124.617188 169.445312 Z M 124.617188 143.640625 C 118.429688 143.640625 113.398438 148.671875 113.398438 154.859375 C 113.398438 161.042969 118.429688 166.078125 124.617188 166.078125 C 130.804688 166.078125 135.835938 161.042969 135.835938 154.859375 C 135.835938 148.671875 130.804688 143.640625 124.617188 143.640625 Z M 124.617188 143.640625 " fill-opacity="1" fill-rule="nonzero"/><path fill="#ffffff" d="M 185.054688 154.859375 C 185.054688 161.984375 179.273438 167.761719 172.152344 167.761719 C 165.027344 167.761719 159.25 161.984375 159.25 154.859375 C 159.25 147.730469 165.027344 141.957031 172.152344 141.957031 C 179.273438 141.957031 185.054688 147.730469 185.054688 154.859375 Z M 185.054688 154.859375 " fill-opacity="1" fill-rule="nonzero"/><path fill="#003152" d="M 172.152344 169.445312 C 164.109375 169.445312 157.5625 162.902344 157.5625 154.859375 C 157.5625 146.816406 164.109375 140.273438 172.152344 140.273438 C 180.195312 140.273438 186.738281 146.816406 186.738281 154.859375 C 186.738281 162.902344 180.195312 169.445312 172.152344 169.445312 Z M 172.152344 143.640625 C 165.964844 143.640625 160.933594 148.671875 160.933594 154.859375 C 160.933594 161.042969 165.964844 166.078125 172.152344 166.078125 C 178.339844 166.078125 183.371094 161.042969 183.371094 154.859375 C 183.371094 148.671875 178.339844 143.640625 172.152344 143.640625 Z M 172.152344 143.640625 " fill-opacity="1" fill-rule="nonzero"/><path fill="#98b7e4" d="M 22.496094 168.621094 C 22.496094 179.527344 31.152344 188.367188 41.832031 188.367188 L 42.367188 188.367188 C 50.046875 188.367188 57 183.722656 60.078125 176.535156 L 62.585938 170.679688 C 65.667969 163.496094 72.621094 158.851562 80.300781 158.851562 C 87.980469 158.851562 94.933594 163.496094 98.011719 170.679688 L 100.523438 176.535156 C 103.601562 183.722656 110.554688 188.367188 118.234375 188.367188 L 118.769531 188.367188 C 129.449219 188.367188 138.105469 179.527344 138.105469 168.621094 L 138.105469 126.566406 C 138.105469 112.8125 127.1875 101.660156 113.71875 101.660156 L 47.785156 101.660156 C 33.820312 101.660156 22.496094 112.984375 22.496094 126.949219 Z M 22.496094 168.621094 " fill-opacity="1" fill-rule="nonzero"/><path fill="#003152" d="M 118.769531 190.050781 L 118.234375 190.050781 C 109.878906 190.050781 102.320312 185.007812 98.972656 177.199219 L 96.464844 171.34375 C 93.652344 164.777344 87.308594 160.535156 80.300781 160.535156 C 73.292969 160.535156 66.949219 164.777344 64.136719 171.34375 L 61.628906 177.199219 C 58.285156 185.007812 50.722656 190.050781 42.367188 190.050781 L 41.832031 190.050781 C 30.242188 190.050781 20.8125 180.4375 20.8125 168.621094 L 20.8125 126.949219 C 20.8125 112.078125 32.914062 99.976562 47.785156 99.976562 L 113.71875 99.976562 C 128.09375 99.976562 139.789062 111.90625 139.789062 126.566406 L 139.789062 168.621094 C 139.789062 180.4375 130.359375 190.050781 118.769531 190.050781 Z M 80.300781 157.167969 C 88.65625 157.167969 96.21875 162.210938 99.5625 170.019531 L 102.070312 175.875 C 104.882812 182.441406 111.226562 186.683594 118.234375 186.683594 L 118.769531 186.683594 C 128.503906 186.683594 136.421875 178.582031 136.421875 168.621094 L 136.421875 126.566406 C 136.421875 113.761719 126.238281 103.34375 113.71875 103.34375 L 47.785156 103.34375 C 34.769531 103.34375 24.179688 113.933594 24.179688 126.949219 L 24.179688 168.621094 C 24.179688 178.582031 32.097656 186.683594 41.832031 186.683594 L 42.367188 186.683594 C 49.375 186.683594 55.71875 182.441406 58.53125 175.875 L 61.039062 170.019531 C 64.382812 162.210938 71.945312 157.167969 80.300781 157.167969 Z M 80.300781 157.167969 " fill-opacity="1" fill-rule="nonzero"/><path fill="#ffffff" d="M 118.710938 127.589844 L 113.433594 127.589844 L 113.433594 122.3125 C 113.433594 118.953125 110.710938 116.234375 107.351562 116.234375 C 103.996094 116.234375 101.273438 118.953125 101.273438 122.3125 L 101.273438 127.589844 L 95.996094 127.589844 C 92.636719 127.589844 89.914062 130.3125 89.914062 133.671875 C 89.914062 137.027344 92.636719 139.75 95.996094 139.75 L 101.273438 139.75 L 101.273438 145.027344 C 101.273438 148.386719 103.996094 151.109375 107.351562 151.109375 C 110.710938 151.109375 113.433594 148.386719 113.433594 145.027344 L 113.433594 139.75 L 118.710938 139.75 C 122.070312 139.75 124.789062 137.027344 124.789062 133.671875 C 124.789062 130.3125 122.070312 127.589844 118.710938 127.589844 Z M 118.710938 127.589844 " fill-opacity="1" fill-rule="nonzero"/><path fill="#003152" d="M 107.351562 152.792969 C 103.070312 152.792969 99.589844 149.308594 99.589844 145.027344 L 99.589844 141.433594 L 95.996094 141.433594 C 91.714844 141.433594 88.230469 137.953125 88.230469 133.671875 C 88.230469 129.390625 91.714844 125.90625 95.996094 125.90625 L 99.589844 125.90625 L 99.589844 122.3125 C 99.589844 118.03125 103.070312 114.550781 107.351562 114.550781 C 111.632812 114.550781 115.117188 118.03125 115.117188 122.3125 L 115.117188 125.90625 L 118.710938 125.90625 C 122.992188 125.90625 126.472656 129.390625 126.472656 133.671875 C 126.472656 137.953125 122.992188 141.433594 118.710938 141.433594 L 115.117188 141.433594 L 115.117188 145.027344 C 115.117188 149.308594 111.632812 152.792969 107.351562 152.792969 Z M 95.996094 129.273438 C 93.570312 129.273438 91.597656 131.246094 91.597656 133.671875 C 91.597656 136.09375 93.570312 138.066406 95.996094 138.066406 L 101.273438 138.066406 C 102.203125 138.066406 102.957031 138.820312 102.957031 139.75 L 102.957031 145.027344 C 102.957031 147.453125 104.929688 149.425781 107.351562 149.425781 C 109.777344 149.425781 111.75 147.453125 111.75 145.027344 L 111.75 139.75 C 111.75 138.820312 112.503906 138.066406 113.433594 138.066406 L 118.710938 138.066406 C 121.132812 138.066406 123.105469 136.09375 123.105469 133.671875 C 123.105469 131.246094 121.132812 129.273438 118.710938 129.273438 L 113.433594 129.273438 C 112.503906 129.273438 111.75 128.519531 111.75 127.589844 L 111.75 122.3125 C 111.75 119.890625 109.777344 117.917969 107.351562 117.917969 C 104.929688 117.917969 102.957031 119.890625 102.957031 122.3125 L 102.957031 127.589844 C 102.957031 128.523438 102.203125 129.273438 101.273438 129.273438 Z M 95.996094 129.273438 " fill-opacity="1" fill-rule="nonzero"/><path fill="#ffffff" d="M 66.390625 137.402344 L 62.660156 133.671875 L 66.390625 129.9375 C 68.765625 127.5625 68.765625 123.714844 66.390625 121.339844 C 64.019531 118.964844 60.167969 118.964844 57.792969 121.339844 L 54.0625 125.074219 L 50.328125 121.339844 C 47.953125 118.964844 44.105469 118.964844 41.730469 121.339844 C 39.355469 123.714844 39.355469 127.5625 41.730469 129.9375 L 45.464844 133.671875 L 41.730469 137.402344 C 39.359375 139.777344 39.359375 143.625 41.730469 146 C 44.105469 148.375 47.953125 148.375 50.328125 146 L 54.0625 142.269531 L 57.792969 146 C 60.167969 148.375 64.019531 148.375 66.390625 146 C 68.765625 143.625 68.765625 139.777344 66.390625 137.402344 Z M 66.390625 137.402344 " fill-opacity="1" fill-rule="nonzero"/><path fill="#003152" d="M 62.09375 149.464844 C 60.019531 149.464844 58.070312 148.65625 56.605469 147.191406 L 54.0625 144.648438 L 51.519531 147.191406 C 48.492188 150.21875 43.566406 150.21875 40.539062 147.191406 C 37.515625 144.164062 37.515625 139.238281 40.539062 136.210938 L 43.082031 133.671875 L 40.539062 131.128906 C 37.515625 128.101562 37.515625 123.175781 40.539062 120.148438 C 43.566406 117.121094 48.492188 117.121094 51.519531 120.148438 L 54.0625 122.691406 L 56.605469 120.148438 C 59.632812 117.121094 64.554688 117.121094 67.582031 120.148438 C 70.609375 123.175781 70.609375 128.101562 67.582031 131.128906 L 65.042969 133.671875 L 67.582031 136.210938 C 69.050781 137.679688 69.855469 139.628906 69.855469 141.703125 C 69.855469 143.777344 69.050781 145.726562 67.582031 147.191406 C 66.117188 148.65625 64.167969 149.464844 62.09375 149.464844 Z M 54.0625 140.585938 C 54.492188 140.585938 54.921875 140.75 55.253906 141.078125 L 58.984375 144.808594 C 59.816406 145.640625 60.917969 146.097656 62.09375 146.097656 C 63.265625 146.097656 64.371094 145.640625 65.203125 144.808594 C 66.03125 143.980469 66.488281 142.875 66.488281 141.703125 C 66.488281 140.527344 66.03125 139.425781 65.203125 138.59375 L 61.46875 134.859375 C 60.8125 134.203125 60.8125 133.136719 61.46875 132.480469 L 65.203125 128.746094 C 66.914062 127.035156 66.914062 124.246094 65.203125 122.53125 C 63.488281 120.816406 60.699219 120.816406 58.984375 122.53125 L 55.253906 126.265625 C 54.59375 126.921875 53.527344 126.921875 52.871094 126.265625 L 49.136719 122.53125 C 47.425781 120.816406 44.636719 120.816406 42.921875 122.53125 C 41.207031 124.246094 41.207031 127.035156 42.921875 128.746094 L 46.65625 132.480469 C 47.3125 133.136719 47.3125 134.203125 46.65625 134.859375 L 42.921875 138.59375 C 41.207031 140.308594 41.207031 143.097656 42.921875 144.808594 C 44.636719 146.523438 47.425781 146.523438 49.136719 144.808594 L 52.871094 141.078125 C 53.199219 140.75 53.632812 140.585938 54.0625 140.585938 Z M 54.0625 140.585938 " fill-opacity="1" fill-rule="nonzero"/></svg>