<svg xmlns="http://www.w3.org/2000/svg" xmlns:xlink="http://www.w3.org/1999/xlink" width="500" zoomAndPan="magnify" viewBox="0 0 375 374.999991" height="500" preserveAspectRatio="xMidYMid meet" version="1.0"><defs><clipPath id="7e40d85ae4"><path d="M 18.375 138 L 86 138 L 86 351.96875 L 18.375 351.96875 Z M 18.375 138 " clip-rule="nonzero"/></clipPath><clipPath id="c66e53a08c"><path d="M 84 71.46875 L 289 71.46875 L 289 351.96875 L 84 351.96875 Z M 84 71.46875 " clip-rule="nonzero"/></clipPath><clipPath id="860ba1d86a"><path d="M 147 196 L 356.625 196 L 356.625 351.96875 L 147 351.96875 Z M 147 196 " clip-rule="nonzero"/></clipPath></defs><path fill="#000000" d="M 124.460938 166.410156 L 245.246094 166.410156 L 245.246094 175.6875 L 124.460938 175.6875 Z M 124.460938 166.410156 " fill-opacity="1" fill-rule="nonzero"/><path fill="#003152" d="M 129.378906 127.59375 L 163.945312 127.59375 L 163.945312 144.90625 L 129.378906 144.90625 Z M 129.378906 127.59375 " fill-opacity="1" fill-rule="nonzero"/><g clip-path="url(#7e40d85ae4)"><path fill="#003152" d="M 84.597656 351.066406 C 84.414062 350.882812 84.238281 350.707031 84.0625 350.511719 L 83.503906 349.890625 L 83.003906 349.3125 L 82.472656 348.65625 L 82 348.0625 C 81.835938 347.839844 81.675781 347.605469 81.507812 347.375 L 81.0625 346.761719 C 80.90625 346.53125 80.75 346.289062 80.601562 346.046875 C 80.453125 345.808594 80.320312 345.632812 80.191406 345.417969 C 80.0625 345.203125 79.894531 344.925781 79.757812 344.675781 L 79.375 344.027344 C 79.238281 343.777344 79.105469 343.515625 78.976562 343.257812 C 78.847656 342.996094 78.746094 342.820312 78.632812 342.589844 C 78.523438 342.355469 78.394531 342.058594 78.261719 341.800781 L 77.957031 341.121094 C 77.84375 340.84375 77.734375 340.574219 77.632812 340.296875 C 77.53125 340.019531 77.4375 339.84375 77.355469 339.609375 C 77.269531 339.378906 77.160156 339.042969 77.058594 338.757812 L 76.824219 338.0625 C 76.730469 337.773438 76.648438 337.476562 76.566406 337.179688 L 76.371094 336.484375 C 76.285156 336.1875 76.222656 335.882812 76.15625 335.554688 C 76.09375 335.230469 76.035156 335.09375 75.988281 334.851562 C 75.945312 334.609375 75.878906 334.230469 75.824219 333.921875 C 75.765625 333.617188 75.730469 333.460938 75.691406 333.21875 C 75.65625 332.976562 75.609375 332.558594 75.5625 332.226562 C 75.515625 331.890625 75.5 331.78125 75.480469 331.558594 C 75.480469 331.175781 75.414062 330.796875 75.386719 330.417969 C 75.386719 330.230469 75.386719 330.054688 75.386719 329.871094 C 75.386719 329.304688 75.386719 328.726562 75.386719 328.152344 L 75.386719 138.503906 L 42.351562 138.503906 C 41.574219 138.507812 40.800781 138.542969 40.03125 138.621094 C 39.257812 138.699219 38.492188 138.8125 37.730469 138.964844 C 36.96875 139.117188 36.21875 139.304688 35.476562 139.53125 C 34.734375 139.757812 34.003906 140.019531 33.285156 140.316406 C 32.570312 140.613281 31.871094 140.945312 31.1875 141.3125 C 30.5 141.679688 29.835938 142.078125 29.191406 142.507812 C 28.546875 142.941406 27.925781 143.402344 27.324219 143.894531 C 26.726562 144.386719 26.152344 144.90625 25.601562 145.457031 C 25.054688 146.003906 24.535156 146.578125 24.042969 147.179688 C 23.550781 147.777344 23.089844 148.402344 22.65625 149.046875 C 22.226562 149.691406 21.828125 150.355469 21.460938 151.039062 C 21.09375 151.726562 20.765625 152.425781 20.46875 153.140625 C 20.167969 153.859375 19.910156 154.589844 19.683594 155.332031 C 19.457031 156.074219 19.269531 156.824219 19.117188 157.585938 C 18.964844 158.347656 18.851562 159.113281 18.773438 159.886719 C 18.699219 160.65625 18.660156 161.433594 18.660156 162.207031 L 18.660156 328.164062 C 18.660156 328.9375 18.699219 329.710938 18.773438 330.484375 C 18.851562 331.257812 18.964844 332.023438 19.117188 332.78125 C 19.269531 333.542969 19.460938 334.296875 19.683594 335.039062 C 19.910156 335.78125 20.171875 336.507812 20.46875 337.226562 C 20.765625 337.941406 21.097656 338.640625 21.464844 339.324219 C 21.832031 340.011719 22.230469 340.675781 22.660156 341.320312 C 23.089844 341.964844 23.554688 342.585938 24.046875 343.1875 C 24.539062 343.785156 25.058594 344.359375 25.605469 344.90625 C 26.15625 345.457031 26.730469 345.976562 27.328125 346.46875 C 27.929688 346.960938 28.550781 347.421875 29.195312 347.855469 C 29.839844 348.285156 30.503906 348.683594 31.1875 349.050781 C 31.871094 349.414062 32.574219 349.746094 33.289062 350.042969 C 34.003906 350.34375 34.734375 350.605469 35.476562 350.828125 C 36.21875 351.054688 36.96875 351.242188 37.730469 351.394531 C 38.492188 351.546875 39.257812 351.664062 40.03125 351.738281 C 40.800781 351.816406 41.574219 351.855469 42.351562 351.855469 L 85.367188 351.855469 L 85.175781 351.660156 C 84.980469 351.464844 84.785156 351.269531 84.597656 351.066406 Z M 71 188.722656 L 46.21875 188.722656 L 46.21875 252.425781 L 70.144531 252.425781 L 70.144531 261.703125 L 36.941406 261.703125 L 36.941406 179.417969 L 71 179.417969 Z M 71 188.722656 " fill-opacity="1" fill-rule="nonzero"/></g><g clip-path="url(#c66e53a08c)"><path fill="#ec9707" d="M 147.042969 351.066406 C 146.867188 350.882812 146.679688 350.707031 146.511719 350.511719 C 146.347656 350.316406 146.140625 350.101562 145.957031 349.890625 C 145.769531 349.675781 145.613281 349.507812 145.457031 349.3125 C 145.296875 349.117188 145.101562 348.878906 144.925781 348.65625 L 144.453125 348.0625 L 143.953125 347.375 L 143.515625 346.761719 C 143.351562 346.53125 143.203125 346.289062 143.042969 346.046875 C 142.886719 345.808594 142.773438 345.632812 142.636719 345.417969 L 142.199219 344.675781 L 141.828125 344.027344 C 141.6875 343.777344 141.558594 343.515625 141.421875 343.257812 C 141.28125 342.996094 141.1875 342.820312 141.085938 342.589844 C 140.984375 342.355469 140.835938 342.058594 140.714844 341.800781 C 140.59375 341.539062 140.5 341.34375 140.410156 341.121094 C 140.316406 340.898438 140.1875 340.574219 140.074219 340.296875 C 139.964844 340.019531 139.890625 339.84375 139.804688 339.609375 C 139.722656 339.378906 139.601562 339.042969 139.507812 338.757812 C 139.417969 338.46875 139.34375 338.292969 139.269531 338.0625 L 139.015625 337.179688 C 138.953125 336.949219 138.878906 336.714844 138.8125 336.484375 C 138.75 336.253906 138.675781 335.882812 138.601562 335.554688 C 138.527344 335.230469 138.488281 335.09375 138.441406 334.851562 C 138.394531 334.609375 138.320312 334.230469 138.265625 333.921875 C 138.210938 333.617188 138.183594 333.460938 138.144531 333.21875 C 138.109375 332.976562 138.050781 332.558594 138.015625 332.226562 C 137.976562 331.890625 137.949219 331.78125 137.921875 331.558594 C 137.921875 331.175781 137.867188 330.796875 137.839844 330.417969 C 137.839844 330.230469 137.839844 330.054688 137.792969 329.871094 C 137.792969 329.304688 137.792969 328.726562 137.792969 328.152344 L 137.792969 219.992188 C 137.792969 218.914062 137.847656 217.835938 137.953125 216.761719 C 138.0625 215.6875 138.21875 214.621094 138.429688 213.5625 C 138.640625 212.503906 138.90625 211.457031 139.21875 210.425781 C 139.53125 209.390625 139.894531 208.375 140.308594 207.378906 C 140.722656 206.382812 141.183594 205.40625 141.695312 204.457031 C 142.203125 203.503906 142.757812 202.578125 143.355469 201.679688 C 143.957031 200.78125 144.601562 199.917969 145.285156 199.082031 C 145.96875 198.246094 146.695312 197.449219 147.457031 196.683594 C 148.21875 195.921875 149.019531 195.195312 149.855469 194.511719 C 150.6875 193.828125 151.554688 193.183594 152.453125 192.582031 C 153.347656 191.984375 154.273438 191.429688 155.226562 190.917969 C 156.175781 190.410156 157.152344 189.949219 158.148438 189.535156 C 159.148438 189.121094 160.160156 188.757812 161.195312 188.441406 C 162.226562 188.128906 163.273438 187.867188 164.332031 187.652344 C 165.390625 187.441406 166.457031 187.28125 167.53125 187.175781 C 168.605469 187.070312 169.683594 187.015625 170.761719 187.015625 L 288.683594 187.015625 L 288.683594 95.125 C 288.679688 94.351562 288.640625 93.578125 288.566406 92.804688 C 288.488281 92.03125 288.375 91.265625 288.222656 90.503906 C 288.070312 89.746094 287.882812 88.992188 287.65625 88.25 C 287.429688 87.507812 287.167969 86.78125 286.871094 86.0625 C 286.574219 85.347656 286.242188 84.648438 285.875 83.960938 C 285.511719 83.277344 285.113281 82.613281 284.679688 81.96875 C 284.25 81.324219 283.789062 80.703125 283.296875 80.101562 C 282.804688 79.503906 282.28125 78.929688 281.734375 78.378906 C 281.1875 77.832031 280.613281 77.3125 280.011719 76.820312 C 279.414062 76.328125 278.789062 75.867188 278.144531 75.433594 C 277.5 75.003906 276.835938 74.605469 276.152344 74.238281 C 275.46875 73.871094 274.769531 73.542969 274.050781 73.242188 C 273.335938 72.945312 272.605469 72.683594 271.863281 72.460938 C 271.121094 72.234375 270.371094 72.042969 269.609375 71.894531 C 268.847656 71.742188 268.082031 71.625 267.308594 71.550781 C 266.539062 71.472656 265.765625 71.433594 264.988281 71.433594 L 108.273438 71.433594 C 107.496094 71.433594 106.722656 71.472656 105.953125 71.550781 C 105.179688 71.625 104.414062 71.742188 103.652344 71.894531 C 102.890625 72.042969 102.140625 72.234375 101.398438 72.460938 C 100.65625 72.683594 99.925781 72.945312 99.210938 73.242188 C 98.496094 73.542969 97.792969 73.871094 97.109375 74.238281 C 96.425781 74.605469 95.761719 75.003906 95.117188 75.433594 C 94.472656 75.867188 93.851562 76.328125 93.25 76.820312 C 92.652344 77.3125 92.078125 77.832031 91.527344 78.378906 C 90.980469 78.929688 90.460938 79.503906 89.96875 80.101562 C 89.476562 80.703125 89.011719 81.324219 88.582031 81.96875 C 88.152344 82.613281 87.753906 83.277344 87.386719 83.960938 C 87.019531 84.648438 86.6875 85.347656 86.390625 86.0625 C 86.09375 86.78125 85.832031 87.507812 85.605469 88.25 C 85.382812 88.992188 85.191406 89.746094 85.039062 90.503906 C 84.886719 91.265625 84.773438 92.03125 84.695312 92.804688 C 84.621094 93.578125 84.582031 94.351562 84.582031 95.125 L 84.582031 328.164062 C 84.582031 328.9375 84.621094 329.710938 84.695312 330.484375 C 84.773438 331.257812 84.886719 332.023438 85.039062 332.78125 C 85.191406 333.542969 85.382812 334.296875 85.605469 335.039062 C 85.832031 335.78125 86.09375 336.507812 86.390625 337.226562 C 86.6875 337.941406 87.019531 338.640625 87.386719 339.324219 C 87.753906 340.011719 88.152344 340.675781 88.582031 341.320312 C 89.011719 341.964844 89.476562 342.585938 89.96875 343.1875 C 90.460938 343.785156 90.980469 344.359375 91.527344 344.90625 C 92.078125 345.457031 92.652344 345.976562 93.25 346.46875 C 93.851562 346.960938 94.472656 347.421875 95.117188 347.855469 C 95.761719 348.285156 96.425781 348.683594 97.109375 349.050781 C 97.792969 349.414062 98.496094 349.746094 99.210938 350.042969 C 99.925781 350.34375 100.65625 350.605469 101.398438 350.828125 C 102.140625 351.054688 102.890625 351.242188 103.652344 351.394531 C 104.414062 351.546875 105.179688 351.664062 105.953125 351.738281 C 106.722656 351.816406 107.496094 351.855469 108.273438 351.855469 L 147.8125 351.855469 L 147.625 351.660156 C 147.421875 351.464844 147.238281 351.269531 147.042969 351.066406 Z M 244.085938 152.484375 L 186.402344 152.484375 L 186.402344 143.207031 L 244.085938 143.207031 Z M 186.097656 120.292969 L 243.800781 120.292969 L 243.800781 129.570312 L 186.097656 129.570312 Z M 120.074219 146.269531 L 120.074219 126.195312 C 120.074219 125.675781 120.125 125.164062 120.226562 124.65625 C 120.328125 124.148438 120.476562 123.65625 120.675781 123.179688 C 120.875 122.703125 121.117188 122.25 121.40625 121.816406 C 121.695312 121.386719 122.019531 120.992188 122.386719 120.625 C 122.753906 120.257812 123.152344 119.933594 123.582031 119.644531 C 124.011719 119.359375 124.464844 119.117188 124.945312 118.917969 C 125.421875 118.71875 125.914062 118.570312 126.421875 118.46875 C 126.929688 118.367188 127.441406 118.320312 127.960938 118.320312 L 165.316406 118.320312 C 165.835938 118.320312 166.347656 118.371094 166.851562 118.472656 C 167.359375 118.574219 167.851562 118.722656 168.328125 118.921875 C 168.808594 119.117188 169.261719 119.363281 169.691406 119.648438 C 170.121094 119.9375 170.519531 120.261719 170.882812 120.628906 C 171.25 120.992188 171.574219 121.390625 171.863281 121.820312 C 172.152344 122.25 172.394531 122.703125 172.589844 123.183594 C 172.789062 123.660156 172.9375 124.152344 173.039062 124.660156 C 173.140625 125.164062 173.191406 125.675781 173.195312 126.195312 L 173.195312 146.308594 C 173.191406 146.824219 173.140625 147.335938 173.039062 147.84375 C 172.9375 148.351562 172.789062 148.84375 172.589844 149.320312 C 172.394531 149.796875 172.152344 150.25 171.863281 150.679688 C 171.574219 151.109375 171.25 151.507812 170.882812 151.875 C 170.519531 152.238281 170.121094 152.566406 169.691406 152.851562 C 169.261719 153.140625 168.808594 153.382812 168.328125 153.582031 C 167.851562 153.777344 167.359375 153.929688 166.851562 154.03125 C 166.347656 154.132812 165.835938 154.183594 165.316406 154.183594 L 127.988281 154.183594 C 127.46875 154.183594 126.957031 154.132812 126.449219 154.03125 C 125.941406 153.929688 125.449219 153.78125 124.972656 153.582031 C 124.492188 153.386719 124.039062 153.144531 123.609375 152.855469 C 123.179688 152.570312 122.78125 152.242188 122.414062 151.875 C 122.046875 151.511719 121.722656 151.113281 121.433594 150.683594 C 121.144531 150.253906 120.902344 149.800781 120.703125 149.320312 C 120.507812 148.84375 120.355469 148.351562 120.253906 147.84375 C 120.152344 147.335938 120.101562 146.824219 120.101562 146.308594 Z M 120.074219 146.269531 " fill-opacity="1" fill-rule="nonzero"/></g><path fill="#003152" d="M 269.40625 237.628906 L 303.96875 237.628906 L 303.96875 254.941406 L 269.40625 254.941406 Z M 269.40625 237.628906 " fill-opacity="1" fill-rule="nonzero"/><g clip-path="url(#860ba1d86a)"><path fill="#ec9707" d="M 332.644531 196.328125 L 170.726562 196.328125 C 169.949219 196.328125 169.175781 196.367188 168.40625 196.445312 C 167.632812 196.519531 166.867188 196.636719 166.109375 196.789062 C 165.347656 196.9375 164.597656 197.128906 163.855469 197.351562 C 163.113281 197.578125 162.386719 197.839844 161.667969 198.136719 C 160.953125 198.433594 160.253906 198.765625 159.570312 199.128906 C 158.886719 199.496094 158.222656 199.894531 157.578125 200.324219 C 156.933594 200.753906 156.3125 201.214844 155.710938 201.707031 C 155.113281 202.199219 154.539062 202.71875 153.988281 203.265625 C 153.441406 203.8125 152.921875 204.386719 152.429688 204.984375 C 151.9375 205.585938 151.476562 206.207031 151.042969 206.851562 C 150.613281 207.496094 150.214844 208.15625 149.847656 208.839844 C 149.480469 209.523438 149.148438 210.222656 148.851562 210.9375 C 148.554688 211.65625 148.292969 212.382812 148.066406 213.125 C 147.839844 213.867188 147.648438 214.617188 147.496094 215.378906 C 147.34375 216.136719 147.230469 216.902344 147.152344 217.675781 C 147.074219 218.445312 147.035156 219.21875 147.03125 219.992188 L 147.03125 328.164062 C 147.035156 328.9375 147.074219 329.710938 147.148438 330.484375 C 147.226562 331.257812 147.339844 332.023438 147.492188 332.78125 C 147.644531 333.542969 147.832031 334.296875 148.058594 335.039062 C 148.285156 335.78125 148.546875 336.507812 148.84375 337.226562 C 149.140625 337.941406 149.472656 338.640625 149.839844 339.324219 C 150.203125 340.011719 150.601562 340.675781 151.035156 341.320312 C 151.464844 341.964844 151.925781 342.585938 152.417969 343.1875 C 152.910156 343.785156 153.433594 344.359375 153.980469 344.90625 C 154.527344 345.457031 155.101562 345.976562 155.703125 346.46875 C 156.300781 346.960938 156.925781 347.421875 157.570312 347.855469 C 158.214844 348.285156 158.878906 348.683594 159.5625 349.050781 C 160.246094 349.414062 160.945312 349.746094 161.664062 350.042969 C 162.378906 350.34375 163.109375 350.605469 163.851562 350.828125 C 164.59375 351.054688 165.34375 351.242188 166.105469 351.394531 C 166.867188 351.546875 167.632812 351.664062 168.40625 351.738281 C 169.175781 351.816406 169.949219 351.855469 170.726562 351.855469 L 332.644531 351.855469 C 333.421875 351.855469 334.195312 351.816406 334.964844 351.738281 C 335.738281 351.664062 336.503906 351.546875 337.265625 351.394531 C 338.027344 351.242188 338.777344 351.054688 339.519531 350.828125 C 340.261719 350.605469 340.992188 350.34375 341.707031 350.042969 C 342.425781 349.746094 343.125 349.414062 343.808594 349.050781 C 344.492188 348.683594 345.15625 348.285156 345.800781 347.855469 C 346.445312 347.421875 347.070312 346.960938 347.667969 346.46875 C 348.269531 345.976562 348.84375 345.457031 349.390625 344.90625 C 349.9375 344.359375 350.460938 343.785156 350.953125 343.1875 C 351.445312 342.585938 351.90625 341.964844 352.335938 341.320312 C 352.769531 340.675781 353.167969 340.011719 353.53125 339.324219 C 353.898438 338.640625 354.230469 337.941406 354.527344 337.226562 C 354.824219 336.507812 355.085938 335.78125 355.3125 335.039062 C 355.539062 334.296875 355.726562 333.542969 355.878906 332.78125 C 356.03125 332.023438 356.144531 331.257812 356.222656 330.484375 C 356.296875 329.710938 356.335938 328.9375 356.339844 328.164062 L 356.339844 219.992188 C 356.335938 219.21875 356.296875 218.445312 356.21875 217.675781 C 356.140625 216.902344 356.027344 216.136719 355.875 215.378906 C 355.722656 214.617188 355.53125 213.867188 355.304688 213.125 C 355.078125 212.382812 354.816406 211.65625 354.519531 210.9375 C 354.222656 210.222656 353.890625 209.523438 353.523438 208.839844 C 353.15625 208.15625 352.757812 207.496094 352.328125 206.851562 C 351.894531 206.207031 351.433594 205.585938 350.941406 204.984375 C 350.449219 204.386719 349.929688 203.8125 349.382812 203.265625 C 348.832031 202.71875 348.257812 202.199219 347.660156 201.707031 C 347.058594 201.214844 346.4375 200.753906 345.792969 200.324219 C 345.148438 199.894531 344.484375 199.496094 343.800781 199.128906 C 343.117188 198.765625 342.417969 198.433594 341.703125 198.136719 C 340.984375 197.839844 340.257812 197.578125 339.515625 197.351562 C 338.773438 197.128906 338.023438 196.9375 337.261719 196.789062 C 336.503906 196.636719 335.734375 196.519531 334.964844 196.445312 C 334.195312 196.367188 333.421875 196.328125 332.644531 196.328125 Z M 250.082031 308.632812 L 192.378906 308.632812 L 192.378906 299.359375 L 250.082031 299.359375 Z M 250.082031 285.71875 L 192.378906 285.71875 L 192.378906 276.445312 L 250.082031 276.445312 Z M 313.273438 256.339844 C 313.273438 256.859375 313.222656 257.371094 313.121094 257.878906 C 313.019531 258.386719 312.871094 258.878906 312.671875 259.355469 C 312.472656 259.832031 312.230469 260.285156 311.941406 260.71875 C 311.65625 261.148438 311.328125 261.542969 310.960938 261.910156 C 310.597656 262.277344 310.199219 262.601562 309.765625 262.890625 C 309.335938 263.175781 308.882812 263.417969 308.40625 263.617188 C 307.925781 263.816406 307.433594 263.964844 306.925781 264.066406 C 306.417969 264.167969 305.90625 264.214844 305.390625 264.214844 L 268.003906 264.214844 C 267.488281 264.214844 266.976562 264.164062 266.46875 264.0625 C 265.960938 263.960938 265.46875 263.8125 264.992188 263.613281 C 264.511719 263.417969 264.058594 263.171875 263.628906 262.886719 C 263.199219 262.597656 262.800781 262.273438 262.4375 261.90625 C 262.070312 261.542969 261.746094 261.144531 261.457031 260.714844 C 261.171875 260.285156 260.925781 259.832031 260.730469 259.351562 C 260.53125 258.875 260.382812 258.382812 260.28125 257.875 C 260.179688 257.371094 260.128906 256.859375 260.128906 256.339844 L 260.128906 236.238281 C 260.128906 235.71875 260.179688 235.207031 260.277344 234.699219 C 260.378906 234.191406 260.527344 233.699219 260.726562 233.222656 C 260.925781 232.742188 261.167969 232.289062 261.453125 231.859375 C 261.742188 231.429688 262.066406 231.03125 262.433594 230.664062 C 262.800781 230.300781 263.195312 229.972656 263.628906 229.683594 C 264.058594 229.394531 264.511719 229.152344 264.988281 228.953125 C 265.464844 228.757812 265.960938 228.605469 266.464844 228.503906 C 266.972656 228.402344 267.484375 228.351562 268.003906 228.351562 L 305.363281 228.351562 C 305.878906 228.351562 306.390625 228.402344 306.898438 228.503906 C 307.40625 228.605469 307.898438 228.757812 308.378906 228.953125 C 308.855469 229.152344 309.308594 229.394531 309.742188 229.683594 C 310.171875 229.972656 310.570312 230.296875 310.933594 230.664062 C 311.300781 231.03125 311.628906 231.429688 311.914062 231.859375 C 312.203125 232.289062 312.445312 232.742188 312.644531 233.222656 C 312.84375 233.699219 312.992188 234.191406 313.09375 234.699219 C 313.195312 235.207031 313.246094 235.71875 313.246094 236.238281 Z M 313.273438 256.339844 " fill-opacity="1" fill-rule="nonzero"/></g></svg>